G04*
G04 #@! TF.GenerationSoftware,Altium Limited,Altium Designer,21.9.1 (22)*
G04*
G04 Layer_Color=65535*
%FSLAX25Y25*%
%MOIN*%
G70*
G04*
G04 #@! TF.SameCoordinates,86BB2744-E3F5-4ECB-9631-A9D74316A694*
G04*
G04*
G04 #@! TF.FilePolarity,Positive*
G04*
G01*
G75*
%ADD10C,0.00787*%
%ADD11C,0.00500*%
%ADD12C,0.01000*%
%ADD13C,0.00800*%
%ADD14C,0.00591*%
D10*
X179842Y125000D02*
G03*
X179842Y125000I-9843J0D01*
G01*
X102500Y115000D02*
X105000D01*
X102500Y315000D02*
X105000D01*
Y115000D02*
Y315000D01*
X155000Y115000D02*
Y315000D01*
X135000Y115000D02*
Y315000D01*
Y115000D02*
X155000D01*
X135000Y315000D02*
X155000D01*
D11*
Y110000D02*
X600000Y110000D01*
X155000Y320000D02*
X600000Y320000D01*
D12*
X329079Y323333D02*
Y328331D01*
X330746Y326665D01*
X332412Y328331D01*
Y323333D01*
X336577D02*
X334911D01*
X334078Y324166D01*
Y325832D01*
X334911Y326665D01*
X336577D01*
X337410Y325832D01*
Y324999D01*
X334078D01*
X339076Y323333D02*
Y326665D01*
X339909D01*
X340742Y325832D01*
Y323333D01*
Y325832D01*
X341575Y326665D01*
X342408Y325832D01*
Y323333D01*
X344908D02*
X346574D01*
X347407Y324166D01*
Y325832D01*
X346574Y326665D01*
X344908D01*
X344075Y325832D01*
Y324166D01*
X344908Y323333D01*
X349073Y326665D02*
Y323333D01*
Y324999D01*
X349906Y325832D01*
X350739Y326665D01*
X351572D01*
X354071D02*
Y324166D01*
X354904Y323333D01*
X357403D01*
Y322499D01*
X356570Y321666D01*
X355737D01*
X357403Y323333D02*
Y326665D01*
X364068Y323333D02*
Y328331D01*
X366567D01*
X367400Y327498D01*
Y325832D01*
X366567Y324999D01*
X364068D01*
X369066Y326665D02*
Y323333D01*
Y324999D01*
X369900Y325832D01*
X370732Y326665D01*
X371566D01*
X374898Y323333D02*
X376564D01*
X377397Y324166D01*
Y325832D01*
X376564Y326665D01*
X374898D01*
X374065Y325832D01*
Y324166D01*
X374898Y323333D01*
X379896Y327498D02*
Y326665D01*
X379063D01*
X380729D01*
X379896D01*
Y324166D01*
X380729Y323333D01*
X384062D02*
X385728D01*
X386561Y324166D01*
Y325832D01*
X385728Y326665D01*
X384062D01*
X383228Y325832D01*
Y324166D01*
X384062Y323333D01*
X388227Y328331D02*
Y323333D01*
X390726D01*
X391559Y324166D01*
Y324999D01*
Y325832D01*
X390726Y326665D01*
X388227D01*
X394058Y323333D02*
X395724D01*
X396557Y324166D01*
Y325832D01*
X395724Y326665D01*
X394058D01*
X393225Y325832D01*
Y324166D01*
X394058Y323333D01*
X399057Y326665D02*
X400723D01*
X401556Y325832D01*
Y323333D01*
X399057D01*
X398224Y324166D01*
X399057Y324999D01*
X401556D01*
X403222Y326665D02*
Y323333D01*
Y324999D01*
X404055Y325832D01*
X404888Y326665D01*
X405721D01*
X411553Y328331D02*
Y323333D01*
X409053D01*
X408220Y324166D01*
Y325832D01*
X409053Y326665D01*
X411553D01*
X433212Y323333D02*
Y328331D01*
X435711D01*
X436545Y327498D01*
Y325832D01*
X435711Y324999D01*
X433212D01*
X434878D02*
X436545Y323333D01*
X440710D02*
X439044D01*
X438211Y324166D01*
Y325832D01*
X439044Y326665D01*
X440710D01*
X441543Y325832D01*
Y324999D01*
X438211D01*
X443209Y326665D02*
X444875Y323333D01*
X446541Y326665D01*
X453206Y323333D02*
Y326665D01*
X454872Y328331D01*
X456538Y326665D01*
Y323333D01*
Y325832D01*
X453206D01*
X478198Y324166D02*
X479031Y323333D01*
X480697D01*
X481530Y324166D01*
Y327498D01*
X480697Y328331D01*
X479031D01*
X478198Y327498D01*
Y326665D01*
X479031Y325832D01*
X481530D01*
X483196Y323333D02*
X486528Y326665D01*
X488195Y323333D02*
X489861D01*
X489028D01*
Y328331D01*
X488195Y327498D01*
X492360D02*
X493193Y328331D01*
X494859D01*
X495692Y327498D01*
Y326665D01*
X494859Y325832D01*
X495692Y324999D01*
Y324166D01*
X494859Y323333D01*
X493193D01*
X492360Y324166D01*
Y324999D01*
X493193Y325832D01*
X492360Y326665D01*
Y327498D01*
X493193Y325832D02*
X494859D01*
X497358Y323333D02*
X500690Y326665D01*
X505689Y323333D02*
X502356D01*
X505689Y326665D01*
Y327498D01*
X504856Y328331D01*
X503190D01*
X502356Y327498D01*
X507355D02*
X508188Y328331D01*
X509854D01*
X510687Y327498D01*
Y324166D01*
X509854Y323333D01*
X508188D01*
X507355Y324166D01*
Y327498D01*
X515686Y323333D02*
X512353D01*
X515686Y326665D01*
Y327498D01*
X514853Y328331D01*
X513186D01*
X512353Y327498D01*
X520684Y323333D02*
X517352D01*
X520684Y326665D01*
Y327498D01*
X519851Y328331D01*
X518185D01*
X517352Y327498D01*
X545676Y328331D02*
X542344D01*
Y323333D01*
X545676D01*
X542344Y325832D02*
X544010D01*
X547342Y323333D02*
Y324166D01*
X548175D01*
Y323333D01*
X547342D01*
X559838Y327498D02*
X559005Y328331D01*
X557339D01*
X556506Y327498D01*
Y326665D01*
X557339Y325832D01*
X559005D01*
X559838Y324999D01*
Y324166D01*
X559005Y323333D01*
X557339D01*
X556506Y324166D01*
X561504Y328331D02*
X563170D01*
X562337D01*
Y323333D01*
X561504D01*
X563170D01*
X565669D02*
Y328331D01*
X567336Y326665D01*
X569002Y328331D01*
Y323333D01*
X574000Y327498D02*
X573167Y328331D01*
X571501D01*
X570668Y327498D01*
Y326665D01*
X571501Y325832D01*
X573167D01*
X574000Y324999D01*
Y324166D01*
X573167Y323333D01*
X571501D01*
X570668Y324166D01*
X127001Y110000D02*
Y108001D01*
Y109000D01*
X131999D01*
X132999Y108001D01*
Y107001D01*
X131999Y106001D01*
X132999Y111999D02*
Y113999D01*
Y112999D01*
X127001D01*
X128001Y111999D01*
X158048Y136881D02*
X157215Y136048D01*
Y134382D01*
X158048Y133549D01*
X161381D01*
X162214Y134382D01*
Y136048D01*
X161381Y136881D01*
X162214Y138547D02*
Y140213D01*
Y139380D01*
X157215D01*
X158048Y138547D01*
X112999Y106001D02*
X107001D01*
Y109000D01*
X108001Y110000D01*
X110000D01*
X111000Y109000D01*
Y106001D01*
X112999Y111999D02*
Y113999D01*
Y112999D01*
X107001D01*
X108001Y111999D01*
D13*
X152000Y110000D02*
Y111666D01*
Y110833D01*
X147002D01*
X147835Y110000D01*
X142000Y113332D02*
Y110000D01*
X138668Y113332D01*
X137835D01*
X137002Y112499D01*
Y110833D01*
X137835Y110000D01*
X142000Y320499D02*
X137002D01*
X139501Y318000D01*
Y321332D01*
X137835Y322998D02*
X137002Y323831D01*
Y325498D01*
X137835Y326331D01*
X141167D01*
X142000Y325498D01*
Y323831D01*
X141167Y322998D01*
X137835D01*
X147835Y318000D02*
X147002Y318833D01*
Y320499D01*
X147835Y321332D01*
X148668D01*
X149501Y320499D01*
Y319666D01*
Y320499D01*
X150334Y321332D01*
X151167D01*
X152000Y320499D01*
Y318833D01*
X151167Y318000D01*
Y322998D02*
X152000Y323831D01*
Y325498D01*
X151167Y326331D01*
X147835D01*
X147002Y325498D01*
Y323831D01*
X147835Y322998D01*
X148668D01*
X149501Y323831D01*
Y326331D01*
D14*
X162212Y115889D02*
Y111953D01*
X164180Y113921D02*
X160245D01*
M02*
