G04*
G04 #@! TF.GenerationSoftware,Altium Limited,Altium Designer,21.9.1 (22)*
G04*
G04 Layer_Physical_Order=2*
G04 Layer_Color=16711680*
%FSLAX25Y25*%
%MOIN*%
G70*
G04*
G04 #@! TF.SameCoordinates,86BB2744-E3F5-4ECB-9631-A9D74316A694*
G04*
G04*
G04 #@! TF.FilePolarity,Positive*
G04*
G01*
G75*
%ADD20C,0.02000*%
%ADD21C,0.05906*%
%ADD22R,0.05906X0.05906*%
%ADD23C,0.04921*%
%ADD24R,0.04921X0.04921*%
G36*
X114941Y119000D02*
X114558Y118990D01*
X114216Y118960D01*
X113915Y118910D01*
X113653Y118840D01*
X113432Y118750D01*
X113251Y118640D01*
X113110Y118510D01*
X113009Y118360D01*
X112949Y118190D01*
X112929Y118000D01*
Y122000D01*
X112949Y121810D01*
X113009Y121640D01*
X113110Y121490D01*
X113251Y121360D01*
X113432Y121250D01*
X113653Y121160D01*
X113915Y121090D01*
X114216Y121040D01*
X114558Y121010D01*
X114941Y121000D01*
Y119000D01*
D02*
G37*
G36*
X115450Y121000D02*
X115726Y121011D01*
X115994Y121043D01*
X116256Y121096D01*
X116510Y121171D01*
X116758Y121267D01*
X116999Y121384D01*
X117232Y121523D01*
X117459Y121683D01*
X117679Y121864D01*
X117891Y122067D01*
Y117933D01*
X117679Y118136D01*
X117459Y118317D01*
X117232Y118477D01*
X116999Y118616D01*
X116758Y118733D01*
X116510Y118829D01*
X116256Y118904D01*
X115994Y118957D01*
X115726Y118989D01*
X115450Y119000D01*
Y121000D01*
D02*
G37*
G36*
X114550Y129000D02*
X114274Y128989D01*
X114006Y128957D01*
X113744Y128904D01*
X113489Y128829D01*
X113242Y128733D01*
X113001Y128616D01*
X112768Y128477D01*
X112541Y128317D01*
X112321Y128136D01*
X112109Y127933D01*
Y132067D01*
X112321Y131864D01*
X112541Y131683D01*
X112768Y131523D01*
X113001Y131384D01*
X113242Y131267D01*
X113489Y131171D01*
X113744Y131096D01*
X114006Y131043D01*
X114274Y131011D01*
X114550Y131000D01*
Y129000D01*
D02*
G37*
G36*
X115450Y131000D02*
X115726Y131011D01*
X115994Y131043D01*
X116256Y131096D01*
X116510Y131171D01*
X116758Y131267D01*
X116999Y131384D01*
X117232Y131523D01*
X117459Y131683D01*
X117679Y131864D01*
X117891Y132067D01*
Y127933D01*
X117679Y128136D01*
X117459Y128317D01*
X117232Y128477D01*
X116999Y128616D01*
X116758Y128733D01*
X116510Y128829D01*
X116256Y128904D01*
X115994Y128957D01*
X115726Y128989D01*
X115450Y129000D01*
Y131000D01*
D02*
G37*
G36*
X124550Y119000D02*
X124274Y118989D01*
X124006Y118957D01*
X123744Y118904D01*
X123489Y118829D01*
X123242Y118733D01*
X123001Y118616D01*
X122768Y118477D01*
X122541Y118317D01*
X122321Y118136D01*
X122109Y117933D01*
Y122067D01*
X122321Y121864D01*
X122541Y121683D01*
X122768Y121523D01*
X123001Y121384D01*
X123242Y121267D01*
X123489Y121171D01*
X123744Y121096D01*
X124006Y121043D01*
X124274Y121011D01*
X124550Y121000D01*
Y119000D01*
D02*
G37*
G36*
Y129000D02*
X124274Y128989D01*
X124006Y128957D01*
X123744Y128904D01*
X123489Y128829D01*
X123242Y128733D01*
X123001Y128616D01*
X122768Y128477D01*
X122541Y128317D01*
X122321Y128136D01*
X122109Y127933D01*
Y132067D01*
X122321Y131864D01*
X122541Y131683D01*
X122768Y131523D01*
X123001Y131384D01*
X123242Y131267D01*
X123489Y131171D01*
X123744Y131096D01*
X124006Y131043D01*
X124274Y131011D01*
X124550Y131000D01*
Y129000D01*
D02*
G37*
G36*
X135450Y121000D02*
X135726Y121011D01*
X135994Y121043D01*
X136256Y121096D01*
X136511Y121171D01*
X136758Y121267D01*
X136999Y121384D01*
X137232Y121523D01*
X137459Y121683D01*
X137679Y121864D01*
X137891Y122067D01*
Y117933D01*
X137679Y118136D01*
X137459Y118317D01*
X137232Y118477D01*
X136999Y118616D01*
X136758Y118733D01*
X136511Y118829D01*
X136256Y118904D01*
X135994Y118957D01*
X135726Y118989D01*
X135450Y119000D01*
Y121000D01*
D02*
G37*
G36*
Y131000D02*
X135726Y131011D01*
X135994Y131043D01*
X136256Y131096D01*
X136511Y131171D01*
X136758Y131267D01*
X136999Y131384D01*
X137232Y131523D01*
X137459Y131683D01*
X137679Y131864D01*
X137891Y132067D01*
Y127933D01*
X137679Y128136D01*
X137459Y128317D01*
X137232Y128477D01*
X136999Y128616D01*
X136758Y128733D01*
X136511Y128829D01*
X136256Y128904D01*
X135994Y128957D01*
X135726Y128989D01*
X135450Y129000D01*
Y131000D01*
D02*
G37*
G36*
X144550Y119000D02*
X144274Y118989D01*
X144006Y118957D01*
X143744Y118904D01*
X143490Y118829D01*
X143242Y118733D01*
X143001Y118616D01*
X142768Y118477D01*
X142541Y118317D01*
X142321Y118136D01*
X142109Y117933D01*
Y122067D01*
X142321Y121864D01*
X142541Y121683D01*
X142768Y121523D01*
X143001Y121384D01*
X143242Y121267D01*
X143490Y121171D01*
X143744Y121096D01*
X144006Y121043D01*
X144274Y121011D01*
X144550Y121000D01*
Y119000D01*
D02*
G37*
G36*
X145059Y121000D02*
X145441Y121010D01*
X145784Y121040D01*
X146085Y121090D01*
X146347Y121160D01*
X146568Y121250D01*
X146749Y121360D01*
X146890Y121490D01*
X146991Y121640D01*
X147051Y121810D01*
X147071Y122000D01*
Y118000D01*
X147051Y118190D01*
X146991Y118360D01*
X146890Y118510D01*
X146749Y118640D01*
X146568Y118750D01*
X146347Y118840D01*
X146085Y118910D01*
X145784Y118960D01*
X145441Y118990D01*
X145059Y119000D01*
Y121000D01*
D02*
G37*
G36*
X144550Y129000D02*
X144274Y128989D01*
X144006Y128957D01*
X143744Y128904D01*
X143490Y128829D01*
X143242Y128733D01*
X143001Y128616D01*
X142768Y128477D01*
X142541Y128317D01*
X142321Y128136D01*
X142109Y127933D01*
Y132067D01*
X142321Y131864D01*
X142541Y131683D01*
X142768Y131523D01*
X143001Y131384D01*
X143242Y131267D01*
X143490Y131171D01*
X143744Y131096D01*
X144006Y131043D01*
X144274Y131011D01*
X144550Y131000D01*
Y129000D01*
D02*
G37*
G36*
X145450Y131000D02*
X145726Y131011D01*
X145994Y131043D01*
X146256Y131096D01*
X146511Y131171D01*
X146758Y131267D01*
X146999Y131384D01*
X147232Y131523D01*
X147459Y131683D01*
X147679Y131864D01*
X147891Y132067D01*
Y127933D01*
X147679Y128136D01*
X147459Y128317D01*
X147232Y128477D01*
X146999Y128616D01*
X146758Y128733D01*
X146511Y128829D01*
X146256Y128904D01*
X145994Y128957D01*
X145726Y128989D01*
X145450Y129000D01*
Y131000D01*
D02*
G37*
G36*
X154941Y119000D02*
X154559Y118990D01*
X154216Y118960D01*
X153915Y118910D01*
X153653Y118840D01*
X153432Y118750D01*
X153251Y118640D01*
X153110Y118510D01*
X153009Y118360D01*
X152949Y118190D01*
X152929Y118000D01*
Y122000D01*
X152949Y121810D01*
X153009Y121640D01*
X153110Y121490D01*
X153251Y121360D01*
X153432Y121250D01*
X153653Y121160D01*
X153915Y121090D01*
X154216Y121040D01*
X154559Y121010D01*
X154941Y121000D01*
Y119000D01*
D02*
G37*
G36*
X154550Y129000D02*
X154274Y128989D01*
X154006Y128957D01*
X153744Y128904D01*
X153489Y128829D01*
X153242Y128733D01*
X153001Y128616D01*
X152768Y128477D01*
X152541Y128317D01*
X152321Y128136D01*
X152109Y127933D01*
Y132067D01*
X152321Y131864D01*
X152541Y131683D01*
X152768Y131523D01*
X153001Y131384D01*
X153242Y131267D01*
X153489Y131171D01*
X153744Y131096D01*
X154006Y131043D01*
X154274Y131011D01*
X154550Y131000D01*
Y129000D01*
D02*
G37*
G36*
X165551Y122063D02*
X165934Y122073D01*
X166276Y122103D01*
X166577Y122153D01*
X166839Y122223D01*
X167060Y122313D01*
X167241Y122423D01*
X167382Y122553D01*
X167483Y122703D01*
X167543Y122873D01*
X167563Y123063D01*
Y119063D01*
X167543Y119253D01*
X167483Y119423D01*
X167382Y119573D01*
X167241Y119703D01*
X167060Y119813D01*
X166839Y119903D01*
X166577Y119973D01*
X166276Y120023D01*
X165934Y120053D01*
X165551Y120063D01*
Y122063D01*
D02*
G37*
G36*
X166275Y129937D02*
X166522Y129944D01*
X166757Y129966D01*
X166981Y130002D01*
X167195Y130053D01*
X167397Y130118D01*
X167588Y130197D01*
X167768Y130291D01*
X167938Y130399D01*
X168096Y130522D01*
X168243Y130659D01*
Y127215D01*
X168096Y127352D01*
X167938Y127475D01*
X167768Y127583D01*
X167588Y127677D01*
X167397Y127756D01*
X167195Y127821D01*
X166981Y127872D01*
X166757Y127908D01*
X166522Y127930D01*
X166275Y127937D01*
Y129937D01*
D02*
G37*
D20*
X110000Y130000D02*
X120000D01*
X140000D02*
X150000D01*
X110000Y120000D02*
X120000D01*
X140000D02*
X150000D01*
X160531Y121063D02*
X170000D01*
X159468Y120000D02*
X160531Y121063D01*
X150000Y120000D02*
X159468D01*
X160531Y128937D02*
X170000D01*
X159468Y130000D02*
X160531Y128937D01*
X150000Y130000D02*
X159468D01*
X120000D02*
X140000D01*
X120000Y120000D02*
X140000D01*
D21*
X585000Y155000D02*
D03*
X595000D02*
D03*
X585000Y145000D02*
D03*
Y195000D02*
D03*
X595000D02*
D03*
Y185000D02*
D03*
X585000D02*
D03*
Y165000D02*
D03*
X595000D02*
D03*
Y175000D02*
D03*
X585000D02*
D03*
Y235000D02*
D03*
X595000D02*
D03*
Y225000D02*
D03*
X585000D02*
D03*
Y205000D02*
D03*
X595000D02*
D03*
Y215000D02*
D03*
X585000D02*
D03*
Y275000D02*
D03*
X595000D02*
D03*
Y265000D02*
D03*
X585000D02*
D03*
Y245000D02*
D03*
X595000D02*
D03*
Y255000D02*
D03*
X585000D02*
D03*
Y285000D02*
D03*
X605000Y255000D02*
D03*
X615000D02*
D03*
Y245000D02*
D03*
X605000D02*
D03*
Y265000D02*
D03*
Y215000D02*
D03*
X615000D02*
D03*
Y205000D02*
D03*
X605000D02*
D03*
Y225000D02*
D03*
X615000D02*
D03*
Y235000D02*
D03*
X605000D02*
D03*
Y175000D02*
D03*
X615000D02*
D03*
X605000Y165000D02*
D03*
Y185000D02*
D03*
X615000D02*
D03*
Y195000D02*
D03*
X605000D02*
D03*
X545000Y155000D02*
D03*
X555000D02*
D03*
Y145000D02*
D03*
X545000D02*
D03*
Y195000D02*
D03*
X555000D02*
D03*
Y185000D02*
D03*
X545000D02*
D03*
Y165000D02*
D03*
X555000D02*
D03*
Y175000D02*
D03*
X545000D02*
D03*
Y235000D02*
D03*
X555000D02*
D03*
Y225000D02*
D03*
X545000D02*
D03*
Y205000D02*
D03*
X555000D02*
D03*
Y215000D02*
D03*
X545000D02*
D03*
Y275000D02*
D03*
X555000D02*
D03*
Y265000D02*
D03*
X545000D02*
D03*
Y245000D02*
D03*
X555000D02*
D03*
Y255000D02*
D03*
X545000D02*
D03*
Y295000D02*
D03*
X555000D02*
D03*
Y285000D02*
D03*
X545000D02*
D03*
Y305000D02*
D03*
X555000D02*
D03*
Y315000D02*
D03*
X545000D02*
D03*
Y135000D02*
D03*
X555000D02*
D03*
Y125000D02*
D03*
X545000D02*
D03*
X555000Y115000D02*
D03*
X545000D02*
D03*
X565000D02*
D03*
X575000D02*
D03*
X565000Y125000D02*
D03*
X575000D02*
D03*
Y135000D02*
D03*
X565000D02*
D03*
Y315000D02*
D03*
X575000D02*
D03*
Y305000D02*
D03*
X565000D02*
D03*
Y285000D02*
D03*
X575000D02*
D03*
Y295000D02*
D03*
X565000D02*
D03*
Y255000D02*
D03*
X575000D02*
D03*
Y245000D02*
D03*
X565000D02*
D03*
Y265000D02*
D03*
X575000D02*
D03*
Y275000D02*
D03*
X565000D02*
D03*
Y215000D02*
D03*
X575000D02*
D03*
Y205000D02*
D03*
X565000D02*
D03*
Y225000D02*
D03*
X575000D02*
D03*
Y235000D02*
D03*
X565000D02*
D03*
Y175000D02*
D03*
X575000D02*
D03*
Y165000D02*
D03*
X565000D02*
D03*
Y185000D02*
D03*
X575000D02*
D03*
Y195000D02*
D03*
X565000D02*
D03*
Y145000D02*
D03*
X575000D02*
D03*
Y155000D02*
D03*
X565000D02*
D03*
X505000D02*
D03*
X515000D02*
D03*
Y145000D02*
D03*
X505000D02*
D03*
Y195000D02*
D03*
X515000D02*
D03*
Y185000D02*
D03*
X505000D02*
D03*
Y165000D02*
D03*
X515000D02*
D03*
Y175000D02*
D03*
X505000D02*
D03*
Y235000D02*
D03*
X515000D02*
D03*
Y225000D02*
D03*
X505000D02*
D03*
Y205000D02*
D03*
X515000D02*
D03*
Y215000D02*
D03*
X505000D02*
D03*
Y275000D02*
D03*
X515000D02*
D03*
Y265000D02*
D03*
X505000D02*
D03*
Y245000D02*
D03*
X515000D02*
D03*
Y255000D02*
D03*
X505000D02*
D03*
Y295000D02*
D03*
X515000D02*
D03*
Y285000D02*
D03*
X505000D02*
D03*
Y305000D02*
D03*
X515000D02*
D03*
Y315000D02*
D03*
X505000D02*
D03*
Y135000D02*
D03*
X515000D02*
D03*
Y125000D02*
D03*
X505000D02*
D03*
X515000Y115000D02*
D03*
X505000D02*
D03*
X525000D02*
D03*
X535000D02*
D03*
X525000Y125000D02*
D03*
X535000D02*
D03*
Y135000D02*
D03*
X525000D02*
D03*
Y315000D02*
D03*
X535000D02*
D03*
Y305000D02*
D03*
X525000D02*
D03*
Y285000D02*
D03*
X535000D02*
D03*
Y295000D02*
D03*
X525000D02*
D03*
Y255000D02*
D03*
X535000D02*
D03*
Y245000D02*
D03*
X525000D02*
D03*
Y265000D02*
D03*
X535000D02*
D03*
Y275000D02*
D03*
X525000D02*
D03*
Y215000D02*
D03*
X535000D02*
D03*
Y205000D02*
D03*
X525000D02*
D03*
Y225000D02*
D03*
X535000D02*
D03*
Y235000D02*
D03*
X525000D02*
D03*
Y175000D02*
D03*
X535000D02*
D03*
Y165000D02*
D03*
X525000D02*
D03*
Y185000D02*
D03*
X535000D02*
D03*
Y195000D02*
D03*
X525000D02*
D03*
Y145000D02*
D03*
X535000D02*
D03*
Y155000D02*
D03*
X525000D02*
D03*
X465000D02*
D03*
X475000D02*
D03*
Y145000D02*
D03*
X465000D02*
D03*
Y195000D02*
D03*
X475000D02*
D03*
Y185000D02*
D03*
X465000D02*
D03*
Y165000D02*
D03*
X475000D02*
D03*
Y175000D02*
D03*
X465000D02*
D03*
Y235000D02*
D03*
X475000D02*
D03*
Y225000D02*
D03*
X465000D02*
D03*
Y205000D02*
D03*
X475000D02*
D03*
Y215000D02*
D03*
X465000D02*
D03*
Y275000D02*
D03*
X475000D02*
D03*
Y265000D02*
D03*
X465000D02*
D03*
Y245000D02*
D03*
X475000D02*
D03*
Y255000D02*
D03*
X465000D02*
D03*
Y295000D02*
D03*
X475000D02*
D03*
Y285000D02*
D03*
X465000D02*
D03*
Y305000D02*
D03*
X475000D02*
D03*
Y315000D02*
D03*
X465000D02*
D03*
Y135000D02*
D03*
X475000D02*
D03*
Y125000D02*
D03*
X465000D02*
D03*
X475000Y115000D02*
D03*
X465000D02*
D03*
X485000D02*
D03*
X495000D02*
D03*
X485000Y125000D02*
D03*
X495000D02*
D03*
Y135000D02*
D03*
X485000D02*
D03*
Y315000D02*
D03*
X495000D02*
D03*
Y305000D02*
D03*
X485000D02*
D03*
Y285000D02*
D03*
X495000D02*
D03*
Y295000D02*
D03*
X485000D02*
D03*
Y255000D02*
D03*
X495000D02*
D03*
Y245000D02*
D03*
X485000D02*
D03*
Y265000D02*
D03*
X495000D02*
D03*
Y275000D02*
D03*
X485000D02*
D03*
Y215000D02*
D03*
X495000D02*
D03*
Y205000D02*
D03*
X485000D02*
D03*
Y225000D02*
D03*
X495000D02*
D03*
Y235000D02*
D03*
X485000D02*
D03*
Y175000D02*
D03*
X495000D02*
D03*
Y165000D02*
D03*
X485000D02*
D03*
Y185000D02*
D03*
X495000D02*
D03*
Y195000D02*
D03*
X485000D02*
D03*
Y145000D02*
D03*
X495000D02*
D03*
Y155000D02*
D03*
X485000D02*
D03*
X425000D02*
D03*
X435000D02*
D03*
Y145000D02*
D03*
X425000D02*
D03*
Y195000D02*
D03*
X435000D02*
D03*
Y185000D02*
D03*
X425000D02*
D03*
Y165000D02*
D03*
X435000D02*
D03*
Y175000D02*
D03*
X425000D02*
D03*
Y235000D02*
D03*
X435000D02*
D03*
Y225000D02*
D03*
X425000D02*
D03*
Y205000D02*
D03*
X435000D02*
D03*
Y215000D02*
D03*
X425000D02*
D03*
Y275000D02*
D03*
X435000D02*
D03*
Y265000D02*
D03*
X425000D02*
D03*
Y245000D02*
D03*
X435000D02*
D03*
Y255000D02*
D03*
X425000D02*
D03*
Y295000D02*
D03*
X435000D02*
D03*
Y285000D02*
D03*
X425000D02*
D03*
Y305000D02*
D03*
X435000D02*
D03*
Y315000D02*
D03*
X425000D02*
D03*
Y135000D02*
D03*
X435000D02*
D03*
Y125000D02*
D03*
X425000D02*
D03*
X435000Y115000D02*
D03*
X425000D02*
D03*
X445000D02*
D03*
X455000D02*
D03*
X445000Y125000D02*
D03*
X455000D02*
D03*
Y135000D02*
D03*
X445000D02*
D03*
Y315000D02*
D03*
X455000D02*
D03*
Y305000D02*
D03*
X445000D02*
D03*
Y285000D02*
D03*
X455000D02*
D03*
Y295000D02*
D03*
X445000D02*
D03*
Y255000D02*
D03*
X455000D02*
D03*
Y245000D02*
D03*
X445000D02*
D03*
Y265000D02*
D03*
X455000D02*
D03*
Y275000D02*
D03*
X445000D02*
D03*
Y215000D02*
D03*
X455000D02*
D03*
Y205000D02*
D03*
X445000D02*
D03*
Y225000D02*
D03*
X455000D02*
D03*
Y235000D02*
D03*
X445000D02*
D03*
Y175000D02*
D03*
X455000D02*
D03*
Y165000D02*
D03*
X445000D02*
D03*
Y185000D02*
D03*
X455000D02*
D03*
Y195000D02*
D03*
X445000D02*
D03*
Y145000D02*
D03*
X455000D02*
D03*
Y155000D02*
D03*
X445000D02*
D03*
X385000D02*
D03*
X395000D02*
D03*
Y145000D02*
D03*
X385000D02*
D03*
Y195000D02*
D03*
X395000D02*
D03*
Y185000D02*
D03*
X385000D02*
D03*
Y165000D02*
D03*
X395000D02*
D03*
Y175000D02*
D03*
X385000D02*
D03*
Y235000D02*
D03*
X395000D02*
D03*
Y225000D02*
D03*
X385000D02*
D03*
Y205000D02*
D03*
X395000D02*
D03*
Y215000D02*
D03*
X385000D02*
D03*
Y275000D02*
D03*
X395000D02*
D03*
Y265000D02*
D03*
X385000D02*
D03*
Y245000D02*
D03*
X395000D02*
D03*
Y255000D02*
D03*
X385000D02*
D03*
Y295000D02*
D03*
X395000D02*
D03*
Y285000D02*
D03*
X385000D02*
D03*
Y305000D02*
D03*
X395000D02*
D03*
Y315000D02*
D03*
X385000D02*
D03*
Y135000D02*
D03*
X395000D02*
D03*
Y125000D02*
D03*
X385000D02*
D03*
X395000Y115000D02*
D03*
X385000D02*
D03*
X405000D02*
D03*
X415000D02*
D03*
X405000Y125000D02*
D03*
X415000D02*
D03*
Y135000D02*
D03*
X405000D02*
D03*
Y315000D02*
D03*
X415000D02*
D03*
Y305000D02*
D03*
X405000D02*
D03*
Y285000D02*
D03*
X415000D02*
D03*
Y295000D02*
D03*
X405000D02*
D03*
Y255000D02*
D03*
X415000D02*
D03*
Y245000D02*
D03*
X405000D02*
D03*
Y265000D02*
D03*
X415000D02*
D03*
Y275000D02*
D03*
X405000D02*
D03*
Y215000D02*
D03*
X415000D02*
D03*
Y205000D02*
D03*
X405000D02*
D03*
Y225000D02*
D03*
X415000D02*
D03*
Y235000D02*
D03*
X405000D02*
D03*
Y175000D02*
D03*
X415000D02*
D03*
Y165000D02*
D03*
X405000D02*
D03*
Y185000D02*
D03*
X415000D02*
D03*
Y195000D02*
D03*
X405000D02*
D03*
Y145000D02*
D03*
X415000D02*
D03*
Y155000D02*
D03*
X405000D02*
D03*
X345000D02*
D03*
X355000D02*
D03*
Y145000D02*
D03*
X345000D02*
D03*
Y195000D02*
D03*
X355000D02*
D03*
Y185000D02*
D03*
X345000D02*
D03*
Y165000D02*
D03*
X355000D02*
D03*
Y175000D02*
D03*
X345000D02*
D03*
Y235000D02*
D03*
X355000D02*
D03*
Y225000D02*
D03*
X345000D02*
D03*
Y205000D02*
D03*
X355000D02*
D03*
Y215000D02*
D03*
X345000D02*
D03*
Y275000D02*
D03*
X355000D02*
D03*
Y265000D02*
D03*
X345000D02*
D03*
Y245000D02*
D03*
X355000D02*
D03*
Y255000D02*
D03*
X345000D02*
D03*
Y295000D02*
D03*
X355000D02*
D03*
Y285000D02*
D03*
X345000D02*
D03*
Y305000D02*
D03*
X355000D02*
D03*
Y315000D02*
D03*
X345000D02*
D03*
Y135000D02*
D03*
X355000D02*
D03*
Y125000D02*
D03*
X345000D02*
D03*
X355000Y115000D02*
D03*
X345000D02*
D03*
X365000D02*
D03*
X375000D02*
D03*
X365000Y125000D02*
D03*
X375000D02*
D03*
Y135000D02*
D03*
X365000D02*
D03*
Y315000D02*
D03*
X375000D02*
D03*
Y305000D02*
D03*
X365000D02*
D03*
Y285000D02*
D03*
X375000D02*
D03*
Y295000D02*
D03*
X365000D02*
D03*
Y255000D02*
D03*
X375000D02*
D03*
Y245000D02*
D03*
X365000D02*
D03*
Y265000D02*
D03*
X375000D02*
D03*
Y275000D02*
D03*
X365000D02*
D03*
Y215000D02*
D03*
X375000D02*
D03*
Y205000D02*
D03*
X365000D02*
D03*
Y225000D02*
D03*
X375000D02*
D03*
Y235000D02*
D03*
X365000D02*
D03*
Y175000D02*
D03*
X375000D02*
D03*
Y165000D02*
D03*
X365000D02*
D03*
Y185000D02*
D03*
X375000D02*
D03*
Y195000D02*
D03*
X365000D02*
D03*
Y145000D02*
D03*
X375000D02*
D03*
Y155000D02*
D03*
X365000D02*
D03*
X305000D02*
D03*
X315000D02*
D03*
Y145000D02*
D03*
X305000D02*
D03*
Y195000D02*
D03*
X315000D02*
D03*
Y185000D02*
D03*
X305000D02*
D03*
Y165000D02*
D03*
X315000D02*
D03*
Y175000D02*
D03*
X305000D02*
D03*
Y235000D02*
D03*
X315000D02*
D03*
Y225000D02*
D03*
X305000D02*
D03*
Y205000D02*
D03*
X315000D02*
D03*
Y215000D02*
D03*
X305000D02*
D03*
Y275000D02*
D03*
X315000D02*
D03*
Y265000D02*
D03*
X305000D02*
D03*
Y245000D02*
D03*
X315000D02*
D03*
Y255000D02*
D03*
X305000D02*
D03*
Y295000D02*
D03*
X315000D02*
D03*
Y285000D02*
D03*
X305000D02*
D03*
Y305000D02*
D03*
X315000D02*
D03*
Y315000D02*
D03*
X305000D02*
D03*
Y135000D02*
D03*
X315000D02*
D03*
Y125000D02*
D03*
X305000D02*
D03*
X315000Y115000D02*
D03*
X305000D02*
D03*
X325000D02*
D03*
X335000D02*
D03*
X325000Y125000D02*
D03*
X335000D02*
D03*
Y135000D02*
D03*
X325000D02*
D03*
Y315000D02*
D03*
X335000D02*
D03*
Y305000D02*
D03*
X325000D02*
D03*
Y285000D02*
D03*
X335000D02*
D03*
Y295000D02*
D03*
X325000D02*
D03*
Y255000D02*
D03*
X335000D02*
D03*
Y245000D02*
D03*
X325000D02*
D03*
Y265000D02*
D03*
X335000D02*
D03*
Y275000D02*
D03*
X325000D02*
D03*
Y215000D02*
D03*
X335000D02*
D03*
Y205000D02*
D03*
X325000D02*
D03*
Y225000D02*
D03*
X335000D02*
D03*
Y235000D02*
D03*
X325000D02*
D03*
Y175000D02*
D03*
X335000D02*
D03*
Y165000D02*
D03*
X325000D02*
D03*
Y185000D02*
D03*
X335000D02*
D03*
Y195000D02*
D03*
X325000D02*
D03*
Y145000D02*
D03*
X335000D02*
D03*
Y155000D02*
D03*
X325000D02*
D03*
X265000D02*
D03*
X275000D02*
D03*
Y145000D02*
D03*
X265000D02*
D03*
Y195000D02*
D03*
X275000D02*
D03*
Y185000D02*
D03*
X265000D02*
D03*
Y165000D02*
D03*
X275000D02*
D03*
Y175000D02*
D03*
X265000D02*
D03*
Y235000D02*
D03*
X275000D02*
D03*
Y225000D02*
D03*
X265000D02*
D03*
Y205000D02*
D03*
X275000D02*
D03*
Y215000D02*
D03*
X265000D02*
D03*
Y275000D02*
D03*
X275000D02*
D03*
Y265000D02*
D03*
X265000D02*
D03*
Y245000D02*
D03*
X275000D02*
D03*
Y255000D02*
D03*
X265000D02*
D03*
Y295000D02*
D03*
X275000D02*
D03*
Y285000D02*
D03*
X265000D02*
D03*
Y305000D02*
D03*
X275000D02*
D03*
Y315000D02*
D03*
X265000D02*
D03*
Y135000D02*
D03*
X275000D02*
D03*
Y125000D02*
D03*
X265000D02*
D03*
X275000Y115000D02*
D03*
X265000D02*
D03*
X285000D02*
D03*
X295000D02*
D03*
X285000Y125000D02*
D03*
X295000D02*
D03*
Y135000D02*
D03*
X285000D02*
D03*
Y315000D02*
D03*
X295000D02*
D03*
Y305000D02*
D03*
X285000D02*
D03*
Y285000D02*
D03*
X295000D02*
D03*
Y295000D02*
D03*
X285000D02*
D03*
Y255000D02*
D03*
X295000D02*
D03*
Y245000D02*
D03*
X285000D02*
D03*
Y265000D02*
D03*
X295000D02*
D03*
Y275000D02*
D03*
X285000D02*
D03*
Y215000D02*
D03*
X295000D02*
D03*
Y205000D02*
D03*
X285000D02*
D03*
Y225000D02*
D03*
X295000D02*
D03*
Y235000D02*
D03*
X285000D02*
D03*
Y175000D02*
D03*
X295000D02*
D03*
Y165000D02*
D03*
X285000D02*
D03*
Y185000D02*
D03*
X295000D02*
D03*
Y195000D02*
D03*
X285000D02*
D03*
Y145000D02*
D03*
X295000D02*
D03*
Y155000D02*
D03*
X285000D02*
D03*
X225000D02*
D03*
X235000D02*
D03*
Y145000D02*
D03*
X225000D02*
D03*
Y195000D02*
D03*
X235000D02*
D03*
Y185000D02*
D03*
X225000D02*
D03*
Y165000D02*
D03*
X235000D02*
D03*
Y175000D02*
D03*
X225000D02*
D03*
Y235000D02*
D03*
X235000D02*
D03*
Y225000D02*
D03*
X225000D02*
D03*
Y205000D02*
D03*
X235000D02*
D03*
Y215000D02*
D03*
X225000D02*
D03*
Y275000D02*
D03*
X235000D02*
D03*
Y265000D02*
D03*
X225000D02*
D03*
Y245000D02*
D03*
X235000D02*
D03*
Y255000D02*
D03*
X225000D02*
D03*
Y295000D02*
D03*
X235000D02*
D03*
Y285000D02*
D03*
X225000D02*
D03*
Y305000D02*
D03*
X235000D02*
D03*
Y315000D02*
D03*
X225000D02*
D03*
Y135000D02*
D03*
X235000D02*
D03*
Y125000D02*
D03*
X225000D02*
D03*
X235000Y115000D02*
D03*
X225000D02*
D03*
X245000D02*
D03*
X255000D02*
D03*
X245000Y125000D02*
D03*
X255000D02*
D03*
Y135000D02*
D03*
X245000D02*
D03*
Y315000D02*
D03*
X255000D02*
D03*
Y305000D02*
D03*
X245000D02*
D03*
Y285000D02*
D03*
X255000D02*
D03*
Y295000D02*
D03*
X245000D02*
D03*
Y255000D02*
D03*
X255000D02*
D03*
Y245000D02*
D03*
X245000D02*
D03*
Y265000D02*
D03*
X255000D02*
D03*
Y275000D02*
D03*
X245000D02*
D03*
Y215000D02*
D03*
X255000D02*
D03*
Y205000D02*
D03*
X245000D02*
D03*
Y225000D02*
D03*
X255000D02*
D03*
Y235000D02*
D03*
X245000D02*
D03*
Y175000D02*
D03*
X255000D02*
D03*
Y165000D02*
D03*
X245000D02*
D03*
Y185000D02*
D03*
X255000D02*
D03*
Y195000D02*
D03*
X245000D02*
D03*
Y145000D02*
D03*
X255000D02*
D03*
Y155000D02*
D03*
X245000D02*
D03*
X205000D02*
D03*
X215000D02*
D03*
Y145000D02*
D03*
X205000D02*
D03*
Y195000D02*
D03*
X215000D02*
D03*
Y185000D02*
D03*
X205000D02*
D03*
Y165000D02*
D03*
X215000D02*
D03*
Y175000D02*
D03*
X205000D02*
D03*
Y235000D02*
D03*
X215000D02*
D03*
Y225000D02*
D03*
X205000D02*
D03*
Y205000D02*
D03*
X215000D02*
D03*
Y215000D02*
D03*
X205000D02*
D03*
Y275000D02*
D03*
X215000D02*
D03*
Y265000D02*
D03*
X205000D02*
D03*
Y245000D02*
D03*
X215000D02*
D03*
Y255000D02*
D03*
X205000D02*
D03*
Y295000D02*
D03*
X215000D02*
D03*
Y285000D02*
D03*
X205000D02*
D03*
Y305000D02*
D03*
X215000D02*
D03*
Y315000D02*
D03*
X205000D02*
D03*
Y135000D02*
D03*
X215000D02*
D03*
Y125000D02*
D03*
X205000D02*
D03*
X215000Y115000D02*
D03*
X205000D02*
D03*
X185000D02*
D03*
X195000D02*
D03*
X185000Y125000D02*
D03*
X195000D02*
D03*
Y135000D02*
D03*
X185000D02*
D03*
Y315000D02*
D03*
X195000D02*
D03*
Y305000D02*
D03*
X185000D02*
D03*
Y285000D02*
D03*
X195000D02*
D03*
Y295000D02*
D03*
X185000D02*
D03*
Y255000D02*
D03*
X195000D02*
D03*
Y245000D02*
D03*
X185000D02*
D03*
Y265000D02*
D03*
X195000D02*
D03*
Y275000D02*
D03*
X185000D02*
D03*
Y215000D02*
D03*
X195000D02*
D03*
Y205000D02*
D03*
X185000D02*
D03*
Y225000D02*
D03*
X195000D02*
D03*
Y235000D02*
D03*
X185000D02*
D03*
Y175000D02*
D03*
X195000D02*
D03*
Y165000D02*
D03*
X185000D02*
D03*
Y185000D02*
D03*
X195000D02*
D03*
Y195000D02*
D03*
X185000D02*
D03*
Y145000D02*
D03*
X195000D02*
D03*
Y155000D02*
D03*
X185000D02*
D03*
X165000D02*
D03*
X175000D02*
D03*
Y145000D02*
D03*
X165000D02*
D03*
Y195000D02*
D03*
X175000D02*
D03*
Y185000D02*
D03*
X165000D02*
D03*
Y165000D02*
D03*
X175000D02*
D03*
Y175000D02*
D03*
X165000D02*
D03*
Y235000D02*
D03*
X175000D02*
D03*
Y225000D02*
D03*
X165000D02*
D03*
Y205000D02*
D03*
X175000D02*
D03*
Y215000D02*
D03*
X165000D02*
D03*
Y275000D02*
D03*
X175000D02*
D03*
Y265000D02*
D03*
X165000D02*
D03*
Y245000D02*
D03*
X175000D02*
D03*
Y255000D02*
D03*
X165000D02*
D03*
Y295000D02*
D03*
X175000D02*
D03*
Y285000D02*
D03*
X165000D02*
D03*
Y305000D02*
D03*
X175000D02*
D03*
Y315000D02*
D03*
X165000D02*
D03*
X120000Y120000D02*
D03*
X110000Y130000D02*
D03*
X120000D02*
D03*
X110000Y140000D02*
D03*
X120000D02*
D03*
X110000Y150000D02*
D03*
X120000D02*
D03*
X110000Y160000D02*
D03*
X120000D02*
D03*
X110000Y170000D02*
D03*
X120000D02*
D03*
X110000Y180000D02*
D03*
X120000D02*
D03*
X110000Y190000D02*
D03*
X120000D02*
D03*
X110000Y200000D02*
D03*
X120000D02*
D03*
X110000Y210000D02*
D03*
X120000D02*
D03*
X110000Y220000D02*
D03*
X120000D02*
D03*
X110000Y230000D02*
D03*
X120000D02*
D03*
X110000Y240000D02*
D03*
X120000D02*
D03*
X110000Y250000D02*
D03*
X120000D02*
D03*
X110000Y260000D02*
D03*
X120000D02*
D03*
X110000Y270000D02*
D03*
X120000D02*
D03*
X110000Y280000D02*
D03*
X120000D02*
D03*
X110000Y290000D02*
D03*
X120000D02*
D03*
X110000Y300000D02*
D03*
X120000D02*
D03*
X110000Y310000D02*
D03*
X120000D02*
D03*
X140000D02*
D03*
X150000D02*
D03*
X140000Y300000D02*
D03*
X150000D02*
D03*
X140000Y290000D02*
D03*
X150000D02*
D03*
X140000Y280000D02*
D03*
X150000D02*
D03*
X140000Y270000D02*
D03*
X150000D02*
D03*
X140000Y260000D02*
D03*
X150000D02*
D03*
X140000Y250000D02*
D03*
X150000D02*
D03*
X140000Y240000D02*
D03*
X150000D02*
D03*
X140000Y230000D02*
D03*
X150000D02*
D03*
X140000Y220000D02*
D03*
X150000D02*
D03*
X140000Y210000D02*
D03*
X150000D02*
D03*
X140000Y200000D02*
D03*
X150000D02*
D03*
X140000Y190000D02*
D03*
X150000D02*
D03*
X140000Y180000D02*
D03*
X150000D02*
D03*
X140000Y170000D02*
D03*
X150000D02*
D03*
X140000Y160000D02*
D03*
X150000D02*
D03*
X140000Y150000D02*
D03*
X150000D02*
D03*
X140000Y140000D02*
D03*
X150000D02*
D03*
X140000Y130000D02*
D03*
X150000D02*
D03*
X140000Y120000D02*
D03*
D22*
X110000D02*
D03*
X150000D02*
D03*
D23*
X170000Y128937D02*
D03*
D24*
X170000Y121063D02*
D03*
M02*
