G04*
G04 #@! TF.GenerationSoftware,Altium Limited,Altium Designer,21.9.1 (22)*
G04*
G04 Layer_Color=16711935*
%FSLAX25Y25*%
%MOIN*%
G70*
G04*
G04 #@! TF.SameCoordinates,B80AF56E-4A6E-45E8-8FAB-FC5278AEAC24*
G04*
G04*
G04 #@! TF.FilePolarity,Negative*
G04*
G01*
G75*
%ADD16R,0.05721X0.05721*%
%ADD17C,0.05721*%
%ADD18C,0.06706*%
%ADD19C,0.06706*%
%ADD20R,0.06706X0.06706*%
%ADD21R,0.06706X0.06706*%
%ADD22R,0.06706X0.06706*%
%ADD23R,0.05721X0.05721*%
%ADD24C,0.09068*%
%ADD25C,0.00800*%
D16*
X160000Y232500D02*
D03*
X600000Y262500D02*
D03*
X310000Y232500D02*
D03*
X460000D02*
D03*
Y352500D02*
D03*
X310000D02*
D03*
X160000D02*
D03*
D17*
X150157Y232500D02*
D03*
X472500Y150157D02*
D03*
X590157Y262500D02*
D03*
X300157Y232500D02*
D03*
X450157D02*
D03*
X472500Y195157D02*
D03*
Y240157D02*
D03*
Y285157D02*
D03*
Y330157D02*
D03*
X450157Y352500D02*
D03*
X322500Y150157D02*
D03*
Y195157D02*
D03*
Y240157D02*
D03*
Y285157D02*
D03*
Y330157D02*
D03*
X300157Y352500D02*
D03*
X112500Y350937D02*
D03*
X150157Y352500D02*
D03*
X172500Y330157D02*
D03*
Y285157D02*
D03*
Y240157D02*
D03*
Y195157D02*
D03*
Y150157D02*
D03*
D18*
X160000Y130000D02*
D03*
Y140000D02*
D03*
Y150000D02*
D03*
Y160000D02*
D03*
Y170000D02*
D03*
Y180000D02*
D03*
Y190000D02*
D03*
Y200000D02*
D03*
Y220000D02*
D03*
X130000Y130000D02*
D03*
Y140000D02*
D03*
Y150000D02*
D03*
Y160000D02*
D03*
Y170000D02*
D03*
Y180000D02*
D03*
Y190000D02*
D03*
Y200000D02*
D03*
Y210000D02*
D03*
X495000Y310000D02*
D03*
X505000D02*
D03*
X515000D02*
D03*
X525000D02*
D03*
X535000D02*
D03*
X545000D02*
D03*
X555000D02*
D03*
X485000Y340000D02*
D03*
X495000D02*
D03*
X505000D02*
D03*
X515000D02*
D03*
X525000D02*
D03*
X535000D02*
D03*
X545000D02*
D03*
X555000D02*
D03*
X495000Y265000D02*
D03*
X505000D02*
D03*
X515000D02*
D03*
X525000D02*
D03*
X535000D02*
D03*
X545000D02*
D03*
X555000D02*
D03*
X485000Y295000D02*
D03*
X495000D02*
D03*
X505000D02*
D03*
X515000D02*
D03*
X525000D02*
D03*
X535000D02*
D03*
X545000D02*
D03*
X555000D02*
D03*
X495000Y220000D02*
D03*
X505000D02*
D03*
X515000D02*
D03*
X525000D02*
D03*
X535000D02*
D03*
X545000D02*
D03*
X555000D02*
D03*
X485000Y250000D02*
D03*
X495000D02*
D03*
X505000D02*
D03*
X515000D02*
D03*
X525000D02*
D03*
X535000D02*
D03*
X545000D02*
D03*
X555000D02*
D03*
X495000Y175000D02*
D03*
X505000D02*
D03*
X515000D02*
D03*
X525000D02*
D03*
X535000D02*
D03*
X545000D02*
D03*
X555000D02*
D03*
X485000Y205000D02*
D03*
X495000D02*
D03*
X505000D02*
D03*
X515000D02*
D03*
X525000D02*
D03*
X535000D02*
D03*
X545000D02*
D03*
X555000D02*
D03*
X545000Y160000D02*
D03*
X535000D02*
D03*
X525000D02*
D03*
X515000D02*
D03*
X505000D02*
D03*
X495000D02*
D03*
X485000D02*
D03*
X545000Y130000D02*
D03*
X535000D02*
D03*
X525000D02*
D03*
X515000D02*
D03*
X505000D02*
D03*
X495000D02*
D03*
X600000Y190000D02*
D03*
Y200000D02*
D03*
Y210000D02*
D03*
Y220000D02*
D03*
Y230000D02*
D03*
Y240000D02*
D03*
Y250000D02*
D03*
X570000Y190000D02*
D03*
Y200000D02*
D03*
Y210000D02*
D03*
Y220000D02*
D03*
Y230000D02*
D03*
Y240000D02*
D03*
X310000Y130000D02*
D03*
Y140000D02*
D03*
Y150000D02*
D03*
Y160000D02*
D03*
Y170000D02*
D03*
Y180000D02*
D03*
Y190000D02*
D03*
Y200000D02*
D03*
Y220000D02*
D03*
X280000Y130000D02*
D03*
Y140000D02*
D03*
Y150000D02*
D03*
Y160000D02*
D03*
Y170000D02*
D03*
Y180000D02*
D03*
Y190000D02*
D03*
Y200000D02*
D03*
Y210000D02*
D03*
X460000Y130000D02*
D03*
Y140000D02*
D03*
Y150000D02*
D03*
Y160000D02*
D03*
Y170000D02*
D03*
Y180000D02*
D03*
Y190000D02*
D03*
Y200000D02*
D03*
Y220000D02*
D03*
X430000Y130000D02*
D03*
Y140000D02*
D03*
Y150000D02*
D03*
Y160000D02*
D03*
Y170000D02*
D03*
Y180000D02*
D03*
Y190000D02*
D03*
Y200000D02*
D03*
Y210000D02*
D03*
Y330000D02*
D03*
Y320000D02*
D03*
Y310000D02*
D03*
Y300000D02*
D03*
Y290000D02*
D03*
Y280000D02*
D03*
Y270000D02*
D03*
Y260000D02*
D03*
X460000Y250000D02*
D03*
Y260000D02*
D03*
Y270000D02*
D03*
Y280000D02*
D03*
Y290000D02*
D03*
Y300000D02*
D03*
Y310000D02*
D03*
Y320000D02*
D03*
X430000Y250000D02*
D03*
X460000Y340000D02*
D03*
X345000Y310000D02*
D03*
X355000D02*
D03*
X365000D02*
D03*
X375000D02*
D03*
X385000D02*
D03*
X395000D02*
D03*
X405000D02*
D03*
X335000Y340000D02*
D03*
X345000D02*
D03*
X355000D02*
D03*
X365000D02*
D03*
X375000D02*
D03*
X385000D02*
D03*
X395000D02*
D03*
X405000D02*
D03*
X345000Y265000D02*
D03*
X355000D02*
D03*
X365000D02*
D03*
X375000D02*
D03*
X385000D02*
D03*
X395000D02*
D03*
X405000D02*
D03*
X335000Y295000D02*
D03*
X345000D02*
D03*
X355000D02*
D03*
X365000D02*
D03*
X375000D02*
D03*
X385000D02*
D03*
X395000D02*
D03*
X405000D02*
D03*
X345000Y220000D02*
D03*
X355000D02*
D03*
X365000D02*
D03*
X375000D02*
D03*
X385000D02*
D03*
X395000D02*
D03*
X405000D02*
D03*
X335000Y250000D02*
D03*
X345000D02*
D03*
X355000D02*
D03*
X365000D02*
D03*
X375000D02*
D03*
X385000D02*
D03*
X395000D02*
D03*
X405000D02*
D03*
Y205000D02*
D03*
X395000D02*
D03*
X385000D02*
D03*
X375000D02*
D03*
X365000D02*
D03*
X355000D02*
D03*
X345000D02*
D03*
X335000D02*
D03*
X405000Y175000D02*
D03*
X395000D02*
D03*
X385000D02*
D03*
X375000D02*
D03*
X365000D02*
D03*
X355000D02*
D03*
X345000D02*
D03*
X395000Y160000D02*
D03*
X385000D02*
D03*
X375000D02*
D03*
X365000D02*
D03*
X355000D02*
D03*
X345000D02*
D03*
X335000D02*
D03*
X395000Y130000D02*
D03*
X385000D02*
D03*
X375000D02*
D03*
X365000D02*
D03*
X355000D02*
D03*
X345000D02*
D03*
X280000Y250000D02*
D03*
X310000Y340000D02*
D03*
Y320000D02*
D03*
Y310000D02*
D03*
Y300000D02*
D03*
Y290000D02*
D03*
Y280000D02*
D03*
Y270000D02*
D03*
Y260000D02*
D03*
Y250000D02*
D03*
X280000Y260000D02*
D03*
Y270000D02*
D03*
Y280000D02*
D03*
Y290000D02*
D03*
Y300000D02*
D03*
Y310000D02*
D03*
Y320000D02*
D03*
Y330000D02*
D03*
X130000Y250000D02*
D03*
X160000Y340000D02*
D03*
Y320000D02*
D03*
Y310000D02*
D03*
Y300000D02*
D03*
Y290000D02*
D03*
Y280000D02*
D03*
Y270000D02*
D03*
Y260000D02*
D03*
Y250000D02*
D03*
X130000Y260000D02*
D03*
Y270000D02*
D03*
Y280000D02*
D03*
Y290000D02*
D03*
Y300000D02*
D03*
Y310000D02*
D03*
Y320000D02*
D03*
Y330000D02*
D03*
X255000Y340000D02*
D03*
X245000D02*
D03*
X235000D02*
D03*
X225000D02*
D03*
X215000D02*
D03*
X205000D02*
D03*
X195000D02*
D03*
X185000D02*
D03*
X255000Y310000D02*
D03*
X245000D02*
D03*
X235000D02*
D03*
X225000D02*
D03*
X215000D02*
D03*
X205000D02*
D03*
X195000D02*
D03*
X255000Y295000D02*
D03*
X245000D02*
D03*
X235000D02*
D03*
X225000D02*
D03*
X215000D02*
D03*
X205000D02*
D03*
X195000D02*
D03*
X185000D02*
D03*
X255000Y265000D02*
D03*
X245000D02*
D03*
X235000D02*
D03*
X225000D02*
D03*
X215000D02*
D03*
X205000D02*
D03*
X195000D02*
D03*
X255000Y250000D02*
D03*
X245000D02*
D03*
X235000D02*
D03*
X225000D02*
D03*
X215000D02*
D03*
X205000D02*
D03*
X195000D02*
D03*
X185000D02*
D03*
X255000Y220000D02*
D03*
X245000D02*
D03*
X235000D02*
D03*
X225000D02*
D03*
X215000D02*
D03*
X205000D02*
D03*
X195000D02*
D03*
X255000Y205000D02*
D03*
X245000D02*
D03*
X235000D02*
D03*
X225000D02*
D03*
X215000D02*
D03*
X205000D02*
D03*
X195000D02*
D03*
X185000D02*
D03*
X255000Y175000D02*
D03*
X245000D02*
D03*
X235000D02*
D03*
X225000D02*
D03*
X215000D02*
D03*
X205000D02*
D03*
X195000D02*
D03*
X245000Y160000D02*
D03*
X235000D02*
D03*
X225000D02*
D03*
X215000D02*
D03*
X205000D02*
D03*
X195000D02*
D03*
X185000D02*
D03*
X245000Y130000D02*
D03*
X235000D02*
D03*
X225000D02*
D03*
X215000D02*
D03*
X205000D02*
D03*
X195000D02*
D03*
D19*
X160000Y210000D02*
D03*
X120000Y200000D02*
D03*
Y130000D02*
D03*
Y140000D02*
D03*
Y150000D02*
D03*
Y160000D02*
D03*
Y170000D02*
D03*
Y180000D02*
D03*
Y190000D02*
D03*
X310000Y210000D02*
D03*
X420000Y200000D02*
D03*
Y130000D02*
D03*
Y140000D02*
D03*
Y150000D02*
D03*
Y160000D02*
D03*
Y170000D02*
D03*
Y180000D02*
D03*
Y190000D02*
D03*
X460000Y210000D02*
D03*
Y330000D02*
D03*
X420000Y310000D02*
D03*
Y300000D02*
D03*
Y290000D02*
D03*
Y280000D02*
D03*
Y270000D02*
D03*
Y260000D02*
D03*
Y250000D02*
D03*
Y320000D02*
D03*
X310000Y330000D02*
D03*
X270000Y310000D02*
D03*
Y300000D02*
D03*
Y290000D02*
D03*
Y280000D02*
D03*
Y270000D02*
D03*
Y260000D02*
D03*
Y250000D02*
D03*
Y320000D02*
D03*
X120000Y310000D02*
D03*
Y300000D02*
D03*
Y290000D02*
D03*
Y280000D02*
D03*
Y270000D02*
D03*
Y260000D02*
D03*
Y250000D02*
D03*
Y320000D02*
D03*
X160000Y330000D02*
D03*
X270000Y200000D02*
D03*
Y130000D02*
D03*
Y140000D02*
D03*
Y150000D02*
D03*
Y160000D02*
D03*
Y170000D02*
D03*
Y180000D02*
D03*
Y190000D02*
D03*
X110000Y130000D02*
D03*
Y140000D02*
D03*
Y150000D02*
D03*
Y160000D02*
D03*
Y170000D02*
D03*
Y180000D02*
D03*
Y190000D02*
D03*
Y200000D02*
D03*
Y210000D02*
D03*
Y220000D02*
D03*
Y230000D02*
D03*
Y240000D02*
D03*
Y250000D02*
D03*
Y260000D02*
D03*
Y270000D02*
D03*
Y280000D02*
D03*
Y290000D02*
D03*
Y300000D02*
D03*
Y310000D02*
D03*
D20*
X130000Y220000D02*
D03*
X570000Y250000D02*
D03*
X280000Y220000D02*
D03*
X430000D02*
D03*
Y340000D02*
D03*
X280000D02*
D03*
X130000D02*
D03*
D21*
X120000Y210000D02*
D03*
X420000D02*
D03*
Y330000D02*
D03*
X270000D02*
D03*
X120000D02*
D03*
X270000Y210000D02*
D03*
X110000Y120000D02*
D03*
D22*
X485000Y310000D02*
D03*
Y265000D02*
D03*
Y220000D02*
D03*
Y175000D02*
D03*
Y130000D02*
D03*
X335000Y310000D02*
D03*
Y265000D02*
D03*
Y220000D02*
D03*
Y175000D02*
D03*
Y130000D02*
D03*
X185000Y310000D02*
D03*
Y265000D02*
D03*
Y220000D02*
D03*
Y175000D02*
D03*
Y130000D02*
D03*
D23*
X472500Y160000D02*
D03*
Y205000D02*
D03*
Y250000D02*
D03*
Y295000D02*
D03*
Y340000D02*
D03*
X322500Y160000D02*
D03*
Y205000D02*
D03*
Y250000D02*
D03*
Y295000D02*
D03*
Y340000D02*
D03*
X112500Y343063D02*
D03*
X172500Y340000D02*
D03*
Y295000D02*
D03*
Y250000D02*
D03*
Y205000D02*
D03*
Y160000D02*
D03*
D24*
X600000Y290000D02*
D03*
X322500Y172500D02*
D03*
X570000Y300000D02*
D03*
X172500Y130000D02*
D03*
X570000Y120000D02*
D03*
Y345000D02*
D03*
Y330000D02*
D03*
Y285000D02*
D03*
X172500Y172500D02*
D03*
X570000Y315000D02*
D03*
X472500Y172500D02*
D03*
D25*
X595000Y125000D02*
D03*
Y345000D02*
D03*
M02*
