G04*
G04 #@! TF.GenerationSoftware,Altium Limited,Altium Designer,21.9.1 (22)*
G04*
G04 Layer_Color=8388736*
%FSLAX25Y25*%
%MOIN*%
G70*
G04*
G04 #@! TF.SameCoordinates,F3426815-9E30-4310-B1EE-DB99E30BDFF3*
G04*
G04*
G04 #@! TF.FilePolarity,Negative*
G04*
G01*
G75*
%ADD15C,0.09068*%
%ADD16C,0.06312*%
%ADD17C,0.05721*%
%ADD18R,0.05721X0.05721*%
%ADD19C,0.07493*%
%ADD20C,0.15564*%
%ADD21C,0.13800*%
%ADD22R,0.06706X0.06706*%
%ADD23C,0.06706*%
%ADD24C,0.00800*%
D15*
X230000Y290000D02*
D03*
X270000D02*
D03*
X190000D02*
D03*
X250000Y170000D02*
D03*
Y130000D02*
D03*
X150000Y290000D02*
D03*
D16*
X495000Y330000D02*
D03*
X525000D02*
D03*
D17*
X220000Y148937D02*
D03*
X195000D02*
D03*
X170000D02*
D03*
X145000D02*
D03*
D18*
X220000Y141063D02*
D03*
X195000D02*
D03*
X170000D02*
D03*
X145000D02*
D03*
D19*
X540000Y339606D02*
D03*
Y329606D02*
D03*
D20*
X560000Y310000D02*
D03*
Y349213D02*
D03*
D21*
X570000Y260000D02*
D03*
Y280000D02*
D03*
X550000D02*
D03*
Y260000D02*
D03*
Y205000D02*
D03*
Y225000D02*
D03*
X570000D02*
D03*
Y205000D02*
D03*
D22*
X110000Y120000D02*
D03*
D23*
X120000D02*
D03*
X110000Y130000D02*
D03*
X120000D02*
D03*
X110000Y140000D02*
D03*
X120000D02*
D03*
X110000Y150000D02*
D03*
X120000D02*
D03*
X110000Y160000D02*
D03*
X120000D02*
D03*
X110000Y170000D02*
D03*
X120000D02*
D03*
X110000Y180000D02*
D03*
X120000D02*
D03*
X110000Y190000D02*
D03*
X120000D02*
D03*
D24*
X595000Y125000D02*
D03*
M02*
