G04*
G04 #@! TF.GenerationSoftware,Altium Limited,Altium Designer,21.9.1 (22)*
G04*
G04 Layer_Physical_Order=1*
G04 Layer_Color=255*
%FSLAX25Y25*%
%MOIN*%
G70*
G04*
G04 #@! TF.SameCoordinates,F3426815-9E30-4310-B1EE-DB99E30BDFF3*
G04*
G04*
G04 #@! TF.FilePolarity,Positive*
G04*
G01*
G75*
%ADD14C,0.00800*%
%ADD25C,0.08268*%
%ADD26C,0.05512*%
%ADD27C,0.04921*%
%ADD28R,0.04921X0.04921*%
%ADD29C,0.06693*%
%ADD30C,0.14764*%
%ADD31C,0.13000*%
%ADD32R,0.05906X0.05906*%
%ADD33C,0.05906*%
G36*
X616470Y126462D02*
X602557Y112549D01*
X103530D01*
X103530Y145000D01*
X107755D01*
X107895Y144919D01*
X109282Y144547D01*
X110718D01*
X112105Y144919D01*
X112245Y145000D01*
X117755D01*
X117895Y144919D01*
X119282Y144547D01*
X120718D01*
X122105Y144919D01*
X122245Y145000D01*
X141482D01*
X141539Y144524D01*
X141539D01*
Y141563D01*
X145000D01*
X148461D01*
Y144524D01*
X148461D01*
X148518Y145000D01*
X166482D01*
X166539Y144524D01*
X166539D01*
Y141563D01*
X170000D01*
X173461D01*
Y144524D01*
X173461D01*
X173518Y145000D01*
X191482D01*
X191539Y144524D01*
X191539D01*
Y141563D01*
X195000D01*
X198461D01*
Y144524D01*
X198461D01*
X198518Y145000D01*
X216482D01*
X216539Y144524D01*
X216539D01*
Y141563D01*
X220000D01*
X223461D01*
Y144524D01*
X223461D01*
X223518Y145000D01*
X444000D01*
X541000Y242000D01*
X616470D01*
X616470Y126462D01*
D02*
G37*
%LPC*%
G36*
X570739Y232500D02*
X570500D01*
Y225500D01*
X577500D01*
Y225739D01*
X577212Y227188D01*
X576646Y228553D01*
X575826Y229781D01*
X574781Y230826D01*
X573553Y231646D01*
X572188Y232212D01*
X570739Y232500D01*
D02*
G37*
G36*
X550739D02*
X550500D01*
Y225500D01*
X557500D01*
Y225739D01*
X557212Y227188D01*
X556646Y228553D01*
X555826Y229781D01*
X554781Y230826D01*
X553553Y231646D01*
X552188Y232212D01*
X550739Y232500D01*
D02*
G37*
G36*
X569500D02*
X569261D01*
X567812Y232212D01*
X566447Y231646D01*
X565219Y230826D01*
X564174Y229781D01*
X563354Y228553D01*
X562788Y227188D01*
X562500Y225739D01*
Y225500D01*
X569500D01*
Y232500D01*
D02*
G37*
G36*
X549500D02*
X549261D01*
X547812Y232212D01*
X546447Y231646D01*
X545219Y230826D01*
X544174Y229781D01*
X543354Y228553D01*
X542788Y227188D01*
X542500Y225739D01*
Y225500D01*
X549500D01*
Y232500D01*
D02*
G37*
G36*
X577500Y224500D02*
X570500D01*
Y217500D01*
X570739D01*
X572188Y217788D01*
X573553Y218354D01*
X574781Y219174D01*
X575826Y220219D01*
X576646Y221447D01*
X577212Y222812D01*
X577500Y224261D01*
Y224500D01*
D02*
G37*
G36*
X569500D02*
X562500D01*
Y224261D01*
X562788Y222812D01*
X563354Y221447D01*
X564174Y220219D01*
X565219Y219174D01*
X566447Y218354D01*
X567812Y217788D01*
X569261Y217500D01*
X569500D01*
Y224500D01*
D02*
G37*
G36*
X557500D02*
X550500D01*
Y217500D01*
X550739D01*
X552188Y217788D01*
X553553Y218354D01*
X554781Y219174D01*
X555826Y220219D01*
X556646Y221447D01*
X557212Y222812D01*
X557500Y224261D01*
Y224500D01*
D02*
G37*
G36*
X549500D02*
X542500D01*
Y224261D01*
X542788Y222812D01*
X543354Y221447D01*
X544174Y220219D01*
X545219Y219174D01*
X546447Y218354D01*
X547812Y217788D01*
X549261Y217500D01*
X549500D01*
Y224500D01*
D02*
G37*
G36*
X570739Y212500D02*
X570500D01*
Y205500D01*
X577500D01*
Y205739D01*
X577212Y207188D01*
X576646Y208553D01*
X575826Y209781D01*
X574781Y210826D01*
X573553Y211646D01*
X572188Y212212D01*
X570739Y212500D01*
D02*
G37*
G36*
X550739D02*
X550500D01*
Y205500D01*
X557500D01*
Y205739D01*
X557212Y207188D01*
X556646Y208553D01*
X555826Y209781D01*
X554781Y210826D01*
X553553Y211646D01*
X552188Y212212D01*
X550739Y212500D01*
D02*
G37*
G36*
X569500D02*
X569261D01*
X567812Y212212D01*
X566447Y211646D01*
X565219Y210826D01*
X564174Y209781D01*
X563354Y208553D01*
X562788Y207188D01*
X562500Y205739D01*
Y205500D01*
X569500D01*
Y212500D01*
D02*
G37*
G36*
X549500D02*
X549261D01*
X547812Y212212D01*
X546447Y211646D01*
X545219Y210826D01*
X544174Y209781D01*
X543354Y208553D01*
X542788Y207188D01*
X542500Y205739D01*
Y205500D01*
X549500D01*
Y212500D01*
D02*
G37*
G36*
X577500Y204500D02*
X570500D01*
Y197500D01*
X570739D01*
X572188Y197788D01*
X573553Y198354D01*
X574781Y199174D01*
X575826Y200219D01*
X576646Y201447D01*
X577212Y202812D01*
X577500Y204261D01*
Y204500D01*
D02*
G37*
G36*
X569500D02*
X562500D01*
Y204261D01*
X562788Y202812D01*
X563354Y201447D01*
X564174Y200219D01*
X565219Y199174D01*
X566447Y198354D01*
X567812Y197788D01*
X569261Y197500D01*
X569500D01*
Y204500D01*
D02*
G37*
G36*
X557500D02*
X550500D01*
Y197500D01*
X550739D01*
X552188Y197788D01*
X553553Y198354D01*
X554781Y199174D01*
X555826Y200219D01*
X556646Y201447D01*
X557212Y202812D01*
X557500Y204261D01*
Y204500D01*
D02*
G37*
G36*
X549500D02*
X542500D01*
Y204261D01*
X542788Y202812D01*
X543354Y201447D01*
X544174Y200219D01*
X545219Y199174D01*
X546447Y198354D01*
X547812Y197788D01*
X549261Y197500D01*
X549500D01*
Y204500D01*
D02*
G37*
G36*
X120520Y143953D02*
X120500D01*
Y140500D01*
X123953D01*
Y140520D01*
X123683Y141526D01*
X123163Y142427D01*
X122427Y143163D01*
X121526Y143683D01*
X120520Y143953D01*
D02*
G37*
G36*
X110520D02*
X110500D01*
Y140500D01*
X113953D01*
Y140520D01*
X113683Y141526D01*
X113163Y142427D01*
X112427Y143163D01*
X111526Y143683D01*
X110520Y143953D01*
D02*
G37*
G36*
X109500D02*
X109480D01*
X108474Y143683D01*
X107573Y143163D01*
X106837Y142427D01*
X106317Y141526D01*
X106047Y140520D01*
Y140500D01*
X109500D01*
Y143953D01*
D02*
G37*
G36*
X119500D02*
X119480D01*
X118474Y143683D01*
X117573Y143163D01*
X116837Y142427D01*
X116317Y141526D01*
X116047Y140520D01*
Y140500D01*
X119500D01*
Y143953D01*
D02*
G37*
G36*
X223461Y140563D02*
X220500D01*
Y137602D01*
X223461D01*
Y140563D01*
D02*
G37*
G36*
X219500D02*
X216539D01*
Y137602D01*
X219500D01*
Y140563D01*
D02*
G37*
G36*
X198461D02*
X195500D01*
Y137602D01*
X198461D01*
Y140563D01*
D02*
G37*
G36*
X194500D02*
X191539D01*
Y137602D01*
X194500D01*
Y140563D01*
D02*
G37*
G36*
X173461D02*
X170500D01*
Y137602D01*
X173461D01*
Y140563D01*
D02*
G37*
G36*
X169500D02*
X166539D01*
Y137602D01*
X169500D01*
Y140563D01*
D02*
G37*
G36*
X148461D02*
X145500D01*
Y137602D01*
X148461D01*
Y140563D01*
D02*
G37*
G36*
X144500D02*
X141539D01*
Y137602D01*
X144500D01*
Y140563D01*
D02*
G37*
G36*
X123953Y139500D02*
X120500D01*
Y136047D01*
X120520D01*
X121526Y136317D01*
X122427Y136837D01*
X123163Y137573D01*
X123683Y138474D01*
X123953Y139480D01*
Y139500D01*
D02*
G37*
G36*
X119500D02*
X116047D01*
Y139480D01*
X116317Y138474D01*
X116837Y137573D01*
X117573Y136837D01*
X118474Y136317D01*
X119480Y136047D01*
X119500D01*
Y139500D01*
D02*
G37*
G36*
X113953D02*
X110500D01*
Y136047D01*
X110520D01*
X111526Y136317D01*
X112427Y136837D01*
X113163Y137573D01*
X113683Y138474D01*
X113953Y139480D01*
Y139500D01*
D02*
G37*
G36*
X109500D02*
X106047D01*
Y139480D01*
X106317Y138474D01*
X106837Y137573D01*
X107573Y136837D01*
X108474Y136317D01*
X109480Y136047D01*
X109500D01*
Y139500D01*
D02*
G37*
G36*
X120520Y133953D02*
X120500D01*
Y130500D01*
X123953D01*
Y130520D01*
X123683Y131526D01*
X123163Y132427D01*
X122427Y133163D01*
X121526Y133683D01*
X120520Y133953D01*
D02*
G37*
G36*
X110520D02*
X110500D01*
Y130500D01*
X113953D01*
Y130520D01*
X113683Y131526D01*
X113163Y132427D01*
X112427Y133163D01*
X111526Y133683D01*
X110520Y133953D01*
D02*
G37*
G36*
X109500D02*
X109480D01*
X108474Y133683D01*
X107573Y133163D01*
X106837Y132427D01*
X106317Y131526D01*
X106047Y130520D01*
Y130500D01*
X109500D01*
Y133953D01*
D02*
G37*
G36*
X119500D02*
X119480D01*
X118474Y133683D01*
X117573Y133163D01*
X116837Y132427D01*
X116317Y131526D01*
X116047Y130520D01*
Y130500D01*
X119500D01*
Y133953D01*
D02*
G37*
G36*
X123953Y129500D02*
X120500D01*
Y126047D01*
X120520D01*
X121526Y126317D01*
X122427Y126837D01*
X123163Y127573D01*
X123683Y128474D01*
X123953Y129480D01*
Y129500D01*
D02*
G37*
G36*
X119500D02*
X116047D01*
Y129480D01*
X116317Y128474D01*
X116837Y127573D01*
X117573Y126837D01*
X118474Y126317D01*
X119480Y126047D01*
X119500D01*
Y129500D01*
D02*
G37*
G36*
X113953D02*
X110500D01*
Y126047D01*
X110520D01*
X111526Y126317D01*
X112427Y126837D01*
X113163Y127573D01*
X113683Y128474D01*
X113953Y129480D01*
Y129500D01*
D02*
G37*
G36*
X109500D02*
X106047D01*
Y129480D01*
X106317Y128474D01*
X106837Y127573D01*
X107573Y126837D01*
X108474Y126317D01*
X109480Y126047D01*
X109500D01*
Y129500D01*
D02*
G37*
G36*
X120520Y123953D02*
X120500D01*
Y120500D01*
X123953D01*
Y120520D01*
X123683Y121526D01*
X123163Y122427D01*
X122427Y123163D01*
X121526Y123683D01*
X120520Y123953D01*
D02*
G37*
G36*
X113953D02*
X110500D01*
Y120500D01*
X113953D01*
Y123953D01*
D02*
G37*
G36*
X109500D02*
X106047D01*
Y120500D01*
X109500D01*
Y123953D01*
D02*
G37*
G36*
X119500D02*
X119480D01*
X118474Y123683D01*
X117573Y123163D01*
X116837Y122427D01*
X116317Y121526D01*
X116047Y120520D01*
Y120500D01*
X119500D01*
Y123953D01*
D02*
G37*
G36*
X595783Y132950D02*
X594217D01*
X592681Y132644D01*
X591234Y132045D01*
X589932Y131175D01*
X588825Y130068D01*
X587955Y128766D01*
X587356Y127319D01*
X587050Y125783D01*
Y124217D01*
X587356Y122681D01*
X587955Y121234D01*
X588825Y119932D01*
X589932Y118825D01*
X591234Y117955D01*
X592681Y117356D01*
X594217Y117050D01*
X595783D01*
X597319Y117356D01*
X598766Y117955D01*
X600068Y118825D01*
X601175Y119932D01*
X602045Y121234D01*
X602644Y122681D01*
X602950Y124217D01*
Y125783D01*
X602644Y127319D01*
X602045Y128766D01*
X601175Y130068D01*
X600068Y131175D01*
X598766Y132045D01*
X597319Y132644D01*
X595783Y132950D01*
D02*
G37*
G36*
X123953Y119500D02*
X120500D01*
Y116047D01*
X120520D01*
X121526Y116317D01*
X122427Y116837D01*
X123163Y117573D01*
X123683Y118474D01*
X123953Y119480D01*
Y119500D01*
D02*
G37*
G36*
X119500D02*
X116047D01*
Y119480D01*
X116317Y118474D01*
X116837Y117573D01*
X117573Y116837D01*
X118474Y116317D01*
X119480Y116047D01*
X119500D01*
Y119500D01*
D02*
G37*
G36*
X113953D02*
X110500D01*
Y116047D01*
X113953D01*
Y119500D01*
D02*
G37*
G36*
X109500D02*
X106047D01*
Y116047D01*
X109500D01*
Y119500D01*
D02*
G37*
%LPD*%
D14*
X150000Y200000D02*
Y310000D01*
X170000Y330000D01*
X130000Y180000D02*
X150000Y200000D01*
X120000Y180000D02*
X130000D01*
X170000Y330000D02*
X280000D01*
X495000D01*
X525000D02*
X540000D01*
D25*
X230000Y290000D02*
D03*
X270000D02*
D03*
X190000D02*
D03*
X250000Y170000D02*
D03*
Y130000D02*
D03*
X150000Y290000D02*
D03*
D26*
X495000Y330000D02*
D03*
X525000D02*
D03*
D27*
X220000Y148937D02*
D03*
X195000D02*
D03*
X170000D02*
D03*
X145000D02*
D03*
D28*
X220000Y141063D02*
D03*
X195000D02*
D03*
X170000D02*
D03*
X145000D02*
D03*
D29*
X540000Y339606D02*
D03*
Y329606D02*
D03*
D30*
X560000Y310000D02*
D03*
Y349213D02*
D03*
D31*
X570000Y260000D02*
D03*
Y280000D02*
D03*
X550000D02*
D03*
Y260000D02*
D03*
Y205000D02*
D03*
Y225000D02*
D03*
X570000D02*
D03*
Y205000D02*
D03*
D32*
X110000Y120000D02*
D03*
D33*
X120000D02*
D03*
X110000Y130000D02*
D03*
X120000D02*
D03*
X110000Y140000D02*
D03*
X120000D02*
D03*
X110000Y150000D02*
D03*
X120000D02*
D03*
X110000Y160000D02*
D03*
X120000D02*
D03*
X110000Y170000D02*
D03*
X120000D02*
D03*
X110000Y180000D02*
D03*
X120000D02*
D03*
X110000Y190000D02*
D03*
X120000D02*
D03*
M02*
