G04*
G04 #@! TF.GenerationSoftware,Altium Limited,Altium Designer,21.9.1 (22)*
G04*
G04 Layer_Color=65535*
%FSLAX25Y25*%
%MOIN*%
G70*
G04*
G04 #@! TF.SameCoordinates,F3426815-9E30-4310-B1EE-DB99E30BDFF3*
G04*
G04*
G04 #@! TF.FilePolarity,Positive*
G04*
G01*
G75*
%ADD10C,0.00787*%
%ADD11C,0.01000*%
%ADD12C,0.00500*%
%ADD13C,0.00591*%
%ADD14C,0.00800*%
D10*
X236240Y290000D02*
G03*
X236240Y290000I-6240J0D01*
G01*
X276240D02*
G03*
X276240Y290000I-6240J0D01*
G01*
X229842Y145000D02*
G03*
X229842Y145000I-9843J0D01*
G01*
X204842D02*
G03*
X204842Y145000I-9843J0D01*
G01*
X179842D02*
G03*
X179842Y145000I-9843J0D01*
G01*
X196240Y290000D02*
G03*
X196240Y290000I-6240J0D01*
G01*
X256240Y170000D02*
G03*
X256240Y170000I-6240J0D01*
G01*
Y130000D02*
G03*
X256240Y130000I-6240J0D01*
G01*
X156240Y290000D02*
G03*
X156240Y290000I-6240J0D01*
G01*
X154842Y145000D02*
G03*
X154842Y145000I-9843J0D01*
G01*
X500000Y327000D02*
Y330000D01*
Y327000D02*
X520000D01*
Y333000D01*
X500000D02*
X520000D01*
X500000Y330000D02*
Y333000D01*
X520000Y330000D02*
X520900D01*
X499100D02*
X500000D01*
X100000Y115000D02*
X105000D01*
X100000D02*
Y195000D01*
X105000D01*
X102500Y115000D02*
X105000Y117500D01*
X86667Y118333D02*
X100000D01*
X85000Y120000D02*
X86667Y118333D01*
X85000Y120000D02*
X86667Y121667D01*
X100000D01*
X86667Y128333D02*
X100000D01*
X85000Y130000D02*
X86667Y128333D01*
X85000Y130000D02*
X86667Y131667D01*
X100000D01*
X86667Y138333D02*
X100000D01*
X85000Y140000D02*
X86667Y138333D01*
X85000Y140000D02*
X86667Y141667D01*
X100000D01*
X86667Y148333D02*
X100000D01*
X85000Y150000D02*
X86667Y148333D01*
X85000Y150000D02*
X86667Y151667D01*
X100000D01*
X86667Y158333D02*
X100000D01*
X85000Y160000D02*
X86667Y158333D01*
X85000Y160000D02*
X86667Y161667D01*
X100000D01*
X86667Y168333D02*
X100000D01*
X85000Y170000D02*
X86667Y168333D01*
X85000Y170000D02*
X86667Y171667D01*
X100000D01*
X86667Y178333D02*
X100000D01*
X85000Y180000D02*
X86667Y178333D01*
X85000Y180000D02*
X86667Y181667D01*
X100000D01*
X86667Y188333D02*
X100000D01*
X85000Y190000D02*
X86667Y188333D01*
X85000Y190000D02*
X86667Y191667D01*
X100000D01*
X105000Y115000D02*
Y195000D01*
D11*
X536791Y344173D02*
Y358150D01*
Y301063D02*
Y325669D01*
Y358150D02*
X587933D01*
Y301063D02*
Y358150D01*
X536791Y301063D02*
X587933D01*
X386000Y348002D02*
Y354000D01*
X388999D01*
X389999Y353000D01*
Y351001D01*
X388999Y350001D01*
X386000D01*
X392998Y348002D02*
X394997D01*
X395997Y349002D01*
Y351001D01*
X394997Y352001D01*
X392998D01*
X391998Y351001D01*
Y349002D01*
X392998Y348002D01*
X397996Y352001D02*
Y349002D01*
X398996Y348002D01*
X399995Y349002D01*
X400995Y348002D01*
X401995Y349002D01*
Y352001D01*
X406993Y348002D02*
X404994D01*
X403994Y349002D01*
Y351001D01*
X404994Y352001D01*
X406993D01*
X407993Y351001D01*
Y350001D01*
X403994D01*
X409992Y352001D02*
Y348002D01*
Y350001D01*
X410992Y351001D01*
X411992Y352001D01*
X412991D01*
X415990Y348002D02*
X419989Y352001D01*
X425987Y353000D02*
X424987Y354000D01*
X422988D01*
X421988Y353000D01*
Y349002D01*
X422988Y348002D01*
X424987D01*
X425987Y349002D01*
X427986Y348002D02*
X429986D01*
X428986D01*
Y354000D01*
X427986D01*
X433985Y348002D02*
X435984D01*
X436983Y349002D01*
Y351001D01*
X435984Y352001D01*
X433985D01*
X432985Y351001D01*
Y349002D01*
X433985Y348002D01*
X442982Y352001D02*
X439983D01*
X438983Y351001D01*
Y349002D01*
X439983Y348002D01*
X442982D01*
X444981D02*
Y354000D01*
Y350001D02*
X447980Y352001D01*
X444981Y350001D02*
X447980Y348002D01*
X456977D02*
Y354000D01*
X459976D01*
X460976Y353000D01*
Y351001D01*
X459976Y350001D01*
X456977D01*
X462975Y352001D02*
Y348002D01*
Y350001D01*
X463975Y351001D01*
X464974Y352001D01*
X465974D01*
X469973Y348002D02*
X471972D01*
X472972Y349002D01*
Y351001D01*
X471972Y352001D01*
X469973D01*
X468973Y351001D01*
Y349002D01*
X469973Y348002D01*
X475971Y353000D02*
Y352001D01*
X474971D01*
X476971D01*
X475971D01*
Y349002D01*
X476971Y348002D01*
X480969D02*
X482969D01*
X483968Y349002D01*
Y351001D01*
X482969Y352001D01*
X480969D01*
X479970Y351001D01*
Y349002D01*
X480969Y348002D01*
X386000Y338404D02*
Y344402D01*
X388999D01*
X389999Y343403D01*
Y341403D01*
X388999Y340404D01*
X386000D01*
X387999D02*
X389999Y338404D01*
X394997D02*
X392998D01*
X391998Y339404D01*
Y341403D01*
X392998Y342403D01*
X394997D01*
X395997Y341403D01*
Y340404D01*
X391998D01*
X397996Y342403D02*
X399995Y338404D01*
X401995Y342403D01*
X409992Y338404D02*
Y342403D01*
X411992Y344402D01*
X413991Y342403D01*
Y338404D01*
Y341403D01*
X409992D01*
X389999Y334805D02*
X386000D01*
Y328807D01*
X389999D01*
X386000Y331806D02*
X387999D01*
X391998Y328807D02*
Y329806D01*
X392998D01*
Y328807D01*
X391998D01*
X406993Y333805D02*
X405994Y334805D01*
X403994D01*
X402994Y333805D01*
Y332805D01*
X403994Y331806D01*
X405994D01*
X406993Y330806D01*
Y329806D01*
X405994Y328807D01*
X403994D01*
X402994Y329806D01*
X408993Y334805D02*
X410992D01*
X409992D01*
Y328807D01*
X408993D01*
X410992D01*
X413991D02*
Y334805D01*
X415990Y332805D01*
X417990Y334805D01*
Y328807D01*
X423988Y333805D02*
X422988Y334805D01*
X420989D01*
X419989Y333805D01*
Y332805D01*
X420989Y331806D01*
X422988D01*
X423988Y330806D01*
Y329806D01*
X422988Y328807D01*
X420989D01*
X419989Y329806D01*
X222003Y281999D02*
Y276001D01*
Y279000D01*
X226001D01*
Y281999D01*
Y276001D01*
X228001Y281999D02*
X231999D01*
X230000D01*
Y276001D01*
X234998D02*
Y281999D01*
X236998D02*
Y276001D01*
X233999Y280000D02*
X236998D01*
X237997D01*
X233999Y278000D02*
X237997D01*
X222003Y303999D02*
X226001D01*
X224002D01*
Y298001D01*
X228001D02*
Y303999D01*
X231000D01*
X231999Y302999D01*
Y301000D01*
X231000Y300000D01*
X228001D01*
X237997Y303999D02*
X233999D01*
Y301000D01*
X235998Y302000D01*
X236998D01*
X237997Y301000D01*
Y299001D01*
X236998Y298001D01*
X234998D01*
X233999Y299001D01*
X262003Y281999D02*
Y276001D01*
X265002D01*
X266001Y277001D01*
Y280999D01*
X265002Y281999D01*
X262003D01*
X268001D02*
Y276001D01*
X271000D01*
X271999Y277001D01*
Y278000D01*
X271000Y279000D01*
X268001D01*
X271000D01*
X271999Y280000D01*
Y280999D01*
X271000Y281999D01*
X268001D01*
X277997Y280999D02*
X276998Y281999D01*
X274998D01*
X273999Y280999D01*
Y277001D01*
X274998Y276001D01*
X276998D01*
X277997Y277001D01*
Y279000D01*
X275998D01*
X262003Y303999D02*
X266001D01*
X264002D01*
Y298001D01*
X268001D02*
Y303999D01*
X271000D01*
X271999Y302999D01*
Y301000D01*
X271000Y300000D01*
X268001D01*
X277997Y303999D02*
X275998Y302999D01*
X273999Y301000D01*
Y299001D01*
X274998Y298001D01*
X276998D01*
X277997Y299001D01*
Y300000D01*
X276998Y301000D01*
X273999D01*
X492800Y336400D02*
Y342398D01*
X495799D01*
X496799Y341398D01*
Y339399D01*
X495799Y338399D01*
X492800D01*
X494799D02*
X496799Y336400D01*
X498798D02*
X500797D01*
X499798D01*
Y342398D01*
X498798Y341398D01*
X218001Y161999D02*
X217001Y160999D01*
Y159000D01*
X218001Y158000D01*
X221999D01*
X222999Y159000D01*
Y160999D01*
X221999Y161999D01*
X222999Y163998D02*
Y165997D01*
Y164998D01*
X217001D01*
X218001Y163998D01*
Y168996D02*
X217001Y169996D01*
Y171995D01*
X218001Y172995D01*
X221999D01*
X222999Y171995D01*
Y169996D01*
X221999Y168996D01*
X218001D01*
X222999Y177994D02*
X217001D01*
X220000Y174995D01*
Y178993D01*
X193001Y161999D02*
X192001Y160999D01*
Y159000D01*
X193001Y158000D01*
X196999D01*
X197999Y159000D01*
Y160999D01*
X196999Y161999D01*
X197999Y163998D02*
Y165997D01*
Y164998D01*
X192001D01*
X193001Y163998D01*
Y168996D02*
X192001Y169996D01*
Y171995D01*
X193001Y172995D01*
X196999D01*
X197999Y171995D01*
Y169996D01*
X196999Y168996D01*
X193001D01*
Y174995D02*
X192001Y175994D01*
Y177994D01*
X193001Y178993D01*
X194000D01*
X195000Y177994D01*
Y176994D01*
Y177994D01*
X196000Y178993D01*
X196999D01*
X197999Y177994D01*
Y175994D01*
X196999Y174995D01*
X527001Y309000D02*
Y307001D01*
Y308001D01*
X531999D01*
X532999Y307001D01*
Y306001D01*
X531999Y305002D01*
X528001Y311000D02*
X527001Y311999D01*
Y313999D01*
X528001Y314998D01*
X529000D01*
X530000Y313999D01*
Y312999D01*
Y313999D01*
X531000Y314998D01*
X531999D01*
X532999Y313999D01*
Y311999D01*
X531999Y311000D01*
X527001Y259000D02*
Y257001D01*
Y258001D01*
X531999D01*
X532999Y257001D01*
Y256001D01*
X531999Y255002D01*
X532999Y264998D02*
Y261000D01*
X529000Y264998D01*
X528001D01*
X527001Y263999D01*
Y261999D01*
X528001Y261000D01*
X527001Y210000D02*
Y208001D01*
Y209000D01*
X531999D01*
X532999Y208001D01*
Y207001D01*
X531999Y206001D01*
X532999Y211999D02*
Y213999D01*
Y212999D01*
X527001D01*
X528001Y211999D01*
X179004Y276001D02*
Y281999D01*
X182003D01*
X183002Y280999D01*
Y279000D01*
X182003Y278000D01*
X179004D01*
X181003D02*
X183002Y276001D01*
X189000Y280999D02*
X188001Y281999D01*
X186001D01*
X185002Y280999D01*
Y280000D01*
X186001Y279000D01*
X188001D01*
X189000Y278000D01*
Y277001D01*
X188001Y276001D01*
X186001D01*
X185002Y277001D01*
X191000Y281999D02*
X194998D01*
X192999D01*
Y276001D01*
X197997D02*
Y281999D01*
X199997D02*
Y276001D01*
X196998Y280000D02*
X199997D01*
X200996D01*
X196998Y278000D02*
X200996D01*
X182003Y303999D02*
X186001D01*
X184002D01*
Y298001D01*
X188001D02*
Y303999D01*
X191000D01*
X191999Y302999D01*
Y301000D01*
X191000Y300000D01*
X188001D01*
X196998Y298001D02*
Y303999D01*
X193999Y301000D01*
X197997D01*
X246001Y160999D02*
X245002Y161999D01*
X243002D01*
X242003Y160999D01*
Y157001D01*
X243002Y156001D01*
X245002D01*
X246001Y157001D01*
Y159000D01*
X244002D01*
X248001Y156001D02*
Y161999D01*
X251999Y156001D01*
Y161999D01*
X253999D02*
Y156001D01*
X256998D01*
X257997Y157001D01*
Y160999D01*
X256998Y161999D01*
X253999D01*
X243002Y183999D02*
X247001D01*
X245002D01*
Y178001D01*
X249000D02*
Y183999D01*
X251999D01*
X252999Y182999D01*
Y181000D01*
X251999Y180000D01*
X249000D01*
X254998Y178001D02*
X256998D01*
X255998D01*
Y183999D01*
X254998Y182999D01*
X242003Y121999D02*
Y118000D01*
X244002Y116001D01*
X246001Y118000D01*
Y121999D01*
X251999Y120999D02*
X251000Y121999D01*
X249000D01*
X248001Y120999D01*
Y117001D01*
X249000Y116001D01*
X251000D01*
X251999Y117001D01*
X257997Y120999D02*
X256998Y121999D01*
X254998D01*
X253999Y120999D01*
Y117001D01*
X254998Y116001D01*
X256998D01*
X257997Y117001D01*
X242003Y143999D02*
X246001D01*
X244002D01*
Y138001D01*
X248001D02*
Y143999D01*
X251000D01*
X251999Y142999D01*
Y141000D01*
X251000Y140000D01*
X248001D01*
X257997Y138001D02*
X253999D01*
X257997Y142000D01*
Y142999D01*
X256998Y143999D01*
X254998D01*
X253999Y142999D01*
X146001Y280999D02*
X145002Y281999D01*
X143002D01*
X142003Y280999D01*
Y277001D01*
X143002Y276001D01*
X145002D01*
X146001Y277001D01*
X148001Y281999D02*
Y276001D01*
X151999D01*
X153999Y281999D02*
Y276001D01*
Y278000D01*
X157997Y281999D01*
X154998Y279000D01*
X157997Y276001D01*
X142003Y303999D02*
X146001D01*
X144002D01*
Y298001D01*
X148001D02*
Y303999D01*
X151000D01*
X151999Y302999D01*
Y301000D01*
X151000Y300000D01*
X148001D01*
X153999Y302999D02*
X154998Y303999D01*
X156998D01*
X157997Y302999D01*
Y302000D01*
X156998Y301000D01*
X155998D01*
X156998D01*
X157997Y300000D01*
Y299001D01*
X156998Y298001D01*
X154998D01*
X153999Y299001D01*
X168001Y161999D02*
X167001Y160999D01*
Y159000D01*
X168001Y158000D01*
X171999D01*
X172999Y159000D01*
Y160999D01*
X171999Y161999D01*
X172999Y163998D02*
Y165997D01*
Y164998D01*
X167001D01*
X168001Y163998D01*
Y168996D02*
X167001Y169996D01*
Y171995D01*
X168001Y172995D01*
X171999D01*
X172999Y171995D01*
Y169996D01*
X171999Y168996D01*
X168001D01*
X172999Y178993D02*
Y174995D01*
X169000Y178993D01*
X168001D01*
X167001Y177994D01*
Y175994D01*
X168001Y174995D01*
X143001Y161999D02*
X142001Y160999D01*
Y159000D01*
X143001Y158000D01*
X146999D01*
X147999Y159000D01*
Y160999D01*
X146999Y161999D01*
X147999Y163998D02*
Y165997D01*
Y164998D01*
X142001D01*
X143001Y163998D01*
Y168996D02*
X142001Y169996D01*
Y171995D01*
X143001Y172995D01*
X146999D01*
X147999Y171995D01*
Y169996D01*
X146999Y168996D01*
X143001D01*
X147999Y174995D02*
Y176994D01*
Y175994D01*
X142001D01*
X143001Y174995D01*
X107001Y106001D02*
X112999D01*
Y109000D01*
X111999Y110000D01*
X110000D01*
X109000Y109000D01*
Y106001D01*
X107001Y111999D02*
Y113999D01*
Y112999D01*
X112999D01*
X111999Y111999D01*
D12*
X105000Y360000D02*
X600000Y360000D01*
X135000Y110000D02*
X600000Y110000D01*
D13*
X216063Y135157D02*
Y131221D01*
X218031Y133189D02*
X214095D01*
X191063Y135157D02*
Y131221D01*
X193031Y133189D02*
X189095D01*
X166063Y135157D02*
Y131221D01*
X168031Y133189D02*
X164095D01*
X141063Y135157D02*
Y131221D01*
X143031Y133189D02*
X139095D01*
D14*
X118000Y113332D02*
Y110000D01*
X121332Y113332D01*
X122165D01*
X122998Y112499D01*
Y110833D01*
X122165Y110000D01*
X108000D02*
Y111666D01*
Y110833D01*
X112998D01*
X112165Y110000D01*
X108000Y195074D02*
Y196740D01*
Y195907D01*
X112998D01*
X112165Y195074D01*
X112998Y202572D02*
Y199239D01*
X110499D01*
X111332Y200905D01*
Y201738D01*
X110499Y202572D01*
X108833D01*
X108000Y201738D01*
Y200072D01*
X108833Y199239D01*
X118000Y195165D02*
Y196831D01*
Y195998D01*
X122998D01*
X122165Y195165D01*
X122998Y202662D02*
X122165Y200996D01*
X120499Y199330D01*
X118833D01*
X118000Y200163D01*
Y201829D01*
X118833Y202662D01*
X119666D01*
X120499Y201829D01*
Y199330D01*
M02*
