M48
;Layer_Color=9474304
;FILE_FORMAT=2:5
INCH,LZ
;TYPE=PLATED
T1F00S00C0.02000
T2F00S00C0.02953
T3F00S00C0.03346
T4F00S00C0.03543
T5F00S00C0.06299
T6F00S00C0.10900
%
T01
X018Y012
X02
X022
X024Y0115
X026Y012
X028
X03Y0115
X029Y014
X0285Y0145
X025Y014
X033
X035
X037
X039
X041
X043
X045
X046Y012
X044
X042
X04
X038
X036
X034
X032
X048
X05
X052
X054
X056
X058
X059Y014
X061
X057
X055
X053
X051
X049
X047
X048Y016
X05
X052
X054
X056
X058
X06
X061Y018
X059
X057
X055
X053
X051
X049
X047
X048Y02
X05
X052
X054
X056
X058
X06
X061Y022
X059
X057
X055
X053
X051
X049
X047
X048Y024
X05
X052
X054
X056
X058
X06
X061Y026
X059
X057
X055
X053
X051
X049
X047
X048Y028
X05
X052
X054
X056
X058
X06
X061Y03
X057
X055
X053
X051
X049
X047
X045
X043
X041
X039
X04Y028
X042
X044
X046
X045Y026
X043
X041
X039
X037
X035
X036Y028
X038
Y024
X04
X042
X044
X046
X045Y022
X043
X041
X039
X037
X035
X036Y024
Y02
X038
X04
X042
X044
X046
X045Y018
X043
X041
X039
X037
X035
X033
X034Y02
X032
Y024
Y028
X034
X035Y03
X036Y016
X038
X04
X042
X044
X046
X034
X029Y018
Y022
Y026
X031
X025
X022Y028
X02
X021Y03
X023
X027
X017
X026Y02
X025Y018
X026Y016
X015Y03
X013
T02
X0150079Y012
X0159921
X0325Y0215079
Y0224921
X0363563Y0305
X0371437Y0305
X0304921Y03
X0295079
X0234921Y0275
X0225079
X0295079Y0205
X0304921
T03
X034Y0215
Y0245
T04
X011Y012
Y013
Y014
Y015
X012
Y014
Y013
Y012
X015Y0135
Y0145
Y0155
X018
Y0145
Y0135
X0205Y014
Y015
Y013
X0235
Y014
Y015
X0275
Y014
Y013
X0305
Y014
Y015
Y016
Y017
Y018
Y019
X0275
Y018
Y017
Y016
X0235
Y017
Y018
Y019
Y02
Y021
Y022
Y023
Y024
Y025
Y026
X0205
Y025
Y024
Y023
Y022
Y021
Y02
Y019
Y018
Y017
Y016
X018Y0165
Y0175
Y0185
Y0195
Y0205
Y0215
Y0225
X0275
Y0235
Y0245
Y0255
Y0265
Y0275
Y0285
X0305
Y0275
Y0265
Y0255
Y0245
Y0235
Y0225
X015
Y0215
Y0205
Y0195
Y0185
Y0175
Y0165
X012Y017
Y018
Y019
Y02
Y021
Y022
Y023
Y024
Y025
Y026
Y027
Y028
Y029
Y03
Y031
X011
Y03
Y029
Y028
Y027
Y026
Y025
Y024
Y023
Y022
Y021
Y02
Y019
Y018
Y017
Y016
X012
T05
X033Y02625
Y0305
X0255
Y0275
Y0245
Y019
X019Y0305
T06
X0595Y0125
Y0305
M30
