G04*
G04 #@! TF.GenerationSoftware,Altium Limited,Altium Designer,21.9.1 (22)*
G04*
G04 Layer_Physical_Order=1*
G04 Layer_Color=255*
%FSLAX25Y25*%
%MOIN*%
G70*
G04*
G04 #@! TF.SameCoordinates,535E74F5-FE81-4067-B89D-05631C4F16FF*
G04*
G04*
G04 #@! TF.FilePolarity,Positive*
G04*
G01*
G75*
%ADD25C,0.00800*%
%ADD26C,0.02000*%
%ADD27C,0.08268*%
%ADD28R,0.05906X0.05906*%
%ADD29C,0.05906*%
%ADD30C,0.05906*%
%ADD31R,0.04921X0.04921*%
%ADD32C,0.04921*%
%ADD33R,0.04921X0.04921*%
%ADD34R,0.05906X0.05906*%
%ADD35R,0.05906X0.05906*%
%ADD36C,0.05000*%
%ADD37C,0.02000*%
%ADD38C,0.03500*%
G36*
X263924Y342510D02*
X263737Y342308D01*
X263570Y342095D01*
X263422Y341873D01*
X263295Y341640D01*
X263188Y341397D01*
X263101Y341143D01*
X263034Y340880D01*
X262987Y340607D01*
X262960Y340323D01*
X262953Y340030D01*
X260030Y342953D01*
X260323Y342960D01*
X260607Y342987D01*
X260880Y343034D01*
X261143Y343101D01*
X261397Y343188D01*
X261640Y343295D01*
X261873Y343423D01*
X262095Y343570D01*
X262308Y343737D01*
X262510Y343924D01*
X263924Y342510D01*
D02*
G37*
G36*
X163924D02*
X163737Y342308D01*
X163570Y342095D01*
X163423Y341873D01*
X163295Y341640D01*
X163188Y341397D01*
X163101Y341143D01*
X163034Y340880D01*
X162987Y340607D01*
X162960Y340323D01*
X162953Y340030D01*
X160029Y342953D01*
X160323Y342960D01*
X160607Y342987D01*
X160880Y343034D01*
X161144Y343101D01*
X161397Y343188D01*
X161640Y343295D01*
X161872Y343423D01*
X162095Y343570D01*
X162308Y343737D01*
X162510Y343924D01*
X163924Y342510D01*
D02*
G37*
G36*
X342963Y343466D02*
X343699Y342841D01*
X344025Y342614D01*
X344322Y342443D01*
X344591Y342328D01*
X344831Y342270D01*
X345042Y342269D01*
X345225Y342325D01*
X345380Y342437D01*
X342563Y339620D01*
X342675Y339775D01*
X342731Y339958D01*
X342729Y340169D01*
X342672Y340409D01*
X342557Y340678D01*
X342387Y340975D01*
X342159Y341301D01*
X341875Y341655D01*
X341137Y342449D01*
X342551Y343863D01*
X342963Y343466D01*
D02*
G37*
G36*
X242963D02*
X243699Y342841D01*
X244025Y342614D01*
X244322Y342443D01*
X244591Y342328D01*
X244831Y342270D01*
X245042Y342269D01*
X245225Y342325D01*
X245380Y342437D01*
X242563Y339620D01*
X242675Y339775D01*
X242731Y339958D01*
X242729Y340169D01*
X242672Y340409D01*
X242557Y340678D01*
X242387Y340975D01*
X242159Y341301D01*
X241875Y341655D01*
X241137Y342449D01*
X242551Y343863D01*
X242963Y343466D01*
D02*
G37*
G36*
X347457Y341810D02*
X347517Y341640D01*
X347618Y341490D01*
X347759Y341360D01*
X347940Y341250D01*
X348161Y341160D01*
X348423Y341090D01*
X348724Y341040D01*
X349066Y341010D01*
X349449Y341000D01*
Y339000D01*
X349066Y338990D01*
X348724Y338960D01*
X348423Y338910D01*
X348161Y338840D01*
X347940Y338750D01*
X347759Y338640D01*
X347618Y338510D01*
X347517Y338360D01*
X347457Y338190D01*
X347437Y338000D01*
Y342000D01*
X347457Y341810D01*
D02*
G37*
G36*
X247457D02*
X247517Y341640D01*
X247618Y341490D01*
X247759Y341360D01*
X247940Y341250D01*
X248161Y341160D01*
X248423Y341090D01*
X248724Y341040D01*
X249066Y341010D01*
X249449Y341000D01*
Y339000D01*
X249066Y338990D01*
X248724Y338960D01*
X248423Y338910D01*
X248161Y338840D01*
X247940Y338750D01*
X247759Y338640D01*
X247618Y338510D01*
X247517Y338360D01*
X247457Y338190D01*
X247437Y338000D01*
Y342000D01*
X247457Y341810D01*
D02*
G37*
G36*
X357891Y337933D02*
X357679Y338136D01*
X357459Y338317D01*
X357232Y338477D01*
X356999Y338616D01*
X356758Y338733D01*
X356510Y338829D01*
X356256Y338904D01*
X355994Y338957D01*
X355726Y338989D01*
X355450Y339000D01*
Y341000D01*
X355726Y341011D01*
X355994Y341043D01*
X356256Y341096D01*
X356510Y341171D01*
X356758Y341267D01*
X356999Y341384D01*
X357232Y341523D01*
X357459Y341683D01*
X357679Y341864D01*
X357891Y342067D01*
Y337933D01*
D02*
G37*
G36*
X257891D02*
X257679Y338136D01*
X257459Y338317D01*
X257232Y338477D01*
X256999Y338616D01*
X256758Y338733D01*
X256510Y338829D01*
X256256Y338904D01*
X255994Y338957D01*
X255726Y338989D01*
X255450Y339000D01*
Y341000D01*
X255726Y341011D01*
X255994Y341043D01*
X256256Y341096D01*
X256510Y341171D01*
X256758Y341267D01*
X256999Y341384D01*
X257232Y341523D01*
X257459Y341683D01*
X257679Y341864D01*
X257891Y342067D01*
Y337933D01*
D02*
G37*
G36*
X409971Y337047D02*
X409520Y337045D01*
X408719Y336999D01*
X408369Y336954D01*
X408051Y336896D01*
X407767Y336824D01*
X407516Y336738D01*
X407298Y336638D01*
X407113Y336524D01*
X406961Y336396D01*
X406396Y336961D01*
X406524Y337113D01*
X406638Y337298D01*
X406738Y337516D01*
X406824Y337767D01*
X406896Y338051D01*
X406954Y338369D01*
X406998Y338719D01*
X407045Y339520D01*
X407047Y339970D01*
X409971Y337047D01*
D02*
G37*
G36*
X312955Y339520D02*
X313001Y338719D01*
X313046Y338369D01*
X313104Y338051D01*
X313176Y337767D01*
X313262Y337516D01*
X313362Y337298D01*
X313476Y337113D01*
X313604Y336961D01*
X313039Y336396D01*
X312887Y336524D01*
X312702Y336638D01*
X312484Y336738D01*
X312233Y336824D01*
X311949Y336896D01*
X311631Y336954D01*
X311281Y336999D01*
X310480Y337045D01*
X310030Y337047D01*
X312953Y339970D01*
X312955Y339520D01*
D02*
G37*
G36*
X309970Y337047D02*
X309520Y337045D01*
X308719Y336999D01*
X308369Y336954D01*
X308051Y336896D01*
X307767Y336824D01*
X307516Y336738D01*
X307298Y336638D01*
X307113Y336524D01*
X306961Y336396D01*
X306396Y336961D01*
X306524Y337113D01*
X306638Y337298D01*
X306738Y337516D01*
X306824Y337767D01*
X306896Y338051D01*
X306954Y338369D01*
X306998Y338719D01*
X307045Y339520D01*
X307047Y339970D01*
X309970Y337047D01*
D02*
G37*
G36*
X212955Y339520D02*
X213001Y338719D01*
X213046Y338369D01*
X213104Y338051D01*
X213176Y337767D01*
X213262Y337516D01*
X213362Y337298D01*
X213476Y337113D01*
X213604Y336961D01*
X213039Y336396D01*
X212887Y336524D01*
X212702Y336638D01*
X212484Y336738D01*
X212233Y336824D01*
X211949Y336896D01*
X211631Y336954D01*
X211281Y336999D01*
X210480Y337045D01*
X210030Y337047D01*
X212953Y339970D01*
X212955Y339520D01*
D02*
G37*
G36*
X202955D02*
X203001Y338719D01*
X203046Y338369D01*
X203104Y338051D01*
X203176Y337767D01*
X203262Y337516D01*
X203362Y337298D01*
X203476Y337113D01*
X203604Y336961D01*
X203039Y336396D01*
X202887Y336524D01*
X202702Y336638D01*
X202484Y336738D01*
X202233Y336824D01*
X201949Y336896D01*
X201631Y336954D01*
X201281Y336999D01*
X200480Y337045D01*
X200029Y337047D01*
X202953Y339970D01*
X202955Y339520D01*
D02*
G37*
G36*
X182955D02*
X183001Y338719D01*
X183046Y338369D01*
X183104Y338051D01*
X183176Y337767D01*
X183262Y337516D01*
X183362Y337298D01*
X183476Y337113D01*
X183604Y336961D01*
X183039Y336396D01*
X182887Y336524D01*
X182702Y336638D01*
X182484Y336738D01*
X182233Y336824D01*
X181949Y336896D01*
X181631Y336954D01*
X181281Y336999D01*
X180480Y337045D01*
X180029Y337047D01*
X182953Y339970D01*
X182955Y339520D01*
D02*
G37*
G36*
X172955D02*
X173001Y338719D01*
X173046Y338369D01*
X173104Y338051D01*
X173176Y337767D01*
X173262Y337516D01*
X173362Y337298D01*
X173476Y337113D01*
X173604Y336961D01*
X173039Y336396D01*
X172887Y336524D01*
X172702Y336638D01*
X172484Y336738D01*
X172233Y336824D01*
X171949Y336896D01*
X171631Y336954D01*
X171281Y336999D01*
X170480Y337045D01*
X170029Y337047D01*
X172953Y339970D01*
X172955Y339520D01*
D02*
G37*
G36*
X169971Y337047D02*
X169520Y337045D01*
X168719Y336999D01*
X168369Y336954D01*
X168051Y336896D01*
X167767Y336824D01*
X167516Y336738D01*
X167298Y336638D01*
X167113Y336524D01*
X166961Y336396D01*
X166396Y336961D01*
X166524Y337113D01*
X166638Y337298D01*
X166738Y337516D01*
X166824Y337767D01*
X166896Y338051D01*
X166954Y338369D01*
X166999Y338719D01*
X167045Y339520D01*
X167047Y339970D01*
X169971Y337047D01*
D02*
G37*
G36*
X136275Y336143D02*
X136340Y336092D01*
X136410Y336047D01*
X136484Y336008D01*
X136562Y335975D01*
X136644Y335948D01*
X136731Y335927D01*
X136822Y335912D01*
X136917Y335903D01*
X137016Y335900D01*
Y335100D01*
X136917Y335097D01*
X136822Y335088D01*
X136731Y335073D01*
X136644Y335052D01*
X136562Y335025D01*
X136484Y334992D01*
X136410Y334953D01*
X136340Y334908D01*
X136275Y334857D01*
X136214Y334800D01*
Y336200D01*
X136275Y336143D01*
D02*
G37*
G36*
X616470Y343538D02*
X616470Y126462D01*
X602557Y112549D01*
X241687D01*
X241358Y115049D01*
X241982Y115216D01*
X243152Y115892D01*
X244108Y116848D01*
X244784Y118018D01*
X245134Y119324D01*
Y119500D01*
X234866D01*
Y119324D01*
X235216Y118018D01*
X235892Y116848D01*
X236848Y115892D01*
X238018Y115216D01*
X238642Y115049D01*
X238313Y112549D01*
X215289D01*
X214528Y114199D01*
X214431Y115049D01*
X215153Y115771D01*
X215879Y116858D01*
X216379Y118065D01*
X216634Y119347D01*
Y120653D01*
X216379Y121935D01*
X215879Y123142D01*
X215153Y124229D01*
X214229Y125153D01*
X213142Y125879D01*
X211935Y126379D01*
X210653Y126634D01*
X209347D01*
X208065Y126379D01*
X206858Y125879D01*
X205771Y125153D01*
X205465Y124847D01*
X205270Y124720D01*
X204946Y124405D01*
X204683Y124174D01*
X204442Y123985D01*
X204224Y123835D01*
X204034Y123724D01*
X203873Y123646D01*
X203742Y123596D01*
X203641Y123569D01*
X203566Y123556D01*
X203366Y123545D01*
X203309Y123530D01*
X181462D01*
X181433Y123559D01*
X180702Y124120D01*
X179851Y124473D01*
X178937Y124593D01*
X156868D01*
X154961Y126024D01*
X154961D01*
X153737Y128017D01*
X153725Y128039D01*
Y127937D01*
X153478Y127930D01*
X153243Y127908D01*
X153019Y127872D01*
X152805Y127821D01*
X152603Y127756D01*
X152412Y127677D01*
X152232Y127583D01*
X152062Y127475D01*
X151904Y127352D01*
X151757Y127215D01*
Y128437D01*
X150000D01*
Y128937D01*
D01*
Y128437D01*
X147809D01*
X147671Y128143D01*
X147602Y128306D01*
X147522Y128437D01*
X146513D01*
X146263Y128017D01*
X145039Y126024D01*
X145039D01*
X145023Y123530D01*
X135453D01*
Y125453D01*
X134578D01*
X133830Y126574D01*
X133382Y127953D01*
X133683Y128474D01*
X133802Y128916D01*
X133744Y128904D01*
X133490Y128829D01*
X133242Y128733D01*
X133001Y128616D01*
X132768Y128477D01*
X132541Y128317D01*
X132321Y128136D01*
X132109Y127933D01*
Y129500D01*
X130000D01*
Y130500D01*
X132109D01*
Y132067D01*
X132321Y131864D01*
X132541Y131683D01*
X132768Y131523D01*
X133001Y131384D01*
X133242Y131267D01*
X133490Y131171D01*
X133744Y131096D01*
X133802Y131084D01*
X133683Y131526D01*
X133163Y132427D01*
X132941Y132649D01*
X132899Y132763D01*
X132967Y134756D01*
X133245Y135577D01*
X133348Y135637D01*
X134363Y136652D01*
X135081Y137895D01*
X135453Y139282D01*
Y140718D01*
X135081Y142105D01*
X134451Y143196D01*
X134259Y145664D01*
X136149Y146739D01*
X137039Y146500D01*
X137961D01*
X138851Y146739D01*
X139434Y147075D01*
X153116D01*
X153154Y147063D01*
X153155Y147063D01*
X153276Y146999D01*
X153478Y146870D01*
X153698Y146710D01*
X154831Y145716D01*
X155250Y145299D01*
X155456Y145163D01*
X155771Y144847D01*
X156858Y144121D01*
X158065Y143621D01*
X159347Y143366D01*
X160653D01*
X161935Y143621D01*
X163142Y144121D01*
X164229Y144847D01*
X165153Y145771D01*
X165879Y146858D01*
X166379Y148065D01*
X166634Y149347D01*
Y150653D01*
X167183Y151322D01*
X174083D01*
X174547Y150718D01*
Y149282D01*
X174919Y147895D01*
X175637Y146652D01*
X175970Y146318D01*
X176088Y146133D01*
X176228Y145986D01*
X176291Y145910D01*
X176337Y145844D01*
X176371Y145787D01*
X176395Y145737D01*
X176414Y145689D01*
X176428Y145641D01*
X176439Y145588D01*
X176446Y145525D01*
X176453Y145352D01*
X176470Y145281D01*
Y139961D01*
X175039D01*
Y130039D01*
X184961D01*
Y131585D01*
X185868Y132139D01*
X187154Y132421D01*
X186502Y133073D01*
X186671Y133253D01*
X186822Y133434D01*
X186955Y133619D01*
X187070Y133805D01*
X187167Y133994D01*
X187246Y134186D01*
X187307Y134379D01*
X187350Y134576D01*
X187375Y134774D01*
X187382Y134975D01*
X189342Y133015D01*
Y135000D01*
X189842D01*
Y135500D01*
X193405D01*
X195620Y136470D01*
X273413D01*
X275014Y134620D01*
X275039Y134495D01*
Y130039D01*
X284961D01*
Y131585D01*
X285868Y132139D01*
X287154Y132421D01*
X286502Y133073D01*
X286671Y133253D01*
X286822Y133434D01*
X286955Y133619D01*
X287070Y133805D01*
X287167Y133994D01*
X287246Y134186D01*
X287307Y134379D01*
X287350Y134576D01*
X287375Y134774D01*
X287382Y134975D01*
X289342Y133015D01*
Y135000D01*
X289843D01*
Y135500D01*
X293405D01*
X295620Y136470D01*
X375039D01*
Y130039D01*
X384961D01*
Y131585D01*
X385868Y132139D01*
X387154Y132421D01*
X386502Y133073D01*
X386671Y133253D01*
X386822Y133434D01*
X386955Y133619D01*
X387070Y133805D01*
X387167Y133994D01*
X387246Y134186D01*
X387307Y134379D01*
X387350Y134576D01*
X387375Y134774D01*
X387382Y134975D01*
X389342Y133015D01*
Y135000D01*
X389843D01*
Y135500D01*
X393405D01*
X395620Y136470D01*
X435039D01*
Y130039D01*
X444961D01*
Y131585D01*
X445868Y132139D01*
X447154Y132421D01*
X446502Y133073D01*
X446671Y133253D01*
X446822Y133434D01*
X446955Y133619D01*
X447070Y133805D01*
X447167Y133994D01*
X447246Y134186D01*
X447307Y134379D01*
X447350Y134576D01*
X447375Y134774D01*
X447382Y134975D01*
X449342Y133015D01*
Y135000D01*
X449843D01*
Y135500D01*
X453405D01*
X455620Y136470D01*
X485039D01*
Y130039D01*
X494961D01*
Y131585D01*
X495868Y132139D01*
X497154Y132421D01*
X496502Y133073D01*
X496671Y133253D01*
X496822Y133434D01*
X496955Y133619D01*
X497070Y133805D01*
X497167Y133994D01*
X497246Y134186D01*
X497307Y134379D01*
X497350Y134576D01*
X497375Y134774D01*
X497382Y134975D01*
X499342Y133015D01*
Y135000D01*
X499843D01*
Y135500D01*
X503405D01*
X505620Y136470D01*
X535039D01*
Y130039D01*
X544961D01*
Y131585D01*
X545868Y132139D01*
X547154Y132421D01*
X546502Y133073D01*
X546671Y133253D01*
X546822Y133434D01*
X546955Y133619D01*
X547070Y133805D01*
X547167Y133994D01*
X547246Y134186D01*
X547307Y134379D01*
X547350Y134576D01*
X547375Y134774D01*
X547382Y134975D01*
X549342Y133015D01*
Y135000D01*
Y138449D01*
X548507Y138225D01*
X547718Y137769D01*
X547461Y137512D01*
X545868Y137861D01*
X544961Y138415D01*
Y139961D01*
X543530D01*
Y145281D01*
X543547Y145352D01*
X543554Y145525D01*
X543561Y145588D01*
X543572Y145641D01*
X543586Y145689D01*
X543605Y145737D01*
X543629Y145787D01*
X543663Y145844D01*
X543710Y145910D01*
X543772Y145986D01*
X543890Y146110D01*
X544014Y146228D01*
X544090Y146291D01*
X544156Y146337D01*
X544213Y146371D01*
X544263Y146395D01*
X544311Y146414D01*
X544359Y146428D01*
X544412Y146439D01*
X544475Y146446D01*
X544649Y146453D01*
X544719Y146470D01*
X564547D01*
Y144547D01*
X575453D01*
Y155453D01*
X575453D01*
X575081Y157895D01*
X575453Y159282D01*
Y160718D01*
X575081Y162105D01*
X574363Y163348D01*
X573631Y165000D01*
X574363Y166652D01*
X575081Y167895D01*
X575453Y169282D01*
Y170718D01*
X575081Y172105D01*
X574363Y173348D01*
X573631Y175000D01*
X574363Y176652D01*
X575081Y177895D01*
X575453Y179282D01*
Y180718D01*
X575081Y182105D01*
X574363Y183348D01*
X573631Y185000D01*
X574363Y186652D01*
X575081Y187895D01*
X575453Y189282D01*
Y190718D01*
X575081Y192105D01*
X574368Y193339D01*
X574363Y193349D01*
X573631Y195000D01*
X574363Y196651D01*
X574368Y196661D01*
X575081Y197895D01*
X575453Y199282D01*
Y200718D01*
X575081Y202105D01*
X574363Y203348D01*
X573631Y205000D01*
X574363Y206652D01*
X575081Y207895D01*
X575453Y209282D01*
Y210718D01*
X575081Y212105D01*
X574363Y213348D01*
X573631Y215000D01*
X574363Y216652D01*
X575081Y217895D01*
X575453Y219282D01*
Y220718D01*
X575081Y222105D01*
X574368Y223339D01*
X574363Y223349D01*
X573631Y225000D01*
X574363Y226651D01*
X574368Y226661D01*
X575081Y227895D01*
X575453Y229282D01*
Y230718D01*
X575081Y232105D01*
X574363Y233348D01*
X573348Y234363D01*
X573245Y234423D01*
X572967Y235244D01*
X572899Y237237D01*
X572941Y237351D01*
X573163Y237573D01*
X573683Y238474D01*
X573953Y239480D01*
Y239500D01*
X570000D01*
X566047D01*
Y239480D01*
X566317Y238474D01*
X566837Y237573D01*
X567059Y237351D01*
X567101Y237237D01*
X567033Y235244D01*
X566755Y234423D01*
X566652Y234363D01*
X565637Y233348D01*
X564919Y232105D01*
X564547Y230718D01*
Y229282D01*
X564919Y227895D01*
X565631Y226661D01*
X565637Y226651D01*
X566369Y225000D01*
X565637Y223349D01*
X565631Y223339D01*
X564919Y222105D01*
X564547Y220718D01*
Y219282D01*
X564919Y217895D01*
X565637Y216652D01*
X566369Y215000D01*
X565637Y213348D01*
X564919Y212105D01*
X564547Y210718D01*
Y209282D01*
X564919Y207895D01*
X565637Y206652D01*
X566369Y205000D01*
X565637Y203348D01*
X564919Y202105D01*
X564547Y200718D01*
Y199282D01*
X564919Y197895D01*
X565631Y196661D01*
X565637Y196651D01*
X566369Y195000D01*
X565637Y193349D01*
X565631Y193339D01*
X564919Y192105D01*
X564547Y190718D01*
Y189282D01*
X564919Y187895D01*
X565637Y186652D01*
X566369Y185000D01*
X565637Y183348D01*
X564919Y182105D01*
X564547Y180718D01*
Y179282D01*
X564919Y177895D01*
X565637Y176652D01*
X566369Y175000D01*
X565637Y173348D01*
X564919Y172105D01*
X564547Y170718D01*
Y169282D01*
X564919Y167895D01*
X565637Y166652D01*
X566369Y165000D01*
X565637Y163348D01*
X564919Y162105D01*
X564547Y160718D01*
Y159282D01*
X564919Y157895D01*
X564547Y155453D01*
X563153Y153530D01*
X546016D01*
X544030Y155745D01*
X544031Y155904D01*
X544363Y156652D01*
X545081Y157895D01*
X545453Y159282D01*
Y160718D01*
X545081Y162105D01*
X544369Y163339D01*
X544363Y163349D01*
X543631Y165000D01*
X544363Y166651D01*
X544369Y166661D01*
X545081Y167895D01*
X545453Y169282D01*
Y170718D01*
X545081Y172105D01*
X544369Y173339D01*
X544363Y173349D01*
X543631Y175000D01*
X544363Y176651D01*
X544369Y176661D01*
X545081Y177895D01*
X545453Y179282D01*
Y180718D01*
X545081Y182105D01*
X544369Y183339D01*
X544363Y183349D01*
X543631Y185000D01*
X544363Y186651D01*
X544369Y186661D01*
X545081Y187895D01*
X545453Y189282D01*
Y190718D01*
X545081Y192105D01*
X544369Y193339D01*
X544363Y193349D01*
X543631Y195000D01*
X544363Y196651D01*
X544369Y196661D01*
X545081Y197895D01*
X545453Y199282D01*
Y200718D01*
X545081Y202105D01*
X544369Y203339D01*
X544363Y203349D01*
X543631Y205000D01*
X544363Y206651D01*
X544369Y206661D01*
X545081Y207895D01*
X545453Y209282D01*
Y210718D01*
X545081Y212105D01*
X544363Y213348D01*
X543631Y215000D01*
X544363Y216652D01*
X545081Y217895D01*
X545453Y219282D01*
Y220718D01*
X545081Y222105D01*
X544369Y223339D01*
X544363Y223349D01*
X543631Y225000D01*
X544363Y226651D01*
X544369Y226661D01*
X545081Y227895D01*
X545453Y229282D01*
Y230718D01*
X545081Y232105D01*
X544369Y233339D01*
X544363Y233349D01*
X543631Y235000D01*
X544363Y236651D01*
X544369Y236661D01*
X545081Y237895D01*
X545453Y239282D01*
X545526Y240738D01*
X547351Y241238D01*
X548149Y241699D01*
X548801Y242351D01*
X549262Y243149D01*
X549500Y244039D01*
Y244961D01*
X549262Y245851D01*
X548801Y246649D01*
X548149Y247301D01*
X547351Y247762D01*
X546461Y248000D01*
X545539D01*
X544649Y247762D01*
X544066Y247425D01*
X500500D01*
Y247461D01*
X500261Y248351D01*
X499801Y249149D01*
X499149Y249801D01*
X498351Y250261D01*
X497553Y250475D01*
X497412Y250583D01*
X497287Y250635D01*
X497208Y250688D01*
X497188Y250692D01*
X497171Y250703D01*
X497086Y250718D01*
X496707Y250875D01*
X495950Y250975D01*
X472486D01*
Y250000D01*
X472291Y249998D01*
X471801Y249964D01*
X471669Y249944D01*
X471553Y249919D01*
X471454Y249890D01*
X471370Y249856D01*
X471302Y249818D01*
X471250Y249775D01*
Y250975D01*
X468750D01*
Y249775D01*
X468698Y249818D01*
X468630Y249856D01*
X468546Y249890D01*
X468447Y249919D01*
X468331Y249944D01*
X468199Y249964D01*
X467888Y249991D01*
X467514Y250000D01*
Y250975D01*
X421462D01*
X420000Y250000D01*
X418538Y250975D01*
X412486D01*
Y250000D01*
X412291Y249998D01*
X411801Y249964D01*
X411669Y249944D01*
X411553Y249919D01*
X411454Y249890D01*
X411370Y249856D01*
X411302Y249818D01*
X411250Y249775D01*
X410000Y251000D01*
X410991Y251972D01*
X410102Y253442D01*
X410713Y254547D01*
X410718Y254547D01*
X412105Y254919D01*
X413348Y255637D01*
X414363Y256652D01*
X414423Y256755D01*
X415244Y257033D01*
X417237Y257101D01*
X417351Y257059D01*
X417573Y256837D01*
X418474Y256317D01*
X418916Y256198D01*
X418904Y256256D01*
X418829Y256510D01*
X418733Y256758D01*
X418616Y256999D01*
X418477Y257232D01*
X418317Y257459D01*
X418136Y257679D01*
X417933Y257891D01*
X419500D01*
Y260000D01*
Y263953D01*
X419480D01*
X418474Y263683D01*
X417573Y263163D01*
X417351Y262941D01*
X417237Y262899D01*
X415244Y262967D01*
X414423Y263245D01*
X414363Y263348D01*
X413348Y264363D01*
X412105Y265081D01*
X410718Y265453D01*
X409282D01*
X407895Y265081D01*
X406652Y264363D01*
X405000Y263631D01*
X403348Y264363D01*
X402105Y265081D01*
X400718Y265453D01*
X400222D01*
X399984Y265501D01*
X399601Y265504D01*
X398953Y265541D01*
X398758Y265566D01*
X398595Y265596D01*
X398523Y265614D01*
X397068Y267068D01*
X396462Y267533D01*
X395757Y267825D01*
X395000Y267925D01*
X393500D01*
Y267961D01*
X393262Y268851D01*
X392801Y269649D01*
X392149Y270301D01*
X391351Y270761D01*
X390461Y271000D01*
X389539D01*
X388649Y270761D01*
X388066Y270425D01*
X373500D01*
Y270461D01*
X373261Y271351D01*
X372801Y272149D01*
X372200Y272750D01*
X372801Y273351D01*
X373261Y274149D01*
X373500Y275039D01*
Y275961D01*
X373588Y276075D01*
X378066D01*
X378649Y275739D01*
X379539Y275500D01*
X380461D01*
X381351Y275739D01*
X382149Y276199D01*
X382801Y276851D01*
X383261Y277649D01*
X383500Y278539D01*
Y279461D01*
X385704Y280893D01*
X397657D01*
X397851Y280699D01*
X398649Y280239D01*
X399539Y280000D01*
X400461D01*
X401351Y280239D01*
X402149Y280699D01*
X402801Y281351D01*
X403262Y282149D01*
X403469Y282922D01*
X405847D01*
X406604Y283022D01*
X407310Y283314D01*
X407915Y283779D01*
X408523Y284386D01*
X408595Y284404D01*
X408758Y284434D01*
X408953Y284459D01*
X409601Y284496D01*
X409984Y284499D01*
X410222Y284547D01*
X410718D01*
X412105Y284919D01*
X413348Y285637D01*
X415000Y286369D01*
X416652Y285637D01*
X417895Y284919D01*
X419282Y284547D01*
X420718D01*
X422105Y284919D01*
X423348Y285637D01*
X424363Y286652D01*
X425081Y287895D01*
X425453Y289282D01*
Y290718D01*
X425081Y292105D01*
X424363Y293348D01*
X423348Y294363D01*
X422105Y295081D01*
X420718Y295453D01*
X419282D01*
X417895Y295081D01*
X416652Y294363D01*
X415000Y293631D01*
X413348Y294363D01*
X412105Y295081D01*
X410718Y295453D01*
X409282D01*
X407895Y295081D01*
X406652Y294363D01*
X405000Y293631D01*
X403348Y294363D01*
X402105Y295081D01*
X400718Y295453D01*
X399282D01*
X397895Y295081D01*
X396652Y294363D01*
X395000Y293631D01*
X393348Y294363D01*
X392105Y295081D01*
X390718Y295453D01*
X389282D01*
X387895Y295081D01*
X386652Y294363D01*
X385000Y293631D01*
X383348Y294363D01*
X382105Y295081D01*
X380718Y295453D01*
X379282D01*
X377895Y295081D01*
X376652Y294363D01*
X375000Y293631D01*
X373348Y294363D01*
X372105Y295081D01*
X370718Y295453D01*
X369282D01*
X367895Y295081D01*
X366652Y294363D01*
X365000Y293631D01*
X363348Y294363D01*
X362105Y295081D01*
X360718Y295453D01*
X359282D01*
X357895Y295081D01*
X356652Y294363D01*
X356318Y294030D01*
X356133Y293912D01*
X355986Y293772D01*
X355910Y293709D01*
X355844Y293663D01*
X355787Y293629D01*
X355737Y293605D01*
X355690Y293586D01*
X355641Y293572D01*
X355588Y293561D01*
X355525Y293554D01*
X355351Y293547D01*
X355281Y293530D01*
X349961D01*
Y294961D01*
X345505D01*
X345380Y294986D01*
X345254Y294961D01*
X345141D01*
X344674Y295356D01*
X344322Y295696D01*
X344249Y295743D01*
X341496Y298496D01*
X340765Y299057D01*
X339914Y299410D01*
X339000Y299530D01*
X266000D01*
X265086Y299410D01*
X264235Y299057D01*
X263504Y298496D01*
X260841Y295833D01*
X260779Y295795D01*
X260651Y295677D01*
X260601Y295638D01*
X260556Y295608D01*
X260512Y295584D01*
X260466Y295563D01*
X260412Y295545D01*
X260348Y295529D01*
X260269Y295515D01*
X260172Y295506D01*
X259968Y295501D01*
X259754Y295453D01*
X259282D01*
X257895Y295081D01*
X256652Y294363D01*
X256318Y294030D01*
X256133Y293912D01*
X255986Y293772D01*
X255910Y293709D01*
X255844Y293663D01*
X255787Y293629D01*
X255737Y293605D01*
X255690Y293586D01*
X255641Y293572D01*
X255588Y293561D01*
X255525Y293554D01*
X255351Y293547D01*
X255281Y293530D01*
X249961D01*
Y294961D01*
X245505D01*
X245380Y294986D01*
X245254Y294961D01*
X245141D01*
X244674Y295356D01*
X244322Y295696D01*
X244249Y295743D01*
X241496Y298496D01*
X240765Y299057D01*
X239914Y299410D01*
X239000Y299530D01*
X207772D01*
X207356Y302030D01*
X207649Y302199D01*
X208301Y302851D01*
X208762Y303649D01*
X209282Y304547D01*
X210718D01*
X212105Y304919D01*
X213348Y305637D01*
X214363Y306652D01*
X214423Y306755D01*
X215244Y307033D01*
X217237Y307101D01*
X217351Y307059D01*
X217573Y306837D01*
X218474Y306317D01*
X219480Y306047D01*
X219500D01*
Y310000D01*
X220000D01*
Y310500D01*
X223953D01*
Y310520D01*
X226124Y312075D01*
X254547D01*
Y304547D01*
X265453D01*
Y304547D01*
X267895Y304919D01*
X269282Y304547D01*
X270718D01*
X272105Y304919D01*
X273348Y305637D01*
X275000Y306369D01*
X276652Y305637D01*
X277895Y304919D01*
X279282Y304547D01*
X280718D01*
X282105Y304919D01*
X283348Y305637D01*
X285000Y306369D01*
X286652Y305637D01*
X287895Y304919D01*
X289282Y304547D01*
X290718D01*
X292105Y304919D01*
X293348Y305637D01*
X295000Y306369D01*
X296652Y305637D01*
X297895Y304919D01*
X299282Y304547D01*
X300718D01*
X302105Y304919D01*
X303348Y305637D01*
X305000Y306369D01*
X306652Y305637D01*
X307895Y304919D01*
X309282Y304547D01*
X310718D01*
X312105Y304919D01*
X313348Y305637D01*
X314363Y306652D01*
X314423Y306755D01*
X315244Y307033D01*
X317237Y307101D01*
X317351Y307059D01*
X317573Y306837D01*
X318474Y306317D01*
X318916Y306198D01*
X318904Y306256D01*
X318829Y306510D01*
X318733Y306758D01*
X318616Y306999D01*
X318477Y307232D01*
X318317Y307459D01*
X318136Y307679D01*
X317933Y307891D01*
X319500D01*
Y310000D01*
X320000D01*
Y310500D01*
X323953D01*
Y310520D01*
X326124Y312075D01*
X354547D01*
Y304547D01*
X365453D01*
Y304547D01*
X367895Y304919D01*
X369282Y304547D01*
X370718D01*
X372105Y304919D01*
X373348Y305637D01*
X375000Y306369D01*
X376652Y305637D01*
X377895Y304919D01*
X379282Y304547D01*
X380718D01*
X382105Y304919D01*
X383348Y305637D01*
X385000Y306369D01*
X386652Y305637D01*
X387895Y304919D01*
X389282Y304547D01*
X390718D01*
X392105Y304919D01*
X393348Y305637D01*
X395000Y306369D01*
X396652Y305637D01*
X397895Y304919D01*
X399282Y304547D01*
X400718D01*
X402105Y304919D01*
X403348Y305637D01*
X405000Y306369D01*
X406652Y305637D01*
X407895Y304919D01*
X409282Y304547D01*
X410718D01*
X412105Y304919D01*
X413348Y305637D01*
X414363Y306652D01*
X414423Y306755D01*
X415244Y307033D01*
X416490Y307076D01*
X416076Y307490D01*
X416263Y307692D01*
X416430Y307905D01*
X416577Y308127D01*
X416705Y308360D01*
X416812Y308603D01*
X416899Y308857D01*
X416966Y309120D01*
X417013Y309393D01*
X417040Y309677D01*
X417047Y309970D01*
X419500Y307518D01*
Y310000D01*
Y313953D01*
X419480D01*
X418474Y313683D01*
X417573Y313163D01*
X417351Y312941D01*
X417237Y312899D01*
X415244Y312967D01*
X414423Y313245D01*
X414363Y313348D01*
X413348Y314363D01*
X412105Y315081D01*
X410718Y315453D01*
X409282D01*
X407895Y315081D01*
X406652Y314363D01*
X405000Y313631D01*
X403348Y314363D01*
X402105Y315081D01*
X400718Y315453D01*
X400222D01*
X399984Y315501D01*
X399601Y315504D01*
X398953Y315541D01*
X398758Y315566D01*
X398595Y315596D01*
X398523Y315614D01*
X397068Y317068D01*
X396462Y317533D01*
X395757Y317825D01*
X395000Y317925D01*
X393500D01*
Y317961D01*
X393262Y318851D01*
X392801Y319649D01*
X392149Y320301D01*
X391351Y320761D01*
X390461Y321000D01*
X389539D01*
X388649Y320761D01*
X388066Y320425D01*
X373500D01*
Y320461D01*
X373261Y321351D01*
X372801Y322149D01*
X372200Y322750D01*
X372801Y323351D01*
X373261Y324149D01*
X373500Y325039D01*
Y325961D01*
X373588Y326075D01*
X378066D01*
X378649Y325739D01*
X379539Y325500D01*
X380461D01*
X381351Y325739D01*
X382149Y326199D01*
X382801Y326851D01*
X383261Y327649D01*
X383500Y328539D01*
Y329461D01*
X385704Y330893D01*
X397657D01*
X397851Y330699D01*
X398649Y330239D01*
X399539Y330000D01*
X400461D01*
X401351Y330239D01*
X402149Y330699D01*
X402801Y331351D01*
X403262Y332149D01*
X403469Y332922D01*
X405847D01*
X406604Y333022D01*
X407310Y333314D01*
X407915Y333779D01*
X408523Y334386D01*
X408595Y334404D01*
X408758Y334434D01*
X408953Y334459D01*
X409601Y334496D01*
X409984Y334499D01*
X410222Y334547D01*
X410718D01*
X412105Y334919D01*
X413339Y335631D01*
X413349Y335637D01*
X415000Y336369D01*
X416651Y335637D01*
X416661Y335631D01*
X417895Y334919D01*
X419282Y334547D01*
X420718D01*
X422105Y334919D01*
X423348Y335637D01*
X424363Y336652D01*
X425081Y337895D01*
X425453Y339282D01*
Y340718D01*
X425081Y342105D01*
X424363Y343348D01*
X423348Y344363D01*
X422105Y345081D01*
X420718Y345453D01*
X419282D01*
X417895Y345081D01*
X416661Y344369D01*
X416651Y344363D01*
X415000Y343631D01*
X413349Y344363D01*
X413339Y344369D01*
X412105Y345081D01*
X410718Y345453D01*
X409282D01*
X407895Y345081D01*
X406661Y344369D01*
X406651Y344363D01*
X405000Y343631D01*
X403349Y344363D01*
X403339Y344369D01*
X402105Y345081D01*
X400718Y345453D01*
X399282D01*
X397895Y345081D01*
X396652Y344363D01*
X395000Y343631D01*
X393348Y344363D01*
X392105Y345081D01*
X390718Y345453D01*
X389282D01*
X387895Y345081D01*
X386661Y344369D01*
X386651Y344363D01*
X385000Y343631D01*
X383349Y344363D01*
X383339Y344369D01*
X382105Y345081D01*
X380718Y345453D01*
X379282D01*
X377895Y345081D01*
X376661Y344369D01*
X376651Y344363D01*
X375000Y343631D01*
X373349Y344363D01*
X373339Y344369D01*
X372105Y345081D01*
X370718Y345453D01*
X369282D01*
X367895Y345081D01*
X366661Y344369D01*
X366651Y344363D01*
X365000Y343631D01*
X363349Y344363D01*
X363339Y344369D01*
X362105Y345081D01*
X360718Y345453D01*
X359282D01*
X357895Y345081D01*
X356652Y344363D01*
X356318Y344030D01*
X356133Y343912D01*
X355986Y343772D01*
X355910Y343709D01*
X355844Y343663D01*
X355787Y343629D01*
X355737Y343605D01*
X355690Y343586D01*
X355641Y343572D01*
X355588Y343561D01*
X355525Y343554D01*
X355351Y343547D01*
X355281Y343530D01*
X349961D01*
Y344961D01*
X345505D01*
X345380Y344986D01*
X345254Y344961D01*
X345141D01*
X344674Y345356D01*
X344322Y345696D01*
X344249Y345743D01*
X341496Y348496D01*
X340765Y349057D01*
X339914Y349410D01*
X339000Y349530D01*
X266000D01*
X265086Y349410D01*
X264235Y349057D01*
X263504Y348496D01*
X260841Y345833D01*
X260779Y345795D01*
X260651Y345677D01*
X260601Y345638D01*
X260556Y345608D01*
X260512Y345584D01*
X260466Y345563D01*
X260412Y345545D01*
X260348Y345529D01*
X260269Y345515D01*
X260172Y345506D01*
X259968Y345501D01*
X259754Y345453D01*
X259282D01*
X257895Y345081D01*
X256652Y344363D01*
X256318Y344030D01*
X256133Y343912D01*
X255986Y343772D01*
X255910Y343709D01*
X255844Y343663D01*
X255787Y343629D01*
X255737Y343605D01*
X255690Y343586D01*
X255641Y343572D01*
X255588Y343561D01*
X255525Y343554D01*
X255351Y343547D01*
X255281Y343530D01*
X249961D01*
Y344961D01*
X245505D01*
X245380Y344986D01*
X245254Y344961D01*
X245141D01*
X244674Y345356D01*
X244322Y345696D01*
X244249Y345743D01*
X241496Y348496D01*
X240765Y349057D01*
X239914Y349410D01*
X239000Y349530D01*
X166000D01*
X165086Y349410D01*
X164235Y349057D01*
X163504Y348496D01*
X160841Y345833D01*
X160779Y345795D01*
X160651Y345677D01*
X160601Y345638D01*
X160556Y345608D01*
X160512Y345584D01*
X160466Y345563D01*
X160412Y345545D01*
X160348Y345529D01*
X160269Y345515D01*
X160171Y345506D01*
X159968Y345501D01*
X159754Y345453D01*
X159282D01*
X157895Y345081D01*
X156652Y344363D01*
X155637Y343348D01*
X154919Y342105D01*
X154547Y340718D01*
Y339282D01*
X153890Y338425D01*
X149961D01*
Y344961D01*
X140039D01*
Y338425D01*
X137434D01*
X136851Y338761D01*
X135961Y339000D01*
X135039D01*
X134149Y338761D01*
X133351Y338301D01*
X132699Y337649D01*
X132238Y336851D01*
X130718Y335453D01*
X129282D01*
X127895Y335081D01*
X126652Y334363D01*
X125000Y333630D01*
X123348Y334363D01*
X122105Y335081D01*
X120718Y335453D01*
X119282D01*
X117895Y335081D01*
X116652Y334363D01*
X115000Y333630D01*
X113348Y334363D01*
X112105Y335081D01*
X110718Y335453D01*
X109282D01*
X107895Y335081D01*
X106652Y334363D01*
X106030Y333741D01*
X104410Y334102D01*
X103530Y334643D01*
Y357451D01*
X602557D01*
X616470Y343538D01*
D02*
G37*
G36*
X399100Y333064D02*
X399062Y333131D01*
X399017Y333191D01*
X398965Y333244D01*
X398906Y333291D01*
X398840Y333330D01*
X398767Y333361D01*
X398687Y333386D01*
X398599Y333404D01*
X398505Y333415D01*
X398403Y333418D01*
X398704Y334218D01*
X398803Y334220D01*
X398991Y334234D01*
X399080Y334246D01*
X399249Y334280D01*
X399328Y334303D01*
X399404Y334329D01*
X399476Y334358D01*
X399546Y334391D01*
X399100Y333064D01*
D02*
G37*
G36*
X300524Y334358D02*
X300596Y334329D01*
X300672Y334303D01*
X300751Y334280D01*
X300920Y334246D01*
X301009Y334234D01*
X301197Y334220D01*
X301296Y334218D01*
X301597Y333418D01*
X301495Y333415D01*
X301401Y333404D01*
X301313Y333386D01*
X301233Y333361D01*
X301160Y333330D01*
X301094Y333291D01*
X301035Y333244D01*
X300983Y333191D01*
X300938Y333131D01*
X300900Y333064D01*
X300454Y334391D01*
X300524Y334358D01*
D02*
G37*
G36*
X299100Y333064D02*
X299062Y333131D01*
X299017Y333191D01*
X298965Y333244D01*
X298906Y333291D01*
X298840Y333330D01*
X298767Y333361D01*
X298687Y333386D01*
X298599Y333404D01*
X298505Y333415D01*
X298403Y333418D01*
X298704Y334218D01*
X298803Y334220D01*
X298991Y334234D01*
X299080Y334246D01*
X299249Y334280D01*
X299328Y334303D01*
X299404Y334329D01*
X299476Y334358D01*
X299546Y334391D01*
X299100Y333064D01*
D02*
G37*
G36*
X379286Y328300D02*
X379225Y328357D01*
X379160Y328408D01*
X379090Y328453D01*
X379016Y328492D01*
X378938Y328525D01*
X378856Y328552D01*
X378769Y328573D01*
X378678Y328588D01*
X378583Y328597D01*
X378484Y328600D01*
Y329400D01*
X378583Y329403D01*
X378678Y329412D01*
X378769Y329427D01*
X378856Y329448D01*
X378938Y329475D01*
X379016Y329508D01*
X379090Y329547D01*
X379160Y329592D01*
X379225Y329643D01*
X379286Y329700D01*
Y328300D01*
D02*
G37*
G36*
X279286D02*
X279225Y328357D01*
X279160Y328408D01*
X279090Y328453D01*
X279016Y328492D01*
X278938Y328525D01*
X278856Y328552D01*
X278769Y328573D01*
X278678Y328588D01*
X278583Y328597D01*
X278484Y328600D01*
Y329400D01*
X278583Y329403D01*
X278678Y329412D01*
X278769Y329427D01*
X278856Y329448D01*
X278938Y329475D01*
X279016Y329508D01*
X279090Y329547D01*
X279160Y329592D01*
X279225Y329643D01*
X279286Y329700D01*
Y328300D01*
D02*
G37*
G36*
X281003Y328907D02*
X281013Y328824D01*
X281030Y328743D01*
X281055Y328664D01*
X281087Y328585D01*
X281126Y328508D01*
X281172Y328432D01*
X281226Y328357D01*
X281287Y328283D01*
X281355Y328210D01*
X280789Y327645D01*
X280717Y327713D01*
X280643Y327774D01*
X280568Y327828D01*
X280492Y327874D01*
X280415Y327913D01*
X280336Y327945D01*
X280257Y327970D01*
X280176Y327987D01*
X280093Y327997D01*
X280010Y328000D01*
X281000Y328990D01*
X281003Y328907D01*
D02*
G37*
G36*
X369286Y324800D02*
X369225Y324857D01*
X369160Y324908D01*
X369090Y324953D01*
X369016Y324992D01*
X368938Y325025D01*
X368856Y325052D01*
X368769Y325073D01*
X368678Y325088D01*
X368583Y325097D01*
X368483Y325100D01*
Y325900D01*
X368583Y325903D01*
X368678Y325912D01*
X368769Y325927D01*
X368856Y325948D01*
X368938Y325975D01*
X369016Y326008D01*
X369090Y326047D01*
X369160Y326092D01*
X369225Y326143D01*
X369286Y326200D01*
Y324800D01*
D02*
G37*
G36*
X269286D02*
X269225Y324857D01*
X269160Y324908D01*
X269090Y324953D01*
X269016Y324992D01*
X268938Y325025D01*
X268856Y325052D01*
X268769Y325073D01*
X268678Y325088D01*
X268583Y325097D01*
X268483Y325100D01*
Y325900D01*
X268583Y325903D01*
X268678Y325912D01*
X268769Y325927D01*
X268856Y325948D01*
X268938Y325975D01*
X269016Y326008D01*
X269090Y326047D01*
X269160Y326092D01*
X269225Y326143D01*
X269286Y326200D01*
Y324800D01*
D02*
G37*
G36*
X270959Y325202D02*
X270965Y325176D01*
X270979Y325145D01*
X271000Y325108D01*
X271028Y325067D01*
X271064Y325021D01*
X271159Y324912D01*
X271283Y324783D01*
X270717Y324217D01*
X270650Y324283D01*
X270433Y324472D01*
X270392Y324500D01*
X270355Y324521D01*
X270324Y324535D01*
X270298Y324541D01*
X270277Y324539D01*
X270961Y325223D01*
X270959Y325202D01*
D02*
G37*
G36*
X168286Y323800D02*
X168225Y323857D01*
X168160Y323908D01*
X168090Y323953D01*
X168016Y323992D01*
X167938Y324025D01*
X167856Y324052D01*
X167769Y324073D01*
X167678Y324088D01*
X167583Y324097D01*
X167483Y324100D01*
Y324900D01*
X167583Y324903D01*
X167678Y324912D01*
X167769Y324927D01*
X167856Y324948D01*
X167938Y324975D01*
X168016Y325008D01*
X168090Y325047D01*
X168160Y325092D01*
X168225Y325143D01*
X168286Y325200D01*
Y323800D01*
D02*
G37*
G36*
X359286Y321800D02*
X359225Y321857D01*
X359160Y321908D01*
X359090Y321953D01*
X359016Y321992D01*
X358938Y322025D01*
X358856Y322052D01*
X358769Y322073D01*
X358678Y322088D01*
X358583Y322097D01*
X358484Y322100D01*
Y322900D01*
X358583Y322903D01*
X358678Y322912D01*
X358769Y322927D01*
X358856Y322948D01*
X358938Y322975D01*
X359016Y323008D01*
X359090Y323047D01*
X359160Y323092D01*
X359225Y323143D01*
X359286Y323200D01*
Y321800D01*
D02*
G37*
G36*
X260775Y323143D02*
X260840Y323092D01*
X260910Y323047D01*
X260984Y323008D01*
X261062Y322975D01*
X261144Y322948D01*
X261231Y322927D01*
X261322Y322912D01*
X261417Y322903D01*
X261516Y322900D01*
Y322100D01*
X261417Y322097D01*
X261322Y322088D01*
X261231Y322073D01*
X261144Y322052D01*
X261062Y322025D01*
X260984Y321992D01*
X260910Y321953D01*
X260840Y321908D01*
X260775Y321857D01*
X260714Y321800D01*
Y323200D01*
X260775Y323143D01*
D02*
G37*
G36*
X259286Y321800D02*
X259225Y321857D01*
X259160Y321908D01*
X259090Y321953D01*
X259016Y321992D01*
X258938Y322025D01*
X258856Y322052D01*
X258769Y322073D01*
X258678Y322088D01*
X258583Y322097D01*
X258484Y322100D01*
Y322900D01*
X258583Y322903D01*
X258678Y322912D01*
X258769Y322927D01*
X258856Y322948D01*
X258938Y322975D01*
X259016Y323008D01*
X259090Y323047D01*
X259160Y323092D01*
X259225Y323143D01*
X259286Y323200D01*
Y321800D01*
D02*
G37*
G36*
X123604Y323039D02*
X123476Y322887D01*
X123362Y322702D01*
X123262Y322484D01*
X123176Y322233D01*
X123104Y321949D01*
X123046Y321631D01*
X123001Y321281D01*
X122955Y320480D01*
X122953Y320029D01*
X120029Y322953D01*
X120480Y322955D01*
X121281Y323002D01*
X121631Y323046D01*
X121949Y323104D01*
X122233Y323176D01*
X122484Y323262D01*
X122702Y323362D01*
X122887Y323476D01*
X123039Y323604D01*
X123604Y323039D01*
D02*
G37*
G36*
X369286Y319300D02*
X369225Y319357D01*
X369160Y319408D01*
X369090Y319453D01*
X369016Y319492D01*
X368938Y319525D01*
X368856Y319552D01*
X368769Y319573D01*
X368678Y319588D01*
X368583Y319597D01*
X368483Y319600D01*
Y320400D01*
X368583Y320403D01*
X368678Y320412D01*
X368769Y320427D01*
X368856Y320448D01*
X368938Y320475D01*
X369016Y320508D01*
X369090Y320547D01*
X369160Y320592D01*
X369225Y320643D01*
X369286Y320700D01*
Y319300D01*
D02*
G37*
G36*
X270775Y320643D02*
X270840Y320592D01*
X270910Y320547D01*
X270984Y320508D01*
X271062Y320475D01*
X271144Y320448D01*
X271231Y320427D01*
X271322Y320412D01*
X271417Y320403D01*
X271516Y320400D01*
Y319600D01*
X271417Y319597D01*
X271322Y319588D01*
X271231Y319573D01*
X271144Y319552D01*
X271062Y319525D01*
X270984Y319492D01*
X270910Y319453D01*
X270840Y319408D01*
X270775Y319357D01*
X270714Y319300D01*
Y320700D01*
X270775Y320643D01*
D02*
G37*
G36*
X269286Y319300D02*
X269225Y319357D01*
X269160Y319408D01*
X269090Y319453D01*
X269016Y319492D01*
X268938Y319525D01*
X268856Y319552D01*
X268769Y319573D01*
X268678Y319588D01*
X268583Y319597D01*
X268483Y319600D01*
Y320400D01*
X268583Y320403D01*
X268678Y320412D01*
X268769Y320427D01*
X268856Y320448D01*
X268938Y320475D01*
X269016Y320508D01*
X269090Y320547D01*
X269160Y320592D01*
X269225Y320643D01*
X269286Y320700D01*
Y319300D01*
D02*
G37*
G36*
X389286Y316800D02*
X389225Y316857D01*
X389160Y316908D01*
X389090Y316953D01*
X389016Y316992D01*
X388938Y317025D01*
X388856Y317052D01*
X388769Y317073D01*
X388678Y317088D01*
X388583Y317097D01*
X388484Y317100D01*
Y317900D01*
X388583Y317903D01*
X388678Y317912D01*
X388769Y317927D01*
X388856Y317948D01*
X388938Y317975D01*
X389016Y318008D01*
X389090Y318047D01*
X389160Y318092D01*
X389225Y318143D01*
X389286Y318200D01*
Y316800D01*
D02*
G37*
G36*
X290775Y318143D02*
X290840Y318092D01*
X290910Y318047D01*
X290984Y318008D01*
X291062Y317975D01*
X291144Y317948D01*
X291231Y317927D01*
X291322Y317912D01*
X291417Y317903D01*
X291516Y317900D01*
Y317100D01*
X291417Y317097D01*
X291322Y317088D01*
X291231Y317073D01*
X291144Y317052D01*
X291062Y317025D01*
X290984Y316992D01*
X290910Y316953D01*
X290840Y316908D01*
X290775Y316857D01*
X290714Y316800D01*
Y318200D01*
X290775Y318143D01*
D02*
G37*
G36*
X289286Y316800D02*
X289225Y316857D01*
X289160Y316908D01*
X289090Y316953D01*
X289016Y316992D01*
X288938Y317025D01*
X288856Y317052D01*
X288769Y317073D01*
X288678Y317088D01*
X288583Y317097D01*
X288484Y317100D01*
Y317900D01*
X288583Y317903D01*
X288678Y317912D01*
X288769Y317927D01*
X288856Y317948D01*
X288938Y317975D01*
X289016Y318008D01*
X289090Y318047D01*
X289160Y318092D01*
X289225Y318143D01*
X289286Y318200D01*
Y316800D01*
D02*
G37*
G36*
X163506Y312941D02*
X163347Y312776D01*
X163095Y312480D01*
X163004Y312350D01*
X162935Y312231D01*
X162888Y312123D01*
X162864Y312028D01*
X162863Y311943D01*
X162885Y311871D01*
X162929Y311809D01*
X161809Y312929D01*
X161871Y312885D01*
X161943Y312863D01*
X162028Y312864D01*
X162123Y312888D01*
X162231Y312935D01*
X162350Y313004D01*
X162480Y313095D01*
X162622Y313210D01*
X162941Y313506D01*
X163506Y312941D01*
D02*
G37*
G36*
X397113Y313476D02*
X397298Y313362D01*
X397516Y313262D01*
X397767Y313176D01*
X398051Y313104D01*
X398369Y313046D01*
X398719Y313001D01*
X399520Y312955D01*
X399971Y312953D01*
X397047Y310030D01*
X397045Y310480D01*
X396999Y311281D01*
X396954Y311631D01*
X396896Y311949D01*
X396824Y312233D01*
X396738Y312484D01*
X396638Y312702D01*
X396524Y312887D01*
X396396Y313039D01*
X396961Y313604D01*
X397113Y313476D01*
D02*
G37*
G36*
X303604Y313039D02*
X303476Y312887D01*
X303362Y312702D01*
X303262Y312484D01*
X303176Y312233D01*
X303104Y311949D01*
X303046Y311631D01*
X303001Y311281D01*
X302955Y310480D01*
X302953Y310030D01*
X300029Y312953D01*
X300480Y312955D01*
X301281Y313001D01*
X301631Y313046D01*
X301949Y313104D01*
X302233Y313176D01*
X302484Y313262D01*
X302702Y313362D01*
X302887Y313476D01*
X303039Y313604D01*
X303604Y313039D01*
D02*
G37*
G36*
X297113Y313476D02*
X297298Y313362D01*
X297516Y313262D01*
X297767Y313176D01*
X298051Y313104D01*
X298369Y313046D01*
X298719Y313001D01*
X299520Y312955D01*
X299971Y312953D01*
X297047Y310030D01*
X297045Y310480D01*
X296999Y311281D01*
X296954Y311631D01*
X296896Y311949D01*
X296824Y312233D01*
X296738Y312484D01*
X296638Y312702D01*
X296524Y312887D01*
X296396Y313039D01*
X296961Y313604D01*
X297113Y313476D01*
D02*
G37*
G36*
X203604Y313039D02*
X203476Y312887D01*
X203362Y312702D01*
X203262Y312484D01*
X203176Y312233D01*
X203104Y311949D01*
X203046Y311631D01*
X203001Y311281D01*
X202955Y310480D01*
X202953Y310030D01*
X200029Y312953D01*
X200480Y312955D01*
X201281Y313001D01*
X201631Y313046D01*
X201949Y313104D01*
X202233Y313176D01*
X202484Y313262D01*
X202702Y313362D01*
X202887Y313476D01*
X203039Y313604D01*
X203604Y313039D01*
D02*
G37*
G36*
X193604D02*
X193476Y312887D01*
X193362Y312702D01*
X193262Y312484D01*
X193176Y312233D01*
X193104Y311949D01*
X193046Y311631D01*
X193001Y311281D01*
X192955Y310480D01*
X192953Y310030D01*
X190030Y312953D01*
X190480Y312955D01*
X191281Y313001D01*
X191631Y313046D01*
X191949Y313104D01*
X192233Y313176D01*
X192484Y313262D01*
X192702Y313362D01*
X192887Y313476D01*
X193039Y313604D01*
X193604Y313039D01*
D02*
G37*
G36*
X173604D02*
X173476Y312887D01*
X173362Y312702D01*
X173262Y312484D01*
X173176Y312233D01*
X173104Y311949D01*
X173046Y311631D01*
X173001Y311281D01*
X172955Y310480D01*
X172953Y310030D01*
X170029Y312953D01*
X170480Y312955D01*
X171281Y313001D01*
X171631Y313046D01*
X171949Y313104D01*
X172233Y313176D01*
X172484Y313262D01*
X172702Y313362D01*
X172887Y313476D01*
X173039Y313604D01*
X173604Y313039D01*
D02*
G37*
G36*
X122955Y309520D02*
X123001Y308719D01*
X123046Y308369D01*
X123104Y308051D01*
X123176Y307767D01*
X123262Y307516D01*
X123362Y307298D01*
X123476Y307113D01*
X123604Y306961D01*
X123039Y306396D01*
X122887Y306524D01*
X122702Y306638D01*
X122484Y306738D01*
X122233Y306824D01*
X121949Y306896D01*
X121631Y306954D01*
X121281Y306998D01*
X120480Y307045D01*
X120029Y307047D01*
X122953Y309970D01*
X122955Y309520D01*
D02*
G37*
G36*
X204786Y304300D02*
X204725Y304357D01*
X204660Y304408D01*
X204590Y304453D01*
X204516Y304492D01*
X204438Y304525D01*
X204356Y304552D01*
X204269Y304573D01*
X204178Y304588D01*
X204083Y304597D01*
X203983Y304600D01*
Y305400D01*
X204083Y305403D01*
X204178Y305412D01*
X204269Y305427D01*
X204356Y305448D01*
X204438Y305475D01*
X204516Y305508D01*
X204590Y305547D01*
X204660Y305592D01*
X204725Y305643D01*
X204786Y305700D01*
Y304300D01*
D02*
G37*
G36*
X199286Y301800D02*
X199225Y301857D01*
X199160Y301908D01*
X199090Y301953D01*
X199016Y301992D01*
X198938Y302025D01*
X198856Y302052D01*
X198769Y302073D01*
X198678Y302088D01*
X198583Y302097D01*
X198484Y302100D01*
Y302900D01*
X198583Y302903D01*
X198678Y302912D01*
X198769Y302927D01*
X198856Y302948D01*
X198938Y302975D01*
X199016Y303008D01*
X199090Y303047D01*
X199160Y303092D01*
X199225Y303143D01*
X199286Y303200D01*
Y301800D01*
D02*
G37*
G36*
X122955Y299520D02*
X123001Y298719D01*
X123046Y298369D01*
X123104Y298051D01*
X123176Y297767D01*
X123262Y297516D01*
X123362Y297298D01*
X123476Y297113D01*
X123604Y296961D01*
X123039Y296396D01*
X122887Y296524D01*
X122702Y296638D01*
X122484Y296738D01*
X122233Y296824D01*
X121949Y296896D01*
X121631Y296954D01*
X121281Y296999D01*
X120480Y297045D01*
X120029Y297047D01*
X122953Y299971D01*
X122955Y299520D01*
D02*
G37*
G36*
X263924Y292510D02*
X263737Y292308D01*
X263570Y292095D01*
X263422Y291873D01*
X263295Y291640D01*
X263188Y291397D01*
X263101Y291143D01*
X263034Y290880D01*
X262987Y290607D01*
X262960Y290323D01*
X262953Y290030D01*
X260030Y292953D01*
X260323Y292960D01*
X260607Y292987D01*
X260880Y293034D01*
X261143Y293101D01*
X261397Y293188D01*
X261640Y293295D01*
X261873Y293423D01*
X262095Y293570D01*
X262308Y293737D01*
X262510Y293924D01*
X263924Y292510D01*
D02*
G37*
G36*
X163924D02*
X163737Y292308D01*
X163570Y292095D01*
X163423Y291873D01*
X163295Y291640D01*
X163188Y291397D01*
X163101Y291143D01*
X163034Y290880D01*
X162987Y290607D01*
X162960Y290323D01*
X162953Y290030D01*
X160029Y292953D01*
X160323Y292960D01*
X160607Y292987D01*
X160880Y293034D01*
X161144Y293101D01*
X161397Y293188D01*
X161640Y293295D01*
X161872Y293423D01*
X162095Y293570D01*
X162308Y293737D01*
X162510Y293924D01*
X163924Y292510D01*
D02*
G37*
G36*
X342963Y293466D02*
X343699Y292841D01*
X344025Y292614D01*
X344322Y292443D01*
X344591Y292328D01*
X344831Y292270D01*
X345042Y292269D01*
X345225Y292325D01*
X345380Y292437D01*
X342563Y289620D01*
X342675Y289775D01*
X342731Y289958D01*
X342729Y290169D01*
X342672Y290409D01*
X342557Y290678D01*
X342387Y290975D01*
X342159Y291301D01*
X341875Y291655D01*
X341137Y292449D01*
X342551Y293863D01*
X342963Y293466D01*
D02*
G37*
G36*
X242963D02*
X243699Y292841D01*
X244025Y292614D01*
X244322Y292443D01*
X244591Y292328D01*
X244831Y292270D01*
X245042Y292269D01*
X245225Y292325D01*
X245380Y292437D01*
X242563Y289620D01*
X242675Y289775D01*
X242731Y289958D01*
X242729Y290169D01*
X242672Y290409D01*
X242557Y290678D01*
X242387Y290975D01*
X242159Y291301D01*
X241875Y291655D01*
X241137Y292449D01*
X242551Y293863D01*
X242963Y293466D01*
D02*
G37*
G36*
X154199Y291182D02*
X154267Y291144D01*
X154351Y291110D01*
X154451Y291081D01*
X154566Y291056D01*
X154698Y291036D01*
X155009Y291009D01*
X155383Y291000D01*
Y289000D01*
X155188Y288998D01*
X154698Y288964D01*
X154566Y288944D01*
X154451Y288919D01*
X154351Y288890D01*
X154267Y288856D01*
X154199Y288818D01*
X154147Y288775D01*
X152897Y290000D01*
X154147Y291225D01*
X154199Y291182D01*
D02*
G37*
G36*
X152897Y290000D02*
X151647Y288775D01*
X151595Y288818D01*
X151528Y288856D01*
X151444Y288890D01*
X151344Y288919D01*
X151228Y288944D01*
X151096Y288964D01*
X150606Y288998D01*
X150411Y289000D01*
Y291000D01*
X150786Y291009D01*
X151096Y291036D01*
X151228Y291056D01*
X151344Y291081D01*
X151444Y291110D01*
X151528Y291144D01*
X151595Y291182D01*
X151647Y291225D01*
X152897Y290000D01*
D02*
G37*
G36*
X347457Y291810D02*
X347517Y291640D01*
X347618Y291490D01*
X347759Y291360D01*
X347940Y291250D01*
X348161Y291160D01*
X348423Y291090D01*
X348724Y291040D01*
X349066Y291010D01*
X349449Y291000D01*
Y289000D01*
X349066Y288990D01*
X348724Y288960D01*
X348423Y288910D01*
X348161Y288840D01*
X347940Y288750D01*
X347759Y288640D01*
X347618Y288510D01*
X347517Y288360D01*
X347457Y288190D01*
X347437Y288000D01*
Y292000D01*
X347457Y291810D01*
D02*
G37*
G36*
X247457D02*
X247517Y291640D01*
X247618Y291490D01*
X247759Y291360D01*
X247940Y291250D01*
X248161Y291160D01*
X248423Y291090D01*
X248724Y291040D01*
X249066Y291010D01*
X249449Y291000D01*
Y289000D01*
X249066Y288990D01*
X248724Y288960D01*
X248423Y288910D01*
X248161Y288840D01*
X247940Y288750D01*
X247759Y288640D01*
X247618Y288510D01*
X247517Y288360D01*
X247457Y288190D01*
X247437Y288000D01*
Y292000D01*
X247457Y291810D01*
D02*
G37*
G36*
X147457D02*
X147517Y291640D01*
X147618Y291490D01*
X147758Y291360D01*
X147940Y291250D01*
X148161Y291160D01*
X148423Y291090D01*
X148724Y291040D01*
X149066Y291010D01*
X149449Y291000D01*
Y289000D01*
X149066Y288990D01*
X148724Y288960D01*
X148423Y288910D01*
X148161Y288840D01*
X147940Y288750D01*
X147758Y288640D01*
X147618Y288510D01*
X147517Y288360D01*
X147457Y288190D01*
X147437Y288000D01*
Y292000D01*
X147457Y291810D01*
D02*
G37*
G36*
X357891Y287933D02*
X357679Y288136D01*
X357459Y288317D01*
X357232Y288477D01*
X356999Y288616D01*
X356758Y288733D01*
X356510Y288829D01*
X356256Y288904D01*
X355994Y288957D01*
X355726Y288989D01*
X355450Y289000D01*
Y291000D01*
X355726Y291011D01*
X355994Y291043D01*
X356256Y291096D01*
X356510Y291171D01*
X356758Y291267D01*
X356999Y291384D01*
X357232Y291523D01*
X357459Y291683D01*
X357679Y291864D01*
X357891Y292067D01*
Y287933D01*
D02*
G37*
G36*
X257891D02*
X257679Y288136D01*
X257459Y288317D01*
X257232Y288477D01*
X256999Y288616D01*
X256758Y288733D01*
X256510Y288829D01*
X256256Y288904D01*
X255994Y288957D01*
X255726Y288989D01*
X255450Y289000D01*
Y291000D01*
X255726Y291011D01*
X255994Y291043D01*
X256256Y291096D01*
X256510Y291171D01*
X256758Y291267D01*
X256999Y291384D01*
X257232Y291523D01*
X257459Y291683D01*
X257679Y291864D01*
X257891Y292067D01*
Y287933D01*
D02*
G37*
G36*
X157891D02*
X157679Y288136D01*
X157459Y288317D01*
X157232Y288477D01*
X156999Y288616D01*
X156758Y288733D01*
X156510Y288829D01*
X156256Y288904D01*
X155994Y288957D01*
X155726Y288989D01*
X155450Y289000D01*
Y291000D01*
X155726Y291011D01*
X155994Y291043D01*
X156256Y291096D01*
X156510Y291171D01*
X156758Y291267D01*
X156999Y291384D01*
X157232Y291523D01*
X157459Y291683D01*
X157679Y291864D01*
X157891Y292067D01*
Y287933D01*
D02*
G37*
G36*
X409971Y287047D02*
X409520Y287045D01*
X408719Y286999D01*
X408369Y286954D01*
X408051Y286896D01*
X407767Y286824D01*
X407516Y286738D01*
X407298Y286638D01*
X407113Y286524D01*
X406961Y286396D01*
X406396Y286961D01*
X406524Y287113D01*
X406638Y287298D01*
X406738Y287516D01*
X406824Y287767D01*
X406896Y288051D01*
X406954Y288369D01*
X406998Y288719D01*
X407045Y289520D01*
X407047Y289970D01*
X409971Y287047D01*
D02*
G37*
G36*
X312955Y289520D02*
X313001Y288719D01*
X313046Y288369D01*
X313104Y288051D01*
X313176Y287767D01*
X313262Y287516D01*
X313362Y287298D01*
X313476Y287113D01*
X313604Y286961D01*
X313039Y286396D01*
X312887Y286524D01*
X312702Y286638D01*
X312484Y286738D01*
X312233Y286824D01*
X311949Y286896D01*
X311631Y286954D01*
X311281Y286999D01*
X310480Y287045D01*
X310030Y287047D01*
X312953Y289970D01*
X312955Y289520D01*
D02*
G37*
G36*
X309970Y287047D02*
X309520Y287045D01*
X308719Y286999D01*
X308369Y286954D01*
X308051Y286896D01*
X307767Y286824D01*
X307516Y286738D01*
X307298Y286638D01*
X307113Y286524D01*
X306961Y286396D01*
X306396Y286961D01*
X306524Y287113D01*
X306638Y287298D01*
X306738Y287516D01*
X306824Y287767D01*
X306896Y288051D01*
X306954Y288369D01*
X306998Y288719D01*
X307045Y289520D01*
X307047Y289970D01*
X309970Y287047D01*
D02*
G37*
G36*
X212955Y289520D02*
X213001Y288719D01*
X213046Y288369D01*
X213104Y288051D01*
X213176Y287767D01*
X213262Y287516D01*
X213362Y287298D01*
X213476Y287113D01*
X213604Y286961D01*
X213039Y286396D01*
X212887Y286524D01*
X212702Y286638D01*
X212484Y286738D01*
X212233Y286824D01*
X211949Y286896D01*
X211631Y286954D01*
X211281Y286999D01*
X210480Y287045D01*
X210030Y287047D01*
X212953Y289970D01*
X212955Y289520D01*
D02*
G37*
G36*
X202955D02*
X203001Y288719D01*
X203046Y288369D01*
X203104Y288051D01*
X203176Y287767D01*
X203262Y287516D01*
X203362Y287298D01*
X203476Y287113D01*
X203604Y286961D01*
X203039Y286396D01*
X202887Y286524D01*
X202702Y286638D01*
X202484Y286738D01*
X202233Y286824D01*
X201949Y286896D01*
X201631Y286954D01*
X201281Y286999D01*
X200480Y287045D01*
X200029Y287047D01*
X202953Y289970D01*
X202955Y289520D01*
D02*
G37*
G36*
X182955D02*
X183001Y288719D01*
X183046Y288369D01*
X183104Y288051D01*
X183176Y287767D01*
X183262Y287516D01*
X183362Y287298D01*
X183476Y287113D01*
X183604Y286961D01*
X183039Y286396D01*
X182887Y286524D01*
X182702Y286638D01*
X182484Y286738D01*
X182233Y286824D01*
X181949Y286896D01*
X181631Y286954D01*
X181281Y286999D01*
X180480Y287045D01*
X180029Y287047D01*
X182953Y289970D01*
X182955Y289520D01*
D02*
G37*
G36*
X172955D02*
X173001Y288719D01*
X173046Y288369D01*
X173104Y288051D01*
X173176Y287767D01*
X173262Y287516D01*
X173362Y287298D01*
X173476Y287113D01*
X173604Y286961D01*
X173039Y286396D01*
X172887Y286524D01*
X172702Y286638D01*
X172484Y286738D01*
X172233Y286824D01*
X171949Y286896D01*
X171631Y286954D01*
X171281Y286999D01*
X170480Y287045D01*
X170029Y287047D01*
X172953Y289970D01*
X172955Y289520D01*
D02*
G37*
G36*
X169971Y287047D02*
X169520Y287045D01*
X168719Y286999D01*
X168369Y286954D01*
X168051Y286896D01*
X167767Y286824D01*
X167516Y286738D01*
X167298Y286638D01*
X167113Y286524D01*
X166961Y286396D01*
X166396Y286961D01*
X166524Y287113D01*
X166638Y287298D01*
X166738Y287516D01*
X166824Y287767D01*
X166896Y288051D01*
X166954Y288369D01*
X166999Y288719D01*
X167045Y289520D01*
X167047Y289970D01*
X169971Y287047D01*
D02*
G37*
G36*
X122955Y289520D02*
X123001Y288719D01*
X123046Y288369D01*
X123104Y288051D01*
X123176Y287767D01*
X123262Y287516D01*
X123362Y287298D01*
X123476Y287113D01*
X123604Y286961D01*
X123039Y286396D01*
X122887Y286524D01*
X122702Y286638D01*
X122484Y286738D01*
X122233Y286824D01*
X121949Y286896D01*
X121631Y286954D01*
X121281Y286999D01*
X120480Y287045D01*
X120029Y287047D01*
X122953Y289970D01*
X122955Y289520D01*
D02*
G37*
G36*
X399100Y283064D02*
X399062Y283131D01*
X399017Y283191D01*
X398965Y283244D01*
X398906Y283291D01*
X398840Y283330D01*
X398767Y283361D01*
X398687Y283386D01*
X398599Y283404D01*
X398505Y283415D01*
X398403Y283418D01*
X398704Y284218D01*
X398803Y284220D01*
X398991Y284234D01*
X399080Y284246D01*
X399249Y284280D01*
X399328Y284303D01*
X399404Y284329D01*
X399476Y284358D01*
X399546Y284391D01*
X399100Y283064D01*
D02*
G37*
G36*
X300524Y284358D02*
X300596Y284329D01*
X300672Y284303D01*
X300751Y284280D01*
X300920Y284246D01*
X301009Y284234D01*
X301197Y284220D01*
X301296Y284218D01*
X301597Y283418D01*
X301495Y283415D01*
X301401Y283404D01*
X301313Y283386D01*
X301233Y283361D01*
X301160Y283330D01*
X301094Y283291D01*
X301035Y283244D01*
X300983Y283191D01*
X300938Y283131D01*
X300900Y283064D01*
X300454Y284391D01*
X300524Y284358D01*
D02*
G37*
G36*
X299100Y283064D02*
X299062Y283131D01*
X299017Y283191D01*
X298965Y283244D01*
X298906Y283291D01*
X298840Y283330D01*
X298767Y283361D01*
X298687Y283386D01*
X298599Y283404D01*
X298505Y283415D01*
X298403Y283418D01*
X298704Y284218D01*
X298803Y284220D01*
X298991Y284234D01*
X299080Y284246D01*
X299249Y284280D01*
X299328Y284303D01*
X299404Y284329D01*
X299476Y284358D01*
X299546Y284391D01*
X299100Y283064D01*
D02*
G37*
G36*
X379286Y278300D02*
X379225Y278357D01*
X379160Y278408D01*
X379090Y278453D01*
X379016Y278492D01*
X378938Y278525D01*
X378856Y278552D01*
X378769Y278573D01*
X378678Y278588D01*
X378583Y278597D01*
X378484Y278600D01*
Y279400D01*
X378583Y279403D01*
X378678Y279412D01*
X378769Y279427D01*
X378856Y279448D01*
X378938Y279475D01*
X379016Y279508D01*
X379090Y279547D01*
X379160Y279592D01*
X379225Y279643D01*
X379286Y279700D01*
Y278300D01*
D02*
G37*
G36*
X279286D02*
X279225Y278357D01*
X279160Y278408D01*
X279090Y278453D01*
X279016Y278492D01*
X278938Y278525D01*
X278856Y278552D01*
X278769Y278573D01*
X278678Y278588D01*
X278583Y278597D01*
X278484Y278600D01*
Y279400D01*
X278583Y279403D01*
X278678Y279412D01*
X278769Y279427D01*
X278856Y279448D01*
X278938Y279475D01*
X279016Y279508D01*
X279090Y279547D01*
X279160Y279592D01*
X279225Y279643D01*
X279286Y279700D01*
Y278300D01*
D02*
G37*
G36*
X281003Y278907D02*
X281013Y278824D01*
X281030Y278743D01*
X281055Y278664D01*
X281087Y278585D01*
X281126Y278508D01*
X281172Y278432D01*
X281226Y278357D01*
X281287Y278283D01*
X281355Y278210D01*
X280789Y277645D01*
X280717Y277713D01*
X280643Y277774D01*
X280568Y277828D01*
X280492Y277874D01*
X280415Y277913D01*
X280336Y277945D01*
X280257Y277970D01*
X280176Y277987D01*
X280093Y277997D01*
X280010Y278000D01*
X281000Y278990D01*
X281003Y278907D01*
D02*
G37*
G36*
X122955Y279520D02*
X123001Y278719D01*
X123046Y278369D01*
X123104Y278051D01*
X123176Y277767D01*
X123262Y277516D01*
X123362Y277298D01*
X123476Y277113D01*
X123604Y276961D01*
X123039Y276396D01*
X122887Y276524D01*
X122702Y276638D01*
X122484Y276738D01*
X122233Y276824D01*
X121949Y276896D01*
X121631Y276954D01*
X121281Y276998D01*
X120480Y277045D01*
X120029Y277047D01*
X122953Y279971D01*
X122955Y279520D01*
D02*
G37*
G36*
X369286Y274800D02*
X369225Y274857D01*
X369160Y274908D01*
X369090Y274953D01*
X369016Y274992D01*
X368938Y275025D01*
X368856Y275052D01*
X368769Y275073D01*
X368678Y275088D01*
X368583Y275097D01*
X368483Y275100D01*
Y275900D01*
X368583Y275903D01*
X368678Y275912D01*
X368769Y275927D01*
X368856Y275948D01*
X368938Y275975D01*
X369016Y276008D01*
X369090Y276047D01*
X369160Y276092D01*
X369225Y276143D01*
X369286Y276200D01*
Y274800D01*
D02*
G37*
G36*
X269286D02*
X269225Y274857D01*
X269160Y274908D01*
X269090Y274953D01*
X269016Y274992D01*
X268938Y275025D01*
X268856Y275052D01*
X268769Y275073D01*
X268678Y275088D01*
X268583Y275097D01*
X268483Y275100D01*
Y275900D01*
X268583Y275903D01*
X268678Y275912D01*
X268769Y275927D01*
X268856Y275948D01*
X268938Y275975D01*
X269016Y276008D01*
X269090Y276047D01*
X269160Y276092D01*
X269225Y276143D01*
X269286Y276200D01*
Y274800D01*
D02*
G37*
G36*
X172688Y274550D02*
X172649Y274559D01*
X172593Y274568D01*
X172430Y274582D01*
X171901Y274598D01*
X171534Y274600D01*
X171405Y275400D01*
X171508Y275403D01*
X171602Y275414D01*
X171687Y275431D01*
X171763Y275456D01*
X171830Y275487D01*
X171888Y275526D01*
X171937Y275571D01*
X171978Y275623D01*
X172009Y275683D01*
X172031Y275749D01*
X172688Y274550D01*
D02*
G37*
G36*
X270959Y275202D02*
X270965Y275176D01*
X270979Y275145D01*
X271000Y275108D01*
X271028Y275067D01*
X271064Y275021D01*
X271159Y274912D01*
X271283Y274783D01*
X270717Y274217D01*
X270650Y274283D01*
X270433Y274472D01*
X270392Y274500D01*
X270355Y274521D01*
X270324Y274535D01*
X270298Y274541D01*
X270277Y274539D01*
X270961Y275223D01*
X270959Y275202D01*
D02*
G37*
G36*
X359286Y271800D02*
X359225Y271857D01*
X359160Y271908D01*
X359090Y271953D01*
X359016Y271992D01*
X358938Y272025D01*
X358856Y272052D01*
X358769Y272073D01*
X358678Y272088D01*
X358583Y272097D01*
X358484Y272100D01*
Y272900D01*
X358583Y272903D01*
X358678Y272912D01*
X358769Y272927D01*
X358856Y272948D01*
X358938Y272975D01*
X359016Y273008D01*
X359090Y273047D01*
X359160Y273092D01*
X359225Y273143D01*
X359286Y273200D01*
Y271800D01*
D02*
G37*
G36*
X260775Y273143D02*
X260840Y273092D01*
X260910Y273047D01*
X260984Y273008D01*
X261062Y272975D01*
X261144Y272948D01*
X261231Y272927D01*
X261322Y272912D01*
X261417Y272903D01*
X261516Y272900D01*
Y272100D01*
X261417Y272097D01*
X261322Y272088D01*
X261231Y272073D01*
X261144Y272052D01*
X261062Y272025D01*
X260984Y271992D01*
X260910Y271953D01*
X260840Y271908D01*
X260775Y271857D01*
X260714Y271800D01*
Y273200D01*
X260775Y273143D01*
D02*
G37*
G36*
X259286Y271800D02*
X259225Y271857D01*
X259160Y271908D01*
X259090Y271953D01*
X259016Y271992D01*
X258938Y272025D01*
X258856Y272052D01*
X258769Y272073D01*
X258678Y272088D01*
X258583Y272097D01*
X258484Y272100D01*
Y272900D01*
X258583Y272903D01*
X258678Y272912D01*
X258769Y272927D01*
X258856Y272948D01*
X258938Y272975D01*
X259016Y273008D01*
X259090Y273047D01*
X259160Y273092D01*
X259225Y273143D01*
X259286Y273200D01*
Y271800D01*
D02*
G37*
G36*
X160351Y272941D02*
X160407Y272932D01*
X160570Y272918D01*
X161099Y272902D01*
X161466Y272900D01*
X161595Y272100D01*
X161492Y272096D01*
X161398Y272086D01*
X161313Y272069D01*
X161237Y272044D01*
X161170Y272013D01*
X161112Y271974D01*
X161063Y271929D01*
X161022Y271877D01*
X160991Y271817D01*
X160968Y271751D01*
X160312Y272950D01*
X160351Y272941D01*
D02*
G37*
G36*
X369286Y269300D02*
X369225Y269357D01*
X369160Y269408D01*
X369090Y269453D01*
X369016Y269492D01*
X368938Y269525D01*
X368856Y269552D01*
X368769Y269573D01*
X368678Y269588D01*
X368583Y269597D01*
X368483Y269600D01*
Y270400D01*
X368583Y270403D01*
X368678Y270412D01*
X368769Y270427D01*
X368856Y270448D01*
X368938Y270475D01*
X369016Y270508D01*
X369090Y270547D01*
X369160Y270592D01*
X369225Y270643D01*
X369286Y270700D01*
Y269300D01*
D02*
G37*
G36*
X270775Y270643D02*
X270840Y270592D01*
X270910Y270547D01*
X270984Y270508D01*
X271062Y270475D01*
X271144Y270448D01*
X271231Y270427D01*
X271322Y270412D01*
X271417Y270403D01*
X271516Y270400D01*
Y269600D01*
X271417Y269597D01*
X271322Y269588D01*
X271231Y269573D01*
X271144Y269552D01*
X271062Y269525D01*
X270984Y269492D01*
X270910Y269453D01*
X270840Y269408D01*
X270775Y269357D01*
X270714Y269300D01*
Y270700D01*
X270775Y270643D01*
D02*
G37*
G36*
X269286Y269300D02*
X269225Y269357D01*
X269160Y269408D01*
X269090Y269453D01*
X269016Y269492D01*
X268938Y269525D01*
X268856Y269552D01*
X268769Y269573D01*
X268678Y269588D01*
X268583Y269597D01*
X268483Y269600D01*
Y270400D01*
X268583Y270403D01*
X268678Y270412D01*
X268769Y270427D01*
X268856Y270448D01*
X268938Y270475D01*
X269016Y270508D01*
X269090Y270547D01*
X269160Y270592D01*
X269225Y270643D01*
X269286Y270700D01*
Y269300D01*
D02*
G37*
G36*
X170775Y270643D02*
X170840Y270592D01*
X170910Y270547D01*
X170984Y270508D01*
X171062Y270475D01*
X171144Y270448D01*
X171231Y270427D01*
X171322Y270412D01*
X171417Y270403D01*
X171517Y270400D01*
Y269600D01*
X171417Y269597D01*
X171322Y269588D01*
X171231Y269573D01*
X171144Y269552D01*
X171062Y269525D01*
X170984Y269492D01*
X170910Y269453D01*
X170840Y269408D01*
X170775Y269357D01*
X170714Y269300D01*
Y270700D01*
X170775Y270643D01*
D02*
G37*
G36*
X389286Y266800D02*
X389225Y266857D01*
X389160Y266908D01*
X389090Y266953D01*
X389016Y266992D01*
X388938Y267025D01*
X388856Y267052D01*
X388769Y267073D01*
X388678Y267088D01*
X388583Y267097D01*
X388484Y267100D01*
Y267900D01*
X388583Y267903D01*
X388678Y267912D01*
X388769Y267927D01*
X388856Y267948D01*
X388938Y267975D01*
X389016Y268008D01*
X389090Y268047D01*
X389160Y268092D01*
X389225Y268143D01*
X389286Y268200D01*
Y266800D01*
D02*
G37*
G36*
X290775Y268143D02*
X290840Y268092D01*
X290910Y268047D01*
X290984Y268008D01*
X291062Y267975D01*
X291144Y267948D01*
X291231Y267927D01*
X291322Y267912D01*
X291417Y267903D01*
X291516Y267900D01*
Y267100D01*
X291417Y267097D01*
X291322Y267088D01*
X291231Y267073D01*
X291144Y267052D01*
X291062Y267025D01*
X290984Y266992D01*
X290910Y266953D01*
X290840Y266908D01*
X290775Y266857D01*
X290714Y266800D01*
Y268200D01*
X290775Y268143D01*
D02*
G37*
G36*
X289286Y266800D02*
X289225Y266857D01*
X289160Y266908D01*
X289090Y266953D01*
X289016Y266992D01*
X288938Y267025D01*
X288856Y267052D01*
X288769Y267073D01*
X288678Y267088D01*
X288583Y267097D01*
X288484Y267100D01*
Y267900D01*
X288583Y267903D01*
X288678Y267912D01*
X288769Y267927D01*
X288856Y267948D01*
X288938Y267975D01*
X289016Y268008D01*
X289090Y268047D01*
X289160Y268092D01*
X289225Y268143D01*
X289286Y268200D01*
Y266800D01*
D02*
G37*
G36*
X190775Y268143D02*
X190840Y268092D01*
X190910Y268047D01*
X190984Y268008D01*
X191062Y267975D01*
X191144Y267948D01*
X191231Y267927D01*
X191322Y267912D01*
X191417Y267903D01*
X191516Y267900D01*
Y267100D01*
X191417Y267097D01*
X191322Y267088D01*
X191231Y267073D01*
X191144Y267052D01*
X191062Y267025D01*
X190984Y266992D01*
X190910Y266953D01*
X190840Y266908D01*
X190775Y266857D01*
X190714Y266800D01*
Y268200D01*
X190775Y268143D01*
D02*
G37*
G36*
X122955Y269520D02*
X123001Y268719D01*
X123046Y268369D01*
X123104Y268051D01*
X123176Y267767D01*
X123262Y267516D01*
X123362Y267298D01*
X123476Y267113D01*
X123604Y266961D01*
X123039Y266396D01*
X122887Y266524D01*
X122702Y266638D01*
X122484Y266738D01*
X122233Y266824D01*
X121949Y266896D01*
X121631Y266954D01*
X121281Y266999D01*
X120480Y267045D01*
X120029Y267047D01*
X122953Y269970D01*
X122955Y269520D01*
D02*
G37*
G36*
X197333Y264300D02*
X197272Y264357D01*
X197207Y264408D01*
X197137Y264453D01*
X197064Y264492D01*
X196985Y264525D01*
X196903Y264552D01*
X196816Y264573D01*
X196725Y264588D01*
X196630Y264597D01*
X196531Y264600D01*
Y265400D01*
X196630Y265403D01*
X196725Y265412D01*
X196816Y265427D01*
X196903Y265448D01*
X196985Y265475D01*
X197064Y265508D01*
X197137Y265547D01*
X197207Y265592D01*
X197272Y265643D01*
X197333Y265700D01*
Y264300D01*
D02*
G37*
G36*
X397113Y263476D02*
X397298Y263362D01*
X397516Y263262D01*
X397767Y263176D01*
X398051Y263104D01*
X398369Y263046D01*
X398719Y263001D01*
X399520Y262955D01*
X399971Y262953D01*
X397047Y260030D01*
X397045Y260480D01*
X396999Y261281D01*
X396954Y261631D01*
X396896Y261949D01*
X396824Y262233D01*
X396738Y262484D01*
X396638Y262702D01*
X396524Y262887D01*
X396396Y263039D01*
X396961Y263604D01*
X397113Y263476D01*
D02*
G37*
G36*
X303604Y263039D02*
X303476Y262887D01*
X303362Y262702D01*
X303262Y262484D01*
X303176Y262233D01*
X303104Y261949D01*
X303046Y261631D01*
X303001Y261281D01*
X302955Y260480D01*
X302953Y260030D01*
X300029Y262953D01*
X300480Y262955D01*
X301281Y263001D01*
X301631Y263046D01*
X301949Y263104D01*
X302233Y263176D01*
X302484Y263262D01*
X302702Y263362D01*
X302887Y263476D01*
X303039Y263604D01*
X303604Y263039D01*
D02*
G37*
G36*
X297113Y263476D02*
X297298Y263362D01*
X297516Y263262D01*
X297767Y263176D01*
X298051Y263104D01*
X298369Y263046D01*
X298719Y263001D01*
X299520Y262955D01*
X299971Y262953D01*
X297047Y260030D01*
X297045Y260480D01*
X296999Y261281D01*
X296954Y261631D01*
X296896Y261949D01*
X296824Y262233D01*
X296738Y262484D01*
X296638Y262702D01*
X296524Y262887D01*
X296396Y263039D01*
X296961Y263604D01*
X297113Y263476D01*
D02*
G37*
G36*
X203604Y263039D02*
X203476Y262887D01*
X203362Y262702D01*
X203262Y262484D01*
X203176Y262233D01*
X203104Y261949D01*
X203046Y261631D01*
X203001Y261281D01*
X202955Y260480D01*
X202953Y260030D01*
X200029Y262953D01*
X200480Y262955D01*
X201281Y263001D01*
X201631Y263046D01*
X201949Y263104D01*
X202233Y263176D01*
X202484Y263262D01*
X202702Y263362D01*
X202887Y263476D01*
X203039Y263604D01*
X203604Y263039D01*
D02*
G37*
G36*
X222321Y261864D02*
X222541Y261683D01*
X222768Y261523D01*
X223001Y261384D01*
X223242Y261267D01*
X223489Y261171D01*
X223744Y261096D01*
X224006Y261043D01*
X224274Y261011D01*
X224550Y261000D01*
Y259000D01*
X224274Y258989D01*
X224006Y258957D01*
X223744Y258904D01*
X223489Y258829D01*
X223242Y258733D01*
X223001Y258616D01*
X222768Y258477D01*
X222541Y258317D01*
X222321Y258136D01*
X222109Y257933D01*
Y262067D01*
X222321Y261864D01*
D02*
G37*
G36*
X132429Y261750D02*
X133028Y261217D01*
X133307Y261000D01*
X133573Y260817D01*
X133825Y260667D01*
X134063Y260550D01*
X134288Y260467D01*
X134500Y260417D01*
X134697Y260400D01*
Y259600D01*
X134500Y259583D01*
X134288Y259533D01*
X134063Y259450D01*
X133825Y259333D01*
X133573Y259183D01*
X133307Y259000D01*
X133028Y258783D01*
X132429Y258250D01*
X132109Y257933D01*
Y262067D01*
X132429Y261750D01*
D02*
G37*
G36*
X382955Y259520D02*
X383001Y258719D01*
X383046Y258369D01*
X383104Y258051D01*
X383176Y257767D01*
X383262Y257516D01*
X383362Y257298D01*
X383476Y257113D01*
X383604Y256961D01*
X383039Y256396D01*
X382887Y256524D01*
X382702Y256638D01*
X382484Y256738D01*
X382233Y256824D01*
X381949Y256896D01*
X381631Y256954D01*
X381281Y256998D01*
X380480Y257045D01*
X380030Y257047D01*
X382953Y259970D01*
X382955Y259520D01*
D02*
G37*
G36*
X282955D02*
X283001Y258719D01*
X283046Y258369D01*
X283104Y258051D01*
X283176Y257767D01*
X283262Y257516D01*
X283362Y257298D01*
X283476Y257113D01*
X283604Y256961D01*
X283039Y256396D01*
X282887Y256524D01*
X282702Y256638D01*
X282484Y256738D01*
X282233Y256824D01*
X281949Y256896D01*
X281631Y256954D01*
X281281Y256998D01*
X280480Y257045D01*
X280030Y257047D01*
X282953Y259970D01*
X282955Y259520D01*
D02*
G37*
G36*
X182955D02*
X183001Y258719D01*
X183046Y258369D01*
X183104Y258051D01*
X183176Y257767D01*
X183262Y257516D01*
X183362Y257298D01*
X183476Y257113D01*
X183604Y256961D01*
X183039Y256396D01*
X182887Y256524D01*
X182702Y256638D01*
X182484Y256738D01*
X182233Y256824D01*
X181949Y256896D01*
X181631Y256954D01*
X181281Y256998D01*
X180480Y257045D01*
X180029Y257047D01*
X182953Y259970D01*
X182955Y259520D01*
D02*
G37*
G36*
X122955D02*
X123001Y258719D01*
X123046Y258369D01*
X123104Y258051D01*
X123176Y257767D01*
X123262Y257516D01*
X123362Y257298D01*
X123476Y257113D01*
X123604Y256961D01*
X123039Y256396D01*
X122887Y256524D01*
X122702Y256638D01*
X122484Y256738D01*
X122233Y256824D01*
X121949Y256896D01*
X121631Y256954D01*
X121281Y256998D01*
X120480Y257045D01*
X120029Y257047D01*
X122953Y259970D01*
X122955Y259520D01*
D02*
G37*
G36*
X354547Y254547D02*
X365453D01*
Y254547D01*
X367895Y254919D01*
X369282Y254547D01*
X370718D01*
X372105Y254919D01*
X373348Y255637D01*
X375000Y256369D01*
X376652Y255637D01*
X377895Y254919D01*
X379282Y254547D01*
X379778D01*
X380016Y254499D01*
X380145Y254498D01*
X380882Y253798D01*
X381104Y253475D01*
X380036Y251145D01*
X379798Y250975D01*
X321462D01*
X320000Y250000D01*
X318537Y250975D01*
X312486D01*
Y250000D01*
X312291Y249998D01*
X311801Y249964D01*
X311669Y249944D01*
X311553Y249919D01*
X311454Y249890D01*
X311370Y249856D01*
X311302Y249818D01*
X311250Y249775D01*
X310000Y251000D01*
X308750Y249775D01*
X308698Y249818D01*
X308630Y249856D01*
X308546Y249890D01*
X308447Y249919D01*
X308331Y249944D01*
X308199Y249964D01*
X307709Y249998D01*
X307514Y250000D01*
Y252000D01*
X307888Y252009D01*
X308199Y252036D01*
X308331Y252056D01*
X308447Y252081D01*
X308546Y252110D01*
X308630Y252144D01*
X308698Y252182D01*
X308750Y252225D01*
X310000Y251000D01*
X310991Y251972D01*
X310102Y253442D01*
X310713Y254547D01*
X310718Y254547D01*
X312105Y254919D01*
X313348Y255637D01*
X314363Y256652D01*
X314423Y256755D01*
X315244Y257033D01*
X317237Y257101D01*
X317351Y257059D01*
X317573Y256837D01*
X318474Y256317D01*
X318916Y256198D01*
X318904Y256256D01*
X318829Y256510D01*
X318733Y256758D01*
X318616Y256999D01*
X318477Y257232D01*
X318317Y257459D01*
X318136Y257679D01*
X317933Y257891D01*
X319500D01*
Y260000D01*
X320000D01*
Y260500D01*
X323953D01*
Y260520D01*
X326124Y262075D01*
X354547D01*
Y254547D01*
D02*
G37*
G36*
X404286Y253300D02*
X404225Y253357D01*
X404160Y253408D01*
X404090Y253453D01*
X404016Y253492D01*
X403938Y253525D01*
X403856Y253552D01*
X403769Y253573D01*
X403678Y253588D01*
X403583Y253597D01*
X403483Y253600D01*
Y254400D01*
X403583Y254403D01*
X403678Y254412D01*
X403769Y254427D01*
X403856Y254448D01*
X403938Y254475D01*
X404016Y254508D01*
X404090Y254547D01*
X404160Y254592D01*
X404225Y254643D01*
X404286Y254700D01*
Y253300D01*
D02*
G37*
G36*
X304286D02*
X304225Y253357D01*
X304160Y253408D01*
X304090Y253453D01*
X304016Y253492D01*
X303938Y253525D01*
X303856Y253552D01*
X303769Y253573D01*
X303678Y253588D01*
X303583Y253597D01*
X303484Y253600D01*
Y254400D01*
X303583Y254403D01*
X303678Y254412D01*
X303769Y254427D01*
X303856Y254448D01*
X303938Y254475D01*
X304016Y254508D01*
X304090Y254547D01*
X304160Y254592D01*
X304225Y254643D01*
X304286Y254700D01*
Y253300D01*
D02*
G37*
G36*
X210786Y252800D02*
X210725Y252857D01*
X210660Y252908D01*
X210590Y252953D01*
X210516Y252992D01*
X210438Y253025D01*
X210356Y253052D01*
X210269Y253073D01*
X210178Y253088D01*
X210083Y253097D01*
X209983Y253100D01*
Y253900D01*
X210083Y253903D01*
X210178Y253912D01*
X210269Y253927D01*
X210356Y253948D01*
X210438Y253975D01*
X210516Y254008D01*
X210590Y254047D01*
X210660Y254092D01*
X210725Y254143D01*
X210786Y254200D01*
Y252800D01*
D02*
G37*
G36*
X410000Y251000D02*
X408750Y249775D01*
X408698Y249818D01*
X408630Y249856D01*
X408546Y249890D01*
X408447Y249919D01*
X408331Y249944D01*
X408199Y249964D01*
X407709Y249998D01*
X407514Y250000D01*
Y252000D01*
X407888Y252009D01*
X408199Y252036D01*
X408331Y252056D01*
X408447Y252081D01*
X408546Y252110D01*
X408630Y252144D01*
X408698Y252182D01*
X408750Y252225D01*
X410000Y251000D01*
D02*
G37*
G36*
X132429Y251750D02*
X133028Y251217D01*
X133307Y251000D01*
X133573Y250817D01*
X133825Y250667D01*
X134063Y250550D01*
X134288Y250467D01*
X134500Y250417D01*
X134697Y250400D01*
Y249600D01*
X134500Y249583D01*
X134288Y249533D01*
X134063Y249450D01*
X133825Y249333D01*
X133573Y249183D01*
X133307Y249000D01*
X133028Y248783D01*
X132429Y248250D01*
X132109Y247933D01*
Y252067D01*
X132429Y251750D01*
D02*
G37*
G36*
X219940Y247871D02*
X219871Y247915D01*
X219798Y247954D01*
X219723Y247988D01*
X219643Y248018D01*
X219561Y248043D01*
X219475Y248063D01*
X219386Y248079D01*
X219294Y248091D01*
X219100Y248100D01*
X218920Y248900D01*
X219021Y248903D01*
X219116Y248914D01*
X219204Y248931D01*
X219287Y248955D01*
X219364Y248986D01*
X219435Y249024D01*
X219500Y249068D01*
X219560Y249119D01*
X219613Y249178D01*
X219660Y249243D01*
X219940Y247871D01*
D02*
G37*
G36*
X496308Y248260D02*
X496448Y248139D01*
X496512Y248091D01*
X496572Y248052D01*
X496629Y248021D01*
X496681Y247999D01*
X496730Y247985D01*
X496776Y247980D01*
X496817Y247983D01*
X496017Y247183D01*
X496020Y247224D01*
X496015Y247270D01*
X496001Y247319D01*
X495979Y247371D01*
X495948Y247428D01*
X495909Y247488D01*
X495861Y247552D01*
X495740Y247692D01*
X495667Y247767D01*
X496233Y248333D01*
X496308Y248260D01*
D02*
G37*
G36*
X122955Y249520D02*
X123001Y248719D01*
X123046Y248369D01*
X123104Y248051D01*
X123176Y247767D01*
X123262Y247516D01*
X123362Y247298D01*
X123476Y247113D01*
X123604Y246961D01*
X123039Y246396D01*
X122887Y246524D01*
X122702Y246638D01*
X122484Y246738D01*
X122233Y246824D01*
X121949Y246896D01*
X121631Y246954D01*
X121281Y246999D01*
X120480Y247045D01*
X120029Y247047D01*
X122953Y249971D01*
X122955Y249520D01*
D02*
G37*
G36*
X446783Y246287D02*
X446857Y246226D01*
X446932Y246172D01*
X447008Y246126D01*
X447085Y246087D01*
X447164Y246055D01*
X447243Y246030D01*
X447324Y246013D01*
X447407Y246003D01*
X447490Y246000D01*
X446500Y245010D01*
X446497Y245093D01*
X446487Y245176D01*
X446470Y245257D01*
X446445Y245336D01*
X446413Y245415D01*
X446374Y245492D01*
X446328Y245568D01*
X446274Y245643D01*
X446213Y245717D01*
X446145Y245790D01*
X446710Y246355D01*
X446783Y246287D01*
D02*
G37*
G36*
X134786Y244300D02*
X134725Y244357D01*
X134660Y244408D01*
X134590Y244453D01*
X134516Y244492D01*
X134438Y244525D01*
X134356Y244552D01*
X134269Y244573D01*
X134178Y244588D01*
X134083Y244597D01*
X133984Y244600D01*
Y245400D01*
X134083Y245403D01*
X134178Y245412D01*
X134269Y245427D01*
X134356Y245448D01*
X134438Y245475D01*
X134516Y245508D01*
X134590Y245547D01*
X134660Y245592D01*
X134725Y245643D01*
X134786Y245700D01*
Y244300D01*
D02*
G37*
G36*
X545286Y243800D02*
X545225Y243857D01*
X545160Y243908D01*
X545090Y243953D01*
X545016Y243992D01*
X544938Y244025D01*
X544856Y244052D01*
X544769Y244073D01*
X544678Y244088D01*
X544583Y244097D01*
X544484Y244100D01*
Y244900D01*
X544583Y244903D01*
X544678Y244912D01*
X544769Y244927D01*
X544856Y244948D01*
X544938Y244975D01*
X545016Y245008D01*
X545090Y245047D01*
X545160Y245092D01*
X545225Y245143D01*
X545286Y245200D01*
Y243800D01*
D02*
G37*
G36*
X223250Y238775D02*
X223198Y238818D01*
X223130Y238856D01*
X223046Y238890D01*
X222947Y238919D01*
X222831Y238944D01*
X222699Y238964D01*
X222388Y238991D01*
X222014Y239000D01*
Y241000D01*
X222209Y241002D01*
X222699Y241036D01*
X222831Y241056D01*
X222947Y241081D01*
X223046Y241110D01*
X223130Y241144D01*
X223198Y241182D01*
X223250Y241225D01*
Y238775D01*
D02*
G37*
G36*
X157786Y238300D02*
X157725Y238357D01*
X157660Y238408D01*
X157590Y238453D01*
X157516Y238492D01*
X157438Y238525D01*
X157356Y238552D01*
X157269Y238573D01*
X157178Y238588D01*
X157083Y238597D01*
X156983Y238600D01*
Y239400D01*
X157083Y239403D01*
X157178Y239412D01*
X157269Y239427D01*
X157356Y239448D01*
X157438Y239475D01*
X157516Y239508D01*
X157590Y239547D01*
X157660Y239592D01*
X157725Y239643D01*
X157786Y239700D01*
Y238300D01*
D02*
G37*
G36*
X212321Y241864D02*
X212541Y241683D01*
X212768Y241523D01*
X213001Y241384D01*
X213242Y241267D01*
X213490Y241171D01*
X213744Y241096D01*
X214006Y241043D01*
X214274Y241011D01*
X214550Y241000D01*
Y239000D01*
X214274Y238989D01*
X214006Y238957D01*
X213744Y238904D01*
X213490Y238829D01*
X213242Y238733D01*
X213001Y238616D01*
X212768Y238477D01*
X212541Y238317D01*
X212321Y238136D01*
X212109Y237933D01*
Y242067D01*
X212321Y241864D01*
D02*
G37*
G36*
X132429Y241750D02*
X133028Y241217D01*
X133307Y241000D01*
X133573Y240817D01*
X133825Y240667D01*
X134063Y240550D01*
X134288Y240467D01*
X134500Y240417D01*
X134697Y240400D01*
Y239600D01*
X134500Y239583D01*
X134288Y239533D01*
X134063Y239450D01*
X133825Y239333D01*
X133573Y239183D01*
X133307Y239000D01*
X133028Y238783D01*
X132429Y238250D01*
X132109Y237933D01*
Y242067D01*
X132429Y241750D01*
D02*
G37*
G36*
X539970Y237047D02*
X539520Y237045D01*
X538719Y236999D01*
X538369Y236954D01*
X538051Y236896D01*
X537767Y236824D01*
X537516Y236738D01*
X537298Y236638D01*
X537113Y236524D01*
X536961Y236396D01*
X536396Y236961D01*
X536524Y237113D01*
X536638Y237298D01*
X536738Y237516D01*
X536824Y237767D01*
X536896Y238051D01*
X536954Y238369D01*
X536999Y238719D01*
X537045Y239520D01*
X537047Y239970D01*
X539970Y237047D01*
D02*
G37*
G36*
X492955Y239520D02*
X493002Y238719D01*
X493046Y238369D01*
X493104Y238051D01*
X493176Y237767D01*
X493262Y237516D01*
X493362Y237298D01*
X493476Y237113D01*
X493604Y236961D01*
X493039Y236396D01*
X492887Y236524D01*
X492702Y236638D01*
X492484Y236738D01*
X492233Y236824D01*
X491949Y236896D01*
X491631Y236954D01*
X491281Y236999D01*
X490480Y237045D01*
X490029Y237047D01*
X492953Y239970D01*
X492955Y239520D01*
D02*
G37*
G36*
X489970Y237047D02*
X489520Y237045D01*
X488719Y236999D01*
X488369Y236954D01*
X488051Y236896D01*
X487767Y236824D01*
X487516Y236738D01*
X487298Y236638D01*
X487113Y236524D01*
X486961Y236396D01*
X486396Y236961D01*
X486524Y237113D01*
X486638Y237298D01*
X486738Y237516D01*
X486824Y237767D01*
X486896Y238051D01*
X486954Y238369D01*
X486999Y238719D01*
X487045Y239520D01*
X487047Y239970D01*
X489970Y237047D01*
D02*
G37*
G36*
X442955Y239520D02*
X443002Y238719D01*
X443046Y238369D01*
X443104Y238051D01*
X443176Y237767D01*
X443262Y237516D01*
X443362Y237298D01*
X443476Y237113D01*
X443604Y236961D01*
X443039Y236396D01*
X442887Y236524D01*
X442702Y236638D01*
X442484Y236738D01*
X442233Y236824D01*
X441949Y236896D01*
X441631Y236954D01*
X441281Y236999D01*
X440480Y237045D01*
X440029Y237047D01*
X442953Y239970D01*
X442955Y239520D01*
D02*
G37*
G36*
X439970Y237047D02*
X439520Y237045D01*
X438719Y236999D01*
X438369Y236954D01*
X438051Y236896D01*
X437767Y236824D01*
X437516Y236738D01*
X437298Y236638D01*
X437113Y236524D01*
X436961Y236396D01*
X436396Y236961D01*
X436524Y237113D01*
X436638Y237298D01*
X436738Y237516D01*
X436824Y237767D01*
X436896Y238051D01*
X436954Y238369D01*
X436999Y238719D01*
X437045Y239520D01*
X437047Y239970D01*
X439970Y237047D01*
D02*
G37*
G36*
X382955Y239520D02*
X383001Y238719D01*
X383046Y238369D01*
X383104Y238051D01*
X383176Y237767D01*
X383262Y237516D01*
X383362Y237298D01*
X383476Y237113D01*
X383604Y236961D01*
X383039Y236396D01*
X382887Y236524D01*
X382702Y236638D01*
X382484Y236738D01*
X382233Y236824D01*
X381949Y236896D01*
X381631Y236954D01*
X381281Y236999D01*
X380480Y237045D01*
X380030Y237047D01*
X382953Y239970D01*
X382955Y239520D01*
D02*
G37*
G36*
X379971Y237047D02*
X379520Y237045D01*
X378719Y236999D01*
X378369Y236954D01*
X378051Y236896D01*
X377767Y236824D01*
X377516Y236738D01*
X377298Y236638D01*
X377113Y236524D01*
X376961Y236396D01*
X376396Y236961D01*
X376524Y237113D01*
X376638Y237298D01*
X376738Y237516D01*
X376824Y237767D01*
X376896Y238051D01*
X376954Y238369D01*
X376998Y238719D01*
X377045Y239520D01*
X377047Y239970D01*
X379971Y237047D01*
D02*
G37*
G36*
X282955Y239520D02*
X283001Y238719D01*
X283046Y238369D01*
X283104Y238051D01*
X283176Y237767D01*
X283262Y237516D01*
X283362Y237298D01*
X283476Y237113D01*
X283604Y236961D01*
X283039Y236396D01*
X282887Y236524D01*
X282702Y236638D01*
X282484Y236738D01*
X282233Y236824D01*
X281949Y236896D01*
X281631Y236954D01*
X281281Y236999D01*
X280480Y237045D01*
X280030Y237047D01*
X282953Y239970D01*
X282955Y239520D01*
D02*
G37*
G36*
X279971Y237047D02*
X279520Y237045D01*
X278719Y236999D01*
X278369Y236954D01*
X278051Y236896D01*
X277767Y236824D01*
X277516Y236738D01*
X277298Y236638D01*
X277113Y236524D01*
X276961Y236396D01*
X276396Y236961D01*
X276524Y237113D01*
X276638Y237298D01*
X276738Y237516D01*
X276824Y237767D01*
X276896Y238051D01*
X276954Y238369D01*
X276998Y238719D01*
X277045Y239520D01*
X277047Y239970D01*
X279971Y237047D01*
D02*
G37*
G36*
X182955Y239520D02*
X183001Y238719D01*
X183046Y238369D01*
X183104Y238051D01*
X183176Y237767D01*
X183262Y237516D01*
X183362Y237298D01*
X183476Y237113D01*
X183604Y236961D01*
X183039Y236396D01*
X182887Y236524D01*
X182702Y236638D01*
X182484Y236738D01*
X182233Y236824D01*
X181949Y236896D01*
X181631Y236954D01*
X181281Y236999D01*
X180480Y237045D01*
X180029Y237047D01*
X182953Y239970D01*
X182955Y239520D01*
D02*
G37*
G36*
X179971Y237047D02*
X179520Y237045D01*
X178719Y236999D01*
X178369Y236954D01*
X178051Y236896D01*
X177767Y236824D01*
X177516Y236738D01*
X177298Y236638D01*
X177113Y236524D01*
X176961Y236396D01*
X176396Y236961D01*
X176524Y237113D01*
X176638Y237298D01*
X176738Y237516D01*
X176824Y237767D01*
X176896Y238051D01*
X176954Y238369D01*
X176999Y238719D01*
X177045Y239520D01*
X177047Y239970D01*
X179971Y237047D01*
D02*
G37*
G36*
X122955Y239520D02*
X123001Y238719D01*
X123046Y238369D01*
X123104Y238051D01*
X123176Y237767D01*
X123262Y237516D01*
X123362Y237298D01*
X123476Y237113D01*
X123604Y236961D01*
X123039Y236396D01*
X122887Y236524D01*
X122702Y236638D01*
X122484Y236738D01*
X122233Y236824D01*
X121949Y236896D01*
X121631Y236954D01*
X121281Y236999D01*
X120480Y237045D01*
X120029Y237047D01*
X122953Y239970D01*
X122955Y239520D01*
D02*
G37*
G36*
X112955D02*
X113001Y238719D01*
X113046Y238369D01*
X113104Y238051D01*
X113176Y237767D01*
X113262Y237516D01*
X113362Y237298D01*
X113476Y237113D01*
X113604Y236961D01*
X113039Y236396D01*
X112887Y236524D01*
X112702Y236638D01*
X112484Y236738D01*
X112233Y236824D01*
X111949Y236896D01*
X111631Y236954D01*
X111281Y236999D01*
X110480Y237045D01*
X110029Y237047D01*
X112953Y239970D01*
X112955Y239520D01*
D02*
G37*
G36*
X189286Y229300D02*
X189225Y229357D01*
X189160Y229408D01*
X189090Y229453D01*
X189016Y229492D01*
X188938Y229525D01*
X188856Y229552D01*
X188769Y229573D01*
X188678Y229588D01*
X188583Y229597D01*
X188484Y229600D01*
Y230400D01*
X188583Y230403D01*
X188678Y230412D01*
X188769Y230427D01*
X188856Y230448D01*
X188938Y230475D01*
X189016Y230508D01*
X189090Y230547D01*
X189160Y230592D01*
X189225Y230643D01*
X189286Y230700D01*
Y229300D01*
D02*
G37*
G36*
X539970Y227047D02*
X539520Y227045D01*
X538719Y226998D01*
X538369Y226954D01*
X538051Y226896D01*
X537767Y226824D01*
X537516Y226738D01*
X537298Y226638D01*
X537113Y226524D01*
X536961Y226396D01*
X536396Y226961D01*
X536524Y227113D01*
X536638Y227298D01*
X536738Y227516D01*
X536824Y227767D01*
X536896Y228051D01*
X536954Y228369D01*
X536999Y228719D01*
X537045Y229520D01*
X537047Y229971D01*
X539970Y227047D01*
D02*
G37*
G36*
X492955Y229520D02*
X493002Y228719D01*
X493046Y228369D01*
X493104Y228051D01*
X493176Y227767D01*
X493262Y227516D01*
X493362Y227298D01*
X493476Y227113D01*
X493604Y226961D01*
X493039Y226396D01*
X492887Y226524D01*
X492702Y226638D01*
X492484Y226738D01*
X492233Y226824D01*
X491949Y226896D01*
X491631Y226954D01*
X491281Y226998D01*
X490480Y227045D01*
X490029Y227047D01*
X492953Y229971D01*
X492955Y229520D01*
D02*
G37*
G36*
X489970Y227047D02*
X489520Y227045D01*
X488719Y226998D01*
X488369Y226954D01*
X488051Y226896D01*
X487767Y226824D01*
X487516Y226738D01*
X487298Y226638D01*
X487113Y226524D01*
X486961Y226396D01*
X486396Y226961D01*
X486524Y227113D01*
X486638Y227298D01*
X486738Y227516D01*
X486824Y227767D01*
X486896Y228051D01*
X486954Y228369D01*
X486999Y228719D01*
X487045Y229520D01*
X487047Y229971D01*
X489970Y227047D01*
D02*
G37*
G36*
X442955Y229520D02*
X443002Y228719D01*
X443046Y228369D01*
X443104Y228051D01*
X443176Y227767D01*
X443262Y227516D01*
X443362Y227298D01*
X443476Y227113D01*
X443604Y226961D01*
X443039Y226396D01*
X442887Y226524D01*
X442702Y226638D01*
X442484Y226738D01*
X442233Y226824D01*
X441949Y226896D01*
X441631Y226954D01*
X441281Y226998D01*
X440480Y227045D01*
X440029Y227047D01*
X442953Y229971D01*
X442955Y229520D01*
D02*
G37*
G36*
X439970Y227047D02*
X439520Y227045D01*
X438719Y226998D01*
X438369Y226954D01*
X438051Y226896D01*
X437767Y226824D01*
X437516Y226738D01*
X437298Y226638D01*
X437113Y226524D01*
X436961Y226396D01*
X436396Y226961D01*
X436524Y227113D01*
X436638Y227298D01*
X436738Y227516D01*
X436824Y227767D01*
X436896Y228051D01*
X436954Y228369D01*
X436999Y228719D01*
X437045Y229520D01*
X437047Y229971D01*
X439970Y227047D01*
D02*
G37*
G36*
X382955Y229520D02*
X383001Y228719D01*
X383046Y228369D01*
X383104Y228051D01*
X383176Y227767D01*
X383262Y227516D01*
X383362Y227298D01*
X383476Y227113D01*
X383604Y226961D01*
X383039Y226396D01*
X382887Y226524D01*
X382702Y226638D01*
X382484Y226738D01*
X382233Y226824D01*
X381949Y226896D01*
X381631Y226954D01*
X381281Y226998D01*
X380480Y227045D01*
X380030Y227047D01*
X382953Y229971D01*
X382955Y229520D01*
D02*
G37*
G36*
X379971Y227047D02*
X379520Y227045D01*
X378719Y226998D01*
X378369Y226954D01*
X378051Y226896D01*
X377767Y226824D01*
X377516Y226738D01*
X377298Y226638D01*
X377113Y226524D01*
X376961Y226396D01*
X376396Y226961D01*
X376524Y227113D01*
X376638Y227298D01*
X376738Y227516D01*
X376824Y227767D01*
X376896Y228051D01*
X376954Y228369D01*
X376998Y228719D01*
X377045Y229520D01*
X377047Y229971D01*
X379971Y227047D01*
D02*
G37*
G36*
X282955Y229520D02*
X283001Y228719D01*
X283046Y228369D01*
X283104Y228051D01*
X283176Y227767D01*
X283262Y227516D01*
X283362Y227298D01*
X283476Y227113D01*
X283604Y226961D01*
X283039Y226396D01*
X282887Y226524D01*
X282702Y226638D01*
X282484Y226738D01*
X282233Y226824D01*
X281949Y226896D01*
X281631Y226954D01*
X281281Y226998D01*
X280480Y227045D01*
X280030Y227047D01*
X282953Y229971D01*
X282955Y229520D01*
D02*
G37*
G36*
X279971Y227047D02*
X279520Y227045D01*
X278719Y226998D01*
X278369Y226954D01*
X278051Y226896D01*
X277767Y226824D01*
X277516Y226738D01*
X277298Y226638D01*
X277113Y226524D01*
X276961Y226396D01*
X276396Y226961D01*
X276524Y227113D01*
X276638Y227298D01*
X276738Y227516D01*
X276824Y227767D01*
X276896Y228051D01*
X276954Y228369D01*
X276998Y228719D01*
X277045Y229520D01*
X277047Y229971D01*
X279971Y227047D01*
D02*
G37*
G36*
X182955Y229520D02*
X183001Y228719D01*
X183046Y228369D01*
X183104Y228051D01*
X183176Y227767D01*
X183262Y227516D01*
X183362Y227298D01*
X183476Y227113D01*
X183604Y226961D01*
X183039Y226396D01*
X182887Y226524D01*
X182702Y226638D01*
X182484Y226738D01*
X182233Y226824D01*
X181949Y226896D01*
X181631Y226954D01*
X181281Y226998D01*
X180480Y227045D01*
X180029Y227047D01*
X182953Y229971D01*
X182955Y229520D01*
D02*
G37*
G36*
X179971Y227047D02*
X179520Y227045D01*
X178719Y226998D01*
X178369Y226954D01*
X178051Y226896D01*
X177767Y226824D01*
X177516Y226738D01*
X177298Y226638D01*
X177113Y226524D01*
X176961Y226396D01*
X176396Y226961D01*
X176524Y227113D01*
X176638Y227298D01*
X176738Y227516D01*
X176824Y227767D01*
X176896Y228051D01*
X176954Y228369D01*
X176999Y228719D01*
X177045Y229520D01*
X177047Y229971D01*
X179971Y227047D01*
D02*
G37*
G36*
X122955Y229520D02*
X123001Y228719D01*
X123046Y228369D01*
X123104Y228051D01*
X123176Y227767D01*
X123262Y227516D01*
X123362Y227298D01*
X123476Y227113D01*
X123604Y226961D01*
X123039Y226396D01*
X122887Y226524D01*
X122702Y226638D01*
X122484Y226738D01*
X122233Y226824D01*
X121949Y226896D01*
X121631Y226954D01*
X121281Y226998D01*
X120480Y227045D01*
X120029Y227047D01*
X122953Y229971D01*
X122955Y229520D01*
D02*
G37*
G36*
X112955D02*
X113001Y228719D01*
X113046Y228369D01*
X113104Y228051D01*
X113176Y227767D01*
X113262Y227516D01*
X113362Y227298D01*
X113476Y227113D01*
X113604Y226961D01*
X113039Y226396D01*
X112887Y226524D01*
X112702Y226638D01*
X112484Y226738D01*
X112233Y226824D01*
X111949Y226896D01*
X111631Y226954D01*
X111281Y226998D01*
X110480Y227045D01*
X110029Y227047D01*
X112953Y229971D01*
X112955Y229520D01*
D02*
G37*
G36*
X203286Y219300D02*
X203225Y219357D01*
X203160Y219408D01*
X203090Y219453D01*
X203016Y219492D01*
X202938Y219525D01*
X202856Y219552D01*
X202769Y219573D01*
X202678Y219588D01*
X202583Y219597D01*
X202484Y219600D01*
Y220400D01*
X202583Y220403D01*
X202678Y220412D01*
X202769Y220427D01*
X202856Y220448D01*
X202938Y220475D01*
X203016Y220508D01*
X203090Y220547D01*
X203160Y220592D01*
X203225Y220643D01*
X203286Y220700D01*
Y219300D01*
D02*
G37*
G36*
X539970Y217047D02*
X539520Y217045D01*
X538719Y216999D01*
X538369Y216954D01*
X538051Y216896D01*
X537767Y216824D01*
X537516Y216738D01*
X537298Y216638D01*
X537113Y216524D01*
X536961Y216396D01*
X536396Y216961D01*
X536524Y217113D01*
X536638Y217298D01*
X536738Y217516D01*
X536824Y217767D01*
X536896Y218051D01*
X536954Y218369D01*
X536999Y218719D01*
X537045Y219520D01*
X537047Y219970D01*
X539970Y217047D01*
D02*
G37*
G36*
X492955Y219520D02*
X493002Y218719D01*
X493046Y218369D01*
X493104Y218051D01*
X493176Y217767D01*
X493262Y217516D01*
X493362Y217298D01*
X493476Y217113D01*
X493604Y216961D01*
X493039Y216396D01*
X492887Y216524D01*
X492702Y216638D01*
X492484Y216738D01*
X492233Y216824D01*
X491949Y216896D01*
X491631Y216954D01*
X491281Y216999D01*
X490480Y217045D01*
X490029Y217047D01*
X492953Y219970D01*
X492955Y219520D01*
D02*
G37*
G36*
X489970Y217047D02*
X489520Y217045D01*
X488719Y216999D01*
X488369Y216954D01*
X488051Y216896D01*
X487767Y216824D01*
X487516Y216738D01*
X487298Y216638D01*
X487113Y216524D01*
X486961Y216396D01*
X486396Y216961D01*
X486524Y217113D01*
X486638Y217298D01*
X486738Y217516D01*
X486824Y217767D01*
X486896Y218051D01*
X486954Y218369D01*
X486999Y218719D01*
X487045Y219520D01*
X487047Y219970D01*
X489970Y217047D01*
D02*
G37*
G36*
X442955Y219520D02*
X443002Y218719D01*
X443046Y218369D01*
X443104Y218051D01*
X443176Y217767D01*
X443262Y217516D01*
X443362Y217298D01*
X443476Y217113D01*
X443604Y216961D01*
X443039Y216396D01*
X442887Y216524D01*
X442702Y216638D01*
X442484Y216738D01*
X442233Y216824D01*
X441949Y216896D01*
X441631Y216954D01*
X441281Y216999D01*
X440480Y217045D01*
X440029Y217047D01*
X442953Y219970D01*
X442955Y219520D01*
D02*
G37*
G36*
X439970Y217047D02*
X439520Y217045D01*
X438719Y216999D01*
X438369Y216954D01*
X438051Y216896D01*
X437767Y216824D01*
X437516Y216738D01*
X437298Y216638D01*
X437113Y216524D01*
X436961Y216396D01*
X436396Y216961D01*
X436524Y217113D01*
X436638Y217298D01*
X436738Y217516D01*
X436824Y217767D01*
X436896Y218051D01*
X436954Y218369D01*
X436999Y218719D01*
X437045Y219520D01*
X437047Y219970D01*
X439970Y217047D01*
D02*
G37*
G36*
X382955Y219520D02*
X383001Y218719D01*
X383046Y218369D01*
X383104Y218051D01*
X383176Y217767D01*
X383262Y217516D01*
X383362Y217298D01*
X383476Y217113D01*
X383604Y216961D01*
X383039Y216396D01*
X382887Y216524D01*
X382702Y216638D01*
X382484Y216738D01*
X382233Y216824D01*
X381949Y216896D01*
X381631Y216954D01*
X381281Y216999D01*
X380480Y217045D01*
X380030Y217047D01*
X382953Y219970D01*
X382955Y219520D01*
D02*
G37*
G36*
X379971Y217047D02*
X379520Y217045D01*
X378719Y216999D01*
X378369Y216954D01*
X378051Y216896D01*
X377767Y216824D01*
X377516Y216738D01*
X377298Y216638D01*
X377113Y216524D01*
X376961Y216396D01*
X376396Y216961D01*
X376524Y217113D01*
X376638Y217298D01*
X376738Y217516D01*
X376824Y217767D01*
X376896Y218051D01*
X376954Y218369D01*
X376998Y218719D01*
X377045Y219520D01*
X377047Y219970D01*
X379971Y217047D01*
D02*
G37*
G36*
X282955Y219520D02*
X283001Y218719D01*
X283046Y218369D01*
X283104Y218051D01*
X283176Y217767D01*
X283262Y217516D01*
X283362Y217298D01*
X283476Y217113D01*
X283604Y216961D01*
X283039Y216396D01*
X282887Y216524D01*
X282702Y216638D01*
X282484Y216738D01*
X282233Y216824D01*
X281949Y216896D01*
X281631Y216954D01*
X281281Y216999D01*
X280480Y217045D01*
X280030Y217047D01*
X282953Y219970D01*
X282955Y219520D01*
D02*
G37*
G36*
X279971Y217047D02*
X279520Y217045D01*
X278719Y216999D01*
X278369Y216954D01*
X278051Y216896D01*
X277767Y216824D01*
X277516Y216738D01*
X277298Y216638D01*
X277113Y216524D01*
X276961Y216396D01*
X276396Y216961D01*
X276524Y217113D01*
X276638Y217298D01*
X276738Y217516D01*
X276824Y217767D01*
X276896Y218051D01*
X276954Y218369D01*
X276998Y218719D01*
X277045Y219520D01*
X277047Y219970D01*
X279971Y217047D01*
D02*
G37*
G36*
X182955Y219520D02*
X183001Y218719D01*
X183046Y218369D01*
X183104Y218051D01*
X183176Y217767D01*
X183262Y217516D01*
X183362Y217298D01*
X183476Y217113D01*
X183604Y216961D01*
X183039Y216396D01*
X182887Y216524D01*
X182702Y216638D01*
X182484Y216738D01*
X182233Y216824D01*
X181949Y216896D01*
X181631Y216954D01*
X181281Y216999D01*
X180480Y217045D01*
X180029Y217047D01*
X182953Y219970D01*
X182955Y219520D01*
D02*
G37*
G36*
X179971Y217047D02*
X179520Y217045D01*
X178719Y216999D01*
X178369Y216954D01*
X178051Y216896D01*
X177767Y216824D01*
X177516Y216738D01*
X177298Y216638D01*
X177113Y216524D01*
X176961Y216396D01*
X176396Y216961D01*
X176524Y217113D01*
X176638Y217298D01*
X176738Y217516D01*
X176824Y217767D01*
X176896Y218051D01*
X176954Y218369D01*
X176999Y218719D01*
X177045Y219520D01*
X177047Y219970D01*
X179971Y217047D01*
D02*
G37*
G36*
X122955Y219520D02*
X123001Y218719D01*
X123046Y218369D01*
X123104Y218051D01*
X123176Y217767D01*
X123262Y217516D01*
X123362Y217298D01*
X123476Y217113D01*
X123604Y216961D01*
X123039Y216396D01*
X122887Y216524D01*
X122702Y216638D01*
X122484Y216738D01*
X122233Y216824D01*
X121949Y216896D01*
X121631Y216954D01*
X121281Y216999D01*
X120480Y217045D01*
X120029Y217047D01*
X122953Y219970D01*
X122955Y219520D01*
D02*
G37*
G36*
X112955D02*
X113001Y218719D01*
X113046Y218369D01*
X113104Y218051D01*
X113176Y217767D01*
X113262Y217516D01*
X113362Y217298D01*
X113476Y217113D01*
X113604Y216961D01*
X113039Y216396D01*
X112887Y216524D01*
X112702Y216638D01*
X112484Y216738D01*
X112233Y216824D01*
X111949Y216896D01*
X111631Y216954D01*
X111281Y216999D01*
X110480Y217045D01*
X110029Y217047D01*
X112953Y219970D01*
X112955Y219520D01*
D02*
G37*
G36*
X142286Y210900D02*
X142225Y210957D01*
X142160Y211008D01*
X142090Y211053D01*
X142016Y211092D01*
X141938Y211125D01*
X141856Y211152D01*
X141769Y211173D01*
X141678Y211188D01*
X141583Y211197D01*
X141483Y211200D01*
Y212000D01*
X141583Y212003D01*
X141678Y212012D01*
X141769Y212027D01*
X141856Y212048D01*
X141938Y212075D01*
X142016Y212108D01*
X142090Y212147D01*
X142160Y212192D01*
X142225Y212243D01*
X142286Y212300D01*
Y210900D01*
D02*
G37*
G36*
X132856Y210782D02*
X132903Y210702D01*
X132961Y210631D01*
X133032Y210570D01*
X133114Y210518D01*
X133207Y210475D01*
X133313Y210442D01*
X133430Y210419D01*
X133559Y210405D01*
X133700Y210400D01*
Y209600D01*
X133559Y209595D01*
X133430Y209581D01*
X133313Y209558D01*
X133207Y209524D01*
X133114Y209482D01*
X133032Y209430D01*
X132961Y209369D01*
X132903Y209298D01*
X132856Y209218D01*
X132821Y209128D01*
Y210872D01*
X132856Y210782D01*
D02*
G37*
G36*
X174286Y208300D02*
X174225Y208357D01*
X174160Y208408D01*
X174090Y208453D01*
X174016Y208492D01*
X173938Y208525D01*
X173856Y208552D01*
X173769Y208573D01*
X173678Y208588D01*
X173583Y208597D01*
X173484Y208600D01*
Y209400D01*
X173583Y209403D01*
X173678Y209412D01*
X173769Y209427D01*
X173856Y209448D01*
X173938Y209475D01*
X174016Y209508D01*
X174090Y209547D01*
X174160Y209592D01*
X174225Y209643D01*
X174286Y209700D01*
Y208300D01*
D02*
G37*
G36*
X539970Y207047D02*
X539520Y207045D01*
X538719Y206998D01*
X538369Y206954D01*
X538051Y206896D01*
X537767Y206824D01*
X537516Y206738D01*
X537298Y206638D01*
X537113Y206524D01*
X536961Y206396D01*
X536396Y206961D01*
X536524Y207113D01*
X536638Y207298D01*
X536738Y207516D01*
X536824Y207767D01*
X536896Y208051D01*
X536954Y208369D01*
X536999Y208719D01*
X537045Y209520D01*
X537047Y209970D01*
X539970Y207047D01*
D02*
G37*
G36*
X492955Y209520D02*
X493002Y208719D01*
X493046Y208369D01*
X493104Y208051D01*
X493176Y207767D01*
X493262Y207516D01*
X493362Y207298D01*
X493476Y207113D01*
X493604Y206961D01*
X493039Y206396D01*
X492887Y206524D01*
X492702Y206638D01*
X492484Y206738D01*
X492233Y206824D01*
X491949Y206896D01*
X491631Y206954D01*
X491281Y206998D01*
X490480Y207045D01*
X490029Y207047D01*
X492953Y209970D01*
X492955Y209520D01*
D02*
G37*
G36*
X489970Y207047D02*
X489520Y207045D01*
X488719Y206998D01*
X488369Y206954D01*
X488051Y206896D01*
X487767Y206824D01*
X487516Y206738D01*
X487298Y206638D01*
X487113Y206524D01*
X486961Y206396D01*
X486396Y206961D01*
X486524Y207113D01*
X486638Y207298D01*
X486738Y207516D01*
X486824Y207767D01*
X486896Y208051D01*
X486954Y208369D01*
X486999Y208719D01*
X487045Y209520D01*
X487047Y209970D01*
X489970Y207047D01*
D02*
G37*
G36*
X442955Y209520D02*
X443002Y208719D01*
X443046Y208369D01*
X443104Y208051D01*
X443176Y207767D01*
X443262Y207516D01*
X443362Y207298D01*
X443476Y207113D01*
X443604Y206961D01*
X443039Y206396D01*
X442887Y206524D01*
X442702Y206638D01*
X442484Y206738D01*
X442233Y206824D01*
X441949Y206896D01*
X441631Y206954D01*
X441281Y206998D01*
X440480Y207045D01*
X440029Y207047D01*
X442953Y209970D01*
X442955Y209520D01*
D02*
G37*
G36*
X439970Y207047D02*
X439520Y207045D01*
X438719Y206998D01*
X438369Y206954D01*
X438051Y206896D01*
X437767Y206824D01*
X437516Y206738D01*
X437298Y206638D01*
X437113Y206524D01*
X436961Y206396D01*
X436396Y206961D01*
X436524Y207113D01*
X436638Y207298D01*
X436738Y207516D01*
X436824Y207767D01*
X436896Y208051D01*
X436954Y208369D01*
X436999Y208719D01*
X437045Y209520D01*
X437047Y209970D01*
X439970Y207047D01*
D02*
G37*
G36*
X382955Y209520D02*
X383001Y208719D01*
X383046Y208369D01*
X383104Y208051D01*
X383176Y207767D01*
X383262Y207516D01*
X383362Y207298D01*
X383476Y207113D01*
X383604Y206961D01*
X383039Y206396D01*
X382887Y206524D01*
X382702Y206638D01*
X382484Y206738D01*
X382233Y206824D01*
X381949Y206896D01*
X381631Y206954D01*
X381281Y206998D01*
X380480Y207045D01*
X380030Y207047D01*
X382953Y209970D01*
X382955Y209520D01*
D02*
G37*
G36*
X379971Y207047D02*
X379520Y207045D01*
X378719Y206998D01*
X378369Y206954D01*
X378051Y206896D01*
X377767Y206824D01*
X377516Y206738D01*
X377298Y206638D01*
X377113Y206524D01*
X376961Y206396D01*
X376396Y206961D01*
X376524Y207113D01*
X376638Y207298D01*
X376738Y207516D01*
X376824Y207767D01*
X376896Y208051D01*
X376954Y208369D01*
X376998Y208719D01*
X377045Y209520D01*
X377047Y209970D01*
X379971Y207047D01*
D02*
G37*
G36*
X282955Y209520D02*
X283001Y208719D01*
X283046Y208369D01*
X283104Y208051D01*
X283176Y207767D01*
X283262Y207516D01*
X283362Y207298D01*
X283476Y207113D01*
X283604Y206961D01*
X283039Y206396D01*
X282887Y206524D01*
X282702Y206638D01*
X282484Y206738D01*
X282233Y206824D01*
X281949Y206896D01*
X281631Y206954D01*
X281281Y206998D01*
X280480Y207045D01*
X280030Y207047D01*
X282953Y209970D01*
X282955Y209520D01*
D02*
G37*
G36*
X279971Y207047D02*
X279520Y207045D01*
X278719Y206998D01*
X278369Y206954D01*
X278051Y206896D01*
X277767Y206824D01*
X277516Y206738D01*
X277298Y206638D01*
X277113Y206524D01*
X276961Y206396D01*
X276396Y206961D01*
X276524Y207113D01*
X276638Y207298D01*
X276738Y207516D01*
X276824Y207767D01*
X276896Y208051D01*
X276954Y208369D01*
X276998Y208719D01*
X277045Y209520D01*
X277047Y209970D01*
X279971Y207047D01*
D02*
G37*
G36*
X182955Y209520D02*
X183001Y208719D01*
X183046Y208369D01*
X183104Y208051D01*
X183176Y207767D01*
X183262Y207516D01*
X183362Y207298D01*
X183476Y207113D01*
X183604Y206961D01*
X183039Y206396D01*
X182887Y206524D01*
X182702Y206638D01*
X182484Y206738D01*
X182233Y206824D01*
X181949Y206896D01*
X181631Y206954D01*
X181281Y206998D01*
X180480Y207045D01*
X180029Y207047D01*
X182953Y209970D01*
X182955Y209520D01*
D02*
G37*
G36*
X179971Y207047D02*
X179520Y207045D01*
X178719Y206998D01*
X178369Y206954D01*
X178051Y206896D01*
X177767Y206824D01*
X177516Y206738D01*
X177298Y206638D01*
X177113Y206524D01*
X176961Y206396D01*
X176396Y206961D01*
X176524Y207113D01*
X176638Y207298D01*
X176738Y207516D01*
X176824Y207767D01*
X176896Y208051D01*
X176954Y208369D01*
X176999Y208719D01*
X177045Y209520D01*
X177047Y209970D01*
X179971Y207047D01*
D02*
G37*
G36*
X122955Y209520D02*
X123001Y208719D01*
X123046Y208369D01*
X123104Y208051D01*
X123176Y207767D01*
X123262Y207516D01*
X123362Y207298D01*
X123476Y207113D01*
X123604Y206961D01*
X123039Y206396D01*
X122887Y206524D01*
X122702Y206638D01*
X122484Y206738D01*
X122233Y206824D01*
X121949Y206896D01*
X121631Y206954D01*
X121281Y206998D01*
X120480Y207045D01*
X120029Y207047D01*
X122953Y209970D01*
X122955Y209520D01*
D02*
G37*
G36*
X112955D02*
X113001Y208719D01*
X113046Y208369D01*
X113104Y208051D01*
X113176Y207767D01*
X113262Y207516D01*
X113362Y207298D01*
X113476Y207113D01*
X113604Y206961D01*
X113039Y206396D01*
X112887Y206524D01*
X112702Y206638D01*
X112484Y206738D01*
X112233Y206824D01*
X111949Y206896D01*
X111631Y206954D01*
X111281Y206998D01*
X110480Y207045D01*
X110029Y207047D01*
X112953Y209970D01*
X112955Y209520D01*
D02*
G37*
G36*
X139786Y200900D02*
X139725Y200957D01*
X139660Y201008D01*
X139590Y201053D01*
X139516Y201092D01*
X139438Y201125D01*
X139356Y201152D01*
X139269Y201173D01*
X139178Y201188D01*
X139083Y201197D01*
X138984Y201200D01*
Y202000D01*
X139083Y202003D01*
X139178Y202012D01*
X139269Y202027D01*
X139356Y202048D01*
X139438Y202075D01*
X139516Y202108D01*
X139590Y202147D01*
X139660Y202192D01*
X139725Y202243D01*
X139786Y202300D01*
Y200900D01*
D02*
G37*
G36*
X194831Y200566D02*
X194904Y200531D01*
X194981Y200500D01*
X195061Y200474D01*
X195143Y200451D01*
X195229Y200433D01*
X195411Y200408D01*
X195506Y200402D01*
X195605Y200400D01*
X195836Y199600D01*
X195735Y199597D01*
X195641Y199586D01*
X195553Y199568D01*
X195471Y199544D01*
X195396Y199513D01*
X195327Y199474D01*
X195264Y199429D01*
X195208Y199376D01*
X195158Y199317D01*
X195115Y199250D01*
X194761Y200605D01*
X194831Y200566D01*
D02*
G37*
G36*
X132856Y200782D02*
X132903Y200702D01*
X132961Y200631D01*
X133032Y200570D01*
X133114Y200518D01*
X133207Y200476D01*
X133313Y200443D01*
X133430Y200419D01*
X133559Y200405D01*
X133700Y200400D01*
Y199600D01*
X133559Y199595D01*
X133430Y199581D01*
X133313Y199557D01*
X133207Y199524D01*
X133114Y199482D01*
X133032Y199430D01*
X132961Y199369D01*
X132903Y199298D01*
X132856Y199218D01*
X132821Y199128D01*
Y200872D01*
X132856Y200782D01*
D02*
G37*
G36*
X163286Y198300D02*
X163225Y198357D01*
X163160Y198408D01*
X163090Y198453D01*
X163016Y198492D01*
X162938Y198525D01*
X162856Y198552D01*
X162769Y198573D01*
X162678Y198588D01*
X162583Y198597D01*
X162484Y198600D01*
Y199400D01*
X162583Y199403D01*
X162678Y199412D01*
X162769Y199427D01*
X162856Y199448D01*
X162938Y199475D01*
X163016Y199508D01*
X163090Y199547D01*
X163160Y199592D01*
X163225Y199643D01*
X163286Y199700D01*
Y198300D01*
D02*
G37*
G36*
X207891Y197933D02*
X207571Y198250D01*
X206972Y198783D01*
X206693Y199000D01*
X206427Y199183D01*
X206175Y199333D01*
X205937Y199450D01*
X205712Y199533D01*
X205501Y199583D01*
X205303Y199600D01*
Y200400D01*
X205501Y200417D01*
X205712Y200467D01*
X205937Y200550D01*
X206175Y200667D01*
X206427Y200817D01*
X206693Y201000D01*
X206972Y201217D01*
X207571Y201750D01*
X207891Y202067D01*
Y197933D01*
D02*
G37*
G36*
X539970Y197047D02*
X539520Y197045D01*
X538719Y196999D01*
X538369Y196954D01*
X538051Y196896D01*
X537767Y196824D01*
X537516Y196738D01*
X537298Y196638D01*
X537113Y196524D01*
X536961Y196396D01*
X536396Y196961D01*
X536524Y197113D01*
X536638Y197298D01*
X536738Y197516D01*
X536824Y197767D01*
X536896Y198051D01*
X536954Y198369D01*
X536999Y198719D01*
X537045Y199520D01*
X537047Y199970D01*
X539970Y197047D01*
D02*
G37*
G36*
X492955Y199520D02*
X493002Y198719D01*
X493046Y198369D01*
X493104Y198051D01*
X493176Y197767D01*
X493262Y197516D01*
X493362Y197298D01*
X493476Y197113D01*
X493604Y196961D01*
X493039Y196396D01*
X492887Y196524D01*
X492702Y196638D01*
X492484Y196738D01*
X492233Y196824D01*
X491949Y196896D01*
X491631Y196954D01*
X491281Y196999D01*
X490480Y197045D01*
X490029Y197047D01*
X492953Y199970D01*
X492955Y199520D01*
D02*
G37*
G36*
X489970Y197047D02*
X489520Y197045D01*
X488719Y196999D01*
X488369Y196954D01*
X488051Y196896D01*
X487767Y196824D01*
X487516Y196738D01*
X487298Y196638D01*
X487113Y196524D01*
X486961Y196396D01*
X486396Y196961D01*
X486524Y197113D01*
X486638Y197298D01*
X486738Y197516D01*
X486824Y197767D01*
X486896Y198051D01*
X486954Y198369D01*
X486999Y198719D01*
X487045Y199520D01*
X487047Y199970D01*
X489970Y197047D01*
D02*
G37*
G36*
X442955Y199520D02*
X443002Y198719D01*
X443046Y198369D01*
X443104Y198051D01*
X443176Y197767D01*
X443262Y197516D01*
X443362Y197298D01*
X443476Y197113D01*
X443604Y196961D01*
X443039Y196396D01*
X442887Y196524D01*
X442702Y196638D01*
X442484Y196738D01*
X442233Y196824D01*
X441949Y196896D01*
X441631Y196954D01*
X441281Y196999D01*
X440480Y197045D01*
X440029Y197047D01*
X442953Y199970D01*
X442955Y199520D01*
D02*
G37*
G36*
X439970Y197047D02*
X439520Y197045D01*
X438719Y196999D01*
X438369Y196954D01*
X438051Y196896D01*
X437767Y196824D01*
X437516Y196738D01*
X437298Y196638D01*
X437113Y196524D01*
X436961Y196396D01*
X436396Y196961D01*
X436524Y197113D01*
X436638Y197298D01*
X436738Y197516D01*
X436824Y197767D01*
X436896Y198051D01*
X436954Y198369D01*
X436999Y198719D01*
X437045Y199520D01*
X437047Y199970D01*
X439970Y197047D01*
D02*
G37*
G36*
X382955Y199520D02*
X383001Y198719D01*
X383046Y198369D01*
X383104Y198051D01*
X383176Y197767D01*
X383262Y197516D01*
X383362Y197298D01*
X383476Y197113D01*
X383604Y196961D01*
X383039Y196396D01*
X382887Y196524D01*
X382702Y196638D01*
X382484Y196738D01*
X382233Y196824D01*
X381949Y196896D01*
X381631Y196954D01*
X381281Y196999D01*
X380480Y197045D01*
X380030Y197047D01*
X382953Y199970D01*
X382955Y199520D01*
D02*
G37*
G36*
X379971Y197047D02*
X379520Y197045D01*
X378719Y196999D01*
X378369Y196954D01*
X378051Y196896D01*
X377767Y196824D01*
X377516Y196738D01*
X377298Y196638D01*
X377113Y196524D01*
X376961Y196396D01*
X376396Y196961D01*
X376524Y197113D01*
X376638Y197298D01*
X376738Y197516D01*
X376824Y197767D01*
X376896Y198051D01*
X376954Y198369D01*
X376998Y198719D01*
X377045Y199520D01*
X377047Y199970D01*
X379971Y197047D01*
D02*
G37*
G36*
X282955Y199520D02*
X283001Y198719D01*
X283046Y198369D01*
X283104Y198051D01*
X283176Y197767D01*
X283262Y197516D01*
X283362Y197298D01*
X283476Y197113D01*
X283604Y196961D01*
X283039Y196396D01*
X282887Y196524D01*
X282702Y196638D01*
X282484Y196738D01*
X282233Y196824D01*
X281949Y196896D01*
X281631Y196954D01*
X281281Y196999D01*
X280480Y197045D01*
X280030Y197047D01*
X282953Y199970D01*
X282955Y199520D01*
D02*
G37*
G36*
X279971Y197047D02*
X279520Y197045D01*
X278719Y196999D01*
X278369Y196954D01*
X278051Y196896D01*
X277767Y196824D01*
X277516Y196738D01*
X277298Y196638D01*
X277113Y196524D01*
X276961Y196396D01*
X276396Y196961D01*
X276524Y197113D01*
X276638Y197298D01*
X276738Y197516D01*
X276824Y197767D01*
X276896Y198051D01*
X276954Y198369D01*
X276998Y198719D01*
X277045Y199520D01*
X277047Y199970D01*
X279971Y197047D01*
D02*
G37*
G36*
X182955Y199520D02*
X183001Y198719D01*
X183046Y198369D01*
X183104Y198051D01*
X183176Y197767D01*
X183262Y197516D01*
X183362Y197298D01*
X183476Y197113D01*
X183604Y196961D01*
X183039Y196396D01*
X182887Y196524D01*
X182702Y196638D01*
X182484Y196738D01*
X182233Y196824D01*
X181949Y196896D01*
X181631Y196954D01*
X181281Y196999D01*
X180480Y197045D01*
X180029Y197047D01*
X182953Y199970D01*
X182955Y199520D01*
D02*
G37*
G36*
X179971Y197047D02*
X179520Y197045D01*
X178719Y196999D01*
X178369Y196954D01*
X178051Y196896D01*
X177767Y196824D01*
X177516Y196738D01*
X177298Y196638D01*
X177113Y196524D01*
X176961Y196396D01*
X176396Y196961D01*
X176524Y197113D01*
X176638Y197298D01*
X176738Y197516D01*
X176824Y197767D01*
X176896Y198051D01*
X176954Y198369D01*
X176999Y198719D01*
X177045Y199520D01*
X177047Y199970D01*
X179971Y197047D01*
D02*
G37*
G36*
X122955Y199520D02*
X123001Y198719D01*
X123046Y198369D01*
X123104Y198051D01*
X123176Y197767D01*
X123262Y197516D01*
X123362Y197298D01*
X123476Y197113D01*
X123604Y196961D01*
X123039Y196396D01*
X122887Y196524D01*
X122702Y196638D01*
X122484Y196738D01*
X122233Y196824D01*
X121949Y196896D01*
X121631Y196954D01*
X121281Y196999D01*
X120480Y197045D01*
X120029Y197047D01*
X122953Y199970D01*
X122955Y199520D01*
D02*
G37*
G36*
X112955D02*
X113001Y198719D01*
X113046Y198369D01*
X113104Y198051D01*
X113176Y197767D01*
X113262Y197516D01*
X113362Y197298D01*
X113476Y197113D01*
X113604Y196961D01*
X113039Y196396D01*
X112887Y196524D01*
X112702Y196638D01*
X112484Y196738D01*
X112233Y196824D01*
X111949Y196896D01*
X111631Y196954D01*
X111281Y196999D01*
X110480Y197045D01*
X110029Y197047D01*
X112953Y199970D01*
X112955Y199520D01*
D02*
G37*
G36*
X186786Y191800D02*
X186725Y191857D01*
X186660Y191908D01*
X186590Y191953D01*
X186516Y191992D01*
X186438Y192025D01*
X186356Y192052D01*
X186269Y192073D01*
X186178Y192088D01*
X186083Y192097D01*
X185984Y192100D01*
Y192900D01*
X186083Y192903D01*
X186178Y192912D01*
X186269Y192927D01*
X186356Y192948D01*
X186438Y192975D01*
X186516Y193008D01*
X186590Y193047D01*
X186660Y193092D01*
X186725Y193143D01*
X186786Y193200D01*
Y191800D01*
D02*
G37*
G36*
X137286Y190900D02*
X137225Y190957D01*
X137160Y191008D01*
X137090Y191053D01*
X137016Y191092D01*
X136938Y191125D01*
X136856Y191152D01*
X136769Y191173D01*
X136678Y191188D01*
X136583Y191197D01*
X136484Y191200D01*
Y192000D01*
X136583Y192003D01*
X136678Y192012D01*
X136769Y192027D01*
X136856Y192048D01*
X136938Y192075D01*
X137016Y192108D01*
X137090Y192147D01*
X137160Y192192D01*
X137225Y192243D01*
X137286Y192300D01*
Y190900D01*
D02*
G37*
G36*
X185897Y190643D02*
X185962Y190592D01*
X186032Y190547D01*
X186106Y190508D01*
X186184Y190475D01*
X186266Y190448D01*
X186353Y190427D01*
X186444Y190412D01*
X186539Y190403D01*
X186639Y190400D01*
Y189600D01*
X186539Y189597D01*
X186444Y189588D01*
X186353Y189573D01*
X186266Y189552D01*
X186184Y189525D01*
X186106Y189492D01*
X186032Y189453D01*
X185962Y189408D01*
X185897Y189357D01*
X185836Y189300D01*
Y190700D01*
X185897Y190643D01*
D02*
G37*
G36*
X132856Y190782D02*
X132903Y190702D01*
X132961Y190631D01*
X133032Y190570D01*
X133114Y190518D01*
X133207Y190475D01*
X133313Y190443D01*
X133430Y190419D01*
X133559Y190405D01*
X133700Y190400D01*
Y189600D01*
X133559Y189595D01*
X133430Y189581D01*
X133313Y189558D01*
X133207Y189524D01*
X133114Y189482D01*
X133032Y189430D01*
X132961Y189369D01*
X132903Y189298D01*
X132856Y189218D01*
X132821Y189128D01*
Y190872D01*
X132856Y190782D01*
D02*
G37*
G36*
X207891Y187933D02*
X207571Y188250D01*
X206972Y188783D01*
X206693Y189000D01*
X206427Y189183D01*
X206175Y189333D01*
X205937Y189450D01*
X205712Y189533D01*
X205501Y189583D01*
X205303Y189600D01*
Y190400D01*
X205501Y190417D01*
X205712Y190467D01*
X205937Y190550D01*
X206175Y190667D01*
X206427Y190817D01*
X206693Y191000D01*
X206972Y191217D01*
X207571Y191750D01*
X207891Y192067D01*
Y187933D01*
D02*
G37*
G36*
X539970Y187047D02*
X539520Y187045D01*
X538719Y186999D01*
X538369Y186954D01*
X538051Y186896D01*
X537767Y186824D01*
X537516Y186738D01*
X537298Y186638D01*
X537113Y186524D01*
X536961Y186396D01*
X536396Y186961D01*
X536524Y187113D01*
X536638Y187298D01*
X536738Y187516D01*
X536824Y187767D01*
X536896Y188051D01*
X536954Y188369D01*
X536999Y188719D01*
X537045Y189520D01*
X537047Y189971D01*
X539970Y187047D01*
D02*
G37*
G36*
X492955Y189520D02*
X493002Y188719D01*
X493046Y188369D01*
X493104Y188051D01*
X493176Y187767D01*
X493262Y187516D01*
X493362Y187298D01*
X493476Y187113D01*
X493604Y186961D01*
X493039Y186396D01*
X492887Y186524D01*
X492702Y186638D01*
X492484Y186738D01*
X492233Y186824D01*
X491949Y186896D01*
X491631Y186954D01*
X491281Y186999D01*
X490480Y187045D01*
X490029Y187047D01*
X492953Y189971D01*
X492955Y189520D01*
D02*
G37*
G36*
X489970Y187047D02*
X489520Y187045D01*
X488719Y186999D01*
X488369Y186954D01*
X488051Y186896D01*
X487767Y186824D01*
X487516Y186738D01*
X487298Y186638D01*
X487113Y186524D01*
X486961Y186396D01*
X486396Y186961D01*
X486524Y187113D01*
X486638Y187298D01*
X486738Y187516D01*
X486824Y187767D01*
X486896Y188051D01*
X486954Y188369D01*
X486999Y188719D01*
X487045Y189520D01*
X487047Y189971D01*
X489970Y187047D01*
D02*
G37*
G36*
X442955Y189520D02*
X443002Y188719D01*
X443046Y188369D01*
X443104Y188051D01*
X443176Y187767D01*
X443262Y187516D01*
X443362Y187298D01*
X443476Y187113D01*
X443604Y186961D01*
X443039Y186396D01*
X442887Y186524D01*
X442702Y186638D01*
X442484Y186738D01*
X442233Y186824D01*
X441949Y186896D01*
X441631Y186954D01*
X441281Y186999D01*
X440480Y187045D01*
X440029Y187047D01*
X442953Y189971D01*
X442955Y189520D01*
D02*
G37*
G36*
X439970Y187047D02*
X439520Y187045D01*
X438719Y186999D01*
X438369Y186954D01*
X438051Y186896D01*
X437767Y186824D01*
X437516Y186738D01*
X437298Y186638D01*
X437113Y186524D01*
X436961Y186396D01*
X436396Y186961D01*
X436524Y187113D01*
X436638Y187298D01*
X436738Y187516D01*
X436824Y187767D01*
X436896Y188051D01*
X436954Y188369D01*
X436999Y188719D01*
X437045Y189520D01*
X437047Y189971D01*
X439970Y187047D01*
D02*
G37*
G36*
X382955Y189520D02*
X383001Y188719D01*
X383046Y188369D01*
X383104Y188051D01*
X383176Y187767D01*
X383262Y187516D01*
X383362Y187298D01*
X383476Y187113D01*
X383604Y186961D01*
X383039Y186396D01*
X382887Y186524D01*
X382702Y186638D01*
X382484Y186738D01*
X382233Y186824D01*
X381949Y186896D01*
X381631Y186954D01*
X381281Y186999D01*
X380480Y187045D01*
X380030Y187047D01*
X382953Y189971D01*
X382955Y189520D01*
D02*
G37*
G36*
X379971Y187047D02*
X379520Y187045D01*
X378719Y186999D01*
X378369Y186954D01*
X378051Y186896D01*
X377767Y186824D01*
X377516Y186738D01*
X377298Y186638D01*
X377113Y186524D01*
X376961Y186396D01*
X376396Y186961D01*
X376524Y187113D01*
X376638Y187298D01*
X376738Y187516D01*
X376824Y187767D01*
X376896Y188051D01*
X376954Y188369D01*
X376998Y188719D01*
X377045Y189520D01*
X377047Y189971D01*
X379971Y187047D01*
D02*
G37*
G36*
X282955Y189520D02*
X283001Y188719D01*
X283046Y188369D01*
X283104Y188051D01*
X283176Y187767D01*
X283262Y187516D01*
X283362Y187298D01*
X283476Y187113D01*
X283604Y186961D01*
X283039Y186396D01*
X282887Y186524D01*
X282702Y186638D01*
X282484Y186738D01*
X282233Y186824D01*
X281949Y186896D01*
X281631Y186954D01*
X281281Y186999D01*
X280480Y187045D01*
X280030Y187047D01*
X282953Y189971D01*
X282955Y189520D01*
D02*
G37*
G36*
X279971Y187047D02*
X279520Y187045D01*
X278719Y186999D01*
X278369Y186954D01*
X278051Y186896D01*
X277767Y186824D01*
X277516Y186738D01*
X277298Y186638D01*
X277113Y186524D01*
X276961Y186396D01*
X276396Y186961D01*
X276524Y187113D01*
X276638Y187298D01*
X276738Y187516D01*
X276824Y187767D01*
X276896Y188051D01*
X276954Y188369D01*
X276998Y188719D01*
X277045Y189520D01*
X277047Y189971D01*
X279971Y187047D01*
D02*
G37*
G36*
X182955Y189520D02*
X183001Y188719D01*
X183046Y188369D01*
X183104Y188051D01*
X183176Y187767D01*
X183262Y187516D01*
X183362Y187298D01*
X183476Y187113D01*
X183604Y186961D01*
X183039Y186396D01*
X182887Y186524D01*
X182702Y186638D01*
X182484Y186738D01*
X182233Y186824D01*
X181949Y186896D01*
X181631Y186954D01*
X181281Y186999D01*
X180480Y187045D01*
X180029Y187047D01*
X182953Y189971D01*
X182955Y189520D01*
D02*
G37*
G36*
X179971Y187047D02*
X179520Y187045D01*
X178719Y186999D01*
X178369Y186954D01*
X178051Y186896D01*
X177767Y186824D01*
X177516Y186738D01*
X177298Y186638D01*
X177113Y186524D01*
X176961Y186396D01*
X176396Y186961D01*
X176524Y187113D01*
X176638Y187298D01*
X176738Y187516D01*
X176824Y187767D01*
X176896Y188051D01*
X176954Y188369D01*
X176999Y188719D01*
X177045Y189520D01*
X177047Y189971D01*
X179971Y187047D01*
D02*
G37*
G36*
X122955Y189520D02*
X123001Y188719D01*
X123046Y188369D01*
X123104Y188051D01*
X123176Y187767D01*
X123262Y187516D01*
X123362Y187298D01*
X123476Y187113D01*
X123604Y186961D01*
X123039Y186396D01*
X122887Y186524D01*
X122702Y186638D01*
X122484Y186738D01*
X122233Y186824D01*
X121949Y186896D01*
X121631Y186954D01*
X121281Y186999D01*
X120480Y187045D01*
X120029Y187047D01*
X122953Y189971D01*
X122955Y189520D01*
D02*
G37*
G36*
X112955D02*
X113001Y188719D01*
X113046Y188369D01*
X113104Y188051D01*
X113176Y187767D01*
X113262Y187516D01*
X113362Y187298D01*
X113476Y187113D01*
X113604Y186961D01*
X113039Y186396D01*
X112887Y186524D01*
X112702Y186638D01*
X112484Y186738D01*
X112233Y186824D01*
X111949Y186896D01*
X111631Y186954D01*
X111281Y186999D01*
X110480Y187045D01*
X110029Y187047D01*
X112953Y189971D01*
X112955Y189520D01*
D02*
G37*
G36*
X198286Y178800D02*
X198225Y178857D01*
X198160Y178908D01*
X198090Y178953D01*
X198016Y178992D01*
X197938Y179025D01*
X197856Y179052D01*
X197769Y179073D01*
X197678Y179088D01*
X197583Y179097D01*
X197484Y179100D01*
Y179900D01*
X197583Y179903D01*
X197678Y179912D01*
X197769Y179927D01*
X197856Y179948D01*
X197938Y179975D01*
X198016Y180008D01*
X198090Y180047D01*
X198160Y180092D01*
X198225Y180143D01*
X198286Y180200D01*
Y178800D01*
D02*
G37*
G36*
X539970Y177047D02*
X539520Y177045D01*
X538719Y176999D01*
X538369Y176954D01*
X538051Y176896D01*
X537767Y176824D01*
X537516Y176738D01*
X537298Y176638D01*
X537113Y176524D01*
X536961Y176396D01*
X536396Y176961D01*
X536524Y177113D01*
X536638Y177298D01*
X536738Y177516D01*
X536824Y177767D01*
X536896Y178051D01*
X536954Y178369D01*
X536999Y178719D01*
X537045Y179520D01*
X537047Y179971D01*
X539970Y177047D01*
D02*
G37*
G36*
X492955Y179520D02*
X493002Y178719D01*
X493046Y178369D01*
X493104Y178051D01*
X493176Y177767D01*
X493262Y177516D01*
X493362Y177298D01*
X493476Y177113D01*
X493604Y176961D01*
X493039Y176396D01*
X492887Y176524D01*
X492702Y176638D01*
X492484Y176738D01*
X492233Y176824D01*
X491949Y176896D01*
X491631Y176954D01*
X491281Y176999D01*
X490480Y177045D01*
X490029Y177047D01*
X492953Y179971D01*
X492955Y179520D01*
D02*
G37*
G36*
X489970Y177047D02*
X489520Y177045D01*
X488719Y176999D01*
X488369Y176954D01*
X488051Y176896D01*
X487767Y176824D01*
X487516Y176738D01*
X487298Y176638D01*
X487113Y176524D01*
X486961Y176396D01*
X486396Y176961D01*
X486524Y177113D01*
X486638Y177298D01*
X486738Y177516D01*
X486824Y177767D01*
X486896Y178051D01*
X486954Y178369D01*
X486999Y178719D01*
X487045Y179520D01*
X487047Y179971D01*
X489970Y177047D01*
D02*
G37*
G36*
X442955Y179520D02*
X443002Y178719D01*
X443046Y178369D01*
X443104Y178051D01*
X443176Y177767D01*
X443262Y177516D01*
X443362Y177298D01*
X443476Y177113D01*
X443604Y176961D01*
X443039Y176396D01*
X442887Y176524D01*
X442702Y176638D01*
X442484Y176738D01*
X442233Y176824D01*
X441949Y176896D01*
X441631Y176954D01*
X441281Y176999D01*
X440480Y177045D01*
X440029Y177047D01*
X442953Y179971D01*
X442955Y179520D01*
D02*
G37*
G36*
X439970Y177047D02*
X439520Y177045D01*
X438719Y176999D01*
X438369Y176954D01*
X438051Y176896D01*
X437767Y176824D01*
X437516Y176738D01*
X437298Y176638D01*
X437113Y176524D01*
X436961Y176396D01*
X436396Y176961D01*
X436524Y177113D01*
X436638Y177298D01*
X436738Y177516D01*
X436824Y177767D01*
X436896Y178051D01*
X436954Y178369D01*
X436999Y178719D01*
X437045Y179520D01*
X437047Y179971D01*
X439970Y177047D01*
D02*
G37*
G36*
X382955Y179520D02*
X383001Y178719D01*
X383046Y178369D01*
X383104Y178051D01*
X383176Y177767D01*
X383262Y177516D01*
X383362Y177298D01*
X383476Y177113D01*
X383604Y176961D01*
X383039Y176396D01*
X382887Y176524D01*
X382702Y176638D01*
X382484Y176738D01*
X382233Y176824D01*
X381949Y176896D01*
X381631Y176954D01*
X381281Y176999D01*
X380480Y177045D01*
X380030Y177047D01*
X382953Y179971D01*
X382955Y179520D01*
D02*
G37*
G36*
X379971Y177047D02*
X379520Y177045D01*
X378719Y176999D01*
X378369Y176954D01*
X378051Y176896D01*
X377767Y176824D01*
X377516Y176738D01*
X377298Y176638D01*
X377113Y176524D01*
X376961Y176396D01*
X376396Y176961D01*
X376524Y177113D01*
X376638Y177298D01*
X376738Y177516D01*
X376824Y177767D01*
X376896Y178051D01*
X376954Y178369D01*
X376998Y178719D01*
X377045Y179520D01*
X377047Y179971D01*
X379971Y177047D01*
D02*
G37*
G36*
X282955Y179520D02*
X283001Y178719D01*
X283046Y178369D01*
X283104Y178051D01*
X283176Y177767D01*
X283262Y177516D01*
X283362Y177298D01*
X283476Y177113D01*
X283604Y176961D01*
X283039Y176396D01*
X282887Y176524D01*
X282702Y176638D01*
X282484Y176738D01*
X282233Y176824D01*
X281949Y176896D01*
X281631Y176954D01*
X281281Y176999D01*
X280480Y177045D01*
X280030Y177047D01*
X282953Y179971D01*
X282955Y179520D01*
D02*
G37*
G36*
X279971Y177047D02*
X279520Y177045D01*
X278719Y176999D01*
X278369Y176954D01*
X278051Y176896D01*
X277767Y176824D01*
X277516Y176738D01*
X277298Y176638D01*
X277113Y176524D01*
X276961Y176396D01*
X276396Y176961D01*
X276524Y177113D01*
X276638Y177298D01*
X276738Y177516D01*
X276824Y177767D01*
X276896Y178051D01*
X276954Y178369D01*
X276998Y178719D01*
X277045Y179520D01*
X277047Y179971D01*
X279971Y177047D01*
D02*
G37*
G36*
X182955Y179520D02*
X183001Y178719D01*
X183046Y178369D01*
X183104Y178051D01*
X183176Y177767D01*
X183262Y177516D01*
X183362Y177298D01*
X183476Y177113D01*
X183604Y176961D01*
X183039Y176396D01*
X182887Y176524D01*
X182702Y176638D01*
X182484Y176738D01*
X182233Y176824D01*
X181949Y176896D01*
X181631Y176954D01*
X181281Y176999D01*
X180480Y177045D01*
X180029Y177047D01*
X182953Y179971D01*
X182955Y179520D01*
D02*
G37*
G36*
X179971Y177047D02*
X179520Y177045D01*
X178719Y176999D01*
X178369Y176954D01*
X178051Y176896D01*
X177767Y176824D01*
X177516Y176738D01*
X177298Y176638D01*
X177113Y176524D01*
X176961Y176396D01*
X176396Y176961D01*
X176524Y177113D01*
X176638Y177298D01*
X176738Y177516D01*
X176824Y177767D01*
X176896Y178051D01*
X176954Y178369D01*
X176999Y178719D01*
X177045Y179520D01*
X177047Y179971D01*
X179971Y177047D01*
D02*
G37*
G36*
X122955Y179520D02*
X123001Y178719D01*
X123046Y178369D01*
X123104Y178051D01*
X123176Y177767D01*
X123262Y177516D01*
X123362Y177298D01*
X123476Y177113D01*
X123604Y176961D01*
X123039Y176396D01*
X122887Y176524D01*
X122702Y176638D01*
X122484Y176738D01*
X122233Y176824D01*
X121949Y176896D01*
X121631Y176954D01*
X121281Y176999D01*
X120480Y177045D01*
X120029Y177047D01*
X122953Y179971D01*
X122955Y179520D01*
D02*
G37*
G36*
X112955D02*
X113001Y178719D01*
X113046Y178369D01*
X113104Y178051D01*
X113176Y177767D01*
X113262Y177516D01*
X113362Y177298D01*
X113476Y177113D01*
X113604Y176961D01*
X113039Y176396D01*
X112887Y176524D01*
X112702Y176638D01*
X112484Y176738D01*
X112233Y176824D01*
X111949Y176896D01*
X111631Y176954D01*
X111281Y176999D01*
X110480Y177045D01*
X110029Y177047D01*
X112953Y179971D01*
X112955Y179520D01*
D02*
G37*
G36*
X155286Y168300D02*
X155225Y168357D01*
X155160Y168408D01*
X155090Y168453D01*
X155016Y168492D01*
X154938Y168525D01*
X154856Y168552D01*
X154769Y168573D01*
X154678Y168588D01*
X154583Y168597D01*
X154483Y168600D01*
Y169400D01*
X154583Y169403D01*
X154678Y169412D01*
X154769Y169427D01*
X154856Y169448D01*
X154938Y169475D01*
X155016Y169508D01*
X155090Y169547D01*
X155160Y169592D01*
X155225Y169643D01*
X155286Y169700D01*
Y168300D01*
D02*
G37*
G36*
X539970Y167047D02*
X539520Y167045D01*
X538719Y166999D01*
X538369Y166954D01*
X538051Y166896D01*
X537767Y166824D01*
X537516Y166738D01*
X537298Y166638D01*
X537113Y166524D01*
X536961Y166396D01*
X536396Y166961D01*
X536524Y167113D01*
X536638Y167298D01*
X536738Y167516D01*
X536824Y167767D01*
X536896Y168051D01*
X536954Y168369D01*
X536999Y168719D01*
X537045Y169520D01*
X537047Y169971D01*
X539970Y167047D01*
D02*
G37*
G36*
X492955Y169520D02*
X493002Y168719D01*
X493046Y168369D01*
X493104Y168051D01*
X493176Y167767D01*
X493262Y167516D01*
X493362Y167298D01*
X493476Y167113D01*
X493604Y166961D01*
X493039Y166396D01*
X492887Y166524D01*
X492702Y166638D01*
X492484Y166738D01*
X492233Y166824D01*
X491949Y166896D01*
X491631Y166954D01*
X491281Y166999D01*
X490480Y167045D01*
X490029Y167047D01*
X492953Y169971D01*
X492955Y169520D01*
D02*
G37*
G36*
X489970Y167047D02*
X489520Y167045D01*
X488719Y166999D01*
X488369Y166954D01*
X488051Y166896D01*
X487767Y166824D01*
X487516Y166738D01*
X487298Y166638D01*
X487113Y166524D01*
X486961Y166396D01*
X486396Y166961D01*
X486524Y167113D01*
X486638Y167298D01*
X486738Y167516D01*
X486824Y167767D01*
X486896Y168051D01*
X486954Y168369D01*
X486999Y168719D01*
X487045Y169520D01*
X487047Y169971D01*
X489970Y167047D01*
D02*
G37*
G36*
X442955Y169520D02*
X443002Y168719D01*
X443046Y168369D01*
X443104Y168051D01*
X443176Y167767D01*
X443262Y167516D01*
X443362Y167298D01*
X443476Y167113D01*
X443604Y166961D01*
X443039Y166396D01*
X442887Y166524D01*
X442702Y166638D01*
X442484Y166738D01*
X442233Y166824D01*
X441949Y166896D01*
X441631Y166954D01*
X441281Y166999D01*
X440480Y167045D01*
X440029Y167047D01*
X442953Y169971D01*
X442955Y169520D01*
D02*
G37*
G36*
X439970Y167047D02*
X439520Y167045D01*
X438719Y166999D01*
X438369Y166954D01*
X438051Y166896D01*
X437767Y166824D01*
X437516Y166738D01*
X437298Y166638D01*
X437113Y166524D01*
X436961Y166396D01*
X436396Y166961D01*
X436524Y167113D01*
X436638Y167298D01*
X436738Y167516D01*
X436824Y167767D01*
X436896Y168051D01*
X436954Y168369D01*
X436999Y168719D01*
X437045Y169520D01*
X437047Y169971D01*
X439970Y167047D01*
D02*
G37*
G36*
X382955Y169520D02*
X383001Y168719D01*
X383046Y168369D01*
X383104Y168051D01*
X383176Y167767D01*
X383262Y167516D01*
X383362Y167298D01*
X383476Y167113D01*
X383604Y166961D01*
X383039Y166396D01*
X382887Y166524D01*
X382702Y166638D01*
X382484Y166738D01*
X382233Y166824D01*
X381949Y166896D01*
X381631Y166954D01*
X381281Y166999D01*
X380480Y167045D01*
X380030Y167047D01*
X382953Y169971D01*
X382955Y169520D01*
D02*
G37*
G36*
X379971Y167047D02*
X379520Y167045D01*
X378719Y166999D01*
X378369Y166954D01*
X378051Y166896D01*
X377767Y166824D01*
X377516Y166738D01*
X377298Y166638D01*
X377113Y166524D01*
X376961Y166396D01*
X376396Y166961D01*
X376524Y167113D01*
X376638Y167298D01*
X376738Y167516D01*
X376824Y167767D01*
X376896Y168051D01*
X376954Y168369D01*
X376998Y168719D01*
X377045Y169520D01*
X377047Y169971D01*
X379971Y167047D01*
D02*
G37*
G36*
X282955Y169520D02*
X283001Y168719D01*
X283046Y168369D01*
X283104Y168051D01*
X283176Y167767D01*
X283262Y167516D01*
X283362Y167298D01*
X283476Y167113D01*
X283604Y166961D01*
X283039Y166396D01*
X282887Y166524D01*
X282702Y166638D01*
X282484Y166738D01*
X282233Y166824D01*
X281949Y166896D01*
X281631Y166954D01*
X281281Y166999D01*
X280480Y167045D01*
X280030Y167047D01*
X282953Y169971D01*
X282955Y169520D01*
D02*
G37*
G36*
X279971Y167047D02*
X279520Y167045D01*
X278719Y166999D01*
X278369Y166954D01*
X278051Y166896D01*
X277767Y166824D01*
X277516Y166738D01*
X277298Y166638D01*
X277113Y166524D01*
X276961Y166396D01*
X276396Y166961D01*
X276524Y167113D01*
X276638Y167298D01*
X276738Y167516D01*
X276824Y167767D01*
X276896Y168051D01*
X276954Y168369D01*
X276998Y168719D01*
X277045Y169520D01*
X277047Y169971D01*
X279971Y167047D01*
D02*
G37*
G36*
X182955Y169520D02*
X183001Y168719D01*
X183046Y168369D01*
X183104Y168051D01*
X183176Y167767D01*
X183262Y167516D01*
X183362Y167298D01*
X183476Y167113D01*
X183604Y166961D01*
X183039Y166396D01*
X182887Y166524D01*
X182702Y166638D01*
X182484Y166738D01*
X182233Y166824D01*
X181949Y166896D01*
X181631Y166954D01*
X181281Y166999D01*
X180480Y167045D01*
X180029Y167047D01*
X182953Y169971D01*
X182955Y169520D01*
D02*
G37*
G36*
X179971Y167047D02*
X179520Y167045D01*
X178719Y166999D01*
X178369Y166954D01*
X178051Y166896D01*
X177767Y166824D01*
X177516Y166738D01*
X177298Y166638D01*
X177113Y166524D01*
X176961Y166396D01*
X176396Y166961D01*
X176524Y167113D01*
X176638Y167298D01*
X176738Y167516D01*
X176824Y167767D01*
X176896Y168051D01*
X176954Y168369D01*
X176999Y168719D01*
X177045Y169520D01*
X177047Y169971D01*
X179971Y167047D01*
D02*
G37*
G36*
X122955Y169520D02*
X123001Y168719D01*
X123046Y168369D01*
X123104Y168051D01*
X123176Y167767D01*
X123262Y167516D01*
X123362Y167298D01*
X123476Y167113D01*
X123604Y166961D01*
X123039Y166396D01*
X122887Y166524D01*
X122702Y166638D01*
X122484Y166738D01*
X122233Y166824D01*
X121949Y166896D01*
X121631Y166954D01*
X121281Y166999D01*
X120480Y167045D01*
X120029Y167047D01*
X122953Y169971D01*
X122955Y169520D01*
D02*
G37*
G36*
X112955D02*
X113001Y168719D01*
X113046Y168369D01*
X113104Y168051D01*
X113176Y167767D01*
X113262Y167516D01*
X113362Y167298D01*
X113476Y167113D01*
X113604Y166961D01*
X113039Y166396D01*
X112887Y166524D01*
X112702Y166638D01*
X112484Y166738D01*
X112233Y166824D01*
X111949Y166896D01*
X111631Y166954D01*
X111281Y166999D01*
X110480Y167045D01*
X110029Y167047D01*
X112953Y169971D01*
X112955Y169520D01*
D02*
G37*
G36*
X145275Y160143D02*
X145340Y160092D01*
X145410Y160047D01*
X145484Y160008D01*
X145562Y159975D01*
X145644Y159948D01*
X145731Y159927D01*
X145822Y159912D01*
X145917Y159903D01*
X146017Y159900D01*
Y159100D01*
X145917Y159097D01*
X145822Y159088D01*
X145731Y159073D01*
X145644Y159052D01*
X145562Y159025D01*
X145484Y158992D01*
X145410Y158953D01*
X145340Y158908D01*
X145275Y158857D01*
X145214Y158800D01*
Y160200D01*
X145275Y160143D01*
D02*
G37*
G36*
X141775Y157143D02*
X141840Y157092D01*
X141910Y157047D01*
X141984Y157008D01*
X142062Y156975D01*
X142144Y156948D01*
X142231Y156927D01*
X142322Y156912D01*
X142417Y156903D01*
X142517Y156900D01*
Y156100D01*
X142417Y156097D01*
X142322Y156088D01*
X142231Y156073D01*
X142144Y156052D01*
X142062Y156025D01*
X141984Y155992D01*
X141910Y155953D01*
X141840Y155908D01*
X141775Y155857D01*
X141714Y155800D01*
Y157200D01*
X141775Y157143D01*
D02*
G37*
G36*
X256242Y154349D02*
X256470Y154196D01*
X256720Y154073D01*
X256991Y153979D01*
X257283Y153914D01*
X257596Y153878D01*
X257931Y153872D01*
X258287Y153894D01*
X258664Y153946D01*
X259063Y154026D01*
X255974Y150937D01*
X256054Y151336D01*
X256106Y151713D01*
X256128Y152069D01*
X256122Y152404D01*
X256086Y152717D01*
X256021Y153009D01*
X255927Y153280D01*
X255804Y153530D01*
X255651Y153758D01*
X255470Y153964D01*
X256036Y154530D01*
X256242Y154349D01*
D02*
G37*
G36*
X355816Y154785D02*
X356064Y154642D01*
X356366Y154517D01*
X356721Y154409D01*
X357128Y154319D01*
X357588Y154247D01*
X358668Y154155D01*
X359287Y154136D01*
X359959Y154134D01*
X355866Y150041D01*
X355865Y150713D01*
X355753Y152412D01*
X355681Y152872D01*
X355591Y153279D01*
X355483Y153634D01*
X355358Y153936D01*
X355215Y154184D01*
X355054Y154380D01*
X355620Y154946D01*
X355816Y154785D01*
D02*
G37*
G36*
X138275Y150643D02*
X138340Y150592D01*
X138410Y150547D01*
X138484Y150508D01*
X138562Y150475D01*
X138644Y150448D01*
X138731Y150427D01*
X138822Y150412D01*
X138917Y150403D01*
X139016Y150400D01*
Y149600D01*
X138917Y149597D01*
X138822Y149588D01*
X138731Y149573D01*
X138644Y149552D01*
X138562Y149525D01*
X138484Y149492D01*
X138410Y149453D01*
X138340Y149408D01*
X138275Y149357D01*
X138214Y149300D01*
Y150700D01*
X138275Y150643D01*
D02*
G37*
G36*
X567071Y148000D02*
X567051Y148190D01*
X566991Y148360D01*
X566890Y148510D01*
X566749Y148640D01*
X566568Y148750D01*
X566347Y148840D01*
X566085Y148910D01*
X565784Y148960D01*
X565442Y148990D01*
X565059Y149000D01*
Y151000D01*
X565442Y151010D01*
X565784Y151040D01*
X566085Y151090D01*
X566347Y151160D01*
X566568Y151250D01*
X566749Y151360D01*
X566890Y151490D01*
X566991Y151640D01*
X567051Y151810D01*
X567071Y152000D01*
Y148000D01*
D02*
G37*
G36*
X542321Y151864D02*
X542541Y151683D01*
X542768Y151523D01*
X543001Y151384D01*
X543242Y151267D01*
X543490Y151171D01*
X543744Y151096D01*
X544006Y151043D01*
X544274Y151011D01*
X544550Y151000D01*
Y149000D01*
X544274Y148989D01*
X544006Y148957D01*
X543744Y148904D01*
X543490Y148829D01*
X543242Y148733D01*
X543001Y148616D01*
X542768Y148477D01*
X542541Y148317D01*
X542321Y148136D01*
X542109Y147933D01*
Y152067D01*
X542321Y151864D01*
D02*
G37*
G36*
X157048Y147106D02*
X156571Y147580D01*
X155292Y148702D01*
X154915Y148977D01*
X154563Y149201D01*
X154236Y149376D01*
X153934Y149500D01*
X153657Y149575D01*
X153405Y149600D01*
Y150400D01*
X153657Y150425D01*
X153934Y150500D01*
X154236Y150624D01*
X154563Y150799D01*
X154915Y151023D01*
X155292Y151298D01*
X156120Y151996D01*
X156571Y152420D01*
X157048Y152894D01*
Y147106D01*
D02*
G37*
G36*
X541864Y147679D02*
X541683Y147459D01*
X541523Y147232D01*
X541384Y146999D01*
X541267Y146758D01*
X541171Y146511D01*
X541096Y146256D01*
X541043Y145994D01*
X541011Y145726D01*
X541000Y145450D01*
X539000D01*
X538989Y145726D01*
X538957Y145994D01*
X538904Y146256D01*
X538829Y146511D01*
X538733Y146758D01*
X538616Y146999D01*
X538477Y147232D01*
X538317Y147459D01*
X538136Y147679D01*
X537933Y147891D01*
X542067D01*
X541864Y147679D01*
D02*
G37*
G36*
X491864D02*
X491683Y147459D01*
X491523Y147232D01*
X491384Y146999D01*
X491267Y146758D01*
X491171Y146511D01*
X491096Y146256D01*
X491043Y145994D01*
X491011Y145726D01*
X491000Y145450D01*
X489000D01*
X488989Y145726D01*
X488957Y145994D01*
X488904Y146256D01*
X488829Y146511D01*
X488733Y146758D01*
X488616Y146999D01*
X488477Y147232D01*
X488317Y147459D01*
X488136Y147679D01*
X487933Y147891D01*
X492067D01*
X491864Y147679D01*
D02*
G37*
G36*
X441864D02*
X441683Y147459D01*
X441523Y147232D01*
X441384Y146999D01*
X441267Y146758D01*
X441171Y146511D01*
X441096Y146256D01*
X441043Y145994D01*
X441011Y145726D01*
X441000Y145450D01*
X439000D01*
X438989Y145726D01*
X438957Y145994D01*
X438904Y146256D01*
X438829Y146511D01*
X438733Y146758D01*
X438616Y146999D01*
X438477Y147232D01*
X438317Y147459D01*
X438136Y147679D01*
X437933Y147891D01*
X442067D01*
X441864Y147679D01*
D02*
G37*
G36*
X381864D02*
X381683Y147459D01*
X381523Y147232D01*
X381384Y146999D01*
X381267Y146758D01*
X381171Y146511D01*
X381096Y146256D01*
X381043Y145994D01*
X381011Y145726D01*
X381000Y145450D01*
X379000D01*
X378989Y145726D01*
X378957Y145994D01*
X378904Y146256D01*
X378829Y146511D01*
X378733Y146758D01*
X378616Y146999D01*
X378477Y147232D01*
X378317Y147459D01*
X378136Y147679D01*
X377933Y147891D01*
X382067D01*
X381864Y147679D01*
D02*
G37*
G36*
X181864D02*
X181683Y147459D01*
X181523Y147232D01*
X181384Y146999D01*
X181267Y146758D01*
X181171Y146511D01*
X181096Y146256D01*
X181043Y145994D01*
X181011Y145726D01*
X181000Y145450D01*
X179000D01*
X178989Y145726D01*
X178957Y145994D01*
X178904Y146256D01*
X178829Y146511D01*
X178733Y146758D01*
X178616Y146999D01*
X178477Y147232D01*
X178317Y147459D01*
X178136Y147679D01*
X177933Y147891D01*
X182067D01*
X181864Y147679D01*
D02*
G37*
G36*
X521810Y147039D02*
X521640Y146979D01*
X521490Y146879D01*
X521360Y146739D01*
X521250Y146559D01*
X521160Y146339D01*
X521090Y146079D01*
X521040Y145779D01*
X521010Y145439D01*
X521000Y145059D01*
X519000D01*
X518990Y145439D01*
X518960Y145779D01*
X518910Y146079D01*
X518840Y146339D01*
X518750Y146559D01*
X518640Y146739D01*
X518510Y146879D01*
X518360Y146979D01*
X518190Y147039D01*
X518000Y147059D01*
X522000D01*
X521810Y147039D01*
D02*
G37*
G36*
X471810D02*
X471640Y146979D01*
X471490Y146879D01*
X471360Y146739D01*
X471250Y146559D01*
X471160Y146339D01*
X471090Y146079D01*
X471040Y145779D01*
X471010Y145439D01*
X471000Y145059D01*
X469000D01*
X468990Y145439D01*
X468960Y145779D01*
X468910Y146079D01*
X468840Y146339D01*
X468750Y146559D01*
X468640Y146739D01*
X468510Y146879D01*
X468360Y146979D01*
X468190Y147039D01*
X468000Y147059D01*
X472000D01*
X471810Y147039D01*
D02*
G37*
G36*
X411810D02*
X411640Y146979D01*
X411490Y146879D01*
X411360Y146739D01*
X411250Y146559D01*
X411160Y146339D01*
X411090Y146079D01*
X411040Y145779D01*
X411010Y145439D01*
X411000Y145059D01*
X409000D01*
X408990Y145439D01*
X408960Y145779D01*
X408910Y146079D01*
X408840Y146339D01*
X408750Y146559D01*
X408640Y146739D01*
X408510Y146879D01*
X408360Y146979D01*
X408190Y147039D01*
X408000Y147059D01*
X412000D01*
X411810Y147039D01*
D02*
G37*
G36*
X311810D02*
X311640Y146979D01*
X311490Y146879D01*
X311360Y146739D01*
X311250Y146559D01*
X311160Y146339D01*
X311090Y146079D01*
X311040Y145779D01*
X311010Y145439D01*
X311000Y145059D01*
X309000D01*
X308990Y145439D01*
X308960Y145779D01*
X308910Y146079D01*
X308840Y146339D01*
X308750Y146559D01*
X308640Y146739D01*
X308510Y146879D01*
X308360Y146979D01*
X308190Y147039D01*
X308000Y147059D01*
X312000D01*
X311810Y147039D01*
D02*
G37*
G36*
X211810D02*
X211640Y146979D01*
X211490Y146879D01*
X211360Y146739D01*
X211250Y146559D01*
X211160Y146339D01*
X211090Y146079D01*
X211040Y145779D01*
X211010Y145439D01*
X211000Y145059D01*
X209000D01*
X208990Y145439D01*
X208960Y145779D01*
X208910Y146079D01*
X208840Y146339D01*
X208750Y146559D01*
X208640Y146739D01*
X208510Y146879D01*
X208360Y146979D01*
X208190Y147039D01*
X208000Y147059D01*
X212000D01*
X211810Y147039D01*
D02*
G37*
G36*
X181020Y142620D02*
X181080Y142280D01*
X181180Y141980D01*
X181320Y141720D01*
X181500Y141500D01*
X181720Y141320D01*
X181980Y141180D01*
X182280Y141080D01*
X182620Y141020D01*
X183000Y141000D01*
Y139000D01*
X183000D01*
Y139000D01*
X182620Y138980D01*
X182280Y138920D01*
X181980Y138820D01*
X181720Y138680D01*
X181500Y138500D01*
X181320Y138280D01*
X181201Y138059D01*
X181250Y137940D01*
X181360Y137759D01*
X181490Y137618D01*
X181640Y137517D01*
X181810Y137457D01*
X182000Y137437D01*
X181030D01*
X181020Y137380D01*
X181000Y137000D01*
X180709Y137437D01*
X178000D01*
X178190Y137457D01*
X178360Y137517D01*
X178510Y137618D01*
X178640Y137759D01*
X178750Y137940D01*
X178840Y138161D01*
X178910Y138423D01*
X178960Y138724D01*
X178990Y139066D01*
X179000Y139449D01*
X179368D01*
X179000Y140000D01*
X181000Y143000D01*
Y143000D01*
X181000Y143000D01*
X181020Y142620D01*
D02*
G37*
G36*
X521020D02*
X521080Y142280D01*
X521180Y141980D01*
X521320Y141720D01*
X521500Y141500D01*
X521720Y141320D01*
X521980Y141180D01*
X522280Y141080D01*
X522620Y141020D01*
X523000Y141000D01*
X520000Y139000D01*
X517000Y141000D01*
X517380Y141020D01*
X517720Y141080D01*
X518020Y141180D01*
X518280Y141320D01*
X518500Y141500D01*
X518680Y141720D01*
X518820Y141980D01*
X518920Y142280D01*
X518980Y142620D01*
X519000Y143000D01*
X521000D01*
X521020Y142620D01*
D02*
G37*
G36*
X471020D02*
X471080Y142280D01*
X471180Y141980D01*
X471320Y141720D01*
X471500Y141500D01*
X471720Y141320D01*
X471980Y141180D01*
X472280Y141080D01*
X472620Y141020D01*
X473000Y141000D01*
X470000Y139000D01*
X467000Y141000D01*
X467380Y141020D01*
X467720Y141080D01*
X468020Y141180D01*
X468280Y141320D01*
X468500Y141500D01*
X468680Y141720D01*
X468820Y141980D01*
X468920Y142280D01*
X468980Y142620D01*
X469000Y143000D01*
X471000D01*
X471020Y142620D01*
D02*
G37*
G36*
X411020D02*
X411080Y142280D01*
X411180Y141980D01*
X411320Y141720D01*
X411500Y141500D01*
X411720Y141320D01*
X411980Y141180D01*
X412280Y141080D01*
X412620Y141020D01*
X413000Y141000D01*
X410000Y139000D01*
X407000Y141000D01*
X407380Y141020D01*
X407720Y141080D01*
X408020Y141180D01*
X408280Y141320D01*
X408500Y141500D01*
X408680Y141720D01*
X408820Y141980D01*
X408920Y142280D01*
X408980Y142620D01*
X409000Y143000D01*
X411000D01*
X411020Y142620D01*
D02*
G37*
G36*
X311020D02*
X311080Y142280D01*
X311180Y141980D01*
X311320Y141720D01*
X311500Y141500D01*
X311720Y141320D01*
X311980Y141180D01*
X312280Y141080D01*
X312620Y141020D01*
X313000Y141000D01*
X310000Y139000D01*
X307000Y141000D01*
X307380Y141020D01*
X307720Y141080D01*
X308020Y141180D01*
X308280Y141320D01*
X308500Y141500D01*
X308680Y141720D01*
X308820Y141980D01*
X308920Y142280D01*
X308980Y142620D01*
X309000Y143000D01*
X311000D01*
X311020Y142620D01*
D02*
G37*
G36*
X211020D02*
X211080Y142280D01*
X211180Y141980D01*
X211320Y141720D01*
X211500Y141500D01*
X211720Y141320D01*
X211980Y141180D01*
X212280Y141080D01*
X212620Y141020D01*
X213000Y141000D01*
X210000Y139000D01*
X207000Y141000D01*
X207380Y141020D01*
X207720Y141080D01*
X208020Y141180D01*
X208280Y141320D01*
X208500Y141500D01*
X208680Y141720D01*
X208820Y141980D01*
X208920Y142280D01*
X208980Y142620D01*
X209000Y143000D01*
X211000D01*
X211020Y142620D01*
D02*
G37*
G36*
X381020D02*
X381080Y142280D01*
X381180Y141980D01*
X381320Y141720D01*
X381500Y141500D01*
X381720Y141320D01*
X381980Y141180D01*
X382280Y141080D01*
X382620Y141020D01*
X383000Y141000D01*
Y139000D01*
X383000D01*
Y139000D01*
X382620Y138985D01*
X382280Y138940D01*
X381980Y138865D01*
X381720Y138760D01*
X381500Y138625D01*
X381320Y138460D01*
X381180Y138265D01*
X381080Y138040D01*
X381020Y137785D01*
X381000Y137500D01*
X379000D01*
X378980Y137785D01*
X378920Y138040D01*
X378820Y138265D01*
X378680Y138460D01*
X378500Y138625D01*
X378280Y138760D01*
X378020Y138865D01*
X377720Y138940D01*
X377380Y138985D01*
X377000Y139000D01*
Y139000D01*
Y141000D01*
Y141000D01*
X377380Y141020D01*
X377720Y141080D01*
X378020Y141180D01*
X378280Y141320D01*
X378500Y141500D01*
X378680Y141720D01*
X378820Y141980D01*
X378920Y142280D01*
X378980Y142620D01*
X379000Y143000D01*
X381000D01*
X381020Y142620D01*
D02*
G37*
G36*
X283863Y137449D02*
X283466Y137037D01*
X282841Y136301D01*
X282613Y135975D01*
X282443Y135678D01*
X282328Y135409D01*
X282271Y135169D01*
X282269Y134958D01*
X282325Y134775D01*
X282437Y134620D01*
X280000Y137057D01*
X277563Y134620D01*
X277675Y134775D01*
X277731Y134958D01*
X277730Y135169D01*
X277672Y135409D01*
X277557Y135678D01*
X277386Y135975D01*
X277159Y136301D01*
X276875Y136655D01*
X276137Y137449D01*
X277551Y138863D01*
X277963Y138466D01*
X278699Y137841D01*
X279025Y137613D01*
X279322Y137443D01*
X279591Y137328D01*
X279772Y137285D01*
X279620Y137437D01*
X279775Y137325D01*
X279956Y137270D01*
X280000Y137270D01*
X280044Y137270D01*
X280225Y137325D01*
X280380Y137437D01*
X280228Y137285D01*
X280409Y137328D01*
X280678Y137443D01*
X280975Y137613D01*
X281301Y137841D01*
X281655Y138125D01*
X282449Y138863D01*
X283863Y137449D01*
D02*
G37*
G36*
X541000Y140000D02*
X540632Y139449D01*
X541000D01*
X541010Y139066D01*
X541040Y138724D01*
X541090Y138423D01*
X541160Y138161D01*
X541250Y137940D01*
X541360Y137759D01*
X541490Y137618D01*
X541640Y137517D01*
X541810Y137457D01*
X542000Y137437D01*
X539291D01*
X539000Y137000D01*
X538980Y137380D01*
X538970Y137437D01*
X538000D01*
X538190Y137457D01*
X538360Y137517D01*
X538510Y137618D01*
X538640Y137759D01*
X538750Y137940D01*
X538799Y138059D01*
X538680Y138280D01*
X538500Y138500D01*
X538280Y138680D01*
X538020Y138820D01*
X537720Y138920D01*
X537380Y138980D01*
X537000Y139000D01*
Y141000D01*
X537380Y141020D01*
X537720Y141080D01*
X538020Y141180D01*
X538280Y141320D01*
X538500Y141500D01*
X538680Y141720D01*
X538820Y141980D01*
X538920Y142280D01*
X538980Y142620D01*
X539000Y143000D01*
X541000Y140000D01*
D02*
G37*
G36*
X491020Y142620D02*
X491080Y142280D01*
X491180Y141980D01*
X491320Y141720D01*
X491500Y141500D01*
X491720Y141320D01*
X491980Y141180D01*
X492280Y141080D01*
X492620Y141020D01*
X493000Y141000D01*
Y141000D01*
Y139000D01*
X492620Y138980D01*
X492280Y138920D01*
X491980Y138820D01*
X491720Y138680D01*
X491500Y138500D01*
X491320Y138280D01*
X491201Y138059D01*
X491250Y137940D01*
X491360Y137759D01*
X491490Y137618D01*
X491640Y137517D01*
X491810Y137457D01*
X492000Y137437D01*
X491030D01*
X491020Y137380D01*
X491000Y137000D01*
X489000D01*
X488980Y137380D01*
X488970Y137437D01*
X488000D01*
X488190Y137457D01*
X488360Y137517D01*
X488510Y137618D01*
X488640Y137759D01*
X488750Y137940D01*
X488799Y138059D01*
X488680Y138280D01*
X488500Y138500D01*
X488280Y138680D01*
X488020Y138820D01*
X487720Y138920D01*
X487380Y138980D01*
X487000Y139000D01*
Y139000D01*
X487000D01*
Y141000D01*
X487380Y141020D01*
X487720Y141080D01*
X488020Y141180D01*
X488280Y141320D01*
X488500Y141500D01*
X488680Y141720D01*
X488820Y141980D01*
X488920Y142280D01*
X488980Y142620D01*
X489000Y143000D01*
X491000D01*
X491020Y142620D01*
D02*
G37*
G36*
X441020D02*
X441080Y142280D01*
X441180Y141980D01*
X441320Y141720D01*
X441500Y141500D01*
X441720Y141320D01*
X441980Y141180D01*
X442280Y141080D01*
X442620Y141020D01*
X443000Y141000D01*
Y139000D01*
X443000D01*
Y139000D01*
X442620Y138980D01*
X442280Y138920D01*
X441980Y138820D01*
X441720Y138680D01*
X441500Y138500D01*
X441320Y138280D01*
X441201Y138059D01*
X441250Y137940D01*
X441360Y137759D01*
X441490Y137618D01*
X441640Y137517D01*
X441810Y137457D01*
X442000Y137437D01*
X441030D01*
X441020Y137380D01*
X441000Y137000D01*
X439000D01*
X438980Y137380D01*
X438970Y137437D01*
X438000D01*
X438190Y137457D01*
X438360Y137517D01*
X438510Y137618D01*
X438640Y137759D01*
X438750Y137940D01*
X438799Y138059D01*
X438680Y138280D01*
X438500Y138500D01*
X438280Y138680D01*
X438020Y138820D01*
X437720Y138920D01*
X437380Y138980D01*
X437000Y139000D01*
Y139000D01*
X437000D01*
Y141000D01*
X437380Y141020D01*
X437720Y141080D01*
X438020Y141180D01*
X438280Y141320D01*
X438500Y141500D01*
X438680Y141720D01*
X438820Y141980D01*
X438920Y142280D01*
X438980Y142620D01*
X439000Y143000D01*
X441000D01*
X441020Y142620D01*
D02*
G37*
G36*
X127891Y127933D02*
X127679Y128136D01*
X127459Y128317D01*
X127232Y128477D01*
X126999Y128616D01*
X126758Y128733D01*
X126511Y128829D01*
X126256Y128904D01*
X125994Y128957D01*
X125726Y128989D01*
X125450Y129000D01*
Y131000D01*
X125726Y131011D01*
X125994Y131043D01*
X126256Y131096D01*
X126511Y131171D01*
X126758Y131267D01*
X126999Y131384D01*
X127232Y131523D01*
X127459Y131683D01*
X127679Y131864D01*
X127891Y132067D01*
Y127933D01*
D02*
G37*
G36*
X122321Y131864D02*
X122541Y131683D01*
X122768Y131523D01*
X123001Y131384D01*
X123242Y131267D01*
X123489Y131171D01*
X123744Y131096D01*
X124006Y131043D01*
X124274Y131011D01*
X124550Y131000D01*
Y129000D01*
X124274Y128989D01*
X124006Y128957D01*
X123744Y128904D01*
X123489Y128829D01*
X123242Y128733D01*
X123001Y128616D01*
X122768Y128477D01*
X122541Y128317D01*
X122321Y128136D01*
X122109Y127933D01*
Y132067D01*
X122321Y131864D01*
D02*
G37*
G36*
X117891Y127933D02*
X117679Y128136D01*
X117459Y128317D01*
X117232Y128477D01*
X116999Y128616D01*
X116758Y128733D01*
X116510Y128829D01*
X116256Y128904D01*
X115994Y128957D01*
X115726Y128989D01*
X115450Y129000D01*
Y131000D01*
X115726Y131011D01*
X115994Y131043D01*
X116256Y131096D01*
X116510Y131171D01*
X116758Y131267D01*
X116999Y131384D01*
X117232Y131523D01*
X117459Y131683D01*
X117679Y131864D01*
X117891Y132067D01*
Y127933D01*
D02*
G37*
G36*
X112321Y131864D02*
X112541Y131683D01*
X112768Y131523D01*
X113001Y131384D01*
X113242Y131267D01*
X113489Y131171D01*
X113744Y131096D01*
X114006Y131043D01*
X114274Y131011D01*
X114550Y131000D01*
Y129000D01*
X114274Y128989D01*
X114006Y128957D01*
X113744Y128904D01*
X113489Y128829D01*
X113242Y128733D01*
X113001Y128616D01*
X112768Y128477D01*
X112541Y128317D01*
X112321Y128136D01*
X112109Y127933D01*
Y132067D01*
X112321Y131864D01*
D02*
G37*
G36*
X152457Y122873D02*
X152517Y122703D01*
X152618Y122553D01*
X152759Y122423D01*
X152940Y122313D01*
X153161Y122223D01*
X153422Y122153D01*
X153724Y122103D01*
X154066Y122073D01*
X154449Y122063D01*
Y120063D01*
X154066Y120053D01*
X153724Y120023D01*
X153422Y119973D01*
X153161Y119903D01*
X152940Y119813D01*
X152759Y119703D01*
X152618Y119573D01*
X152517Y119423D01*
X152457Y119253D01*
X152437Y119063D01*
Y123063D01*
X152457Y122873D01*
D02*
G37*
G36*
X147551Y118614D02*
X147531Y118688D01*
X147471Y118753D01*
X147371Y118811D01*
X147231Y118861D01*
X147051Y118904D01*
X146831Y118938D01*
X146571Y118965D01*
X145931Y118996D01*
X145551Y119000D01*
Y121000D01*
X145933Y121010D01*
X146274Y121040D01*
X146576Y121090D01*
X146837Y121160D01*
X147059Y121250D01*
X147240Y121360D01*
X147381Y121490D01*
X147482Y121640D01*
X147543Y121810D01*
X147563Y122000D01*
X147551Y118614D01*
D02*
G37*
G36*
X132949Y121810D02*
X133009Y121640D01*
X133110Y121490D01*
X133251Y121360D01*
X133432Y121250D01*
X133653Y121160D01*
X133915Y121090D01*
X134216Y121040D01*
X134558Y121010D01*
X134941Y121000D01*
Y119000D01*
X134558Y118990D01*
X134216Y118960D01*
X133915Y118910D01*
X133653Y118840D01*
X133432Y118750D01*
X133251Y118640D01*
X133110Y118510D01*
X133009Y118360D01*
X132949Y118190D01*
X132929Y118000D01*
Y122000D01*
X132949Y121810D01*
D02*
G37*
G36*
X127071Y118000D02*
X127051Y118190D01*
X126991Y118360D01*
X126890Y118510D01*
X126749Y118640D01*
X126568Y118750D01*
X126347Y118840D01*
X126085Y118910D01*
X125784Y118960D01*
X125442Y118990D01*
X125059Y119000D01*
Y121000D01*
X125442Y121010D01*
X125784Y121040D01*
X126085Y121090D01*
X126347Y121160D01*
X126568Y121250D01*
X126749Y121360D01*
X126890Y121490D01*
X126991Y121640D01*
X127051Y121810D01*
X127071Y122000D01*
Y118000D01*
D02*
G37*
G36*
X122949Y121810D02*
X123009Y121640D01*
X123110Y121490D01*
X123251Y121360D01*
X123432Y121250D01*
X123653Y121160D01*
X123915Y121090D01*
X124216Y121040D01*
X124558Y121010D01*
X124941Y121000D01*
Y119000D01*
X124558Y118990D01*
X124216Y118960D01*
X123915Y118910D01*
X123653Y118840D01*
X123432Y118750D01*
X123251Y118640D01*
X123110Y118510D01*
X123009Y118360D01*
X122949Y118190D01*
X122929Y118000D01*
Y122000D01*
X122949Y121810D01*
D02*
G37*
G36*
X117071Y118000D02*
X117051Y118190D01*
X116991Y118360D01*
X116890Y118510D01*
X116749Y118640D01*
X116568Y118750D01*
X116347Y118840D01*
X116085Y118910D01*
X115784Y118960D01*
X115442Y118990D01*
X115059Y119000D01*
Y121000D01*
X115442Y121010D01*
X115784Y121040D01*
X116085Y121090D01*
X116347Y121160D01*
X116568Y121250D01*
X116749Y121360D01*
X116890Y121490D01*
X116991Y121640D01*
X117051Y121810D01*
X117071Y122000D01*
Y118000D01*
D02*
G37*
G36*
X112949Y121810D02*
X113009Y121640D01*
X113110Y121490D01*
X113251Y121360D01*
X113432Y121250D01*
X113653Y121160D01*
X113915Y121090D01*
X114216Y121040D01*
X114558Y121010D01*
X114941Y121000D01*
Y119000D01*
X114558Y118990D01*
X114216Y118960D01*
X113915Y118910D01*
X113653Y118840D01*
X113432Y118750D01*
X113251Y118640D01*
X113110Y118510D01*
X113009Y118360D01*
X112949Y118190D01*
X112929Y118000D01*
Y122000D01*
X112949Y121810D01*
D02*
G37*
G36*
X207048Y117106D02*
X206678Y117466D01*
X205950Y118072D01*
X205591Y118318D01*
X205235Y118527D01*
X204883Y118697D01*
X204534Y118830D01*
X204189Y118924D01*
X203847Y118981D01*
X203509Y119000D01*
Y121000D01*
X203847Y121019D01*
X204189Y121076D01*
X204534Y121170D01*
X204883Y121303D01*
X205235Y121473D01*
X205591Y121682D01*
X205950Y121928D01*
X206312Y122212D01*
X206678Y122534D01*
X207048Y122894D01*
Y117106D01*
D02*
G37*
%LPC*%
G36*
X595783Y352950D02*
X594217D01*
X592681Y352644D01*
X591234Y352045D01*
X589932Y351175D01*
X588825Y350068D01*
X587955Y348766D01*
X587356Y347319D01*
X587050Y345783D01*
Y344217D01*
X587356Y342681D01*
X587955Y341234D01*
X588825Y339932D01*
X589932Y338825D01*
X591234Y337955D01*
X592681Y337355D01*
X594217Y337050D01*
X595783D01*
X597319Y337355D01*
X598766Y337955D01*
X600068Y338825D01*
X601175Y339932D01*
X602045Y341234D01*
X602644Y342681D01*
X602950Y344217D01*
Y345783D01*
X602644Y347319D01*
X602045Y348766D01*
X601175Y350068D01*
X600068Y351175D01*
X598766Y352045D01*
X597319Y352644D01*
X595783Y352950D01*
D02*
G37*
G36*
X420520Y313953D02*
X420500D01*
Y310500D01*
X423953D01*
Y310520D01*
X423683Y311526D01*
X423163Y312427D01*
X422427Y313163D01*
X421526Y313683D01*
X420520Y313953D01*
D02*
G37*
G36*
X423953Y309500D02*
X422976D01*
X422987Y309393D01*
X423034Y309120D01*
X423101Y308857D01*
X423188Y308603D01*
X423295Y308360D01*
X423422Y308127D01*
X423455Y308079D01*
X423683Y308474D01*
X423953Y309480D01*
Y309500D01*
D02*
G37*
G36*
X223953D02*
X222976D01*
X222987Y309393D01*
X223034Y309120D01*
X223101Y308857D01*
X223188Y308603D01*
X223295Y308360D01*
X223423Y308127D01*
X223455Y308079D01*
X223683Y308474D01*
X223953Y309480D01*
Y309500D01*
D02*
G37*
G36*
X422482D02*
X420500D01*
Y307518D01*
X422482Y309500D01*
D02*
G37*
G36*
X222482D02*
X220500D01*
Y307518D01*
X222482Y309500D01*
D02*
G37*
G36*
X323953D02*
X320500D01*
Y307891D01*
X322067D01*
X321864Y307679D01*
X321683Y307459D01*
X321523Y307232D01*
X321384Y306999D01*
X321267Y306758D01*
X321171Y306510D01*
X321096Y306256D01*
X321084Y306198D01*
X321526Y306317D01*
X322427Y306837D01*
X323163Y307573D01*
X323683Y308474D01*
X323953Y309480D01*
Y309500D01*
D02*
G37*
G36*
X420500Y307024D02*
Y306047D01*
X420520D01*
X421526Y306317D01*
X421921Y306545D01*
X421873Y306577D01*
X421640Y306705D01*
X421397Y306812D01*
X421143Y306899D01*
X420880Y306966D01*
X420607Y307013D01*
X420500Y307024D01*
D02*
G37*
G36*
X419500D02*
X419393Y307013D01*
X419120Y306966D01*
X418856Y306899D01*
X418603Y306812D01*
X418360Y306705D01*
X418127Y306577D01*
X418079Y306545D01*
X418474Y306317D01*
X419480Y306047D01*
X419500D01*
Y307024D01*
D02*
G37*
G36*
X220500D02*
Y306047D01*
X220520D01*
X221526Y306317D01*
X221921Y306545D01*
X221872Y306577D01*
X221640Y306705D01*
X221397Y306812D01*
X221144Y306899D01*
X220880Y306966D01*
X220607Y307013D01*
X220500Y307024D01*
D02*
G37*
G36*
X540653Y276634D02*
X539347D01*
X538065Y276379D01*
X536858Y275879D01*
X535771Y275153D01*
X534847Y274229D01*
X534121Y273142D01*
X533621Y271935D01*
X533366Y270653D01*
Y269347D01*
X533621Y268065D01*
X534121Y266858D01*
X534847Y265771D01*
X535771Y264847D01*
X536858Y264121D01*
X538065Y263621D01*
X539347Y263366D01*
X540653D01*
X541935Y263621D01*
X543142Y264121D01*
X544229Y264847D01*
X545153Y265771D01*
X545879Y266858D01*
X546379Y268065D01*
X546634Y269347D01*
Y270653D01*
X546379Y271935D01*
X545879Y273142D01*
X545153Y274229D01*
X544229Y275153D01*
X543142Y275879D01*
X541935Y276379D01*
X540653Y276634D01*
D02*
G37*
G36*
X490653D02*
X489347D01*
X488065Y276379D01*
X486858Y275879D01*
X485771Y275153D01*
X484847Y274229D01*
X484121Y273142D01*
X483621Y271935D01*
X483366Y270653D01*
Y269347D01*
X483621Y268065D01*
X484121Y266858D01*
X484847Y265771D01*
X485771Y264847D01*
X486858Y264121D01*
X488065Y263621D01*
X489347Y263366D01*
X490653D01*
X491935Y263621D01*
X493142Y264121D01*
X494229Y264847D01*
X495153Y265771D01*
X495879Y266858D01*
X496379Y268065D01*
X496634Y269347D01*
Y270653D01*
X496379Y271935D01*
X495879Y273142D01*
X495153Y274229D01*
X494229Y275153D01*
X493142Y275879D01*
X491935Y276379D01*
X490653Y276634D01*
D02*
G37*
G36*
X440653D02*
X439347D01*
X438065Y276379D01*
X436858Y275879D01*
X435771Y275153D01*
X434847Y274229D01*
X434121Y273142D01*
X433621Y271935D01*
X433366Y270653D01*
Y269347D01*
X433621Y268065D01*
X434121Y266858D01*
X434847Y265771D01*
X435771Y264847D01*
X436858Y264121D01*
X438065Y263621D01*
X439347Y263366D01*
X440653D01*
X441935Y263621D01*
X443142Y264121D01*
X444229Y264847D01*
X445153Y265771D01*
X445879Y266858D01*
X446379Y268065D01*
X446634Y269347D01*
Y270653D01*
X446379Y271935D01*
X445879Y273142D01*
X445153Y274229D01*
X444229Y275153D01*
X443142Y275879D01*
X441935Y276379D01*
X440653Y276634D01*
D02*
G37*
G36*
X420520Y263953D02*
X420500D01*
Y262977D01*
X420607Y262987D01*
X420880Y263034D01*
X421143Y263101D01*
X421397Y263188D01*
X421640Y263295D01*
X421873Y263422D01*
X421921Y263455D01*
X421526Y263683D01*
X420520Y263953D01*
D02*
G37*
G36*
X423455Y261922D02*
X423422Y261873D01*
X423295Y261640D01*
X423188Y261397D01*
X423101Y261143D01*
X423034Y260880D01*
X422987Y260607D01*
X422976Y260500D01*
X423953D01*
Y260520D01*
X423683Y261526D01*
X423455Y261922D01*
D02*
G37*
G36*
X420500Y262482D02*
Y260500D01*
X422482D01*
X420500Y262482D01*
D02*
G37*
G36*
X423953Y259500D02*
X420500D01*
Y257891D01*
X422067D01*
X421864Y257679D01*
X421683Y257459D01*
X421523Y257232D01*
X421384Y256999D01*
X421267Y256758D01*
X421171Y256510D01*
X421096Y256256D01*
X421084Y256198D01*
X421526Y256317D01*
X422427Y256837D01*
X423163Y257573D01*
X423683Y258474D01*
X423953Y259480D01*
Y259500D01*
D02*
G37*
G36*
X569500Y243953D02*
X569480D01*
X568474Y243683D01*
X568079Y243455D01*
X568127Y243423D01*
X568360Y243295D01*
X568603Y243188D01*
X568856Y243101D01*
X569120Y243034D01*
X569393Y242987D01*
X569500Y242976D01*
Y243953D01*
D02*
G37*
G36*
X570520D02*
X570500D01*
Y240500D01*
X573953D01*
Y240520D01*
X573683Y241526D01*
X573163Y242427D01*
X572427Y243163D01*
X571526Y243683D01*
X570520Y243953D01*
D02*
G37*
G36*
X569500Y242482D02*
X567518Y240500D01*
X569500D01*
Y242482D01*
D02*
G37*
G36*
X566545Y241921D02*
X566317Y241526D01*
X566047Y240520D01*
Y240500D01*
X567024D01*
X567013Y240607D01*
X566966Y240880D01*
X566899Y241143D01*
X566812Y241397D01*
X566705Y241640D01*
X566577Y241873D01*
X566545Y241921D01*
D02*
G37*
G36*
X550343Y138449D02*
Y135500D01*
X553291D01*
X553067Y136336D01*
X552612Y137125D01*
X551967Y137769D01*
X551178Y138225D01*
X550343Y138449D01*
D02*
G37*
G36*
X193291Y134500D02*
X192352D01*
X192378Y134379D01*
X192439Y134186D01*
X192518Y133994D01*
X192615Y133805D01*
X192730Y133619D01*
X192863Y133434D01*
X192905Y133384D01*
X193067Y133664D01*
X193291Y134500D01*
D02*
G37*
G36*
X503291D02*
X502352D01*
X502378Y134379D01*
X502439Y134186D01*
X502518Y133994D01*
X502615Y133805D01*
X502730Y133619D01*
X502863Y133434D01*
X502905Y133384D01*
X503067Y133664D01*
X503291Y134500D01*
D02*
G37*
G36*
X453291D02*
X452352D01*
X452378Y134379D01*
X452439Y134186D01*
X452518Y133994D01*
X452615Y133805D01*
X452730Y133619D01*
X452863Y133434D01*
X452905Y133384D01*
X453067Y133664D01*
X453291Y134500D01*
D02*
G37*
G36*
X393291D02*
X392352D01*
X392378Y134379D01*
X392439Y134186D01*
X392518Y133994D01*
X392615Y133805D01*
X392730Y133619D01*
X392863Y133434D01*
X392905Y133384D01*
X393067Y133664D01*
X393291Y134500D01*
D02*
G37*
G36*
X293291D02*
X292352D01*
X292378Y134379D01*
X292439Y134186D01*
X292518Y133994D01*
X292615Y133805D01*
X292730Y133619D01*
X292863Y133434D01*
X292905Y133384D01*
X293067Y133664D01*
X293291Y134500D01*
D02*
G37*
G36*
X191828D02*
X190342D01*
Y133015D01*
X191828Y134500D01*
D02*
G37*
G36*
X501828D02*
X500343D01*
Y133015D01*
X501828Y134500D01*
D02*
G37*
G36*
X451828D02*
X450343D01*
Y133015D01*
X451828Y134500D01*
D02*
G37*
G36*
X391828D02*
X390342D01*
Y133015D01*
X391828Y134500D01*
D02*
G37*
G36*
X291828D02*
X290342D01*
Y133015D01*
X291828Y134500D01*
D02*
G37*
G36*
X553291D02*
X550343D01*
Y131551D01*
X551178Y131775D01*
X551967Y132231D01*
X552612Y132875D01*
X553067Y133664D01*
X553291Y134500D01*
D02*
G37*
G36*
X549342Y132491D02*
X549222Y132465D01*
X549028Y132404D01*
X548837Y132325D01*
X548648Y132227D01*
X548461Y132112D01*
X548277Y131979D01*
X548226Y131937D01*
X548507Y131775D01*
X549342Y131551D01*
Y132491D01*
D02*
G37*
G36*
X500343D02*
Y131551D01*
X501178Y131775D01*
X501459Y131937D01*
X501408Y131979D01*
X501224Y132112D01*
X501037Y132227D01*
X500848Y132325D01*
X500657Y132404D01*
X500463Y132465D01*
X500343Y132491D01*
D02*
G37*
G36*
X499342D02*
X499222Y132465D01*
X499028Y132404D01*
X498837Y132325D01*
X498648Y132227D01*
X498461Y132112D01*
X498277Y131979D01*
X498226Y131937D01*
X498507Y131775D01*
X499342Y131551D01*
Y132491D01*
D02*
G37*
G36*
X450343D02*
Y131551D01*
X451178Y131775D01*
X451459Y131937D01*
X451408Y131979D01*
X451224Y132112D01*
X451037Y132227D01*
X450848Y132325D01*
X450657Y132404D01*
X450463Y132465D01*
X450343Y132491D01*
D02*
G37*
G36*
X449342D02*
X449222Y132465D01*
X449028Y132404D01*
X448837Y132325D01*
X448648Y132227D01*
X448461Y132112D01*
X448277Y131979D01*
X448226Y131937D01*
X448507Y131775D01*
X449342Y131551D01*
Y132491D01*
D02*
G37*
G36*
X390342D02*
Y131551D01*
X391178Y131775D01*
X391459Y131937D01*
X391408Y131979D01*
X391224Y132112D01*
X391037Y132227D01*
X390848Y132325D01*
X390657Y132404D01*
X390463Y132465D01*
X390342Y132491D01*
D02*
G37*
G36*
X389342D02*
X389222Y132465D01*
X389028Y132404D01*
X388837Y132325D01*
X388648Y132227D01*
X388461Y132112D01*
X388277Y131979D01*
X388226Y131937D01*
X388507Y131775D01*
X389342Y131551D01*
Y132491D01*
D02*
G37*
G36*
X290342D02*
Y131551D01*
X291178Y131775D01*
X291459Y131937D01*
X291408Y131979D01*
X291224Y132112D01*
X291037Y132227D01*
X290848Y132325D01*
X290657Y132404D01*
X290463Y132465D01*
X290342Y132491D01*
D02*
G37*
G36*
X289342D02*
X289222Y132465D01*
X289028Y132404D01*
X288837Y132325D01*
X288648Y132227D01*
X288461Y132112D01*
X288277Y131979D01*
X288226Y131937D01*
X288507Y131775D01*
X289342Y131551D01*
Y132491D01*
D02*
G37*
G36*
X190342D02*
Y131551D01*
X191178Y131775D01*
X191459Y131937D01*
X191408Y131979D01*
X191224Y132112D01*
X191037Y132227D01*
X190848Y132325D01*
X190657Y132404D01*
X190463Y132465D01*
X190342Y132491D01*
D02*
G37*
G36*
X189342D02*
X189222Y132465D01*
X189028Y132404D01*
X188837Y132325D01*
X188648Y132227D01*
X188461Y132112D01*
X188277Y131979D01*
X188226Y131937D01*
X188507Y131775D01*
X189342Y131551D01*
Y132491D01*
D02*
G37*
G36*
X146790Y130299D02*
X146775Y130273D01*
X146775Y130271D01*
X146790Y130299D01*
D02*
G37*
G36*
X150500Y132386D02*
Y129437D01*
X151757D01*
Y130659D01*
X151904Y130522D01*
X152062Y130399D01*
X152232Y130291D01*
X152412Y130197D01*
X152603Y130118D01*
X152805Y130053D01*
X153019Y130002D01*
X153243Y129966D01*
X153309Y129960D01*
X153225Y130273D01*
X152769Y131062D01*
X152125Y131706D01*
X151336Y132162D01*
X150500Y132386D01*
D02*
G37*
G36*
X149500D02*
X148664Y132162D01*
X147875Y131706D01*
X147231Y131062D01*
X147195Y131000D01*
X147440Y131002D01*
X148329Y131059D01*
X148515Y131085D01*
X148847Y131151D01*
X148991Y131191D01*
X149122Y131236D01*
X148278Y129437D01*
X149500D01*
Y132386D01*
D02*
G37*
G36*
X241387Y124943D02*
X241473Y124765D01*
X241682Y124409D01*
X241928Y124050D01*
X242212Y123688D01*
X242534Y123322D01*
X242894Y122952D01*
X240500D01*
Y120500D01*
X245134D01*
Y120676D01*
X244784Y121982D01*
X244108Y123152D01*
X243152Y124108D01*
X241982Y124784D01*
X241387Y124943D01*
D02*
G37*
G36*
X238613D02*
X238018Y124784D01*
X236848Y124108D01*
X235892Y123152D01*
X235216Y121982D01*
X234866Y120676D01*
Y120500D01*
X239500D01*
Y122952D01*
X237106D01*
X237466Y123322D01*
X238072Y124050D01*
X238318Y124409D01*
X238527Y124765D01*
X238613Y124943D01*
D02*
G37*
G36*
X595783Y132950D02*
X594217D01*
X592681Y132644D01*
X591234Y132045D01*
X589932Y131175D01*
X588825Y130068D01*
X587955Y128766D01*
X587356Y127319D01*
X587050Y125783D01*
Y124217D01*
X587356Y122681D01*
X587955Y121234D01*
X588825Y119932D01*
X589932Y118825D01*
X591234Y117955D01*
X592681Y117356D01*
X594217Y117050D01*
X595783D01*
X597319Y117356D01*
X598766Y117955D01*
X600068Y118825D01*
X601175Y119932D01*
X602045Y121234D01*
X602644Y122681D01*
X602950Y124217D01*
Y125783D01*
X602644Y127319D01*
X602045Y128766D01*
X601175Y130068D01*
X600068Y131175D01*
X598766Y132045D01*
X597319Y132644D01*
X595783Y132950D01*
D02*
G37*
G36*
X323953Y259500D02*
X320500D01*
Y257891D01*
X322067D01*
X321864Y257679D01*
X321683Y257459D01*
X321523Y257232D01*
X321384Y256999D01*
X321267Y256758D01*
X321171Y256510D01*
X321096Y256256D01*
X321084Y256198D01*
X321526Y256317D01*
X322427Y256837D01*
X323163Y257573D01*
X323683Y258474D01*
X323953Y259480D01*
Y259500D01*
D02*
G37*
%LPD*%
D25*
X120000Y320000D02*
X124500Y324500D01*
X169000D01*
X446050Y246450D02*
X447500Y245000D01*
X143050Y246450D02*
X446050D01*
X468000Y244500D02*
X546000D01*
X140500D02*
X444000D01*
X466000Y242500D02*
X468000Y244500D01*
X446000Y242500D02*
X466000D01*
X444000Y244500D02*
X446000Y242500D01*
X495950Y248050D02*
X497000Y247000D01*
X247950Y248050D02*
X495950D01*
X245000Y251000D02*
X247950Y248050D01*
X156000Y251000D02*
X245000D01*
X139500Y250000D02*
X143050Y246450D01*
X147000Y260000D02*
X156000Y251000D01*
X130000Y260000D02*
X147000D01*
X150500Y248500D02*
X220500D01*
X144000Y255000D02*
X150500Y248500D01*
X220500D02*
Y248700D01*
X130000Y250000D02*
X139500D01*
X136000Y240000D02*
X140500Y244500D01*
X135300Y201600D02*
X140500D01*
X133700Y200000D02*
X135300Y201600D01*
X130000Y200000D02*
X133700D01*
X125000Y255000D02*
X144000D01*
X133700Y210000D02*
X135300Y211600D01*
X143000D01*
X130000Y210000D02*
X133700D01*
X130000Y190000D02*
X133700D01*
X135300Y191600D02*
X138000D01*
X133700Y190000D02*
X135300Y191600D01*
X132847Y215847D02*
X136000Y219000D01*
X172000D01*
X138500Y239000D02*
X158500D01*
X115847Y234153D02*
X174153D01*
X180000Y240000D01*
X110000D02*
X115847Y234153D01*
X132847Y225847D02*
X136000Y229000D01*
X172000D01*
X130000Y240000D02*
X136000D01*
X135347Y235847D02*
X138500Y239000D01*
X312383Y234247D02*
X374247D01*
X380000Y240000D01*
X280000D02*
X285753Y234247D01*
X307617D01*
X312383D01*
X212383D02*
X274247D01*
X207617D02*
X212383D01*
X274247D02*
X280000Y240000D01*
X180000D02*
X185753Y234247D01*
X207617D01*
X124153Y235847D02*
X135347D01*
X217500Y159000D02*
X265000D01*
X269000Y155000D01*
X355000D01*
X360000Y150000D01*
X214347Y155847D02*
X217500Y159000D01*
X185000Y158500D02*
X205000D01*
X207653Y155847D02*
X214347D01*
X205000Y158500D02*
X207653Y155847D01*
X182347Y155847D02*
X185000Y158500D01*
X255753Y154247D02*
X260000Y150000D01*
X144500Y159500D02*
X171000D01*
X174653Y155847D02*
X182347D01*
X171000Y159500D02*
X174653Y155847D01*
X163500Y156500D02*
X165753Y154247D01*
X255753D01*
X141000Y156500D02*
X163500D01*
X137500Y150000D02*
X160000D01*
X120000Y260000D02*
X125000Y255000D01*
X205000Y265000D02*
X295000D01*
X290000Y267500D02*
X390000D01*
X190000D02*
X290000D01*
X136000Y169000D02*
X156000D01*
X172500Y179000D02*
X178000Y184500D01*
X182000D01*
X136000Y179000D02*
X172500D01*
X182000Y184500D02*
X187000Y179500D01*
X199000D01*
X185000Y185000D02*
X275000D01*
X180000Y190000D02*
X185000Y185000D01*
X275000D02*
X280000Y190000D01*
X198000Y265000D02*
X198047D01*
X194247Y199747D02*
X194500Y200000D01*
X210000D01*
X200000Y260000D02*
X205000Y265000D01*
X295000D02*
X300000Y260000D01*
X125000Y265000D02*
X198000D01*
X120000Y270000D02*
X125000Y265000D01*
X170000Y270000D02*
X270000D01*
X160500Y272500D02*
X260000D01*
X360000D01*
X160000Y272000D02*
X160500Y272500D01*
X182000Y194500D02*
X184000Y192500D01*
X178000Y194500D02*
X182000D01*
X184000Y192500D02*
X187500D01*
X172500Y189000D02*
X178000Y194500D01*
X136000Y189000D02*
X172500D01*
X125000Y305000D02*
X205500D01*
X142500Y302500D02*
X200000D01*
X205500Y305000D02*
X206000D01*
X135000Y295000D02*
X142500Y302500D01*
X115847Y174153D02*
X174153D01*
X180000Y180000D01*
X110000D02*
X115847Y174153D01*
X165500Y335500D02*
X170000Y340000D01*
X135500Y335500D02*
X165500D01*
X125000Y245000D02*
X135500D01*
X120000Y250000D02*
X125000Y245000D01*
X172500Y275000D02*
X173000Y275500D01*
X125000Y275000D02*
X172500D01*
X120000Y280000D02*
X125000Y275000D01*
X165000Y285000D02*
X170000Y290000D01*
X125000Y285000D02*
X165000D01*
X120000Y290000D02*
X125000Y285000D01*
Y295000D02*
X135000D01*
X120000Y300000D02*
X125000Y295000D01*
X120000Y310000D02*
X125000Y305000D01*
X185122Y190000D02*
X210000D01*
X180000Y260000D02*
X186500Y253500D01*
X211500D01*
X180000Y200000D02*
X185000Y195000D01*
X275000D02*
X280000Y200000D01*
X185000Y195000D02*
X275000D01*
X174153Y184153D02*
X180000Y190000D01*
X115847Y184153D02*
X174153D01*
X115847Y164153D02*
X174153D01*
X193503Y276497D02*
X249908D01*
X185500Y274500D02*
X252000D01*
X270000Y270000D02*
X370000D01*
X352411Y329000D02*
X380000D01*
X170000Y340000D02*
X185500Y324500D01*
X249908Y326497D02*
X252411Y329000D01*
X193503Y326497D02*
X249908D01*
X180000Y340000D02*
X193503Y326497D01*
X252000Y324500D02*
X253000Y325500D01*
X185500Y324500D02*
X252000D01*
X253000Y325500D02*
X270000D01*
X252411Y329000D02*
X280000D01*
X353000Y325500D02*
X370000D01*
X271000Y324500D02*
X352000D01*
X353000Y325500D01*
X282503Y326497D02*
X349908D01*
X352411Y329000D01*
X280000D02*
X282503Y326497D01*
X270000Y325500D02*
X271000Y324500D01*
X270000Y275500D02*
X271000Y274500D01*
X280000Y279000D02*
X282503Y276497D01*
X349908D02*
X352411Y279000D01*
X282503Y276497D02*
X349908D01*
X352000Y274500D02*
X353000Y275500D01*
X271000Y274500D02*
X352000D01*
X353000Y275500D02*
X370000D01*
X352411Y279000D02*
X380000D01*
X252411D02*
X280000D01*
X253000Y275500D02*
X270000D01*
X214153Y285847D02*
X305847D01*
X206182Y283818D02*
X299682D01*
X252000Y274500D02*
X253000Y275500D01*
X180000Y290000D02*
X193503Y276497D01*
X249908D02*
X252411Y279000D01*
X170000Y290000D02*
X185500Y274500D01*
X124153Y165847D02*
X132847D01*
X305847Y335847D02*
X310000Y340000D01*
X314153Y335847D02*
X405847D01*
X310000Y340000D02*
X314153Y335847D01*
X405847D02*
X410000Y340000D01*
X214153Y335847D02*
X305847D01*
X210000Y340000D02*
X214153Y335847D01*
X206182Y333818D02*
X299682D01*
X200000Y340000D02*
X206182Y333818D01*
X299682D02*
X300000Y333500D01*
X399682Y333818D02*
X400000Y333500D01*
X300000D02*
X300318Y333818D01*
X399682D01*
X300318Y283818D02*
X399682D01*
X300000Y283500D02*
X300318Y283818D01*
X399682D02*
X400000Y283500D01*
X299682Y283818D02*
X300000Y283500D01*
X200000Y290000D02*
X206182Y283818D01*
X210000Y290000D02*
X214153Y285847D01*
X405847D02*
X410000Y290000D01*
X310000D02*
X314153Y285847D01*
X405847D01*
X305847D02*
X310000Y290000D01*
X395000Y315000D02*
X400000Y310000D01*
X300000D02*
X305000Y315000D01*
X395000D01*
X160000Y310000D02*
X172500Y322500D01*
X200000Y310000D02*
X205000Y315000D01*
X295000D01*
X300000Y310000D01*
X290000Y317500D02*
X390000D01*
X197500D02*
X290000D01*
X190000Y310000D02*
X197500Y317500D01*
X170000Y310000D02*
X180000Y320000D01*
X270000D02*
X370000D01*
X180000D02*
X270000D01*
X172500Y322500D02*
X260000D01*
X360000D01*
X305000Y265000D02*
X395000D01*
X300000Y260000D02*
X305000Y265000D01*
X136000Y199000D02*
X164000D01*
X136000Y209000D02*
X175000D01*
X187000Y220000D02*
X204000D01*
X124153Y215847D02*
X132847D01*
X120000Y220000D02*
X124153Y215847D01*
X172000Y219000D02*
X178000Y225000D01*
X182000D01*
X187000Y220000D01*
Y230000D02*
X190000D01*
X182000Y235000D02*
X187000Y230000D01*
X178000Y235000D02*
X182000D01*
X172000Y229000D02*
X178000Y235000D01*
X110000Y170000D02*
X115847Y164153D01*
X120000Y170000D02*
X124153Y165847D01*
X132847D02*
X136000Y169000D01*
X120000Y180000D02*
X124153Y175847D01*
X132847D01*
X136000Y179000D01*
X110000Y190000D02*
X115847Y184153D01*
X120000Y190000D02*
X124153Y185847D01*
X132847D01*
X136000Y189000D01*
X110000Y200000D02*
X115847Y194153D01*
X174153D01*
X120000Y200000D02*
X124153Y195847D01*
X132847D01*
X136000Y199000D01*
X110000Y210000D02*
X115847Y204153D01*
X174153D01*
X120000Y210000D02*
X124153Y205847D01*
X132847D01*
X136000Y209000D01*
X110000Y220000D02*
X115847Y214153D01*
X174153D01*
X110000Y230000D02*
X115847Y224153D01*
X174153D01*
X120000Y230000D02*
X124153Y225847D01*
X132847D01*
X120000Y240000D02*
X124153Y235847D01*
X286000Y254000D02*
X305000D01*
X280000Y260000D02*
X286000Y254000D01*
X395000Y265000D02*
X400000Y260000D01*
X385000Y185000D02*
X435000D01*
X380000Y260000D02*
X386000Y254000D01*
X405000D01*
X174153Y164153D02*
X180000Y170000D01*
X174153Y194153D02*
X180000Y200000D01*
X174153Y204153D02*
X180000Y210000D01*
X174153Y214153D02*
X180000Y220000D01*
X174153Y224153D02*
X180000Y230000D01*
Y180000D02*
X185000Y175000D01*
X275000D01*
X280000Y180000D01*
X375000Y175000D02*
X380000Y180000D01*
X285000Y175000D02*
X375000D01*
X280000Y180000D02*
X285000Y175000D01*
X380000Y180000D02*
X385000Y175000D01*
X435000D01*
X440000Y180000D01*
X485000Y175000D02*
X490000Y180000D01*
X445000Y175000D02*
X485000D01*
X440000Y180000D02*
X445000Y175000D01*
X490000Y180000D02*
X495000Y175000D01*
X535000D01*
X540000Y180000D01*
X535000Y165000D02*
X540000Y170000D01*
X495000Y165000D02*
X535000D01*
X490000Y170000D02*
X495000Y165000D01*
X440000Y170000D02*
X445000Y165000D01*
X485000D01*
X490000Y170000D01*
X435000Y165000D02*
X440000Y170000D01*
X385000Y165000D02*
X435000D01*
X380000Y170000D02*
X385000Y165000D01*
X280000Y170000D02*
X285000Y165000D01*
X375000D01*
X380000Y170000D01*
X275000Y165000D02*
X280000Y170000D01*
X185000Y165000D02*
X275000D01*
X180000Y170000D02*
X185000Y165000D01*
X375000Y195000D02*
X380000Y200000D01*
X285000Y195000D02*
X375000D01*
X280000Y200000D02*
X285000Y195000D01*
X380000Y200000D02*
X385000Y195000D01*
X435000D01*
X440000Y200000D01*
X485000Y195000D02*
X490000Y200000D01*
X445000Y195000D02*
X485000D01*
X440000Y200000D02*
X445000Y195000D01*
X490000Y200000D02*
X495000Y195000D01*
X535000D01*
X540000Y200000D01*
X535000Y185000D02*
X540000Y190000D01*
X495000Y185000D02*
X535000D01*
X490000Y190000D02*
X495000Y185000D01*
X440000Y190000D02*
X445000Y185000D01*
X485000D01*
X490000Y190000D01*
X435000Y185000D02*
X440000Y190000D01*
X380000D02*
X385000Y185000D01*
X280000Y190000D02*
X285000Y185000D01*
X375000D01*
X380000Y190000D01*
X180000Y220000D02*
X185000Y215000D01*
X275000D01*
X280000Y220000D01*
X375000Y215000D02*
X380000Y220000D01*
X285000Y215000D02*
X375000D01*
X280000Y220000D02*
X285000Y215000D01*
X380000Y220000D02*
X385000Y215000D01*
X435000D01*
X440000Y220000D01*
X485000Y215000D02*
X490000Y220000D01*
X445000Y215000D02*
X485000D01*
X440000Y220000D02*
X445000Y215000D01*
X490000Y220000D02*
X495000Y215000D01*
X535000D01*
X540000Y220000D01*
X535000Y205000D02*
X540000Y210000D01*
X495000Y205000D02*
X535000D01*
X490000Y210000D02*
X495000Y205000D01*
X440000Y210000D02*
X445000Y205000D01*
X485000D01*
X490000Y210000D01*
X435000Y205000D02*
X440000Y210000D01*
X385000Y205000D02*
X435000D01*
X380000Y210000D02*
X385000Y205000D01*
X280000Y210000D02*
X285000Y205000D01*
X375000D01*
X380000Y210000D01*
X275000Y205000D02*
X280000Y210000D01*
X185000Y205000D02*
X275000D01*
X180000Y210000D02*
X185000Y205000D01*
X180000Y230000D02*
X185000Y225000D01*
X275000D01*
X280000Y230000D01*
X375000Y225000D02*
X380000Y230000D01*
X285000Y225000D02*
X375000D01*
X280000Y230000D02*
X285000Y225000D01*
X380000Y230000D02*
X385000Y225000D01*
X435000D01*
X440000Y230000D01*
X485000Y225000D02*
X490000Y230000D01*
X445000Y225000D02*
X485000D01*
X440000Y230000D02*
X445000Y225000D01*
X490000Y230000D02*
X495000Y225000D01*
X535000D01*
X540000Y230000D01*
X535000Y235000D02*
X540000Y240000D01*
X495000Y235000D02*
X535000D01*
X490000Y240000D02*
X495000Y235000D01*
X440000Y240000D02*
X445000Y235000D01*
X485000D01*
X490000Y240000D01*
X435000Y235000D02*
X440000Y240000D01*
X385000Y235000D02*
X435000D01*
X380000Y240000D02*
X385000Y235000D01*
D26*
X180000Y120000D02*
X210000D01*
X240000D02*
Y129000D01*
X320000Y251000D02*
Y260000D01*
X242500D02*
X251500Y251000D01*
X320000D01*
X420000D02*
X470000D01*
X320000D02*
X420000D01*
X520000Y250000D02*
Y251000D01*
X420000D02*
Y260000D01*
X559000Y251000D02*
X570000Y240000D01*
X520000Y251000D02*
X559000D01*
X470000D02*
X520000D01*
X210000Y240000D02*
X224500D01*
X220000Y260000D02*
X242500D01*
X145000Y290000D02*
X160000D01*
X239000Y296000D02*
X245000Y290000D01*
X166000Y296000D02*
X239000D01*
X160000Y290000D02*
X166000Y296000D01*
X220000Y129000D02*
X283842D01*
X195843D02*
X220000D01*
X178937Y121063D02*
X180000Y120000D01*
X150000Y121063D02*
X178937D01*
X310000Y140000D02*
X380000D01*
X420000Y260000D02*
X430000Y270000D01*
Y300000D01*
X420000Y310000D02*
X430000Y300000D01*
X411000Y301000D02*
X420000Y310000D01*
X352000Y301000D02*
X411000D01*
X229000D02*
X252000D01*
X220000Y310000D02*
X229000Y301000D01*
X320000D02*
X352000D01*
X252000D02*
X320000D01*
Y310000D01*
X260000Y290000D02*
X266000Y296000D01*
X339000D01*
X345000Y290000D01*
X245000D02*
X260000D01*
X345000D02*
X360000D01*
X266000Y346000D02*
X339000D01*
X345000Y340000D01*
X260000D02*
X266000Y346000D01*
X166000Y346000D02*
X239000D01*
X245000Y340000D01*
X345000D02*
X360000D01*
X245000D02*
X260000D01*
X160000D02*
X166000Y346000D01*
X180000Y140000D02*
Y150000D01*
X210000Y140000D02*
X275000D01*
X180000D02*
X210000D01*
Y150000D01*
X180000Y140000D02*
X180000Y140000D01*
X180000Y135000D02*
Y140000D01*
X540000Y140000D02*
Y150000D01*
Y135000D02*
Y140000D01*
X520000D02*
X540000D01*
X490000D02*
X520000D01*
Y150000D01*
X490000Y140000D02*
Y150000D01*
Y140000D02*
Y140000D01*
Y135000D02*
Y140000D01*
X470000Y140000D02*
X490000D01*
X490000Y140000D01*
X440000Y140000D02*
X470000D01*
Y150000D01*
X440000Y140000D02*
Y150000D01*
Y135000D02*
Y140000D01*
X440000Y140000D01*
X410000D02*
X440000D01*
X440000Y140000D01*
X380000Y140000D02*
Y150000D01*
Y140000D02*
Y140000D01*
Y137500D02*
Y140000D01*
X380000Y140000D02*
X410000D01*
X380000Y140000D02*
X380000Y140000D01*
X410000D02*
Y150000D01*
X285000Y140000D02*
X310000D01*
Y150000D01*
X540000D02*
X570000D01*
X280000Y135000D02*
X285000Y140000D01*
X275000D02*
X280000Y135000D01*
X130000Y120000D02*
X148937D01*
X120000D02*
X130000D01*
X110000D02*
X120000D01*
X148937D02*
X150000Y121063D01*
X499843Y135000D02*
X505842Y129000D01*
X543843D02*
X549843Y135000D01*
X505842Y129000D02*
X543843D01*
X455842D02*
X493843D01*
X499843Y135000D01*
X449843D02*
X455842Y129000D01*
X395843D02*
X443843D01*
X449843Y135000D01*
X389843D02*
X395843Y129000D01*
X289843Y135000D02*
X295843Y129000D01*
X383842D01*
X389843Y135000D01*
X283842Y129000D02*
X289843Y135000D01*
X189842D02*
X195843Y129000D01*
X183780Y128937D02*
X189842Y135000D01*
X150000Y128937D02*
X183780D01*
X130000Y130000D02*
X148937D01*
X120000D02*
X130000D01*
X110000D02*
X120000D01*
X148937D02*
X150000Y128937D01*
D27*
X490000Y270000D02*
D03*
X540000D02*
D03*
X440000D02*
D03*
X210000Y120000D02*
D03*
X240000D02*
D03*
X360000Y150000D02*
D03*
X260000D02*
D03*
X160000D02*
D03*
D28*
X470000D02*
D03*
X210000D02*
D03*
X570000D02*
D03*
X520000D02*
D03*
X410000D02*
D03*
X310000D02*
D03*
D29*
X470000Y160000D02*
D03*
Y170000D02*
D03*
Y180000D02*
D03*
Y190000D02*
D03*
Y200000D02*
D03*
Y210000D02*
D03*
Y220000D02*
D03*
Y230000D02*
D03*
Y240000D02*
D03*
X440000Y150000D02*
D03*
Y170000D02*
D03*
Y180000D02*
D03*
Y190000D02*
D03*
Y200000D02*
D03*
Y210000D02*
D03*
Y220000D02*
D03*
Y230000D02*
D03*
Y240000D02*
D03*
X210000Y160000D02*
D03*
Y170000D02*
D03*
Y180000D02*
D03*
Y190000D02*
D03*
Y200000D02*
D03*
Y210000D02*
D03*
Y220000D02*
D03*
Y230000D02*
D03*
Y240000D02*
D03*
X180000Y150000D02*
D03*
Y170000D02*
D03*
Y180000D02*
D03*
Y190000D02*
D03*
Y200000D02*
D03*
Y210000D02*
D03*
Y220000D02*
D03*
Y230000D02*
D03*
Y240000D02*
D03*
X540000D02*
D03*
Y230000D02*
D03*
Y220000D02*
D03*
Y210000D02*
D03*
Y200000D02*
D03*
Y190000D02*
D03*
Y180000D02*
D03*
Y170000D02*
D03*
Y150000D02*
D03*
X570000Y240000D02*
D03*
Y230000D02*
D03*
Y220000D02*
D03*
Y210000D02*
D03*
Y200000D02*
D03*
Y190000D02*
D03*
Y180000D02*
D03*
Y170000D02*
D03*
Y160000D02*
D03*
X490000Y240000D02*
D03*
Y230000D02*
D03*
Y220000D02*
D03*
Y210000D02*
D03*
Y200000D02*
D03*
Y190000D02*
D03*
Y180000D02*
D03*
Y170000D02*
D03*
Y150000D02*
D03*
X520000Y240000D02*
D03*
Y230000D02*
D03*
Y220000D02*
D03*
Y210000D02*
D03*
Y200000D02*
D03*
Y190000D02*
D03*
Y180000D02*
D03*
Y170000D02*
D03*
Y160000D02*
D03*
X370000Y260000D02*
D03*
X380000D02*
D03*
X390000D02*
D03*
X400000D02*
D03*
X410000D02*
D03*
X420000D02*
D03*
X360000Y290000D02*
D03*
X370000D02*
D03*
X380000D02*
D03*
X390000D02*
D03*
X400000D02*
D03*
X410000D02*
D03*
X420000D02*
D03*
X380000Y240000D02*
D03*
Y230000D02*
D03*
Y220000D02*
D03*
Y210000D02*
D03*
Y200000D02*
D03*
Y190000D02*
D03*
Y180000D02*
D03*
Y170000D02*
D03*
Y150000D02*
D03*
X410000Y240000D02*
D03*
Y230000D02*
D03*
Y220000D02*
D03*
Y210000D02*
D03*
Y200000D02*
D03*
Y190000D02*
D03*
Y180000D02*
D03*
Y170000D02*
D03*
Y160000D02*
D03*
X370000Y310000D02*
D03*
X380000D02*
D03*
X390000D02*
D03*
X400000D02*
D03*
X410000D02*
D03*
X420000D02*
D03*
X360000Y340000D02*
D03*
X370000D02*
D03*
X380000D02*
D03*
X390000D02*
D03*
X400000D02*
D03*
X410000D02*
D03*
X420000D02*
D03*
X270000Y260000D02*
D03*
X280000D02*
D03*
X290000D02*
D03*
X300000D02*
D03*
X310000D02*
D03*
X320000D02*
D03*
X260000Y290000D02*
D03*
X270000D02*
D03*
X280000D02*
D03*
X290000D02*
D03*
X300000D02*
D03*
X310000D02*
D03*
X320000D02*
D03*
X280000Y240000D02*
D03*
Y230000D02*
D03*
Y220000D02*
D03*
Y210000D02*
D03*
Y200000D02*
D03*
Y190000D02*
D03*
Y180000D02*
D03*
Y170000D02*
D03*
Y150000D02*
D03*
X310000Y240000D02*
D03*
Y230000D02*
D03*
Y220000D02*
D03*
Y210000D02*
D03*
Y200000D02*
D03*
Y190000D02*
D03*
Y180000D02*
D03*
Y170000D02*
D03*
Y160000D02*
D03*
X270000Y310000D02*
D03*
X280000D02*
D03*
X290000D02*
D03*
X300000D02*
D03*
X310000D02*
D03*
X320000D02*
D03*
X260000Y340000D02*
D03*
X270000D02*
D03*
X280000D02*
D03*
X290000D02*
D03*
X300000D02*
D03*
X310000D02*
D03*
X320000D02*
D03*
X170000Y260000D02*
D03*
X180000D02*
D03*
X190000D02*
D03*
X200000D02*
D03*
X210000D02*
D03*
X220000D02*
D03*
X160000Y290000D02*
D03*
X170000D02*
D03*
X180000D02*
D03*
X190000D02*
D03*
X200000D02*
D03*
X210000D02*
D03*
X220000D02*
D03*
X170000Y310000D02*
D03*
X180000D02*
D03*
X190000D02*
D03*
X200000D02*
D03*
X210000D02*
D03*
X220000D02*
D03*
X160000Y340000D02*
D03*
X170000D02*
D03*
X180000D02*
D03*
X190000D02*
D03*
X200000D02*
D03*
X210000D02*
D03*
X220000D02*
D03*
D30*
X440000Y160000D02*
D03*
X120000Y130000D02*
D03*
Y140000D02*
D03*
Y150000D02*
D03*
Y160000D02*
D03*
Y170000D02*
D03*
Y180000D02*
D03*
Y190000D02*
D03*
Y200000D02*
D03*
Y210000D02*
D03*
Y220000D02*
D03*
Y230000D02*
D03*
Y240000D02*
D03*
Y250000D02*
D03*
Y260000D02*
D03*
Y270000D02*
D03*
Y280000D02*
D03*
Y290000D02*
D03*
Y300000D02*
D03*
Y310000D02*
D03*
Y320000D02*
D03*
Y330000D02*
D03*
X130000Y130000D02*
D03*
Y140000D02*
D03*
Y150000D02*
D03*
Y160000D02*
D03*
Y170000D02*
D03*
Y180000D02*
D03*
Y190000D02*
D03*
Y200000D02*
D03*
Y210000D02*
D03*
Y220000D02*
D03*
Y230000D02*
D03*
Y240000D02*
D03*
Y250000D02*
D03*
Y260000D02*
D03*
Y270000D02*
D03*
Y280000D02*
D03*
Y290000D02*
D03*
Y300000D02*
D03*
Y310000D02*
D03*
Y320000D02*
D03*
Y330000D02*
D03*
X180000Y160000D02*
D03*
X540000D02*
D03*
X490000D02*
D03*
X380000D02*
D03*
X280000D02*
D03*
X110000Y330000D02*
D03*
Y320000D02*
D03*
Y310000D02*
D03*
Y300000D02*
D03*
Y290000D02*
D03*
Y280000D02*
D03*
Y270000D02*
D03*
Y260000D02*
D03*
Y250000D02*
D03*
Y240000D02*
D03*
Y230000D02*
D03*
Y220000D02*
D03*
Y210000D02*
D03*
Y200000D02*
D03*
Y190000D02*
D03*
Y180000D02*
D03*
Y170000D02*
D03*
Y160000D02*
D03*
Y150000D02*
D03*
Y140000D02*
D03*
Y130000D02*
D03*
D31*
X150000Y121063D02*
D03*
X345000Y290000D02*
D03*
Y340000D02*
D03*
X245000D02*
D03*
Y290000D02*
D03*
X145000D02*
D03*
Y340000D02*
D03*
D32*
X150000Y128937D02*
D03*
X345000Y280157D02*
D03*
Y330157D02*
D03*
X245000D02*
D03*
Y280157D02*
D03*
X145000D02*
D03*
Y330157D02*
D03*
X189842Y135000D02*
D03*
X289843D02*
D03*
X389843D02*
D03*
X449843D02*
D03*
X499843D02*
D03*
X549843D02*
D03*
D33*
X180000D02*
D03*
X280000D02*
D03*
X380000D02*
D03*
X440000D02*
D03*
X490000D02*
D03*
X540000D02*
D03*
D34*
X120000Y120000D02*
D03*
X130000D02*
D03*
X110000D02*
D03*
D35*
X360000Y260000D02*
D03*
Y310000D02*
D03*
X260000Y260000D02*
D03*
Y310000D02*
D03*
X160000Y260000D02*
D03*
Y310000D02*
D03*
D36*
X139000Y143000D02*
D03*
X170000Y142000D02*
D03*
X382000Y354000D02*
D03*
X305000D02*
D03*
X178000D02*
D03*
X229000D02*
D03*
X110000Y351000D02*
D03*
X231000Y306000D02*
D03*
X344000Y259000D02*
D03*
X610000Y340000D02*
D03*
X600000Y320000D02*
D03*
X610000Y300000D02*
D03*
X600000Y280000D02*
D03*
X610000Y260000D02*
D03*
X600000Y240000D02*
D03*
X610000Y220000D02*
D03*
X600000Y200000D02*
D03*
X610000Y180000D02*
D03*
X600000Y160000D02*
D03*
X610000Y140000D02*
D03*
X580000Y320000D02*
D03*
X590000Y300000D02*
D03*
X580000Y280000D02*
D03*
X590000Y260000D02*
D03*
X580000Y240000D02*
D03*
X590000Y220000D02*
D03*
X580000Y200000D02*
D03*
X590000Y180000D02*
D03*
X580000Y160000D02*
D03*
X590000Y140000D02*
D03*
X580000Y120000D02*
D03*
X570000Y340000D02*
D03*
X560000Y320000D02*
D03*
X570000Y300000D02*
D03*
X560000Y280000D02*
D03*
X570000Y260000D02*
D03*
X560000Y240000D02*
D03*
Y200000D02*
D03*
Y160000D02*
D03*
X570000Y140000D02*
D03*
X560000Y120000D02*
D03*
X550000Y340000D02*
D03*
X540000Y320000D02*
D03*
X550000Y300000D02*
D03*
X540000Y280000D02*
D03*
Y120000D02*
D03*
X530000Y340000D02*
D03*
X520000Y320000D02*
D03*
X530000Y300000D02*
D03*
X520000Y280000D02*
D03*
X530000Y260000D02*
D03*
X520000Y120000D02*
D03*
X510000Y340000D02*
D03*
X500000Y320000D02*
D03*
X510000Y300000D02*
D03*
X500000Y280000D02*
D03*
X510000Y260000D02*
D03*
X500000Y120000D02*
D03*
X490000Y340000D02*
D03*
X480000Y320000D02*
D03*
X490000Y300000D02*
D03*
X480000Y280000D02*
D03*
X490000Y260000D02*
D03*
X480000Y120000D02*
D03*
X470000Y340000D02*
D03*
X460000Y320000D02*
D03*
X470000Y300000D02*
D03*
X460000Y280000D02*
D03*
X470000Y260000D02*
D03*
X460000Y120000D02*
D03*
X450000Y340000D02*
D03*
X440000Y320000D02*
D03*
X450000Y300000D02*
D03*
X440000Y280000D02*
D03*
Y120000D02*
D03*
X430000Y340000D02*
D03*
X420000Y320000D02*
D03*
Y120000D02*
D03*
X400000Y320000D02*
D03*
X410000Y300000D02*
D03*
X400000Y120000D02*
D03*
X380000D02*
D03*
X360000D02*
D03*
X340000D02*
D03*
X320000D02*
D03*
X300000D02*
D03*
X280000D02*
D03*
X260000D02*
D03*
X220000D02*
D03*
X130000Y340000D02*
D03*
D37*
X447500Y245000D02*
D03*
X497000Y247000D02*
D03*
X220500Y248700D02*
D03*
X546000Y244500D02*
D03*
X140500Y201600D02*
D03*
X143000Y211600D02*
D03*
X138000Y191600D02*
D03*
X305000Y254000D02*
D03*
X405000D02*
D03*
X158500Y239000D02*
D03*
X144500Y159500D02*
D03*
X141000Y156500D02*
D03*
X137500Y150000D02*
D03*
X400000Y333500D02*
D03*
X300000D02*
D03*
X156000Y169000D02*
D03*
X199000Y179500D02*
D03*
X198047Y265000D02*
D03*
X194247Y199747D02*
D03*
X190000Y267500D02*
D03*
X170000Y270000D02*
D03*
X160000Y272000D02*
D03*
X187500Y192500D02*
D03*
X185122Y190000D02*
D03*
X135500Y335500D02*
D03*
Y245000D02*
D03*
X173000Y275500D02*
D03*
X200000Y302500D02*
D03*
X205500Y305000D02*
D03*
X169000Y324500D02*
D03*
X211500Y253500D02*
D03*
X390000Y317500D02*
D03*
X380000Y329000D02*
D03*
X290000Y317500D02*
D03*
X280000Y329000D02*
D03*
X270000Y325500D02*
D03*
X370000D02*
D03*
Y275500D02*
D03*
X380000Y279000D02*
D03*
X280000D02*
D03*
X270000Y275500D02*
D03*
X260000Y272500D02*
D03*
Y322500D02*
D03*
X400000Y283500D02*
D03*
X300000D02*
D03*
X370000Y320000D02*
D03*
X360000Y322500D02*
D03*
X270000Y320000D02*
D03*
X360000Y272500D02*
D03*
X270000Y270000D02*
D03*
X370000D02*
D03*
X390000Y267500D02*
D03*
X290000D02*
D03*
X164000Y199000D02*
D03*
X175000Y209000D02*
D03*
X204000Y220000D02*
D03*
X190000Y230000D02*
D03*
D38*
X310000Y251000D02*
D03*
X410000D02*
D03*
X520000D02*
D03*
X470000D02*
D03*
X224500Y240000D02*
D03*
X152897Y290000D02*
D03*
X352000Y301000D02*
D03*
X252000D02*
D03*
M02*
