G04*
G04 #@! TF.GenerationSoftware,Altium Limited,Altium Designer,21.9.1 (22)*
G04*
G04 Layer_Color=65535*
%FSLAX25Y25*%
%MOIN*%
G70*
G04*
G04 #@! TF.SameCoordinates,C27983A3-7DCE-4341-8ACB-FB6078D38E97*
G04*
G04*
G04 #@! TF.FilePolarity,Positive*
G04*
G01*
G75*
%ADD10C,0.00984*%
%ADD11C,0.00787*%
%ADD12C,0.00500*%
%ADD13C,0.01000*%
%ADD14C,0.00591*%
%ADD15C,0.00800*%
D10*
X165118Y232500D02*
G03*
X165118Y232500I-492J0D01*
G01*
X472992Y164626D02*
G03*
X472992Y164626I-492J0D01*
G01*
X605118Y262500D02*
G03*
X605118Y262500I-492J0D01*
G01*
X315118Y232500D02*
G03*
X315118Y232500I-492J0D01*
G01*
X465118D02*
G03*
X465118Y232500I-492J0D01*
G01*
X472992Y209626D02*
G03*
X472992Y209626I-492J0D01*
G01*
Y254626D02*
G03*
X472992Y254626I-492J0D01*
G01*
Y299626D02*
G03*
X472992Y299626I-492J0D01*
G01*
Y344626D02*
G03*
X472992Y344626I-492J0D01*
G01*
X465118Y352500D02*
G03*
X465118Y352500I-492J0D01*
G01*
X322992Y164626D02*
G03*
X322992Y164626I-492J0D01*
G01*
Y209626D02*
G03*
X322992Y209626I-492J0D01*
G01*
Y254626D02*
G03*
X322992Y254626I-492J0D01*
G01*
Y299626D02*
G03*
X322992Y299626I-492J0D01*
G01*
Y344626D02*
G03*
X322992Y344626I-492J0D01*
G01*
X315118Y352500D02*
G03*
X315118Y352500I-492J0D01*
G01*
X165118D02*
G03*
X165118Y352500I-492J0D01*
G01*
X172992Y344626D02*
G03*
X172992Y344626I-492J0D01*
G01*
Y299626D02*
G03*
X172992Y299626I-492J0D01*
G01*
Y254626D02*
G03*
X172992Y254626I-492J0D01*
G01*
Y209626D02*
G03*
X172992Y209626I-492J0D01*
G01*
Y164626D02*
G03*
X172992Y164626I-492J0D01*
G01*
D11*
X142500Y224213D02*
G03*
X147500Y224213I2500J0D01*
G01*
X481220Y322500D02*
G03*
X481220Y327500I0J2500D01*
G01*
Y277500D02*
G03*
X481220Y282500I0J2500D01*
G01*
Y232500D02*
G03*
X481220Y237500I0J2500D01*
G01*
Y187500D02*
G03*
X481220Y192500I0J2500D01*
G01*
X476221Y142500D02*
G03*
X476221Y147500I0J2500D01*
G01*
X606240Y290000D02*
G03*
X606240Y290000I-6240J0D01*
G01*
X582500Y258780D02*
G03*
X587500Y258780I2500J0D01*
G01*
X292500Y224213D02*
G03*
X297500Y224213I2500J0D01*
G01*
X442500D02*
G03*
X447500Y224213I2500J0D01*
G01*
X442500Y344213D02*
G03*
X447500Y344213I2500J0D01*
G01*
X331221Y322500D02*
G03*
X331221Y327500I0J2500D01*
G01*
Y277500D02*
G03*
X331221Y282500I0J2500D01*
G01*
Y232500D02*
G03*
X331221Y237500I0J2500D01*
G01*
Y187500D02*
G03*
X331221Y192500I0J2500D01*
G01*
X326220Y142500D02*
G03*
X326220Y147500I0J2500D01*
G01*
X292500Y344213D02*
G03*
X297500Y344213I2500J0D01*
G01*
X122343Y347000D02*
G03*
X122343Y347000I-9843J0D01*
G01*
X142500Y344213D02*
G03*
X147500Y344213I2500J0D01*
G01*
X181220Y322500D02*
G03*
X181220Y327500I0J2500D01*
G01*
Y277500D02*
G03*
X181220Y282500I0J2500D01*
G01*
Y232500D02*
G03*
X181220Y237500I0J2500D01*
G01*
Y187500D02*
G03*
X181220Y192500I0J2500D01*
G01*
X176221Y142500D02*
G03*
X176221Y147500I0J2500D01*
G01*
X328740Y172500D02*
G03*
X328740Y172500I-6240J0D01*
G01*
X576240Y300000D02*
G03*
X576240Y300000I-6240J0D01*
G01*
Y120000D02*
G03*
X576240Y120000I-6240J0D01*
G01*
Y345000D02*
G03*
X576240Y345000I-6240J0D01*
G01*
Y330000D02*
G03*
X576240Y330000I-6240J0D01*
G01*
X178740Y130000D02*
G03*
X178740Y130000I-6240J0D01*
G01*
X576240Y285000D02*
G03*
X576240Y285000I-6240J0D01*
G01*
X178740Y172500D02*
G03*
X178740Y172500I-6240J0D01*
G01*
X576240Y315000D02*
G03*
X576240Y315000I-6240J0D01*
G01*
X478740Y172500D02*
G03*
X478740Y172500I-6240J0D01*
G01*
X147205Y227382D02*
X162953D01*
X147205Y237618D02*
X162953D01*
Y227382D02*
Y228465D01*
X147205Y227382D02*
Y228465D01*
X162953Y236535D02*
Y237618D01*
X147205Y236535D02*
Y237618D01*
X155433Y125787D02*
Y224213D01*
X134567Y125787D02*
Y224213D01*
Y125787D02*
X155433D01*
X147500Y224213D02*
X155433D01*
X134567D02*
X142500D01*
X125000Y125000D02*
Y215000D01*
X115000D02*
X125000D01*
X115000Y125000D02*
Y215000D01*
Y125000D02*
X125000D01*
X481221Y314567D02*
Y322500D01*
Y327500D02*
Y335433D01*
X558780Y314567D02*
Y335433D01*
X481221Y314567D02*
X558780D01*
X481221Y335433D02*
X558780D01*
X481221Y269567D02*
Y277500D01*
Y282500D02*
Y290433D01*
X558780Y269567D02*
Y290433D01*
X481221Y269567D02*
X558780D01*
X481221Y290433D02*
X558780D01*
X481221Y224567D02*
Y232500D01*
Y237500D02*
Y245433D01*
X558780Y224567D02*
Y245433D01*
X481221Y224567D02*
X558780D01*
X481221Y245433D02*
X558780D01*
X477618Y147205D02*
Y162953D01*
X467382Y147205D02*
Y162953D01*
X476535D02*
X477618D01*
X476535Y147205D02*
X477618D01*
X467382Y162953D02*
X468465D01*
X467382Y147205D02*
X468465D01*
X481221Y179567D02*
Y187500D01*
Y192500D02*
Y200433D01*
X558780Y179567D02*
Y200433D01*
X481221Y179567D02*
X558780D01*
X481221Y200433D02*
X558780D01*
X476221Y155433D02*
X553780D01*
X476221Y134567D02*
X553780D01*
Y155433D01*
X476221Y147500D02*
Y155433D01*
Y134567D02*
Y142500D01*
X595433Y181221D02*
Y258780D01*
X574567Y181221D02*
Y258780D01*
Y181221D02*
X595433D01*
X587500Y258780D02*
X595433D01*
X574567D02*
X582500D01*
X587205Y257382D02*
X602953D01*
X587205Y267618D02*
X602953D01*
Y257382D02*
Y258465D01*
X587205Y257382D02*
Y258465D01*
X602953Y266535D02*
Y267618D01*
X587205Y266535D02*
Y267618D01*
X297205Y227382D02*
X312953D01*
X297205Y237618D02*
X312953D01*
Y227382D02*
Y228465D01*
X297205Y227382D02*
Y228465D01*
X312953Y236535D02*
Y237618D01*
X297205Y236535D02*
Y237618D01*
X305433Y125787D02*
Y224213D01*
X284567Y125787D02*
Y224213D01*
Y125787D02*
X305433D01*
X297500Y224213D02*
X305433D01*
X284567D02*
X292500D01*
X425000Y125000D02*
Y215000D01*
X415000D02*
X425000D01*
X415000Y125000D02*
Y215000D01*
Y125000D02*
X425000D01*
X455433Y125787D02*
Y224213D01*
X434567Y125787D02*
Y224213D01*
Y125787D02*
X455433D01*
X447500Y224213D02*
X455433D01*
X434567D02*
X442500D01*
X447205Y227382D02*
X462953D01*
X447205Y237618D02*
X462953D01*
Y227382D02*
Y228465D01*
X447205Y227382D02*
Y228465D01*
X462953Y236535D02*
Y237618D01*
X447205Y236535D02*
Y237618D01*
X477618Y192205D02*
Y207953D01*
X467382Y192205D02*
Y207953D01*
X476535D02*
X477618D01*
X476535Y192205D02*
X477618D01*
X467382Y207953D02*
X468465D01*
X467382Y192205D02*
X468465D01*
X477618Y237205D02*
Y252953D01*
X467382Y237205D02*
Y252953D01*
X476535D02*
X477618D01*
X476535Y237205D02*
X477618D01*
X467382Y252953D02*
X468465D01*
X467382Y237205D02*
X468465D01*
X477618Y282205D02*
Y297953D01*
X467382Y282205D02*
Y297953D01*
X476535D02*
X477618D01*
X476535Y282205D02*
X477618D01*
X467382Y297953D02*
X468465D01*
X467382Y282205D02*
X468465D01*
X477618Y327205D02*
Y342953D01*
X467382Y327205D02*
Y342953D01*
X476535D02*
X477618D01*
X476535Y327205D02*
X477618D01*
X467382Y342953D02*
X468465D01*
X467382Y327205D02*
X468465D01*
X447205Y347382D02*
X462953D01*
X447205Y357618D02*
X462953D01*
Y347382D02*
Y348465D01*
X447205Y347382D02*
Y348465D01*
X462953Y356535D02*
Y357618D01*
X447205Y356535D02*
Y357618D01*
X434567Y344213D02*
X442500D01*
X447500D02*
X455433D01*
X434567Y245787D02*
X455433D01*
X434567D02*
Y344213D01*
X455433Y245787D02*
Y344213D01*
X415000Y245000D02*
X425000D01*
X415000D02*
Y335000D01*
X425000D01*
Y245000D02*
Y335000D01*
X331221Y314567D02*
Y322500D01*
Y327500D02*
Y335433D01*
X408780Y314567D02*
Y335433D01*
X331221Y314567D02*
X408780D01*
X331221Y335433D02*
X408780D01*
X331221Y269567D02*
Y277500D01*
Y282500D02*
Y290433D01*
X408780Y269567D02*
Y290433D01*
X331221Y269567D02*
X408780D01*
X331221Y290433D02*
X408780D01*
X331221Y224567D02*
Y232500D01*
Y237500D02*
Y245433D01*
X408780Y224567D02*
Y245433D01*
X331221Y224567D02*
X408780D01*
X331221Y245433D02*
X408780D01*
X331221Y200433D02*
X408780D01*
X331221Y179567D02*
X408780D01*
Y200433D01*
X331221Y192500D02*
Y200433D01*
Y179567D02*
Y187500D01*
X326221Y155433D02*
X403780D01*
X326221Y134567D02*
X403780D01*
Y155433D01*
X326221Y147500D02*
Y155433D01*
Y134567D02*
Y142500D01*
X327618Y147205D02*
Y162953D01*
X317382Y147205D02*
Y162953D01*
X326535D02*
X327618D01*
X326535Y147205D02*
X327618D01*
X317382Y162953D02*
X318465D01*
X317382Y147205D02*
X318465D01*
X327618Y192205D02*
Y207953D01*
X317382Y192205D02*
Y207953D01*
X326535D02*
X327618D01*
X326535Y192205D02*
X327618D01*
X317382Y207953D02*
X318465D01*
X317382Y192205D02*
X318465D01*
X327618Y237205D02*
Y252953D01*
X317382Y237205D02*
Y252953D01*
X326535D02*
X327618D01*
X326535Y237205D02*
X327618D01*
X317382Y252953D02*
X318465D01*
X317382Y237205D02*
X318465D01*
X327618Y282205D02*
Y297953D01*
X317382Y282205D02*
Y297953D01*
X326535D02*
X327618D01*
X326535Y282205D02*
X327618D01*
X317382Y297953D02*
X318465D01*
X317382Y282205D02*
X318465D01*
X327618Y327205D02*
Y342953D01*
X317382Y327205D02*
Y342953D01*
X326535D02*
X327618D01*
X326535Y327205D02*
X327618D01*
X317382Y342953D02*
X318465D01*
X317382Y327205D02*
X318465D01*
X297205Y347382D02*
X312953D01*
X297205Y357618D02*
X312953D01*
Y347382D02*
Y348465D01*
X297205Y347382D02*
Y348465D01*
X312953Y356535D02*
Y357618D01*
X297205Y356535D02*
Y357618D01*
X284567Y344213D02*
X292500D01*
X297500D02*
X305433D01*
X284567Y245787D02*
X305433D01*
X284567D02*
Y344213D01*
X305433Y245787D02*
Y344213D01*
X265000Y245000D02*
X275000D01*
X265000D02*
Y335000D01*
X275000D01*
Y245000D02*
Y335000D01*
X115000Y245000D02*
X125000D01*
X115000D02*
Y335000D01*
X125000D01*
Y245000D02*
Y335000D01*
X134567Y344213D02*
X142500D01*
X147500D02*
X155433D01*
X134567Y245787D02*
X155433D01*
X134567D02*
Y344213D01*
X155433Y245787D02*
Y344213D01*
X147205Y347382D02*
X162953D01*
X147205Y357618D02*
X162953D01*
Y347382D02*
Y348465D01*
X147205Y347382D02*
Y348465D01*
X162953Y356535D02*
Y357618D01*
X147205Y356535D02*
Y357618D01*
X177618Y327205D02*
Y342953D01*
X167382Y327205D02*
Y342953D01*
X176535D02*
X177618D01*
X176535Y327205D02*
X177618D01*
X167382Y342953D02*
X168465D01*
X167382Y327205D02*
X168465D01*
X181221Y335433D02*
X258780D01*
X181221Y314567D02*
X258780D01*
Y335433D01*
X181221Y327500D02*
Y335433D01*
Y314567D02*
Y322500D01*
X177618Y282205D02*
Y297953D01*
X167382Y282205D02*
Y297953D01*
X176535D02*
X177618D01*
X176535Y282205D02*
X177618D01*
X167382Y297953D02*
X168465D01*
X167382Y282205D02*
X168465D01*
X181221Y290433D02*
X258780D01*
X181221Y269567D02*
X258780D01*
Y290433D01*
X181221Y282500D02*
Y290433D01*
Y269567D02*
Y277500D01*
Y245433D02*
X258780D01*
X181221Y224567D02*
X258780D01*
Y245433D01*
X181221Y237500D02*
Y245433D01*
Y224567D02*
Y232500D01*
X177618Y237205D02*
Y252953D01*
X167382Y237205D02*
Y252953D01*
X176535D02*
X177618D01*
X176535Y237205D02*
X177618D01*
X167382Y252953D02*
X168465D01*
X167382Y237205D02*
X168465D01*
X275000Y125000D02*
Y215000D01*
X265000D02*
X275000D01*
X265000Y125000D02*
Y215000D01*
Y125000D02*
X275000D01*
X181221Y200433D02*
X258780D01*
X181221Y179567D02*
X258780D01*
Y200433D01*
X181221Y192500D02*
Y200433D01*
Y179567D02*
Y187500D01*
X177618Y192205D02*
Y207953D01*
X167382Y192205D02*
Y207953D01*
X176535D02*
X177618D01*
X176535Y192205D02*
X177618D01*
X167382Y207953D02*
X168465D01*
X167382Y192205D02*
X168465D01*
X177618Y147205D02*
Y162953D01*
X167382Y147205D02*
Y162953D01*
X176535D02*
X177618D01*
X176535Y147205D02*
X177618D01*
X167382Y162953D02*
X168465D01*
X167382Y147205D02*
X168465D01*
X176221Y155433D02*
X253780D01*
X176221Y134567D02*
X253780D01*
Y155433D01*
X176221Y147500D02*
Y155433D01*
Y134567D02*
Y142500D01*
X101500Y115000D02*
X105000D01*
X101500Y315000D02*
X105000D01*
Y115000D02*
Y122500D01*
Y315000D01*
D12*
X158000Y118000D02*
X165000Y125000D01*
Y143500D02*
X167500Y146000D01*
X165000Y125000D02*
Y143500D01*
X475000Y360000D02*
X600000D01*
X425000D02*
X445000Y360000D01*
X327500Y360000D02*
X415000D01*
X275000D02*
X295000Y360000D01*
X177500Y360000D02*
X265000D01*
X110000Y360000D02*
X145000Y360000D01*
X105000Y110000D02*
X600000Y110000D01*
D13*
X488999Y367250D02*
X488249Y368000D01*
X486750D01*
X486000Y367250D01*
Y366500D01*
X486750Y365751D01*
X488249D01*
X488999Y365001D01*
Y364251D01*
X488249Y363502D01*
X486750D01*
X486000Y364251D01*
X493498Y366500D02*
X491248D01*
X490498Y365751D01*
Y364251D01*
X491248Y363502D01*
X493498D01*
X494997Y366500D02*
Y363502D01*
Y365001D01*
X495747Y365751D01*
X496497Y366500D01*
X497246D01*
X500245D02*
X501745D01*
X502495Y365751D01*
Y363502D01*
X500245D01*
X499496Y364251D01*
X500245Y365001D01*
X502495D01*
X504744Y367250D02*
Y366500D01*
X503994D01*
X505494D01*
X504744D01*
Y364251D01*
X505494Y363502D01*
X510742Y366500D02*
X508493D01*
X507743Y365751D01*
Y364251D01*
X508493Y363502D01*
X510742D01*
X512242Y368000D02*
Y363502D01*
Y365751D01*
X512991Y366500D01*
X514491D01*
X515241Y365751D01*
Y363502D01*
X521239D02*
Y368000D01*
X523488D01*
X524238Y367250D01*
Y365751D01*
X523488Y365001D01*
X521239D01*
X522738D02*
X524238Y363502D01*
X527986D02*
X526487D01*
X525737Y364251D01*
Y365751D01*
X526487Y366500D01*
X527986D01*
X528736Y365751D01*
Y365001D01*
X525737D01*
X531735Y362002D02*
X532485D01*
X533235Y362752D01*
Y366500D01*
X530985D01*
X530236Y365751D01*
Y364251D01*
X530985Y363502D01*
X533235D01*
X534734D02*
X536234D01*
X535484D01*
Y366500D01*
X534734D01*
X538483Y363502D02*
X540732D01*
X541482Y364251D01*
X540732Y365001D01*
X539233D01*
X538483Y365751D01*
X539233Y366500D01*
X541482D01*
X543731Y367250D02*
Y366500D01*
X542982D01*
X544481D01*
X543731D01*
Y364251D01*
X544481Y363502D01*
X548980D02*
X547480D01*
X546730Y364251D01*
Y365751D01*
X547480Y366500D01*
X548980D01*
X549729Y365751D01*
Y365001D01*
X546730D01*
X551229Y366500D02*
Y363502D01*
Y365001D01*
X551979Y365751D01*
X552729Y366500D01*
X553478D01*
X555727Y363502D02*
X557977D01*
X558727Y364251D01*
X557977Y365001D01*
X556477D01*
X555727Y365751D01*
X556477Y366500D01*
X558727D01*
X486000Y354204D02*
Y358702D01*
X488249D01*
X488999Y357952D01*
Y356453D01*
X488249Y355703D01*
X486000D01*
X487500D02*
X488999Y354204D01*
X492748D02*
X491248D01*
X490498Y354953D01*
Y356453D01*
X491248Y357203D01*
X492748D01*
X493498Y356453D01*
Y355703D01*
X490498D01*
X494997Y357203D02*
X496497Y354204D01*
X497996Y357203D01*
X503994Y354204D02*
Y357203D01*
X505494Y358702D01*
X506993Y357203D01*
Y354204D01*
Y356453D01*
X503994D01*
X526487Y354204D02*
X527986D01*
X527237D01*
Y358702D01*
X526487Y357952D01*
X530236Y354204D02*
X531735D01*
X530985D01*
Y358702D01*
X530236Y357952D01*
X533985Y354204D02*
X536984Y357203D01*
X541482Y354204D02*
X538483D01*
X541482Y357203D01*
Y357952D01*
X540732Y358702D01*
X539233D01*
X538483Y357952D01*
X545981Y358702D02*
X544481Y357952D01*
X542982Y356453D01*
Y354953D01*
X543731Y354204D01*
X545231D01*
X545981Y354953D01*
Y355703D01*
X545231Y356453D01*
X542982D01*
X547480Y354204D02*
X550479Y357203D01*
X554978Y354204D02*
X551979D01*
X554978Y357203D01*
Y357952D01*
X554228Y358702D01*
X552729D01*
X551979Y357952D01*
X556477D02*
X557227Y358702D01*
X558727D01*
X559476Y357952D01*
Y354953D01*
X558727Y354204D01*
X557227D01*
X556477Y354953D01*
Y357952D01*
X563975Y354204D02*
X560976D01*
X563975Y357203D01*
Y357952D01*
X563225Y358702D01*
X561726D01*
X560976Y357952D01*
X565474D02*
X566224Y358702D01*
X567724D01*
X568473Y357952D01*
Y357203D01*
X567724Y356453D01*
X566974D01*
X567724D01*
X568473Y355703D01*
Y354953D01*
X567724Y354204D01*
X566224D01*
X565474Y354953D01*
X488999Y350904D02*
X486000D01*
Y346405D01*
X488999D01*
X486000Y348655D02*
X487500D01*
X490498Y346405D02*
Y347155D01*
X491248D01*
Y346405D01*
X490498D01*
X501745Y350154D02*
X500995Y350904D01*
X499496D01*
X498746Y350154D01*
Y349404D01*
X499496Y348655D01*
X500995D01*
X501745Y347905D01*
Y347155D01*
X500995Y346405D01*
X499496D01*
X498746Y347155D01*
X503244Y350904D02*
X504744D01*
X503994D01*
Y346405D01*
X503244D01*
X504744D01*
X506993D02*
Y350904D01*
X508493Y349404D01*
X509992Y350904D01*
Y346405D01*
X514491Y350154D02*
X513741Y350904D01*
X512242D01*
X511492Y350154D01*
Y349404D01*
X512242Y348655D01*
X513741D01*
X514491Y347905D01*
Y347155D01*
X513741Y346405D01*
X512242D01*
X511492Y347155D01*
D14*
X121269Y340212D02*
Y336276D01*
X123237Y338244D02*
X119301D01*
D15*
X462253Y186499D02*
X465585D01*
X463919D01*
Y181501D01*
X467251D02*
Y186499D01*
X469750D01*
X470583Y185666D01*
Y184000D01*
X469750Y183167D01*
X467251D01*
X472250Y181501D02*
X473916D01*
X473083D01*
Y186499D01*
X472250Y185666D01*
X476415D02*
X477248Y186499D01*
X478914D01*
X479747Y185666D01*
Y184833D01*
X478914Y184000D01*
X478081D01*
X478914D01*
X479747Y183167D01*
Y182334D01*
X478914Y181501D01*
X477248D01*
X476415Y182334D01*
X578300Y317499D02*
X581632D01*
X579966D01*
Y312501D01*
X583298D02*
Y317499D01*
X585798D01*
X586631Y316666D01*
Y315000D01*
X585798Y314167D01*
X583298D01*
X588297Y312501D02*
X589963D01*
X589130D01*
Y317499D01*
X588297Y316666D01*
X595794Y312501D02*
X592462D01*
X595794Y315833D01*
Y316666D01*
X594961Y317499D01*
X593295D01*
X592462Y316666D01*
X313586Y185999D02*
X316918D01*
X315252D01*
Y181001D01*
X318584D02*
Y185999D01*
X321083D01*
X321917Y185166D01*
Y183500D01*
X321083Y182667D01*
X318584D01*
X323583Y181001D02*
X325249D01*
X324416D01*
Y185999D01*
X323583Y185166D01*
X327748Y181001D02*
X329414D01*
X328581D01*
Y185999D01*
X327748Y185166D01*
X578300Y302499D02*
X581632D01*
X579966D01*
Y297501D01*
X583298D02*
Y302499D01*
X585798D01*
X586631Y301666D01*
Y300000D01*
X585798Y299167D01*
X583298D01*
X588297Y297501D02*
X589963D01*
X589130D01*
Y302499D01*
X588297Y301666D01*
X592462D02*
X593295Y302499D01*
X594961D01*
X595794Y301666D01*
Y298334D01*
X594961Y297501D01*
X593295D01*
X592462Y298334D01*
Y301666D01*
X165835Y184999D02*
X169168D01*
X167502D01*
Y180001D01*
X170834D02*
Y184999D01*
X173333D01*
X174166Y184166D01*
Y182500D01*
X173333Y181667D01*
X170834D01*
X175832Y180834D02*
X176665Y180001D01*
X178331D01*
X179165Y180834D01*
Y184166D01*
X178331Y184999D01*
X176665D01*
X175832Y184166D01*
Y183333D01*
X176665Y182500D01*
X179165D01*
X578300Y287499D02*
X581632D01*
X579966D01*
Y282501D01*
X583298D02*
Y287499D01*
X585798D01*
X586631Y286666D01*
Y285000D01*
X585798Y284167D01*
X583298D01*
X588297Y286666D02*
X589130Y287499D01*
X590796D01*
X591629Y286666D01*
Y285833D01*
X590796Y285000D01*
X591629Y284167D01*
Y283334D01*
X590796Y282501D01*
X589130D01*
X588297Y283334D01*
Y284167D01*
X589130Y285000D01*
X588297Y285833D01*
Y286666D01*
X589130Y285000D02*
X590796D01*
X165835Y121999D02*
X169168D01*
X167502D01*
Y117001D01*
X170834D02*
Y121999D01*
X173333D01*
X174166Y121166D01*
Y119500D01*
X173333Y118667D01*
X170834D01*
X175832Y121999D02*
X179165D01*
Y121166D01*
X175832Y117834D01*
Y117001D01*
X578300Y332499D02*
X581632D01*
X579966D01*
Y327501D01*
X583298D02*
Y332499D01*
X585798D01*
X586631Y331666D01*
Y330000D01*
X585798Y329167D01*
X583298D01*
X591629Y332499D02*
X589963Y331666D01*
X588297Y330000D01*
Y328334D01*
X589130Y327501D01*
X590796D01*
X591629Y328334D01*
Y329167D01*
X590796Y330000D01*
X588297D01*
X575800Y354999D02*
X579132D01*
X577466D01*
Y350001D01*
X580798D02*
Y354999D01*
X583298D01*
X584131Y354166D01*
Y352500D01*
X583298Y351667D01*
X580798D01*
X589129Y354999D02*
X585797D01*
Y352500D01*
X587463Y353333D01*
X588296D01*
X589129Y352500D01*
Y350834D01*
X588296Y350001D01*
X586630D01*
X585797Y350834D01*
X267084Y218300D02*
Y221632D01*
Y219966D01*
X272083D01*
Y223298D02*
X267084D01*
Y225798D01*
X267917Y226631D01*
X269584D01*
X270416Y225798D01*
Y223298D01*
X272083Y231629D02*
Y228297D01*
X268750Y231629D01*
X267917D01*
X267084Y230796D01*
Y229130D01*
X267917Y228297D01*
X272916Y233295D02*
Y236627D01*
X267084Y238294D02*
X272083D01*
X270416D01*
X267084Y241626D01*
X269584Y239127D01*
X272083Y241626D01*
X117084Y218300D02*
Y221632D01*
Y219966D01*
X122083D01*
Y223298D02*
X117084D01*
Y225798D01*
X117917Y226631D01*
X119583D01*
X120416Y225798D01*
Y223298D01*
X122083Y231629D02*
Y228297D01*
X118750Y231629D01*
X117917D01*
X117084Y230796D01*
Y229130D01*
X117917Y228297D01*
X122916Y233295D02*
Y236627D01*
X117084Y241626D02*
Y239960D01*
Y240793D01*
X121250D01*
X122083Y239960D01*
Y239127D01*
X121250Y238294D01*
X417084Y218300D02*
Y221632D01*
Y219966D01*
X422083D01*
Y223298D02*
X417084D01*
Y225798D01*
X417917Y226631D01*
X419584D01*
X420416Y225798D01*
Y223298D01*
X422083Y231629D02*
Y228297D01*
X418750Y231629D01*
X417917D01*
X417084Y230796D01*
Y229130D01*
X417917Y228297D01*
X422916Y233295D02*
Y236627D01*
X417084Y238294D02*
X422083D01*
Y240793D01*
X421250Y241626D01*
X417917D01*
X417084Y240793D01*
Y238294D01*
X568335Y267499D02*
Y263334D01*
X569168Y262501D01*
X570834D01*
X571667Y263334D01*
Y267499D01*
X573333Y266666D02*
X574166Y267499D01*
X575832D01*
X576665Y266666D01*
Y265833D01*
X575832Y265000D01*
X576665Y264167D01*
Y263334D01*
X575832Y262501D01*
X574166D01*
X573333Y263334D01*
Y264167D01*
X574166Y265000D01*
X573333Y265833D01*
Y266666D01*
X574166Y265000D02*
X575832D01*
X563336Y133499D02*
X566668D01*
X565002D01*
Y128501D01*
X568334D02*
Y133499D01*
X570833D01*
X571666Y132666D01*
Y131000D01*
X570833Y130167D01*
X568334D01*
X573332Y132666D02*
X574165Y133499D01*
X575831D01*
X576664Y132666D01*
Y131833D01*
X575831Y131000D01*
X574998D01*
X575831D01*
X576664Y130167D01*
Y129334D01*
X575831Y128501D01*
X574165D01*
X573332Y129334D01*
X603336Y302499D02*
X606668D01*
X605002D01*
Y297501D01*
X608334D02*
Y302499D01*
X610833D01*
X611666Y301666D01*
Y300000D01*
X610833Y299167D01*
X608334D01*
X615831Y297501D02*
Y302499D01*
X613332Y300000D01*
X616665D01*
X267084Y338300D02*
Y341632D01*
Y339966D01*
X272083D01*
Y343298D02*
X267084D01*
Y345798D01*
X267917Y346631D01*
X269584D01*
X270416Y345798D01*
Y343298D01*
X272083Y348297D02*
Y349963D01*
Y349130D01*
X267084D01*
X267917Y348297D01*
X272916Y352462D02*
Y355794D01*
X267084Y357460D02*
X272083D01*
X270416D01*
X267084Y360793D01*
X269584Y358294D01*
X272083Y360793D01*
X107084Y313754D02*
Y317086D01*
Y315420D01*
X112083D01*
Y318752D02*
X107084D01*
Y321251D01*
X107917Y322084D01*
X109583D01*
X110416Y321251D01*
Y318752D01*
X112083Y323750D02*
Y325416D01*
Y324584D01*
X107084D01*
X107917Y323750D01*
X112916Y327916D02*
Y331248D01*
X107084Y336246D02*
Y334580D01*
Y335413D01*
X111250D01*
X112083Y334580D01*
Y333747D01*
X111250Y332914D01*
X417084Y338300D02*
Y341632D01*
Y339966D01*
X422083D01*
Y343298D02*
X417084D01*
Y345798D01*
X417917Y346631D01*
X419584D01*
X420416Y345798D01*
Y343298D01*
X422083Y348297D02*
Y349963D01*
Y349130D01*
X417084D01*
X417917Y348297D01*
X422916Y352462D02*
Y355794D01*
X417084Y357460D02*
X422083D01*
Y359960D01*
X421250Y360793D01*
X417917D01*
X417084Y359960D01*
Y357460D01*
X104501Y360475D02*
X103668Y359642D01*
Y357976D01*
X104501Y357143D01*
X107834D01*
X108667Y357976D01*
Y359642D01*
X107834Y360475D01*
Y362141D02*
X108667Y362974D01*
Y364640D01*
X107834Y365473D01*
X104501D01*
X103668Y364640D01*
Y362974D01*
X104501Y362141D01*
X105334D01*
X106167Y362974D01*
Y365473D01*
X594167Y274166D02*
X593334Y274999D01*
X591668D01*
X590835Y274166D01*
Y270834D01*
X591668Y270001D01*
X593334D01*
X594167Y270834D01*
X595833Y274166D02*
X596666Y274999D01*
X598332D01*
X599165Y274166D01*
Y273333D01*
X598332Y272500D01*
X599165Y271667D01*
Y270834D01*
X598332Y270001D01*
X596666D01*
X595833Y270834D01*
Y271667D01*
X596666Y272500D01*
X595833Y273333D01*
Y274166D01*
X596666Y272500D02*
X598332D01*
X317917Y129169D02*
X317084Y128335D01*
Y126669D01*
X317917Y125836D01*
X321250D01*
X322083Y126669D01*
Y128335D01*
X321250Y129169D01*
X317084Y130835D02*
Y134167D01*
X317917D01*
X321250Y130835D01*
X322083D01*
X322916Y135833D02*
Y139165D01*
X317084Y140831D02*
X322083D01*
X320416D01*
X317084Y144164D01*
X319584Y141665D01*
X322083Y144164D01*
X141669Y117583D02*
X140835Y118416D01*
X139169D01*
X138336Y117583D01*
Y114250D01*
X139169Y113417D01*
X140835D01*
X141669Y114250D01*
X143335Y118416D02*
X146667D01*
Y117583D01*
X143335Y114250D01*
Y113417D01*
X148333Y112584D02*
X151665D01*
X156664Y118416D02*
X154998D01*
X155831D01*
Y114250D01*
X154998Y113417D01*
X154165D01*
X153331Y114250D01*
X467917Y129169D02*
X467084Y128335D01*
Y126669D01*
X467917Y125836D01*
X471250D01*
X472083Y126669D01*
Y128335D01*
X471250Y129169D01*
X467084Y130835D02*
Y134167D01*
X467917D01*
X471250Y130835D01*
X472083D01*
X472916Y135833D02*
Y139165D01*
X467084Y140831D02*
X472083D01*
Y143331D01*
X471250Y144164D01*
X467917D01*
X467084Y143331D01*
Y140831D01*
X279169Y239583D02*
X278335Y240416D01*
X276669D01*
X275836Y239583D01*
Y236250D01*
X276669Y235417D01*
X278335D01*
X279169Y236250D01*
X284167Y240416D02*
X282501Y239583D01*
X280835Y237916D01*
Y236250D01*
X281668Y235417D01*
X283334D01*
X284167Y236250D01*
Y237084D01*
X283334Y237916D01*
X280835D01*
X285833Y234584D02*
X289165D01*
X290831Y240416D02*
Y235417D01*
Y237084D01*
X294164Y240416D01*
X291665Y237916D01*
X294164Y235417D01*
X129169Y239583D02*
X128335Y240416D01*
X126669D01*
X125836Y239583D01*
Y236250D01*
X126669Y235417D01*
X128335D01*
X129169Y236250D01*
X134167Y240416D02*
X132501Y239583D01*
X130835Y237916D01*
Y236250D01*
X131668Y235417D01*
X133334D01*
X134167Y236250D01*
Y237084D01*
X133334Y237916D01*
X130835D01*
X135833Y234584D02*
X139165D01*
X144164Y240416D02*
X142498D01*
X143331D01*
Y236250D01*
X142498Y235417D01*
X141665D01*
X140831Y236250D01*
X429169Y239583D02*
X428336Y240416D01*
X426669D01*
X425836Y239583D01*
Y236250D01*
X426669Y235417D01*
X428336D01*
X429169Y236250D01*
X434167Y240416D02*
X432501Y239583D01*
X430835Y237916D01*
Y236250D01*
X431668Y235417D01*
X433334D01*
X434167Y236250D01*
Y237084D01*
X433334Y237916D01*
X430835D01*
X435833Y234584D02*
X439165D01*
X440831Y240416D02*
Y235417D01*
X443331D01*
X444164Y236250D01*
Y239583D01*
X443331Y240416D01*
X440831D01*
X299169Y364583D02*
X298336Y365416D01*
X296669D01*
X295836Y364583D01*
Y361250D01*
X296669Y360417D01*
X298336D01*
X299169Y361250D01*
X304167Y365416D02*
X300835D01*
Y362916D01*
X302501Y363750D01*
X303334D01*
X304167Y362916D01*
Y361250D01*
X303334Y360417D01*
X301668D01*
X300835Y361250D01*
X305833Y359584D02*
X309165D01*
X310831Y365416D02*
Y360417D01*
Y362084D01*
X314164Y365416D01*
X311665Y362916D01*
X314164Y360417D01*
X149169Y364583D02*
X148336Y365416D01*
X146669D01*
X145836Y364583D01*
Y361250D01*
X146669Y360417D01*
X148336D01*
X149169Y361250D01*
X154167Y365416D02*
X150835D01*
Y362916D01*
X152501Y363750D01*
X153334D01*
X154167Y362916D01*
Y361250D01*
X153334Y360417D01*
X151668D01*
X150835Y361250D01*
X155833Y359584D02*
X159165D01*
X164164Y365416D02*
X162498D01*
X163331D01*
Y361250D01*
X162498Y360417D01*
X161664D01*
X160831Y361250D01*
X449169Y364583D02*
X448336Y365416D01*
X446669D01*
X445836Y364583D01*
Y361250D01*
X446669Y360417D01*
X448336D01*
X449169Y361250D01*
X454167Y365416D02*
X450835D01*
Y362916D01*
X452501Y363750D01*
X453334D01*
X454167Y362916D01*
Y361250D01*
X453334Y360417D01*
X451668D01*
X450835Y361250D01*
X455833Y359584D02*
X459165D01*
X460831Y365416D02*
Y360417D01*
X463331D01*
X464164Y361250D01*
Y364583D01*
X463331Y365416D01*
X460831D01*
X320417Y216632D02*
X319584Y215799D01*
Y214133D01*
X320417Y213300D01*
X323750D01*
X324583Y214133D01*
Y215799D01*
X323750Y216632D01*
X324583Y220798D02*
X319584D01*
X322083Y218298D01*
Y221631D01*
X325416Y223297D02*
Y226629D01*
X319584Y228295D02*
X324583D01*
X322917D01*
X319584Y231627D01*
X322083Y229128D01*
X324583Y231627D01*
X170417Y216632D02*
X169584Y215799D01*
Y214133D01*
X170417Y213300D01*
X173750D01*
X174583Y214133D01*
Y215799D01*
X173750Y216632D01*
X174583Y220798D02*
X169584D01*
X172083Y218298D01*
Y221631D01*
X175416Y223297D02*
Y226629D01*
X169584Y231627D02*
Y229961D01*
Y230794D01*
X173750D01*
X174583Y229961D01*
Y229128D01*
X173750Y228295D01*
X470417Y216632D02*
X469584Y215799D01*
Y214133D01*
X470417Y213300D01*
X473750D01*
X474583Y214133D01*
Y215799D01*
X473750Y216632D01*
X474583Y220798D02*
X469584D01*
X472084Y218298D01*
Y221631D01*
X475416Y223297D02*
Y226629D01*
X469584Y228295D02*
X474583D01*
Y230794D01*
X473750Y231627D01*
X470417D01*
X469584Y230794D01*
Y228295D01*
X320417Y261632D02*
X319584Y260799D01*
Y259133D01*
X320417Y258300D01*
X323750D01*
X324583Y259133D01*
Y260799D01*
X323750Y261632D01*
X320417Y263298D02*
X319584Y264131D01*
Y265798D01*
X320417Y266631D01*
X321250D01*
X322083Y265798D01*
Y264965D01*
Y265798D01*
X322917Y266631D01*
X323750D01*
X324583Y265798D01*
Y264131D01*
X323750Y263298D01*
X325416Y268297D02*
Y271629D01*
X319584Y273295D02*
X324583D01*
X322917D01*
X319584Y276627D01*
X322083Y274128D01*
X324583Y276627D01*
X170417Y261632D02*
X169584Y260799D01*
Y259133D01*
X170417Y258300D01*
X173750D01*
X174583Y259133D01*
Y260799D01*
X173750Y261632D01*
X170417Y263298D02*
X169584Y264131D01*
Y265798D01*
X170417Y266631D01*
X171250D01*
X172083Y265798D01*
Y264965D01*
Y265798D01*
X172916Y266631D01*
X173750D01*
X174583Y265798D01*
Y264131D01*
X173750Y263298D01*
X175416Y268297D02*
Y271629D01*
X169584Y276627D02*
Y274961D01*
Y275794D01*
X173750D01*
X174583Y274961D01*
Y274128D01*
X173750Y273295D01*
X470417Y261632D02*
X469584Y260799D01*
Y259133D01*
X470417Y258300D01*
X473750D01*
X474583Y259133D01*
Y260799D01*
X473750Y261632D01*
X470417Y263298D02*
X469584Y264131D01*
Y265798D01*
X470417Y266631D01*
X471250D01*
X472084Y265798D01*
Y264965D01*
Y265798D01*
X472917Y266631D01*
X473750D01*
X474583Y265798D01*
Y264131D01*
X473750Y263298D01*
X475416Y268297D02*
Y271629D01*
X469584Y273295D02*
X474583D01*
Y275794D01*
X473750Y276627D01*
X470417D01*
X469584Y275794D01*
Y273295D01*
X320417Y306632D02*
X319584Y305799D01*
Y304133D01*
X320417Y303300D01*
X323750D01*
X324583Y304133D01*
Y305799D01*
X323750Y306632D01*
X324583Y311631D02*
Y308298D01*
X321250Y311631D01*
X320417D01*
X319584Y310798D01*
Y309131D01*
X320417Y308298D01*
X325416Y313297D02*
Y316629D01*
X319584Y318295D02*
X324583D01*
X322917D01*
X319584Y321627D01*
X322083Y319128D01*
X324583Y321627D01*
X170417Y306632D02*
X169584Y305799D01*
Y304133D01*
X170417Y303300D01*
X173750D01*
X174583Y304133D01*
Y305799D01*
X173750Y306632D01*
X174583Y311631D02*
Y308298D01*
X171250Y311631D01*
X170417D01*
X169584Y310798D01*
Y309131D01*
X170417Y308298D01*
X175416Y313297D02*
Y316629D01*
X169584Y321627D02*
Y319961D01*
Y320794D01*
X173750D01*
X174583Y319961D01*
Y319128D01*
X173750Y318295D01*
X470417Y306632D02*
X469584Y305799D01*
Y304133D01*
X470417Y303300D01*
X473750D01*
X474583Y304133D01*
Y305799D01*
X473750Y306632D01*
X474583Y311631D02*
Y308298D01*
X471250Y311631D01*
X470417D01*
X469584Y310798D01*
Y309131D01*
X470417Y308298D01*
X475416Y313297D02*
Y316629D01*
X469584Y318295D02*
X474583D01*
Y320794D01*
X473750Y321627D01*
X470417D01*
X469584Y320794D01*
Y318295D01*
X320417Y351632D02*
X319584Y350799D01*
Y349133D01*
X320417Y348300D01*
X323750D01*
X324583Y349133D01*
Y350799D01*
X323750Y351632D01*
X324583Y353298D02*
Y354964D01*
Y354131D01*
X319584D01*
X320417Y353298D01*
X325416Y357464D02*
Y360796D01*
X319584Y362462D02*
X324583D01*
X322917D01*
X319584Y365794D01*
X322083Y363295D01*
X324583Y365794D01*
X170417Y351632D02*
X169584Y350799D01*
Y349133D01*
X170417Y348300D01*
X173750D01*
X174583Y349133D01*
Y350799D01*
X173750Y351632D01*
X174583Y353298D02*
Y354964D01*
Y354131D01*
X169584D01*
X170417Y353298D01*
X175416Y357464D02*
Y360796D01*
X169584Y365794D02*
Y364128D01*
Y364961D01*
X173750D01*
X174583Y364128D01*
Y363295D01*
X173750Y362462D01*
X467917Y351632D02*
X467084Y350799D01*
Y349133D01*
X467917Y348300D01*
X471250D01*
X472083Y349133D01*
Y350799D01*
X471250Y351632D01*
X472083Y353298D02*
Y354964D01*
Y354131D01*
X467084D01*
X467917Y353298D01*
X472916Y357464D02*
Y360796D01*
X467084Y362462D02*
X472083D01*
Y364961D01*
X471250Y365794D01*
X467917D01*
X467084Y364961D01*
Y362462D01*
X333336Y125416D02*
Y121250D01*
X334169Y120417D01*
X335836D01*
X336669Y121250D01*
Y125416D01*
X338335D02*
X341667D01*
Y124583D01*
X338335Y121250D01*
Y120417D01*
X343333Y119584D02*
X346665D01*
X348331Y125416D02*
Y120417D01*
Y122083D01*
X351664Y125416D01*
X349165Y122916D01*
X351664Y120417D01*
X183336Y125416D02*
Y121250D01*
X184169Y120417D01*
X185836D01*
X186669Y121250D01*
Y125416D01*
X188335D02*
X191667D01*
Y124583D01*
X188335Y121250D01*
Y120417D01*
X193333Y119584D02*
X196665D01*
X201664Y125416D02*
X199998D01*
X200831D01*
Y121250D01*
X199998Y120417D01*
X199164D01*
X198331Y121250D01*
X483336Y125416D02*
Y121250D01*
X484169Y120417D01*
X485836D01*
X486669Y121250D01*
Y125416D01*
X488335D02*
X491667D01*
Y124583D01*
X488335Y121250D01*
Y120417D01*
X493333Y119584D02*
X496665D01*
X498331Y125416D02*
Y120417D01*
X500831D01*
X501664Y121250D01*
Y124583D01*
X500831Y125416D01*
X498331D01*
X275836Y232916D02*
Y228750D01*
X276669Y227917D01*
X278335D01*
X279169Y228750D01*
Y232916D01*
X284167D02*
X282501Y232083D01*
X280835Y230416D01*
Y228750D01*
X281668Y227917D01*
X283334D01*
X284167Y228750D01*
Y229584D01*
X283334Y230416D01*
X280835D01*
X285833Y227084D02*
X289165D01*
X290831Y232916D02*
Y227917D01*
Y229584D01*
X294164Y232916D01*
X291665Y230416D01*
X294164Y227917D01*
X425836Y232916D02*
Y228750D01*
X426669Y227917D01*
X428336D01*
X429169Y228750D01*
Y232916D01*
X434167D02*
X432501Y232083D01*
X430835Y230416D01*
Y228750D01*
X431668Y227917D01*
X433334D01*
X434167Y228750D01*
Y229584D01*
X433334Y230416D01*
X430835D01*
X435833Y227084D02*
X439165D01*
X440831Y232916D02*
Y227917D01*
X443331D01*
X444164Y228750D01*
Y232083D01*
X443331Y232916D01*
X440831D01*
X275836Y352916D02*
Y348750D01*
X276669Y347917D01*
X278335D01*
X279169Y348750D01*
Y352916D01*
X284167D02*
X280835D01*
Y350416D01*
X282501Y351250D01*
X283334D01*
X284167Y350416D01*
Y348750D01*
X283334Y347917D01*
X281668D01*
X280835Y348750D01*
X285833Y347084D02*
X289165D01*
X290831Y352916D02*
Y347917D01*
Y349584D01*
X294164Y352916D01*
X291665Y350416D01*
X294164Y347917D01*
X425836Y352916D02*
Y348750D01*
X426669Y347917D01*
X428336D01*
X429169Y348750D01*
Y352916D01*
X434167D02*
X430835D01*
Y350416D01*
X432501Y351250D01*
X433334D01*
X434167Y350416D01*
Y348750D01*
X433334Y347917D01*
X431668D01*
X430835Y348750D01*
X435833Y347084D02*
X439165D01*
X440831Y352916D02*
Y347917D01*
X443331D01*
X444164Y348750D01*
Y352083D01*
X443331Y352916D01*
X440831D01*
X333336Y170416D02*
Y166250D01*
X334169Y165417D01*
X335836D01*
X336669Y166250D01*
Y170416D01*
X340834Y165417D02*
Y170416D01*
X338335Y167917D01*
X341667D01*
X343333Y164584D02*
X346665D01*
X348331Y170416D02*
Y165417D01*
Y167084D01*
X351664Y170416D01*
X349165Y167917D01*
X351664Y165417D01*
X483336Y170416D02*
Y166250D01*
X484169Y165417D01*
X485836D01*
X486669Y166250D01*
Y170416D01*
X490834Y165417D02*
Y170416D01*
X488335Y167917D01*
X491667D01*
X493333Y164584D02*
X496665D01*
X498331Y170416D02*
Y165417D01*
X500831D01*
X501664Y166250D01*
Y169583D01*
X500831Y170416D01*
X498331D01*
X333336Y260416D02*
Y256250D01*
X334169Y255417D01*
X335836D01*
X336669Y256250D01*
Y260416D01*
X341667Y255417D02*
X338335D01*
X341667Y258750D01*
Y259583D01*
X340834Y260416D01*
X339168D01*
X338335Y259583D01*
X343333Y254584D02*
X346665D01*
X348331Y260416D02*
Y255417D01*
Y257084D01*
X351664Y260416D01*
X349165Y257916D01*
X351664Y255417D01*
X483336Y260416D02*
Y256250D01*
X484169Y255417D01*
X485836D01*
X486669Y256250D01*
Y260416D01*
X491667Y255417D02*
X488335D01*
X491667Y258750D01*
Y259583D01*
X490834Y260416D01*
X489168D01*
X488335Y259583D01*
X493333Y254584D02*
X496665D01*
X498331Y260416D02*
Y255417D01*
X500831D01*
X501664Y256250D01*
Y259583D01*
X500831Y260416D01*
X498331D01*
X333336Y215416D02*
Y211250D01*
X334169Y210417D01*
X335836D01*
X336669Y211250D01*
Y215416D01*
X338335Y214583D02*
X339168Y215416D01*
X340834D01*
X341667Y214583D01*
Y213750D01*
X340834Y212916D01*
X340001D01*
X340834D01*
X341667Y212084D01*
Y211250D01*
X340834Y210417D01*
X339168D01*
X338335Y211250D01*
X343333Y209584D02*
X346665D01*
X348331Y215416D02*
Y210417D01*
Y212084D01*
X351664Y215416D01*
X349165Y212916D01*
X351664Y210417D01*
X483336Y215416D02*
Y211250D01*
X484169Y210417D01*
X485836D01*
X486669Y211250D01*
Y215416D01*
X488335Y214583D02*
X489168Y215416D01*
X490834D01*
X491667Y214583D01*
Y213750D01*
X490834Y212916D01*
X490001D01*
X490834D01*
X491667Y212084D01*
Y211250D01*
X490834Y210417D01*
X489168D01*
X488335Y211250D01*
X493333Y209584D02*
X496665D01*
X498331Y215416D02*
Y210417D01*
X500831D01*
X501664Y211250D01*
Y214583D01*
X500831Y215416D01*
X498331D01*
X333753Y305416D02*
Y301250D01*
X334586Y300417D01*
X336252D01*
X337085Y301250D01*
Y305416D01*
X338751Y300417D02*
X340417D01*
X339584D01*
Y305416D01*
X338751Y304583D01*
X342916Y299584D02*
X346249D01*
X347915Y305416D02*
Y300417D01*
Y302083D01*
X351247Y305416D01*
X348748Y302917D01*
X351247Y300417D01*
X483753Y305416D02*
Y301250D01*
X484586Y300417D01*
X486252D01*
X487085Y301250D01*
Y305416D01*
X488751Y300417D02*
X490417D01*
X489584D01*
Y305416D01*
X488751Y304583D01*
X492916Y299584D02*
X496249D01*
X497915Y305416D02*
Y300417D01*
X500414D01*
X501247Y301250D01*
Y304583D01*
X500414Y305416D01*
X497915D01*
X125836Y232916D02*
Y228750D01*
X126669Y227917D01*
X128335D01*
X129169Y228750D01*
Y232916D01*
X134167D02*
X132501Y232083D01*
X130835Y230416D01*
Y228750D01*
X131668Y227917D01*
X133334D01*
X134167Y228750D01*
Y229584D01*
X133334Y230416D01*
X130835D01*
X135833Y227084D02*
X139165D01*
X144164Y232916D02*
X142498D01*
X143331D01*
Y228750D01*
X142498Y227917D01*
X141665D01*
X140831Y228750D01*
X125836Y352916D02*
Y348750D01*
X126669Y347917D01*
X128335D01*
X129169Y348750D01*
Y352916D01*
X134167D02*
X130835D01*
Y350416D01*
X132501Y351250D01*
X133334D01*
X134167Y350416D01*
Y348750D01*
X133334Y347917D01*
X131668D01*
X130835Y348750D01*
X135833Y347084D02*
X139165D01*
X144164Y352916D02*
X142498D01*
X143331D01*
Y348750D01*
X142498Y347917D01*
X141665D01*
X140831Y348750D01*
X183336Y170416D02*
Y166250D01*
X184169Y165417D01*
X185836D01*
X186669Y166250D01*
Y170416D01*
X190834Y165417D02*
Y170416D01*
X188335Y167917D01*
X191667D01*
X193333Y164584D02*
X196665D01*
X201664Y170416D02*
X199998D01*
X200831D01*
Y166250D01*
X199998Y165417D01*
X199164D01*
X198331Y166250D01*
X183336Y260416D02*
Y256250D01*
X184169Y255417D01*
X185836D01*
X186669Y256250D01*
Y260416D01*
X191667Y255417D02*
X188335D01*
X191667Y258750D01*
Y259583D01*
X190834Y260416D01*
X189168D01*
X188335Y259583D01*
X193333Y254584D02*
X196665D01*
X201664Y260416D02*
X199998D01*
X200831D01*
Y256250D01*
X199998Y255417D01*
X199164D01*
X198331Y256250D01*
X183336Y215416D02*
Y211250D01*
X184169Y210417D01*
X185836D01*
X186669Y211250D01*
Y215416D01*
X188335Y214583D02*
X189168Y215416D01*
X190834D01*
X191667Y214583D01*
Y213750D01*
X190834Y212916D01*
X190001D01*
X190834D01*
X191667Y212084D01*
Y211250D01*
X190834Y210417D01*
X189168D01*
X188335Y211250D01*
X193333Y209584D02*
X196665D01*
X201664Y215416D02*
X199998D01*
X200831D01*
Y211250D01*
X199998Y210417D01*
X199164D01*
X198331Y211250D01*
X183753Y305416D02*
Y301250D01*
X184586Y300417D01*
X186252D01*
X187085Y301250D01*
Y305416D01*
X188751Y300417D02*
X190417D01*
X189584D01*
Y305416D01*
X188751Y304583D01*
X192917Y299584D02*
X196249D01*
X201247Y305416D02*
X199581D01*
X200414D01*
Y301250D01*
X199581Y300417D01*
X198748D01*
X197915Y301250D01*
X119999Y114168D02*
X115001D01*
Y116667D01*
X115834Y117500D01*
X117500D01*
X118333Y116667D01*
Y114168D01*
X119999Y119166D02*
Y120832D01*
Y119999D01*
X115001D01*
X115834Y119166D01*
M02*
