M48
;Layer_Color=9474304
;FILE_FORMAT=2:5
INCH,LZ
;TYPE=PLATED
T1F00S00C0.02953
T2F00S00C0.03346
T3F00S00C0.03543
T4F00S00C0.03937
T5F00S00C0.06299
T6F00S00C0.06600
T7F00S00C0.08071
T8F00S00C0.10900
%
T01
X0145Y0141063
X0145Y0148937
X017
X017Y0141063
X0195
X0195Y0148937
X022
X022Y0141063
T02
X0495Y033
X0525
T03
X011Y012
X012
Y013
X011
Y014
X012
Y015
X011
Y016
X012
Y017
X011
Y018
X012
Y019
X011
T04
X054Y0329606
Y0339606
T05
X025Y013
Y017
X023Y029
X027
X019
X015
T06
X055Y0205
Y0225
X057
Y0205
Y026
Y028
X055
Y026
T07
X056Y031
Y0349213
T08
X0595Y0125
M30
