M48
;Layer_Color=9474304
;FILE_FORMAT=2:5
INCH,LZ
;TYPE=PLATED
T1F00S00C0.03543
%
T01
X011Y012
Y013
Y014
Y015
X012
Y014
Y013
Y012
X015
Y013
Y014
Y015
X018
Y014
Y013
Y012
X0225
Y013
Y014
Y015
X0255
Y014
Y013
Y012
X0316Y0189
X0326
X0336
X0346
X0356
X0366
X0376
X0386
X0396
X0406
X0416
X0426
X0436
X0446
Y0249
X0436
X0426
X0416
X0406
X0396
X0386
X0376
X0366
X0356
X0346
X0336
X0326
X0316
X022Y025
Y026
Y027
Y028
X019
Y027
Y026
Y025
Y024
Y023
Y022
X018Y021
Y02
Y019
Y018
Y017
Y016
X0225
Y017
Y018
X0255
Y017
Y016
X022Y022
Y023
Y024
X012
Y025
Y026
Y027
Y028
Y029
Y03
Y031
X011
Y03
Y029
Y028
Y027
Y026
Y025
Y024
Y023
X012
Y022
X011
Y021
X012
Y02
X011
Y019
X012
Y018
X011
Y017
X012
Y016
X011
X015
Y017
Y018
Y019
Y02
Y021
M30
