M48
;Layer_Color=9474304
;FILE_FORMAT=2:5
INCH,LZ
;TYPE=PLATED
T1F00S00C0.01000
T2F00S00C0.02000
T3F00S00C0.02953
T4F00S00C0.03543
T5F00S00C0.06299
T6F00S00C0.10900
%
T01
X01385Y0122
X0143Y013
X0146Y014
Y01522
X01385Y01475
X01725Y0122
X0195
X0215Y01245
X0222Y014
X0227553Y01422
X0228Y0135
X0235Y0138
X0240847Y0145
X0214Y015
X0210847Y0152153
X0205Y0145
X0255847Y01263
X0263Y01213
X0345Y012
X0375Y01235
X0378Y0135
X0377553Y01422
X0372Y014
X0385Y0138
X0390847Y0145
X0364Y015
X0360847Y0152153
X0355Y0145
X0406Y01265
X0495Y012
X0525Y01235
X0528Y0135
X0527553Y01422
X0522Y014
X0535Y0138
X0540847Y0145
X0514Y015
X0510847Y0152153
X0505Y0145
X0583Y0126
X0588Y013
X06075Y0134
X0538Y017
X0535Y0184
X0528Y018
X0525Y0187
X0518Y019
X0508153Y0199
X04965Y02265
X0520847Y02465
X05335Y02435
X05125Y0271
X0515Y0275
X0505Y02772
X0500847Y028
X0519153Y03055
X05275Y03
X0537Y029
X0587Y03
X0549153Y0192153
X0501847Y0164153
X0454Y0165
X04455Y01672
X0388Y017
X0385Y0184
X0378Y018
X0375Y0187
X0368Y019
X0356Y0199
X0351847Y0164153
X0399153Y0192153
X0414Y02245
X03835Y02435
X0370847Y02465
X03625Y0271
X0365Y0275
X0355Y02772
X0350847Y028
X0369153Y03055
X03775Y03
X0387Y029
X0436056Y0277056
X0286056
X0237Y029
X02275Y03
X0219153Y03055
X0215Y0275
X02125Y0271
X0205Y02772
X0200847Y028
X0205Y0235
X0215Y0228839
X0227076Y0226924
X0237125Y0224251
X02335Y02435
X0220847Y02465
X0264Y02325
X0249153Y0192153
X0235Y0184
X0228Y018
X0225Y0187
X0218Y019
X0206Y0199
X0201847Y0164153
X0238Y017
X0263Y01765
X02955Y01672
X0304Y0165
X0154
X01416
X01345Y0168
X01438Y0177
X0146Y0186
X01385Y0255
Y0265
X01345Y0275
X0135Y0285
Y0295
X01425Y0345
X014Y0349
X0195
X0205Y0326353
X0209153Y032
X0215Y0324
X0225Y0317
X025Y0352
X0345Y0348839
X0355Y0326353
X0359153Y032
X0365Y0324
X0375Y0317
X04Y0352
X0495Y0348839
X0505Y0326353
X0509153Y032
X0515Y0324
X0525Y0317
X055Y0352
X058Y03545
X0584Y0357761
X0594Y0315
T02
X0150157Y01163
Y0155
X0189986Y0114933
X0245Y01161
X028
X03
Y0155
X0395Y01161
X043
X0450157
Y0155
X05435Y01161
X0605Y012
X0450157Y0195157
Y0240157
X045Y0285157
X03
Y024
X0300157Y0195157
X0150157
X015Y0243
Y025
X0150157Y0285157
X015Y0335
X0185Y0330157
X03Y0335
X0335Y0330157
X045Y0335
X0485Y0330157
T03
X01725Y0150157
X03225
X04725
Y016
Y0195157
Y0205
Y0240157
Y025
Y0285157
Y0295
X0590157Y02625
X06
X046Y02325
X0450157
X03225Y0240157
Y025
Y0285157
Y0295
Y0205
Y0195157
Y016
X031Y02325
X0300157
X01725Y0240157
Y025
X016Y02325
X01725Y0205
Y0195157
Y016
Y0285157
Y0295
X0150157Y02325
Y03525
X01125Y0350937
Y0343063
X016Y03525
X01725Y034
Y0330157
X0300157Y03525
X031
X03225Y034
Y0330157
X0450157Y03525
X046
X04725Y034
Y0330157
T04
X011Y012
Y013
X012
X013
Y014
Y015
X012
Y014
X011
Y015
X016
Y014
Y013
X0185
X0195
X0205
X0215
X0225
X0235
X0245
X027
X028
Y014
Y015
X027
Y014
X031
Y013
Y015
X0335Y013
X0345
X0355
X0365
X0375
X0385
X0395
X042
Y014
Y015
X043
Y014
Y013
X046
Y014
Y015
X0485Y013
X0495
X0505
X0515
X0525
X0535
X0545
Y016
X0535
X0525
X0515
X0505
X0495
X0485
Y0175
X0495
X0505
X0515
X0525
X0535
X0545
X0555
Y0205
X0545
X0535
X0525
X0515
X0505
X0495
X0485
Y022
X0495
X0505
X0515
X0525
X0535
X0545
X0555
X057
Y021
Y02
Y019
X06
Y02
Y021
Y022
Y023
Y024
Y025
X057
Y024
Y023
X0555Y025
X0545
X0535
X0525
X0515
X0505
X0495
X0485
Y0265
X0495
X0505
X0515
X0525
X0535
X0545
X0555
Y0295
X0545
X0535
X0525
X0515
X0505
X0495
X0485
Y031
X0495
X0505
X0515
X0525
X0535
X0545
X0555
X046
Y03
Y029
Y028
Y027
Y026
Y025
Y022
Y021
Y02
Y019
Y018
Y017
Y016
X043
X042
Y017
Y018
Y019
Y02
Y021
X043
Y02
Y019
Y018
Y017
X0405Y0175
X0395
X0385
X0375
X0365
X0355
X0345
X0335
Y016
X0345
X0355
X0365
X0375
X0385
X0395
Y0205
X0405
Y022
X0395
X0385
X0375
X0365
X0355
X0345
X0335
Y0205
X0345
X0355
X0365
X0375
X0385
Y025
X0375
X0365
X0355
X0345
X0335
Y0265
X0345
X0355
X0365
X0375
X0385
X0395
X0405
Y025
X0395
X042
X043
Y026
Y027
Y028
Y029
Y03
Y031
X042
Y03
Y029
Y028
Y027
Y026
X043Y022
X0405Y0295
X0395
X0385
X0375
X0365
X0355
X0345
X0335
Y031
X0345
X0355
X0365
X0375
X0385
X0395
X0405
X031
Y03
Y029
Y028
Y027
Y026
Y025
Y022
Y021
Y02
Y019
Y018
Y017
Y016
X028
Y017
Y018
Y019
Y02
Y021
Y022
X027Y021
Y02
Y019
Y018
Y017
Y016
X0245
X0235
X0225
X0215
X0205
X0195
X0185
Y0175
X0195
X0205
X0215
X0225
X0235
X0245
X0255
Y0205
X0245
X0235
X0225
X0215
X0205
X0195
X0185
Y022
X0195
X0205
X0215
X0225
X0235
X0245
X0255
Y025
X0245
X0235
X0225
X0215
X0205
X0195
X0185
Y0265
X0195
X0205
X0215
X0225
X0235
X0245
X0255
X027Y027
X028
Y026
Y025
X027
Y026
Y028
X028
Y029
Y03
Y031
X027
Y03
Y029
X0255Y0295
X0245
X0235
X0225
X0215
X0205
X0195
X0185
Y031
X0195
X0205
X0215
X0225
X0235
X0245
X0255
X016
Y03
Y029
Y028
Y027
Y026
Y025
Y022
Y021
Y02
Y019
Y018
Y017
Y016
X013
Y017
Y018
Y019
Y02
Y021
Y022
X012Y021
Y02
Y019
Y018
Y017
Y016
X011
Y017
Y018
Y019
Y02
Y021
Y022
Y023
Y024
Y025
X012
Y026
Y027
Y028
Y029
Y03
Y031
X013
Y03
Y029
Y028
Y027
Y026
Y025
X011Y026
Y027
Y028
Y029
Y03
Y031
X012Y032
Y033
X013
Y032
Y034
X016
Y033
Y032
X0185Y034
X0195
X0205
X0215
X0225
X0235
X0245
X0255
X028
Y033
Y032
X027
Y033
X031
Y034
Y032
X0335Y034
X0345
X0355
X0365
X0375
X0385
X0395
X0405
X043
Y033
Y032
X042
Y033
X046
Y032
Y034
X0485
X0495
X0505
X0515
X0525
X0535
X0545
X0555
T05
X01725Y013
X057Y012
X04725Y01725
X057Y0285
Y03
X06Y029
X03225Y01725
X01725
X057Y0315
Y033
Y0345
T06
X0595Y0125
Y0345
M30
