G04*
G04 #@! TF.GenerationSoftware,Altium Limited,Altium Designer,21.9.1 (22)*
G04*
G04 Layer_Color=8388736*
%FSLAX25Y25*%
%MOIN*%
G70*
G04*
G04 #@! TF.SameCoordinates,1B57D830-7C6C-45D8-81F8-1EB026DB8E10*
G04*
G04*
G04 #@! TF.FilePolarity,Negative*
G04*
G01*
G75*
%ADD15C,0.06706*%
%ADD16R,0.06706X0.06706*%
%ADD17R,0.05721X0.05721*%
%ADD18C,0.05721*%
%ADD19R,0.05721X0.05721*%
%ADD20C,0.06706*%
%ADD21R,0.06706X0.06706*%
%ADD22C,0.09068*%
%ADD23C,0.00800*%
D15*
X120000Y350000D02*
D03*
Y340000D02*
D03*
Y330000D02*
D03*
Y320000D02*
D03*
Y310000D02*
D03*
Y300000D02*
D03*
Y290000D02*
D03*
Y280000D02*
D03*
Y270000D02*
D03*
Y260000D02*
D03*
Y250000D02*
D03*
Y240000D02*
D03*
Y230000D02*
D03*
Y220000D02*
D03*
Y210000D02*
D03*
Y200000D02*
D03*
Y190000D02*
D03*
Y180000D02*
D03*
Y170000D02*
D03*
Y160000D02*
D03*
Y150000D02*
D03*
Y140000D02*
D03*
Y130000D02*
D03*
X130000Y350000D02*
D03*
Y340000D02*
D03*
Y330000D02*
D03*
Y320000D02*
D03*
Y310000D02*
D03*
Y300000D02*
D03*
Y290000D02*
D03*
Y280000D02*
D03*
Y270000D02*
D03*
Y260000D02*
D03*
Y250000D02*
D03*
Y240000D02*
D03*
Y230000D02*
D03*
Y220000D02*
D03*
Y210000D02*
D03*
Y200000D02*
D03*
Y190000D02*
D03*
Y180000D02*
D03*
Y170000D02*
D03*
Y160000D02*
D03*
Y150000D02*
D03*
Y140000D02*
D03*
Y130000D02*
D03*
X110000Y220000D02*
D03*
Y210000D02*
D03*
Y240000D02*
D03*
Y230000D02*
D03*
Y200000D02*
D03*
Y190000D02*
D03*
Y180000D02*
D03*
Y170000D02*
D03*
Y130000D02*
D03*
Y140000D02*
D03*
Y150000D02*
D03*
Y160000D02*
D03*
Y250000D02*
D03*
Y260000D02*
D03*
Y270000D02*
D03*
Y280000D02*
D03*
Y290000D02*
D03*
Y300000D02*
D03*
Y310000D02*
D03*
Y320000D02*
D03*
Y330000D02*
D03*
Y340000D02*
D03*
Y350000D02*
D03*
D16*
X120000Y120000D02*
D03*
X130000D02*
D03*
X110000D02*
D03*
D17*
X180000Y121063D02*
D03*
D18*
X180000Y128937D02*
D03*
X159843Y135000D02*
D03*
X170158Y325000D02*
D03*
X410157Y215000D02*
D03*
X480158Y315000D02*
D03*
X410157D02*
D03*
X360157D02*
D03*
X300157D02*
D03*
X240158D02*
D03*
Y215000D02*
D03*
X300157D02*
D03*
D19*
X150000Y135000D02*
D03*
X180000Y325000D02*
D03*
X420000Y215000D02*
D03*
X490000Y315000D02*
D03*
X420000D02*
D03*
X370000D02*
D03*
X310000D02*
D03*
X250000D02*
D03*
Y215000D02*
D03*
X310000D02*
D03*
D20*
X460000Y280000D02*
D03*
Y250000D02*
D03*
X490000D02*
D03*
Y280000D02*
D03*
X150000Y310000D02*
D03*
Y300000D02*
D03*
Y290000D02*
D03*
Y280000D02*
D03*
Y270000D02*
D03*
Y260000D02*
D03*
Y250000D02*
D03*
Y240000D02*
D03*
X180000Y310000D02*
D03*
Y300000D02*
D03*
Y290000D02*
D03*
Y280000D02*
D03*
Y270000D02*
D03*
Y260000D02*
D03*
Y250000D02*
D03*
X150000Y220000D02*
D03*
Y210000D02*
D03*
Y200000D02*
D03*
Y190000D02*
D03*
Y180000D02*
D03*
Y170000D02*
D03*
Y160000D02*
D03*
Y150000D02*
D03*
X180000Y220000D02*
D03*
Y210000D02*
D03*
Y200000D02*
D03*
Y190000D02*
D03*
Y180000D02*
D03*
Y170000D02*
D03*
Y160000D02*
D03*
X370000Y240000D02*
D03*
Y270000D02*
D03*
Y250000D02*
D03*
Y280000D02*
D03*
X310000Y230000D02*
D03*
Y240000D02*
D03*
Y250000D02*
D03*
Y260000D02*
D03*
Y270000D02*
D03*
Y280000D02*
D03*
Y290000D02*
D03*
Y300000D02*
D03*
X280000Y230000D02*
D03*
Y240000D02*
D03*
Y250000D02*
D03*
Y260000D02*
D03*
Y270000D02*
D03*
Y280000D02*
D03*
Y290000D02*
D03*
X370000Y260000D02*
D03*
Y290000D02*
D03*
Y300000D02*
D03*
X340000Y240000D02*
D03*
Y250000D02*
D03*
Y260000D02*
D03*
Y270000D02*
D03*
Y280000D02*
D03*
Y290000D02*
D03*
X310000Y130000D02*
D03*
Y140000D02*
D03*
Y150000D02*
D03*
Y160000D02*
D03*
Y170000D02*
D03*
Y180000D02*
D03*
Y190000D02*
D03*
Y200000D02*
D03*
X280000Y130000D02*
D03*
Y140000D02*
D03*
Y150000D02*
D03*
Y160000D02*
D03*
Y170000D02*
D03*
Y180000D02*
D03*
Y190000D02*
D03*
X250000Y130000D02*
D03*
Y140000D02*
D03*
Y150000D02*
D03*
Y160000D02*
D03*
Y170000D02*
D03*
Y180000D02*
D03*
Y190000D02*
D03*
Y200000D02*
D03*
X220000Y130000D02*
D03*
Y140000D02*
D03*
Y150000D02*
D03*
Y160000D02*
D03*
Y170000D02*
D03*
Y180000D02*
D03*
Y190000D02*
D03*
X250000Y230000D02*
D03*
Y240000D02*
D03*
Y250000D02*
D03*
Y260000D02*
D03*
Y270000D02*
D03*
Y280000D02*
D03*
Y290000D02*
D03*
Y300000D02*
D03*
X220000Y230000D02*
D03*
Y240000D02*
D03*
Y250000D02*
D03*
Y260000D02*
D03*
Y270000D02*
D03*
Y280000D02*
D03*
Y290000D02*
D03*
X490000Y270000D02*
D03*
X390000D02*
D03*
Y260000D02*
D03*
Y290000D02*
D03*
X490000Y230000D02*
D03*
Y240000D02*
D03*
Y260000D02*
D03*
Y290000D02*
D03*
Y300000D02*
D03*
X460000Y230000D02*
D03*
Y240000D02*
D03*
Y260000D02*
D03*
Y270000D02*
D03*
Y290000D02*
D03*
X390000Y280000D02*
D03*
Y250000D02*
D03*
Y240000D02*
D03*
X420000Y300000D02*
D03*
Y290000D02*
D03*
Y280000D02*
D03*
Y270000D02*
D03*
Y260000D02*
D03*
Y250000D02*
D03*
Y240000D02*
D03*
X390000Y190000D02*
D03*
Y180000D02*
D03*
Y170000D02*
D03*
Y160000D02*
D03*
Y150000D02*
D03*
Y140000D02*
D03*
X420000Y200000D02*
D03*
Y190000D02*
D03*
Y180000D02*
D03*
Y170000D02*
D03*
Y160000D02*
D03*
Y150000D02*
D03*
Y140000D02*
D03*
D21*
X180000Y240000D02*
D03*
Y150000D02*
D03*
X280000Y300000D02*
D03*
X340000D02*
D03*
X280000Y200000D02*
D03*
X220000D02*
D03*
Y300000D02*
D03*
X390000D02*
D03*
X460000D02*
D03*
X390000Y200000D02*
D03*
D22*
X330000Y340000D02*
D03*
X270000Y335000D02*
D03*
X510000Y225000D02*
D03*
Y285000D02*
D03*
Y270000D02*
D03*
Y255000D02*
D03*
Y240000D02*
D03*
X375000Y145000D02*
D03*
X445000Y235000D02*
D03*
X200000Y130000D02*
D03*
X185000Y350000D02*
D03*
D23*
X595000Y125000D02*
D03*
Y345000D02*
D03*
M02*
