G04*
G04 #@! TF.GenerationSoftware,Altium Limited,Altium Designer,21.9.1 (22)*
G04*
G04 Layer_Physical_Order=1*
G04 Layer_Color=255*
%FSLAX25Y25*%
%MOIN*%
G70*
G04*
G04 #@! TF.SameCoordinates,1B57D830-7C6C-45D8-81F8-1EB026DB8E10*
G04*
G04*
G04 #@! TF.FilePolarity,Positive*
G04*
G01*
G75*
%ADD24C,0.00800*%
%ADD25C,0.02000*%
%ADD26C,0.05906*%
%ADD27R,0.05906X0.05906*%
%ADD28R,0.04921X0.04921*%
%ADD29C,0.04921*%
%ADD30R,0.04921X0.04921*%
%ADD31C,0.05906*%
%ADD32R,0.05906X0.05906*%
%ADD33C,0.08268*%
%ADD34C,0.02000*%
%ADD35C,0.05000*%
D24*
X254500Y338000D02*
X257500Y335000D01*
X270000D01*
X314500Y344000D02*
X318500Y340000D01*
X330000D01*
X456000Y235000D02*
X481000D01*
X450000Y241000D02*
X456000Y235000D01*
X438500Y241000D02*
X450000D01*
X431000Y233500D02*
X438500Y241000D01*
X376500Y233500D02*
X431000D01*
X370000Y240000D02*
X376500Y233500D01*
X308280Y235847D02*
X334047D01*
X340894Y229000D01*
X439000D01*
X445000Y235000D01*
X359253Y254247D02*
X369347Y244153D01*
X484153D02*
X490000Y250000D01*
X369347Y244153D02*
X484153D01*
X136500Y338000D02*
X254500D01*
X115753Y234247D02*
X133253D01*
X135000Y232500D02*
X214778D01*
X133253Y234247D02*
X135000Y232500D01*
X216526Y234247D02*
X257000D01*
X214778Y232500D02*
X216526Y234247D01*
X216703Y225847D02*
X225847D01*
X155403Y227800D02*
X214750D01*
X216703Y225847D01*
X178280Y215847D02*
X229500D01*
X176327Y217800D02*
X178280Y215847D01*
X187894Y206300D02*
X262000D01*
X183253Y214247D02*
X185000Y212500D01*
X115753Y214247D02*
X183253D01*
X185000Y209194D02*
Y212500D01*
Y209194D02*
X187894Y206300D01*
X227611Y197999D02*
X232000D01*
X225459Y195847D02*
X227611Y197999D01*
X216153Y195847D02*
X225459D01*
X210500Y201500D02*
X216153Y195847D01*
X189500Y201500D02*
X210500D01*
X205835Y199000D02*
X210682Y194153D01*
X264500D01*
X187613Y199000D02*
X205835D01*
X185153Y205847D02*
X189500Y201500D01*
X178280Y205847D02*
X185153D01*
X115753Y204247D02*
X182366D01*
X187613Y199000D01*
X225847Y225847D02*
X227000Y227000D01*
X223347Y235847D02*
X224500Y237000D01*
X115753Y194247D02*
X201253D01*
X211347Y184153D02*
X222347D01*
X201253Y194247D02*
X211347Y184153D01*
X158000Y290000D02*
X180000D01*
X137500Y135000D02*
X142500Y140000D01*
X220000D01*
X115000Y135000D02*
X137500D01*
X163000Y250000D02*
X180000D01*
X165607Y240000D02*
X180000D01*
X165500Y240107D02*
X165607Y240000D01*
X160500Y260000D02*
X180000D01*
X158000Y180000D02*
X180000D01*
X160500Y170000D02*
X180000D01*
X163000Y160000D02*
X180000D01*
X135500Y341000D02*
X160500D01*
X130000Y350000D02*
X158000D01*
X130000Y330000D02*
X134500D01*
X140200Y335700D01*
X163000D01*
X130000Y340000D02*
X134500D01*
X135500Y341000D01*
X134500Y320000D02*
X145500Y331000D01*
X165500D01*
X143500Y333500D02*
X224500D01*
X134153Y324153D02*
X143500Y333500D01*
X130000Y320000D02*
X134500D01*
X144086Y318349D02*
X172849D01*
X135737Y310000D02*
X144086Y318349D01*
X180615Y315847D02*
X187384Y322616D01*
X151720Y315847D02*
X180615D01*
X130000Y310000D02*
X135737D01*
X124153Y324153D02*
X134153D01*
X125000Y335000D02*
X133500D01*
X136500Y338000D01*
X423873Y278000D02*
X446428D01*
X423785Y287912D02*
X449446D01*
X421720Y285847D02*
X423785Y287912D01*
X418280Y285847D02*
X421720D01*
X414127Y290000D02*
X418280Y285847D01*
X395873Y290000D02*
X414127D01*
X391720Y294153D02*
X395873Y290000D01*
X368280Y294153D02*
X391720D01*
X367075Y292948D02*
X368280Y294153D01*
X342948Y292948D02*
X367075D01*
X342936Y292936D02*
X342948Y292948D01*
X178280Y305847D02*
X452347D01*
X452500Y306000D01*
X176327Y307800D02*
X178280Y305847D01*
X188467Y323700D02*
X454925D01*
X455000Y323625D01*
X187767Y323000D02*
X188467Y323700D01*
X146661Y328661D02*
X495000D01*
X490000Y230000D02*
X495000Y225000D01*
X510000D01*
X495500Y254500D02*
X510000Y240000D01*
X487500Y254500D02*
X495500D01*
X460000Y250000D02*
X483000D01*
X487500Y254500D01*
Y264500D02*
X500500D01*
X510000Y255000D01*
X460000Y260000D02*
X483000D01*
X487500Y264500D01*
X505500Y274500D02*
X510000Y270000D01*
X487500Y274500D02*
X505500D01*
X483000Y270000D02*
X487500Y274500D01*
X460000Y270000D02*
X483000D01*
X465000Y285000D02*
X510000D01*
X460000Y280000D02*
X465000Y285000D01*
X115753Y174247D02*
X199253D01*
X209347Y164153D01*
X115753Y184247D02*
X199253D01*
X209347Y174153D01*
X222347Y184153D02*
X224500Y182000D01*
X245347D01*
X247500Y184153D01*
X305847Y175847D02*
X310000Y180000D01*
X269847Y184153D02*
X278153Y175847D01*
X305847D01*
X247500Y184153D02*
X269847D01*
X222347Y174153D02*
X224500Y172000D01*
X245347D01*
X247500Y174153D01*
X305847Y165847D02*
X310000Y170000D01*
X269847Y174153D02*
X278153Y165847D01*
X305847D01*
X247500Y174153D02*
X269847D01*
X209347D02*
X222347D01*
Y164153D02*
X224500Y162000D01*
X245347D01*
X247500Y164153D01*
X305847Y155847D02*
X310000Y160000D01*
X269847Y164153D02*
X278153Y155847D01*
X305847D01*
X247500Y164153D02*
X269847D01*
X209347D02*
X222347D01*
X115753Y164247D02*
X199253D01*
X209347Y154153D02*
X222347D01*
X199253Y164247D02*
X209347Y154153D01*
X247500D02*
X269847D01*
X278153Y145847D02*
X305847D01*
X269847Y154153D02*
X278153Y145847D01*
X203653Y165847D02*
X213653Y155847D01*
X274153D01*
X305847Y145847D02*
X310000Y150000D01*
X245347Y152000D02*
X247500Y154153D01*
X224500Y152000D02*
X245347D01*
X222347Y154153D02*
X224500Y152000D01*
X178280Y165847D02*
X203653D01*
Y175847D02*
X213653Y165847D01*
X178280Y175847D02*
X203653D01*
Y185847D02*
X213653Y175847D01*
X178280Y185847D02*
X203653D01*
Y195847D02*
X213653Y185847D01*
X178280Y195847D02*
X203653D01*
X274153Y185847D02*
X280000Y180000D01*
X213653Y185847D02*
X274153D01*
Y175847D02*
X280000Y170000D01*
X213653Y175847D02*
X274153D01*
Y165847D02*
X280000Y160000D01*
X213653Y165847D02*
X274153D01*
Y155847D02*
X280000Y150000D01*
X124153Y235847D02*
X223347D01*
X115753Y224247D02*
X259500D01*
X310000Y180000D02*
X317000D01*
X310000Y170000D02*
X319500D01*
X310000Y160000D02*
X322000D01*
X250000Y150000D02*
X264500D01*
X250000Y160000D02*
X262000D01*
X250000Y170000D02*
X259500D01*
X250000Y180000D02*
X257000D01*
X248280Y135847D02*
X275847D01*
X280000Y140000D01*
X244127D02*
X248280Y135847D01*
X224000Y304153D02*
X225153Y303000D01*
X232000D01*
X146153Y304153D02*
X224000D01*
X217153Y294153D02*
X224000D01*
X215000Y292000D02*
X217153Y294153D01*
X185153Y292000D02*
X215000D01*
X146153Y294153D02*
X183000D01*
X185153Y298000D02*
X214000D01*
X216153Y295847D01*
X227153D01*
X178280D02*
X183000D01*
Y294153D02*
X185153Y292000D01*
X183000Y295847D02*
X185153Y298000D01*
X178280Y285847D02*
X183000D01*
X217000D02*
X227153D01*
X183000D02*
X185153Y288000D01*
X214847D01*
X217000Y285847D01*
Y274153D02*
X224000D01*
X146153D02*
X183000D01*
X185153Y272000D01*
X214847D01*
X217000Y274153D01*
Y265847D02*
X227153D01*
X178280D02*
X183000D01*
X214847Y268000D02*
X217000Y265847D01*
X185153Y268000D02*
X214847D01*
X183000Y265847D02*
X185153Y268000D01*
X227153Y295847D02*
X237153Y285847D01*
X331890Y274153D02*
X343847D01*
X352153Y265847D01*
X371847D01*
X380153Y274153D01*
X484153Y274153D01*
X418280Y275847D02*
X421720D01*
X393873Y278000D02*
X416127D01*
X418280Y275847D01*
X421720D02*
X423873Y278000D01*
X368280Y275847D02*
X391720D01*
X331890Y284153D02*
X359974D01*
X391720Y275847D02*
X393873Y278000D01*
X359974Y284153D02*
X368280Y275847D01*
X313000Y285753D02*
X321400Y294153D01*
X484153Y274153D02*
X490000Y280000D01*
X384153Y264153D02*
X390000Y270000D01*
X345847Y264153D02*
X384153D01*
X340000Y270000D02*
X345847Y264153D01*
X418280Y254153D02*
X484153D01*
X490000Y260000D01*
X390000Y250000D02*
X414127D01*
X418280Y254153D01*
X328490Y254247D02*
X359253D01*
X326985Y255753D02*
X328490Y254247D01*
X304753Y255753D02*
X326985D01*
X227153Y265847D02*
X237153Y255847D01*
X310000Y250000D02*
X325000D01*
X329153Y245847D02*
X364153D01*
X325000Y250000D02*
X329153Y245847D01*
X364153D02*
X370000Y240000D01*
X364153Y255847D02*
X370000Y250000D01*
X325000Y260000D02*
X329153Y255847D01*
X364153D01*
X308280Y254153D02*
X324153D01*
X328306Y250000D01*
X340000D01*
X328306Y260000D02*
X340000D01*
X324153Y264153D02*
X328306Y260000D01*
X308280Y264153D02*
X324153D01*
X237153Y255847D02*
X275153D01*
X276847Y254153D01*
X303153D01*
X304753Y255753D01*
X323490Y265753D02*
X331890Y274153D01*
X227153Y275847D02*
X237153Y265847D01*
X310000Y260000D02*
X325000D01*
X310000Y270000D02*
X325000D01*
X330847Y275847D01*
X364153D01*
X370000Y270000D01*
X303153Y264153D02*
X304753Y265753D01*
X276847Y264153D02*
X303153D01*
X275153Y265847D02*
X276847Y264153D01*
X237153Y265847D02*
X275153D01*
X304753Y265753D02*
X323490D01*
X227153Y285847D02*
X237153Y275847D01*
X304753Y275753D02*
X323490D01*
X331890Y284153D01*
X237153Y275847D02*
X275153D01*
X364153Y285847D02*
X370000Y280000D01*
X330847Y285847D02*
X364153D01*
X325000Y280000D02*
X330847Y285847D01*
X304753Y285753D02*
X313000D01*
X342436Y293436D02*
X342436Y293436D01*
Y293436D01*
X342436D02*
X342436D01*
X275153Y275847D02*
X276847Y274153D01*
X303153D01*
X304753Y275753D01*
X308280Y274153D02*
X324153D01*
X330000Y280000D02*
X340000D01*
X324153Y274153D02*
X330000Y280000D01*
X310000D02*
X325000D01*
X324153Y284153D02*
X330000Y290000D01*
X308280Y284153D02*
X324153D01*
X330000Y290000D02*
X340000D01*
X237153Y285847D02*
X275153D01*
X342936Y292936D02*
Y292936D01*
X342436Y293436D02*
X342936Y292936D01*
X342436Y293436D02*
X342436Y293436D01*
X321400Y294153D02*
X341720D01*
X342436Y293436D01*
X303153Y284153D02*
X304753Y285753D01*
X276847Y284153D02*
X303153D01*
X395000Y294153D02*
X485847D01*
X315847Y295847D02*
X393305D01*
X395000Y294153D01*
X310000Y290000D02*
X315847Y295847D01*
X275153Y285847D02*
X276847Y284153D01*
X224000Y294153D02*
X234000Y284153D01*
X273847D02*
X278000Y280000D01*
X280000D01*
X234000Y284153D02*
X273847D01*
X224000D02*
X234000Y274153D01*
X273847D02*
X278000Y270000D01*
X280000D01*
X234000Y274153D02*
X273847D01*
X224000D02*
X234000Y264153D01*
X273847D02*
X278000Y260000D01*
X280000D01*
X234000Y264153D02*
X273847D01*
X234000Y254153D02*
X273847D01*
X278000Y250000D02*
X280000D01*
X273847Y254153D02*
X278000Y250000D01*
X224000Y264153D02*
X234000Y254153D01*
X146153Y264153D02*
X224000D01*
X146153Y284153D02*
X224000D01*
X178280Y275847D02*
X227153D01*
X281720Y245847D02*
X285873Y250000D01*
X274127D02*
X278280Y245847D01*
X250000Y250000D02*
X274127D01*
X278280Y245847D02*
X281720D01*
Y255847D02*
X285873Y260000D01*
X274127D02*
X278280Y255847D01*
X250000Y260000D02*
X274127D01*
X278280Y255847D02*
X281720D01*
Y265847D02*
X285873Y270000D01*
X274127D02*
X278280Y265847D01*
X250000Y270000D02*
X274127D01*
X278280Y265847D02*
X281720D01*
Y275847D02*
X285873Y280000D01*
X274127D02*
X278280Y275847D01*
X250000Y280000D02*
X274127D01*
X278280Y275847D02*
X281720D01*
X285873Y280000D02*
X304127D01*
X281720Y285847D02*
X285873Y290000D01*
X274127D02*
X278280Y285847D01*
X250000Y290000D02*
X274127D01*
X278280Y285847D02*
X281720D01*
X285873Y290000D02*
X310000D01*
X304127Y280000D02*
X308280Y284153D01*
X188500Y326000D02*
X227000D01*
X187384Y322616D02*
Y322621D01*
X187763Y323000D02*
X187767D01*
X187384Y322621D02*
X187763Y323000D01*
X183500Y321000D02*
X188500Y326000D01*
X143000Y321000D02*
X183500D01*
X146153Y314153D02*
X229500D01*
X124153Y344153D02*
X314500D01*
X314500Y344153D01*
X120000Y340000D02*
X124153Y344153D01*
X120000Y330000D02*
X125000Y335000D01*
X120000Y320000D02*
X124153Y324153D01*
X133753Y315753D02*
X146661Y328661D01*
X136153Y314153D02*
X143000Y321000D01*
X124153Y314153D02*
X136153D01*
X115753Y315753D02*
X133753D01*
X110000Y310000D02*
X115753Y315753D01*
X120000Y310000D02*
X124153Y314153D01*
X120000Y300000D02*
X124153Y304153D01*
X110000Y300000D02*
X115753Y305753D01*
X143847Y315847D02*
X151720D01*
X133753Y305753D02*
X143847Y315847D01*
X115753Y305753D02*
X133753D01*
X136153Y304153D02*
X146153Y314153D01*
X124153Y304153D02*
X136153D01*
X120000Y290000D02*
X124153Y294153D01*
X110000Y290000D02*
X115753Y295753D01*
X143847Y305847D02*
X151720D01*
X133753Y295753D02*
X143847Y305847D01*
X115753Y295753D02*
X133753D01*
X136153Y294153D02*
X146153Y304153D01*
X124153Y294153D02*
X136153D01*
X151720Y305847D02*
X153673Y307800D01*
X176327D01*
X120000Y280000D02*
X124153Y284153D01*
X110000Y280000D02*
X115753Y285753D01*
X143847Y295847D02*
X151720D01*
X133753Y285753D02*
X143847Y295847D01*
X115753Y285753D02*
X133753D01*
X136153Y284153D02*
X146153Y294153D01*
X124153Y284153D02*
X136153D01*
X151720Y295847D02*
X153673Y297800D01*
X176327D01*
X178280Y295847D01*
X120000Y270000D02*
X124153Y274153D01*
X110000Y270000D02*
X115753Y275753D01*
X143847Y285847D02*
X151720D01*
X133753Y275753D02*
X143847Y285847D01*
X115753Y275753D02*
X133753D01*
X136153Y274153D02*
X146153Y284153D01*
X124153Y274153D02*
X136153D01*
X151720Y285847D02*
X153673Y287800D01*
X176327D01*
X178280Y285847D01*
X120000Y260000D02*
X124153Y264153D01*
X110000Y260000D02*
X115753Y265753D01*
X143847Y275847D02*
X151720D01*
X133753Y265753D02*
X143847Y275847D01*
X115753Y265753D02*
X133753D01*
X136153Y264153D02*
X146153Y274153D01*
X124153Y264153D02*
X136153D01*
X151720Y275847D02*
X153673Y277800D01*
X176327D01*
X178280Y275847D01*
X176327Y267800D02*
X178280Y265847D01*
X153673Y267800D02*
X176327D01*
X151720Y265847D02*
X153673Y267800D01*
X124153Y254153D02*
X136153D01*
X146153Y264153D01*
X115753Y255753D02*
X133753D01*
X143847Y265847D01*
X151720D01*
X110000Y250000D02*
X115753Y255753D01*
X120000Y250000D02*
X124153Y254153D01*
X130000Y230000D02*
X175500D01*
X130000Y170000D02*
X150000D01*
X130000Y200000D02*
X150000D01*
X135000Y300000D02*
X145000Y310000D01*
X150000D01*
X130000Y300000D02*
X135000D01*
Y280000D02*
X145000Y290000D01*
X150000D01*
X130000Y280000D02*
X135000D01*
X130000Y290000D02*
X135000D01*
X145000Y300000D02*
X150000D01*
X135000Y290000D02*
X145000Y300000D01*
X135000Y260000D02*
X145000Y270000D01*
X150000D01*
X130000Y260000D02*
X135000D01*
X130000Y270000D02*
X135000D01*
X145000Y280000D02*
X150000D01*
X135000Y270000D02*
X145000Y280000D01*
X135000Y250000D02*
X145000Y260000D01*
X150000D01*
X130000Y250000D02*
X135000D01*
X130000Y240000D02*
X135000D01*
X145000Y250000D02*
X150000D01*
X135000Y240000D02*
X145000Y250000D01*
X130000Y220000D02*
X150000D01*
X130000Y210000D02*
X150000D01*
X130000Y190000D02*
X150000D01*
X130000Y180000D02*
X150000D01*
X154153Y226550D02*
Y226550D01*
X155403Y227800D01*
X124153Y225847D02*
X151914D01*
X153450Y225847D02*
X154153Y226550D01*
X151914Y225847D02*
X151914Y225847D01*
X153450D01*
X124153Y215847D02*
X151720D01*
X124153Y195847D02*
X151720D01*
X124153Y185847D02*
X151720D01*
X124153Y175847D02*
X151720D01*
X124153Y165847D02*
X151720D01*
Y165847D02*
X153673Y167800D01*
X176327D01*
X178280Y165847D01*
X151720Y175847D02*
X153673Y177800D01*
X176327D01*
X178280Y175847D01*
X151720Y185847D02*
X153673Y187800D01*
X176327D01*
X178280Y185847D01*
X151720Y215847D02*
X153673Y217800D01*
X176327D01*
X151720Y195847D02*
X153673Y197800D01*
X176327D01*
X178280Y195847D01*
X176327Y207800D02*
X178280Y205847D01*
X153673Y207800D02*
X176327D01*
X151720Y205847D02*
X153673Y207800D01*
X124153Y205847D02*
X148500D01*
X148500Y205847D02*
X151720D01*
X148500Y205847D02*
X148500Y205847D01*
X120000Y170000D02*
X124153Y165847D01*
X120000Y240000D02*
X124153Y235847D01*
X110000Y240000D02*
X115753Y234247D01*
X120000Y230000D02*
X124153Y225847D01*
X110000Y230000D02*
X115753Y224247D01*
X120000Y220000D02*
X124153Y215847D01*
X110000Y220000D02*
X115753Y214247D01*
X110000Y210000D02*
X115753Y204247D01*
X304127Y240000D02*
X308280Y235847D01*
X310000Y190000D02*
X390000D01*
X281720Y194153D02*
X285873Y190000D01*
X274127D02*
X278280Y194153D01*
X250000Y190000D02*
X274127D01*
X278280Y194153D02*
X281720D01*
X285873Y190000D02*
X310000D01*
X485847Y294153D02*
X490000Y290000D01*
X278280Y234153D02*
X281720D01*
X275847Y231720D02*
X278280Y234153D01*
X274127Y230000D02*
X275847Y231720D01*
Y231720D01*
X250000Y230000D02*
X274127D01*
X285873D02*
X310000D01*
X281720Y234153D02*
X285873Y230000D01*
X281720Y144153D02*
X285873Y140000D01*
X310000D01*
X275847Y141720D02*
Y141720D01*
X274127Y140000D02*
X275847Y141720D01*
Y141720D02*
X278280Y144153D01*
X281720D01*
X304127Y250000D02*
X308280Y254153D01*
X285873Y250000D02*
X304127D01*
Y260000D02*
X308280Y264153D01*
X285873Y260000D02*
X304127D01*
Y270000D02*
X308280Y274153D01*
X285873Y270000D02*
X304127D01*
X220000Y140000D02*
X244127D01*
X110000Y170000D02*
X115753Y164247D01*
X115000Y145000D02*
X190000D01*
X110000Y150000D02*
X115000Y145000D01*
X110000Y140000D02*
X115000Y135000D01*
X120000Y180000D02*
X124153Y175847D01*
X110000Y180000D02*
X115753Y174247D01*
X120000Y190000D02*
X124153Y185847D01*
X110000Y190000D02*
X115753Y184247D01*
X120000Y200000D02*
X124153Y195847D01*
X110000Y200000D02*
X115753Y194247D01*
X120000Y210000D02*
X124153Y205847D01*
X244127Y240000D02*
X248280Y244153D01*
X220000Y240000D02*
X244127D01*
X255873D02*
X280000D01*
X251720Y244153D02*
X255873Y240000D01*
X248280Y244153D02*
X251720D01*
X250000Y140000D02*
X274127D01*
X280000Y240000D02*
X304127D01*
X370000Y290000D02*
X390000D01*
X370000Y260000D02*
X390000D01*
X340000Y300000D02*
X344153Y304153D01*
X385847D01*
X390000Y300000D01*
D25*
X180000Y190000D02*
X200000D01*
X180000Y280000D02*
X200000D01*
X410000Y220000D02*
X450000D01*
X460000Y230000D01*
X340000Y220000D02*
X390000D01*
X410000D01*
X410157Y215000D02*
Y219843D01*
X410000Y220000D02*
X410157Y219843D01*
X300157Y220000D02*
X340000D01*
X180157D02*
X240158D01*
X300157Y215000D02*
Y220000D01*
X240158Y215000D02*
Y220000D01*
X300157D01*
X250000Y210000D02*
X310000D01*
X250000D02*
Y215000D01*
X310000Y210000D02*
Y215000D01*
X415000Y210000D02*
X420000Y215000D01*
X310000Y210000D02*
X415000D01*
X190000D02*
X250000D01*
X180000Y310000D02*
X200000D01*
X155000Y245000D02*
X190000D01*
X150000Y240000D02*
X155000Y245000D01*
X131063Y121063D02*
X180000D01*
X131063Y128937D02*
X180000D01*
X160000Y130000D02*
Y134843D01*
X159843Y135000D02*
X160000Y134843D01*
X130000Y120000D02*
X131063Y121063D01*
X130000Y130000D02*
X131063Y128937D01*
X180000Y129000D02*
X199000D01*
X200000Y130000D01*
X410000Y310000D02*
X460000D01*
X360000D02*
X410000D01*
Y314843D01*
X410157Y315000D01*
X300000Y310000D02*
X360000D01*
Y314843D01*
X360157Y315000D01*
X240000Y310000D02*
X280000D01*
X220000D02*
X240000D01*
Y314843D01*
X240158Y315000D01*
X280000Y310000D02*
X300000D01*
X200000D02*
X220000D01*
X300000D02*
Y314843D01*
X300157Y315000D01*
X460000Y310000D02*
X475157D01*
X480158Y315000D01*
X410000Y180000D02*
X420000Y190000D01*
X390000Y180000D02*
X410000D01*
Y160000D02*
X420000Y170000D01*
X390000Y160000D02*
X410000D01*
Y140000D02*
X420000Y150000D01*
X390000Y140000D02*
X410000D01*
X375000Y125000D02*
X390000Y140000D01*
X280000Y125000D02*
X375000D01*
X280000D02*
Y130000D01*
X225000Y125000D02*
X280000D01*
X200000Y130000D02*
X220000D01*
X225000Y125000D01*
X120000Y130000D02*
X130000D01*
X110000D02*
X120000D01*
X250000Y320000D02*
X310000D01*
X190000D02*
X250000D01*
Y315000D02*
Y320000D01*
X310000D02*
X370000D01*
X310000Y315000D02*
Y320000D01*
X370000D02*
X420000D01*
X370000Y315000D02*
Y320000D01*
X420000D02*
X485000D01*
X420000Y315000D02*
Y320000D01*
X485000D02*
X490000Y315000D01*
X120000Y120000D02*
X130000D01*
X110000D02*
X120000D01*
D26*
Y350000D02*
D03*
Y340000D02*
D03*
Y330000D02*
D03*
Y320000D02*
D03*
Y310000D02*
D03*
Y300000D02*
D03*
Y290000D02*
D03*
Y280000D02*
D03*
Y270000D02*
D03*
Y260000D02*
D03*
Y250000D02*
D03*
Y240000D02*
D03*
Y230000D02*
D03*
Y220000D02*
D03*
Y210000D02*
D03*
Y200000D02*
D03*
Y190000D02*
D03*
Y180000D02*
D03*
Y170000D02*
D03*
Y160000D02*
D03*
Y150000D02*
D03*
Y140000D02*
D03*
Y130000D02*
D03*
X130000Y350000D02*
D03*
Y340000D02*
D03*
Y330000D02*
D03*
Y320000D02*
D03*
Y310000D02*
D03*
Y300000D02*
D03*
Y290000D02*
D03*
Y280000D02*
D03*
Y270000D02*
D03*
Y260000D02*
D03*
Y250000D02*
D03*
Y240000D02*
D03*
Y230000D02*
D03*
Y220000D02*
D03*
Y210000D02*
D03*
Y200000D02*
D03*
Y190000D02*
D03*
Y180000D02*
D03*
Y170000D02*
D03*
Y160000D02*
D03*
Y150000D02*
D03*
Y140000D02*
D03*
Y130000D02*
D03*
X110000Y220000D02*
D03*
Y210000D02*
D03*
Y240000D02*
D03*
Y230000D02*
D03*
Y200000D02*
D03*
Y190000D02*
D03*
Y180000D02*
D03*
Y170000D02*
D03*
Y130000D02*
D03*
Y140000D02*
D03*
Y150000D02*
D03*
Y160000D02*
D03*
Y250000D02*
D03*
Y260000D02*
D03*
Y270000D02*
D03*
Y280000D02*
D03*
Y290000D02*
D03*
Y300000D02*
D03*
Y310000D02*
D03*
Y320000D02*
D03*
Y330000D02*
D03*
Y340000D02*
D03*
Y350000D02*
D03*
D27*
X120000Y120000D02*
D03*
X130000D02*
D03*
X110000D02*
D03*
D28*
X180000Y121063D02*
D03*
D29*
X180000Y128937D02*
D03*
X159843Y135000D02*
D03*
X170158Y325000D02*
D03*
X410157Y215000D02*
D03*
X480158Y315000D02*
D03*
X410157D02*
D03*
X360157D02*
D03*
X300157D02*
D03*
X240158D02*
D03*
Y215000D02*
D03*
X300157D02*
D03*
D30*
X150000Y135000D02*
D03*
X180000Y325000D02*
D03*
X420000Y215000D02*
D03*
X490000Y315000D02*
D03*
X420000D02*
D03*
X370000D02*
D03*
X310000D02*
D03*
X250000D02*
D03*
Y215000D02*
D03*
X310000D02*
D03*
D31*
X460000Y280000D02*
D03*
Y250000D02*
D03*
X490000D02*
D03*
Y280000D02*
D03*
X150000Y310000D02*
D03*
Y300000D02*
D03*
Y290000D02*
D03*
Y280000D02*
D03*
Y270000D02*
D03*
Y260000D02*
D03*
Y250000D02*
D03*
Y240000D02*
D03*
X180000Y310000D02*
D03*
Y300000D02*
D03*
Y290000D02*
D03*
Y280000D02*
D03*
Y270000D02*
D03*
Y260000D02*
D03*
Y250000D02*
D03*
X150000Y220000D02*
D03*
Y210000D02*
D03*
Y200000D02*
D03*
Y190000D02*
D03*
Y180000D02*
D03*
Y170000D02*
D03*
Y160000D02*
D03*
Y150000D02*
D03*
X180000Y220000D02*
D03*
Y210000D02*
D03*
Y200000D02*
D03*
Y190000D02*
D03*
Y180000D02*
D03*
Y170000D02*
D03*
Y160000D02*
D03*
X370000Y240000D02*
D03*
Y270000D02*
D03*
Y250000D02*
D03*
Y280000D02*
D03*
X310000Y230000D02*
D03*
Y240000D02*
D03*
Y250000D02*
D03*
Y260000D02*
D03*
Y270000D02*
D03*
Y280000D02*
D03*
Y290000D02*
D03*
Y300000D02*
D03*
X280000Y230000D02*
D03*
Y240000D02*
D03*
Y250000D02*
D03*
Y260000D02*
D03*
Y270000D02*
D03*
Y280000D02*
D03*
Y290000D02*
D03*
X370000Y260000D02*
D03*
Y290000D02*
D03*
Y300000D02*
D03*
X340000Y240000D02*
D03*
Y250000D02*
D03*
Y260000D02*
D03*
Y270000D02*
D03*
Y280000D02*
D03*
Y290000D02*
D03*
X310000Y130000D02*
D03*
Y140000D02*
D03*
Y150000D02*
D03*
Y160000D02*
D03*
Y170000D02*
D03*
Y180000D02*
D03*
Y190000D02*
D03*
Y200000D02*
D03*
X280000Y130000D02*
D03*
Y140000D02*
D03*
Y150000D02*
D03*
Y160000D02*
D03*
Y170000D02*
D03*
Y180000D02*
D03*
Y190000D02*
D03*
X250000Y130000D02*
D03*
Y140000D02*
D03*
Y150000D02*
D03*
Y160000D02*
D03*
Y170000D02*
D03*
Y180000D02*
D03*
Y190000D02*
D03*
Y200000D02*
D03*
X220000Y130000D02*
D03*
Y140000D02*
D03*
Y150000D02*
D03*
Y160000D02*
D03*
Y170000D02*
D03*
Y180000D02*
D03*
Y190000D02*
D03*
X250000Y230000D02*
D03*
Y240000D02*
D03*
Y250000D02*
D03*
Y260000D02*
D03*
Y270000D02*
D03*
Y280000D02*
D03*
Y290000D02*
D03*
Y300000D02*
D03*
X220000Y230000D02*
D03*
Y240000D02*
D03*
Y250000D02*
D03*
Y260000D02*
D03*
Y270000D02*
D03*
Y280000D02*
D03*
Y290000D02*
D03*
X490000Y270000D02*
D03*
X390000D02*
D03*
Y260000D02*
D03*
Y290000D02*
D03*
X490000Y230000D02*
D03*
Y240000D02*
D03*
Y260000D02*
D03*
Y290000D02*
D03*
Y300000D02*
D03*
X460000Y230000D02*
D03*
Y240000D02*
D03*
Y260000D02*
D03*
Y270000D02*
D03*
Y290000D02*
D03*
X390000Y280000D02*
D03*
Y250000D02*
D03*
Y240000D02*
D03*
X420000Y300000D02*
D03*
Y290000D02*
D03*
Y280000D02*
D03*
Y270000D02*
D03*
Y260000D02*
D03*
Y250000D02*
D03*
Y240000D02*
D03*
X390000Y190000D02*
D03*
Y180000D02*
D03*
Y170000D02*
D03*
Y160000D02*
D03*
Y150000D02*
D03*
Y140000D02*
D03*
X420000Y200000D02*
D03*
Y190000D02*
D03*
Y180000D02*
D03*
Y170000D02*
D03*
Y160000D02*
D03*
Y150000D02*
D03*
Y140000D02*
D03*
D32*
X180000Y240000D02*
D03*
Y150000D02*
D03*
X280000Y300000D02*
D03*
X340000D02*
D03*
X280000Y200000D02*
D03*
X220000D02*
D03*
Y300000D02*
D03*
X390000D02*
D03*
X460000D02*
D03*
X390000Y200000D02*
D03*
D33*
X330000Y340000D02*
D03*
X270000Y335000D02*
D03*
X510000Y225000D02*
D03*
Y285000D02*
D03*
Y270000D02*
D03*
Y255000D02*
D03*
Y240000D02*
D03*
X375000Y145000D02*
D03*
X445000Y235000D02*
D03*
X200000Y130000D02*
D03*
X185000Y350000D02*
D03*
D34*
X481000Y235000D02*
D03*
X254500Y338000D02*
D03*
X259500Y224247D02*
D03*
X257000Y234247D02*
D03*
X229500Y215847D02*
D03*
X262000Y206300D02*
D03*
X232000Y197999D02*
D03*
X264500Y194153D02*
D03*
X227000Y227000D02*
D03*
X224500Y237000D02*
D03*
X158000Y290000D02*
D03*
X165500Y240107D02*
D03*
X163000Y250000D02*
D03*
X160500Y260000D02*
D03*
X158000Y180000D02*
D03*
X160500Y170000D02*
D03*
X163000Y160000D02*
D03*
X160500Y341000D02*
D03*
X163000Y335700D02*
D03*
X158000Y350000D02*
D03*
X165500Y331000D02*
D03*
X224500Y333500D02*
D03*
X172849Y318349D02*
D03*
X446428Y278000D02*
D03*
X449446Y287912D02*
D03*
X452500Y306000D02*
D03*
X455000Y323625D02*
D03*
X495000Y328661D02*
D03*
X324500Y250000D02*
D03*
X322000Y260000D02*
D03*
X319500Y270000D02*
D03*
X317000Y280000D02*
D03*
Y180000D02*
D03*
X319500Y170000D02*
D03*
X322000Y160000D02*
D03*
X264500Y250000D02*
D03*
X262000Y260000D02*
D03*
X259500Y270000D02*
D03*
X257000Y280000D02*
D03*
X264500Y150000D02*
D03*
X262000Y160000D02*
D03*
X259500Y170000D02*
D03*
X257000Y180000D02*
D03*
X232000Y303000D02*
D03*
X227000Y326000D02*
D03*
X229500Y314153D02*
D03*
X314500Y344153D02*
D03*
X175500Y230000D02*
D03*
X190000Y145000D02*
D03*
X395000Y294153D02*
D03*
D35*
X200000Y190000D02*
D03*
Y280000D02*
D03*
X390000Y220000D02*
D03*
X340000D02*
D03*
X280000D02*
D03*
X220000D02*
D03*
X200000D02*
D03*
X190000Y210000D02*
D03*
Y245000D02*
D03*
X150000Y121063D02*
D03*
X280000Y310000D02*
D03*
X220000D02*
D03*
X460000D02*
D03*
X200000D02*
D03*
X190000Y320000D02*
D03*
M02*
