G04*
G04 #@! TF.GenerationSoftware,Altium Limited,Altium Designer,21.9.1 (22)*
G04*
G04 Layer_Physical_Order=2*
G04 Layer_Color=16711680*
%FSLAX25Y25*%
%MOIN*%
G70*
G04*
G04 #@! TF.SameCoordinates,09011E39-4F28-45AE-BCC4-A3E871BFE86D*
G04*
G04*
G04 #@! TF.FilePolarity,Positive*
G04*
G01*
G75*
%ADD24C,0.00800*%
%ADD25C,0.02000*%
%ADD26C,0.08268*%
%ADD27C,0.05906*%
%ADD28R,0.05906X0.05906*%
%ADD29R,0.04921X0.04921*%
%ADD30C,0.04921*%
%ADD31R,0.04921X0.04921*%
%ADD32C,0.05906*%
%ADD33R,0.05906X0.05906*%
%ADD34C,0.05000*%
%ADD35C,0.02000*%
G36*
X158643Y349225D02*
X158592Y349160D01*
X158547Y349090D01*
X158508Y349016D01*
X158475Y348938D01*
X158448Y348856D01*
X158427Y348769D01*
X158412Y348678D01*
X158403Y348583D01*
X158400Y348483D01*
X157600D01*
X157597Y348583D01*
X157588Y348678D01*
X157573Y348769D01*
X157552Y348856D01*
X157525Y348938D01*
X157492Y349016D01*
X157453Y349090D01*
X157408Y349160D01*
X157357Y349225D01*
X157300Y349286D01*
X158700D01*
X158643Y349225D01*
D02*
G37*
G36*
X187534Y346678D02*
X186928Y345950D01*
X186682Y345591D01*
X186473Y345235D01*
X186303Y344883D01*
X186170Y344534D01*
X186076Y344189D01*
X186019Y343847D01*
X186000Y343509D01*
X184000D01*
X183981Y343847D01*
X183924Y344189D01*
X183830Y344534D01*
X183697Y344883D01*
X183527Y345235D01*
X183318Y345591D01*
X183072Y345950D01*
X182788Y346312D01*
X182466Y346678D01*
X182106Y347048D01*
X187894D01*
X187534Y346678D01*
D02*
G37*
G36*
X315143Y343378D02*
X315092Y343312D01*
X315047Y343243D01*
X315008Y343169D01*
X314975Y343091D01*
X314948Y343009D01*
X314927Y342922D01*
X314912Y342831D01*
X314903Y342736D01*
X314900Y342636D01*
X314100D01*
X314097Y342736D01*
X314088Y342831D01*
X314073Y342922D01*
X314052Y343009D01*
X314025Y343091D01*
X313992Y343169D01*
X313953Y343243D01*
X313908Y343312D01*
X313857Y343378D01*
X313800Y343439D01*
X315200D01*
X315143Y343378D01*
D02*
G37*
G36*
X161143Y340225D02*
X161092Y340160D01*
X161047Y340090D01*
X161008Y340016D01*
X160975Y339938D01*
X160948Y339856D01*
X160927Y339769D01*
X160912Y339678D01*
X160903Y339583D01*
X160900Y339483D01*
X160100D01*
X160097Y339583D01*
X160088Y339678D01*
X160073Y339769D01*
X160052Y339856D01*
X160025Y339938D01*
X159992Y340016D01*
X159953Y340090D01*
X159908Y340160D01*
X159857Y340225D01*
X159800Y340286D01*
X161200D01*
X161143Y340225D01*
D02*
G37*
G36*
X255143Y337225D02*
X255092Y337160D01*
X255047Y337090D01*
X255008Y337016D01*
X254975Y336938D01*
X254948Y336856D01*
X254927Y336769D01*
X254912Y336678D01*
X254903Y336583D01*
X254900Y336484D01*
X254100D01*
X254097Y336583D01*
X254088Y336678D01*
X254073Y336769D01*
X254052Y336856D01*
X254025Y336938D01*
X253992Y337016D01*
X253953Y337090D01*
X253908Y337160D01*
X253857Y337225D01*
X253800Y337286D01*
X255200D01*
X255143Y337225D01*
D02*
G37*
G36*
X163643Y334925D02*
X163592Y334860D01*
X163547Y334790D01*
X163508Y334716D01*
X163475Y334638D01*
X163448Y334556D01*
X163427Y334469D01*
X163412Y334378D01*
X163403Y334283D01*
X163400Y334184D01*
X162600D01*
X162597Y334283D01*
X162588Y334378D01*
X162573Y334469D01*
X162552Y334556D01*
X162525Y334638D01*
X162492Y334716D01*
X162453Y334790D01*
X162408Y334860D01*
X162357Y334925D01*
X162300Y334986D01*
X163700D01*
X163643Y334925D01*
D02*
G37*
G36*
X166143Y330225D02*
X166092Y330160D01*
X166047Y330090D01*
X166008Y330016D01*
X165975Y329938D01*
X165948Y329856D01*
X165927Y329769D01*
X165912Y329678D01*
X165903Y329583D01*
X165900Y329484D01*
X165100D01*
X165097Y329583D01*
X165088Y329678D01*
X165073Y329769D01*
X165052Y329856D01*
X165025Y329938D01*
X164992Y330016D01*
X164953Y330090D01*
X164908Y330160D01*
X164857Y330225D01*
X164800Y330286D01*
X166200D01*
X166143Y330225D01*
D02*
G37*
G36*
X616470Y343538D02*
X616470Y126462D01*
X602557Y112549D01*
X136664D01*
X135453Y114547D01*
X135453Y115049D01*
Y125453D01*
X134578D01*
X133830Y126574D01*
X133382Y127953D01*
X133683Y128474D01*
X133953Y129480D01*
Y129500D01*
X130000D01*
Y130500D01*
X133953D01*
Y130520D01*
X133683Y131526D01*
X133163Y132427D01*
X132941Y132649D01*
X132899Y132763D01*
X132967Y134756D01*
X133245Y135577D01*
X133348Y135637D01*
X134363Y136652D01*
X135081Y137895D01*
X135453Y139282D01*
Y140718D01*
X135081Y142105D01*
X134363Y143348D01*
X133631Y145000D01*
X134363Y146652D01*
X135081Y147895D01*
X135453Y149282D01*
Y150718D01*
X135081Y152105D01*
X134363Y153348D01*
X133631Y155000D01*
X134363Y156652D01*
X135081Y157895D01*
X135453Y159282D01*
Y160718D01*
X135081Y162105D01*
X134363Y163348D01*
X133631Y165000D01*
X134363Y166652D01*
X135081Y167895D01*
X135453Y169282D01*
Y170718D01*
X135081Y172105D01*
X134363Y173348D01*
X133631Y175000D01*
X134363Y176652D01*
X135081Y177895D01*
X135453Y179282D01*
Y180718D01*
X135081Y182105D01*
X134363Y183348D01*
X133631Y185000D01*
X134363Y186652D01*
X135081Y187895D01*
X135453Y189282D01*
Y190718D01*
X135081Y192105D01*
X134363Y193348D01*
X133631Y195000D01*
X134363Y196652D01*
X135081Y197895D01*
X135453Y199282D01*
Y200718D01*
X135081Y202105D01*
X134363Y203348D01*
X133631Y205000D01*
X134363Y206652D01*
X135081Y207895D01*
X135453Y209282D01*
Y210718D01*
X135081Y212105D01*
X134363Y213348D01*
X133631Y215000D01*
X134363Y216652D01*
X135081Y217895D01*
X135453Y219282D01*
Y220718D01*
X135081Y222105D01*
X134363Y223348D01*
X133631Y225000D01*
X134363Y226652D01*
X135081Y227895D01*
X135453Y229282D01*
Y230718D01*
X135081Y232105D01*
X134363Y233348D01*
X133631Y235000D01*
X134363Y236652D01*
X135081Y237895D01*
X135453Y239282D01*
Y240718D01*
X135081Y242105D01*
X134363Y243348D01*
X133631Y245000D01*
X134363Y246652D01*
X135081Y247895D01*
X135453Y249282D01*
Y250718D01*
X135081Y252105D01*
X134363Y253348D01*
X133631Y255000D01*
X134363Y256652D01*
X135081Y257895D01*
X135453Y259282D01*
Y260718D01*
X135081Y262105D01*
X134363Y263348D01*
X133631Y265000D01*
X134363Y266652D01*
X135081Y267895D01*
X135453Y269282D01*
Y270718D01*
X135081Y272105D01*
X134363Y273348D01*
X133631Y275000D01*
X134363Y276652D01*
X135081Y277895D01*
X135453Y279282D01*
Y280718D01*
X135081Y282105D01*
X134363Y283348D01*
X133631Y285000D01*
X134363Y286652D01*
X135081Y287895D01*
X135453Y289282D01*
Y290718D01*
X135081Y292105D01*
X134363Y293348D01*
X133631Y295000D01*
X134363Y296652D01*
X135081Y297895D01*
X135453Y299282D01*
Y300718D01*
X135081Y302105D01*
X134363Y303348D01*
X133631Y305000D01*
X134363Y306652D01*
X135081Y307895D01*
X135453Y309282D01*
Y310718D01*
X135081Y312105D01*
X134363Y313348D01*
X133631Y315000D01*
X134363Y316652D01*
X135081Y317895D01*
X135453Y319282D01*
Y320718D01*
X135081Y322105D01*
X134363Y323348D01*
X133631Y325000D01*
X134363Y326652D01*
X135081Y327895D01*
X135453Y329282D01*
Y330718D01*
X135081Y332105D01*
X134363Y333348D01*
X133631Y335000D01*
X134363Y336652D01*
X135081Y337895D01*
X135453Y339282D01*
Y340718D01*
X135081Y342105D01*
X134363Y343348D01*
X133631Y345000D01*
X134363Y346652D01*
X135081Y347895D01*
X135453Y349282D01*
Y350718D01*
X135081Y352105D01*
X134363Y353348D01*
X133348Y354363D01*
X133467Y357131D01*
X133660Y357451D01*
X179711D01*
X180472Y355801D01*
X180569Y354951D01*
X179847Y354229D01*
X179121Y353142D01*
X178621Y351935D01*
X178366Y350653D01*
Y349347D01*
X178621Y348065D01*
X179121Y346858D01*
X179847Y345771D01*
X180153Y345465D01*
X180280Y345270D01*
X180595Y344946D01*
X180826Y344683D01*
X181016Y344442D01*
X181165Y344224D01*
X181276Y344034D01*
X181354Y343873D01*
X181404Y343742D01*
X181431Y343641D01*
X181444Y343566D01*
X181455Y343366D01*
X181470Y343309D01*
Y329961D01*
X175039D01*
Y328415D01*
X174132Y327861D01*
X172539Y327512D01*
X172282Y327769D01*
X171493Y328225D01*
X170915Y328380D01*
X170474Y328640D01*
X169151Y330345D01*
X169000Y330861D01*
Y331461D01*
X168762Y332351D01*
X168301Y333149D01*
X167649Y333801D01*
X166851Y334261D01*
X166279Y334415D01*
X166500Y335239D01*
Y336161D01*
X166261Y337051D01*
X165801Y337849D01*
X165149Y338501D01*
X164351Y338962D01*
X164000Y340539D01*
Y341461D01*
X163761Y342351D01*
X163301Y343149D01*
X162649Y343801D01*
X161851Y344262D01*
X160961Y344500D01*
X160925D01*
Y348066D01*
X161261Y348649D01*
X161500Y349539D01*
Y350461D01*
X161261Y351351D01*
X160801Y352149D01*
X160149Y352801D01*
X159351Y353261D01*
X158461Y353500D01*
X157539D01*
X156649Y353261D01*
X155851Y352801D01*
X155199Y352149D01*
X154738Y351351D01*
X154500Y350461D01*
Y349539D01*
X154738Y348649D01*
X155075Y348066D01*
Y316148D01*
X154669Y315729D01*
X152575Y314810D01*
X152105Y315081D01*
X150718Y315453D01*
X149282D01*
X147895Y315081D01*
X146652Y314363D01*
X145637Y313348D01*
X144919Y312105D01*
X144547Y310718D01*
Y309282D01*
X144919Y307895D01*
X145637Y306652D01*
X146370Y305000D01*
X145637Y303348D01*
X144919Y302105D01*
X144547Y300718D01*
Y299282D01*
X144919Y297895D01*
X145637Y296652D01*
X146370Y295000D01*
X145637Y293348D01*
X144919Y292105D01*
X144547Y290718D01*
Y289282D01*
X144919Y287895D01*
X145637Y286652D01*
X146370Y285000D01*
X145637Y283348D01*
X144919Y282105D01*
X144547Y280718D01*
Y279282D01*
X144919Y277895D01*
X145637Y276652D01*
X146370Y275000D01*
X145637Y273348D01*
X144919Y272105D01*
X144547Y270718D01*
Y269282D01*
X144919Y267895D01*
X145637Y266652D01*
X146370Y265000D01*
X145637Y263348D01*
X144919Y262105D01*
X144547Y260718D01*
Y259282D01*
X144919Y257895D01*
X145637Y256652D01*
X146370Y255000D01*
X145637Y253348D01*
X144919Y252105D01*
X144547Y250718D01*
Y249282D01*
X144919Y247895D01*
X145637Y246652D01*
X146370Y245000D01*
X145637Y243348D01*
X144919Y242105D01*
X144547Y240718D01*
Y239282D01*
X144919Y237895D01*
X145637Y236652D01*
X146652Y235637D01*
X147895Y234919D01*
X149282Y234547D01*
X150718D01*
X152105Y234919D01*
X152575Y235190D01*
X154669Y234271D01*
X155075Y233852D01*
Y226148D01*
X154669Y225729D01*
X152575Y224810D01*
X152105Y225081D01*
X150718Y225453D01*
X149282D01*
X147895Y225081D01*
X146652Y224363D01*
X145637Y223348D01*
X144919Y222105D01*
X144547Y220718D01*
Y219282D01*
X144919Y217895D01*
X145637Y216652D01*
X146370Y215000D01*
X145637Y213348D01*
X144919Y212105D01*
X144547Y210718D01*
Y209282D01*
X144919Y207895D01*
X145637Y206652D01*
X146370Y205000D01*
X145637Y203348D01*
X144919Y202105D01*
X144547Y200718D01*
Y199282D01*
X144919Y197895D01*
X145637Y196652D01*
X146370Y195000D01*
X145637Y193348D01*
X144919Y192105D01*
X144547Y190718D01*
Y189282D01*
X144919Y187895D01*
X145637Y186652D01*
X146370Y185000D01*
X145637Y183348D01*
X144919Y182105D01*
X144547Y180718D01*
Y179282D01*
X144919Y177895D01*
X145637Y176652D01*
X146370Y175000D01*
X145637Y173348D01*
X144919Y172105D01*
X144547Y170718D01*
Y169282D01*
X144919Y167895D01*
X145637Y166652D01*
X146370Y165000D01*
X145637Y163348D01*
X144919Y162105D01*
X144547Y160718D01*
Y159282D01*
X144919Y157895D01*
X145637Y156652D01*
X146370Y155000D01*
X145637Y153348D01*
X144919Y152105D01*
X144547Y150718D01*
Y149282D01*
X144919Y147895D01*
X145637Y146652D01*
X145970Y146318D01*
X146088Y146133D01*
X146228Y145986D01*
X146291Y145910D01*
X146337Y145844D01*
X146371Y145787D01*
X146395Y145737D01*
X146414Y145689D01*
X146428Y145641D01*
X146439Y145588D01*
X146446Y145525D01*
X146453Y145352D01*
X146470Y145281D01*
Y139961D01*
X145039D01*
Y130039D01*
X146470D01*
Y125007D01*
X146452Y124931D01*
X146447Y124764D01*
X146441Y124695D01*
X146433Y124648D01*
X146429Y124633D01*
X146388Y124589D01*
X146278Y124413D01*
X145999Y124133D01*
X145341Y122993D01*
X145000Y121721D01*
Y120405D01*
X145341Y119133D01*
X145999Y117993D01*
X146930Y117062D01*
X148070Y116404D01*
X149342Y116063D01*
X150658D01*
X151930Y116404D01*
X153070Y117062D01*
X154001Y117993D01*
X154659Y119133D01*
X155000Y120405D01*
Y121721D01*
X154659Y122993D01*
X154001Y124133D01*
X153722Y124413D01*
X153612Y124589D01*
X153571Y124633D01*
X153567Y124648D01*
X153559Y124695D01*
X153553Y124764D01*
X153548Y124931D01*
X153530Y125007D01*
Y130039D01*
X154961D01*
Y131585D01*
X155868Y132139D01*
X157461Y132488D01*
X157718Y132231D01*
X158507Y131775D01*
X159343Y131551D01*
Y135000D01*
Y138449D01*
X158507Y138225D01*
X157718Y137769D01*
X157461Y137512D01*
X155868Y137861D01*
X154961Y138415D01*
Y139961D01*
X153530D01*
Y145281D01*
X153547Y145352D01*
X153554Y145525D01*
X153561Y145588D01*
X153572Y145641D01*
X153586Y145689D01*
X153605Y145737D01*
X153629Y145787D01*
X153663Y145844D01*
X153709Y145910D01*
X153772Y145986D01*
X153912Y146133D01*
X154030Y146318D01*
X154363Y146652D01*
X155081Y147895D01*
X155453Y149282D01*
Y150718D01*
X155081Y152105D01*
X154363Y153348D01*
X153630Y155000D01*
X154363Y156652D01*
X155081Y157895D01*
X155453Y159282D01*
Y160718D01*
X155081Y162105D01*
X154363Y163348D01*
X153630Y165000D01*
X154363Y166652D01*
X155006Y167765D01*
X155127Y167813D01*
X155556Y167896D01*
X157671Y167901D01*
X157699Y167851D01*
X158351Y167199D01*
X159149Y166738D01*
X160039Y166500D01*
X160075D01*
Y161934D01*
X159739Y161351D01*
X159500Y160461D01*
Y159539D01*
X159739Y158649D01*
X160199Y157851D01*
X160851Y157199D01*
X161649Y156738D01*
X162539Y156500D01*
X163461D01*
X164351Y156738D01*
X165149Y157199D01*
X165801Y157851D01*
X168431Y157432D01*
X174547Y151316D01*
Y144547D01*
X181470D01*
Y139147D01*
Y134714D01*
X180500Y132499D01*
Y128937D01*
X180000D01*
Y128437D01*
X176513D01*
X176262Y128017D01*
X175039Y126024D01*
X175039Y126024D01*
X175039Y126024D01*
Y116102D01*
X184961D01*
Y120558D01*
X184986Y120683D01*
X184961Y120809D01*
Y120922D01*
X185356Y121389D01*
X185696Y121741D01*
X185743Y121814D01*
X187496Y123567D01*
X190064Y122864D01*
X194996Y117932D01*
X195602Y117467D01*
X196307Y117175D01*
X197064Y117075D01*
X367848D01*
X368605Y117175D01*
X369310Y117467D01*
X369916Y117932D01*
X377068Y125084D01*
X377533Y125690D01*
X377825Y126395D01*
X377925Y127152D01*
Y138116D01*
X377937Y138154D01*
X377937Y138155D01*
X378001Y138276D01*
X378130Y138478D01*
X378290Y138698D01*
X379284Y139831D01*
X379701Y140250D01*
X379837Y140456D01*
X380153Y140771D01*
X380879Y141858D01*
X381379Y143065D01*
X381634Y144347D01*
Y145653D01*
X381379Y146935D01*
X380879Y148142D01*
X380153Y149229D01*
X379837Y149544D01*
X379701Y149750D01*
X379253Y150200D01*
X378901Y150575D01*
X378305Y151282D01*
X378130Y151522D01*
X378001Y151725D01*
X377937Y151845D01*
X377937Y151846D01*
X377925Y151884D01*
Y183788D01*
X382267Y188131D01*
X383623Y188010D01*
X385156Y187484D01*
X385637Y186652D01*
X386652Y185637D01*
X386755Y185577D01*
X387033Y184756D01*
X387101Y182763D01*
X387059Y182649D01*
X386837Y182427D01*
X386317Y181526D01*
X386047Y180520D01*
Y180500D01*
X393953D01*
Y180520D01*
X393683Y181526D01*
X393163Y182427D01*
X392941Y182649D01*
X392899Y182763D01*
X392967Y184756D01*
X393245Y185577D01*
X393348Y185637D01*
X394363Y186652D01*
X395081Y187895D01*
X395453Y189282D01*
Y189778D01*
X395501Y190016D01*
X395503Y190399D01*
X395541Y191047D01*
X395566Y191242D01*
X395596Y191405D01*
X395614Y191477D01*
X397068Y192932D01*
X397533Y193537D01*
X397825Y194243D01*
X397925Y195000D01*
Y292219D01*
X398261Y292802D01*
X398500Y293692D01*
Y294614D01*
X398261Y295504D01*
X397801Y296302D01*
X397149Y296954D01*
X396351Y297414D01*
X395461Y297653D01*
X395453D01*
Y305453D01*
X384547D01*
Y294547D01*
X384547D01*
X384919Y292105D01*
X384547Y290718D01*
Y289282D01*
X384919Y287895D01*
X385637Y286652D01*
X386369Y285000D01*
X385637Y283348D01*
X384919Y282105D01*
X384547Y280718D01*
Y279282D01*
X384919Y277895D01*
X385631Y276661D01*
X385637Y276651D01*
X386369Y275000D01*
X385637Y273349D01*
X385631Y273339D01*
X384919Y272105D01*
X384547Y270718D01*
Y269282D01*
X384919Y267895D01*
X385637Y266652D01*
X386369Y265000D01*
X385637Y263348D01*
X384919Y262105D01*
X384547Y260718D01*
Y259282D01*
X384919Y257895D01*
X385631Y256661D01*
X385637Y256651D01*
X386369Y255000D01*
X385637Y253349D01*
X385631Y253339D01*
X384919Y252105D01*
X384547Y250718D01*
Y249282D01*
X384919Y247895D01*
X385637Y246652D01*
X386652Y245637D01*
X386755Y245577D01*
X387033Y244756D01*
X387101Y242763D01*
X387059Y242649D01*
X386837Y242427D01*
X386317Y241526D01*
X386047Y240520D01*
Y240500D01*
X390000D01*
Y240000D01*
X390500D01*
Y237891D01*
X392067D01*
X391864Y237679D01*
X391683Y237459D01*
X391523Y237232D01*
X391384Y236999D01*
X391267Y236758D01*
X391171Y236510D01*
X391096Y236256D01*
X391043Y235994D01*
X391011Y235726D01*
X391000Y235450D01*
X390948D01*
X392075Y233876D01*
Y205453D01*
X384547D01*
Y198684D01*
X372932Y187068D01*
X372467Y186462D01*
X372175Y185757D01*
X372075Y185000D01*
Y151884D01*
X372063Y151846D01*
X372063Y151845D01*
X371999Y151725D01*
X371870Y151522D01*
X371710Y151302D01*
X370716Y150169D01*
X370299Y149750D01*
X370163Y149544D01*
X369847Y149229D01*
X369121Y148142D01*
X368621Y146935D01*
X368366Y145653D01*
Y144347D01*
X368621Y143065D01*
X369121Y141858D01*
X369847Y140771D01*
X370163Y140456D01*
X370299Y140250D01*
X370747Y139800D01*
X371099Y139425D01*
X371695Y138718D01*
X371870Y138478D01*
X371999Y138275D01*
X372063Y138155D01*
X372063Y138154D01*
X372075Y138116D01*
Y128364D01*
X366636Y122925D01*
X313651D01*
X312981Y125425D01*
X313348Y125637D01*
X314363Y126652D01*
X315081Y127895D01*
X315453Y129282D01*
Y130718D01*
X315081Y132105D01*
X314363Y133348D01*
X314013Y133698D01*
X313878Y133902D01*
X313609Y134174D01*
X313178Y134659D01*
X313057Y134814D01*
X312963Y134950D01*
X312934Y135000D01*
X312963Y135050D01*
X313057Y135186D01*
X313178Y135342D01*
X313609Y135826D01*
X313878Y136098D01*
X314013Y136302D01*
X314363Y136652D01*
X315081Y137895D01*
X315453Y139282D01*
Y140718D01*
X315081Y142105D01*
X314363Y143348D01*
X314143Y143845D01*
X314061Y144240D01*
X314156Y146043D01*
X314435Y146623D01*
X314658Y146822D01*
X314814Y146943D01*
X314950Y147037D01*
X315014Y147075D01*
X321000D01*
X321757Y147175D01*
X322463Y147467D01*
X323068Y147932D01*
X326568Y151432D01*
X327033Y152038D01*
X327325Y152743D01*
X327425Y153500D01*
X327425Y248066D01*
X327762Y248649D01*
X328000Y249539D01*
Y250461D01*
X327762Y251351D01*
X327301Y252149D01*
X326649Y252801D01*
X325851Y253261D01*
X324961Y253500D01*
X324925D01*
Y258066D01*
X325261Y258649D01*
X325500Y259539D01*
Y260461D01*
X325261Y261351D01*
X324801Y262149D01*
X324149Y262801D01*
X323351Y263262D01*
X322461Y263500D01*
X322425D01*
Y268066D01*
X322762Y268649D01*
X323000Y269539D01*
Y270461D01*
X322762Y271351D01*
X322301Y272149D01*
X321649Y272801D01*
X320851Y273261D01*
X319961Y273500D01*
X319925D01*
Y278066D01*
X320262Y278649D01*
X320500Y279539D01*
Y280461D01*
X320262Y281351D01*
X319801Y282149D01*
X319149Y282801D01*
X318351Y283261D01*
X317461Y283500D01*
X317425D01*
Y342219D01*
X317761Y342802D01*
X318000Y343692D01*
Y344614D01*
X317761Y345504D01*
X317301Y346302D01*
X316649Y346954D01*
X315851Y347414D01*
X314961Y347653D01*
X314039D01*
X313149Y347414D01*
X312351Y346954D01*
X311699Y346302D01*
X311239Y345504D01*
X311000Y344614D01*
Y343692D01*
X311239Y342802D01*
X311575Y342219D01*
Y319961D01*
X305039D01*
Y318415D01*
X304132Y317861D01*
X302539Y317512D01*
X302282Y317769D01*
X301493Y318225D01*
X300658Y318449D01*
Y315000D01*
Y311551D01*
X301493Y311775D01*
X302282Y312231D01*
X302539Y312488D01*
X304132Y312139D01*
X305039Y311585D01*
Y310039D01*
X306470D01*
Y304719D01*
X306453Y304648D01*
X306446Y304475D01*
X306439Y304412D01*
X306428Y304359D01*
X306414Y304311D01*
X306395Y304263D01*
X306371Y304213D01*
X306337Y304155D01*
X306291Y304090D01*
X306228Y304014D01*
X306088Y303868D01*
X305970Y303681D01*
X305637Y303348D01*
X304919Y302105D01*
X304547Y300718D01*
Y299282D01*
X304919Y297895D01*
X305637Y296652D01*
X306369Y295000D01*
X305637Y293348D01*
X304919Y292105D01*
X304547Y290718D01*
Y289282D01*
X304919Y287895D01*
X305637Y286652D01*
X306369Y285000D01*
X305637Y283348D01*
X304919Y282105D01*
X304547Y280718D01*
Y279282D01*
X304919Y277895D01*
X305637Y276652D01*
X306369Y275000D01*
X305637Y273348D01*
X304919Y272105D01*
X304547Y270718D01*
Y269282D01*
X304919Y267895D01*
X305637Y266652D01*
X306369Y265000D01*
X305637Y263348D01*
X304919Y262105D01*
X304547Y260718D01*
Y259282D01*
X304919Y257895D01*
X305637Y256652D01*
X306369Y255000D01*
X305637Y253348D01*
X304919Y252105D01*
X304547Y250718D01*
Y249282D01*
X304919Y247895D01*
X305637Y246652D01*
X306369Y245000D01*
X305637Y243348D01*
X304919Y242105D01*
X304547Y240718D01*
Y239282D01*
X304919Y237895D01*
X305637Y236652D01*
X305987Y236302D01*
X306121Y236098D01*
X306391Y235826D01*
X306822Y235342D01*
X306943Y235186D01*
X307037Y235050D01*
X307066Y235000D01*
X307037Y234950D01*
X306943Y234814D01*
X306822Y234659D01*
X306391Y234174D01*
X306121Y233902D01*
X305987Y233698D01*
X305637Y233348D01*
X304919Y232105D01*
X304547Y230718D01*
Y229282D01*
X304919Y227895D01*
X305637Y226652D01*
X306652Y225637D01*
X307895Y224919D01*
X309282Y224547D01*
X310718D01*
X311575Y224777D01*
X313166Y223977D01*
X314075Y223170D01*
Y219961D01*
X305039D01*
Y218415D01*
X304132Y217861D01*
X302539Y217512D01*
X302282Y217769D01*
X301493Y218225D01*
X300658Y218449D01*
Y215000D01*
Y211551D01*
X301493Y211775D01*
X302282Y212231D01*
X302539Y212488D01*
X304132Y212139D01*
X305039Y211585D01*
Y210039D01*
X306470D01*
Y204719D01*
X306453Y204648D01*
X306446Y204475D01*
X306439Y204412D01*
X306428Y204359D01*
X306414Y204311D01*
X306395Y204263D01*
X306371Y204213D01*
X306337Y204155D01*
X306291Y204090D01*
X306228Y204014D01*
X306088Y203868D01*
X305970Y203681D01*
X305637Y203348D01*
X304919Y202105D01*
X304547Y200718D01*
Y199282D01*
X304919Y197895D01*
X305637Y196652D01*
X306369Y195000D01*
X305637Y193348D01*
X304919Y192105D01*
X304547Y190718D01*
Y189282D01*
X304919Y187895D01*
X305637Y186652D01*
X306369Y185000D01*
X305637Y183348D01*
X304919Y182105D01*
X304547Y180718D01*
Y179282D01*
X304919Y177895D01*
X305637Y176652D01*
X306369Y175000D01*
X305637Y173348D01*
X304919Y172105D01*
X304547Y170718D01*
Y169282D01*
X304919Y167895D01*
X305637Y166652D01*
X306369Y165000D01*
X305637Y163348D01*
X304919Y162105D01*
X304547Y160718D01*
Y159282D01*
X304919Y157895D01*
X305637Y156652D01*
X306369Y155000D01*
X305637Y153348D01*
X304919Y152105D01*
X304547Y150718D01*
Y149282D01*
X304919Y147895D01*
X305637Y146652D01*
X306369Y145000D01*
X305637Y143348D01*
X304919Y142105D01*
X304547Y140718D01*
Y139282D01*
X304919Y137895D01*
X305637Y136652D01*
X305987Y136302D01*
X306121Y136098D01*
X306391Y135826D01*
X306822Y135342D01*
X306943Y135186D01*
X307037Y135050D01*
X307066Y135000D01*
X307037Y134950D01*
X306943Y134814D01*
X306822Y134659D01*
X306391Y134174D01*
X306121Y133902D01*
X305987Y133698D01*
X305637Y133348D01*
X304919Y132105D01*
X304547Y130718D01*
Y129282D01*
X304919Y127895D01*
X305637Y126652D01*
X306652Y125637D01*
X307019Y125425D01*
X306349Y122925D01*
X253651D01*
X252981Y125425D01*
X253348Y125637D01*
X254363Y126652D01*
X255081Y127895D01*
X255453Y129282D01*
Y130718D01*
X255081Y132105D01*
X254363Y133348D01*
X254013Y133698D01*
X253878Y133902D01*
X253609Y134174D01*
X253178Y134659D01*
X253058Y134814D01*
X252963Y134950D01*
X252934Y135000D01*
X252963Y135050D01*
X253057Y135186D01*
X253178Y135342D01*
X253609Y135826D01*
X253878Y136098D01*
X254013Y136302D01*
X254363Y136652D01*
X255081Y137895D01*
X255453Y139282D01*
Y139778D01*
X255502Y140016D01*
X255504Y140399D01*
X255541Y141047D01*
X255566Y141242D01*
X255596Y141405D01*
X255614Y141477D01*
X256568Y142432D01*
X257033Y143037D01*
X257325Y143743D01*
X257425Y144500D01*
Y155514D01*
X259678Y156696D01*
X261575Y155661D01*
Y151934D01*
X261239Y151351D01*
X261000Y150461D01*
Y149539D01*
X261239Y148649D01*
X261699Y147851D01*
X262351Y147199D01*
X263149Y146739D01*
X264039Y146500D01*
X264961D01*
X265851Y146739D01*
X266649Y147199D01*
X267301Y147851D01*
X267761Y148649D01*
X268000Y149539D01*
Y150461D01*
X267761Y151351D01*
X267425Y151934D01*
Y192219D01*
X267761Y192802D01*
X268000Y193692D01*
Y194614D01*
X267761Y195504D01*
X267425Y196087D01*
Y248066D01*
X267761Y248649D01*
X268000Y249539D01*
Y250461D01*
X267761Y251351D01*
X267301Y252149D01*
X266649Y252801D01*
X265851Y253261D01*
X264961Y253500D01*
X264925D01*
Y258066D01*
X265262Y258649D01*
X265500Y259539D01*
Y260461D01*
X265262Y261351D01*
X264801Y262149D01*
X264149Y262801D01*
X263351Y263262D01*
X262461Y263500D01*
X262425D01*
Y268066D01*
X262761Y268649D01*
X263000Y269539D01*
Y270461D01*
X262761Y271351D01*
X262301Y272149D01*
X261649Y272801D01*
X260851Y273261D01*
X259961Y273500D01*
X259925D01*
Y278066D01*
X260262Y278649D01*
X260500Y279539D01*
Y280461D01*
X260262Y281351D01*
X259801Y282149D01*
X259149Y282801D01*
X258351Y283261D01*
X257461Y283500D01*
X257425D01*
Y336066D01*
X257762Y336649D01*
X258000Y337539D01*
Y338461D01*
X257762Y339351D01*
X257301Y340149D01*
X256649Y340801D01*
X255851Y341262D01*
X254961Y341500D01*
X254039D01*
X253149Y341262D01*
X252351Y340801D01*
X251699Y340149D01*
X251238Y339351D01*
X251000Y338461D01*
Y337539D01*
X251238Y336649D01*
X251575Y336066D01*
Y319961D01*
X245039D01*
Y318415D01*
X244132Y317861D01*
X242539Y317512D01*
X242282Y317769D01*
X241493Y318225D01*
X240657Y318449D01*
Y315000D01*
Y311551D01*
X241493Y311775D01*
X242282Y312231D01*
X242539Y312488D01*
X244132Y312139D01*
X245039Y311585D01*
Y310039D01*
X246470D01*
Y304719D01*
X246453Y304648D01*
X246446Y304475D01*
X246439Y304412D01*
X246428Y304359D01*
X246414Y304311D01*
X246395Y304263D01*
X246371Y304213D01*
X246337Y304155D01*
X246290Y304090D01*
X246228Y304014D01*
X246088Y303868D01*
X245970Y303681D01*
X245637Y303348D01*
X244919Y302105D01*
X244547Y300718D01*
Y299282D01*
X244919Y297895D01*
X245637Y296652D01*
X246370Y295000D01*
X245637Y293348D01*
X244919Y292105D01*
X244547Y290718D01*
Y289282D01*
X244919Y287895D01*
X245637Y286652D01*
X246370Y285000D01*
X245637Y283348D01*
X244919Y282105D01*
X244547Y280718D01*
Y279282D01*
X244919Y277895D01*
X245637Y276652D01*
X246370Y275000D01*
X245637Y273348D01*
X244919Y272105D01*
X244547Y270718D01*
Y269282D01*
X244919Y267895D01*
X245637Y266652D01*
X246370Y265000D01*
X245637Y263348D01*
X244919Y262105D01*
X244547Y260718D01*
Y259282D01*
X244919Y257895D01*
X245637Y256652D01*
X246370Y255000D01*
X245637Y253348D01*
X244919Y252105D01*
X244547Y250718D01*
Y249282D01*
X244919Y247895D01*
X245637Y246652D01*
X246370Y245000D01*
X245637Y243348D01*
X244919Y242105D01*
X244547Y240718D01*
Y239282D01*
X244919Y237895D01*
X245637Y236652D01*
X245987Y236302D01*
X246122Y236098D01*
X246391Y235826D01*
X246822Y235342D01*
X246942Y235186D01*
X247037Y235050D01*
X247066Y235000D01*
X247037Y234950D01*
X246943Y234814D01*
X246822Y234659D01*
X246391Y234174D01*
X246122Y233902D01*
X245987Y233698D01*
X245637Y233348D01*
X244919Y232105D01*
X244547Y230718D01*
Y229282D01*
X244919Y227895D01*
X245637Y226652D01*
X246652Y225637D01*
X247895Y224919D01*
X249282Y224547D01*
X250718D01*
X251575Y223890D01*
Y219961D01*
X245039D01*
Y218415D01*
X244132Y217861D01*
X242539Y217512D01*
X242282Y217769D01*
X241493Y218225D01*
X240657Y218449D01*
Y215000D01*
Y211551D01*
X241493Y211775D01*
X242282Y212231D01*
X242539Y212488D01*
X244132Y212139D01*
X245039Y211585D01*
Y210039D01*
X246470D01*
Y204719D01*
X246453Y204648D01*
X246446Y204475D01*
X246439Y204412D01*
X246428Y204359D01*
X246414Y204311D01*
X246395Y204263D01*
X246371Y204213D01*
X246337Y204155D01*
X246290Y204090D01*
X246228Y204014D01*
X246088Y203868D01*
X245970Y203681D01*
X245637Y203348D01*
X244919Y202105D01*
X244547Y200718D01*
Y199282D01*
X244919Y197895D01*
X245637Y196652D01*
X246370Y195000D01*
X245637Y193348D01*
X244919Y192105D01*
X244547Y190718D01*
Y189282D01*
X244919Y187895D01*
X245637Y186652D01*
X246370Y185000D01*
X245637Y183348D01*
X244919Y182105D01*
X244547Y180718D01*
Y179282D01*
X244919Y177895D01*
X245637Y176652D01*
X246370Y175000D01*
X245637Y173348D01*
X244919Y172105D01*
X244547Y170718D01*
Y169282D01*
X244919Y167895D01*
X245637Y166652D01*
X246370Y165000D01*
X245637Y163348D01*
X244919Y162105D01*
X244547Y160718D01*
Y159282D01*
X244919Y157895D01*
X245637Y156652D01*
X246370Y155000D01*
X245637Y153348D01*
X244919Y152105D01*
X244547Y150718D01*
Y149282D01*
X244919Y147895D01*
X245637Y146652D01*
X246370Y145000D01*
X245637Y143348D01*
X244919Y142105D01*
X244547Y140718D01*
Y139282D01*
X244919Y137895D01*
X245637Y136652D01*
X245987Y136302D01*
X246122Y136098D01*
X246391Y135826D01*
X246822Y135342D01*
X246942Y135186D01*
X247037Y135050D01*
X247066Y135000D01*
X247037Y134950D01*
X246943Y134814D01*
X246822Y134659D01*
X246391Y134174D01*
X246122Y133902D01*
X245987Y133698D01*
X245637Y133348D01*
X244919Y132105D01*
X244547Y130718D01*
Y129282D01*
X244919Y127895D01*
X245637Y126652D01*
X246652Y125637D01*
X247019Y125425D01*
X246349Y122925D01*
X204237D01*
X203844Y123404D01*
X203152Y125892D01*
X204108Y126848D01*
X204784Y128018D01*
X205134Y129324D01*
Y129500D01*
X200000D01*
Y130000D01*
X199500D01*
Y132952D01*
X197106D01*
X197466Y133322D01*
X198072Y134050D01*
X198318Y134409D01*
X198527Y134765D01*
X198613Y134943D01*
X198018Y134784D01*
X196848Y134108D01*
X195892Y133152D01*
X193404Y133844D01*
X192925Y134237D01*
Y143066D01*
X193262Y143649D01*
X193500Y144539D01*
Y145461D01*
X193262Y146351D01*
X192801Y147149D01*
X192149Y147801D01*
X191351Y148261D01*
X190461Y148500D01*
X189539D01*
X188530Y150818D01*
X188530Y200000D01*
Y204377D01*
X189342Y205000D01*
X190658D01*
X191930Y205341D01*
X193070Y205999D01*
X194001Y206930D01*
X194659Y208070D01*
X195000Y209342D01*
Y210658D01*
X194659Y211930D01*
X194001Y213070D01*
X193070Y214001D01*
X191930Y214659D01*
X190658Y215000D01*
X189342D01*
X188530Y215623D01*
Y220000D01*
Y239377D01*
X189342Y240000D01*
X190658D01*
X191930Y240341D01*
X193070Y240999D01*
X194001Y241930D01*
X194659Y243070D01*
X195000Y244342D01*
Y245658D01*
X194659Y246930D01*
X194001Y248070D01*
X193070Y249001D01*
X191930Y249659D01*
X190658Y250000D01*
X189342D01*
X188530Y250623D01*
Y314377D01*
X189342Y315000D01*
X190658D01*
X191930Y315341D01*
X193070Y315999D01*
X194001Y316930D01*
X194659Y318070D01*
X195000Y319342D01*
Y320658D01*
X194659Y321930D01*
X194001Y323070D01*
X193070Y324001D01*
X191930Y324659D01*
X190658Y325000D01*
X189342D01*
X188530Y325623D01*
Y343309D01*
X188545Y343366D01*
X188556Y343566D01*
X188569Y343641D01*
X188596Y343742D01*
X188646Y343873D01*
X188724Y344034D01*
X188835Y344224D01*
X188963Y344411D01*
X189430Y344972D01*
X189720Y345270D01*
X189847Y345465D01*
X190153Y345771D01*
X190879Y346858D01*
X191379Y348065D01*
X191634Y349347D01*
Y350653D01*
X191379Y351935D01*
X190879Y353142D01*
X190153Y354229D01*
X189431Y354951D01*
X189528Y355801D01*
X190289Y357451D01*
X602557D01*
X616470Y343538D01*
D02*
G37*
G36*
X185000Y325000D02*
X184000Y322000D01*
X183980Y322380D01*
X183920Y322720D01*
X183820Y323020D01*
X183680Y323280D01*
X183500Y323500D01*
X183280Y323680D01*
X183060Y323799D01*
X182940Y323750D01*
X182758Y323640D01*
X182618Y323510D01*
X182517Y323360D01*
X182457Y323190D01*
X182437Y323000D01*
Y323970D01*
X182380Y323980D01*
X182000Y324000D01*
Y326000D01*
X182380Y326020D01*
X182437Y326030D01*
Y327000D01*
X182457Y326810D01*
X182517Y326640D01*
X182618Y326490D01*
X182758Y326360D01*
X182940Y326250D01*
X183060Y326201D01*
X183280Y326320D01*
X183500Y326500D01*
X183680Y326720D01*
X183820Y326980D01*
X183920Y327280D01*
X183980Y327620D01*
X184000Y328000D01*
X185000Y325000D01*
D02*
G37*
G36*
X186020Y322620D02*
X186080Y322280D01*
X186180Y321980D01*
X186320Y321720D01*
X186500Y321500D01*
X186720Y321320D01*
X186980Y321180D01*
X187150Y321123D01*
X187346Y321187D01*
X187541Y321270D01*
X187725Y321368D01*
X187899Y321480D01*
X188062Y321607D01*
X188215Y321750D01*
Y318250D01*
X188062Y318392D01*
X187899Y318520D01*
X187725Y318633D01*
X187541Y318730D01*
X187346Y318812D01*
X187150Y318877D01*
X186980Y318820D01*
X186720Y318680D01*
X186500Y318500D01*
X186320Y318280D01*
X186180Y318020D01*
X186080Y317720D01*
X186020Y317380D01*
X186000Y317000D01*
X186000Y317000D01*
Y317000D01*
X184000Y320000D01*
X186000Y323000D01*
Y323000D01*
X186000Y323000D01*
X186020Y322620D01*
D02*
G37*
G36*
X172625Y324774D02*
X172650Y324576D01*
X172693Y324379D01*
X172754Y324185D01*
X172833Y323994D01*
X172930Y323805D01*
X173045Y323619D01*
X173178Y323434D01*
X173329Y323253D01*
X173498Y323073D01*
X172084Y321659D01*
X171905Y321828D01*
X171723Y321979D01*
X171539Y322112D01*
X171352Y322227D01*
X171163Y322324D01*
X170972Y322404D01*
X170778Y322464D01*
X170582Y322508D01*
X170383Y322533D01*
X170182Y322539D01*
X172618Y324975D01*
X172625Y324774D01*
D02*
G37*
G36*
X173492Y317574D02*
X173441Y317509D01*
X173396Y317439D01*
X173357Y317365D01*
X173324Y317287D01*
X173297Y317205D01*
X173276Y317118D01*
X173261Y317027D01*
X173252Y316932D01*
X173249Y316832D01*
X172449D01*
X172446Y316932D01*
X172437Y317027D01*
X172422Y317118D01*
X172401Y317205D01*
X172374Y317287D01*
X172341Y317365D01*
X172302Y317439D01*
X172257Y317509D01*
X172206Y317574D01*
X172149Y317635D01*
X173549D01*
X173492Y317574D01*
D02*
G37*
G36*
X311810Y312531D02*
X311640Y312471D01*
X311490Y312371D01*
X311360Y312231D01*
X311250Y312051D01*
X311160Y311831D01*
X311090Y311571D01*
X311040Y311271D01*
X311010Y310931D01*
X311000Y310551D01*
X309000D01*
X308990Y310931D01*
X308960Y311271D01*
X308910Y311571D01*
X308840Y311831D01*
X308750Y312051D01*
X308640Y312231D01*
X308510Y312371D01*
X308360Y312471D01*
X308190Y312531D01*
X308000Y312551D01*
X312000D01*
X311810Y312531D01*
D02*
G37*
G36*
X251810D02*
X251640Y312471D01*
X251490Y312371D01*
X251360Y312231D01*
X251250Y312051D01*
X251160Y311831D01*
X251090Y311571D01*
X251040Y311271D01*
X251010Y310931D01*
X251000Y310551D01*
X249000D01*
X248990Y310931D01*
X248960Y311271D01*
X248910Y311571D01*
X248840Y311831D01*
X248750Y312051D01*
X248640Y312231D01*
X248510Y312371D01*
X248360Y312471D01*
X248190Y312531D01*
X248000Y312551D01*
X252000D01*
X251810Y312531D01*
D02*
G37*
G36*
X181470Y314681D02*
X181009Y314327D01*
X181011Y314274D01*
X181043Y314006D01*
X181096Y313744D01*
X181171Y313490D01*
X181267Y313242D01*
X181384Y313001D01*
X181523Y312768D01*
X181683Y312541D01*
X181864Y312321D01*
X182067Y312109D01*
X180500D01*
Y310000D01*
X179500D01*
Y312109D01*
X177933D01*
X178136Y312321D01*
X178317Y312541D01*
X178477Y312768D01*
X178616Y313001D01*
X178733Y313242D01*
X178829Y313490D01*
X178904Y313744D01*
X178916Y313802D01*
X178474Y313683D01*
X176466Y315006D01*
X175941Y316704D01*
X176110Y316998D01*
X176349Y317888D01*
Y318810D01*
X178607Y320039D01*
X181470D01*
Y314681D01*
D02*
G37*
G36*
X311011Y304274D02*
X311043Y304006D01*
X311096Y303744D01*
X311171Y303489D01*
X311267Y303242D01*
X311384Y303001D01*
X311523Y302768D01*
X311683Y302541D01*
X311864Y302321D01*
X312067Y302109D01*
X307933D01*
X308136Y302321D01*
X308317Y302541D01*
X308477Y302768D01*
X308616Y303001D01*
X308733Y303242D01*
X308829Y303489D01*
X308904Y303744D01*
X308957Y304006D01*
X308989Y304274D01*
X309000Y304550D01*
X311000D01*
X311011Y304274D01*
D02*
G37*
G36*
X251011D02*
X251043Y304006D01*
X251096Y303744D01*
X251171Y303489D01*
X251267Y303242D01*
X251384Y303001D01*
X251523Y302768D01*
X251683Y302541D01*
X251864Y302321D01*
X252067Y302109D01*
X247933D01*
X248136Y302321D01*
X248317Y302541D01*
X248477Y302768D01*
X248616Y303001D01*
X248733Y303242D01*
X248829Y303489D01*
X248904Y303744D01*
X248957Y304006D01*
X248989Y304274D01*
X249000Y304550D01*
X251000D01*
X251011Y304274D01*
D02*
G37*
G36*
X177113Y303476D02*
X177298Y303362D01*
X177516Y303262D01*
X177767Y303176D01*
X178051Y303104D01*
X178369Y303046D01*
X178719Y303001D01*
X179520Y302955D01*
X179971Y302953D01*
X177047Y300029D01*
X177045Y300480D01*
X176999Y301281D01*
X176954Y301631D01*
X176896Y301949D01*
X176824Y302233D01*
X176738Y302484D01*
X176638Y302702D01*
X176524Y302887D01*
X176396Y303039D01*
X176961Y303604D01*
X177113Y303476D01*
D02*
G37*
G36*
X395643Y293378D02*
X395592Y293313D01*
X395547Y293243D01*
X395508Y293169D01*
X395475Y293091D01*
X395448Y293009D01*
X395427Y292922D01*
X395412Y292831D01*
X395403Y292736D01*
X395400Y292636D01*
X394600D01*
X394597Y292736D01*
X394588Y292831D01*
X394573Y292922D01*
X394552Y293009D01*
X394525Y293091D01*
X394492Y293169D01*
X394453Y293243D01*
X394408Y293313D01*
X394357Y293378D01*
X394300Y293439D01*
X395700D01*
X395643Y293378D01*
D02*
G37*
G36*
X158403Y291417D02*
X158412Y291322D01*
X158427Y291231D01*
X158448Y291144D01*
X158475Y291062D01*
X158508Y290984D01*
X158547Y290910D01*
X158592Y290840D01*
X158643Y290775D01*
X158700Y290714D01*
X158000Y290000D01*
X157300Y290714D01*
X157357Y290775D01*
X157408Y290840D01*
X157453Y290910D01*
X157492Y290984D01*
X157525Y291062D01*
X157552Y291144D01*
X157573Y291231D01*
X157588Y291322D01*
X157597Y291417D01*
X157600Y291516D01*
X158400Y291516D01*
X158403Y291417D01*
D02*
G37*
G36*
X158700Y289286D02*
X158643Y289225D01*
X158592Y289160D01*
X158547Y289090D01*
X158508Y289016D01*
X158475Y288938D01*
X158448Y288856D01*
X158427Y288769D01*
X158412Y288678D01*
X158403Y288583D01*
X158400Y288484D01*
X157600Y288484D01*
X157597Y288583D01*
X157588Y288678D01*
X157573Y288769D01*
X157552Y288856D01*
X157525Y288938D01*
X157492Y289016D01*
X157453Y289090D01*
X157408Y289160D01*
X157357Y289225D01*
X157300Y289286D01*
X158000Y290000D01*
X158700Y289286D01*
D02*
G37*
G36*
X317643Y279225D02*
X317592Y279160D01*
X317547Y279090D01*
X317508Y279016D01*
X317475Y278938D01*
X317448Y278856D01*
X317427Y278769D01*
X317412Y278678D01*
X317403Y278583D01*
X317400Y278484D01*
X316600D01*
X316597Y278583D01*
X316588Y278678D01*
X316573Y278769D01*
X316552Y278856D01*
X316525Y278938D01*
X316492Y279016D01*
X316453Y279090D01*
X316408Y279160D01*
X316357Y279225D01*
X316300Y279286D01*
X317700D01*
X317643Y279225D01*
D02*
G37*
G36*
X257643D02*
X257592Y279160D01*
X257547Y279090D01*
X257508Y279016D01*
X257475Y278938D01*
X257448Y278856D01*
X257427Y278769D01*
X257412Y278678D01*
X257403Y278583D01*
X257400Y278484D01*
X256600D01*
X256597Y278583D01*
X256588Y278678D01*
X256573Y278769D01*
X256552Y278856D01*
X256525Y278938D01*
X256492Y279016D01*
X256453Y279090D01*
X256408Y279160D01*
X256357Y279225D01*
X256300Y279286D01*
X257700D01*
X257643Y279225D01*
D02*
G37*
G36*
X181864Y277679D02*
X181683Y277459D01*
X181523Y277232D01*
X181384Y276999D01*
X181267Y276758D01*
X181171Y276511D01*
X181096Y276256D01*
X181043Y275994D01*
X181011Y275726D01*
X181000Y275450D01*
X179000D01*
X178989Y275726D01*
X178957Y275994D01*
X178904Y276256D01*
X178829Y276511D01*
X178733Y276758D01*
X178616Y276999D01*
X178477Y277232D01*
X178317Y277459D01*
X178136Y277679D01*
X177933Y277891D01*
X182067D01*
X181864Y277679D01*
D02*
G37*
G36*
X181011Y274274D02*
X181043Y274006D01*
X181096Y273744D01*
X181171Y273489D01*
X181267Y273242D01*
X181384Y273001D01*
X181523Y272768D01*
X181683Y272541D01*
X181864Y272321D01*
X182067Y272109D01*
X177933D01*
X178136Y272321D01*
X178317Y272541D01*
X178477Y272768D01*
X178616Y273001D01*
X178733Y273242D01*
X178829Y273489D01*
X178904Y273744D01*
X178957Y274006D01*
X178989Y274274D01*
X179000Y274550D01*
X181000D01*
X181011Y274274D01*
D02*
G37*
G36*
X320143Y269225D02*
X320092Y269160D01*
X320047Y269090D01*
X320008Y269016D01*
X319975Y268938D01*
X319948Y268856D01*
X319927Y268769D01*
X319912Y268678D01*
X319903Y268583D01*
X319900Y268483D01*
X319100D01*
X319097Y268583D01*
X319088Y268678D01*
X319073Y268769D01*
X319052Y268856D01*
X319025Y268938D01*
X318992Y269016D01*
X318953Y269090D01*
X318908Y269160D01*
X318857Y269225D01*
X318800Y269286D01*
X320200D01*
X320143Y269225D01*
D02*
G37*
G36*
X260143Y269225D02*
X260092Y269160D01*
X260047Y269090D01*
X260008Y269016D01*
X259975Y268938D01*
X259948Y268856D01*
X259927Y268769D01*
X259912Y268678D01*
X259903Y268583D01*
X259900Y268483D01*
X259100Y268483D01*
X259097Y268583D01*
X259088Y268678D01*
X259073Y268769D01*
X259052Y268856D01*
X259025Y268938D01*
X258992Y269016D01*
X258953Y269090D01*
X258908Y269160D01*
X258857Y269225D01*
X258800Y269286D01*
X260200Y269286D01*
X260143Y269225D01*
D02*
G37*
G36*
X160903Y261417D02*
X160912Y261322D01*
X160927Y261231D01*
X160948Y261144D01*
X160975Y261062D01*
X161008Y260984D01*
X161047Y260910D01*
X161092Y260840D01*
X161143Y260775D01*
X161200Y260714D01*
X160500Y260000D01*
X159800Y260714D01*
X159857Y260775D01*
X159908Y260840D01*
X159953Y260910D01*
X159992Y260984D01*
X160025Y261062D01*
X160052Y261144D01*
X160073Y261231D01*
X160088Y261322D01*
X160097Y261417D01*
X160100Y261516D01*
X160900Y261516D01*
X160903Y261417D01*
D02*
G37*
G36*
X322643Y259225D02*
X322592Y259160D01*
X322547Y259090D01*
X322508Y259016D01*
X322475Y258938D01*
X322448Y258856D01*
X322427Y258769D01*
X322412Y258678D01*
X322403Y258583D01*
X322400Y258484D01*
X321600D01*
X321597Y258583D01*
X321588Y258678D01*
X321573Y258769D01*
X321552Y258856D01*
X321525Y258938D01*
X321492Y259016D01*
X321453Y259090D01*
X321408Y259160D01*
X321357Y259225D01*
X321300Y259286D01*
X322700D01*
X322643Y259225D01*
D02*
G37*
G36*
X262643D02*
X262592Y259160D01*
X262547Y259090D01*
X262508Y259016D01*
X262475Y258938D01*
X262448Y258856D01*
X262427Y258769D01*
X262412Y258678D01*
X262403Y258583D01*
X262400Y258484D01*
X261600D01*
X261597Y258583D01*
X261588Y258678D01*
X261573Y258769D01*
X261552Y258856D01*
X261525Y258938D01*
X261492Y259016D01*
X261453Y259090D01*
X261408Y259160D01*
X261357Y259225D01*
X261300Y259286D01*
X262700D01*
X262643Y259225D01*
D02*
G37*
G36*
X161200Y259286D02*
X161143Y259225D01*
X161092Y259160D01*
X161047Y259090D01*
X161008Y259016D01*
X160975Y258938D01*
X160948Y258856D01*
X160927Y258769D01*
X160912Y258678D01*
X160903Y258583D01*
X160900Y258484D01*
X160100Y258484D01*
X160097Y258583D01*
X160088Y258678D01*
X160073Y258769D01*
X160052Y258856D01*
X160025Y258938D01*
X159992Y259016D01*
X159953Y259090D01*
X159908Y259160D01*
X159857Y259225D01*
X159800Y259286D01*
X160500Y260000D01*
X161200Y259286D01*
D02*
G37*
G36*
X163403Y251417D02*
X163412Y251322D01*
X163427Y251231D01*
X163448Y251144D01*
X163475Y251062D01*
X163508Y250984D01*
X163547Y250910D01*
X163592Y250840D01*
X163643Y250775D01*
X163700Y250714D01*
X163000Y250000D01*
X162300Y250714D01*
X162357Y250775D01*
X162408Y250840D01*
X162453Y250910D01*
X162492Y250984D01*
X162525Y251062D01*
X162552Y251144D01*
X162573Y251231D01*
X162588Y251322D01*
X162597Y251417D01*
X162600Y251517D01*
X163400Y251517D01*
X163403Y251417D01*
D02*
G37*
G36*
X325143Y249225D02*
X325092Y249160D01*
X325047Y249090D01*
X325008Y249016D01*
X324975Y248938D01*
X324948Y248856D01*
X324927Y248769D01*
X324912Y248678D01*
X324903Y248583D01*
X324900Y248483D01*
X324100D01*
X324097Y248583D01*
X324088Y248678D01*
X324073Y248769D01*
X324052Y248856D01*
X324025Y248938D01*
X323992Y249016D01*
X323953Y249090D01*
X323908Y249160D01*
X323857Y249225D01*
X323800Y249286D01*
X325200D01*
X325143Y249225D01*
D02*
G37*
G36*
X265143Y249225D02*
X265092Y249160D01*
X265047Y249090D01*
X265008Y249016D01*
X264975Y248938D01*
X264948Y248856D01*
X264927Y248769D01*
X264912Y248678D01*
X264903Y248583D01*
X264900Y248483D01*
X264100Y248483D01*
X264097Y248583D01*
X264088Y248678D01*
X264073Y248769D01*
X264052Y248856D01*
X264025Y248938D01*
X263992Y249016D01*
X263953Y249090D01*
X263908Y249160D01*
X263857Y249225D01*
X263800Y249286D01*
X265200Y249286D01*
X265143Y249225D01*
D02*
G37*
G36*
X163700Y249286D02*
X163643Y249225D01*
X163592Y249160D01*
X163547Y249090D01*
X163508Y249016D01*
X163475Y248938D01*
X163448Y248856D01*
X163427Y248769D01*
X163412Y248678D01*
X163403Y248583D01*
X163400Y248483D01*
X162600Y248483D01*
X162597Y248583D01*
X162588Y248678D01*
X162573Y248769D01*
X162552Y248856D01*
X162525Y248938D01*
X162492Y249016D01*
X162453Y249090D01*
X162408Y249160D01*
X162357Y249225D01*
X162300Y249286D01*
X163000Y250000D01*
X163700Y249286D01*
D02*
G37*
G36*
X186020Y247620D02*
X186080Y247280D01*
X186180Y246980D01*
X186320Y246720D01*
X186500Y246500D01*
X186720Y246320D01*
X186980Y246180D01*
X187150Y246123D01*
X187346Y246187D01*
X187541Y246270D01*
X187725Y246368D01*
X187899Y246480D01*
X188062Y246607D01*
X188215Y246750D01*
Y243250D01*
X188062Y243392D01*
X187899Y243520D01*
X187725Y243633D01*
X187541Y243730D01*
X187346Y243812D01*
X187150Y243877D01*
X186980Y243820D01*
X186720Y243680D01*
X186500Y243500D01*
X186320Y243280D01*
X186180Y243020D01*
X186080Y242720D01*
X186020Y242380D01*
X186000Y242000D01*
X184000Y245000D01*
X186000Y248000D01*
X186020Y247620D01*
D02*
G37*
G36*
X165903Y241524D02*
X165912Y241429D01*
X165927Y241338D01*
X165948Y241251D01*
X165975Y241169D01*
X166008Y241091D01*
X166047Y241017D01*
X166092Y240947D01*
X166143Y240882D01*
X166200Y240821D01*
X164800D01*
X164857Y240882D01*
X164908Y240947D01*
X164953Y241017D01*
X164992Y241091D01*
X165025Y241169D01*
X165052Y241251D01*
X165073Y241338D01*
X165088Y241429D01*
X165097Y241524D01*
X165100Y241624D01*
X165900D01*
X165903Y241524D01*
D02*
G37*
G36*
X313604Y243039D02*
X313476Y242887D01*
X313362Y242702D01*
X313262Y242484D01*
X313176Y242233D01*
X313104Y241949D01*
X313046Y241631D01*
X313001Y241281D01*
X312955Y240480D01*
X312953Y240030D01*
X310030Y242953D01*
X310480Y242955D01*
X311281Y243002D01*
X311631Y243046D01*
X311949Y243104D01*
X312233Y243176D01*
X312484Y243262D01*
X312702Y243362D01*
X312887Y243476D01*
X313039Y243604D01*
X313604Y243039D01*
D02*
G37*
G36*
X166143Y239332D02*
X166092Y239267D01*
X166047Y239197D01*
X166008Y239123D01*
X165975Y239045D01*
X165948Y238963D01*
X165927Y238876D01*
X165912Y238785D01*
X165903Y238690D01*
X165900Y238591D01*
X165100D01*
X165097Y238690D01*
X165088Y238785D01*
X165073Y238876D01*
X165052Y238963D01*
X165025Y239045D01*
X164992Y239123D01*
X164953Y239197D01*
X164908Y239267D01*
X164857Y239332D01*
X164800Y239393D01*
X166200D01*
X166143Y239332D01*
D02*
G37*
G36*
X311750Y237571D02*
X311217Y236972D01*
X311000Y236693D01*
X310817Y236427D01*
X310667Y236175D01*
X310550Y235937D01*
X310467Y235712D01*
X310417Y235501D01*
X310400Y235303D01*
X309600D01*
X309583Y235501D01*
X309533Y235712D01*
X309450Y235937D01*
X309333Y236175D01*
X309183Y236427D01*
X309000Y236693D01*
X308783Y236972D01*
X308250Y237571D01*
X307933Y237891D01*
X312067D01*
X311750Y237571D01*
D02*
G37*
G36*
X251750D02*
X251217Y236972D01*
X251000Y236693D01*
X250817Y236427D01*
X250667Y236175D01*
X250550Y235937D01*
X250467Y235712D01*
X250417Y235501D01*
X250400Y235303D01*
X249600D01*
X249583Y235501D01*
X249533Y235712D01*
X249450Y235937D01*
X249333Y236175D01*
X249183Y236427D01*
X249000Y236693D01*
X248783Y236972D01*
X248250Y237571D01*
X247933Y237891D01*
X252067D01*
X251750Y237571D01*
D02*
G37*
G36*
X257403Y235664D02*
X257412Y235569D01*
X257427Y235478D01*
X257448Y235391D01*
X257475Y235309D01*
X257508Y235231D01*
X257547Y235157D01*
X257592Y235087D01*
X257643Y235022D01*
X257700Y234961D01*
X257000Y234247D01*
X257700Y233533D01*
X257643Y233472D01*
X257592Y233407D01*
X257547Y233337D01*
X257508Y233263D01*
X257475Y233185D01*
X257448Y233103D01*
X257427Y233016D01*
X257412Y232925D01*
X257403Y232830D01*
X257400Y232731D01*
X256600D01*
X256597Y232830D01*
X256588Y232925D01*
X256573Y233016D01*
X256552Y233103D01*
X256525Y233185D01*
X256492Y233263D01*
X256453Y233337D01*
X256408Y233407D01*
X256357Y233472D01*
X256300Y233533D01*
X257000Y234247D01*
X256300Y234961D01*
X256357Y235022D01*
X256408Y235087D01*
X256453Y235157D01*
X256492Y235231D01*
X256525Y235309D01*
X256552Y235391D01*
X256573Y235478D01*
X256588Y235569D01*
X256597Y235664D01*
X256600Y235764D01*
X257400D01*
X257403Y235664D01*
D02*
G37*
G36*
X310417Y234500D02*
X310467Y234288D01*
X310550Y234063D01*
X310667Y233825D01*
X310817Y233573D01*
X311000Y233307D01*
X311217Y233028D01*
X311750Y232429D01*
X312067Y232109D01*
X307933D01*
X308250Y232429D01*
X308783Y233028D01*
X309000Y233307D01*
X309183Y233573D01*
X309333Y233825D01*
X309450Y234063D01*
X309533Y234288D01*
X309583Y234500D01*
X309600Y234697D01*
X310400D01*
X310417Y234500D01*
D02*
G37*
G36*
X250417D02*
X250467Y234288D01*
X250550Y234063D01*
X250667Y233825D01*
X250817Y233573D01*
X251000Y233307D01*
X251217Y233028D01*
X251750Y232429D01*
X252067Y232109D01*
X247933D01*
X248250Y232429D01*
X248783Y233028D01*
X249000Y233307D01*
X249183Y233573D01*
X249333Y233825D01*
X249450Y234063D01*
X249533Y234288D01*
X249583Y234500D01*
X249600Y234697D01*
X250400D01*
X250417Y234500D01*
D02*
G37*
G36*
X176143Y229225D02*
X176092Y229160D01*
X176047Y229090D01*
X176008Y229016D01*
X175975Y228938D01*
X175948Y228856D01*
X175927Y228769D01*
X175912Y228678D01*
X175903Y228583D01*
X175900Y228484D01*
X175100D01*
X175097Y228583D01*
X175088Y228678D01*
X175073Y228769D01*
X175052Y228856D01*
X175025Y228938D01*
X174992Y229016D01*
X174953Y229090D01*
X174908Y229160D01*
X174857Y229225D01*
X174800Y229286D01*
X176200D01*
X176143Y229225D01*
D02*
G37*
G36*
X259903Y225664D02*
X259912Y225569D01*
X259927Y225478D01*
X259948Y225391D01*
X259975Y225309D01*
X260008Y225231D01*
X260047Y225157D01*
X260092Y225087D01*
X260143Y225022D01*
X260200Y224961D01*
X259500Y224247D01*
X260200Y223533D01*
X260143Y223472D01*
X260092Y223407D01*
X260047Y223337D01*
X260008Y223264D01*
X259975Y223185D01*
X259948Y223103D01*
X259927Y223016D01*
X259912Y222925D01*
X259903Y222830D01*
X259900Y222731D01*
X259100D01*
X259097Y222830D01*
X259088Y222925D01*
X259073Y223016D01*
X259052Y223103D01*
X259025Y223185D01*
X258992Y223264D01*
X258953Y223337D01*
X258908Y223407D01*
X258857Y223472D01*
X258800Y223533D01*
X259500Y224247D01*
X258800Y224961D01*
X258857Y225022D01*
X258908Y225087D01*
X258953Y225157D01*
X258992Y225231D01*
X259025Y225309D01*
X259052Y225391D01*
X259073Y225478D01*
X259088Y225569D01*
X259097Y225664D01*
X259100Y225764D01*
X259900D01*
X259903Y225664D01*
D02*
G37*
G36*
X311810Y212531D02*
X311640Y212471D01*
X311490Y212371D01*
X311360Y212231D01*
X311250Y212051D01*
X311160Y211831D01*
X311090Y211571D01*
X311040Y211271D01*
X311010Y210931D01*
X311000Y210551D01*
X309000D01*
X308990Y210931D01*
X308960Y211271D01*
X308910Y211571D01*
X308840Y211831D01*
X308750Y212051D01*
X308640Y212231D01*
X308510Y212371D01*
X308360Y212471D01*
X308190Y212531D01*
X308000Y212551D01*
X312000D01*
X311810Y212531D01*
D02*
G37*
G36*
X251810D02*
X251640Y212471D01*
X251490Y212371D01*
X251360Y212231D01*
X251250Y212051D01*
X251160Y211831D01*
X251090Y211571D01*
X251040Y211271D01*
X251010Y210931D01*
X251000Y210551D01*
X249000D01*
X248990Y210931D01*
X248960Y211271D01*
X248910Y211571D01*
X248840Y211831D01*
X248750Y212051D01*
X248640Y212231D01*
X248510Y212371D01*
X248360Y212471D01*
X248190Y212531D01*
X248000Y212551D01*
X252000D01*
X251810Y212531D01*
D02*
G37*
G36*
X177113Y213476D02*
X177298Y213362D01*
X177516Y213262D01*
X177767Y213176D01*
X178051Y213104D01*
X178369Y213046D01*
X178719Y213001D01*
X179520Y212955D01*
X179971Y212953D01*
X177047Y210030D01*
X177045Y210480D01*
X176999Y211281D01*
X176954Y211631D01*
X176896Y211949D01*
X176824Y212233D01*
X176738Y212484D01*
X176638Y212702D01*
X176524Y212887D01*
X176396Y213039D01*
X176961Y213604D01*
X177113Y213476D01*
D02*
G37*
G36*
X186020Y212620D02*
X186080Y212280D01*
X186180Y211980D01*
X186320Y211720D01*
X186500Y211500D01*
X186720Y211320D01*
X186980Y211180D01*
X187150Y211123D01*
X187346Y211188D01*
X187541Y211270D01*
X187725Y211368D01*
X187899Y211480D01*
X188062Y211608D01*
X188215Y211750D01*
Y208250D01*
X188062Y208393D01*
X187899Y208520D01*
X187725Y208632D01*
X187541Y208730D01*
X187346Y208812D01*
X187150Y208877D01*
X186980Y208820D01*
X186720Y208680D01*
X186500Y208500D01*
X186320Y208280D01*
X186180Y208020D01*
X186080Y207720D01*
X186020Y207380D01*
X186000Y207000D01*
X184000Y210000D01*
X186000Y213000D01*
X186020Y212620D01*
D02*
G37*
G36*
X262403Y207717D02*
X262412Y207622D01*
X262427Y207531D01*
X262448Y207444D01*
X262475Y207362D01*
X262508Y207284D01*
X262547Y207210D01*
X262592Y207140D01*
X262643Y207075D01*
X262700Y207014D01*
X261300D01*
X261357Y207075D01*
X261408Y207140D01*
X261453Y207210D01*
X261492Y207284D01*
X261525Y207362D01*
X261552Y207444D01*
X261573Y207531D01*
X261588Y207622D01*
X261597Y207717D01*
X261600Y207817D01*
X262400D01*
X262403Y207717D01*
D02*
G37*
G36*
X262643Y205525D02*
X262592Y205460D01*
X262547Y205390D01*
X262508Y205316D01*
X262475Y205238D01*
X262448Y205156D01*
X262427Y205069D01*
X262412Y204978D01*
X262403Y204883D01*
X262400Y204784D01*
X261600D01*
X261597Y204883D01*
X261588Y204978D01*
X261573Y205069D01*
X261552Y205156D01*
X261525Y205238D01*
X261492Y205316D01*
X261453Y205390D01*
X261408Y205460D01*
X261357Y205525D01*
X261300Y205586D01*
X262700D01*
X262643Y205525D01*
D02*
G37*
G36*
X311011Y204274D02*
X311043Y204006D01*
X311096Y203744D01*
X311171Y203489D01*
X311267Y203242D01*
X311384Y203001D01*
X311523Y202768D01*
X311683Y202541D01*
X311864Y202321D01*
X312067Y202109D01*
X307933D01*
X308136Y202321D01*
X308317Y202541D01*
X308477Y202768D01*
X308616Y203001D01*
X308733Y203242D01*
X308829Y203489D01*
X308904Y203744D01*
X308957Y204006D01*
X308989Y204274D01*
X309000Y204550D01*
X311000D01*
X311011Y204274D01*
D02*
G37*
G36*
X251011D02*
X251043Y204006D01*
X251096Y203744D01*
X251171Y203489D01*
X251267Y203242D01*
X251384Y203001D01*
X251523Y202768D01*
X251683Y202541D01*
X251864Y202321D01*
X252067Y202109D01*
X247933D01*
X248136Y202321D01*
X248317Y202541D01*
X248477Y202768D01*
X248616Y203001D01*
X248733Y203242D01*
X248829Y203489D01*
X248904Y203744D01*
X248957Y204006D01*
X248989Y204274D01*
X249000Y204550D01*
X251000D01*
X251011Y204274D01*
D02*
G37*
G36*
X185000Y200000D02*
X184000Y197000D01*
X183980Y197380D01*
X183920Y197720D01*
X183820Y198020D01*
X183680Y198280D01*
X183500Y198500D01*
X183280Y198680D01*
X183210Y198718D01*
X183001Y198616D01*
X182768Y198477D01*
X182541Y198317D01*
X182321Y198136D01*
X182109Y197933D01*
Y198994D01*
X182000Y199000D01*
Y201000D01*
X182109Y201006D01*
Y202067D01*
X182321Y201864D01*
X182541Y201683D01*
X182768Y201523D01*
X183001Y201384D01*
X183210Y201282D01*
X183280Y201320D01*
X183500Y201500D01*
X183680Y201720D01*
X183820Y201980D01*
X183920Y202280D01*
X183980Y202620D01*
X184000Y203000D01*
X185000Y200000D01*
D02*
G37*
G36*
X388191Y197059D02*
X388128Y197105D01*
X388055Y197127D01*
X387970D01*
X387874Y197105D01*
X387766Y197059D01*
X387648Y196991D01*
X387517Y196901D01*
X387376Y196788D01*
X387059Y196494D01*
X386494Y197059D01*
X386652Y197223D01*
X386901Y197518D01*
X386991Y197648D01*
X387059Y197766D01*
X387105Y197874D01*
X387127Y197970D01*
Y198055D01*
X387105Y198128D01*
X387059Y198191D01*
X388191Y197059D01*
D02*
G37*
G36*
X264903Y195570D02*
X264912Y195475D01*
X264927Y195384D01*
X264948Y195297D01*
X264975Y195215D01*
X265008Y195136D01*
X265047Y195063D01*
X265092Y194993D01*
X265143Y194928D01*
X265200Y194867D01*
X263800D01*
X263857Y194928D01*
X263908Y194993D01*
X263953Y195063D01*
X263992Y195136D01*
X264025Y195215D01*
X264052Y195297D01*
X264073Y195384D01*
X264088Y195475D01*
X264097Y195570D01*
X264100Y195669D01*
X264900D01*
X264903Y195570D01*
D02*
G37*
G36*
X265143Y193378D02*
X265092Y193313D01*
X265047Y193243D01*
X265008Y193169D01*
X264975Y193091D01*
X264948Y193009D01*
X264927Y192922D01*
X264912Y192831D01*
X264903Y192736D01*
X264900Y192636D01*
X264100D01*
X264097Y192736D01*
X264088Y192831D01*
X264073Y192922D01*
X264052Y193009D01*
X264025Y193091D01*
X263992Y193169D01*
X263953Y193243D01*
X263908Y193313D01*
X263857Y193378D01*
X263800Y193439D01*
X265200D01*
X265143Y193378D01*
D02*
G37*
G36*
X393604Y193039D02*
X393476Y192887D01*
X393362Y192702D01*
X393262Y192484D01*
X393176Y192233D01*
X393104Y191949D01*
X393046Y191631D01*
X393002Y191281D01*
X392955Y190480D01*
X392953Y190030D01*
X390030Y192953D01*
X390480Y192955D01*
X391281Y193001D01*
X391631Y193046D01*
X391949Y193104D01*
X392233Y193176D01*
X392484Y193262D01*
X392702Y193362D01*
X392887Y193476D01*
X393039Y193604D01*
X393604Y193039D01*
D02*
G37*
G36*
X317403Y181417D02*
X317412Y181322D01*
X317427Y181231D01*
X317448Y181144D01*
X317475Y181062D01*
X317508Y180984D01*
X317547Y180910D01*
X317592Y180840D01*
X317643Y180775D01*
X317700Y180714D01*
X316300D01*
X316357Y180775D01*
X316408Y180840D01*
X316453Y180910D01*
X316492Y180984D01*
X316525Y181062D01*
X316552Y181144D01*
X316573Y181231D01*
X316588Y181322D01*
X316597Y181417D01*
X316600Y181517D01*
X317400D01*
X317403Y181417D01*
D02*
G37*
G36*
X257403D02*
X257412Y181322D01*
X257427Y181231D01*
X257448Y181144D01*
X257475Y181062D01*
X257508Y180984D01*
X257547Y180910D01*
X257592Y180840D01*
X257643Y180775D01*
X257700Y180714D01*
X256300D01*
X256357Y180775D01*
X256408Y180840D01*
X256453Y180910D01*
X256492Y180984D01*
X256525Y181062D01*
X256552Y181144D01*
X256573Y181231D01*
X256588Y181322D01*
X256597Y181417D01*
X256600Y181517D01*
X257400D01*
X257403Y181417D01*
D02*
G37*
G36*
X158403Y181417D02*
X158412Y181322D01*
X158427Y181231D01*
X158448Y181144D01*
X158475Y181062D01*
X158508Y180984D01*
X158547Y180910D01*
X158592Y180840D01*
X158643Y180775D01*
X158700Y180714D01*
X157300Y180714D01*
X157357Y180775D01*
X157408Y180840D01*
X157453Y180910D01*
X157492Y180984D01*
X157525Y181062D01*
X157552Y181144D01*
X157573Y181231D01*
X157588Y181322D01*
X157597Y181417D01*
X157600Y181517D01*
X158400Y181517D01*
X158403Y181417D01*
D02*
G37*
G36*
X319903Y171417D02*
X319912Y171322D01*
X319927Y171231D01*
X319948Y171144D01*
X319975Y171062D01*
X320008Y170984D01*
X320047Y170910D01*
X320092Y170840D01*
X320143Y170775D01*
X320200Y170714D01*
X318800D01*
X318857Y170775D01*
X318908Y170840D01*
X318953Y170910D01*
X318992Y170984D01*
X319025Y171062D01*
X319052Y171144D01*
X319073Y171231D01*
X319088Y171322D01*
X319097Y171417D01*
X319100Y171517D01*
X319900D01*
X319903Y171417D01*
D02*
G37*
G36*
X259903D02*
X259912Y171322D01*
X259927Y171231D01*
X259948Y171144D01*
X259975Y171062D01*
X260008Y170984D01*
X260047Y170910D01*
X260092Y170840D01*
X260143Y170775D01*
X260200Y170714D01*
X258800D01*
X258857Y170775D01*
X258908Y170840D01*
X258953Y170910D01*
X258992Y170984D01*
X259025Y171062D01*
X259052Y171144D01*
X259073Y171231D01*
X259088Y171322D01*
X259097Y171417D01*
X259100Y171517D01*
X259900D01*
X259903Y171417D01*
D02*
G37*
G36*
X160903Y171417D02*
X160912Y171322D01*
X160927Y171231D01*
X160948Y171144D01*
X160975Y171062D01*
X161008Y170984D01*
X161047Y170910D01*
X161092Y170840D01*
X161143Y170775D01*
X161200Y170714D01*
X159800Y170714D01*
X159857Y170775D01*
X159908Y170840D01*
X159953Y170910D01*
X159992Y170984D01*
X160025Y171062D01*
X160052Y171144D01*
X160073Y171231D01*
X160088Y171322D01*
X160097Y171417D01*
X160100Y171517D01*
X160900Y171517D01*
X160903Y171417D01*
D02*
G37*
G36*
X174386Y301477D02*
X174404Y301405D01*
X174434Y301242D01*
X174459Y301047D01*
X174496Y300399D01*
X174498Y300016D01*
X174547Y299778D01*
Y299282D01*
X174919Y297895D01*
X175637Y296652D01*
X176370Y295000D01*
X175637Y293348D01*
X174919Y292105D01*
X174547Y290718D01*
Y289282D01*
X174919Y287895D01*
X175637Y286652D01*
X176652Y285637D01*
X176755Y285577D01*
X177033Y284756D01*
X177101Y282763D01*
X177059Y282649D01*
X176837Y282427D01*
X176317Y281526D01*
X176047Y280520D01*
Y280500D01*
X180000D01*
Y279500D01*
X176047D01*
Y279480D01*
X176317Y278474D01*
X176837Y277573D01*
X177573Y276837D01*
X178474Y276317D01*
X178558Y276294D01*
Y273706D01*
X178474Y273683D01*
X177573Y273163D01*
X176837Y272427D01*
X176317Y271526D01*
X176047Y270520D01*
Y270500D01*
X180000D01*
Y269500D01*
X176047D01*
Y269480D01*
X176317Y268474D01*
X176837Y267573D01*
X177059Y267351D01*
X177101Y267237D01*
X177033Y265244D01*
X176755Y264423D01*
X176652Y264363D01*
X175637Y263348D01*
X174919Y262105D01*
X174547Y260718D01*
Y259282D01*
X174919Y257895D01*
X175637Y256652D01*
X176370Y255000D01*
X175637Y253348D01*
X174919Y252105D01*
X174547Y250718D01*
Y249282D01*
X174919Y247895D01*
X174547Y245453D01*
X174547Y245453D01*
Y235452D01*
X174547Y234547D01*
X173169Y232618D01*
X172699Y232149D01*
X172239Y231351D01*
X172000Y230461D01*
Y229539D01*
X172239Y228649D01*
X172575Y228066D01*
Y214500D01*
X172675Y213743D01*
X172967Y213037D01*
X173432Y212432D01*
X174386Y211477D01*
X174404Y211405D01*
X174434Y211242D01*
X174459Y211047D01*
X174496Y210399D01*
X174498Y210016D01*
X174547Y209777D01*
Y209282D01*
X174919Y207895D01*
X175637Y206652D01*
X176370Y205000D01*
X175637Y203348D01*
X174919Y202105D01*
X174547Y200718D01*
Y199282D01*
X174919Y197895D01*
X175637Y196652D01*
X176652Y195637D01*
X176755Y195577D01*
X177033Y194756D01*
X177101Y192763D01*
X177059Y192649D01*
X176837Y192427D01*
X176317Y191526D01*
X176047Y190520D01*
Y190500D01*
X180000D01*
Y189500D01*
X176047D01*
Y189480D01*
X176317Y188474D01*
X176837Y187573D01*
X177059Y187351D01*
X177101Y187237D01*
X177033Y185244D01*
X176755Y184423D01*
X176652Y184363D01*
X175637Y183348D01*
X174919Y182105D01*
X174547Y180718D01*
Y179282D01*
X174919Y177895D01*
X175637Y176652D01*
X176370Y175000D01*
X175637Y173348D01*
X174919Y172105D01*
X174547Y170718D01*
Y169282D01*
X174919Y167895D01*
X175637Y166652D01*
X176370Y165000D01*
X175637Y163348D01*
X175156Y162516D01*
X173623Y161990D01*
X172267Y161869D01*
X168425Y165712D01*
Y238173D01*
X168762Y238756D01*
X169000Y239646D01*
Y240568D01*
X168762Y241458D01*
X168425Y242041D01*
X168425Y304046D01*
X170345Y304891D01*
X170925Y304938D01*
X174386Y301477D01*
D02*
G37*
G36*
X322403Y161417D02*
X322412Y161322D01*
X322427Y161231D01*
X322448Y161144D01*
X322475Y161062D01*
X322508Y160984D01*
X322547Y160910D01*
X322592Y160840D01*
X322643Y160775D01*
X322700Y160714D01*
X321300D01*
X321357Y160775D01*
X321408Y160840D01*
X321453Y160910D01*
X321492Y160984D01*
X321525Y161062D01*
X321552Y161144D01*
X321573Y161231D01*
X321588Y161322D01*
X321597Y161417D01*
X321600Y161516D01*
X322400D01*
X322403Y161417D01*
D02*
G37*
G36*
X262403Y161417D02*
X262412Y161322D01*
X262427Y161231D01*
X262448Y161144D01*
X262475Y161062D01*
X262508Y160984D01*
X262547Y160910D01*
X262592Y160840D01*
X262643Y160775D01*
X262700Y160714D01*
X261300D01*
X261357Y160775D01*
X261408Y160840D01*
X261453Y160910D01*
X261492Y160984D01*
X261525Y161062D01*
X261552Y161144D01*
X261573Y161231D01*
X261588Y161322D01*
X261597Y161417D01*
X261600Y161516D01*
X262400D01*
X262403Y161417D01*
D02*
G37*
G36*
X163403Y161417D02*
X163412Y161322D01*
X163427Y161231D01*
X163448Y161144D01*
X163475Y161062D01*
X163508Y160984D01*
X163547Y160910D01*
X163592Y160840D01*
X163643Y160775D01*
X163700Y160714D01*
X162300Y160714D01*
X162357Y160775D01*
X162408Y160840D01*
X162453Y160910D01*
X162492Y160984D01*
X162525Y161062D01*
X162552Y161144D01*
X162573Y161231D01*
X162588Y161322D01*
X162597Y161417D01*
X162600Y161516D01*
X163400Y161516D01*
X163403Y161417D01*
D02*
G37*
G36*
X177224Y153347D02*
X177520Y153095D01*
X177650Y153004D01*
X177769Y152935D01*
X177877Y152888D01*
X177972Y152865D01*
X178057Y152863D01*
X178129Y152885D01*
X178191Y152929D01*
X177071Y151809D01*
X177115Y151871D01*
X177137Y151943D01*
X177136Y152027D01*
X177112Y152123D01*
X177065Y152231D01*
X176996Y152350D01*
X176904Y152480D01*
X176790Y152622D01*
X176494Y152941D01*
X177059Y153506D01*
X177224Y153347D01*
D02*
G37*
G36*
X264903Y151417D02*
X264912Y151322D01*
X264927Y151231D01*
X264948Y151144D01*
X264975Y151062D01*
X265008Y150984D01*
X265047Y150910D01*
X265092Y150840D01*
X265143Y150775D01*
X265200Y150714D01*
X263800D01*
X263857Y150775D01*
X263908Y150840D01*
X263953Y150910D01*
X263992Y150984D01*
X264025Y151062D01*
X264052Y151144D01*
X264073Y151231D01*
X264088Y151322D01*
X264097Y151417D01*
X264100Y151516D01*
X264900D01*
X264903Y151417D01*
D02*
G37*
G36*
X375425Y151343D02*
X375500Y151066D01*
X375624Y150764D01*
X375799Y150437D01*
X376023Y150085D01*
X376298Y149708D01*
X376996Y148880D01*
X377420Y148429D01*
X377894Y147952D01*
X372106D01*
X372580Y148429D01*
X373702Y149708D01*
X373977Y150085D01*
X374201Y150437D01*
X374376Y150764D01*
X374500Y151066D01*
X374575Y151343D01*
X374600Y151595D01*
X375400D01*
X375425Y151343D01*
D02*
G37*
G36*
X312429Y151750D02*
X313028Y151217D01*
X313307Y151000D01*
X313573Y150817D01*
X313825Y150667D01*
X314063Y150550D01*
X314288Y150467D01*
X314499Y150417D01*
X314697Y150400D01*
Y149600D01*
X314499Y149583D01*
X314288Y149533D01*
X314063Y149450D01*
X313825Y149333D01*
X313573Y149183D01*
X313307Y149000D01*
X313028Y148783D01*
X312429Y148250D01*
X312109Y147933D01*
Y152067D01*
X312429Y151750D01*
D02*
G37*
G36*
X151864Y147679D02*
X151683Y147459D01*
X151523Y147232D01*
X151384Y146999D01*
X151267Y146758D01*
X151171Y146511D01*
X151096Y146256D01*
X151043Y145994D01*
X151011Y145726D01*
X151000Y145450D01*
X149000D01*
X148989Y145726D01*
X148957Y145994D01*
X148904Y146256D01*
X148829Y146511D01*
X148733Y146758D01*
X148616Y146999D01*
X148477Y147232D01*
X148317Y147459D01*
X148136Y147679D01*
X147933Y147891D01*
X152067D01*
X151864Y147679D01*
D02*
G37*
G36*
X190643Y144225D02*
X190592Y144160D01*
X190547Y144090D01*
X190508Y144016D01*
X190475Y143938D01*
X190448Y143856D01*
X190427Y143769D01*
X190412Y143678D01*
X190403Y143583D01*
X190400Y143483D01*
X189600D01*
X189597Y143583D01*
X189588Y143678D01*
X189573Y143769D01*
X189552Y143856D01*
X189525Y143938D01*
X189492Y144016D01*
X189453Y144090D01*
X189408Y144160D01*
X189357Y144225D01*
X189300Y144286D01*
X190700D01*
X190643Y144225D01*
D02*
G37*
G36*
X253604Y143039D02*
X253476Y142887D01*
X253362Y142702D01*
X253262Y142484D01*
X253176Y142233D01*
X253104Y141949D01*
X253046Y141631D01*
X253001Y141281D01*
X252955Y140480D01*
X252953Y140030D01*
X250029Y142953D01*
X250480Y142955D01*
X251281Y143001D01*
X251631Y143046D01*
X251949Y143104D01*
X252233Y143176D01*
X252484Y143262D01*
X252702Y143362D01*
X252887Y143476D01*
X253039Y143604D01*
X253604Y143039D01*
D02*
G37*
G36*
X377420Y141571D02*
X376298Y140292D01*
X376023Y139915D01*
X375799Y139563D01*
X375624Y139236D01*
X375500Y138934D01*
X375425Y138657D01*
X375400Y138405D01*
X374600D01*
X374575Y138657D01*
X374500Y138934D01*
X374376Y139236D01*
X374201Y139563D01*
X373977Y139915D01*
X373702Y140292D01*
X373004Y141120D01*
X372580Y141571D01*
X372106Y142048D01*
X377894D01*
X377420Y141571D01*
D02*
G37*
G36*
X151010Y139066D02*
X151040Y138724D01*
X151090Y138423D01*
X151160Y138161D01*
X151250Y137940D01*
X151360Y137759D01*
X151490Y137618D01*
X151640Y137517D01*
X151810Y137457D01*
X152000Y137437D01*
X148000D01*
X148190Y137457D01*
X148360Y137517D01*
X148510Y137618D01*
X148640Y137759D01*
X148750Y137940D01*
X148840Y138161D01*
X148910Y138423D01*
X148960Y138724D01*
X148990Y139066D01*
X149000Y139449D01*
X151000D01*
X151010Y139066D01*
D02*
G37*
G36*
X311750Y137571D02*
X311217Y136972D01*
X311000Y136693D01*
X310817Y136427D01*
X310667Y136175D01*
X310550Y135937D01*
X310467Y135712D01*
X310417Y135501D01*
X310400Y135303D01*
X309600D01*
X309583Y135501D01*
X309533Y135712D01*
X309450Y135937D01*
X309333Y136175D01*
X309183Y136427D01*
X309000Y136693D01*
X308783Y136972D01*
X308250Y137571D01*
X307933Y137891D01*
X312067D01*
X311750Y137571D01*
D02*
G37*
G36*
X251750D02*
X251217Y136972D01*
X251000Y136693D01*
X250817Y136427D01*
X250667Y136175D01*
X250550Y135937D01*
X250467Y135712D01*
X250417Y135501D01*
X250400Y135303D01*
X249600D01*
X249583Y135501D01*
X249533Y135712D01*
X249450Y135937D01*
X249333Y136175D01*
X249183Y136427D01*
X249000Y136693D01*
X248783Y136972D01*
X248250Y137571D01*
X247933Y137891D01*
X252067D01*
X251750Y137571D01*
D02*
G37*
G36*
X310417Y134500D02*
X310467Y134288D01*
X310550Y134063D01*
X310667Y133825D01*
X310817Y133573D01*
X311000Y133307D01*
X311217Y133028D01*
X311750Y132429D01*
X312067Y132109D01*
X307933D01*
X308250Y132429D01*
X308783Y133028D01*
X309000Y133307D01*
X309183Y133573D01*
X309333Y133825D01*
X309450Y134063D01*
X309533Y134288D01*
X309583Y134500D01*
X309600Y134697D01*
X310400D01*
X310417Y134500D01*
D02*
G37*
G36*
X250417D02*
X250467Y134288D01*
X250550Y134063D01*
X250667Y133825D01*
X250817Y133573D01*
X251000Y133307D01*
X251217Y133028D01*
X251750Y132429D01*
X252067Y132109D01*
X247933D01*
X248250Y132429D01*
X248783Y133028D01*
X249000Y133307D01*
X249183Y133573D01*
X249333Y133825D01*
X249450Y134063D01*
X249533Y134288D01*
X249583Y134500D01*
X249600Y134697D01*
X250400D01*
X250417Y134500D01*
D02*
G37*
G36*
X151810Y132531D02*
X151640Y132471D01*
X151490Y132371D01*
X151360Y132231D01*
X151250Y132051D01*
X151160Y131831D01*
X151090Y131571D01*
X151040Y131271D01*
X151010Y130931D01*
X151000Y130551D01*
X149000D01*
X148990Y130931D01*
X148960Y131271D01*
X148910Y131571D01*
X148840Y131831D01*
X148750Y132051D01*
X148640Y132231D01*
X148510Y132371D01*
X148360Y132471D01*
X148190Y132531D01*
X148000Y132551D01*
X152000D01*
X151810Y132531D01*
D02*
G37*
G36*
X127891Y127933D02*
X127679Y128136D01*
X127459Y128317D01*
X127232Y128477D01*
X126999Y128616D01*
X126758Y128733D01*
X126511Y128829D01*
X126256Y128904D01*
X125994Y128957D01*
X125726Y128989D01*
X125450Y129000D01*
Y131000D01*
X125726Y131011D01*
X125994Y131043D01*
X126256Y131096D01*
X126511Y131171D01*
X126758Y131267D01*
X126999Y131384D01*
X127232Y131523D01*
X127459Y131683D01*
X127679Y131864D01*
X127891Y132067D01*
Y127933D01*
D02*
G37*
G36*
X122321Y131864D02*
X122541Y131683D01*
X122768Y131523D01*
X123001Y131384D01*
X123242Y131267D01*
X123489Y131171D01*
X123744Y131096D01*
X124006Y131043D01*
X124274Y131011D01*
X124550Y131000D01*
Y129000D01*
X124274Y128989D01*
X124006Y128957D01*
X123744Y128904D01*
X123489Y128829D01*
X123242Y128733D01*
X123001Y128616D01*
X122768Y128477D01*
X122541Y128317D01*
X122321Y128136D01*
X122109Y127933D01*
Y132067D01*
X122321Y131864D01*
D02*
G37*
G36*
X117891Y127933D02*
X117679Y128136D01*
X117459Y128317D01*
X117232Y128477D01*
X116999Y128616D01*
X116758Y128733D01*
X116510Y128829D01*
X116256Y128904D01*
X115994Y128957D01*
X115726Y128989D01*
X115450Y129000D01*
Y131000D01*
X115726Y131011D01*
X115994Y131043D01*
X116256Y131096D01*
X116510Y131171D01*
X116758Y131267D01*
X116999Y131384D01*
X117232Y131523D01*
X117459Y131683D01*
X117679Y131864D01*
X117891Y132067D01*
Y127933D01*
D02*
G37*
G36*
X112321Y131864D02*
X112541Y131683D01*
X112768Y131523D01*
X113001Y131384D01*
X113242Y131267D01*
X113489Y131171D01*
X113744Y131096D01*
X114006Y131043D01*
X114274Y131011D01*
X114550Y131000D01*
Y129000D01*
X114274Y128989D01*
X114006Y128957D01*
X113744Y128904D01*
X113489Y128829D01*
X113242Y128733D01*
X113001Y128616D01*
X112768Y128477D01*
X112541Y128317D01*
X112321Y128136D01*
X112109Y127933D01*
Y132067D01*
X112321Y131864D01*
D02*
G37*
G36*
X183863Y123512D02*
X183466Y123100D01*
X182841Y122364D01*
X182614Y122038D01*
X182443Y121741D01*
X182328Y121472D01*
X182271Y121232D01*
X182269Y121021D01*
X182325Y120838D01*
X182437Y120683D01*
X179620Y123500D01*
X179775Y123388D01*
X179958Y123332D01*
X180169Y123334D01*
X180409Y123391D01*
X180678Y123506D01*
X180975Y123677D01*
X181301Y123904D01*
X181655Y124188D01*
X182449Y124926D01*
X183863Y123512D01*
D02*
G37*
G36*
X151007Y124606D02*
X151030Y124367D01*
X151067Y124140D01*
X151120Y123923D01*
X151188Y123717D01*
X151270Y123522D01*
X151367Y123338D01*
X151480Y123164D01*
X151608Y123001D01*
X151750Y122848D01*
X148250D01*
X148392Y123001D01*
X148520Y123164D01*
X148633Y123338D01*
X148730Y123522D01*
X148812Y123717D01*
X148880Y123923D01*
X148933Y124140D01*
X148970Y124367D01*
X148993Y124606D01*
X149000Y124854D01*
X151000D01*
X151007Y124606D01*
D02*
G37*
%LPC*%
G36*
X595783Y352950D02*
X594217D01*
X592681Y352644D01*
X591234Y352045D01*
X589932Y351175D01*
X588825Y350068D01*
X587955Y348766D01*
X587356Y347319D01*
X587050Y345783D01*
Y344217D01*
X587356Y342681D01*
X587955Y341234D01*
X588825Y339932D01*
X589932Y338825D01*
X591234Y337955D01*
X592681Y337355D01*
X594217Y337050D01*
X595783D01*
X597319Y337355D01*
X598766Y337955D01*
X600068Y338825D01*
X601175Y339932D01*
X602045Y341234D01*
X602644Y342681D01*
X602950Y344217D01*
Y345783D01*
X602644Y347319D01*
X602045Y348766D01*
X601175Y350068D01*
X600068Y351175D01*
X598766Y352045D01*
X597319Y352644D01*
X595783Y352950D01*
D02*
G37*
G36*
X330653Y346634D02*
X329347D01*
X328065Y346379D01*
X326858Y345879D01*
X325771Y345153D01*
X324847Y344229D01*
X324121Y343142D01*
X323621Y341935D01*
X323366Y340653D01*
Y339347D01*
X323621Y338065D01*
X324121Y336858D01*
X324847Y335771D01*
X325771Y334847D01*
X326858Y334121D01*
X328065Y333621D01*
X329347Y333366D01*
X330653D01*
X331935Y333621D01*
X333142Y334121D01*
X334229Y334847D01*
X335153Y335771D01*
X335879Y336858D01*
X336379Y338065D01*
X336634Y339347D01*
Y340653D01*
X336379Y341935D01*
X335879Y343142D01*
X335153Y344229D01*
X334229Y345153D01*
X333142Y345879D01*
X331935Y346379D01*
X330653Y346634D01*
D02*
G37*
G36*
X270653Y341634D02*
X269347D01*
X268065Y341379D01*
X266858Y340879D01*
X265771Y340153D01*
X264847Y339229D01*
X264121Y338142D01*
X263621Y336935D01*
X263366Y335653D01*
Y334347D01*
X263621Y333065D01*
X264121Y331858D01*
X264847Y330771D01*
X265771Y329847D01*
X266858Y329121D01*
X268065Y328621D01*
X269347Y328366D01*
X270653D01*
X271935Y328621D01*
X273142Y329121D01*
X274229Y329847D01*
X275153Y330771D01*
X275879Y331858D01*
X276379Y333065D01*
X276634Y334347D01*
Y335653D01*
X276379Y336935D01*
X275879Y338142D01*
X275153Y339229D01*
X274229Y340153D01*
X273142Y340879D01*
X271935Y341379D01*
X270653Y341634D01*
D02*
G37*
G36*
X495461Y332161D02*
X494539D01*
X493649Y331922D01*
X492851Y331461D01*
X492199Y330810D01*
X491739Y330012D01*
X491500Y329121D01*
Y328200D01*
X491739Y327310D01*
X492075Y326727D01*
Y319961D01*
X485039D01*
Y318415D01*
X484132Y317861D01*
X482539Y317512D01*
X482282Y317769D01*
X481493Y318225D01*
X480657Y318449D01*
Y315000D01*
Y311551D01*
X481493Y311775D01*
X482282Y312231D01*
X482539Y312488D01*
X484132Y312139D01*
X485039Y311585D01*
Y310039D01*
X486470D01*
Y304719D01*
X486453Y304648D01*
X486446Y304475D01*
X486439Y304412D01*
X486428Y304359D01*
X486414Y304311D01*
X486395Y304263D01*
X486371Y304213D01*
X486337Y304155D01*
X486291Y304090D01*
X486228Y304014D01*
X486088Y303868D01*
X485970Y303681D01*
X485637Y303348D01*
X484919Y302105D01*
X484547Y300718D01*
Y299282D01*
X484919Y297895D01*
X485637Y296652D01*
X486370Y295000D01*
X485637Y293348D01*
X484919Y292105D01*
X484547Y290718D01*
Y289282D01*
X484919Y287895D01*
X485637Y286652D01*
X486370Y285000D01*
X485637Y283348D01*
X484919Y282105D01*
X484547Y280718D01*
Y279282D01*
X484919Y277895D01*
X485637Y276652D01*
X486370Y275000D01*
X485637Y273348D01*
X484919Y272105D01*
X484547Y270718D01*
Y270222D01*
X484498Y269984D01*
X484496Y269601D01*
X484459Y268953D01*
X484434Y268758D01*
X484404Y268595D01*
X484386Y268523D01*
X478932Y263068D01*
X478467Y262462D01*
X478175Y261757D01*
X478075Y261000D01*
Y236934D01*
X477739Y236351D01*
X477500Y235461D01*
Y234539D01*
X477739Y233649D01*
X478199Y232851D01*
X478851Y232199D01*
X479649Y231738D01*
X480539Y231500D01*
X481461D01*
X482351Y231738D01*
X483016Y231429D01*
X484547Y230227D01*
Y229282D01*
X484919Y227895D01*
X485637Y226652D01*
X486652Y225637D01*
X487895Y224919D01*
X489282Y224547D01*
X490718D01*
X492105Y224919D01*
X493348Y225637D01*
X494363Y226652D01*
X495081Y227895D01*
X495453Y229282D01*
Y230718D01*
X495081Y232105D01*
X494363Y233348D01*
X494013Y233698D01*
X493879Y233902D01*
X493609Y234174D01*
X493178Y234659D01*
X493057Y234814D01*
X492963Y234950D01*
X492934Y235000D01*
X492963Y235050D01*
X493057Y235186D01*
X493178Y235342D01*
X493609Y235826D01*
X493879Y236098D01*
X494013Y236302D01*
X494363Y236652D01*
X495081Y237895D01*
X495453Y239282D01*
Y239777D01*
X495502Y240016D01*
X495504Y240399D01*
X495541Y241047D01*
X495566Y241242D01*
X495596Y241405D01*
X495614Y241477D01*
X497068Y242932D01*
X497533Y243537D01*
X497825Y244243D01*
X497925Y245000D01*
Y326727D01*
X498261Y327310D01*
X498500Y328200D01*
Y329121D01*
X498261Y330012D01*
X497801Y330810D01*
X497149Y331461D01*
X496351Y331922D01*
X495461Y332161D01*
D02*
G37*
G36*
X424961Y319961D02*
X415039D01*
Y318415D01*
X414132Y317861D01*
X412539Y317512D01*
X412282Y317769D01*
X411493Y318225D01*
X410658Y318449D01*
Y315000D01*
Y313243D01*
X411880D01*
X411743Y313096D01*
X411620Y312937D01*
X411512Y312768D01*
X411418Y312588D01*
X411338Y312397D01*
X411273Y312195D01*
X411223Y311981D01*
X411186Y311757D01*
X411180Y311691D01*
X411493Y311775D01*
X412282Y312231D01*
X412539Y312488D01*
X414132Y312139D01*
X415039Y311585D01*
Y310039D01*
X416470D01*
Y304719D01*
X416453Y304648D01*
X416446Y304475D01*
X416439Y304412D01*
X416428Y304359D01*
X416414Y304311D01*
X416395Y304263D01*
X416371Y304213D01*
X416337Y304155D01*
X416291Y304090D01*
X416228Y304014D01*
X416088Y303868D01*
X415970Y303681D01*
X415637Y303348D01*
X414919Y302105D01*
X414547Y300718D01*
Y299282D01*
X414919Y297895D01*
X415637Y296652D01*
X416652Y295637D01*
X416755Y295577D01*
X417033Y294756D01*
X417076Y293510D01*
X417490Y293924D01*
X417692Y293737D01*
X417905Y293570D01*
X418127Y293423D01*
X418360Y293295D01*
X418603Y293188D01*
X418856Y293101D01*
X419120Y293034D01*
X419393Y292987D01*
X419677Y292960D01*
X419971Y292953D01*
X417518Y290500D01*
X423953D01*
Y290520D01*
X423683Y291526D01*
X423163Y292427D01*
X422941Y292649D01*
X422899Y292763D01*
X422967Y294756D01*
X423245Y295577D01*
X423348Y295637D01*
X424363Y296652D01*
X425081Y297895D01*
X425453Y299282D01*
Y300718D01*
X425081Y302105D01*
X424363Y303348D01*
X424030Y303681D01*
X423912Y303868D01*
X423772Y304014D01*
X423709Y304090D01*
X423663Y304155D01*
X423629Y304213D01*
X423605Y304263D01*
X423586Y304310D01*
X423572Y304359D01*
X423561Y304412D01*
X423554Y304475D01*
X423547Y304648D01*
X423530Y304719D01*
Y310039D01*
X424961D01*
Y319961D01*
D02*
G37*
G36*
X374961D02*
X365039D01*
Y318415D01*
X364132Y317861D01*
X362539Y317512D01*
X362282Y317769D01*
X361493Y318225D01*
X360658Y318449D01*
Y315000D01*
Y311551D01*
X361493Y311775D01*
X362282Y312231D01*
X362539Y312488D01*
X364132Y312139D01*
X365039Y311585D01*
Y310039D01*
X366470D01*
Y304719D01*
X366453Y304648D01*
X366446Y304475D01*
X366439Y304412D01*
X366428Y304359D01*
X366414Y304311D01*
X366395Y304263D01*
X366371Y304213D01*
X366337Y304155D01*
X366290Y304090D01*
X366228Y304014D01*
X366088Y303868D01*
X365970Y303681D01*
X365637Y303348D01*
X364919Y302105D01*
X364547Y300718D01*
Y299282D01*
X364919Y297895D01*
X365637Y296652D01*
X366370Y295000D01*
X365637Y293348D01*
X364919Y292105D01*
X364547Y290718D01*
Y289282D01*
X364919Y287895D01*
X365637Y286652D01*
X366370Y285000D01*
X365637Y283348D01*
X364919Y282105D01*
X364547Y280718D01*
Y279282D01*
X364919Y277895D01*
X365637Y276652D01*
X366370Y275000D01*
X365637Y273348D01*
X364919Y272105D01*
X364547Y270718D01*
Y269282D01*
X364919Y267895D01*
X365637Y266652D01*
X366370Y265000D01*
X365637Y263348D01*
X364919Y262105D01*
X364547Y260718D01*
Y259282D01*
X364919Y257895D01*
X365637Y256652D01*
X366370Y255000D01*
X365637Y253348D01*
X364919Y252105D01*
X364547Y250718D01*
Y249282D01*
X364919Y247895D01*
X365637Y246652D01*
X366370Y245000D01*
X365637Y243348D01*
X364919Y242105D01*
X364547Y240718D01*
Y239282D01*
X364919Y237895D01*
X365637Y236652D01*
X366652Y235637D01*
X367895Y234919D01*
X369282Y234547D01*
X370718D01*
X372105Y234919D01*
X373348Y235637D01*
X374363Y236652D01*
X375081Y237895D01*
X375453Y239282D01*
Y240718D01*
X375081Y242105D01*
X374363Y243348D01*
X373630Y245000D01*
X374363Y246652D01*
X375081Y247895D01*
X375453Y249282D01*
Y250718D01*
X375081Y252105D01*
X374363Y253348D01*
X373630Y255000D01*
X374363Y256652D01*
X375081Y257895D01*
X375453Y259282D01*
Y260718D01*
X375081Y262105D01*
X374363Y263348D01*
X373630Y265000D01*
X374363Y266652D01*
X375081Y267895D01*
X375453Y269282D01*
Y270718D01*
X375081Y272105D01*
X374363Y273348D01*
X373630Y275000D01*
X374363Y276652D01*
X375081Y277895D01*
X375453Y279282D01*
Y280718D01*
X375081Y282105D01*
X374363Y283348D01*
X373630Y285000D01*
X374363Y286652D01*
X375081Y287895D01*
X375453Y289282D01*
Y290718D01*
X375081Y292105D01*
X374363Y293348D01*
X373630Y295000D01*
X374363Y296652D01*
X375081Y297895D01*
X375453Y299282D01*
Y300718D01*
X375081Y302105D01*
X374363Y303348D01*
X374030Y303681D01*
X373912Y303868D01*
X373772Y304014D01*
X373710Y304090D01*
X373663Y304155D01*
X373629Y304213D01*
X373605Y304263D01*
X373586Y304310D01*
X373572Y304359D01*
X373561Y304412D01*
X373554Y304475D01*
X373547Y304648D01*
X373530Y304719D01*
Y310039D01*
X374961D01*
Y319961D01*
D02*
G37*
G36*
X479658Y318449D02*
X478822Y318225D01*
X478033Y317769D01*
X477388Y317125D01*
X476933Y316336D01*
X476709Y315500D01*
X479658D01*
Y318449D01*
D02*
G37*
G36*
X299658D02*
X298822Y318225D01*
X298033Y317769D01*
X297388Y317125D01*
X296933Y316336D01*
X296709Y315500D01*
X299658D01*
Y318449D01*
D02*
G37*
G36*
X239657D02*
X238822Y318225D01*
X238033Y317769D01*
X237388Y317125D01*
X236933Y316336D01*
X236709Y315500D01*
X239657D01*
Y318449D01*
D02*
G37*
G36*
X359658D02*
X358822Y318225D01*
X358033Y317769D01*
X357388Y317125D01*
X356933Y316336D01*
X356709Y315500D01*
X359658D01*
Y318449D01*
D02*
G37*
G36*
X409657D02*
X408822Y318225D01*
X408033Y317769D01*
X407388Y317125D01*
X406933Y316336D01*
X406709Y315500D01*
X409657D01*
Y318449D01*
D02*
G37*
G36*
Y314500D02*
X406709D01*
X406933Y313664D01*
X407388Y312875D01*
X408033Y312231D01*
X408822Y311775D01*
X409135Y311691D01*
X409129Y311757D01*
X409093Y311981D01*
X409042Y312195D01*
X408977Y312397D01*
X408897Y312588D01*
X408804Y312768D01*
X408695Y312937D01*
X408572Y313096D01*
X408435Y313243D01*
X409657D01*
Y314500D01*
D02*
G37*
G36*
X479658D02*
X476709D01*
X476933Y313664D01*
X477388Y312875D01*
X478033Y312231D01*
X478822Y311775D01*
X479658Y311551D01*
Y314500D01*
D02*
G37*
G36*
X359658D02*
X356709D01*
X356933Y313664D01*
X357388Y312875D01*
X358033Y312231D01*
X358822Y311775D01*
X359658Y311551D01*
Y314500D01*
D02*
G37*
G36*
X299658D02*
X296709D01*
X296933Y313664D01*
X297388Y312875D01*
X298033Y312231D01*
X298822Y311775D01*
X299658Y311551D01*
Y314500D01*
D02*
G37*
G36*
X239657D02*
X236709D01*
X236933Y313664D01*
X237388Y312875D01*
X238033Y312231D01*
X238822Y311775D01*
X239657Y311551D01*
Y314500D01*
D02*
G37*
G36*
X463953Y303953D02*
X461084D01*
X461090Y303915D01*
X461160Y303653D01*
X461250Y303432D01*
X461360Y303251D01*
X461490Y303110D01*
X461640Y303009D01*
X461810Y302949D01*
X462000Y302929D01*
X460500D01*
Y300500D01*
X463953D01*
Y303953D01*
D02*
G37*
G36*
X283953D02*
X281084D01*
X281090Y303915D01*
X281160Y303653D01*
X281250Y303432D01*
X281360Y303251D01*
X281490Y303110D01*
X281640Y303009D01*
X281810Y302949D01*
X282000Y302929D01*
X280500D01*
Y300500D01*
X283953D01*
Y303953D01*
D02*
G37*
G36*
X278916D02*
X276047D01*
Y300500D01*
X279500D01*
Y302929D01*
X278000D01*
X278190Y302949D01*
X278360Y303009D01*
X278510Y303110D01*
X278640Y303251D01*
X278750Y303432D01*
X278840Y303653D01*
X278910Y303915D01*
X278916Y303953D01*
D02*
G37*
G36*
X218916D02*
X216047D01*
Y300500D01*
X219500D01*
Y302929D01*
X218000D01*
X218190Y302949D01*
X218360Y303009D01*
X218510Y303110D01*
X218640Y303251D01*
X218750Y303432D01*
X218840Y303653D01*
X218910Y303915D01*
X218916Y303953D01*
D02*
G37*
G36*
X345453Y305453D02*
X334547D01*
Y294547D01*
X334547D01*
X334919Y292105D01*
X334547Y290718D01*
Y289282D01*
X334919Y287895D01*
X335637Y286652D01*
X336369Y285000D01*
X335637Y283348D01*
X334919Y282105D01*
X334547Y280718D01*
Y279282D01*
X334919Y277895D01*
X335637Y276652D01*
X336369Y275000D01*
X335637Y273348D01*
X334919Y272105D01*
X334547Y270718D01*
Y269282D01*
X334919Y267895D01*
X335637Y266652D01*
X336369Y265000D01*
X335637Y263348D01*
X334919Y262105D01*
X334547Y260718D01*
Y259282D01*
X334919Y257895D01*
X335637Y256652D01*
X336369Y255000D01*
X335637Y253348D01*
X334919Y252105D01*
X334547Y250718D01*
Y249282D01*
X334919Y247895D01*
X335637Y246652D01*
X336652Y245637D01*
X336755Y245577D01*
X337033Y244756D01*
X337101Y242763D01*
X337059Y242649D01*
X336837Y242427D01*
X336317Y241526D01*
X336047Y240520D01*
Y240500D01*
X343953D01*
Y240520D01*
X343683Y241526D01*
X343163Y242427D01*
X342941Y242649D01*
X342899Y242763D01*
X342967Y244756D01*
X343245Y245577D01*
X343348Y245637D01*
X344363Y246652D01*
X345081Y247895D01*
X345453Y249282D01*
Y250718D01*
X345081Y252105D01*
X344363Y253348D01*
X343631Y255000D01*
X344363Y256652D01*
X345081Y257895D01*
X345453Y259282D01*
Y260718D01*
X345081Y262105D01*
X344363Y263348D01*
X343631Y265000D01*
X344363Y266652D01*
X345081Y267895D01*
X345453Y269282D01*
Y270718D01*
X345081Y272105D01*
X344363Y273348D01*
X343631Y275000D01*
X344363Y276652D01*
X345081Y277895D01*
X345453Y279282D01*
Y280718D01*
X345081Y282105D01*
X344363Y283348D01*
X343631Y285000D01*
X344363Y286652D01*
X345081Y287895D01*
X345453Y289282D01*
Y290718D01*
X345081Y292105D01*
X345453Y294547D01*
X345453Y294547D01*
Y305453D01*
D02*
G37*
G36*
X416545Y291921D02*
X416317Y291526D01*
X416047Y290520D01*
Y290500D01*
X417024D01*
X417013Y290607D01*
X416966Y290880D01*
X416899Y291143D01*
X416812Y291397D01*
X416705Y291640D01*
X416577Y291873D01*
X416545Y291921D01*
D02*
G37*
G36*
X283953Y299500D02*
X276047D01*
Y296047D01*
X276870D01*
X277071Y295723D01*
X277573Y293163D01*
X276837Y292427D01*
X276317Y291526D01*
X276047Y290520D01*
Y290500D01*
X283953D01*
Y290520D01*
X283683Y291526D01*
X283163Y292427D01*
X282427Y293163D01*
X282929Y295723D01*
X283130Y296047D01*
X283953D01*
Y299500D01*
D02*
G37*
G36*
X423953Y289500D02*
X416047D01*
Y289480D01*
X416317Y288474D01*
X416837Y287573D01*
X417573Y286837D01*
X418474Y286317D01*
X418558Y286294D01*
Y283706D01*
X418474Y283683D01*
X417573Y283163D01*
X416837Y282427D01*
X416317Y281526D01*
X416047Y280520D01*
Y280500D01*
X423953D01*
Y280520D01*
X423683Y281526D01*
X423163Y282427D01*
X422427Y283163D01*
X421526Y283683D01*
X421442Y283706D01*
Y286294D01*
X421526Y286317D01*
X422427Y286837D01*
X423163Y287573D01*
X423683Y288474D01*
X423953Y289480D01*
Y289500D01*
D02*
G37*
G36*
X417024Y279500D02*
X416047D01*
Y279480D01*
X416317Y278474D01*
X416545Y278079D01*
X416577Y278128D01*
X416705Y278360D01*
X416812Y278603D01*
X416899Y278856D01*
X416966Y279120D01*
X417013Y279393D01*
X417024Y279500D01*
D02*
G37*
G36*
X423953D02*
X417518D01*
X419971Y277047D01*
X419677Y277040D01*
X419393Y277013D01*
X419120Y276966D01*
X418856Y276899D01*
X418603Y276812D01*
X418360Y276705D01*
X418127Y276577D01*
X417905Y276430D01*
X417692Y276263D01*
X417490Y276076D01*
X417076Y276490D01*
X417033Y275244D01*
X416755Y274423D01*
X416652Y274363D01*
X415637Y273348D01*
X414919Y272105D01*
X414547Y270718D01*
Y269282D01*
X414919Y267895D01*
X415637Y266652D01*
X416652Y265637D01*
X416755Y265577D01*
X417033Y264756D01*
X417076Y263510D01*
X417490Y263924D01*
X417692Y263737D01*
X417905Y263570D01*
X418127Y263422D01*
X418360Y263295D01*
X418603Y263188D01*
X418856Y263101D01*
X419120Y263034D01*
X419393Y262987D01*
X419677Y262960D01*
X419971Y262953D01*
X417518Y260500D01*
X423953D01*
Y260520D01*
X423683Y261526D01*
X423163Y262427D01*
X422941Y262649D01*
X422899Y262763D01*
X422967Y264756D01*
X423245Y265577D01*
X423348Y265637D01*
X424363Y266652D01*
X425081Y267895D01*
X425453Y269282D01*
Y270718D01*
X425081Y272105D01*
X424363Y273348D01*
X423348Y274363D01*
X423245Y274423D01*
X422967Y275244D01*
X422899Y277237D01*
X422941Y277351D01*
X423163Y277573D01*
X423683Y278474D01*
X423953Y279480D01*
Y279500D01*
D02*
G37*
G36*
X416545Y261922D02*
X416317Y261526D01*
X416047Y260520D01*
Y260500D01*
X417024D01*
X417013Y260607D01*
X416966Y260880D01*
X416899Y261143D01*
X416812Y261397D01*
X416705Y261640D01*
X416577Y261873D01*
X416545Y261922D01*
D02*
G37*
G36*
X423953Y259500D02*
X416047D01*
Y259480D01*
X416317Y258474D01*
X416837Y257573D01*
X417573Y256837D01*
X418474Y256317D01*
X418558Y256294D01*
Y253706D01*
X418474Y253683D01*
X417573Y253163D01*
X416837Y252427D01*
X416317Y251526D01*
X416047Y250520D01*
Y250500D01*
X423953D01*
Y250520D01*
X423683Y251526D01*
X423163Y252427D01*
X422427Y253163D01*
X421526Y253683D01*
X421442Y253706D01*
Y256294D01*
X421526Y256317D01*
X422427Y256837D01*
X423163Y257573D01*
X423683Y258474D01*
X423953Y259480D01*
Y259500D01*
D02*
G37*
G36*
X389500Y239500D02*
X386047D01*
Y239480D01*
X386317Y238474D01*
X386837Y237573D01*
X387573Y236837D01*
X388474Y236317D01*
X388916Y236198D01*
X388904Y236256D01*
X388829Y236510D01*
X388733Y236758D01*
X388616Y236999D01*
X388477Y237232D01*
X388317Y237459D01*
X388136Y237679D01*
X387933Y237891D01*
X389500D01*
Y239500D01*
D02*
G37*
G36*
X343953D02*
X340500D01*
Y237891D01*
X342067D01*
X341864Y237679D01*
X341683Y237459D01*
X341523Y237232D01*
X341384Y236999D01*
X341267Y236758D01*
X341171Y236510D01*
X341096Y236256D01*
X341084Y236198D01*
X341526Y236317D01*
X342427Y236837D01*
X343163Y237573D01*
X343683Y238474D01*
X343953Y239480D01*
Y239500D01*
D02*
G37*
G36*
X339500D02*
X336047D01*
Y239480D01*
X336317Y238474D01*
X336837Y237573D01*
X337573Y236837D01*
X338474Y236317D01*
X338916Y236198D01*
X338904Y236256D01*
X338829Y236510D01*
X338733Y236758D01*
X338616Y236999D01*
X338477Y237232D01*
X338317Y237459D01*
X338136Y237679D01*
X337933Y237891D01*
X339500D01*
Y239500D01*
D02*
G37*
G36*
X423953Y249500D02*
X416047D01*
Y249480D01*
X416317Y248474D01*
X416837Y247573D01*
X417059Y247351D01*
X417101Y247237D01*
X417033Y245244D01*
X416755Y244423D01*
X416652Y244363D01*
X415637Y243348D01*
X414919Y242105D01*
X414547Y240718D01*
Y239282D01*
X414919Y237895D01*
X415637Y236652D01*
X416652Y235637D01*
X417895Y234919D01*
X419282Y234547D01*
X420718D01*
X422105Y234919D01*
X423348Y235637D01*
X424363Y236652D01*
X425081Y237895D01*
X425453Y239282D01*
Y240718D01*
X425081Y242105D01*
X424363Y243348D01*
X423348Y244363D01*
X423245Y244423D01*
X422967Y245244D01*
X422899Y247237D01*
X422941Y247351D01*
X423163Y247573D01*
X423683Y248474D01*
X423953Y249480D01*
Y249500D01*
D02*
G37*
G36*
X455461Y327125D02*
X454539D01*
X453649Y326887D01*
X452851Y326426D01*
X452199Y325774D01*
X451739Y324976D01*
X451500Y324086D01*
Y323165D01*
X451739Y322274D01*
X452075Y321692D01*
Y309500D01*
X452039D01*
X451149Y309261D01*
X450351Y308801D01*
X449699Y308149D01*
X449238Y307351D01*
X449000Y306461D01*
Y305539D01*
X449238Y304649D01*
X449575Y304066D01*
Y291412D01*
X448986D01*
X448096Y291174D01*
X447297Y290713D01*
X446646Y290061D01*
X446185Y289263D01*
X445946Y288373D01*
Y287451D01*
X446185Y286561D01*
X446521Y285978D01*
Y281500D01*
X445967D01*
X445077Y281261D01*
X444279Y280801D01*
X443628Y280149D01*
X443167Y279351D01*
X442928Y278461D01*
Y277539D01*
X443167Y276649D01*
X443503Y276066D01*
Y263572D01*
X443603Y262815D01*
X443895Y262109D01*
X444360Y261503D01*
X454386Y251477D01*
X454404Y251405D01*
X454434Y251242D01*
X454459Y251047D01*
X454496Y250399D01*
X454498Y250016D01*
X454547Y249778D01*
Y249282D01*
X454919Y247895D01*
X455637Y246652D01*
X455949Y245948D01*
X455844Y243957D01*
X455566Y243377D01*
X455341Y243178D01*
X455186Y243057D01*
X455050Y242963D01*
X454986Y242925D01*
X450000D01*
X449243Y242825D01*
X448537Y242533D01*
X447932Y242068D01*
X447799Y241936D01*
X447764Y241917D01*
X447763Y241917D01*
X447633Y241877D01*
X447398Y241825D01*
X447130Y241783D01*
X445626Y241684D01*
X445034Y241683D01*
X444793Y241634D01*
X444347D01*
X443065Y241379D01*
X441858Y240879D01*
X440771Y240153D01*
X439847Y239229D01*
X439121Y238142D01*
X438621Y236935D01*
X438366Y235653D01*
Y234347D01*
X438621Y233065D01*
X439121Y231858D01*
X439847Y230771D01*
X440771Y229847D01*
X441858Y229121D01*
X443065Y228621D01*
X444347Y228366D01*
X445653D01*
X446935Y228621D01*
X448142Y229121D01*
X449229Y229847D01*
X450153Y230771D01*
X450879Y231858D01*
X451379Y233065D01*
X451634Y234347D01*
Y234793D01*
X451683Y235034D01*
X451684Y235670D01*
X451701Y236184D01*
X451776Y237075D01*
X454986D01*
X455050Y237037D01*
X455186Y236943D01*
X455341Y236822D01*
X455826Y236391D01*
X456098Y236122D01*
X456302Y235987D01*
X456652Y235637D01*
X456755Y235577D01*
X457033Y234756D01*
X457101Y232763D01*
X457059Y232649D01*
X456837Y232427D01*
X456317Y231526D01*
X456047Y230520D01*
Y230500D01*
X463953D01*
Y230520D01*
X463683Y231526D01*
X463163Y232427D01*
X462941Y232649D01*
X462899Y232763D01*
X462967Y234756D01*
X463245Y235577D01*
X463348Y235637D01*
X464363Y236652D01*
X465081Y237895D01*
X465453Y239282D01*
Y240718D01*
X465081Y242105D01*
X464363Y243348D01*
X463630Y245000D01*
X464363Y246652D01*
X465081Y247895D01*
X465453Y249282D01*
Y250718D01*
X465081Y252105D01*
X464363Y253348D01*
X463630Y255000D01*
X464363Y256652D01*
X465081Y257895D01*
X465453Y259282D01*
Y260718D01*
X465081Y262105D01*
X464363Y263348D01*
X463630Y265000D01*
X464363Y266652D01*
X465081Y267895D01*
X465453Y269282D01*
Y270718D01*
X465081Y272105D01*
X464368Y273339D01*
X464363Y273349D01*
X463630Y275000D01*
X464363Y276651D01*
X464368Y276661D01*
X465081Y277895D01*
X465453Y279282D01*
Y280718D01*
X465081Y282105D01*
X464363Y283348D01*
X463348Y284363D01*
X463245Y284423D01*
X462967Y285244D01*
X462899Y287237D01*
X462941Y287351D01*
X463163Y287573D01*
X463683Y288474D01*
X463953Y289480D01*
Y289500D01*
X460000D01*
Y290500D01*
X463953D01*
Y290520D01*
X463683Y291526D01*
X463163Y292427D01*
X462427Y293163D01*
X462929Y295723D01*
X463130Y296047D01*
X463953D01*
Y299500D01*
X460000D01*
Y300000D01*
X459500D01*
Y302929D01*
X458000D01*
X458190Y302949D01*
X458360Y303009D01*
X458510Y303110D01*
X458640Y303251D01*
X458750Y303432D01*
X458840Y303653D01*
X458910Y303915D01*
X458916Y303953D01*
X457925D01*
Y321692D01*
X458261Y322274D01*
X458500Y323165D01*
Y324086D01*
X458261Y324976D01*
X457801Y325774D01*
X457149Y326426D01*
X456351Y326887D01*
X455461Y327125D01*
D02*
G37*
G36*
X283953Y229500D02*
X280500D01*
Y227891D01*
X282067D01*
X281864Y227679D01*
X281683Y227459D01*
X281523Y227232D01*
X281384Y226999D01*
X281267Y226758D01*
X281171Y226511D01*
X281096Y226256D01*
X281084Y226198D01*
X281526Y226317D01*
X282427Y226837D01*
X283163Y227573D01*
X283683Y228474D01*
X283953Y229480D01*
Y229500D01*
D02*
G37*
G36*
X219500D02*
X216047D01*
Y229480D01*
X216317Y228474D01*
X216837Y227573D01*
X217573Y226837D01*
X218474Y226317D01*
X218916Y226198D01*
X218904Y226256D01*
X218829Y226511D01*
X218733Y226758D01*
X218616Y226999D01*
X218477Y227232D01*
X218317Y227459D01*
X218136Y227679D01*
X217933Y227891D01*
X219500D01*
Y229500D01*
D02*
G37*
G36*
X463953D02*
X460500D01*
Y226047D01*
X460520D01*
X461526Y226317D01*
X462427Y226837D01*
X463163Y227573D01*
X463683Y228474D01*
X463953Y229480D01*
Y229500D01*
D02*
G37*
G36*
X459500D02*
X456047D01*
Y229480D01*
X456317Y228474D01*
X456837Y227573D01*
X457573Y226837D01*
X458474Y226317D01*
X459480Y226047D01*
X459500D01*
Y229500D01*
D02*
G37*
G36*
X510653Y291634D02*
X509347D01*
X508065Y291379D01*
X506858Y290879D01*
X505771Y290153D01*
X504847Y289229D01*
X504121Y288142D01*
X503621Y286935D01*
X503366Y285653D01*
Y284347D01*
X503621Y283065D01*
X504121Y281858D01*
X504847Y280771D01*
X505771Y279847D01*
X506858Y279121D01*
X507570Y278826D01*
X507838Y277500D01*
X507570Y276174D01*
X506858Y275879D01*
X505771Y275153D01*
X504847Y274229D01*
X504121Y273142D01*
X503621Y271935D01*
X503366Y270653D01*
Y269347D01*
X503621Y268065D01*
X504121Y266858D01*
X504847Y265771D01*
X505771Y264847D01*
X506858Y264121D01*
X507570Y263826D01*
X507838Y262500D01*
X507570Y261174D01*
X506858Y260879D01*
X505771Y260153D01*
X504847Y259229D01*
X504121Y258142D01*
X503621Y256935D01*
X503366Y255653D01*
Y254347D01*
X503621Y253065D01*
X504121Y251858D01*
X504847Y250771D01*
X505771Y249847D01*
X506858Y249121D01*
X507570Y248826D01*
X507838Y247500D01*
X507570Y246174D01*
X506858Y245879D01*
X505771Y245153D01*
X504847Y244229D01*
X504121Y243142D01*
X503621Y241935D01*
X503366Y240653D01*
Y239347D01*
X503621Y238065D01*
X504121Y236858D01*
X504847Y235771D01*
X505771Y234847D01*
X506858Y234121D01*
X507570Y233826D01*
X507838Y232500D01*
X507570Y231174D01*
X506858Y230879D01*
X505771Y230153D01*
X504847Y229229D01*
X504121Y228142D01*
X503621Y226935D01*
X503366Y225653D01*
Y224347D01*
X503621Y223065D01*
X504121Y221858D01*
X504847Y220771D01*
X505771Y219847D01*
X506858Y219121D01*
X508065Y218621D01*
X509347Y218366D01*
X510653D01*
X511935Y218621D01*
X513142Y219121D01*
X514229Y219847D01*
X515153Y220771D01*
X515879Y221858D01*
X516379Y223065D01*
X516634Y224347D01*
Y225653D01*
X516379Y226935D01*
X515879Y228142D01*
X515153Y229229D01*
X514229Y230153D01*
X513142Y230879D01*
X512430Y231174D01*
X512162Y232500D01*
X512430Y233826D01*
X513142Y234121D01*
X514229Y234847D01*
X515153Y235771D01*
X515879Y236858D01*
X516379Y238065D01*
X516634Y239347D01*
Y240653D01*
X516379Y241935D01*
X515879Y243142D01*
X515153Y244229D01*
X514229Y245153D01*
X513142Y245879D01*
X512430Y246174D01*
X512162Y247500D01*
X512430Y248826D01*
X513142Y249121D01*
X514229Y249847D01*
X515153Y250771D01*
X515879Y251858D01*
X516379Y253065D01*
X516634Y254347D01*
Y255653D01*
X516379Y256935D01*
X515879Y258142D01*
X515153Y259229D01*
X514229Y260153D01*
X513142Y260879D01*
X512430Y261174D01*
X512162Y262500D01*
X512430Y263826D01*
X513142Y264121D01*
X514229Y264847D01*
X515153Y265771D01*
X515879Y266858D01*
X516379Y268065D01*
X516634Y269347D01*
Y270653D01*
X516379Y271935D01*
X515879Y273142D01*
X515153Y274229D01*
X514229Y275153D01*
X513142Y275879D01*
X512430Y276174D01*
X512162Y277500D01*
X512430Y278826D01*
X513142Y279121D01*
X514229Y279847D01*
X515153Y280771D01*
X515879Y281858D01*
X516379Y283065D01*
X516634Y284347D01*
Y285653D01*
X516379Y286935D01*
X515879Y288142D01*
X515153Y289229D01*
X514229Y290153D01*
X513142Y290879D01*
X511935Y291379D01*
X510653Y291634D01*
D02*
G37*
G36*
X424961Y219961D02*
X415039D01*
Y218415D01*
X414132Y217861D01*
X412539Y217512D01*
X412282Y217769D01*
X411493Y218225D01*
X410658Y218449D01*
Y215000D01*
Y211551D01*
X411493Y211775D01*
X412282Y212231D01*
X412539Y212488D01*
X414132Y212139D01*
X415039Y211585D01*
Y210039D01*
X416470D01*
Y204719D01*
X416453Y204648D01*
X416446Y204475D01*
X416439Y204412D01*
X416428Y204359D01*
X416414Y204311D01*
X416395Y204263D01*
X416371Y204213D01*
X416337Y204155D01*
X416291Y204090D01*
X416228Y204014D01*
X416088Y203868D01*
X415970Y203681D01*
X415637Y203348D01*
X414919Y202105D01*
X414547Y200718D01*
Y199282D01*
X414919Y197895D01*
X415637Y196652D01*
X416652Y195637D01*
X416755Y195577D01*
X417033Y194756D01*
X417101Y192763D01*
X417059Y192649D01*
X416837Y192427D01*
X416317Y191526D01*
X416047Y190520D01*
Y190500D01*
X423953D01*
Y190520D01*
X423683Y191526D01*
X423163Y192427D01*
X422941Y192649D01*
X422899Y192763D01*
X422967Y194756D01*
X423245Y195577D01*
X423348Y195637D01*
X424363Y196652D01*
X425081Y197895D01*
X425453Y199282D01*
Y200718D01*
X425081Y202105D01*
X424363Y203348D01*
X424030Y203681D01*
X423912Y203868D01*
X423772Y204014D01*
X423709Y204090D01*
X423663Y204155D01*
X423629Y204213D01*
X423605Y204263D01*
X423586Y204310D01*
X423572Y204359D01*
X423561Y204412D01*
X423554Y204475D01*
X423547Y204648D01*
X423530Y204719D01*
Y210039D01*
X424961D01*
Y219961D01*
D02*
G37*
G36*
X299658Y218449D02*
X298822Y218225D01*
X298033Y217769D01*
X297388Y217125D01*
X296933Y216336D01*
X296709Y215500D01*
X299658D01*
Y218449D01*
D02*
G37*
G36*
X239657D02*
X238822Y218225D01*
X238033Y217769D01*
X237388Y217125D01*
X236933Y216336D01*
X236709Y215500D01*
X239657D01*
Y218449D01*
D02*
G37*
G36*
X409657D02*
X408822Y218225D01*
X408033Y217769D01*
X407388Y217125D01*
X406933Y216336D01*
X406709Y215500D01*
X409657D01*
Y218449D01*
D02*
G37*
G36*
Y214500D02*
X406709D01*
X406933Y213664D01*
X407388Y212875D01*
X408033Y212231D01*
X408822Y211775D01*
X409657Y211551D01*
Y214500D01*
D02*
G37*
G36*
X299658D02*
X296709D01*
X296933Y213664D01*
X297388Y212875D01*
X298033Y212231D01*
X298822Y211775D01*
X299658Y211551D01*
Y214500D01*
D02*
G37*
G36*
X239657D02*
X236709D01*
X236933Y213664D01*
X237388Y212875D01*
X238033Y212231D01*
X238822Y211775D01*
X239657Y211551D01*
Y214500D01*
D02*
G37*
G36*
X283953Y203953D02*
X281084D01*
X281090Y203915D01*
X281160Y203653D01*
X281250Y203432D01*
X281360Y203251D01*
X281490Y203110D01*
X281640Y203009D01*
X281810Y202949D01*
X282000Y202929D01*
X280500D01*
Y200500D01*
X283953D01*
Y203953D01*
D02*
G37*
G36*
X218916D02*
X216047D01*
Y200500D01*
X219500D01*
Y202929D01*
X218000D01*
X218190Y202949D01*
X218360Y203009D01*
X218510Y203110D01*
X218640Y203251D01*
X218750Y203432D01*
X218840Y203653D01*
X218910Y203915D01*
X218916Y203953D01*
D02*
G37*
G36*
X423953Y189500D02*
X422976D01*
X422987Y189393D01*
X423034Y189120D01*
X423101Y188856D01*
X423188Y188603D01*
X423295Y188360D01*
X423422Y188128D01*
X423455Y188078D01*
X423683Y188474D01*
X423953Y189480D01*
Y189500D01*
D02*
G37*
G36*
X422482D02*
X416047D01*
Y189480D01*
X416317Y188474D01*
X416837Y187573D01*
X417059Y187351D01*
X417101Y187237D01*
X417033Y185244D01*
X416755Y184423D01*
X416652Y184363D01*
X415637Y183348D01*
X414919Y182105D01*
X414547Y180718D01*
Y179282D01*
X414919Y177895D01*
X415637Y176652D01*
X416652Y175637D01*
X416755Y175577D01*
X417033Y174756D01*
X417101Y172763D01*
X417059Y172649D01*
X416837Y172427D01*
X416317Y171526D01*
X416047Y170520D01*
Y170500D01*
X422482D01*
X420029Y172953D01*
X420323Y172960D01*
X420607Y172987D01*
X420880Y173034D01*
X421143Y173101D01*
X421397Y173188D01*
X421640Y173295D01*
X421873Y173423D01*
X422095Y173570D01*
X422308Y173737D01*
X422510Y173924D01*
X422924Y173510D01*
X422967Y174756D01*
X423245Y175577D01*
X423348Y175637D01*
X424363Y176652D01*
X425081Y177895D01*
X425453Y179282D01*
Y180718D01*
X425081Y182105D01*
X424363Y183348D01*
X423348Y184363D01*
X423245Y184423D01*
X422967Y185244D01*
X422924Y186490D01*
X422510Y186076D01*
X422308Y186263D01*
X422095Y186430D01*
X421873Y186577D01*
X421640Y186705D01*
X421397Y186812D01*
X421143Y186899D01*
X420880Y186966D01*
X420607Y187013D01*
X420323Y187040D01*
X420029Y187047D01*
X422482Y189500D01*
D02*
G37*
G36*
X423455Y171922D02*
X423422Y171872D01*
X423295Y171640D01*
X423188Y171397D01*
X423101Y171143D01*
X423034Y170880D01*
X422987Y170607D01*
X422976Y170500D01*
X423953D01*
Y170520D01*
X423683Y171526D01*
X423455Y171922D01*
D02*
G37*
G36*
X423953Y169500D02*
X422976D01*
X422987Y169393D01*
X423034Y169120D01*
X423101Y168857D01*
X423188Y168603D01*
X423295Y168360D01*
X423422Y168128D01*
X423455Y168078D01*
X423683Y168474D01*
X423953Y169480D01*
Y169500D01*
D02*
G37*
G36*
X393953Y179500D02*
X386047D01*
Y179480D01*
X386317Y178474D01*
X386837Y177573D01*
X387059Y177351D01*
X387101Y177237D01*
X387033Y175244D01*
X386755Y174423D01*
X386652Y174363D01*
X385637Y173348D01*
X384919Y172105D01*
X384547Y170718D01*
Y169282D01*
X384919Y167895D01*
X385637Y166652D01*
X386652Y165637D01*
X386755Y165577D01*
X387033Y164756D01*
X387101Y162763D01*
X387059Y162649D01*
X386837Y162427D01*
X386317Y161526D01*
X386047Y160520D01*
Y160500D01*
X393953D01*
Y160520D01*
X393683Y161526D01*
X393163Y162427D01*
X392941Y162649D01*
X392899Y162763D01*
X392967Y164756D01*
X393245Y165577D01*
X393348Y165637D01*
X394363Y166652D01*
X395081Y167895D01*
X395453Y169282D01*
Y170718D01*
X395081Y172105D01*
X394363Y173348D01*
X393348Y174363D01*
X393245Y174423D01*
X392967Y175244D01*
X392899Y177237D01*
X392941Y177351D01*
X393163Y177573D01*
X393683Y178474D01*
X393953Y179480D01*
Y179500D01*
D02*
G37*
G36*
X422482Y169500D02*
X416047D01*
Y169480D01*
X416317Y168474D01*
X416837Y167573D01*
X417059Y167351D01*
X417101Y167237D01*
X417033Y165244D01*
X416755Y164423D01*
X416652Y164363D01*
X415637Y163348D01*
X414919Y162105D01*
X414547Y160718D01*
Y159282D01*
X414919Y157895D01*
X415637Y156652D01*
X416652Y155637D01*
X416755Y155577D01*
X417033Y154756D01*
X417101Y152763D01*
X417059Y152649D01*
X416837Y152427D01*
X416317Y151526D01*
X416047Y150520D01*
Y150500D01*
X422482D01*
X420029Y152953D01*
X420323Y152960D01*
X420607Y152987D01*
X420880Y153034D01*
X421143Y153101D01*
X421397Y153188D01*
X421640Y153295D01*
X421873Y153422D01*
X422095Y153570D01*
X422308Y153737D01*
X422510Y153924D01*
X422924Y153510D01*
X422967Y154756D01*
X423245Y155577D01*
X423348Y155637D01*
X424363Y156652D01*
X425081Y157895D01*
X425453Y159282D01*
Y160718D01*
X425081Y162105D01*
X424363Y163348D01*
X423348Y164363D01*
X423245Y164423D01*
X422967Y165244D01*
X422924Y166490D01*
X422510Y166076D01*
X422308Y166263D01*
X422095Y166430D01*
X421873Y166577D01*
X421640Y166705D01*
X421397Y166812D01*
X421143Y166899D01*
X420880Y166966D01*
X420607Y167013D01*
X420323Y167040D01*
X420029Y167047D01*
X422482Y169500D01*
D02*
G37*
G36*
X423455Y151921D02*
X423422Y151873D01*
X423295Y151640D01*
X423188Y151397D01*
X423101Y151144D01*
X423034Y150880D01*
X422987Y150607D01*
X422976Y150500D01*
X423953D01*
Y150520D01*
X423683Y151526D01*
X423455Y151921D01*
D02*
G37*
G36*
X393953Y159500D02*
X386047D01*
Y159480D01*
X386317Y158474D01*
X386837Y157573D01*
X387059Y157351D01*
X387101Y157237D01*
X387033Y155244D01*
X386755Y154423D01*
X386652Y154363D01*
X385637Y153348D01*
X384919Y152105D01*
X384547Y150718D01*
Y149282D01*
X384919Y147895D01*
X385637Y146652D01*
X386652Y145637D01*
X386755Y145577D01*
X387033Y144756D01*
X387101Y142763D01*
X387059Y142649D01*
X386837Y142427D01*
X386317Y141526D01*
X386047Y140520D01*
Y140500D01*
X393953D01*
Y140520D01*
X393683Y141526D01*
X393163Y142427D01*
X392941Y142649D01*
X392899Y142763D01*
X392967Y144756D01*
X393245Y145577D01*
X393348Y145637D01*
X394363Y146652D01*
X395081Y147895D01*
X395453Y149282D01*
Y150718D01*
X395081Y152105D01*
X394363Y153348D01*
X393348Y154363D01*
X393245Y154423D01*
X392967Y155244D01*
X392899Y157237D01*
X392941Y157351D01*
X393163Y157573D01*
X393683Y158474D01*
X393953Y159480D01*
Y159500D01*
D02*
G37*
G36*
Y139500D02*
X390500D01*
Y136047D01*
X390520D01*
X391526Y136317D01*
X392427Y136837D01*
X393163Y137573D01*
X393683Y138474D01*
X393953Y139480D01*
Y139500D01*
D02*
G37*
G36*
X389500D02*
X386047D01*
Y139480D01*
X386317Y138474D01*
X386837Y137573D01*
X387573Y136837D01*
X388474Y136317D01*
X389480Y136047D01*
X389500D01*
Y139500D01*
D02*
G37*
G36*
X160343Y138449D02*
Y135500D01*
X163291D01*
X163067Y136336D01*
X162612Y137125D01*
X161967Y137769D01*
X161178Y138225D01*
X160343Y138449D01*
D02*
G37*
G36*
X423953Y149500D02*
X416047D01*
Y149480D01*
X416317Y148474D01*
X416837Y147573D01*
X417059Y147351D01*
X417101Y147237D01*
X417033Y145244D01*
X416755Y144423D01*
X416652Y144363D01*
X415637Y143348D01*
X414919Y142105D01*
X414547Y140718D01*
Y139282D01*
X414919Y137895D01*
X415637Y136652D01*
X416652Y135637D01*
X417895Y134919D01*
X419282Y134547D01*
X420718D01*
X422105Y134919D01*
X423348Y135637D01*
X424363Y136652D01*
X425081Y137895D01*
X425453Y139282D01*
Y140718D01*
X425081Y142105D01*
X424363Y143348D01*
X423348Y144363D01*
X423245Y144423D01*
X422967Y145244D01*
X422899Y147237D01*
X422941Y147351D01*
X423163Y147573D01*
X423683Y148474D01*
X423953Y149480D01*
Y149500D01*
D02*
G37*
G36*
X163291Y134500D02*
X160343D01*
Y131551D01*
X161178Y131775D01*
X161967Y132231D01*
X162612Y132875D01*
X163067Y133664D01*
X163291Y134500D01*
D02*
G37*
G36*
X283953Y289500D02*
X276047D01*
Y289480D01*
X276317Y288474D01*
X276837Y287573D01*
X277059Y287351D01*
X277101Y287237D01*
X277033Y285244D01*
X276755Y284423D01*
X276652Y284363D01*
X275637Y283348D01*
X274919Y282105D01*
X274547Y280718D01*
Y279282D01*
X274919Y277895D01*
X275637Y276652D01*
X276370Y275000D01*
X275637Y273348D01*
X274919Y272105D01*
X274547Y270718D01*
Y269282D01*
X274919Y267895D01*
X275637Y266652D01*
X276370Y265000D01*
X275637Y263348D01*
X274919Y262105D01*
X274547Y260718D01*
Y259282D01*
X274919Y257895D01*
X275637Y256652D01*
X276370Y255000D01*
X275637Y253348D01*
X274919Y252105D01*
X274547Y250718D01*
Y249282D01*
X274919Y247895D01*
X275637Y246652D01*
X276370Y245000D01*
X275637Y243348D01*
X274919Y242105D01*
X274547Y240718D01*
Y240223D01*
X274499Y239984D01*
X274497Y239601D01*
X274459Y238953D01*
X274434Y238758D01*
X274404Y238595D01*
X274386Y238523D01*
X273432Y237568D01*
X272967Y236963D01*
X272675Y236257D01*
X272575Y235500D01*
Y144500D01*
X272675Y143743D01*
X272967Y143037D01*
X273432Y142432D01*
X274386Y141477D01*
X274404Y141405D01*
X274434Y141242D01*
X274459Y141047D01*
X274497Y140399D01*
X274499Y140016D01*
X274547Y139778D01*
Y139282D01*
X274919Y137895D01*
X275637Y136652D01*
X276652Y135637D01*
X276755Y135577D01*
X277033Y134756D01*
X277101Y132763D01*
X277059Y132649D01*
X276837Y132427D01*
X276317Y131526D01*
X276047Y130520D01*
Y130500D01*
X283953D01*
Y130520D01*
X283683Y131526D01*
X283163Y132427D01*
X282941Y132649D01*
X282899Y132763D01*
X282967Y134756D01*
X283245Y135577D01*
X283348Y135637D01*
X284363Y136652D01*
X285081Y137895D01*
X285453Y139282D01*
Y140718D01*
X285081Y142105D01*
X284363Y143348D01*
X283630Y145000D01*
X284363Y146652D01*
X285081Y147895D01*
X285453Y149282D01*
Y150718D01*
X285081Y152105D01*
X284363Y153348D01*
X283630Y155000D01*
X284363Y156652D01*
X285081Y157895D01*
X285453Y159282D01*
Y160718D01*
X285081Y162105D01*
X284363Y163348D01*
X283630Y165000D01*
X284363Y166652D01*
X285081Y167895D01*
X285453Y169282D01*
Y170718D01*
X285081Y172105D01*
X284363Y173348D01*
X283630Y175000D01*
X284363Y176652D01*
X285081Y177895D01*
X285453Y179282D01*
Y180718D01*
X285081Y182105D01*
X284363Y183348D01*
X283348Y184363D01*
X283245Y184423D01*
X282967Y185244D01*
X282899Y187237D01*
X282941Y187351D01*
X283163Y187573D01*
X283683Y188474D01*
X283953Y189480D01*
Y189500D01*
X280000D01*
Y190500D01*
X283953D01*
Y190520D01*
X283683Y191526D01*
X283163Y192427D01*
X282427Y193163D01*
X282929Y195723D01*
X283130Y196047D01*
X283953D01*
Y199500D01*
X280000D01*
Y200000D01*
X279500D01*
Y202929D01*
X278000D01*
X278190Y202949D01*
X278360Y203009D01*
X278510Y203110D01*
X278640Y203251D01*
X278750Y203432D01*
X278840Y203653D01*
X278910Y203915D01*
X278916Y203953D01*
X278425D01*
Y218021D01*
X278393Y218062D01*
X278250Y218215D01*
X278425D01*
Y221785D01*
X278250D01*
X278393Y221938D01*
X278425Y221979D01*
Y223742D01*
X279206Y225450D01*
X279000D01*
X278989Y225726D01*
X278957Y225994D01*
X278904Y226256D01*
X278829Y226511D01*
X278733Y226758D01*
X278616Y226999D01*
X278477Y227232D01*
X278317Y227459D01*
X278136Y227679D01*
X277933Y227891D01*
X279500D01*
Y230000D01*
X280000D01*
Y230500D01*
X283953D01*
Y230520D01*
X283683Y231526D01*
X283163Y232427D01*
X282941Y232649D01*
X282899Y232763D01*
X282967Y234756D01*
X283245Y235577D01*
X283348Y235637D01*
X284363Y236652D01*
X285081Y237895D01*
X285453Y239282D01*
Y240718D01*
X285081Y242105D01*
X284363Y243348D01*
X283630Y245000D01*
X284363Y246652D01*
X285081Y247895D01*
X285453Y249282D01*
Y250718D01*
X285081Y252105D01*
X284363Y253348D01*
X283630Y255000D01*
X284363Y256652D01*
X285081Y257895D01*
X285453Y259282D01*
Y260718D01*
X285081Y262105D01*
X284363Y263348D01*
X283630Y265000D01*
X284363Y266652D01*
X285081Y267895D01*
X285453Y269282D01*
Y270718D01*
X285081Y272105D01*
X284363Y273348D01*
X283630Y275000D01*
X284363Y276652D01*
X285081Y277895D01*
X285453Y279282D01*
Y280718D01*
X285081Y282105D01*
X284363Y283348D01*
X283348Y284363D01*
X283245Y284423D01*
X282967Y285244D01*
X282899Y287237D01*
X282941Y287351D01*
X283163Y287573D01*
X283683Y288474D01*
X283953Y289480D01*
Y289500D01*
D02*
G37*
G36*
X224961Y337000D02*
X224039D01*
X223149Y336761D01*
X222351Y336301D01*
X221699Y335649D01*
X221238Y334851D01*
X221000Y333961D01*
Y333039D01*
X221238Y332149D01*
X221575Y331566D01*
Y308215D01*
X221750D01*
X221607Y308062D01*
X221575Y308021D01*
Y303953D01*
X221084D01*
X221090Y303915D01*
X221160Y303653D01*
X221250Y303432D01*
X221360Y303251D01*
X221490Y303110D01*
X221640Y303009D01*
X221810Y302949D01*
X222000Y302929D01*
X220500D01*
Y300000D01*
X220000D01*
Y299500D01*
X216047D01*
Y296047D01*
X216870D01*
X217071Y295723D01*
X217573Y293163D01*
X216837Y292427D01*
X216317Y291526D01*
X216047Y290520D01*
Y290500D01*
X220000D01*
Y289500D01*
X216047D01*
Y289480D01*
X216317Y288474D01*
X216837Y287573D01*
X217059Y287351D01*
X217101Y287237D01*
X217033Y285244D01*
X216755Y284423D01*
X216652Y284363D01*
X215637Y283348D01*
X214919Y282105D01*
X214547Y280718D01*
Y279282D01*
X214919Y277895D01*
X215637Y276652D01*
X216370Y275000D01*
X215637Y273348D01*
X214919Y272105D01*
X214547Y270718D01*
Y269282D01*
X214919Y267895D01*
X215637Y266652D01*
X216370Y265000D01*
X215637Y263348D01*
X214919Y262105D01*
X214547Y260718D01*
Y259282D01*
X214919Y257895D01*
X215637Y256652D01*
X216370Y255000D01*
X215637Y253348D01*
X214919Y252105D01*
X214547Y250718D01*
Y249282D01*
X214919Y247895D01*
X215637Y246652D01*
X216370Y245000D01*
X215637Y243348D01*
X214919Y242105D01*
X214547Y240718D01*
Y239282D01*
X214919Y237895D01*
X215637Y236652D01*
X216652Y235637D01*
X216755Y235577D01*
X217033Y234756D01*
X217101Y232763D01*
X217059Y232649D01*
X216837Y232427D01*
X216317Y231526D01*
X216047Y230520D01*
Y230500D01*
X220000D01*
Y230000D01*
X220500D01*
Y227891D01*
X222067D01*
X221864Y227679D01*
X221683Y227459D01*
X221523Y227232D01*
X221384Y226999D01*
X221267Y226758D01*
X221171Y226511D01*
X221096Y226256D01*
X221043Y225994D01*
X221011Y225726D01*
X221000Y225450D01*
X220794D01*
X221575Y223742D01*
Y221979D01*
X221607Y221938D01*
X221750Y221785D01*
X221575D01*
Y218215D01*
X221750D01*
X221607Y218062D01*
X221575Y218021D01*
Y203953D01*
X221084D01*
X221090Y203915D01*
X221160Y203653D01*
X221250Y203432D01*
X221360Y203251D01*
X221490Y203110D01*
X221640Y203009D01*
X221810Y202949D01*
X222000Y202929D01*
X220500D01*
Y200000D01*
X220000D01*
Y199500D01*
X216047D01*
Y196047D01*
X216870D01*
X217071Y195723D01*
X217573Y193163D01*
X216837Y192427D01*
X216317Y191526D01*
X216047Y190520D01*
Y190500D01*
X220000D01*
Y189500D01*
X216047D01*
Y189480D01*
X216317Y188474D01*
X216837Y187573D01*
X217059Y187351D01*
X217101Y187237D01*
X217033Y185244D01*
X216755Y184423D01*
X216652Y184363D01*
X215637Y183348D01*
X214919Y182105D01*
X214547Y180718D01*
Y179282D01*
X214919Y177895D01*
X215637Y176652D01*
X216370Y175000D01*
X215637Y173348D01*
X214919Y172105D01*
X214547Y170718D01*
Y169282D01*
X214919Y167895D01*
X215637Y166652D01*
X216370Y165000D01*
X215637Y163348D01*
X214919Y162105D01*
X214547Y160718D01*
Y159282D01*
X214919Y157895D01*
X215637Y156652D01*
X216370Y155000D01*
X215637Y153348D01*
X214919Y152105D01*
X214547Y150718D01*
Y149282D01*
X214919Y147895D01*
X215637Y146652D01*
X216370Y145000D01*
X215637Y143348D01*
X214919Y142105D01*
X214547Y140718D01*
Y139282D01*
X214919Y137895D01*
X215637Y136652D01*
X216652Y135637D01*
X216755Y135577D01*
X217033Y134756D01*
X217101Y132763D01*
X217059Y132649D01*
X216837Y132427D01*
X216317Y131526D01*
X216047Y130520D01*
Y130500D01*
X223953D01*
Y130520D01*
X223683Y131526D01*
X223163Y132427D01*
X222941Y132649D01*
X222899Y132763D01*
X222967Y134756D01*
X223245Y135577D01*
X223348Y135637D01*
X224363Y136652D01*
X225081Y137895D01*
X225453Y139282D01*
Y140718D01*
X225081Y142105D01*
X224363Y143348D01*
X223630Y145000D01*
X224363Y146652D01*
X225081Y147895D01*
X225453Y149282D01*
Y149777D01*
X225501Y150016D01*
X225503Y150399D01*
X225541Y151047D01*
X225566Y151242D01*
X225596Y151405D01*
X225614Y151477D01*
X234068Y159932D01*
X234533Y160538D01*
X234825Y161243D01*
X234925Y162000D01*
Y196065D01*
X235262Y196648D01*
X235500Y197538D01*
Y198460D01*
X235262Y199350D01*
X234801Y200148D01*
X234149Y200800D01*
X233351Y201260D01*
X232461Y201499D01*
X232425D01*
Y213913D01*
X232762Y214496D01*
X233000Y215386D01*
Y216308D01*
X232762Y217198D01*
X232301Y217996D01*
X231649Y218648D01*
X230851Y219109D01*
X229961Y219347D01*
X229925D01*
Y225066D01*
X230261Y225649D01*
X230500Y226539D01*
Y227461D01*
X230261Y228351D01*
X229801Y229149D01*
X229149Y229801D01*
X228351Y230261D01*
X227461Y230500D01*
X227425D01*
Y235066D01*
X227762Y235649D01*
X228000Y236539D01*
Y237461D01*
X227762Y238351D01*
X227301Y239149D01*
X226649Y239801D01*
X225851Y240262D01*
X225453Y240368D01*
Y240718D01*
X225081Y242105D01*
X224363Y243348D01*
X223630Y245000D01*
X224363Y246652D01*
X225081Y247895D01*
X225453Y249282D01*
Y249778D01*
X225501Y250016D01*
X225503Y250399D01*
X225541Y251047D01*
X225566Y251242D01*
X225596Y251405D01*
X225614Y251477D01*
X234068Y259932D01*
X234533Y260538D01*
X234825Y261243D01*
X234925Y262000D01*
Y301066D01*
X235262Y301649D01*
X235500Y302539D01*
Y303461D01*
X235262Y304351D01*
X234801Y305149D01*
X234149Y305801D01*
X233351Y306261D01*
X232461Y306500D01*
X232425D01*
Y312219D01*
X232762Y312802D01*
X233000Y313692D01*
Y314614D01*
X232762Y315504D01*
X232301Y316302D01*
X231649Y316953D01*
X230851Y317414D01*
X229961Y317653D01*
X229925D01*
Y324066D01*
X230261Y324649D01*
X230500Y325539D01*
Y326461D01*
X230261Y327351D01*
X229801Y328149D01*
X229149Y328801D01*
X228351Y329261D01*
X228251Y329288D01*
X227619Y331721D01*
X227634Y331928D01*
X227762Y332149D01*
X228000Y333039D01*
Y333961D01*
X227762Y334851D01*
X227301Y335649D01*
X226649Y336301D01*
X225851Y336761D01*
X224961Y337000D01*
D02*
G37*
G36*
X201387Y134943D02*
X201473Y134765D01*
X201682Y134409D01*
X201928Y134050D01*
X202212Y133688D01*
X202534Y133322D01*
X202894Y132952D01*
X200500D01*
Y130500D01*
X205134D01*
Y130676D01*
X204784Y131982D01*
X204108Y133152D01*
X203152Y134108D01*
X201982Y134784D01*
X201387Y134943D01*
D02*
G37*
G36*
X179500Y132386D02*
X178664Y132162D01*
X177875Y131706D01*
X177231Y131062D01*
X176775Y130273D01*
X176551Y129437D01*
X179500D01*
Y132386D01*
D02*
G37*
G36*
X283953Y129500D02*
X280500D01*
Y126047D01*
X280520D01*
X281526Y126317D01*
X282427Y126837D01*
X283163Y127573D01*
X283683Y128474D01*
X283953Y129480D01*
Y129500D01*
D02*
G37*
G36*
X279500D02*
X276047D01*
Y129480D01*
X276317Y128474D01*
X276837Y127573D01*
X277573Y126837D01*
X278474Y126317D01*
X279480Y126047D01*
X279500D01*
Y129500D01*
D02*
G37*
G36*
X223953D02*
X220500D01*
Y126047D01*
X220520D01*
X221526Y126317D01*
X222427Y126837D01*
X223163Y127573D01*
X223683Y128474D01*
X223953Y129480D01*
Y129500D01*
D02*
G37*
G36*
X219500D02*
X216047D01*
Y129480D01*
X216317Y128474D01*
X216837Y127573D01*
X217573Y126837D01*
X218474Y126317D01*
X219480Y126047D01*
X219500D01*
Y129500D01*
D02*
G37*
G36*
X595783Y132950D02*
X594217D01*
X592681Y132644D01*
X591234Y132045D01*
X589932Y131175D01*
X588825Y130068D01*
X587955Y128766D01*
X587356Y127319D01*
X587050Y125783D01*
Y124217D01*
X587356Y122681D01*
X587955Y121234D01*
X588825Y119932D01*
X589932Y118825D01*
X591234Y117955D01*
X592681Y117356D01*
X594217Y117050D01*
X595783D01*
X597319Y117356D01*
X598766Y117955D01*
X600068Y118825D01*
X601175Y119932D01*
X602045Y121234D01*
X602644Y122681D01*
X602950Y124217D01*
Y125783D01*
X602644Y127319D01*
X602045Y128766D01*
X601175Y130068D01*
X600068Y131175D01*
X598766Y132045D01*
X597319Y132644D01*
X595783Y132950D01*
D02*
G37*
%LPD*%
G36*
X495643Y327886D02*
X495592Y327820D01*
X495547Y327751D01*
X495508Y327677D01*
X495475Y327599D01*
X495448Y327516D01*
X495427Y327430D01*
X495412Y327339D01*
X495403Y327244D01*
X495400Y327144D01*
X494600D01*
X494597Y327244D01*
X494588Y327339D01*
X494573Y327430D01*
X494552Y327516D01*
X494525Y327599D01*
X494492Y327677D01*
X494453Y327751D01*
X494408Y327820D01*
X494357Y327886D01*
X494300Y327946D01*
X495700D01*
X495643Y327886D01*
D02*
G37*
G36*
X491810Y312531D02*
X491640Y312471D01*
X491490Y312371D01*
X491360Y312231D01*
X491250Y312051D01*
X491160Y311831D01*
X491090Y311571D01*
X491040Y311271D01*
X491010Y310931D01*
X491000Y310551D01*
X489000D01*
X488990Y310931D01*
X488960Y311271D01*
X488910Y311571D01*
X488840Y311831D01*
X488750Y312051D01*
X488640Y312231D01*
X488510Y312371D01*
X488360Y312471D01*
X488190Y312531D01*
X488000Y312551D01*
X492000D01*
X491810Y312531D01*
D02*
G37*
G36*
X491011Y304274D02*
X491043Y304006D01*
X491096Y303744D01*
X491171Y303489D01*
X491267Y303242D01*
X491384Y303001D01*
X491523Y302768D01*
X491683Y302541D01*
X491864Y302321D01*
X492067Y302109D01*
X487933D01*
X488136Y302321D01*
X488317Y302541D01*
X488477Y302768D01*
X488616Y303001D01*
X488733Y303242D01*
X488829Y303489D01*
X488904Y303744D01*
X488957Y304006D01*
X488989Y304274D01*
X489000Y304550D01*
X491000D01*
X491011Y304274D01*
D02*
G37*
G36*
X489970Y267047D02*
X489520Y267045D01*
X488719Y266999D01*
X488369Y266954D01*
X488051Y266896D01*
X487767Y266824D01*
X487516Y266738D01*
X487298Y266638D01*
X487113Y266524D01*
X486961Y266396D01*
X486396Y266961D01*
X486524Y267113D01*
X486638Y267298D01*
X486738Y267516D01*
X486824Y267767D01*
X486896Y268051D01*
X486954Y268369D01*
X486999Y268719D01*
X487045Y269520D01*
X487047Y269970D01*
X489970Y267047D01*
D02*
G37*
G36*
X493604Y243039D02*
X493476Y242887D01*
X493362Y242702D01*
X493262Y242484D01*
X493176Y242233D01*
X493104Y241949D01*
X493046Y241631D01*
X493002Y241281D01*
X492955Y240480D01*
X492953Y240030D01*
X490029Y242953D01*
X490480Y242955D01*
X491281Y243002D01*
X491631Y243046D01*
X491949Y243104D01*
X492233Y243176D01*
X492484Y243262D01*
X492702Y243362D01*
X492887Y243476D01*
X493039Y243604D01*
X493604Y243039D01*
D02*
G37*
G36*
X481403Y236417D02*
X481412Y236322D01*
X481427Y236231D01*
X481448Y236144D01*
X481475Y236062D01*
X481508Y235984D01*
X481547Y235910D01*
X481592Y235840D01*
X481643Y235775D01*
X481700Y235714D01*
X480300D01*
X480357Y235775D01*
X480408Y235840D01*
X480453Y235910D01*
X480492Y235984D01*
X480525Y236062D01*
X480552Y236144D01*
X480573Y236231D01*
X480588Y236322D01*
X480597Y236417D01*
X480600Y236516D01*
X481400D01*
X481403Y236417D01*
D02*
G37*
G36*
X491750Y237571D02*
X491217Y236972D01*
X491000Y236693D01*
X490817Y236427D01*
X490667Y236175D01*
X490550Y235937D01*
X490467Y235712D01*
X490417Y235501D01*
X490400Y235303D01*
X489600D01*
X489583Y235501D01*
X489533Y235712D01*
X489450Y235937D01*
X489333Y236175D01*
X489183Y236427D01*
X489000Y236693D01*
X488783Y236972D01*
X488250Y237571D01*
X487933Y237891D01*
X492067D01*
X491750Y237571D01*
D02*
G37*
G36*
X490417Y234500D02*
X490467Y234288D01*
X490550Y234063D01*
X490667Y233825D01*
X490817Y233573D01*
X491000Y233307D01*
X491217Y233028D01*
X491750Y232429D01*
X492067Y232109D01*
X487933D01*
X488250Y232429D01*
X488783Y233028D01*
X489000Y233307D01*
X489183Y233573D01*
X489333Y233825D01*
X489450Y234063D01*
X489533Y234288D01*
X489583Y234500D01*
X489600Y234697D01*
X490400D01*
X490417Y234500D01*
D02*
G37*
G36*
X421810Y312531D02*
X421640Y312471D01*
X421490Y312371D01*
X421360Y312231D01*
X421250Y312051D01*
X421160Y311831D01*
X421090Y311571D01*
X421040Y311271D01*
X421010Y310931D01*
X421000Y310551D01*
X419000D01*
X418990Y310931D01*
X418960Y311271D01*
X418910Y311571D01*
X418840Y311831D01*
X418750Y312051D01*
X418640Y312231D01*
X418510Y312371D01*
X418360Y312471D01*
X418190Y312531D01*
X418000Y312551D01*
X422000D01*
X421810Y312531D01*
D02*
G37*
G36*
X421011Y304274D02*
X421043Y304006D01*
X421096Y303744D01*
X421171Y303489D01*
X421267Y303242D01*
X421384Y303001D01*
X421523Y302768D01*
X421683Y302541D01*
X421864Y302321D01*
X422067Y302109D01*
X417933D01*
X418136Y302321D01*
X418317Y302541D01*
X418477Y302768D01*
X418616Y303001D01*
X418733Y303242D01*
X418829Y303489D01*
X418904Y303744D01*
X418957Y304006D01*
X418989Y304274D01*
X419000Y304550D01*
X421000D01*
X421011Y304274D01*
D02*
G37*
G36*
X371810Y312531D02*
X371640Y312471D01*
X371490Y312371D01*
X371360Y312231D01*
X371250Y312051D01*
X371160Y311831D01*
X371090Y311571D01*
X371040Y311271D01*
X371010Y310931D01*
X371000Y310551D01*
X369000D01*
X368990Y310931D01*
X368960Y311271D01*
X368910Y311571D01*
X368840Y311831D01*
X368750Y312051D01*
X368640Y312231D01*
X368510Y312371D01*
X368360Y312471D01*
X368190Y312531D01*
X368000Y312551D01*
X372000D01*
X371810Y312531D01*
D02*
G37*
G36*
X371011Y304274D02*
X371043Y304006D01*
X371096Y303744D01*
X371171Y303489D01*
X371267Y303242D01*
X371384Y303001D01*
X371523Y302768D01*
X371683Y302541D01*
X371864Y302321D01*
X372067Y302109D01*
X367933D01*
X368136Y302321D01*
X368317Y302541D01*
X368477Y302768D01*
X368616Y303001D01*
X368733Y303242D01*
X368829Y303489D01*
X368904Y303744D01*
X368957Y304006D01*
X368989Y304274D01*
X369000Y304550D01*
X371000D01*
X371011Y304274D01*
D02*
G37*
G36*
X281810Y297039D02*
X281640Y296979D01*
X281490Y296879D01*
X281360Y296739D01*
X281250Y296559D01*
X281160Y296339D01*
X281090Y296079D01*
X281040Y295779D01*
X281010Y295439D01*
X281000Y295059D01*
X279000D01*
X278990Y295439D01*
X278960Y295779D01*
X278910Y296079D01*
X278840Y296339D01*
X278750Y296559D01*
X278640Y296739D01*
X278510Y296879D01*
X278360Y296979D01*
X278190Y297039D01*
X278000Y297059D01*
X282000D01*
X281810Y297039D01*
D02*
G37*
G36*
X281011Y294274D02*
X281043Y294006D01*
X281096Y293744D01*
X281171Y293490D01*
X281267Y293242D01*
X281384Y293001D01*
X281523Y292768D01*
X281683Y292541D01*
X281864Y292321D01*
X282067Y292109D01*
X277933D01*
X278136Y292321D01*
X278317Y292541D01*
X278477Y292768D01*
X278616Y293001D01*
X278733Y293242D01*
X278829Y293490D01*
X278904Y293744D01*
X278957Y294006D01*
X278989Y294274D01*
X279000Y294550D01*
X281000D01*
X281011Y294274D01*
D02*
G37*
G36*
X421864Y287679D02*
X421683Y287459D01*
X421523Y287232D01*
X421384Y286999D01*
X421267Y286758D01*
X421171Y286510D01*
X421096Y286256D01*
X421043Y285994D01*
X421011Y285726D01*
X421000Y285450D01*
X419000D01*
X418989Y285726D01*
X418957Y285994D01*
X418904Y286256D01*
X418829Y286510D01*
X418733Y286758D01*
X418616Y286999D01*
X418477Y287232D01*
X418317Y287459D01*
X418136Y287679D01*
X417933Y287891D01*
X422067D01*
X421864Y287679D01*
D02*
G37*
G36*
X421011Y284274D02*
X421043Y284006D01*
X421096Y283744D01*
X421171Y283489D01*
X421267Y283242D01*
X421384Y283001D01*
X421523Y282768D01*
X421683Y282541D01*
X421864Y282321D01*
X422067Y282109D01*
X417933D01*
X418136Y282321D01*
X418317Y282541D01*
X418477Y282768D01*
X418616Y283001D01*
X418733Y283242D01*
X418829Y283489D01*
X418904Y283744D01*
X418957Y284006D01*
X418989Y284274D01*
X419000Y284550D01*
X421000D01*
X421011Y284274D01*
D02*
G37*
G36*
X421864Y257679D02*
X421683Y257459D01*
X421523Y257232D01*
X421384Y256999D01*
X421267Y256758D01*
X421171Y256510D01*
X421096Y256256D01*
X421043Y255994D01*
X421011Y255726D01*
X421000Y255450D01*
X419000D01*
X418989Y255726D01*
X418957Y255994D01*
X418904Y256256D01*
X418829Y256510D01*
X418733Y256758D01*
X418616Y256999D01*
X418477Y257232D01*
X418317Y257459D01*
X418136Y257679D01*
X417933Y257891D01*
X422067D01*
X421864Y257679D01*
D02*
G37*
G36*
X421011Y254274D02*
X421043Y254006D01*
X421096Y253744D01*
X421171Y253489D01*
X421267Y253242D01*
X421384Y253001D01*
X421523Y252768D01*
X421683Y252541D01*
X421864Y252321D01*
X422067Y252109D01*
X417933D01*
X418136Y252321D01*
X418317Y252541D01*
X418477Y252768D01*
X418616Y253001D01*
X418733Y253242D01*
X418829Y253489D01*
X418904Y253744D01*
X418957Y254006D01*
X418989Y254274D01*
X419000Y254550D01*
X421000D01*
X421011Y254274D01*
D02*
G37*
G36*
X455643Y322850D02*
X455592Y322785D01*
X455547Y322715D01*
X455508Y322642D01*
X455475Y322564D01*
X455448Y322481D01*
X455427Y322394D01*
X455412Y322304D01*
X455403Y322208D01*
X455400Y322109D01*
X454600D01*
X454597Y322208D01*
X454588Y322304D01*
X454573Y322394D01*
X454552Y322481D01*
X454525Y322564D01*
X454492Y322642D01*
X454453Y322715D01*
X454408Y322785D01*
X454357Y322850D01*
X454300Y322911D01*
X455700D01*
X455643Y322850D01*
D02*
G37*
G36*
X453143Y305225D02*
X453092Y305160D01*
X453047Y305090D01*
X453008Y305016D01*
X452975Y304938D01*
X452948Y304856D01*
X452927Y304769D01*
X452912Y304678D01*
X452903Y304583D01*
X452900Y304484D01*
X452100D01*
X452097Y304583D01*
X452088Y304678D01*
X452073Y304769D01*
X452052Y304856D01*
X452025Y304938D01*
X451992Y305016D01*
X451953Y305090D01*
X451908Y305160D01*
X451857Y305225D01*
X451800Y305286D01*
X453200D01*
X453143Y305225D01*
D02*
G37*
G36*
X461810Y297039D02*
X461640Y296979D01*
X461490Y296879D01*
X461360Y296739D01*
X461250Y296559D01*
X461160Y296339D01*
X461090Y296079D01*
X461040Y295779D01*
X461010Y295439D01*
X461000Y295059D01*
X459000D01*
X458990Y295439D01*
X458960Y295779D01*
X458910Y296079D01*
X458840Y296339D01*
X458750Y296559D01*
X458640Y296739D01*
X458510Y296879D01*
X458360Y296979D01*
X458190Y297039D01*
X458000Y297059D01*
X462000D01*
X461810Y297039D01*
D02*
G37*
G36*
X461011Y294274D02*
X461043Y294006D01*
X461096Y293744D01*
X461171Y293490D01*
X461267Y293242D01*
X461384Y293001D01*
X461523Y292768D01*
X461683Y292541D01*
X461864Y292321D01*
X462067Y292109D01*
X457933D01*
X458136Y292321D01*
X458317Y292541D01*
X458477Y292768D01*
X458616Y293001D01*
X458733Y293242D01*
X458829Y293490D01*
X458904Y293744D01*
X458957Y294006D01*
X458989Y294274D01*
X459000Y294550D01*
X461000D01*
X461011Y294274D01*
D02*
G37*
G36*
X450089Y287137D02*
X450038Y287072D01*
X449993Y287002D01*
X449954Y286928D01*
X449921Y286850D01*
X449894Y286768D01*
X449873Y286681D01*
X449858Y286590D01*
X449849Y286495D01*
X449846Y286396D01*
X449046D01*
X449043Y286495D01*
X449034Y286590D01*
X449019Y286681D01*
X448998Y286768D01*
X448971Y286850D01*
X448938Y286928D01*
X448899Y287002D01*
X448854Y287072D01*
X448803Y287137D01*
X448746Y287198D01*
X450146D01*
X450089Y287137D01*
D02*
G37*
G36*
X457113Y283476D02*
X457298Y283362D01*
X457516Y283262D01*
X457767Y283176D01*
X458051Y283104D01*
X458369Y283046D01*
X458719Y283001D01*
X459520Y282955D01*
X459971Y282953D01*
X457047Y280030D01*
X457045Y280480D01*
X456998Y281281D01*
X456954Y281631D01*
X456896Y281949D01*
X456824Y282233D01*
X456738Y282484D01*
X456638Y282702D01*
X456524Y282887D01*
X456396Y283039D01*
X456961Y283604D01*
X457113Y283476D01*
D02*
G37*
G36*
X447071Y277225D02*
X447020Y277160D01*
X446975Y277090D01*
X446936Y277016D01*
X446903Y276938D01*
X446876Y276856D01*
X446855Y276769D01*
X446840Y276678D01*
X446831Y276583D01*
X446828Y276483D01*
X446028D01*
X446025Y276583D01*
X446016Y276678D01*
X446001Y276769D01*
X445980Y276856D01*
X445953Y276938D01*
X445920Y277016D01*
X445881Y277090D01*
X445836Y277160D01*
X445785Y277225D01*
X445728Y277286D01*
X447128D01*
X447071Y277225D01*
D02*
G37*
G36*
X457113Y273476D02*
X457298Y273362D01*
X457516Y273262D01*
X457767Y273176D01*
X458051Y273104D01*
X458369Y273046D01*
X458719Y273002D01*
X459520Y272955D01*
X459971Y272953D01*
X457047Y270029D01*
X457045Y270480D01*
X456998Y271281D01*
X456954Y271631D01*
X456896Y271949D01*
X456824Y272233D01*
X456738Y272484D01*
X456638Y272702D01*
X456524Y272887D01*
X456396Y273039D01*
X456961Y273604D01*
X457113Y273476D01*
D02*
G37*
G36*
Y263476D02*
X457298Y263362D01*
X457516Y263262D01*
X457767Y263176D01*
X458051Y263104D01*
X458369Y263046D01*
X458719Y263001D01*
X459520Y262955D01*
X459971Y262953D01*
X457047Y260030D01*
X457045Y260480D01*
X456998Y261281D01*
X456954Y261631D01*
X456896Y261949D01*
X456824Y262233D01*
X456738Y262484D01*
X456638Y262702D01*
X456524Y262887D01*
X456396Y263039D01*
X456961Y263604D01*
X457113Y263476D01*
D02*
G37*
G36*
Y253476D02*
X457298Y253362D01*
X457516Y253262D01*
X457767Y253176D01*
X458051Y253104D01*
X458369Y253046D01*
X458719Y253001D01*
X459520Y252955D01*
X459971Y252953D01*
X457047Y250029D01*
X457045Y250480D01*
X456998Y251281D01*
X456954Y251631D01*
X456896Y251949D01*
X456824Y252233D01*
X456738Y252484D01*
X456638Y252702D01*
X456524Y252887D01*
X456396Y253039D01*
X456961Y253604D01*
X457113Y253476D01*
D02*
G37*
G36*
X457891Y237933D02*
X457571Y238250D01*
X456972Y238783D01*
X456693Y239000D01*
X456427Y239183D01*
X456175Y239333D01*
X455937Y239450D01*
X455712Y239533D01*
X455501Y239583D01*
X455303Y239600D01*
Y240400D01*
X455501Y240417D01*
X455712Y240467D01*
X455937Y240550D01*
X456175Y240667D01*
X456427Y240817D01*
X456693Y241000D01*
X456972Y241217D01*
X457571Y241750D01*
X457891Y242067D01*
Y237933D01*
D02*
G37*
G36*
X449946Y239380D02*
X449785Y239184D01*
X449642Y238936D01*
X449517Y238634D01*
X449409Y238279D01*
X449319Y237872D01*
X449247Y237412D01*
X449155Y236332D01*
X449135Y235713D01*
X449134Y235041D01*
X445041Y239134D01*
X445713Y239136D01*
X447412Y239247D01*
X447872Y239319D01*
X448279Y239409D01*
X448634Y239517D01*
X448936Y239642D01*
X449185Y239785D01*
X449380Y239946D01*
X449946Y239380D01*
D02*
G37*
G36*
X421810Y212531D02*
X421640Y212471D01*
X421490Y212371D01*
X421360Y212231D01*
X421250Y212051D01*
X421160Y211831D01*
X421090Y211571D01*
X421040Y211271D01*
X421010Y210931D01*
X421000Y210551D01*
X419000D01*
X418990Y210931D01*
X418960Y211271D01*
X418910Y211571D01*
X418840Y211831D01*
X418750Y212051D01*
X418640Y212231D01*
X418510Y212371D01*
X418360Y212471D01*
X418190Y212531D01*
X418000Y212551D01*
X422000D01*
X421810Y212531D01*
D02*
G37*
G36*
X421011Y204274D02*
X421043Y204006D01*
X421096Y203744D01*
X421171Y203489D01*
X421267Y203242D01*
X421384Y203001D01*
X421523Y202768D01*
X421683Y202541D01*
X421864Y202321D01*
X422067Y202109D01*
X417933D01*
X418136Y202321D01*
X418317Y202541D01*
X418477Y202768D01*
X418616Y203001D01*
X418733Y203242D01*
X418829Y203489D01*
X418904Y203744D01*
X418957Y204006D01*
X418989Y204274D01*
X419000Y204550D01*
X421000D01*
X421011Y204274D01*
D02*
G37*
G36*
X279971Y237047D02*
X279520Y237045D01*
X278719Y236999D01*
X278369Y236954D01*
X278051Y236896D01*
X277767Y236824D01*
X277516Y236738D01*
X277298Y236638D01*
X277113Y236524D01*
X276961Y236396D01*
X276396Y236961D01*
X276524Y237113D01*
X276638Y237298D01*
X276738Y237516D01*
X276824Y237767D01*
X276896Y238051D01*
X276954Y238369D01*
X276998Y238719D01*
X277045Y239520D01*
X277047Y239970D01*
X279971Y237047D01*
D02*
G37*
G36*
X281810Y197039D02*
X281640Y196979D01*
X281490Y196879D01*
X281360Y196739D01*
X281250Y196559D01*
X281160Y196339D01*
X281090Y196079D01*
X281040Y195779D01*
X281010Y195439D01*
X281000Y195059D01*
X279000D01*
X278990Y195439D01*
X278960Y195779D01*
X278910Y196079D01*
X278840Y196339D01*
X278750Y196559D01*
X278640Y196739D01*
X278510Y196879D01*
X278360Y196979D01*
X278190Y197039D01*
X278000Y197059D01*
X282000D01*
X281810Y197039D01*
D02*
G37*
G36*
X281011Y194274D02*
X281043Y194006D01*
X281096Y193744D01*
X281171Y193490D01*
X281267Y193242D01*
X281384Y193001D01*
X281523Y192768D01*
X281683Y192541D01*
X281864Y192321D01*
X282067Y192109D01*
X277933D01*
X278136Y192321D01*
X278317Y192541D01*
X278477Y192768D01*
X278616Y193001D01*
X278733Y193242D01*
X278829Y193490D01*
X278904Y193744D01*
X278957Y194006D01*
X278989Y194274D01*
X279000Y194550D01*
X281000D01*
X281011Y194274D01*
D02*
G37*
G36*
X277113Y143476D02*
X277298Y143362D01*
X277516Y143262D01*
X277767Y143176D01*
X278051Y143104D01*
X278369Y143046D01*
X278719Y143001D01*
X279520Y142955D01*
X279971Y142953D01*
X277047Y140030D01*
X277045Y140480D01*
X276998Y141281D01*
X276954Y141631D01*
X276896Y141949D01*
X276824Y142233D01*
X276738Y142484D01*
X276638Y142702D01*
X276524Y142887D01*
X276396Y143039D01*
X276961Y143604D01*
X277113Y143476D01*
D02*
G37*
G36*
X225143Y332725D02*
X225092Y332660D01*
X225047Y332590D01*
X225008Y332516D01*
X224975Y332438D01*
X224948Y332356D01*
X224927Y332269D01*
X224912Y332178D01*
X224903Y332083D01*
X224900Y331983D01*
X224100D01*
X224097Y332083D01*
X224088Y332178D01*
X224073Y332269D01*
X224052Y332356D01*
X224025Y332438D01*
X223992Y332516D01*
X223953Y332590D01*
X223908Y332660D01*
X223857Y332725D01*
X223800Y332786D01*
X225200D01*
X225143Y332725D01*
D02*
G37*
G36*
X227643Y325225D02*
X227592Y325160D01*
X227547Y325090D01*
X227508Y325016D01*
X227475Y324938D01*
X227448Y324856D01*
X227427Y324769D01*
X227412Y324678D01*
X227403Y324583D01*
X227400Y324483D01*
X226600D01*
X226597Y324583D01*
X226588Y324678D01*
X226573Y324769D01*
X226552Y324856D01*
X226525Y324938D01*
X226492Y325016D01*
X226453Y325090D01*
X226408Y325160D01*
X226357Y325225D01*
X226300Y325286D01*
X227700D01*
X227643Y325225D01*
D02*
G37*
G36*
X230143Y313378D02*
X230092Y313313D01*
X230047Y313243D01*
X230008Y313169D01*
X229975Y313091D01*
X229948Y313009D01*
X229927Y312922D01*
X229912Y312831D01*
X229903Y312736D01*
X229900Y312636D01*
X229100D01*
X229097Y312736D01*
X229088Y312831D01*
X229073Y312922D01*
X229052Y313009D01*
X229025Y313091D01*
X228992Y313169D01*
X228953Y313243D01*
X228908Y313313D01*
X228857Y313378D01*
X228800Y313439D01*
X230200D01*
X230143Y313378D01*
D02*
G37*
G36*
X232643Y302225D02*
X232592Y302160D01*
X232547Y302090D01*
X232508Y302016D01*
X232475Y301938D01*
X232448Y301856D01*
X232427Y301769D01*
X232412Y301678D01*
X232403Y301583D01*
X232400Y301483D01*
X231600D01*
X231597Y301583D01*
X231588Y301678D01*
X231573Y301769D01*
X231552Y301856D01*
X231525Y301938D01*
X231492Y302016D01*
X231453Y302090D01*
X231408Y302160D01*
X231357Y302225D01*
X231300Y302286D01*
X232700D01*
X232643Y302225D01*
D02*
G37*
G36*
X221810Y297039D02*
X221640Y296979D01*
X221490Y296879D01*
X221360Y296739D01*
X221250Y296559D01*
X221160Y296339D01*
X221090Y296079D01*
X221040Y295779D01*
X221010Y295439D01*
X221000Y295059D01*
X219000D01*
X218990Y295439D01*
X218960Y295779D01*
X218910Y296079D01*
X218840Y296339D01*
X218750Y296559D01*
X218640Y296739D01*
X218510Y296879D01*
X218360Y296979D01*
X218190Y297039D01*
X218000Y297059D01*
X222000D01*
X221810Y297039D01*
D02*
G37*
G36*
X221011Y294274D02*
X221043Y294006D01*
X221096Y293744D01*
X221171Y293490D01*
X221267Y293242D01*
X221384Y293001D01*
X221523Y292768D01*
X221683Y292541D01*
X221864Y292321D01*
X222067Y292109D01*
X217933D01*
X218136Y292321D01*
X218317Y292541D01*
X218477Y292768D01*
X218616Y293001D01*
X218733Y293242D01*
X218829Y293490D01*
X218904Y293744D01*
X218957Y294006D01*
X218989Y294274D01*
X219000Y294550D01*
X221000D01*
X221011Y294274D01*
D02*
G37*
G36*
X223604Y283039D02*
X223476Y282887D01*
X223362Y282702D01*
X223262Y282484D01*
X223176Y282233D01*
X223104Y281949D01*
X223046Y281631D01*
X223002Y281281D01*
X222955Y280480D01*
X222953Y280030D01*
X220029Y282953D01*
X220480Y282955D01*
X221281Y283001D01*
X221631Y283046D01*
X221949Y283104D01*
X222233Y283176D01*
X222484Y283262D01*
X222702Y283362D01*
X222887Y283476D01*
X223039Y283604D01*
X223604Y283039D01*
D02*
G37*
G36*
Y273039D02*
X223476Y272887D01*
X223362Y272702D01*
X223262Y272484D01*
X223176Y272233D01*
X223104Y271949D01*
X223046Y271631D01*
X223002Y271281D01*
X222955Y270480D01*
X222953Y270029D01*
X220029Y272953D01*
X220480Y272955D01*
X221281Y273002D01*
X221631Y273046D01*
X221949Y273104D01*
X222233Y273176D01*
X222484Y273262D01*
X222702Y273362D01*
X222887Y273476D01*
X223039Y273604D01*
X223604Y273039D01*
D02*
G37*
G36*
Y263039D02*
X223476Y262887D01*
X223362Y262702D01*
X223262Y262484D01*
X223176Y262233D01*
X223104Y261949D01*
X223046Y261631D01*
X223002Y261281D01*
X222955Y260480D01*
X222953Y260030D01*
X220029Y262953D01*
X220480Y262955D01*
X221281Y263001D01*
X221631Y263046D01*
X221949Y263104D01*
X222233Y263176D01*
X222484Y263262D01*
X222702Y263362D01*
X222887Y263476D01*
X223039Y263604D01*
X223604Y263039D01*
D02*
G37*
G36*
Y253039D02*
X223476Y252887D01*
X223362Y252702D01*
X223262Y252484D01*
X223176Y252233D01*
X223104Y251949D01*
X223046Y251631D01*
X223002Y251281D01*
X222955Y250480D01*
X222953Y250029D01*
X220029Y252953D01*
X220480Y252955D01*
X221281Y253001D01*
X221631Y253046D01*
X221949Y253104D01*
X222233Y253176D01*
X222484Y253262D01*
X222702Y253362D01*
X222887Y253476D01*
X223039Y253604D01*
X223604Y253039D01*
D02*
G37*
G36*
X225143Y236225D02*
X225092Y236160D01*
X225047Y236090D01*
X225008Y236016D01*
X224975Y235938D01*
X224948Y235856D01*
X224927Y235769D01*
X224912Y235678D01*
X224903Y235583D01*
X224900Y235484D01*
X224100D01*
X224097Y235583D01*
X224088Y235678D01*
X224073Y235769D01*
X224052Y235856D01*
X224025Y235938D01*
X223992Y236016D01*
X223953Y236090D01*
X223908Y236160D01*
X223857Y236225D01*
X223800Y236286D01*
X225200D01*
X225143Y236225D01*
D02*
G37*
G36*
X227643Y226225D02*
X227592Y226160D01*
X227547Y226090D01*
X227508Y226016D01*
X227475Y225938D01*
X227448Y225856D01*
X227427Y225769D01*
X227412Y225678D01*
X227403Y225583D01*
X227400Y225483D01*
X226600D01*
X226597Y225583D01*
X226588Y225678D01*
X226573Y225769D01*
X226552Y225856D01*
X226525Y225938D01*
X226492Y226016D01*
X226453Y226090D01*
X226408Y226160D01*
X226357Y226225D01*
X226300Y226286D01*
X227700D01*
X227643Y226225D01*
D02*
G37*
G36*
X230143Y215072D02*
X230092Y215007D01*
X230047Y214937D01*
X230008Y214863D01*
X229975Y214785D01*
X229948Y214703D01*
X229927Y214616D01*
X229912Y214525D01*
X229903Y214430D01*
X229900Y214331D01*
X229100D01*
X229097Y214430D01*
X229088Y214525D01*
X229073Y214616D01*
X229052Y214703D01*
X229025Y214785D01*
X228992Y214863D01*
X228953Y214937D01*
X228908Y215007D01*
X228857Y215072D01*
X228800Y215133D01*
X230200D01*
X230143Y215072D01*
D02*
G37*
G36*
X232643Y197224D02*
X232592Y197159D01*
X232547Y197089D01*
X232508Y197015D01*
X232475Y196937D01*
X232448Y196855D01*
X232427Y196768D01*
X232412Y196677D01*
X232403Y196582D01*
X232400Y196483D01*
X231600D01*
X231597Y196582D01*
X231588Y196677D01*
X231573Y196768D01*
X231552Y196855D01*
X231525Y196937D01*
X231492Y197015D01*
X231453Y197089D01*
X231408Y197159D01*
X231357Y197224D01*
X231300Y197285D01*
X232700D01*
X232643Y197224D01*
D02*
G37*
G36*
X221810Y197039D02*
X221640Y196979D01*
X221490Y196879D01*
X221360Y196739D01*
X221250Y196559D01*
X221160Y196339D01*
X221090Y196079D01*
X221040Y195779D01*
X221010Y195439D01*
X221000Y195059D01*
X219000D01*
X218990Y195439D01*
X218960Y195779D01*
X218910Y196079D01*
X218840Y196339D01*
X218750Y196559D01*
X218640Y196739D01*
X218510Y196879D01*
X218360Y196979D01*
X218190Y197039D01*
X218000Y197059D01*
X222000D01*
X221810Y197039D01*
D02*
G37*
G36*
X221011Y194274D02*
X221043Y194006D01*
X221096Y193744D01*
X221171Y193490D01*
X221267Y193242D01*
X221384Y193001D01*
X221523Y192768D01*
X221683Y192541D01*
X221864Y192321D01*
X222067Y192109D01*
X217933D01*
X218136Y192321D01*
X218317Y192541D01*
X218477Y192768D01*
X218616Y193001D01*
X218733Y193242D01*
X218829Y193490D01*
X218904Y193744D01*
X218957Y194006D01*
X218989Y194274D01*
X219000Y194550D01*
X221000D01*
X221011Y194274D01*
D02*
G37*
G36*
X223604Y183039D02*
X223476Y182887D01*
X223362Y182702D01*
X223262Y182484D01*
X223176Y182233D01*
X223104Y181949D01*
X223046Y181631D01*
X223002Y181281D01*
X222955Y180480D01*
X222953Y180029D01*
X220029Y182953D01*
X220480Y182955D01*
X221281Y183001D01*
X221631Y183046D01*
X221949Y183104D01*
X222233Y183176D01*
X222484Y183262D01*
X222702Y183362D01*
X222887Y183476D01*
X223039Y183604D01*
X223604Y183039D01*
D02*
G37*
G36*
Y173039D02*
X223476Y172887D01*
X223362Y172702D01*
X223262Y172484D01*
X223176Y172233D01*
X223104Y171949D01*
X223046Y171631D01*
X223002Y171281D01*
X222955Y170480D01*
X222953Y170029D01*
X220029Y172953D01*
X220480Y172955D01*
X221281Y173001D01*
X221631Y173046D01*
X221949Y173104D01*
X222233Y173176D01*
X222484Y173262D01*
X222702Y173362D01*
X222887Y173476D01*
X223039Y173604D01*
X223604Y173039D01*
D02*
G37*
G36*
Y163039D02*
X223476Y162887D01*
X223362Y162702D01*
X223262Y162484D01*
X223176Y162233D01*
X223104Y161949D01*
X223046Y161631D01*
X223002Y161281D01*
X222955Y160480D01*
X222953Y160029D01*
X220029Y162953D01*
X220480Y162955D01*
X221281Y163001D01*
X221631Y163046D01*
X221949Y163104D01*
X222233Y163176D01*
X222484Y163262D01*
X222702Y163362D01*
X222887Y163476D01*
X223039Y163604D01*
X223604Y163039D01*
D02*
G37*
G36*
Y153039D02*
X223476Y152887D01*
X223362Y152702D01*
X223262Y152484D01*
X223176Y152233D01*
X223104Y151949D01*
X223046Y151631D01*
X223002Y151281D01*
X222955Y150480D01*
X222953Y150030D01*
X220029Y152953D01*
X220480Y152955D01*
X221281Y153001D01*
X221631Y153046D01*
X221949Y153104D01*
X222233Y153176D01*
X222484Y153262D01*
X222702Y153362D01*
X222887Y153476D01*
X223039Y153604D01*
X223604Y153039D01*
D02*
G37*
D24*
X481000Y261000D02*
X490000Y270000D01*
X481000Y235000D02*
Y261000D01*
X254500Y144500D02*
Y338000D01*
X250000Y140000D02*
X254500Y144500D01*
X220000Y160000D02*
X229500Y169500D01*
Y215847D01*
X262000Y260000D02*
Y260063D01*
Y260000D02*
X262000Y206300D01*
Y160000D02*
Y206300D01*
X232000Y162000D02*
Y197999D01*
X264500Y194153D02*
Y250000D01*
Y150000D02*
Y194000D01*
X227000Y177000D02*
Y227000D01*
X224500Y184500D02*
Y237000D01*
X220000Y170000D02*
X227000Y177000D01*
X220000Y150000D02*
X232000Y162000D01*
X220000Y180000D02*
X224500Y184500D01*
X375000Y127152D02*
Y145000D01*
X197064Y120000D02*
X367848D01*
X375000Y127152D01*
X190000Y127064D02*
Y145000D01*
Y127064D02*
X197064Y120000D01*
X321000Y150000D02*
X324500Y153500D01*
X310000Y150000D02*
X321000D01*
X324500Y250000D02*
X324500Y153500D01*
X165500Y240107D02*
X165500Y331000D01*
X165500Y164500D02*
Y240107D01*
Y164500D02*
X180000Y150000D01*
X158000Y180000D02*
X158000Y350000D01*
X160500Y170000D02*
X160500Y341000D01*
X163000Y160000D02*
X163000Y335700D01*
X224500Y284500D02*
Y333500D01*
X220000Y280000D02*
X224500Y284500D01*
X172849Y307151D02*
X180000Y300000D01*
X172849Y307151D02*
Y318349D01*
X446428Y263572D02*
Y278000D01*
Y263572D02*
X460000Y250000D01*
X449446Y270554D02*
Y287912D01*
Y270554D02*
X460000Y260000D01*
X452500Y277500D02*
Y306000D01*
Y277500D02*
X460000Y270000D01*
X455000Y285000D02*
Y323625D01*
Y285000D02*
X460000Y280000D01*
X495000Y245000D02*
Y328661D01*
X490000Y240000D02*
X495000Y245000D01*
X490000Y230000D02*
Y240000D01*
X317000Y180000D02*
Y280000D01*
X319500Y170000D02*
Y270000D01*
X322000Y260063D02*
X322000Y160000D01*
X259500Y170000D02*
Y270000D01*
X257000Y180000D02*
Y280000D01*
X232000Y262000D02*
Y303000D01*
X220000Y250000D02*
X232000Y262000D01*
X227000Y277000D02*
Y326000D01*
X229500Y269500D02*
Y314153D01*
X220000Y260000D02*
X229500Y269500D01*
X220000Y270000D02*
X227000Y277000D01*
X314500Y244500D02*
Y344153D01*
X310000Y240000D02*
X314500Y244500D01*
X175500Y214500D02*
Y230000D01*
Y214500D02*
X180000Y210000D01*
X375000Y145000D02*
Y185000D01*
X390000Y200000D01*
X395000Y195000D02*
Y294153D01*
X390000Y190000D02*
X395000Y195000D01*
X310000Y230000D02*
Y240000D01*
X250000Y230000D02*
Y240000D01*
X310000Y130000D02*
Y140000D01*
X250000Y130000D02*
Y140000D01*
X450000Y240000D02*
X460000D01*
X445000Y235000D02*
X450000Y240000D01*
X275500Y235500D02*
X280000Y240000D01*
X275500Y144500D02*
Y235500D01*
Y144500D02*
X280000Y140000D01*
D25*
X120000Y130000D02*
X130000D01*
X110000D02*
X120000D01*
X200000Y190000D02*
Y220000D01*
Y130000D02*
Y190000D01*
X280000D02*
Y200000D01*
X420000Y250000D02*
Y260000D01*
X414500Y265500D02*
X420000Y260000D01*
X414500Y265500D02*
Y274500D01*
X420000Y280000D01*
Y290000D01*
X410157Y299843D02*
Y315000D01*
Y299843D02*
X420000Y290000D01*
X180000Y270000D02*
Y280000D01*
X200000D02*
Y310000D01*
Y220000D02*
Y280000D01*
X390000Y220000D02*
Y240000D01*
X340000Y220000D02*
Y240000D01*
X280000Y200000D02*
Y220000D01*
Y230000D01*
X220000Y220000D02*
Y230000D01*
Y200000D02*
Y220000D01*
X185000Y210000D02*
X190000D01*
X185000Y320000D02*
X185000Y320000D01*
Y350000D01*
X170158Y325000D02*
X180000Y315158D01*
Y310000D02*
Y315158D01*
X185000Y320000D02*
Y325000D01*
X180000D02*
X185000D01*
Y245000D02*
X190000D01*
X185000Y200000D02*
Y220000D01*
Y200000D02*
X185000Y139147D01*
X180000Y200000D02*
X185000D01*
X150000Y121063D02*
Y135000D01*
Y150000D01*
X180000Y121063D02*
X185000Y126063D01*
Y139147D01*
X185000Y220000D02*
Y245000D01*
Y320000D01*
X190000D01*
X220000Y190000D02*
Y200000D01*
X420000Y170000D02*
X425000Y165000D01*
Y155000D02*
Y165000D01*
X420000Y150000D02*
X425000Y155000D01*
X420000Y170000D02*
X425000Y175000D01*
Y185000D01*
X420000Y190000D02*
X425000Y185000D01*
X280000Y290000D02*
Y300000D01*
X220000Y290000D02*
Y300000D01*
X280000D02*
Y310000D01*
X220000Y300000D02*
Y310000D01*
X460000Y300000D02*
Y310000D01*
Y290000D02*
Y300000D01*
X420000Y200000D02*
Y215000D01*
X310000Y200000D02*
Y215000D01*
X250000Y200000D02*
Y215000D01*
X490000Y300000D02*
Y315000D01*
X420000Y300000D02*
Y315000D01*
X370000Y300000D02*
Y315000D01*
X310000Y300000D02*
Y315000D01*
X250000Y300000D02*
Y315000D01*
D26*
X200000Y130000D02*
D03*
X185000Y350000D02*
D03*
X270000Y335000D02*
D03*
X330000Y340000D02*
D03*
X445000Y235000D02*
D03*
X375000Y145000D02*
D03*
X510000Y285000D02*
D03*
Y270000D02*
D03*
Y255000D02*
D03*
Y240000D02*
D03*
Y225000D02*
D03*
D27*
X120000Y350000D02*
D03*
Y340000D02*
D03*
Y330000D02*
D03*
Y320000D02*
D03*
Y310000D02*
D03*
Y300000D02*
D03*
Y290000D02*
D03*
Y280000D02*
D03*
Y270000D02*
D03*
Y260000D02*
D03*
Y250000D02*
D03*
Y240000D02*
D03*
Y230000D02*
D03*
Y220000D02*
D03*
Y210000D02*
D03*
Y200000D02*
D03*
Y190000D02*
D03*
Y180000D02*
D03*
Y170000D02*
D03*
Y160000D02*
D03*
Y150000D02*
D03*
Y140000D02*
D03*
Y130000D02*
D03*
X130000Y350000D02*
D03*
Y340000D02*
D03*
Y330000D02*
D03*
Y320000D02*
D03*
Y310000D02*
D03*
Y300000D02*
D03*
Y290000D02*
D03*
Y280000D02*
D03*
Y270000D02*
D03*
Y260000D02*
D03*
Y250000D02*
D03*
Y240000D02*
D03*
Y230000D02*
D03*
Y220000D02*
D03*
Y210000D02*
D03*
Y200000D02*
D03*
Y190000D02*
D03*
Y180000D02*
D03*
Y170000D02*
D03*
Y160000D02*
D03*
Y150000D02*
D03*
Y140000D02*
D03*
Y130000D02*
D03*
X110000Y220000D02*
D03*
Y210000D02*
D03*
Y240000D02*
D03*
Y230000D02*
D03*
Y200000D02*
D03*
Y190000D02*
D03*
Y180000D02*
D03*
Y170000D02*
D03*
Y130000D02*
D03*
Y140000D02*
D03*
Y150000D02*
D03*
Y160000D02*
D03*
Y250000D02*
D03*
Y260000D02*
D03*
Y270000D02*
D03*
Y280000D02*
D03*
Y290000D02*
D03*
Y300000D02*
D03*
Y310000D02*
D03*
Y320000D02*
D03*
Y330000D02*
D03*
Y340000D02*
D03*
Y350000D02*
D03*
D28*
X120000Y120000D02*
D03*
X130000D02*
D03*
X110000D02*
D03*
D29*
X180000Y121063D02*
D03*
D30*
X180000Y128937D02*
D03*
X159843Y135000D02*
D03*
X170158Y325000D02*
D03*
X410157Y215000D02*
D03*
X480158Y315000D02*
D03*
X410157D02*
D03*
X360157D02*
D03*
X300157D02*
D03*
X240158D02*
D03*
Y215000D02*
D03*
X300157D02*
D03*
D31*
X150000Y135000D02*
D03*
X180000Y325000D02*
D03*
X420000Y215000D02*
D03*
X490000Y315000D02*
D03*
X420000D02*
D03*
X370000D02*
D03*
X310000D02*
D03*
X250000D02*
D03*
Y215000D02*
D03*
X310000D02*
D03*
D32*
X460000Y280000D02*
D03*
Y250000D02*
D03*
X490000D02*
D03*
Y280000D02*
D03*
X150000Y310000D02*
D03*
Y300000D02*
D03*
Y290000D02*
D03*
Y280000D02*
D03*
Y270000D02*
D03*
Y260000D02*
D03*
Y250000D02*
D03*
Y240000D02*
D03*
X180000Y310000D02*
D03*
Y300000D02*
D03*
Y290000D02*
D03*
Y280000D02*
D03*
Y270000D02*
D03*
Y260000D02*
D03*
Y250000D02*
D03*
X150000Y220000D02*
D03*
Y210000D02*
D03*
Y200000D02*
D03*
Y190000D02*
D03*
Y180000D02*
D03*
Y170000D02*
D03*
Y160000D02*
D03*
Y150000D02*
D03*
X180000Y220000D02*
D03*
Y210000D02*
D03*
Y200000D02*
D03*
Y190000D02*
D03*
Y180000D02*
D03*
Y170000D02*
D03*
Y160000D02*
D03*
X370000Y240000D02*
D03*
Y270000D02*
D03*
Y250000D02*
D03*
Y280000D02*
D03*
X310000Y230000D02*
D03*
Y240000D02*
D03*
Y250000D02*
D03*
Y260000D02*
D03*
Y270000D02*
D03*
Y280000D02*
D03*
Y290000D02*
D03*
Y300000D02*
D03*
X280000Y230000D02*
D03*
Y240000D02*
D03*
Y250000D02*
D03*
Y260000D02*
D03*
Y270000D02*
D03*
Y280000D02*
D03*
Y290000D02*
D03*
X370000Y260000D02*
D03*
Y290000D02*
D03*
Y300000D02*
D03*
X340000Y240000D02*
D03*
Y250000D02*
D03*
Y260000D02*
D03*
Y270000D02*
D03*
Y280000D02*
D03*
Y290000D02*
D03*
X310000Y130000D02*
D03*
Y140000D02*
D03*
Y150000D02*
D03*
Y160000D02*
D03*
Y170000D02*
D03*
Y180000D02*
D03*
Y190000D02*
D03*
Y200000D02*
D03*
X280000Y130000D02*
D03*
Y140000D02*
D03*
Y150000D02*
D03*
Y160000D02*
D03*
Y170000D02*
D03*
Y180000D02*
D03*
Y190000D02*
D03*
X250000Y130000D02*
D03*
Y140000D02*
D03*
Y150000D02*
D03*
Y160000D02*
D03*
Y170000D02*
D03*
Y180000D02*
D03*
Y190000D02*
D03*
Y200000D02*
D03*
X220000Y130000D02*
D03*
Y140000D02*
D03*
Y150000D02*
D03*
Y160000D02*
D03*
Y170000D02*
D03*
Y180000D02*
D03*
Y190000D02*
D03*
X250000Y230000D02*
D03*
Y240000D02*
D03*
Y250000D02*
D03*
Y260000D02*
D03*
Y270000D02*
D03*
Y280000D02*
D03*
Y290000D02*
D03*
Y300000D02*
D03*
X220000Y230000D02*
D03*
Y240000D02*
D03*
Y250000D02*
D03*
Y260000D02*
D03*
Y270000D02*
D03*
Y280000D02*
D03*
Y290000D02*
D03*
X490000Y270000D02*
D03*
X390000D02*
D03*
Y260000D02*
D03*
Y290000D02*
D03*
X490000Y230000D02*
D03*
Y240000D02*
D03*
Y260000D02*
D03*
Y290000D02*
D03*
Y300000D02*
D03*
X460000Y230000D02*
D03*
Y240000D02*
D03*
Y260000D02*
D03*
Y270000D02*
D03*
Y290000D02*
D03*
X390000Y280000D02*
D03*
Y250000D02*
D03*
Y240000D02*
D03*
X420000Y300000D02*
D03*
Y290000D02*
D03*
Y280000D02*
D03*
Y270000D02*
D03*
Y260000D02*
D03*
Y250000D02*
D03*
Y240000D02*
D03*
X390000Y190000D02*
D03*
Y180000D02*
D03*
Y170000D02*
D03*
Y160000D02*
D03*
Y150000D02*
D03*
Y140000D02*
D03*
X420000Y200000D02*
D03*
Y190000D02*
D03*
Y180000D02*
D03*
Y170000D02*
D03*
Y160000D02*
D03*
Y150000D02*
D03*
Y140000D02*
D03*
D33*
X180000Y240000D02*
D03*
Y150000D02*
D03*
X280000Y300000D02*
D03*
X340000D02*
D03*
X280000Y200000D02*
D03*
X220000D02*
D03*
Y300000D02*
D03*
X390000D02*
D03*
X460000D02*
D03*
X390000Y200000D02*
D03*
D34*
X171500Y134000D02*
D03*
X193957Y154920D02*
D03*
X209726Y146874D02*
D03*
X208572Y243154D02*
D03*
X211500Y257500D02*
D03*
X192000D02*
D03*
X210000Y350500D02*
D03*
X230000D02*
D03*
X250000D02*
D03*
X270000D02*
D03*
X290000D02*
D03*
X310000D02*
D03*
X610000Y340000D02*
D03*
X600000Y320000D02*
D03*
X610000Y300000D02*
D03*
X600000Y280000D02*
D03*
X610000Y260000D02*
D03*
X600000Y240000D02*
D03*
X610000Y220000D02*
D03*
X600000Y200000D02*
D03*
X610000Y180000D02*
D03*
X600000Y160000D02*
D03*
X610000Y140000D02*
D03*
X580000Y320000D02*
D03*
X590000Y300000D02*
D03*
X580000Y280000D02*
D03*
X590000Y260000D02*
D03*
X580000Y240000D02*
D03*
X590000Y220000D02*
D03*
X580000Y200000D02*
D03*
X590000Y180000D02*
D03*
X580000Y160000D02*
D03*
X590000Y140000D02*
D03*
X580000Y120000D02*
D03*
X570000Y340000D02*
D03*
X560000Y320000D02*
D03*
X570000Y300000D02*
D03*
X560000Y280000D02*
D03*
X570000Y260000D02*
D03*
X560000Y240000D02*
D03*
X570000Y220000D02*
D03*
X560000Y200000D02*
D03*
X570000Y180000D02*
D03*
X560000Y160000D02*
D03*
X570000Y140000D02*
D03*
X560000Y120000D02*
D03*
X550000Y340000D02*
D03*
X540000Y320000D02*
D03*
X550000Y300000D02*
D03*
X540000Y280000D02*
D03*
X550000Y260000D02*
D03*
X540000Y240000D02*
D03*
X550000Y220000D02*
D03*
X540000Y200000D02*
D03*
X550000Y180000D02*
D03*
X540000Y160000D02*
D03*
X550000Y140000D02*
D03*
X540000Y120000D02*
D03*
X530000Y340000D02*
D03*
X520000Y320000D02*
D03*
X530000Y300000D02*
D03*
X520000Y280000D02*
D03*
X530000Y260000D02*
D03*
X520000Y240000D02*
D03*
X530000Y220000D02*
D03*
X520000Y200000D02*
D03*
X530000Y180000D02*
D03*
X520000Y160000D02*
D03*
X530000Y140000D02*
D03*
X520000Y120000D02*
D03*
X510000Y340000D02*
D03*
Y300000D02*
D03*
X500000Y240000D02*
D03*
Y200000D02*
D03*
X510000Y180000D02*
D03*
X500000Y160000D02*
D03*
X510000Y140000D02*
D03*
X500000Y120000D02*
D03*
X490000Y340000D02*
D03*
Y220000D02*
D03*
X480000Y200000D02*
D03*
X490000Y180000D02*
D03*
X480000Y160000D02*
D03*
X490000Y140000D02*
D03*
X480000Y120000D02*
D03*
X470000Y340000D02*
D03*
Y300000D02*
D03*
Y220000D02*
D03*
X460000Y200000D02*
D03*
X470000Y180000D02*
D03*
X460000Y160000D02*
D03*
X470000Y140000D02*
D03*
X460000Y120000D02*
D03*
X450000Y340000D02*
D03*
Y220000D02*
D03*
X440000Y200000D02*
D03*
X450000Y180000D02*
D03*
X440000Y160000D02*
D03*
X450000Y140000D02*
D03*
X440000Y120000D02*
D03*
X430000Y340000D02*
D03*
Y300000D02*
D03*
Y260000D02*
D03*
Y220000D02*
D03*
Y180000D02*
D03*
Y140000D02*
D03*
X420000Y120000D02*
D03*
X410000Y340000D02*
D03*
Y300000D02*
D03*
Y260000D02*
D03*
Y180000D02*
D03*
X400000Y160000D02*
D03*
X410000Y140000D02*
D03*
X400000Y120000D02*
D03*
X390000Y340000D02*
D03*
X380000Y200000D02*
D03*
Y120000D02*
D03*
X370000Y340000D02*
D03*
X360000Y240000D02*
D03*
X370000Y220000D02*
D03*
X360000Y200000D02*
D03*
Y160000D02*
D03*
X350000Y340000D02*
D03*
Y220000D02*
D03*
X340000Y200000D02*
D03*
X350000Y180000D02*
D03*
X340000Y160000D02*
D03*
X350000Y140000D02*
D03*
X330000Y220000D02*
D03*
Y180000D02*
D03*
Y140000D02*
D03*
X300000Y200000D02*
D03*
X290000Y300000D02*
D03*
Y220000D02*
D03*
X270000Y300000D02*
D03*
Y220000D02*
D03*
X240000Y200000D02*
D03*
X200000Y190000D02*
D03*
X190000Y320000D02*
D03*
X200000Y310000D02*
D03*
X460000D02*
D03*
X220000D02*
D03*
X280000D02*
D03*
X150000Y121063D02*
D03*
X190000Y245000D02*
D03*
Y210000D02*
D03*
X200000Y220000D02*
D03*
X220000D02*
D03*
X280000D02*
D03*
X340000D02*
D03*
X390000D02*
D03*
X200000Y280000D02*
D03*
D35*
X264500Y150000D02*
D03*
X257000Y280000D02*
D03*
X259500Y270000D02*
D03*
X262000Y260000D02*
D03*
X264500Y250000D02*
D03*
X322000Y160000D02*
D03*
X319500Y170000D02*
D03*
X317000Y180000D02*
D03*
Y280000D02*
D03*
X319500Y270000D02*
D03*
X322000Y260000D02*
D03*
X324500Y250000D02*
D03*
X495000Y328661D02*
D03*
X455000Y323625D02*
D03*
X452500Y306000D02*
D03*
X449446Y287912D02*
D03*
X446428Y278000D02*
D03*
X172849Y318349D02*
D03*
X224500Y333500D02*
D03*
X165500Y331000D02*
D03*
X158000Y350000D02*
D03*
X163000Y335700D02*
D03*
X160500Y341000D02*
D03*
X163000Y160000D02*
D03*
X160500Y170000D02*
D03*
X158000Y180000D02*
D03*
X160500Y260000D02*
D03*
X163000Y250000D02*
D03*
X165500Y240107D02*
D03*
X158000Y290000D02*
D03*
X224500Y237000D02*
D03*
X227000Y227000D02*
D03*
X264500Y194153D02*
D03*
X232000Y197999D02*
D03*
X262000Y206300D02*
D03*
X229500Y215847D02*
D03*
X257000Y234247D02*
D03*
X259500Y224247D02*
D03*
X254500Y338000D02*
D03*
X481000Y235000D02*
D03*
X395000Y294153D02*
D03*
X190000Y145000D02*
D03*
X175500Y230000D02*
D03*
X314500Y344153D02*
D03*
X229500Y314153D02*
D03*
X227000Y326000D02*
D03*
X232000Y303000D02*
D03*
X257000Y180000D02*
D03*
X259500Y170000D02*
D03*
X262000Y160000D02*
D03*
M02*
