M48
;Layer_Color=9474304
;FILE_FORMAT=2:5
INCH,LZ
;TYPE=PLATED
T1F00S00C0.01000
T2F00S00C0.02000
T3F00S00C0.03543
T4F00S00C0.06299
T5F00S00C0.12600
%
T01
X09525Y0194453
X095Y0204453
X09475Y0214453
X0945Y0224453
X09425Y0234453
X094Y0244453
X09375Y0254453
X0935Y0264453
X029Y027
X02925Y028
X027Y0285547
X02725Y0295547
X0275Y0305547
X02675Y0275547
X0265Y0265547
X02275Y026
X0230007Y0250228
X02325Y024
X0235Y023
X02375Y022
X024Y021
X02425Y02
X02775Y0315547
X028Y0325547
X02825Y0335547
X0285Y0345547
X02875Y0355547
X02975Y033
X03Y032
X01895Y0365
X0192Y03675
X01945Y037
X0197Y03725
X01995Y0375
X0202Y03775
X02045Y038
X0207Y03825
X02095Y0385
X0212Y03875
X02145Y039
X09375Y0518
X094Y0528
X09425Y0538
X0945Y0548
X09475Y0558
X095Y0568
X09525Y0578
X1075Y051
X1085
X1091Y0515
X0935Y0508
X0909Y0511
Y0521
Y0531
Y0541
Y0551
Y0561
Y0571
Y0581
Y0591
Y0601
Y0611
Y0621
X0829
Y0611
Y0601
Y0591
Y0581
Y0571
Y0561
Y0551
Y0541
Y0531
Y0521
Y0511
X0749
Y0521
Y0531
Y0541
Y0551
Y0561
Y0571
Y0581
Y0591
Y0601
Y0611
Y0621
X0669
Y0611
Y0601
Y0591
Y0581
Y0571
Y0561
Y0551
Y0541
Y0531
Y0521
Y0511
X0589
Y0521
Y0531
Y0541
Y0551
Y0561
Y0571
Y0581
Y0591
Y0601
Y0611
Y0621
X06Y06175
X06025Y06075
X03Y06
X02975Y059
X01895Y0593
Y0603
Y0613
Y0623
X0153Y06245
Y06145
Y06045
Y05945
Y05845
X0137Y0585
X01395Y0575
X0142Y0565
Y0555
Y0545
Y0535
X01325Y0525
X0135Y0515
X01375Y0505
X0153Y06345
X013Y068
X01325Y0685
X01275Y069
X0125Y0705
X0137Y07025
X01395Y07
X0142Y06975
X01445Y0705
X0147Y07075
X01495Y071
X01895Y0643
Y0633
X033Y07125
X04795Y071
X0482Y07075
X04845Y0705
X04895Y07
X0487Y06975
X0492Y07025
X05925Y06925
X0595Y069
X05975Y06875
X06Y0685
X06025Y0705
X05925Y06475
X0589Y0651
Y0641
X0595Y06375
X05975Y06275
X0589Y0631
X0669
Y0641
Y0651
Y0661
Y0671
X0749
Y0661
Y0651
Y0641
Y0631
X0829
Y0641
Y0651
Y0661
Y0671
X0909
Y0661
Y0651
Y0641
Y0631
X109Y0685
X10925Y06925
X11Y06875
X1105Y06975
X11025Y07
X10975Y07025
X1095Y0705
X111Y0695
X1115Y069
X112Y06825
X1125Y068
T02
X013Y014
X015
X017
X019
X021
X023
X025
X027
X029
X031
X03Y012
X028
X026
X024
X022
X02
X018
X016
X032
X034
X036
X038
X04
X041Y014
X043
X045
X039
X037
X035
X033
X047
X049
X051
X053
X055
X057
X059
X061
X062Y012
X06
X058
X056
X054
X052
X05
X048
X064
X066
X068
X07
X072
X073Y014
X075
X077
X071
X069
X067
X065
X063
X079
X081
X083
X085
X087
X089
X091
X093
X092Y012
X09
X088
X086
X084
X082
X08
X094
X096
X098
X1
X102
X104
X106
X108
X109Y014
X107
X105
X103
X101
X099
X097
X095
X11Y016
X111Y018
X11Y02
X111Y022
X11Y024
X111Y026
X11Y028
X111Y03
X108Y016
X106
X104
X102
X1
X098
X096
X094
X095Y018
X093
X091
X092Y016
X09
X088
X086
X084
X082
X08
X078
X076
X074
X072
X07
X068
X066
X064
X062
X06
X058
X056
X054
X052
X05
X048
X046
X044
X042
X04
X038
X036
X034
X032
X03
X028
X026
X024
X022
X02
X018
X016
X019Y018
X021
X023
X014Y016
X012
X013Y038
X015
X014Y04
X015Y042
X014Y044
X012
X013Y046
X016Y044
X018
X017Y042
X018Y04
X016
X017Y038
X031Y042
X032Y044
X036
X038
X04
X042
X044
X046
Y04
X042
X04
X038
X036
X037Y042
X039
X041
X035
X032Y04
X048
X05
X052
X054
X056
X058
X06
X062
X061Y042
X059
X057
X055
X053
X051
X049
X047
X048Y044
X05
X052
X054
X056
X058
X06
X062
X064
X066
X068
X07
X072
X074
X076
X078
Y04
X077Y038
X075
X074Y04
X072
X07
X068
X066
X064
X065Y042
X067
X069
X071
X073
X063
X079
X081
X083
X085
X087
X089
X091
X092Y044
X09
X088
X086
X084
X082
X08
Y04
X082
X084
X086
X088
X09
X092
X091Y038
X089
X087
X085
X083
X081
X079
X097
X099
X101
X103
X105
X104Y04
X102
X1
X098
X096
X097Y042
X099
X101
X103
X104Y044
X102
X1
X098
X096
X108
X109Y046
X107
Y042
X109
X11Y044
X111Y046
Y038
X11Y036
X111Y034
X11Y032
Y048
Y056
Y06
X108
X106
X104
X102
X1
X101Y062
X103
X105
X107
Y058
X105
X103
X101
X099
X1Y056
X102
X104
X106
X107Y05
X108Y048
X104
X102
X101Y05
X1Y052
X101Y054
X099
Y062
X055
X053
X051
X052Y06
X054
X048
X047Y062
X045
X043
X044Y06
X046
X014Y048
X012Y068
X013Y07
X014Y072
X015Y074
X017
X019
X021
X023
X025
X027
X029
X031
X03Y072
X028
X026
X024
X022
X02
X018
X016
X028Y068
X03
X031Y066
X029
X032Y068
X034
X036
X038
X04
X042
X044
X046
X045Y066
X043
X041
X039
X037
X035
X036Y072
X038
X04
X042
X041Y074
X039
X037
X035
X033
X034Y072
X032
X046
Y064
X044
X047Y066
X051
X053
X055
X054Y068
X052
X05
X051Y07
X053
X054Y072
X056
X058
X06
X062
X061Y074
X059
X057
X055
X053
X051
X049
X047
X048Y072
X05
X052
Y064
X054
X064Y072
X066
X068
X07
X072
X074
X073Y074
X071
X069
X067
X065
X063
X078Y072
X08
X082
X084
X086
X088
X09
X092
X093Y074
X091
X089
X087
X085
X083
X081
X079
X095
X097
X099
X101
X103
X105
X107
X108Y072
X106
X104
X102
X1
X098
X096
X094
X099Y066
X101
X103
X105
X107
X108Y064
X106
X104
X102
X1
X11Y072
T03
X097Y017
X098
Y018
X097
Y019
X098
Y02
Y021
Y022
Y023
Y024
Y025
Y026
X097
Y025
Y024
Y023
Y022
Y021
Y02
Y027
Y028
Y029
Y03
Y031
X098
Y03
Y029
Y028
Y027
X105
X106
Y028
Y029
Y03
Y031
X105
Y03
Y029
Y028
Y026
Y025
Y024
Y023
Y022
Y021
Y02
Y019
X106
Y02
Y021
Y022
Y023
Y024
Y025
Y026
Y018
X105
Y017
X106
X09
Y018
Y019
X089
Y02
Y021
Y022
Y023
Y024
Y025
Y026
Y027
X09
Y028
Y029
Y03
Y031
X089
Y03
Y029
Y028
X09Y026
Y025
Y024
Y023
Y022
Y021
Y02
X089Y018
Y017
X082
Y018
Y019
X081
Y02
Y021
Y022
Y023
Y024
Y025
Y026
Y027
X082
Y028
Y029
Y03
Y031
X081
Y03
Y029
Y028
X082Y026
Y025
Y024
Y023
Y022
Y021
Y02
X081Y018
Y017
X074
X073
Y018
X074
Y019
Y02
Y021
Y022
Y023
Y024
Y025
Y026
X073
Y025
Y024
Y023
Y022
Y021
Y02
Y019
X066
Y018
Y017
X065
Y018
Y019
Y02
X066
Y021
Y022
Y023
Y024
Y025
Y026
X065
Y025
Y024
Y023
Y022
Y021
Y027
Y028
Y029
Y03
Y031
X066
Y03
Y029
Y028
Y027
X073
Y028
Y029
Y03
Y031
X074
Y03
Y029
Y028
Y027
X058
Y026
Y025
Y024
Y023
Y022
Y021
Y02
Y019
Y018
Y017
X057
Y018
Y019
Y02
Y021
Y022
Y023
Y024
Y025
Y026
Y027
Y028
Y029
Y03
Y031
X058
Y03
Y029
Y028
X05
X049
Y027
Y026
X05
Y025
Y024
Y023
Y022
Y021
Y02
Y019
Y018
Y017
X049
Y018
Y019
Y02
Y021
Y022
Y023
Y024
Y025
X05Y027
Y029
X049
Y03
Y031
X05
Y03
X042
X041
Y029
Y028
Y027
Y026
X042
Y025
Y024
Y023
Y022
Y021
Y02
Y019
Y018
Y017
X041
Y018
Y019
Y02
Y021
Y022
Y023
Y024
Y025
X042Y027
Y028
Y029
Y031
X041
X034
Y03
Y029
Y028
Y027
X033
Y028
Y029
Y03
Y031
Y026
Y025
Y024
Y023
Y022
Y021
Y02
Y019
X034
Y02
Y021
Y022
Y023
Y024
Y025
Y026
Y018
X033
Y017
X034
X026
X025
Y018
X026
Y019
Y02
Y021
Y022
Y023
Y024
Y025
Y026
X025
Y025
Y024
Y023
Y022
Y021
Y02
Y019
X018
Y018
Y017
X017
Y018
Y019
Y02
X018
Y021
Y022
Y023
Y024
Y025
Y026
X017
Y025
Y024
Y023
Y022
Y021
Y027
Y028
Y029
Y03
Y031
X018
Y03
Y029
Y028
Y027
X025
Y028
Y029
Y03
Y031
X026
Y03
Y029
Y028
Y027
X012
Y026
Y025
Y024
Y023
Y022
Y021
Y02
Y019
Y018
X011
Y019
Y02
Y021
Y022
Y023
Y024
Y025
Y026
Y027
Y028
X012
Y029
Y03
X011
Y031
X012
X011Y029
Y032
X012
Y033
X011
Y034
X012
Y035
X011
Y036
X012
Y037
X011
X017Y036
Y035
X018
Y034
X017
Y033
Y032
X018
Y033
Y036
X025
Y035
X026
Y034
X025
Y033
Y032
X026
Y033
Y036
Y046
X025
X018
X017
X033
X034
X042
Y036
Y035
Y034
X041
Y033
Y032
X042
Y033
X041Y035
Y036
X034
X033
Y035
Y034
Y033
X034
Y032
X033
X034Y034
Y035
X049
X05
Y034
X049
Y033
Y032
X05
Y033
Y036
X049
X057
Y035
X058
Y034
X057
Y033
Y032
X058
Y033
Y036
Y046
X057
X056
X05
X064
X065
X066
X072
X073
X074
Y036
Y035
Y034
X073
Y033
Y032
X074
Y033
X073Y035
Y036
X066
Y035
Y034
X065
Y033
Y032
X066
Y033
X065Y035
Y036
X081
X082
Y035
X081
Y034
Y033
X082
Y032
X081
X082Y034
X089
Y035
Y036
X09
Y035
Y034
Y033
Y032
X089
Y033
Y046
X088
X09
X082
X081
X08
X096
X097
X098
X105
X106
Y036
X105
Y035
Y034
Y033
X106
Y032
X105
X106Y034
Y035
X098
Y034
X097
Y033
Y032
X098
Y033
X097Y035
Y036
X098
X111Y047
X112
Y048
X111
Y049
X112
Y05
X111
Y051
X112
Y052
X111
Y053
X112
Y054
X111
Y055
X112
Y056
X111
Y057
X112
Y058
X111
Y059
X112
Y06
X111
Y061
X112
Y062
X111
X098
X097
X096
Y061
Y06
Y059
Y058
Y057
Y056
Y055
Y054
Y053
Y052
Y051
Y05
Y049
Y048
Y047
X097
Y048
Y049
Y05
Y051
Y052
Y053
Y054
Y055
Y056
Y057
Y058
Y059
Y06
Y061
X098
Y06
Y059
Y058
Y057
Y056
Y055
Y054
Y053
Y052
Y051
Y05
Y049
Y048
Y047
X105
X106
Y048
X105
Y049
X106
Y05
X105
Y051
X106
Y052
X105
Y053
X106
X09
X089
X088
Y052
Y051
Y05
Y049
Y048
Y047
X089
Y048
Y049
Y05
Y051
Y052
X09
Y051
Y05
Y049
Y048
Y047
Y054
X089
X088
Y055
Y056
Y057
Y058
Y059
Y06
Y061
Y062
X089
Y061
Y06
Y059
Y058
Y057
Y056
Y055
X09
Y056
Y057
Y058
Y059
Y06
Y061
Y062
X082
Y061
Y06
Y059
Y058
Y057
Y056
Y055
Y054
Y053
Y052
Y051
Y05
Y049
Y048
Y047
X081
X08
Y048
Y049
Y05
Y051
Y052
Y053
Y054
Y055
Y056
Y057
Y058
Y059
Y06
Y061
Y062
X081
Y061
Y06
Y059
Y058
Y057
Y056
Y055
Y054
Y053
Y052
Y051
Y05
Y049
Y048
X074
Y049
Y05
Y051
Y052
Y053
Y054
Y055
Y056
Y057
Y058
Y059
Y06
Y061
Y062
X073
X072
Y061
Y06
Y059
Y058
Y057
Y056
Y055
Y054
Y053
Y052
Y051
Y05
Y049
Y048
Y047
X073
X074
X073Y048
Y049
Y05
Y051
Y052
Y053
Y054
Y055
Y056
Y057
Y058
Y059
Y06
Y061
X066
X065
X064
Y06
Y059
Y058
Y057
Y056
Y055
Y054
Y053
Y052
Y051
Y05
Y049
Y048
Y047
X065
Y048
Y049
Y05
Y051
Y052
Y053
Y054
Y055
Y056
Y057
Y058
Y059
Y06
X066
Y059
Y058
Y057
Y056
Y055
Y054
Y053
Y052
Y051
Y05
Y049
Y048
Y047
Y062
X065
X064
X058
Y061
Y06
Y059
Y058
Y057
Y056
Y055
Y054
Y053
Y052
Y051
Y05
Y049
Y048
Y047
X057
X056
Y048
Y049
Y05
Y051
Y052
Y053
Y054
Y055
Y056
Y057
Y058
Y059
Y06
Y061
Y062
X057
Y061
Y06
Y059
Y058
Y057
Y056
Y055
Y054
Y053
Y052
Y051
Y05
Y049
Y048
X05
Y049
Y05
Y051
Y052
Y053
Y054
Y055
Y056
Y057
Y058
Y059
Y06
Y061
Y062
Y047
X042
Y048
Y049
Y05
Y051
Y052
Y053
Y054
Y055
Y056
Y057
Y058
Y059
Y06
Y061
Y062
X034Y059
Y058
Y057
Y056
Y055
Y054
Y053
Y052
Y051
Y05
Y049
Y048
Y047
X033
Y048
Y049
Y05
Y051
Y052
Y053
Y054
Y055
Y056
Y057
Y058
Y059
X026
Y058
Y057
Y056
Y055
Y054
Y053
Y052
Y051
Y05
Y049
Y048
Y047
X025
Y048
Y049
Y05
Y051
Y052
Y053
Y054
Y055
Y056
Y057
Y058
Y059
Y06
X026
Y061
X025
Y062
X026
X018
Y061
Y06
Y059
Y058
Y057
Y056
Y055
Y054
Y053
Y052
Y051
Y05
Y049
Y048
Y047
X017
Y048
Y049
Y05
Y051
Y052
Y053
Y054
Y055
Y056
Y057
Y058
Y059
Y06
Y061
Y062
X0125
X0115
Y061
Y06
Y059
Y058
Y057
Y056
Y055
Y054
Y053
Y052
Y051
Y05
Y049
Y048
Y047
X0125
Y048
Y049
Y05
Y051
Y052
Y053
Y054
Y055
Y056
Y057
Y058
Y059
Y06
Y061
Y063
X0115
Y064
Y065
Y066
X0125
Y065
Y064
X017
Y063
X018
Y064
Y065
X017
Y066
X018
Y067
X017
X025
Y066
Y065
Y064
Y063
X026
Y064
Y065
Y066
Y067
Y068
X025
Y069
X026
X042Y065
Y064
Y063
X05
Y064
Y065
X056
Y064
Y063
X057
X058
Y064
Y065
Y066
Y067
Y068
Y069
X057
X056
Y068
Y067
Y066
X057
Y065
Y064
Y067
Y068
X064Y067
Y066
Y065
Y064
Y063
X065
Y064
Y065
Y066
Y067
X066
Y066
Y065
Y064
Y063
X072
Y064
Y065
Y066
Y067
X073
X074
Y066
Y065
Y064
Y063
X073
Y064
Y065
Y066
X08
Y065
Y064
Y063
X081
X082
Y064
Y065
Y066
Y067
X081
X08
X081Y066
Y065
Y064
X088
Y063
X089
Y064
Y065
X088
Y066
Y067
X089
Y066
X09
Y065
Y064
Y063
Y067
X096
Y066
Y065
Y064
Y063
X097
Y064
Y065
Y066
Y067
X098
Y066
Y065
Y064
Y063
X111
X112
Y064
X111
Y065
X112
Y066
X111
T04
X1Y018
X108Y017
X06Y018
X028
X068Y046
X1Y047
X1085Y053
Y056
Y059
X06Y047
X046Y049
X044Y048
X036Y047
Y05
T05
X012Y012
X044
X076
X111
X012Y041
X044
X076
X111
X012Y074
X044
X076
X111
M30
