M48
;Layer_Color=9474304
;FILE_FORMAT=2:5
INCH,LZ
;TYPE=PLATED
T1F00S00C0.01000
T2F00S00C0.03543
T3F00S00C0.06299
T4F00S00C0.11600
%
T01
X08425Y0194453
X084Y0204453
X08375Y0214453
X0835Y0224453
X08325Y0234453
X083Y0244453
X08275Y0254453
X0825Y0264453
X027Y027
X02725Y028
X025Y0285547
X02525Y0295547
X0255Y0305547
X02475Y0275547
X0245Y0265547
X02075Y026
X0210007Y0250228
X02125Y024
X0215Y023
X02175Y022
X022Y021
X02225Y02
X02575Y0315547
X026Y0325547
X02625Y0335547
X0265Y0345547
X02675Y0355547
X02775Y033
X028Y032
X01795Y0365
X0182Y03675
X01845Y037
X0187Y03725
X01895Y0375
X0192Y03775
X01945Y038
X0197Y03825
X01995Y0385
X0202Y03875
X02045Y039
X0809Y0511
Y0521
Y0531
Y0541
Y0551
Y0561
Y0571
Y0581
Y0591
Y0601
Y0611
Y0621
X08425Y0578
X084Y0568
X08375Y0558
X0835Y0548
X08325Y0538
X083Y0528
X08275Y0518
X0825Y0508
X0739Y0511
Y0521
Y0531
Y0541
Y0551
Y0561
Y0571
Y0581
Y0591
Y0601
Y0611
Y0621
X0669
Y0611
Y0601
Y0591
Y0581
Y0571
Y0561
Y0551
Y0541
Y0531
Y0521
Y0511
X0599
Y0521
Y0531
Y0541
Y0551
Y0561
Y0571
Y0581
Y0591
Y0601
Y0611
Y0621
X054Y06175
X05425Y06075
X0529Y0611
Y0621
Y0601
Y0591
Y0581
Y0571
Y0561
Y0551
Y0541
Y0531
Y0521
Y0511
X02775Y059
X028Y06
X01795Y0603
Y0613
Y0623
Y0593
X0153Y05945
Y06045
Y06145
Y06245
Y05845
X0137Y0585
X01395Y0575
X0142Y0565
Y0555
Y0545
Y0535
X01325Y0525
X0135Y0515
X01375Y0505
X0153Y06345
X013Y068
X01325Y0685
X01275Y069
X0125Y0705
X0137Y07025
X01395Y07
X0142Y06975
X01445Y0705
X0147Y07075
X01495Y071
X01795Y0643
Y0633
X03Y07125
X04295Y071
X0432Y07075
X04345Y0705
X04395Y07
X0437Y06975
X0442Y07025
X05325Y06925
X0535Y069
X05375Y06875
X054Y0685
X05425Y0705
X05325Y06475
X0529Y0651
Y0641
X0535Y06375
X05375Y06275
X0529Y0631
X0599
Y0641
Y0651
Y0661
Y0671
X0669
Y0661
Y0651
Y0641
Y0631
X0739
Y0641
Y0651
Y0661
Y0671
X0809
Y0661
Y0651
Y0641
Y0631
X097Y0685
X09725Y06925
X098Y06875
X0985Y06975
X09825Y07
X09775Y07025
X0975Y0705
X099Y0695
X0995Y069
X1Y06825
X1005Y068
T02
X094Y017
Y018
Y019
Y02
Y021
Y022
Y023
Y024
Y025
Y026
Y027
Y028
Y029
Y03
Y031
X093
Y03
Y029
Y028
Y027
Y026
Y025
Y024
Y023
Y022
Y021
Y02
Y019
Y018
Y017
X087
X086
Y018
X087
Y019
Y02
Y021
Y022
Y023
Y024
Y025
Y026
X086
Y025
Y024
Y023
Y022
Y021
Y02
Y019
X08
X079
Y02
Y021
Y022
Y023
Y024
Y025
Y026
Y027
X08
Y028
Y029
Y03
Y031
X079
Y03
Y029
Y028
X08Y026
Y025
Y024
Y023
Y022
Y021
Y02
Y018
X079
Y017
X08
X086Y027
Y028
Y029
Y03
Y031
X087
Y03
Y029
Y028
Y027
X073
Y026
Y025
Y024
Y023
Y022
Y021
Y02
Y019
Y018
Y017
X072
Y018
Y019
Y02
Y021
Y022
Y023
Y024
Y025
Y026
Y027
Y028
Y029
Y03
Y031
X073
Y03
Y029
Y028
X066
X065
Y027
Y026
X066
Y025
Y024
Y023
Y022
Y021
Y02
Y019
Y018
Y017
X065
Y018
Y019
Y02
Y021
Y022
Y023
Y024
Y025
X066Y027
Y029
X065
Y03
Y031
X066
Y03
X059
X058
Y029
Y028
Y027
Y026
X059
Y025
Y024
Y023
Y022
Y021
Y02
Y019
Y018
Y017
X058
Y018
Y019
Y02
Y021
Y022
Y023
Y024
Y025
X059Y027
Y028
Y029
Y031
X058
X052
X051
Y03
Y029
Y028
Y027
Y026
X052
Y025
Y024
Y023
Y022
Y021
Y02
Y019
Y018
Y017
X051
Y018
Y019
Y02
Y021
Y022
Y023
Y024
Y025
X052Y027
Y028
Y029
Y03
X045
X044
Y029
Y028
Y027
Y026
X045
Y025
Y024
Y023
Y022
Y021
Y02
Y019
Y018
Y017
X044
Y018
Y019
Y02
Y021
Y022
Y023
Y024
Y025
X045Y027
Y028
Y029
Y031
X044
X038
X037
Y03
Y029
Y028
Y027
Y026
X038
Y025
Y024
Y023
Y022
Y021
Y02
Y019
Y018
Y017
X037
Y018
Y019
Y02
Y021
Y022
Y023
Y024
Y025
X038Y027
Y028
Y029
Y03
X031
X03
Y029
Y028
Y027
Y026
X031
Y025
Y024
Y023
Y022
Y021
Y02
Y019
Y018
Y017
X03
Y018
Y019
Y02
Y021
Y022
Y023
Y024
Y025
X031Y027
Y028
Y029
Y031
X03
X024
X023
Y03
Y029
Y028
Y027
Y026
X024
Y025
Y024
Y023
Y022
Y021
Y02
Y019
Y018
Y017
X023
Y018
Y019
Y02
Y021
Y022
Y023
Y024
Y025
X024Y027
Y028
Y029
Y03
X017
X016
Y029
Y028
Y027
Y026
X017
Y025
Y024
Y023
Y022
Y021
Y02
Y019
Y018
Y017
X016
Y018
Y019
Y02
Y021
Y022
Y023
Y024
Y025
X017Y027
Y028
Y029
Y031
X016
X012
X011
Y03
Y029
Y028
X012
Y029
Y03
Y027
X011
Y026
X012
Y025
X011
Y024
X012
Y023
X011
Y022
X012
Y021
X011
Y02
X012
Y019
X011
Y018
X012
Y032
Y033
Y034
Y035
Y036
Y037
X011
Y036
Y035
Y034
Y033
Y032
X016
Y033
Y034
X017
Y035
X016
Y036
X017
Y033
Y032
X023
Y033
Y034
X024
Y035
X023
Y036
X024
Y033
Y032
X03
Y033
Y034
X031
Y035
X03
Y036
X031
Y033
Y032
Y046
X03
X024
X023
X017
X016
X038
X045
Y036
Y035
Y034
X044
Y033
Y032
X045
Y033
X044Y035
Y036
X038
Y035
Y034
X037
Y033
Y032
X038
Y033
X037Y035
Y036
X051
Y035
X052
Y034
X051
Y033
Y032
X052
Y033
Y036
X058
Y035
X059
Y034
X058
Y033
Y032
X059
Y033
Y036
Y046
X058
X057
X052
X051
X05
X064
X065
X066
X071
X072
X073
X078
X073Y036
Y035
Y034
X072
Y033
Y032
X073
Y033
X072Y035
Y036
X066
Y035
Y034
X065
Y033
Y032
X066
Y033
X065Y035
Y036
X079
X08
Y035
X079
Y034
Y033
X08
Y032
X079
X08Y034
X086
X087
Y035
X086
Y036
X087
Y033
X086
Y032
X087
X093
Y033
Y034
Y035
Y036
X087Y046
X086
X085
X08
X079
X094Y036
Y035
Y034
Y033
Y032
X099Y047
X1
Y048
X099
Y049
X1
Y05
X099
Y051
X1
Y052
X099
Y053
X1
Y054
X099
Y055
X1
Y056
X099
Y057
X1
Y058
X099
Y059
X1
Y06
X099
Y061
X1
Y062
X099
X087
X086
X085
Y061
Y06
Y059
Y058
Y057
Y056
Y055
Y054
Y053
Y052
Y051
Y05
Y049
Y048
Y047
X086
Y048
Y049
Y05
Y051
Y052
Y053
Y054
Y055
Y056
Y057
Y058
Y059
Y06
Y061
X087
Y06
Y059
Y058
Y057
Y056
Y055
Y054
Y053
Y052
Y051
Y05
Y049
Y048
Y047
X08
Y048
Y049
Y05
Y051
Y052
Y053
Y054
Y055
Y056
Y057
Y058
Y059
Y06
Y061
Y062
X079
Y061
Y06
Y059
Y058
Y057
Y056
Y055
Y054
Y053
Y052
Y051
Y05
Y049
Y048
Y047
X078
Y048
Y049
Y05
Y051
Y052
Y053
Y054
Y055
Y056
Y057
Y058
Y059
Y06
Y061
Y062
X073
Y061
Y06
Y059
Y058
Y057
Y056
Y055
Y054
Y053
Y052
Y051
Y05
Y049
Y048
Y047
X072
X071
Y048
Y049
Y05
Y051
Y052
Y053
Y054
Y055
Y056
Y057
Y058
Y059
Y06
Y061
Y062
X072
Y061
Y06
Y059
Y058
Y057
Y056
Y055
Y054
Y053
Y052
Y051
Y05
Y049
Y048
X066
Y049
Y05
Y051
Y052
Y053
Y054
Y055
Y056
Y057
Y058
Y059
Y06
Y061
Y062
X065
X064
Y061
Y06
Y059
Y058
Y057
Y056
Y055
Y054
Y053
Y052
Y051
Y05
Y049
Y048
Y047
X065
X066
X065Y048
Y049
Y05
Y051
Y052
Y053
Y054
Y055
Y056
Y057
Y058
Y059
Y06
Y061
X059
X058
Y062
X057
Y061
Y06
X058
Y059
Y058
Y057
Y056
Y055
Y054
Y053
Y052
Y051
Y05
Y049
Y048
Y047
X057
Y048
Y049
Y05
Y051
Y052
Y053
Y054
Y055
Y056
Y057
Y058
Y059
X059
Y06
Y062
Y058
Y057
Y056
Y055
Y054
Y053
Y052
Y051
Y05
Y049
Y048
Y047
X052
X051
Y048
Y049
Y05
Y051
Y052
Y053
Y054
Y055
Y056
Y057
Y058
Y059
Y06
Y061
Y062
X05
Y061
Y06
Y059
Y058
Y057
Y056
Y055
Y054
Y053
Y052
Y051
Y05
Y049
Y048
Y047
X052Y048
Y049
Y05
Y051
Y052
Y053
Y054
Y055
Y056
Y057
Y058
Y059
Y06
Y061
Y062
X045
Y061
Y06
Y059
Y058
Y057
Y056
Y055
Y054
Y053
Y052
Y051
Y05
Y049
Y048
Y047
X038
Y048
Y049
Y05
Y051
Y052
Y053
Y054
Y055
Y056
Y057
Y058
Y059
Y06
Y061
Y062
X031Y059
Y058
Y057
Y056
Y055
Y054
Y053
Y052
Y051
Y05
Y049
Y048
Y047
X03
Y048
Y049
Y05
Y051
Y052
Y053
Y054
Y055
Y056
Y057
Y058
Y059
X024
Y058
Y057
Y056
Y055
Y054
Y053
Y052
Y051
Y05
Y049
Y048
Y047
X023
Y048
Y049
Y05
Y051
Y052
Y053
Y054
Y055
Y056
Y057
Y058
Y059
Y06
X024
Y061
X023
Y062
X024
X017
Y061
Y06
Y059
Y058
Y057
Y056
Y055
Y054
Y053
Y052
Y051
Y05
Y049
Y048
Y047
X016
Y048
Y049
Y05
Y051
Y052
Y053
Y054
Y055
Y056
Y057
Y058
Y059
Y06
Y061
Y062
X0125
X0115
Y061
Y06
Y059
Y058
Y057
Y056
Y055
Y054
Y053
Y052
Y051
Y05
Y049
Y048
Y047
X0125
Y048
Y049
Y05
Y051
Y052
Y053
Y054
Y055
Y056
Y057
Y058
Y059
Y06
Y061
Y063
X0115
Y064
Y065
Y066
X0125
Y065
Y064
X016
Y063
X017
Y064
Y065
X016
Y066
X017
Y067
X016
X023
Y066
Y065
Y064
Y063
X024
Y064
Y065
Y066
Y067
Y068
X023
Y069
X024
X038Y065
Y064
Y063
X045
Y064
Y065
X05
X051
Y066
Y067
X05
Y068
Y069
X051
Y068
X052
Y069
Y067
Y066
Y065
Y064
X051
Y063
X05
Y064
Y066
X052Y063
X057
X058
Y064
Y065
Y066
Y067
X057
Y066
Y065
Y064
X059
Y065
Y066
Y067
Y063
X064
Y064
Y065
Y066
Y067
X065
X066
Y066
Y065
Y064
Y063
X065
Y064
Y065
Y066
X071
Y067
X072
X073
Y066
Y065
Y064
Y063
X072
X071
Y064
Y065
X072
Y066
Y064
X078
Y065
Y066
Y067
Y063
X079
X08
Y064
Y065
Y066
Y067
X079
Y066
Y065
Y064
X085
Y065
Y066
Y067
X086
Y066
Y065
Y064
Y063
X085
X087
Y064
Y065
Y066
Y067
X099Y066
Y065
Y064
Y063
X1
Y064
Y065
Y066
T03
X101Y008
X104
X1095Y012
X116Y007
X0835Y018
X0815Y017
X054Y018
X026
X075Y047
X054
X042Y049
X04Y048
X033Y047
Y05
T04
X012Y012
X04
X068
X099
X012Y041
X04
X068
X099
X012Y074
X04
X068
X099
M30
