G04*
G04 #@! TF.GenerationSoftware,Altium Limited,Altium Designer,21.9.1 (22)*
G04*
G04 Layer_Color=65535*
%FSLAX25Y25*%
%MOIN*%
G70*
G04*
G04 #@! TF.SameCoordinates,D21D48F5-640B-449E-B1FD-98C6F9B5C5F0*
G04*
G04*
G04 #@! TF.FilePolarity,Positive*
G04*
G01*
G75*
%ADD10C,0.00787*%
%ADD11C,0.00500*%
%ADD12C,0.00800*%
%ADD13C,0.01000*%
D10*
X167500Y125787D02*
G03*
X162500Y125787I-2500J0D01*
G01*
X396240Y260000D02*
G03*
X396240Y260000I-6240J0D01*
G01*
X206240Y310000D02*
G03*
X206240Y310000I-6240J0D01*
G01*
X296240Y150000D02*
G03*
X296240Y150000I-6240J0D01*
G01*
X266240D02*
G03*
X266240Y150000I-6240J0D01*
G01*
X356240Y240000D02*
G03*
X356240Y240000I-6240J0D01*
G01*
Y280000D02*
G03*
X356240Y280000I-6240J0D01*
G01*
X307500Y231221D02*
G03*
X302500Y231221I-2500J0D01*
G01*
X222500Y268032D02*
G03*
X227500Y268032I2500J0D01*
G01*
X167500Y241220D02*
G03*
X162500Y241220I-2500J0D01*
G01*
X167500Y125787D02*
X175433D01*
X154567D02*
X162500D01*
X154567Y224213D02*
X175433D01*
Y125787D02*
Y224213D01*
X154567Y125787D02*
Y224213D01*
X307500Y231221D02*
X315433D01*
X294567D02*
X302500D01*
X294567Y308780D02*
X315433D01*
Y231221D02*
Y308780D01*
X294567Y231221D02*
Y308780D01*
X240000Y277000D02*
Y280000D01*
Y277000D02*
X260000D01*
Y283000D01*
X240000D02*
X260000D01*
X240000Y280000D02*
Y283000D01*
X260000Y280000D02*
X260900D01*
X239100D02*
X240000D01*
X235433Y121968D02*
Y268032D01*
X214567Y121968D02*
Y268032D01*
Y121968D02*
X235433D01*
X227500Y268032D02*
X235433D01*
X214567D02*
X222500D01*
X167500Y241220D02*
X175433D01*
X154567D02*
X162500D01*
X154567Y318779D02*
X175433D01*
Y241220D02*
Y318779D01*
X154567Y241220D02*
Y318779D01*
X105000Y115000D02*
Y315000D01*
X86667Y311667D02*
X100000D01*
X85000Y310000D02*
X86667Y311667D01*
X85000Y310000D02*
X86667Y308333D01*
X100000D01*
X86667Y301667D02*
X100000D01*
X85000Y300000D02*
X86667Y301667D01*
X85000Y300000D02*
X86667Y298333D01*
X100000D01*
X86667Y291667D02*
X100000D01*
X85000Y290000D02*
X86667Y291667D01*
X85000Y290000D02*
X86667Y288333D01*
X100000D01*
X86667Y281667D02*
X100000D01*
X85000Y280000D02*
X86667Y281667D01*
X85000Y280000D02*
X86667Y278333D01*
X100000D01*
X86667Y271667D02*
X100000D01*
X85000Y270000D02*
X86667Y271667D01*
X85000Y270000D02*
X86667Y268333D01*
X100000D01*
X86667Y261667D02*
X100000D01*
X85000Y260000D02*
X86667Y261667D01*
X85000Y260000D02*
X86667Y258333D01*
X100000D01*
X86667Y251667D02*
X100000D01*
X85000Y250000D02*
X86667Y251667D01*
X85000Y250000D02*
X86667Y248333D01*
X100000D01*
X86667Y241667D02*
X100000D01*
X85000Y240000D02*
X86667Y241667D01*
X85000Y240000D02*
X86667Y238333D01*
X100000D01*
X86667Y231667D02*
X100000D01*
X85000Y230000D02*
X86667Y231667D01*
X85000Y230000D02*
X86667Y228333D01*
X100000D01*
X86667Y221667D02*
X100000D01*
X85000Y220000D02*
X86667Y221667D01*
X85000Y220000D02*
X86667Y218333D01*
X100000D01*
X86667Y211667D02*
X100000D01*
X85000Y210000D02*
X86667Y211667D01*
X85000Y210000D02*
X86667Y208333D01*
X100000D01*
X86667Y201667D02*
X100000D01*
X85000Y200000D02*
X86667Y201667D01*
X85000Y200000D02*
X86667Y198333D01*
X100000D01*
X86667Y191667D02*
X100000D01*
X85000Y190000D02*
X86667Y191667D01*
X85000Y190000D02*
X86667Y188333D01*
X100000D01*
X86667Y181667D02*
X100000D01*
X85000Y180000D02*
X86667Y181667D01*
X85000Y180000D02*
X86667Y178333D01*
X100000D01*
X86667Y171667D02*
X100000D01*
X85000Y170000D02*
X86667Y171667D01*
X85000Y170000D02*
X86667Y168333D01*
X100000D01*
X86667Y161667D02*
X100000D01*
X85000Y160000D02*
X86667Y161667D01*
X85000Y160000D02*
X86667Y158333D01*
X100000D01*
X86667Y151667D02*
X100000D01*
X85000Y150000D02*
X86667Y151667D01*
X85000Y150000D02*
X86667Y148333D01*
X100000D01*
X86667Y141667D02*
X100000D01*
X85000Y140000D02*
X86667Y141667D01*
X85000Y140000D02*
X86667Y138333D01*
X100000D01*
X86667Y131667D02*
X100000D01*
X85000Y130000D02*
X86667Y131667D01*
X85000Y130000D02*
X86667Y128333D01*
X100000D01*
X86667Y121667D02*
X100000D01*
X85000Y120000D02*
X86667Y121667D01*
X85000Y120000D02*
X86667Y118333D01*
X100000D01*
X102500Y115000D02*
X105000Y117500D01*
X100000Y315000D02*
X105000D01*
X100000Y115000D02*
Y315000D01*
Y115000D02*
X105000D01*
X262500Y292500D02*
Y307500D01*
X217500Y292500D02*
X262500D01*
X217500D02*
Y307500D01*
X262500D01*
D11*
X105000Y320000D02*
X600000D01*
X105000Y110000D02*
X600000Y110000D01*
D12*
X118000Y113332D02*
Y110000D01*
X121332Y113332D01*
X122165D01*
X122998Y112499D01*
Y110833D01*
X122165Y110000D01*
X108000Y112000D02*
Y113666D01*
Y112833D01*
X112998D01*
X112165Y112000D01*
Y316000D02*
X112998Y316833D01*
Y318499D01*
X112165Y319332D01*
X111332D01*
X110499Y318499D01*
Y317666D01*
Y318499D01*
X109666Y319332D01*
X108833D01*
X108000Y318499D01*
Y316833D01*
X108833Y316000D01*
Y320998D02*
X108000Y321831D01*
Y323498D01*
X108833Y324331D01*
X112165D01*
X112998Y323498D01*
Y321831D01*
X112165Y320998D01*
X111332D01*
X110499Y321831D01*
Y324331D01*
X118000Y318499D02*
X122998D01*
X120499Y316000D01*
Y319332D01*
X122165Y320998D02*
X122998Y321831D01*
Y323498D01*
X122165Y324331D01*
X118833D01*
X118000Y323498D01*
Y321831D01*
X118833Y320998D01*
X122165D01*
D13*
X252003Y162999D02*
X256001D01*
X254002D01*
Y157001D01*
X258001D02*
Y162999D01*
X261000D01*
X261999Y161999D01*
Y160000D01*
X261000Y159000D01*
X258001D01*
X267997Y162999D02*
X265998Y161999D01*
X263999Y160000D01*
Y158001D01*
X264998Y157001D01*
X266998D01*
X267997Y158001D01*
Y159000D01*
X266998Y160000D01*
X263999D01*
X256001Y141999D02*
X255002Y142999D01*
X253002D01*
X252003Y141999D01*
Y138001D01*
X253002Y137001D01*
X255002D01*
X256001Y138001D01*
Y140000D01*
X254002D01*
X258001Y137001D02*
Y142999D01*
X261999Y137001D01*
Y142999D01*
X263999D02*
Y137001D01*
X266998D01*
X267997Y138001D01*
Y141999D01*
X266998Y142999D01*
X263999D01*
X282003Y162999D02*
X286001D01*
X284002D01*
Y157001D01*
X288001D02*
Y162999D01*
X291000D01*
X291999Y161999D01*
Y160000D01*
X291000Y159000D01*
X288001D01*
X297997Y162999D02*
X293999D01*
Y160000D01*
X295998Y161000D01*
X296998D01*
X297997Y160000D01*
Y158001D01*
X296998Y157001D01*
X294998D01*
X293999Y158001D01*
X282003Y142999D02*
Y139000D01*
X284002Y137001D01*
X286001Y139000D01*
Y142999D01*
X291999Y141999D02*
X291000Y142999D01*
X289000D01*
X288001Y141999D01*
Y138001D01*
X289000Y137001D01*
X291000D01*
X291999Y138001D01*
X297997Y141999D02*
X296998Y142999D01*
X294998D01*
X293999Y141999D01*
Y138001D01*
X294998Y137001D01*
X296998D01*
X297997Y138001D01*
X192003Y322999D02*
X196001D01*
X194002D01*
Y317001D01*
X198001D02*
Y322999D01*
X201000D01*
X201999Y321999D01*
Y320000D01*
X201000Y319000D01*
X198001D01*
X206998Y317001D02*
Y322999D01*
X203999Y320000D01*
X207997D01*
X189004Y302999D02*
Y297001D01*
X193002D01*
X198001Y302999D02*
X196001D01*
X195002Y301999D01*
Y298001D01*
X196001Y297001D01*
X198001D01*
X199000Y298001D01*
Y301999D01*
X198001Y302999D01*
X201000Y297001D02*
Y301000D01*
X202999Y302999D01*
X204998Y301000D01*
Y297001D01*
Y300000D01*
X201000D01*
X206998Y302999D02*
Y297001D01*
X209997D01*
X210997Y298001D01*
Y301999D01*
X209997Y302999D01*
X206998D01*
X382003Y272999D02*
X386001D01*
X384002D01*
Y267001D01*
X388001D02*
Y272999D01*
X391000D01*
X391999Y271999D01*
Y270000D01*
X391000Y269000D01*
X388001D01*
X393999Y271999D02*
X394998Y272999D01*
X396998D01*
X397997Y271999D01*
Y271000D01*
X396998Y270000D01*
X395998D01*
X396998D01*
X397997Y269000D01*
Y268001D01*
X396998Y267001D01*
X394998D01*
X393999Y268001D01*
X382003Y252999D02*
X380003D01*
X379004Y251999D01*
Y248001D01*
X380003Y247001D01*
X382003D01*
X383002Y248001D01*
Y251999D01*
X382003Y252999D01*
X385002D02*
Y248001D01*
X386001Y247001D01*
X388001D01*
X389000Y248001D01*
Y252999D01*
X391000D02*
X394998D01*
X392999D01*
Y247001D01*
X397997D02*
Y252999D01*
X399997D02*
Y247001D01*
X396998Y251000D02*
X399997D01*
X400996D01*
X396998Y249000D02*
X400996D01*
X342003Y252999D02*
X346001D01*
X344002D01*
Y247001D01*
X348001D02*
Y252999D01*
X351000D01*
X351999Y251999D01*
Y250000D01*
X351000Y249000D01*
X348001D01*
X357997Y247001D02*
X353999D01*
X357997Y251000D01*
Y251999D01*
X356998Y252999D01*
X354998D01*
X353999Y251999D01*
X349000Y232999D02*
X345002D01*
Y227001D01*
X349000D01*
X345002Y230000D02*
X347001D01*
X351000Y227001D02*
Y232999D01*
X354998Y227001D01*
Y232999D01*
X343002Y292999D02*
X347001D01*
X345002D01*
Y287001D01*
X349000D02*
Y292999D01*
X351999D01*
X352999Y291999D01*
Y290000D01*
X351999Y289000D01*
X349000D01*
X354998Y287001D02*
X356998D01*
X355998D01*
Y292999D01*
X354998Y291999D01*
X346001Y271999D02*
X345002Y272999D01*
X343002D01*
X342003Y271999D01*
Y268001D01*
X343002Y267001D01*
X345002D01*
X346001Y268001D01*
X348001Y272999D02*
Y267001D01*
X351999D01*
X353999Y272999D02*
Y267001D01*
Y269000D01*
X357997Y272999D01*
X354998Y270000D01*
X357997Y267001D01*
X145800Y235498D02*
Y230500D01*
X146800Y229500D01*
X148799D01*
X149799Y230500D01*
Y235498D01*
X154797Y229500D02*
Y235498D01*
X151798Y232499D01*
X155797D01*
X285800Y318198D02*
Y313200D01*
X286800Y312200D01*
X288799D01*
X289799Y313200D01*
Y318198D01*
X291798Y317198D02*
X292798Y318198D01*
X294797D01*
X295797Y317198D01*
Y316199D01*
X294797Y315199D01*
X293797D01*
X294797D01*
X295797Y314199D01*
Y313200D01*
X294797Y312200D01*
X292798D01*
X291798Y313200D01*
X207600Y277398D02*
Y272400D01*
X208600Y271400D01*
X210599D01*
X211599Y272400D01*
Y277398D01*
X213598Y271400D02*
X215597D01*
X214598D01*
Y277398D01*
X213598Y276398D01*
X232800Y286400D02*
Y292398D01*
X235799D01*
X236799Y291398D01*
Y289399D01*
X235799Y288399D01*
X232800D01*
X234799D02*
X236799Y286400D01*
X238798D02*
X240797D01*
X239798D01*
Y292398D01*
X238798Y291398D01*
X222099Y315898D02*
X221099Y316898D01*
X219100D01*
X218100Y315898D01*
Y311900D01*
X219100Y310900D01*
X221099D01*
X222099Y311900D01*
X224098Y310900D02*
X226097D01*
X225098D01*
Y316898D01*
X224098Y315898D01*
X145800Y328198D02*
Y323200D01*
X146800Y322200D01*
X148799D01*
X149799Y323200D01*
Y328198D01*
X155797Y322200D02*
X151798D01*
X155797Y326199D01*
Y327198D01*
X154797Y328198D01*
X152798D01*
X151798Y327198D01*
X131001Y117001D02*
Y122999D01*
X134000D01*
X135000Y121999D01*
Y120000D01*
X134000Y119000D01*
X131001D01*
X136999Y117001D02*
X138999D01*
X137999D01*
Y122999D01*
X136999Y121999D01*
M02*
