G04*
G04 #@! TF.GenerationSoftware,Altium Limited,Altium Designer,21.9.1 (22)*
G04*
G04 Layer_Color=65535*
%FSLAX25Y25*%
%MOIN*%
G70*
G04*
G04 #@! TF.SameCoordinates,09A2F519-62F4-4556-9982-E7C42AD15BA3*
G04*
G04*
G04 #@! TF.FilePolarity,Positive*
G04*
G01*
G75*
%ADD10C,0.00787*%
%ADD11C,0.00500*%
%ADD12C,0.00800*%
%ADD13C,0.00591*%
%ADD14C,0.01000*%
D10*
X179842Y125000D02*
G03*
X179842Y125000I-9843J0D01*
G01*
X102500Y115000D02*
X105000D01*
X100000Y315000D02*
X105000D01*
Y115000D02*
Y315000D01*
X155000Y115000D02*
Y315000D01*
X135000Y115000D02*
Y315000D01*
Y115000D02*
X155000D01*
X135000Y315000D02*
X155000D01*
D11*
Y110000D02*
X600000Y110000D01*
X155000Y320000D02*
X600000Y320000D01*
D12*
X118000Y318499D02*
X122998D01*
X120499Y316000D01*
Y319332D01*
X122165Y320998D02*
X122998Y321831D01*
Y323498D01*
X122165Y324331D01*
X118833D01*
X118000Y323498D01*
Y321831D01*
X118833Y320998D01*
X122165D01*
X112165Y316000D02*
X112998Y316833D01*
Y318499D01*
X112165Y319332D01*
X111332D01*
X110499Y318499D01*
Y317666D01*
Y318499D01*
X109666Y319332D01*
X108833D01*
X108000Y318499D01*
Y316833D01*
X108833Y316000D01*
Y320998D02*
X108000Y321831D01*
Y323498D01*
X108833Y324331D01*
X112165D01*
X112998Y323498D01*
Y321831D01*
X112165Y320998D01*
X111332D01*
X110499Y321831D01*
Y324331D01*
X108000Y112000D02*
Y113666D01*
Y112833D01*
X112998D01*
X112165Y112000D01*
X118000Y113332D02*
Y110000D01*
X121332Y113332D01*
X122165D01*
X122998Y112499D01*
Y110833D01*
X122165Y110000D01*
X152000D02*
Y111666D01*
Y110833D01*
X147002D01*
X147835Y110000D01*
X142000Y113332D02*
Y110000D01*
X138668Y113332D01*
X137835D01*
X137002Y112499D01*
Y110833D01*
X137835Y110000D01*
X142000Y320499D02*
X137002D01*
X139501Y318000D01*
Y321332D01*
X137835Y322998D02*
X137002Y323831D01*
Y325498D01*
X137835Y326331D01*
X141167D01*
X142000Y325498D01*
Y323831D01*
X141167Y322998D01*
X137835D01*
X147835Y318000D02*
X147002Y318833D01*
Y320499D01*
X147835Y321332D01*
X148668D01*
X149501Y320499D01*
Y319666D01*
Y320499D01*
X150334Y321332D01*
X151167D01*
X152000Y320499D01*
Y318833D01*
X151167Y318000D01*
Y322998D02*
X152000Y323831D01*
Y325498D01*
X151167Y326331D01*
X147835D01*
X147002Y325498D01*
Y323831D01*
X147835Y322998D01*
X148668D01*
X149501Y323831D01*
Y326331D01*
D13*
X162212Y115889D02*
Y111953D01*
X164180Y113921D02*
X160245D01*
D14*
X147001Y105000D02*
Y103001D01*
Y104000D01*
X151999D01*
X152999Y103001D01*
Y102001D01*
X151999Y101001D01*
X152999Y106999D02*
Y108999D01*
Y107999D01*
X147001D01*
X148001Y106999D01*
X158048Y136881D02*
X157215Y136048D01*
Y134382D01*
X158048Y133549D01*
X161381D01*
X162214Y134382D01*
Y136048D01*
X161381Y136881D01*
X162214Y138547D02*
Y140213D01*
Y139380D01*
X157215D01*
X158048Y138547D01*
X112999Y101001D02*
X107001D01*
Y104000D01*
X108001Y105000D01*
X110000D01*
X111000Y104000D01*
Y101001D01*
X112999Y106999D02*
Y108999D01*
Y107999D01*
X107001D01*
X108001Y106999D01*
M02*
