G04*
G04 #@! TF.GenerationSoftware,Altium Limited,Altium Designer,21.9.1 (22)*
G04*
G04 Layer_Physical_Order=1*
G04 Layer_Color=255*
%FSLAX25Y25*%
%MOIN*%
G70*
G04*
G04 #@! TF.SameCoordinates,86BB2744-E3F5-4ECB-9631-A9D74316A694*
G04*
G04*
G04 #@! TF.FilePolarity,Positive*
G04*
G01*
G75*
%ADD12C,0.01000*%
%ADD20C,0.02000*%
%ADD21C,0.05906*%
%ADD22R,0.05906X0.05906*%
%ADD23C,0.04921*%
%ADD24R,0.04921X0.04921*%
G36*
X147204Y203525D02*
X147395Y203401D01*
X147615Y203292D01*
X147863Y203198D01*
X148142Y203119D01*
X148449Y203056D01*
X148785Y203007D01*
X149546Y202956D01*
X149970Y202953D01*
X147047Y200029D01*
X147044Y200454D01*
X146993Y201215D01*
X146944Y201551D01*
X146880Y201858D01*
X146802Y202136D01*
X146708Y202385D01*
X146599Y202605D01*
X146475Y202796D01*
X146336Y202957D01*
X147043Y203664D01*
X147204Y203525D01*
D02*
G37*
G36*
X113664Y202957D02*
X113525Y202796D01*
X113401Y202605D01*
X113292Y202385D01*
X113198Y202136D01*
X113119Y201858D01*
X113056Y201551D01*
X113007Y201215D01*
X112956Y200454D01*
X112953Y200029D01*
X110029Y202953D01*
X110454Y202956D01*
X111214Y203007D01*
X111551Y203056D01*
X111858Y203119D01*
X112136Y203198D01*
X112385Y203292D01*
X112605Y203401D01*
X112796Y203525D01*
X112957Y203664D01*
X113664Y202957D01*
D02*
G37*
G36*
X137891Y197933D02*
X137589Y198231D01*
X137015Y198732D01*
X136742Y198936D01*
X136480Y199108D01*
X136228Y199249D01*
X135985Y199359D01*
X135753Y199437D01*
X135531Y199484D01*
X135318Y199500D01*
Y200500D01*
X135531Y200516D01*
X135753Y200563D01*
X135985Y200641D01*
X136228Y200751D01*
X136480Y200892D01*
X136742Y201064D01*
X137015Y201268D01*
X137589Y201769D01*
X137891Y202067D01*
Y197933D01*
D02*
G37*
G36*
X122411Y201769D02*
X122985Y201268D01*
X123258Y201064D01*
X123520Y200892D01*
X123772Y200751D01*
X124015Y200641D01*
X124247Y200563D01*
X124469Y200516D01*
X124682Y200500D01*
Y199500D01*
X124469Y199484D01*
X124247Y199437D01*
X124015Y199359D01*
X123772Y199249D01*
X123520Y199108D01*
X123258Y198936D01*
X122985Y198732D01*
X122411Y198231D01*
X122109Y197933D01*
Y202067D01*
X122411Y201769D01*
D02*
G37*
G36*
X147204Y193525D02*
X147395Y193401D01*
X147615Y193292D01*
X147863Y193198D01*
X148142Y193120D01*
X148449Y193056D01*
X148785Y193007D01*
X149546Y192956D01*
X149970Y192953D01*
X147047Y190030D01*
X147044Y190454D01*
X146993Y191215D01*
X146944Y191551D01*
X146880Y191858D01*
X146802Y192137D01*
X146708Y192385D01*
X146599Y192605D01*
X146475Y192796D01*
X146336Y192957D01*
X147043Y193664D01*
X147204Y193525D01*
D02*
G37*
G36*
X113664Y192957D02*
X113525Y192796D01*
X113401Y192605D01*
X113292Y192385D01*
X113198Y192137D01*
X113119Y191858D01*
X113056Y191551D01*
X113007Y191215D01*
X112956Y190454D01*
X112953Y190030D01*
X110029Y192953D01*
X110454Y192956D01*
X111214Y193007D01*
X111551Y193056D01*
X111858Y193120D01*
X112136Y193198D01*
X112385Y193292D01*
X112605Y193401D01*
X112796Y193525D01*
X112957Y193664D01*
X113664Y192957D01*
D02*
G37*
G36*
X137891Y187933D02*
X137589Y188231D01*
X137015Y188732D01*
X136742Y188936D01*
X136480Y189108D01*
X136228Y189249D01*
X135985Y189359D01*
X135753Y189437D01*
X135531Y189484D01*
X135318Y189500D01*
Y190500D01*
X135531Y190516D01*
X135753Y190563D01*
X135985Y190641D01*
X136228Y190751D01*
X136480Y190892D01*
X136742Y191064D01*
X137015Y191268D01*
X137589Y191769D01*
X137891Y192067D01*
Y187933D01*
D02*
G37*
G36*
X122411Y191769D02*
X122985Y191268D01*
X123258Y191064D01*
X123520Y190892D01*
X123772Y190751D01*
X124015Y190641D01*
X124247Y190563D01*
X124469Y190516D01*
X124682Y190500D01*
Y189500D01*
X124469Y189484D01*
X124247Y189437D01*
X124015Y189359D01*
X123772Y189249D01*
X123520Y189108D01*
X123258Y188936D01*
X122985Y188732D01*
X122411Y188231D01*
X122109Y187933D01*
Y192067D01*
X122411Y191769D01*
D02*
G37*
G36*
X147204Y183525D02*
X147395Y183401D01*
X147615Y183292D01*
X147863Y183198D01*
X148142Y183119D01*
X148449Y183056D01*
X148785Y183007D01*
X149546Y182956D01*
X149970Y182953D01*
X147047Y180029D01*
X147044Y180454D01*
X146993Y181214D01*
X146944Y181551D01*
X146880Y181858D01*
X146802Y182136D01*
X146708Y182386D01*
X146599Y182605D01*
X146475Y182796D01*
X146336Y182957D01*
X147043Y183664D01*
X147204Y183525D01*
D02*
G37*
G36*
X113664Y182957D02*
X113525Y182796D01*
X113401Y182605D01*
X113292Y182386D01*
X113198Y182136D01*
X113119Y181858D01*
X113056Y181551D01*
X113007Y181214D01*
X112956Y180454D01*
X112953Y180029D01*
X110029Y182953D01*
X110454Y182956D01*
X111214Y183007D01*
X111551Y183056D01*
X111858Y183119D01*
X112136Y183198D01*
X112385Y183292D01*
X112605Y183401D01*
X112796Y183525D01*
X112957Y183664D01*
X113664Y182957D01*
D02*
G37*
G36*
X137891Y177933D02*
X137589Y178231D01*
X137015Y178732D01*
X136742Y178936D01*
X136480Y179108D01*
X136228Y179249D01*
X135985Y179359D01*
X135753Y179437D01*
X135531Y179484D01*
X135318Y179500D01*
Y180500D01*
X135531Y180516D01*
X135753Y180563D01*
X135985Y180641D01*
X136228Y180751D01*
X136480Y180892D01*
X136742Y181064D01*
X137015Y181268D01*
X137589Y181769D01*
X137891Y182067D01*
Y177933D01*
D02*
G37*
G36*
X122411Y181769D02*
X122985Y181268D01*
X123258Y181064D01*
X123520Y180892D01*
X123772Y180751D01*
X124015Y180641D01*
X124247Y180563D01*
X124469Y180516D01*
X124682Y180500D01*
Y179500D01*
X124469Y179484D01*
X124247Y179437D01*
X124015Y179359D01*
X123772Y179249D01*
X123520Y179108D01*
X123258Y178936D01*
X122985Y178732D01*
X122411Y178231D01*
X122109Y177933D01*
Y182067D01*
X122411Y181769D01*
D02*
G37*
G36*
X147204Y173525D02*
X147395Y173401D01*
X147615Y173292D01*
X147863Y173198D01*
X148142Y173119D01*
X148449Y173056D01*
X148785Y173007D01*
X149546Y172956D01*
X149970Y172953D01*
X147047Y170029D01*
X147044Y170454D01*
X146993Y171214D01*
X146944Y171551D01*
X146880Y171858D01*
X146802Y172136D01*
X146708Y172386D01*
X146599Y172605D01*
X146475Y172796D01*
X146336Y172957D01*
X147043Y173664D01*
X147204Y173525D01*
D02*
G37*
G36*
X113664Y172957D02*
X113525Y172796D01*
X113401Y172605D01*
X113292Y172386D01*
X113198Y172136D01*
X113119Y171858D01*
X113056Y171551D01*
X113007Y171214D01*
X112956Y170454D01*
X112953Y170029D01*
X110029Y172953D01*
X110454Y172956D01*
X111214Y173007D01*
X111551Y173056D01*
X111858Y173119D01*
X112136Y173198D01*
X112385Y173292D01*
X112605Y173401D01*
X112796Y173525D01*
X112957Y173664D01*
X113664Y172957D01*
D02*
G37*
G36*
X137891Y167933D02*
X137589Y168231D01*
X137015Y168732D01*
X136742Y168936D01*
X136480Y169108D01*
X136228Y169249D01*
X135985Y169359D01*
X135753Y169437D01*
X135531Y169484D01*
X135318Y169500D01*
Y170500D01*
X135531Y170516D01*
X135753Y170563D01*
X135985Y170641D01*
X136228Y170751D01*
X136480Y170892D01*
X136742Y171064D01*
X137015Y171268D01*
X137589Y171769D01*
X137891Y172067D01*
Y167933D01*
D02*
G37*
G36*
X122411Y171769D02*
X122985Y171268D01*
X123258Y171064D01*
X123520Y170892D01*
X123772Y170751D01*
X124015Y170641D01*
X124247Y170563D01*
X124469Y170516D01*
X124682Y170500D01*
Y169500D01*
X124469Y169484D01*
X124247Y169437D01*
X124015Y169359D01*
X123772Y169249D01*
X123520Y169108D01*
X123258Y168936D01*
X122985Y168732D01*
X122411Y168231D01*
X122109Y167933D01*
Y172067D01*
X122411Y171769D01*
D02*
G37*
G36*
X147204Y163525D02*
X147395Y163401D01*
X147615Y163292D01*
X147863Y163198D01*
X148142Y163119D01*
X148449Y163056D01*
X148785Y163007D01*
X149546Y162956D01*
X149970Y162953D01*
X147047Y160029D01*
X147044Y160454D01*
X146993Y161214D01*
X146944Y161551D01*
X146880Y161858D01*
X146802Y162136D01*
X146708Y162385D01*
X146599Y162605D01*
X146475Y162796D01*
X146336Y162957D01*
X147043Y163664D01*
X147204Y163525D01*
D02*
G37*
G36*
X113664Y162957D02*
X113525Y162796D01*
X113401Y162605D01*
X113292Y162385D01*
X113198Y162136D01*
X113119Y161858D01*
X113056Y161551D01*
X113007Y161214D01*
X112956Y160454D01*
X112953Y160029D01*
X110029Y162953D01*
X110454Y162956D01*
X111214Y163007D01*
X111551Y163056D01*
X111858Y163119D01*
X112136Y163198D01*
X112385Y163292D01*
X112605Y163401D01*
X112796Y163525D01*
X112957Y163664D01*
X113664Y162957D01*
D02*
G37*
G36*
X137891Y157933D02*
X137589Y158231D01*
X137015Y158732D01*
X136742Y158936D01*
X136480Y159108D01*
X136228Y159249D01*
X135985Y159359D01*
X135753Y159437D01*
X135531Y159484D01*
X135318Y159500D01*
Y160500D01*
X135531Y160516D01*
X135753Y160563D01*
X135985Y160641D01*
X136228Y160751D01*
X136480Y160892D01*
X136742Y161064D01*
X137015Y161268D01*
X137589Y161769D01*
X137891Y162067D01*
Y157933D01*
D02*
G37*
G36*
X122411Y161769D02*
X122985Y161268D01*
X123258Y161064D01*
X123520Y160892D01*
X123772Y160751D01*
X124015Y160641D01*
X124247Y160563D01*
X124469Y160516D01*
X124682Y160500D01*
Y159500D01*
X124469Y159484D01*
X124247Y159437D01*
X124015Y159359D01*
X123772Y159249D01*
X123520Y159108D01*
X123258Y158936D01*
X122985Y158732D01*
X122411Y158231D01*
X122109Y157933D01*
Y162067D01*
X122411Y161769D01*
D02*
G37*
G36*
X147204Y153525D02*
X147395Y153401D01*
X147615Y153292D01*
X147863Y153198D01*
X148142Y153120D01*
X148449Y153056D01*
X148785Y153007D01*
X149546Y152956D01*
X149970Y152953D01*
X147047Y150030D01*
X147044Y150454D01*
X146993Y151215D01*
X146944Y151551D01*
X146880Y151858D01*
X146802Y152137D01*
X146708Y152385D01*
X146599Y152605D01*
X146475Y152796D01*
X146336Y152957D01*
X147043Y153664D01*
X147204Y153525D01*
D02*
G37*
G36*
X113664Y152957D02*
X113525Y152796D01*
X113401Y152605D01*
X113292Y152385D01*
X113198Y152137D01*
X113119Y151858D01*
X113056Y151551D01*
X113007Y151215D01*
X112956Y150454D01*
X112953Y150030D01*
X110029Y152953D01*
X110454Y152956D01*
X111214Y153007D01*
X111551Y153056D01*
X111858Y153120D01*
X112136Y153198D01*
X112385Y153292D01*
X112605Y153401D01*
X112796Y153525D01*
X112957Y153664D01*
X113664Y152957D01*
D02*
G37*
G36*
X137891Y147933D02*
X137589Y148231D01*
X137015Y148732D01*
X136742Y148936D01*
X136480Y149108D01*
X136228Y149249D01*
X135985Y149359D01*
X135753Y149437D01*
X135531Y149484D01*
X135318Y149500D01*
Y150500D01*
X135531Y150516D01*
X135753Y150563D01*
X135985Y150641D01*
X136228Y150751D01*
X136480Y150892D01*
X136742Y151064D01*
X137015Y151268D01*
X137589Y151769D01*
X137891Y152067D01*
Y147933D01*
D02*
G37*
G36*
X122411Y151769D02*
X122985Y151268D01*
X123258Y151064D01*
X123520Y150892D01*
X123772Y150751D01*
X124015Y150641D01*
X124247Y150563D01*
X124469Y150516D01*
X124682Y150500D01*
Y149500D01*
X124469Y149484D01*
X124247Y149437D01*
X124015Y149359D01*
X123772Y149249D01*
X123520Y149108D01*
X123258Y148936D01*
X122985Y148732D01*
X122411Y148231D01*
X122109Y147933D01*
Y152067D01*
X122411Y151769D01*
D02*
G37*
G36*
X147204Y143525D02*
X147395Y143401D01*
X147615Y143292D01*
X147863Y143198D01*
X148142Y143120D01*
X148449Y143056D01*
X148785Y143007D01*
X149546Y142956D01*
X149970Y142953D01*
X147047Y140030D01*
X147044Y140454D01*
X146993Y141215D01*
X146944Y141551D01*
X146880Y141858D01*
X146802Y142137D01*
X146708Y142385D01*
X146599Y142605D01*
X146475Y142796D01*
X146336Y142957D01*
X147043Y143664D01*
X147204Y143525D01*
D02*
G37*
G36*
X113664Y142957D02*
X113525Y142796D01*
X113401Y142605D01*
X113292Y142385D01*
X113198Y142137D01*
X113119Y141858D01*
X113056Y141551D01*
X113007Y141215D01*
X112956Y140454D01*
X112953Y140030D01*
X110029Y142953D01*
X110454Y142956D01*
X111214Y143007D01*
X111551Y143056D01*
X111858Y143120D01*
X112136Y143198D01*
X112385Y143292D01*
X112605Y143401D01*
X112796Y143525D01*
X112957Y143664D01*
X113664Y142957D01*
D02*
G37*
G36*
X137891Y137933D02*
X137589Y138231D01*
X137015Y138732D01*
X136742Y138936D01*
X136480Y139108D01*
X136228Y139249D01*
X135985Y139359D01*
X135753Y139437D01*
X135531Y139484D01*
X135318Y139500D01*
Y140500D01*
X135531Y140516D01*
X135753Y140563D01*
X135985Y140641D01*
X136228Y140751D01*
X136480Y140892D01*
X136742Y141064D01*
X137015Y141268D01*
X137589Y141769D01*
X137891Y142067D01*
Y137933D01*
D02*
G37*
G36*
X122411Y141769D02*
X122985Y141268D01*
X123258Y141064D01*
X123520Y140892D01*
X123772Y140751D01*
X124015Y140641D01*
X124247Y140563D01*
X124469Y140516D01*
X124682Y140500D01*
Y139500D01*
X124469Y139484D01*
X124247Y139437D01*
X124015Y139359D01*
X123772Y139249D01*
X123520Y139108D01*
X123258Y138936D01*
X122985Y138732D01*
X122411Y138231D01*
X122109Y137933D01*
Y142067D01*
X122411Y141769D01*
D02*
G37*
G36*
X152321Y131864D02*
X152541Y131683D01*
X152768Y131523D01*
X153001Y131384D01*
X153242Y131267D01*
X153489Y131171D01*
X153744Y131096D01*
X154006Y131043D01*
X154274Y131011D01*
X154550Y131000D01*
Y129000D01*
X154274Y128989D01*
X154006Y128957D01*
X153744Y128904D01*
X153489Y128829D01*
X153242Y128733D01*
X153001Y128616D01*
X152768Y128477D01*
X152541Y128317D01*
X152321Y128136D01*
X152109Y127933D01*
Y132067D01*
X152321Y131864D01*
D02*
G37*
G36*
X147891Y127933D02*
X147679Y128136D01*
X147459Y128317D01*
X147232Y128477D01*
X146999Y128616D01*
X146758Y128733D01*
X146511Y128829D01*
X146256Y128904D01*
X145994Y128957D01*
X145726Y128989D01*
X145450Y129000D01*
Y131000D01*
X145726Y131011D01*
X145994Y131043D01*
X146256Y131096D01*
X146511Y131171D01*
X146758Y131267D01*
X146999Y131384D01*
X147232Y131523D01*
X147459Y131683D01*
X147679Y131864D01*
X147891Y132067D01*
Y127933D01*
D02*
G37*
G36*
X142321Y131864D02*
X142541Y131683D01*
X142768Y131523D01*
X143001Y131384D01*
X143242Y131267D01*
X143490Y131171D01*
X143744Y131096D01*
X144006Y131043D01*
X144274Y131011D01*
X144550Y131000D01*
Y129000D01*
X144274Y128989D01*
X144006Y128957D01*
X143744Y128904D01*
X143490Y128829D01*
X143242Y128733D01*
X143001Y128616D01*
X142768Y128477D01*
X142541Y128317D01*
X142321Y128136D01*
X142109Y127933D01*
Y132067D01*
X142321Y131864D01*
D02*
G37*
G36*
X137891Y127933D02*
X137679Y128136D01*
X137459Y128317D01*
X137232Y128477D01*
X136999Y128616D01*
X136758Y128733D01*
X136511Y128829D01*
X136256Y128904D01*
X135994Y128957D01*
X135726Y128989D01*
X135450Y129000D01*
Y131000D01*
X135726Y131011D01*
X135994Y131043D01*
X136256Y131096D01*
X136511Y131171D01*
X136758Y131267D01*
X136999Y131384D01*
X137232Y131523D01*
X137459Y131683D01*
X137679Y131864D01*
X137891Y132067D01*
Y127933D01*
D02*
G37*
G36*
X122321Y131864D02*
X122541Y131683D01*
X122768Y131523D01*
X123001Y131384D01*
X123242Y131267D01*
X123489Y131171D01*
X123744Y131096D01*
X124006Y131043D01*
X124274Y131011D01*
X124550Y131000D01*
Y129000D01*
X124274Y128989D01*
X124006Y128957D01*
X123744Y128904D01*
X123489Y128829D01*
X123242Y128733D01*
X123001Y128616D01*
X122768Y128477D01*
X122541Y128317D01*
X122321Y128136D01*
X122109Y127933D01*
Y132067D01*
X122321Y131864D01*
D02*
G37*
G36*
X117891Y127933D02*
X117679Y128136D01*
X117459Y128317D01*
X117232Y128477D01*
X116999Y128616D01*
X116758Y128733D01*
X116510Y128829D01*
X116256Y128904D01*
X115994Y128957D01*
X115726Y128989D01*
X115450Y129000D01*
Y131000D01*
X115726Y131011D01*
X115994Y131043D01*
X116256Y131096D01*
X116510Y131171D01*
X116758Y131267D01*
X116999Y131384D01*
X117232Y131523D01*
X117459Y131683D01*
X117679Y131864D01*
X117891Y132067D01*
Y127933D01*
D02*
G37*
G36*
X112321Y131864D02*
X112541Y131683D01*
X112768Y131523D01*
X113001Y131384D01*
X113242Y131267D01*
X113489Y131171D01*
X113744Y131096D01*
X114006Y131043D01*
X114274Y131011D01*
X114550Y131000D01*
Y129000D01*
X114274Y128989D01*
X114006Y128957D01*
X113744Y128904D01*
X113489Y128829D01*
X113242Y128733D01*
X113001Y128616D01*
X112768Y128477D01*
X112541Y128317D01*
X112321Y128136D01*
X112109Y127933D01*
Y132067D01*
X112321Y131864D01*
D02*
G37*
G36*
X168243Y127215D02*
X168096Y127352D01*
X167938Y127475D01*
X167768Y127583D01*
X167588Y127677D01*
X167397Y127756D01*
X167195Y127821D01*
X166981Y127872D01*
X166757Y127908D01*
X166522Y127930D01*
X166275Y127937D01*
Y129937D01*
X166522Y129944D01*
X166757Y129966D01*
X166981Y130002D01*
X167195Y130053D01*
X167397Y130118D01*
X167588Y130197D01*
X167768Y130291D01*
X167938Y130399D01*
X168096Y130522D01*
X168243Y130659D01*
Y127215D01*
D02*
G37*
G36*
X167563Y119063D02*
X167543Y119253D01*
X167483Y119423D01*
X167382Y119573D01*
X167241Y119703D01*
X167060Y119813D01*
X166839Y119903D01*
X166577Y119973D01*
X166276Y120023D01*
X165934Y120053D01*
X165551Y120063D01*
Y122063D01*
X165934Y122073D01*
X166276Y122103D01*
X166577Y122153D01*
X166839Y122223D01*
X167060Y122313D01*
X167241Y122423D01*
X167382Y122553D01*
X167483Y122703D01*
X167543Y122873D01*
X167563Y123063D01*
Y119063D01*
D02*
G37*
G36*
X152949Y121810D02*
X153009Y121640D01*
X153110Y121490D01*
X153251Y121360D01*
X153432Y121250D01*
X153653Y121160D01*
X153915Y121090D01*
X154216Y121040D01*
X154559Y121010D01*
X154941Y121000D01*
Y119000D01*
X154559Y118990D01*
X154216Y118960D01*
X153915Y118910D01*
X153653Y118840D01*
X153432Y118750D01*
X153251Y118640D01*
X153110Y118510D01*
X153009Y118360D01*
X152949Y118190D01*
X152929Y118000D01*
Y122000D01*
X152949Y121810D01*
D02*
G37*
G36*
X147071Y118000D02*
X147051Y118190D01*
X146991Y118360D01*
X146890Y118510D01*
X146749Y118640D01*
X146568Y118750D01*
X146347Y118840D01*
X146085Y118910D01*
X145784Y118960D01*
X145441Y118990D01*
X145059Y119000D01*
Y121000D01*
X145441Y121010D01*
X145784Y121040D01*
X146085Y121090D01*
X146347Y121160D01*
X146568Y121250D01*
X146749Y121360D01*
X146890Y121490D01*
X146991Y121640D01*
X147051Y121810D01*
X147071Y122000D01*
Y118000D01*
D02*
G37*
G36*
X112949Y121810D02*
X113009Y121640D01*
X113110Y121490D01*
X113251Y121360D01*
X113432Y121250D01*
X113653Y121160D01*
X113915Y121090D01*
X114216Y121040D01*
X114558Y121010D01*
X114941Y121000D01*
Y119000D01*
X114558Y118990D01*
X114216Y118960D01*
X113915Y118910D01*
X113653Y118840D01*
X113432Y118750D01*
X113251Y118640D01*
X113110Y118510D01*
X113009Y118360D01*
X112949Y118190D01*
X112929Y118000D01*
Y122000D01*
X112949Y121810D01*
D02*
G37*
G36*
X142321Y121864D02*
X142541Y121683D01*
X142768Y121523D01*
X143001Y121384D01*
X143242Y121267D01*
X143490Y121171D01*
X143744Y121096D01*
X144006Y121043D01*
X144274Y121011D01*
X144550Y121000D01*
Y119000D01*
X144274Y118989D01*
X144006Y118957D01*
X143744Y118904D01*
X143490Y118829D01*
X143242Y118733D01*
X143001Y118616D01*
X142768Y118477D01*
X142541Y118317D01*
X142321Y118136D01*
X142109Y117933D01*
Y122067D01*
X142321Y121864D01*
D02*
G37*
G36*
X137891Y117933D02*
X137679Y118136D01*
X137459Y118317D01*
X137232Y118477D01*
X136999Y118616D01*
X136758Y118733D01*
X136511Y118829D01*
X136256Y118904D01*
X135994Y118957D01*
X135726Y118989D01*
X135450Y119000D01*
Y121000D01*
X135726Y121011D01*
X135994Y121043D01*
X136256Y121096D01*
X136511Y121171D01*
X136758Y121267D01*
X136999Y121384D01*
X137232Y121523D01*
X137459Y121683D01*
X137679Y121864D01*
X137891Y122067D01*
Y117933D01*
D02*
G37*
G36*
X122321Y121864D02*
X122541Y121683D01*
X122768Y121523D01*
X123001Y121384D01*
X123242Y121267D01*
X123489Y121171D01*
X123744Y121096D01*
X124006Y121043D01*
X124274Y121011D01*
X124550Y121000D01*
Y119000D01*
X124274Y118989D01*
X124006Y118957D01*
X123744Y118904D01*
X123489Y118829D01*
X123242Y118733D01*
X123001Y118616D01*
X122768Y118477D01*
X122541Y118317D01*
X122321Y118136D01*
X122109Y117933D01*
Y122067D01*
X122321Y121864D01*
D02*
G37*
G36*
X117891Y117933D02*
X117679Y118136D01*
X117459Y118317D01*
X117232Y118477D01*
X116999Y118616D01*
X116758Y118733D01*
X116510Y118829D01*
X116256Y118904D01*
X115994Y118957D01*
X115726Y118989D01*
X115450Y119000D01*
Y121000D01*
X115726Y121011D01*
X115994Y121043D01*
X116256Y121096D01*
X116510Y121171D01*
X116758Y121267D01*
X116999Y121384D01*
X117232Y121523D01*
X117459Y121683D01*
X117679Y121864D01*
X117891Y122067D01*
Y117933D01*
D02*
G37*
G36*
X147204Y313525D02*
X147395Y313401D01*
X147615Y313292D01*
X147863Y313198D01*
X148142Y313120D01*
X148449Y313056D01*
X148785Y313007D01*
X149546Y312956D01*
X149970Y312953D01*
X147047Y310030D01*
X147044Y310454D01*
X146993Y311214D01*
X146944Y311551D01*
X146880Y311858D01*
X146802Y312137D01*
X146708Y312386D01*
X146599Y312605D01*
X146475Y312796D01*
X146336Y312957D01*
X147043Y313664D01*
X147204Y313525D01*
D02*
G37*
G36*
X113664Y312957D02*
X113525Y312796D01*
X113401Y312605D01*
X113292Y312386D01*
X113198Y312137D01*
X113119Y311858D01*
X113056Y311551D01*
X113007Y311214D01*
X112956Y310454D01*
X112953Y310030D01*
X110029Y312953D01*
X110454Y312956D01*
X111214Y313007D01*
X111551Y313056D01*
X111858Y313120D01*
X112136Y313198D01*
X112385Y313292D01*
X112605Y313401D01*
X112796Y313525D01*
X112957Y313664D01*
X113664Y312957D01*
D02*
G37*
G36*
X137891Y307933D02*
X137589Y308231D01*
X137015Y308732D01*
X136742Y308936D01*
X136480Y309108D01*
X136228Y309249D01*
X135985Y309359D01*
X135753Y309437D01*
X135531Y309484D01*
X135318Y309500D01*
Y310500D01*
X135531Y310516D01*
X135753Y310563D01*
X135985Y310641D01*
X136228Y310751D01*
X136480Y310892D01*
X136742Y311064D01*
X137015Y311268D01*
X137589Y311769D01*
X137891Y312067D01*
Y307933D01*
D02*
G37*
G36*
X122411Y311769D02*
X122985Y311268D01*
X123258Y311064D01*
X123520Y310892D01*
X123772Y310751D01*
X124015Y310641D01*
X124247Y310563D01*
X124469Y310516D01*
X124682Y310500D01*
Y309500D01*
X124469Y309484D01*
X124247Y309437D01*
X124015Y309359D01*
X123772Y309249D01*
X123520Y309108D01*
X123258Y308936D01*
X122985Y308732D01*
X122411Y308231D01*
X122109Y307933D01*
Y312067D01*
X122411Y311769D01*
D02*
G37*
G36*
X147204Y303525D02*
X147395Y303401D01*
X147615Y303292D01*
X147863Y303198D01*
X148142Y303119D01*
X148449Y303056D01*
X148785Y303007D01*
X149546Y302956D01*
X149970Y302953D01*
X147047Y300029D01*
X147044Y300454D01*
X146993Y301215D01*
X146944Y301551D01*
X146880Y301858D01*
X146802Y302136D01*
X146708Y302385D01*
X146599Y302605D01*
X146475Y302796D01*
X146336Y302957D01*
X147043Y303664D01*
X147204Y303525D01*
D02*
G37*
G36*
X113664Y302957D02*
X113525Y302796D01*
X113401Y302605D01*
X113292Y302385D01*
X113198Y302136D01*
X113119Y301858D01*
X113056Y301551D01*
X113007Y301215D01*
X112956Y300454D01*
X112953Y300029D01*
X110029Y302953D01*
X110454Y302956D01*
X111214Y303007D01*
X111551Y303056D01*
X111858Y303119D01*
X112136Y303198D01*
X112385Y303292D01*
X112605Y303401D01*
X112796Y303525D01*
X112957Y303664D01*
X113664Y302957D01*
D02*
G37*
G36*
X137891Y297933D02*
X137589Y298231D01*
X137015Y298732D01*
X136742Y298936D01*
X136480Y299108D01*
X136228Y299249D01*
X135985Y299359D01*
X135753Y299437D01*
X135531Y299484D01*
X135318Y299500D01*
Y300500D01*
X135531Y300516D01*
X135753Y300563D01*
X135985Y300641D01*
X136228Y300751D01*
X136480Y300892D01*
X136742Y301064D01*
X137015Y301268D01*
X137589Y301769D01*
X137891Y302067D01*
Y297933D01*
D02*
G37*
G36*
X122411Y301769D02*
X122985Y301268D01*
X123258Y301064D01*
X123520Y300892D01*
X123772Y300751D01*
X124015Y300641D01*
X124247Y300563D01*
X124469Y300516D01*
X124682Y300500D01*
Y299500D01*
X124469Y299484D01*
X124247Y299437D01*
X124015Y299359D01*
X123772Y299249D01*
X123520Y299108D01*
X123258Y298936D01*
X122985Y298732D01*
X122411Y298231D01*
X122109Y297933D01*
Y302067D01*
X122411Y301769D01*
D02*
G37*
G36*
X147204Y293525D02*
X147395Y293401D01*
X147615Y293292D01*
X147863Y293198D01*
X148142Y293120D01*
X148449Y293056D01*
X148785Y293007D01*
X149546Y292956D01*
X149970Y292953D01*
X147047Y290030D01*
X147044Y290454D01*
X146993Y291214D01*
X146944Y291551D01*
X146880Y291858D01*
X146802Y292137D01*
X146708Y292386D01*
X146599Y292605D01*
X146475Y292796D01*
X146336Y292957D01*
X147043Y293664D01*
X147204Y293525D01*
D02*
G37*
G36*
X113664Y292957D02*
X113525Y292796D01*
X113401Y292605D01*
X113292Y292386D01*
X113198Y292137D01*
X113119Y291858D01*
X113056Y291551D01*
X113007Y291214D01*
X112956Y290454D01*
X112953Y290030D01*
X110029Y292953D01*
X110454Y292956D01*
X111214Y293007D01*
X111551Y293056D01*
X111858Y293120D01*
X112136Y293198D01*
X112385Y293292D01*
X112605Y293401D01*
X112796Y293525D01*
X112957Y293664D01*
X113664Y292957D01*
D02*
G37*
G36*
X137891Y287933D02*
X137589Y288231D01*
X137015Y288732D01*
X136742Y288936D01*
X136480Y289108D01*
X136228Y289249D01*
X135985Y289359D01*
X135753Y289437D01*
X135531Y289484D01*
X135318Y289500D01*
Y290500D01*
X135531Y290516D01*
X135753Y290563D01*
X135985Y290641D01*
X136228Y290751D01*
X136480Y290892D01*
X136742Y291064D01*
X137015Y291268D01*
X137589Y291769D01*
X137891Y292067D01*
Y287933D01*
D02*
G37*
G36*
X122411Y291769D02*
X122985Y291268D01*
X123258Y291064D01*
X123520Y290892D01*
X123772Y290751D01*
X124015Y290641D01*
X124247Y290563D01*
X124469Y290516D01*
X124682Y290500D01*
Y289500D01*
X124469Y289484D01*
X124247Y289437D01*
X124015Y289359D01*
X123772Y289249D01*
X123520Y289108D01*
X123258Y288936D01*
X122985Y288732D01*
X122411Y288231D01*
X122109Y287933D01*
Y292067D01*
X122411Y291769D01*
D02*
G37*
G36*
X147204Y283525D02*
X147395Y283401D01*
X147615Y283292D01*
X147863Y283198D01*
X148142Y283120D01*
X148449Y283056D01*
X148785Y283007D01*
X149546Y282956D01*
X149970Y282953D01*
X147047Y280030D01*
X147044Y280454D01*
X146993Y281214D01*
X146944Y281551D01*
X146880Y281858D01*
X146802Y282137D01*
X146708Y282385D01*
X146599Y282605D01*
X146475Y282796D01*
X146336Y282957D01*
X147043Y283664D01*
X147204Y283525D01*
D02*
G37*
G36*
X113664Y282957D02*
X113525Y282796D01*
X113401Y282605D01*
X113292Y282385D01*
X113198Y282137D01*
X113119Y281858D01*
X113056Y281551D01*
X113007Y281214D01*
X112956Y280454D01*
X112953Y280030D01*
X110029Y282953D01*
X110454Y282956D01*
X111214Y283007D01*
X111551Y283056D01*
X111858Y283120D01*
X112136Y283198D01*
X112385Y283292D01*
X112605Y283401D01*
X112796Y283525D01*
X112957Y283664D01*
X113664Y282957D01*
D02*
G37*
G36*
X137891Y277933D02*
X137589Y278231D01*
X137015Y278732D01*
X136742Y278936D01*
X136480Y279108D01*
X136228Y279249D01*
X135985Y279359D01*
X135753Y279437D01*
X135531Y279484D01*
X135318Y279500D01*
Y280500D01*
X135531Y280516D01*
X135753Y280563D01*
X135985Y280641D01*
X136228Y280751D01*
X136480Y280892D01*
X136742Y281064D01*
X137015Y281268D01*
X137589Y281769D01*
X137891Y282067D01*
Y277933D01*
D02*
G37*
G36*
X122411Y281769D02*
X122985Y281268D01*
X123258Y281064D01*
X123520Y280892D01*
X123772Y280751D01*
X124015Y280641D01*
X124247Y280563D01*
X124469Y280516D01*
X124682Y280500D01*
Y279500D01*
X124469Y279484D01*
X124247Y279437D01*
X124015Y279359D01*
X123772Y279249D01*
X123520Y279108D01*
X123258Y278936D01*
X122985Y278732D01*
X122411Y278231D01*
X122109Y277933D01*
Y282067D01*
X122411Y281769D01*
D02*
G37*
G36*
X147204Y273525D02*
X147395Y273401D01*
X147615Y273292D01*
X147863Y273198D01*
X148142Y273119D01*
X148449Y273056D01*
X148785Y273007D01*
X149546Y272956D01*
X149970Y272953D01*
X147047Y270029D01*
X147044Y270454D01*
X146993Y271215D01*
X146944Y271551D01*
X146880Y271858D01*
X146802Y272136D01*
X146708Y272386D01*
X146599Y272605D01*
X146475Y272796D01*
X146336Y272957D01*
X147043Y273664D01*
X147204Y273525D01*
D02*
G37*
G36*
X113664Y272957D02*
X113525Y272796D01*
X113401Y272605D01*
X113292Y272386D01*
X113198Y272136D01*
X113119Y271858D01*
X113056Y271551D01*
X113007Y271215D01*
X112956Y270454D01*
X112953Y270029D01*
X110029Y272953D01*
X110454Y272956D01*
X111214Y273007D01*
X111551Y273056D01*
X111858Y273119D01*
X112136Y273198D01*
X112385Y273292D01*
X112605Y273401D01*
X112796Y273525D01*
X112957Y273664D01*
X113664Y272957D01*
D02*
G37*
G36*
X137891Y267933D02*
X137589Y268231D01*
X137015Y268732D01*
X136742Y268936D01*
X136480Y269108D01*
X136228Y269249D01*
X135985Y269359D01*
X135753Y269437D01*
X135531Y269484D01*
X135318Y269500D01*
Y270500D01*
X135531Y270516D01*
X135753Y270563D01*
X135985Y270641D01*
X136228Y270751D01*
X136480Y270892D01*
X136742Y271064D01*
X137015Y271268D01*
X137589Y271769D01*
X137891Y272067D01*
Y267933D01*
D02*
G37*
G36*
X122411Y271769D02*
X122985Y271268D01*
X123258Y271064D01*
X123520Y270892D01*
X123772Y270751D01*
X124015Y270641D01*
X124247Y270563D01*
X124469Y270516D01*
X124682Y270500D01*
Y269500D01*
X124469Y269484D01*
X124247Y269437D01*
X124015Y269359D01*
X123772Y269249D01*
X123520Y269108D01*
X123258Y268936D01*
X122985Y268732D01*
X122411Y268231D01*
X122109Y267933D01*
Y272067D01*
X122411Y271769D01*
D02*
G37*
G36*
X147204Y263525D02*
X147395Y263401D01*
X147615Y263292D01*
X147863Y263198D01*
X148142Y263120D01*
X148449Y263056D01*
X148785Y263007D01*
X149546Y262956D01*
X149970Y262953D01*
X147047Y260030D01*
X147044Y260454D01*
X146993Y261214D01*
X146944Y261551D01*
X146880Y261858D01*
X146802Y262137D01*
X146708Y262386D01*
X146599Y262605D01*
X146475Y262796D01*
X146336Y262957D01*
X147043Y263664D01*
X147204Y263525D01*
D02*
G37*
G36*
X113664Y262957D02*
X113525Y262796D01*
X113401Y262605D01*
X113292Y262386D01*
X113198Y262137D01*
X113119Y261858D01*
X113056Y261551D01*
X113007Y261214D01*
X112956Y260454D01*
X112953Y260030D01*
X110029Y262953D01*
X110454Y262956D01*
X111214Y263007D01*
X111551Y263056D01*
X111858Y263120D01*
X112136Y263198D01*
X112385Y263292D01*
X112605Y263401D01*
X112796Y263525D01*
X112957Y263664D01*
X113664Y262957D01*
D02*
G37*
G36*
X137891Y257933D02*
X137589Y258231D01*
X137015Y258732D01*
X136742Y258936D01*
X136480Y259108D01*
X136228Y259249D01*
X135985Y259359D01*
X135753Y259437D01*
X135531Y259484D01*
X135318Y259500D01*
Y260500D01*
X135531Y260516D01*
X135753Y260563D01*
X135985Y260641D01*
X136228Y260751D01*
X136480Y260892D01*
X136742Y261064D01*
X137015Y261268D01*
X137589Y261769D01*
X137891Y262067D01*
Y257933D01*
D02*
G37*
G36*
X122411Y261769D02*
X122985Y261268D01*
X123258Y261064D01*
X123520Y260892D01*
X123772Y260751D01*
X124015Y260641D01*
X124247Y260563D01*
X124469Y260516D01*
X124682Y260500D01*
Y259500D01*
X124469Y259484D01*
X124247Y259437D01*
X124015Y259359D01*
X123772Y259249D01*
X123520Y259108D01*
X123258Y258936D01*
X122985Y258732D01*
X122411Y258231D01*
X122109Y257933D01*
Y262067D01*
X122411Y261769D01*
D02*
G37*
G36*
X147204Y253525D02*
X147395Y253401D01*
X147615Y253292D01*
X147863Y253198D01*
X148142Y253119D01*
X148449Y253056D01*
X148785Y253007D01*
X149546Y252956D01*
X149970Y252953D01*
X147047Y250029D01*
X147044Y250454D01*
X146993Y251215D01*
X146944Y251551D01*
X146880Y251858D01*
X146802Y252136D01*
X146708Y252385D01*
X146599Y252605D01*
X146475Y252796D01*
X146336Y252957D01*
X147043Y253664D01*
X147204Y253525D01*
D02*
G37*
G36*
X113664Y252957D02*
X113525Y252796D01*
X113401Y252605D01*
X113292Y252385D01*
X113198Y252136D01*
X113119Y251858D01*
X113056Y251551D01*
X113007Y251215D01*
X112956Y250454D01*
X112953Y250029D01*
X110029Y252953D01*
X110454Y252956D01*
X111214Y253007D01*
X111551Y253056D01*
X111858Y253119D01*
X112136Y253198D01*
X112385Y253292D01*
X112605Y253401D01*
X112796Y253525D01*
X112957Y253664D01*
X113664Y252957D01*
D02*
G37*
G36*
X137891Y247933D02*
X137589Y248231D01*
X137015Y248732D01*
X136742Y248936D01*
X136480Y249108D01*
X136228Y249249D01*
X135985Y249359D01*
X135753Y249437D01*
X135531Y249484D01*
X135318Y249500D01*
Y250500D01*
X135531Y250516D01*
X135753Y250563D01*
X135985Y250641D01*
X136228Y250751D01*
X136480Y250892D01*
X136742Y251064D01*
X137015Y251268D01*
X137589Y251769D01*
X137891Y252067D01*
Y247933D01*
D02*
G37*
G36*
X122411Y251769D02*
X122985Y251268D01*
X123258Y251064D01*
X123520Y250892D01*
X123772Y250751D01*
X124015Y250641D01*
X124247Y250563D01*
X124469Y250516D01*
X124682Y250500D01*
Y249500D01*
X124469Y249484D01*
X124247Y249437D01*
X124015Y249359D01*
X123772Y249249D01*
X123520Y249108D01*
X123258Y248936D01*
X122985Y248732D01*
X122411Y248231D01*
X122109Y247933D01*
Y252067D01*
X122411Y251769D01*
D02*
G37*
G36*
X147204Y243525D02*
X147395Y243401D01*
X147615Y243292D01*
X147863Y243198D01*
X148142Y243120D01*
X148449Y243056D01*
X148785Y243007D01*
X149546Y242956D01*
X149970Y242953D01*
X147047Y240030D01*
X147044Y240454D01*
X146993Y241214D01*
X146944Y241551D01*
X146880Y241858D01*
X146802Y242137D01*
X146708Y242386D01*
X146599Y242605D01*
X146475Y242796D01*
X146336Y242957D01*
X147043Y243664D01*
X147204Y243525D01*
D02*
G37*
G36*
X113664Y242957D02*
X113525Y242796D01*
X113401Y242605D01*
X113292Y242386D01*
X113198Y242137D01*
X113119Y241858D01*
X113056Y241551D01*
X113007Y241214D01*
X112956Y240454D01*
X112953Y240030D01*
X110029Y242953D01*
X110454Y242956D01*
X111214Y243007D01*
X111551Y243056D01*
X111858Y243120D01*
X112136Y243198D01*
X112385Y243292D01*
X112605Y243401D01*
X112796Y243525D01*
X112957Y243664D01*
X113664Y242957D01*
D02*
G37*
G36*
X137891Y237933D02*
X137589Y238231D01*
X137015Y238732D01*
X136742Y238936D01*
X136480Y239108D01*
X136228Y239249D01*
X135985Y239359D01*
X135753Y239437D01*
X135531Y239484D01*
X135318Y239500D01*
Y240500D01*
X135531Y240516D01*
X135753Y240563D01*
X135985Y240641D01*
X136228Y240751D01*
X136480Y240892D01*
X136742Y241064D01*
X137015Y241268D01*
X137589Y241769D01*
X137891Y242067D01*
Y237933D01*
D02*
G37*
G36*
X122411Y241769D02*
X122985Y241268D01*
X123258Y241064D01*
X123520Y240892D01*
X123772Y240751D01*
X124015Y240641D01*
X124247Y240563D01*
X124469Y240516D01*
X124682Y240500D01*
Y239500D01*
X124469Y239484D01*
X124247Y239437D01*
X124015Y239359D01*
X123772Y239249D01*
X123520Y239108D01*
X123258Y238936D01*
X122985Y238732D01*
X122411Y238231D01*
X122109Y237933D01*
Y242067D01*
X122411Y241769D01*
D02*
G37*
G36*
X147204Y233525D02*
X147395Y233401D01*
X147615Y233292D01*
X147863Y233198D01*
X148142Y233120D01*
X148449Y233056D01*
X148785Y233007D01*
X149546Y232956D01*
X149970Y232953D01*
X147047Y230030D01*
X147044Y230454D01*
X146993Y231214D01*
X146944Y231551D01*
X146880Y231858D01*
X146802Y232137D01*
X146708Y232385D01*
X146599Y232605D01*
X146475Y232796D01*
X146336Y232957D01*
X147043Y233664D01*
X147204Y233525D01*
D02*
G37*
G36*
X113664Y232957D02*
X113525Y232796D01*
X113401Y232605D01*
X113292Y232385D01*
X113198Y232137D01*
X113119Y231858D01*
X113056Y231551D01*
X113007Y231214D01*
X112956Y230454D01*
X112953Y230030D01*
X110029Y232953D01*
X110454Y232956D01*
X111214Y233007D01*
X111551Y233056D01*
X111858Y233120D01*
X112136Y233198D01*
X112385Y233292D01*
X112605Y233401D01*
X112796Y233525D01*
X112957Y233664D01*
X113664Y232957D01*
D02*
G37*
G36*
X137891Y227933D02*
X137589Y228231D01*
X137015Y228732D01*
X136742Y228936D01*
X136480Y229108D01*
X136228Y229249D01*
X135985Y229359D01*
X135753Y229437D01*
X135531Y229484D01*
X135318Y229500D01*
Y230500D01*
X135531Y230516D01*
X135753Y230563D01*
X135985Y230641D01*
X136228Y230751D01*
X136480Y230892D01*
X136742Y231064D01*
X137015Y231268D01*
X137589Y231769D01*
X137891Y232067D01*
Y227933D01*
D02*
G37*
G36*
X122411Y231769D02*
X122985Y231268D01*
X123258Y231064D01*
X123520Y230892D01*
X123772Y230751D01*
X124015Y230641D01*
X124247Y230563D01*
X124469Y230516D01*
X124682Y230500D01*
Y229500D01*
X124469Y229484D01*
X124247Y229437D01*
X124015Y229359D01*
X123772Y229249D01*
X123520Y229108D01*
X123258Y228936D01*
X122985Y228732D01*
X122411Y228231D01*
X122109Y227933D01*
Y232067D01*
X122411Y231769D01*
D02*
G37*
G36*
X147204Y223525D02*
X147395Y223401D01*
X147615Y223292D01*
X147863Y223198D01*
X148142Y223119D01*
X148449Y223056D01*
X148785Y223007D01*
X149546Y222956D01*
X149970Y222953D01*
X147047Y220029D01*
X147044Y220454D01*
X146993Y221215D01*
X146944Y221551D01*
X146880Y221858D01*
X146802Y222136D01*
X146708Y222386D01*
X146599Y222605D01*
X146475Y222796D01*
X146336Y222957D01*
X147043Y223664D01*
X147204Y223525D01*
D02*
G37*
G36*
X113664Y222957D02*
X113525Y222796D01*
X113401Y222605D01*
X113292Y222386D01*
X113198Y222136D01*
X113119Y221858D01*
X113056Y221551D01*
X113007Y221215D01*
X112956Y220454D01*
X112953Y220029D01*
X110029Y222953D01*
X110454Y222956D01*
X111214Y223007D01*
X111551Y223056D01*
X111858Y223119D01*
X112136Y223198D01*
X112385Y223292D01*
X112605Y223401D01*
X112796Y223525D01*
X112957Y223664D01*
X113664Y222957D01*
D02*
G37*
G36*
X137891Y217933D02*
X137589Y218231D01*
X137015Y218732D01*
X136742Y218936D01*
X136480Y219108D01*
X136228Y219249D01*
X135985Y219359D01*
X135753Y219437D01*
X135531Y219484D01*
X135318Y219500D01*
Y220500D01*
X135531Y220516D01*
X135753Y220563D01*
X135985Y220641D01*
X136228Y220751D01*
X136480Y220892D01*
X136742Y221064D01*
X137015Y221268D01*
X137589Y221769D01*
X137891Y222067D01*
Y217933D01*
D02*
G37*
G36*
X122411Y221769D02*
X122985Y221268D01*
X123258Y221064D01*
X123520Y220892D01*
X123772Y220751D01*
X124015Y220641D01*
X124247Y220563D01*
X124469Y220516D01*
X124682Y220500D01*
Y219500D01*
X124469Y219484D01*
X124247Y219437D01*
X124015Y219359D01*
X123772Y219249D01*
X123520Y219108D01*
X123258Y218936D01*
X122985Y218732D01*
X122411Y218231D01*
X122109Y217933D01*
Y222067D01*
X122411Y221769D01*
D02*
G37*
G36*
X147204Y213525D02*
X147395Y213401D01*
X147615Y213292D01*
X147863Y213198D01*
X148142Y213120D01*
X148449Y213056D01*
X148785Y213007D01*
X149546Y212956D01*
X149970Y212953D01*
X147047Y210030D01*
X147044Y210454D01*
X146993Y211214D01*
X146944Y211551D01*
X146880Y211858D01*
X146802Y212137D01*
X146708Y212386D01*
X146599Y212605D01*
X146475Y212796D01*
X146336Y212957D01*
X147043Y213664D01*
X147204Y213525D01*
D02*
G37*
G36*
X113664Y212957D02*
X113525Y212796D01*
X113401Y212605D01*
X113292Y212386D01*
X113198Y212137D01*
X113119Y211858D01*
X113056Y211551D01*
X113007Y211214D01*
X112956Y210454D01*
X112953Y210030D01*
X110029Y212953D01*
X110454Y212956D01*
X111214Y213007D01*
X111551Y213056D01*
X111858Y213120D01*
X112136Y213198D01*
X112385Y213292D01*
X112605Y213401D01*
X112796Y213525D01*
X112957Y213664D01*
X113664Y212957D01*
D02*
G37*
G36*
X137891Y207933D02*
X137589Y208231D01*
X137015Y208732D01*
X136742Y208936D01*
X136480Y209108D01*
X136228Y209249D01*
X135985Y209359D01*
X135753Y209437D01*
X135531Y209484D01*
X135318Y209500D01*
Y210500D01*
X135531Y210516D01*
X135753Y210563D01*
X135985Y210641D01*
X136228Y210751D01*
X136480Y210892D01*
X136742Y211064D01*
X137015Y211268D01*
X137589Y211769D01*
X137891Y212067D01*
Y207933D01*
D02*
G37*
G36*
X122411Y211769D02*
X122985Y211268D01*
X123258Y211064D01*
X123520Y210892D01*
X123772Y210751D01*
X124015Y210641D01*
X124247Y210563D01*
X124469Y210516D01*
X124682Y210500D01*
Y209500D01*
X124469Y209484D01*
X124247Y209437D01*
X124015Y209359D01*
X123772Y209249D01*
X123520Y209108D01*
X123258Y208936D01*
X122985Y208732D01*
X122411Y208231D01*
X122109Y207933D01*
Y212067D01*
X122411Y211769D01*
D02*
G37*
D12*
X110000Y150000D02*
X115000Y155000D01*
X145000D01*
X150000Y150000D01*
X120000D02*
X140000D01*
X120000Y140000D02*
X140000D01*
X145000Y145000D02*
X150000Y140000D01*
X115000Y145000D02*
X145000D01*
X110000Y140000D02*
X115000Y145000D01*
X110000Y170000D02*
X115000Y175000D01*
X145000D01*
X150000Y170000D01*
X120000D02*
X140000D01*
X120000Y160000D02*
X140000D01*
X145000Y165000D02*
X150000Y160000D01*
X115000Y165000D02*
X145000D01*
X110000Y160000D02*
X115000Y165000D01*
X110000Y190000D02*
X115000Y195000D01*
X145000D01*
X150000Y190000D01*
X120000D02*
X140000D01*
X120000Y180000D02*
X140000D01*
X145000Y185000D02*
X150000Y180000D01*
X115000Y185000D02*
X145000D01*
X110000Y180000D02*
X115000Y185000D01*
X110000Y210000D02*
X115000Y215000D01*
X145000D01*
X150000Y210000D01*
X120000D02*
X140000D01*
X120000Y200000D02*
X140000D01*
X145000Y205000D02*
X150000Y200000D01*
X115000Y205000D02*
X145000D01*
X110000Y200000D02*
X115000Y205000D01*
X110000Y230000D02*
X115000Y235000D01*
X145000D01*
X150000Y230000D01*
X120000D02*
X140000D01*
X120000Y220000D02*
X140000D01*
X145000Y225000D02*
X150000Y220000D01*
X115000Y225000D02*
X145000D01*
X110000Y220000D02*
X115000Y225000D01*
X110000Y250000D02*
X115000Y255000D01*
X145000D01*
X150000Y250000D01*
X120000D02*
X140000D01*
X120000Y240000D02*
X140000D01*
X145000Y245000D02*
X150000Y240000D01*
X115000Y245000D02*
X145000D01*
X110000Y240000D02*
X115000Y245000D01*
X110000Y270000D02*
X115000Y275000D01*
X145000D01*
X150000Y270000D01*
X120000D02*
X140000D01*
X120000Y260000D02*
X140000D01*
X145000Y265000D02*
X150000Y260000D01*
X115000Y265000D02*
X145000D01*
X110000Y260000D02*
X115000Y265000D01*
X110000Y290000D02*
X115000Y295000D01*
X145000D01*
X150000Y290000D01*
X120000D02*
X140000D01*
X120000Y280000D02*
X140000D01*
X145000Y285000D02*
X150000Y280000D01*
X115000Y285000D02*
X145000D01*
X110000Y280000D02*
X115000Y285000D01*
X110000Y300000D02*
X115000Y305000D01*
X145000D01*
X150000Y300000D01*
X120000D02*
X140000D01*
X120000Y310000D02*
X140000D01*
X145000Y315000D02*
X150000Y310000D01*
X115000Y315000D02*
X145000D01*
X110000Y310000D02*
X115000Y315000D01*
D20*
X120000Y120000D02*
X140000D01*
X120000Y130000D02*
X140000D01*
X150000D02*
X159468D01*
X160531Y128937D01*
X170000D01*
X150000Y120000D02*
X159468D01*
X160531Y121063D01*
X170000D01*
X140000Y120000D02*
X150000D01*
X110000D02*
X120000D01*
X140000Y130000D02*
X150000D01*
X110000D02*
X120000D01*
D21*
X585000Y155000D02*
D03*
X595000D02*
D03*
X585000Y145000D02*
D03*
Y195000D02*
D03*
X595000D02*
D03*
Y185000D02*
D03*
X585000D02*
D03*
Y165000D02*
D03*
X595000D02*
D03*
Y175000D02*
D03*
X585000D02*
D03*
Y235000D02*
D03*
X595000D02*
D03*
Y225000D02*
D03*
X585000D02*
D03*
Y205000D02*
D03*
X595000D02*
D03*
Y215000D02*
D03*
X585000D02*
D03*
Y275000D02*
D03*
X595000D02*
D03*
Y265000D02*
D03*
X585000D02*
D03*
Y245000D02*
D03*
X595000D02*
D03*
Y255000D02*
D03*
X585000D02*
D03*
Y285000D02*
D03*
X605000Y255000D02*
D03*
X615000D02*
D03*
Y245000D02*
D03*
X605000D02*
D03*
Y265000D02*
D03*
Y215000D02*
D03*
X615000D02*
D03*
Y205000D02*
D03*
X605000D02*
D03*
Y225000D02*
D03*
X615000D02*
D03*
Y235000D02*
D03*
X605000D02*
D03*
Y175000D02*
D03*
X615000D02*
D03*
X605000Y165000D02*
D03*
Y185000D02*
D03*
X615000D02*
D03*
Y195000D02*
D03*
X605000D02*
D03*
X545000Y155000D02*
D03*
X555000D02*
D03*
Y145000D02*
D03*
X545000D02*
D03*
Y195000D02*
D03*
X555000D02*
D03*
Y185000D02*
D03*
X545000D02*
D03*
Y165000D02*
D03*
X555000D02*
D03*
Y175000D02*
D03*
X545000D02*
D03*
Y235000D02*
D03*
X555000D02*
D03*
Y225000D02*
D03*
X545000D02*
D03*
Y205000D02*
D03*
X555000D02*
D03*
Y215000D02*
D03*
X545000D02*
D03*
Y275000D02*
D03*
X555000D02*
D03*
Y265000D02*
D03*
X545000D02*
D03*
Y245000D02*
D03*
X555000D02*
D03*
Y255000D02*
D03*
X545000D02*
D03*
Y295000D02*
D03*
X555000D02*
D03*
Y285000D02*
D03*
X545000D02*
D03*
Y305000D02*
D03*
X555000D02*
D03*
Y315000D02*
D03*
X545000D02*
D03*
Y135000D02*
D03*
X555000D02*
D03*
Y125000D02*
D03*
X545000D02*
D03*
X555000Y115000D02*
D03*
X545000D02*
D03*
X565000D02*
D03*
X575000D02*
D03*
X565000Y125000D02*
D03*
X575000D02*
D03*
Y135000D02*
D03*
X565000D02*
D03*
Y315000D02*
D03*
X575000D02*
D03*
Y305000D02*
D03*
X565000D02*
D03*
Y285000D02*
D03*
X575000D02*
D03*
Y295000D02*
D03*
X565000D02*
D03*
Y255000D02*
D03*
X575000D02*
D03*
Y245000D02*
D03*
X565000D02*
D03*
Y265000D02*
D03*
X575000D02*
D03*
Y275000D02*
D03*
X565000D02*
D03*
Y215000D02*
D03*
X575000D02*
D03*
Y205000D02*
D03*
X565000D02*
D03*
Y225000D02*
D03*
X575000D02*
D03*
Y235000D02*
D03*
X565000D02*
D03*
Y175000D02*
D03*
X575000D02*
D03*
Y165000D02*
D03*
X565000D02*
D03*
Y185000D02*
D03*
X575000D02*
D03*
Y195000D02*
D03*
X565000D02*
D03*
Y145000D02*
D03*
X575000D02*
D03*
Y155000D02*
D03*
X565000D02*
D03*
X505000D02*
D03*
X515000D02*
D03*
Y145000D02*
D03*
X505000D02*
D03*
Y195000D02*
D03*
X515000D02*
D03*
Y185000D02*
D03*
X505000D02*
D03*
Y165000D02*
D03*
X515000D02*
D03*
Y175000D02*
D03*
X505000D02*
D03*
Y235000D02*
D03*
X515000D02*
D03*
Y225000D02*
D03*
X505000D02*
D03*
Y205000D02*
D03*
X515000D02*
D03*
Y215000D02*
D03*
X505000D02*
D03*
Y275000D02*
D03*
X515000D02*
D03*
Y265000D02*
D03*
X505000D02*
D03*
Y245000D02*
D03*
X515000D02*
D03*
Y255000D02*
D03*
X505000D02*
D03*
Y295000D02*
D03*
X515000D02*
D03*
Y285000D02*
D03*
X505000D02*
D03*
Y305000D02*
D03*
X515000D02*
D03*
Y315000D02*
D03*
X505000D02*
D03*
Y135000D02*
D03*
X515000D02*
D03*
Y125000D02*
D03*
X505000D02*
D03*
X515000Y115000D02*
D03*
X505000D02*
D03*
X525000D02*
D03*
X535000D02*
D03*
X525000Y125000D02*
D03*
X535000D02*
D03*
Y135000D02*
D03*
X525000D02*
D03*
Y315000D02*
D03*
X535000D02*
D03*
Y305000D02*
D03*
X525000D02*
D03*
Y285000D02*
D03*
X535000D02*
D03*
Y295000D02*
D03*
X525000D02*
D03*
Y255000D02*
D03*
X535000D02*
D03*
Y245000D02*
D03*
X525000D02*
D03*
Y265000D02*
D03*
X535000D02*
D03*
Y275000D02*
D03*
X525000D02*
D03*
Y215000D02*
D03*
X535000D02*
D03*
Y205000D02*
D03*
X525000D02*
D03*
Y225000D02*
D03*
X535000D02*
D03*
Y235000D02*
D03*
X525000D02*
D03*
Y175000D02*
D03*
X535000D02*
D03*
Y165000D02*
D03*
X525000D02*
D03*
Y185000D02*
D03*
X535000D02*
D03*
Y195000D02*
D03*
X525000D02*
D03*
Y145000D02*
D03*
X535000D02*
D03*
Y155000D02*
D03*
X525000D02*
D03*
X465000D02*
D03*
X475000D02*
D03*
Y145000D02*
D03*
X465000D02*
D03*
Y195000D02*
D03*
X475000D02*
D03*
Y185000D02*
D03*
X465000D02*
D03*
Y165000D02*
D03*
X475000D02*
D03*
Y175000D02*
D03*
X465000D02*
D03*
Y235000D02*
D03*
X475000D02*
D03*
Y225000D02*
D03*
X465000D02*
D03*
Y205000D02*
D03*
X475000D02*
D03*
Y215000D02*
D03*
X465000D02*
D03*
Y275000D02*
D03*
X475000D02*
D03*
Y265000D02*
D03*
X465000D02*
D03*
Y245000D02*
D03*
X475000D02*
D03*
Y255000D02*
D03*
X465000D02*
D03*
Y295000D02*
D03*
X475000D02*
D03*
Y285000D02*
D03*
X465000D02*
D03*
Y305000D02*
D03*
X475000D02*
D03*
Y315000D02*
D03*
X465000D02*
D03*
Y135000D02*
D03*
X475000D02*
D03*
Y125000D02*
D03*
X465000D02*
D03*
X475000Y115000D02*
D03*
X465000D02*
D03*
X485000D02*
D03*
X495000D02*
D03*
X485000Y125000D02*
D03*
X495000D02*
D03*
Y135000D02*
D03*
X485000D02*
D03*
Y315000D02*
D03*
X495000D02*
D03*
Y305000D02*
D03*
X485000D02*
D03*
Y285000D02*
D03*
X495000D02*
D03*
Y295000D02*
D03*
X485000D02*
D03*
Y255000D02*
D03*
X495000D02*
D03*
Y245000D02*
D03*
X485000D02*
D03*
Y265000D02*
D03*
X495000D02*
D03*
Y275000D02*
D03*
X485000D02*
D03*
Y215000D02*
D03*
X495000D02*
D03*
Y205000D02*
D03*
X485000D02*
D03*
Y225000D02*
D03*
X495000D02*
D03*
Y235000D02*
D03*
X485000D02*
D03*
Y175000D02*
D03*
X495000D02*
D03*
Y165000D02*
D03*
X485000D02*
D03*
Y185000D02*
D03*
X495000D02*
D03*
Y195000D02*
D03*
X485000D02*
D03*
Y145000D02*
D03*
X495000D02*
D03*
Y155000D02*
D03*
X485000D02*
D03*
X425000D02*
D03*
X435000D02*
D03*
Y145000D02*
D03*
X425000D02*
D03*
Y195000D02*
D03*
X435000D02*
D03*
Y185000D02*
D03*
X425000D02*
D03*
Y165000D02*
D03*
X435000D02*
D03*
Y175000D02*
D03*
X425000D02*
D03*
Y235000D02*
D03*
X435000D02*
D03*
Y225000D02*
D03*
X425000D02*
D03*
Y205000D02*
D03*
X435000D02*
D03*
Y215000D02*
D03*
X425000D02*
D03*
Y275000D02*
D03*
X435000D02*
D03*
Y265000D02*
D03*
X425000D02*
D03*
Y245000D02*
D03*
X435000D02*
D03*
Y255000D02*
D03*
X425000D02*
D03*
Y295000D02*
D03*
X435000D02*
D03*
Y285000D02*
D03*
X425000D02*
D03*
Y305000D02*
D03*
X435000D02*
D03*
Y315000D02*
D03*
X425000D02*
D03*
Y135000D02*
D03*
X435000D02*
D03*
Y125000D02*
D03*
X425000D02*
D03*
X435000Y115000D02*
D03*
X425000D02*
D03*
X445000D02*
D03*
X455000D02*
D03*
X445000Y125000D02*
D03*
X455000D02*
D03*
Y135000D02*
D03*
X445000D02*
D03*
Y315000D02*
D03*
X455000D02*
D03*
Y305000D02*
D03*
X445000D02*
D03*
Y285000D02*
D03*
X455000D02*
D03*
Y295000D02*
D03*
X445000D02*
D03*
Y255000D02*
D03*
X455000D02*
D03*
Y245000D02*
D03*
X445000D02*
D03*
Y265000D02*
D03*
X455000D02*
D03*
Y275000D02*
D03*
X445000D02*
D03*
Y215000D02*
D03*
X455000D02*
D03*
Y205000D02*
D03*
X445000D02*
D03*
Y225000D02*
D03*
X455000D02*
D03*
Y235000D02*
D03*
X445000D02*
D03*
Y175000D02*
D03*
X455000D02*
D03*
Y165000D02*
D03*
X445000D02*
D03*
Y185000D02*
D03*
X455000D02*
D03*
Y195000D02*
D03*
X445000D02*
D03*
Y145000D02*
D03*
X455000D02*
D03*
Y155000D02*
D03*
X445000D02*
D03*
X385000D02*
D03*
X395000D02*
D03*
Y145000D02*
D03*
X385000D02*
D03*
Y195000D02*
D03*
X395000D02*
D03*
Y185000D02*
D03*
X385000D02*
D03*
Y165000D02*
D03*
X395000D02*
D03*
Y175000D02*
D03*
X385000D02*
D03*
Y235000D02*
D03*
X395000D02*
D03*
Y225000D02*
D03*
X385000D02*
D03*
Y205000D02*
D03*
X395000D02*
D03*
Y215000D02*
D03*
X385000D02*
D03*
Y275000D02*
D03*
X395000D02*
D03*
Y265000D02*
D03*
X385000D02*
D03*
Y245000D02*
D03*
X395000D02*
D03*
Y255000D02*
D03*
X385000D02*
D03*
Y295000D02*
D03*
X395000D02*
D03*
Y285000D02*
D03*
X385000D02*
D03*
Y305000D02*
D03*
X395000D02*
D03*
Y315000D02*
D03*
X385000D02*
D03*
Y135000D02*
D03*
X395000D02*
D03*
Y125000D02*
D03*
X385000D02*
D03*
X395000Y115000D02*
D03*
X385000D02*
D03*
X405000D02*
D03*
X415000D02*
D03*
X405000Y125000D02*
D03*
X415000D02*
D03*
Y135000D02*
D03*
X405000D02*
D03*
Y315000D02*
D03*
X415000D02*
D03*
Y305000D02*
D03*
X405000D02*
D03*
Y285000D02*
D03*
X415000D02*
D03*
Y295000D02*
D03*
X405000D02*
D03*
Y255000D02*
D03*
X415000D02*
D03*
Y245000D02*
D03*
X405000D02*
D03*
Y265000D02*
D03*
X415000D02*
D03*
Y275000D02*
D03*
X405000D02*
D03*
Y215000D02*
D03*
X415000D02*
D03*
Y205000D02*
D03*
X405000D02*
D03*
Y225000D02*
D03*
X415000D02*
D03*
Y235000D02*
D03*
X405000D02*
D03*
Y175000D02*
D03*
X415000D02*
D03*
Y165000D02*
D03*
X405000D02*
D03*
Y185000D02*
D03*
X415000D02*
D03*
Y195000D02*
D03*
X405000D02*
D03*
Y145000D02*
D03*
X415000D02*
D03*
Y155000D02*
D03*
X405000D02*
D03*
X345000D02*
D03*
X355000D02*
D03*
Y145000D02*
D03*
X345000D02*
D03*
Y195000D02*
D03*
X355000D02*
D03*
Y185000D02*
D03*
X345000D02*
D03*
Y165000D02*
D03*
X355000D02*
D03*
Y175000D02*
D03*
X345000D02*
D03*
Y235000D02*
D03*
X355000D02*
D03*
Y225000D02*
D03*
X345000D02*
D03*
Y205000D02*
D03*
X355000D02*
D03*
Y215000D02*
D03*
X345000D02*
D03*
Y275000D02*
D03*
X355000D02*
D03*
Y265000D02*
D03*
X345000D02*
D03*
Y245000D02*
D03*
X355000D02*
D03*
Y255000D02*
D03*
X345000D02*
D03*
Y295000D02*
D03*
X355000D02*
D03*
Y285000D02*
D03*
X345000D02*
D03*
Y305000D02*
D03*
X355000D02*
D03*
Y315000D02*
D03*
X345000D02*
D03*
Y135000D02*
D03*
X355000D02*
D03*
Y125000D02*
D03*
X345000D02*
D03*
X355000Y115000D02*
D03*
X345000D02*
D03*
X365000D02*
D03*
X375000D02*
D03*
X365000Y125000D02*
D03*
X375000D02*
D03*
Y135000D02*
D03*
X365000D02*
D03*
Y315000D02*
D03*
X375000D02*
D03*
Y305000D02*
D03*
X365000D02*
D03*
Y285000D02*
D03*
X375000D02*
D03*
Y295000D02*
D03*
X365000D02*
D03*
Y255000D02*
D03*
X375000D02*
D03*
Y245000D02*
D03*
X365000D02*
D03*
Y265000D02*
D03*
X375000D02*
D03*
Y275000D02*
D03*
X365000D02*
D03*
Y215000D02*
D03*
X375000D02*
D03*
Y205000D02*
D03*
X365000D02*
D03*
Y225000D02*
D03*
X375000D02*
D03*
Y235000D02*
D03*
X365000D02*
D03*
Y175000D02*
D03*
X375000D02*
D03*
Y165000D02*
D03*
X365000D02*
D03*
Y185000D02*
D03*
X375000D02*
D03*
Y195000D02*
D03*
X365000D02*
D03*
Y145000D02*
D03*
X375000D02*
D03*
Y155000D02*
D03*
X365000D02*
D03*
X305000D02*
D03*
X315000D02*
D03*
Y145000D02*
D03*
X305000D02*
D03*
Y195000D02*
D03*
X315000D02*
D03*
Y185000D02*
D03*
X305000D02*
D03*
Y165000D02*
D03*
X315000D02*
D03*
Y175000D02*
D03*
X305000D02*
D03*
Y235000D02*
D03*
X315000D02*
D03*
Y225000D02*
D03*
X305000D02*
D03*
Y205000D02*
D03*
X315000D02*
D03*
Y215000D02*
D03*
X305000D02*
D03*
Y275000D02*
D03*
X315000D02*
D03*
Y265000D02*
D03*
X305000D02*
D03*
Y245000D02*
D03*
X315000D02*
D03*
Y255000D02*
D03*
X305000D02*
D03*
Y295000D02*
D03*
X315000D02*
D03*
Y285000D02*
D03*
X305000D02*
D03*
Y305000D02*
D03*
X315000D02*
D03*
Y315000D02*
D03*
X305000D02*
D03*
Y135000D02*
D03*
X315000D02*
D03*
Y125000D02*
D03*
X305000D02*
D03*
X315000Y115000D02*
D03*
X305000D02*
D03*
X325000D02*
D03*
X335000D02*
D03*
X325000Y125000D02*
D03*
X335000D02*
D03*
Y135000D02*
D03*
X325000D02*
D03*
Y315000D02*
D03*
X335000D02*
D03*
Y305000D02*
D03*
X325000D02*
D03*
Y285000D02*
D03*
X335000D02*
D03*
Y295000D02*
D03*
X325000D02*
D03*
Y255000D02*
D03*
X335000D02*
D03*
Y245000D02*
D03*
X325000D02*
D03*
Y265000D02*
D03*
X335000D02*
D03*
Y275000D02*
D03*
X325000D02*
D03*
Y215000D02*
D03*
X335000D02*
D03*
Y205000D02*
D03*
X325000D02*
D03*
Y225000D02*
D03*
X335000D02*
D03*
Y235000D02*
D03*
X325000D02*
D03*
Y175000D02*
D03*
X335000D02*
D03*
Y165000D02*
D03*
X325000D02*
D03*
Y185000D02*
D03*
X335000D02*
D03*
Y195000D02*
D03*
X325000D02*
D03*
Y145000D02*
D03*
X335000D02*
D03*
Y155000D02*
D03*
X325000D02*
D03*
X265000D02*
D03*
X275000D02*
D03*
Y145000D02*
D03*
X265000D02*
D03*
Y195000D02*
D03*
X275000D02*
D03*
Y185000D02*
D03*
X265000D02*
D03*
Y165000D02*
D03*
X275000D02*
D03*
Y175000D02*
D03*
X265000D02*
D03*
Y235000D02*
D03*
X275000D02*
D03*
Y225000D02*
D03*
X265000D02*
D03*
Y205000D02*
D03*
X275000D02*
D03*
Y215000D02*
D03*
X265000D02*
D03*
Y275000D02*
D03*
X275000D02*
D03*
Y265000D02*
D03*
X265000D02*
D03*
Y245000D02*
D03*
X275000D02*
D03*
Y255000D02*
D03*
X265000D02*
D03*
Y295000D02*
D03*
X275000D02*
D03*
Y285000D02*
D03*
X265000D02*
D03*
Y305000D02*
D03*
X275000D02*
D03*
Y315000D02*
D03*
X265000D02*
D03*
Y135000D02*
D03*
X275000D02*
D03*
Y125000D02*
D03*
X265000D02*
D03*
X275000Y115000D02*
D03*
X265000D02*
D03*
X285000D02*
D03*
X295000D02*
D03*
X285000Y125000D02*
D03*
X295000D02*
D03*
Y135000D02*
D03*
X285000D02*
D03*
Y315000D02*
D03*
X295000D02*
D03*
Y305000D02*
D03*
X285000D02*
D03*
Y285000D02*
D03*
X295000D02*
D03*
Y295000D02*
D03*
X285000D02*
D03*
Y255000D02*
D03*
X295000D02*
D03*
Y245000D02*
D03*
X285000D02*
D03*
Y265000D02*
D03*
X295000D02*
D03*
Y275000D02*
D03*
X285000D02*
D03*
Y215000D02*
D03*
X295000D02*
D03*
Y205000D02*
D03*
X285000D02*
D03*
Y225000D02*
D03*
X295000D02*
D03*
Y235000D02*
D03*
X285000D02*
D03*
Y175000D02*
D03*
X295000D02*
D03*
Y165000D02*
D03*
X285000D02*
D03*
Y185000D02*
D03*
X295000D02*
D03*
Y195000D02*
D03*
X285000D02*
D03*
Y145000D02*
D03*
X295000D02*
D03*
Y155000D02*
D03*
X285000D02*
D03*
X225000D02*
D03*
X235000D02*
D03*
Y145000D02*
D03*
X225000D02*
D03*
Y195000D02*
D03*
X235000D02*
D03*
Y185000D02*
D03*
X225000D02*
D03*
Y165000D02*
D03*
X235000D02*
D03*
Y175000D02*
D03*
X225000D02*
D03*
Y235000D02*
D03*
X235000D02*
D03*
Y225000D02*
D03*
X225000D02*
D03*
Y205000D02*
D03*
X235000D02*
D03*
Y215000D02*
D03*
X225000D02*
D03*
Y275000D02*
D03*
X235000D02*
D03*
Y265000D02*
D03*
X225000D02*
D03*
Y245000D02*
D03*
X235000D02*
D03*
Y255000D02*
D03*
X225000D02*
D03*
Y295000D02*
D03*
X235000D02*
D03*
Y285000D02*
D03*
X225000D02*
D03*
Y305000D02*
D03*
X235000D02*
D03*
Y315000D02*
D03*
X225000D02*
D03*
Y135000D02*
D03*
X235000D02*
D03*
Y125000D02*
D03*
X225000D02*
D03*
X235000Y115000D02*
D03*
X225000D02*
D03*
X245000D02*
D03*
X255000D02*
D03*
X245000Y125000D02*
D03*
X255000D02*
D03*
Y135000D02*
D03*
X245000D02*
D03*
Y315000D02*
D03*
X255000D02*
D03*
Y305000D02*
D03*
X245000D02*
D03*
Y285000D02*
D03*
X255000D02*
D03*
Y295000D02*
D03*
X245000D02*
D03*
Y255000D02*
D03*
X255000D02*
D03*
Y245000D02*
D03*
X245000D02*
D03*
Y265000D02*
D03*
X255000D02*
D03*
Y275000D02*
D03*
X245000D02*
D03*
Y215000D02*
D03*
X255000D02*
D03*
Y205000D02*
D03*
X245000D02*
D03*
Y225000D02*
D03*
X255000D02*
D03*
Y235000D02*
D03*
X245000D02*
D03*
Y175000D02*
D03*
X255000D02*
D03*
Y165000D02*
D03*
X245000D02*
D03*
Y185000D02*
D03*
X255000D02*
D03*
Y195000D02*
D03*
X245000D02*
D03*
Y145000D02*
D03*
X255000D02*
D03*
Y155000D02*
D03*
X245000D02*
D03*
X205000D02*
D03*
X215000D02*
D03*
Y145000D02*
D03*
X205000D02*
D03*
Y195000D02*
D03*
X215000D02*
D03*
Y185000D02*
D03*
X205000D02*
D03*
Y165000D02*
D03*
X215000D02*
D03*
Y175000D02*
D03*
X205000D02*
D03*
Y235000D02*
D03*
X215000D02*
D03*
Y225000D02*
D03*
X205000D02*
D03*
Y205000D02*
D03*
X215000D02*
D03*
Y215000D02*
D03*
X205000D02*
D03*
Y275000D02*
D03*
X215000D02*
D03*
Y265000D02*
D03*
X205000D02*
D03*
Y245000D02*
D03*
X215000D02*
D03*
Y255000D02*
D03*
X205000D02*
D03*
Y295000D02*
D03*
X215000D02*
D03*
Y285000D02*
D03*
X205000D02*
D03*
Y305000D02*
D03*
X215000D02*
D03*
Y315000D02*
D03*
X205000D02*
D03*
Y135000D02*
D03*
X215000D02*
D03*
Y125000D02*
D03*
X205000D02*
D03*
X215000Y115000D02*
D03*
X205000D02*
D03*
X185000D02*
D03*
X195000D02*
D03*
X185000Y125000D02*
D03*
X195000D02*
D03*
Y135000D02*
D03*
X185000D02*
D03*
Y315000D02*
D03*
X195000D02*
D03*
Y305000D02*
D03*
X185000D02*
D03*
Y285000D02*
D03*
X195000D02*
D03*
Y295000D02*
D03*
X185000D02*
D03*
Y255000D02*
D03*
X195000D02*
D03*
Y245000D02*
D03*
X185000D02*
D03*
Y265000D02*
D03*
X195000D02*
D03*
Y275000D02*
D03*
X185000D02*
D03*
Y215000D02*
D03*
X195000D02*
D03*
Y205000D02*
D03*
X185000D02*
D03*
Y225000D02*
D03*
X195000D02*
D03*
Y235000D02*
D03*
X185000D02*
D03*
Y175000D02*
D03*
X195000D02*
D03*
Y165000D02*
D03*
X185000D02*
D03*
Y185000D02*
D03*
X195000D02*
D03*
Y195000D02*
D03*
X185000D02*
D03*
Y145000D02*
D03*
X195000D02*
D03*
Y155000D02*
D03*
X185000D02*
D03*
X165000D02*
D03*
X175000D02*
D03*
Y145000D02*
D03*
X165000D02*
D03*
Y195000D02*
D03*
X175000D02*
D03*
Y185000D02*
D03*
X165000D02*
D03*
Y165000D02*
D03*
X175000D02*
D03*
Y175000D02*
D03*
X165000D02*
D03*
Y235000D02*
D03*
X175000D02*
D03*
Y225000D02*
D03*
X165000D02*
D03*
Y205000D02*
D03*
X175000D02*
D03*
Y215000D02*
D03*
X165000D02*
D03*
Y275000D02*
D03*
X175000D02*
D03*
Y265000D02*
D03*
X165000D02*
D03*
Y245000D02*
D03*
X175000D02*
D03*
Y255000D02*
D03*
X165000D02*
D03*
Y295000D02*
D03*
X175000D02*
D03*
Y285000D02*
D03*
X165000D02*
D03*
Y305000D02*
D03*
X175000D02*
D03*
Y315000D02*
D03*
X165000D02*
D03*
X120000Y120000D02*
D03*
X110000Y130000D02*
D03*
X120000D02*
D03*
X110000Y140000D02*
D03*
X120000D02*
D03*
X110000Y150000D02*
D03*
X120000D02*
D03*
X110000Y160000D02*
D03*
X120000D02*
D03*
X110000Y170000D02*
D03*
X120000D02*
D03*
X110000Y180000D02*
D03*
X120000D02*
D03*
X110000Y190000D02*
D03*
X120000D02*
D03*
X110000Y200000D02*
D03*
X120000D02*
D03*
X110000Y210000D02*
D03*
X120000D02*
D03*
X110000Y220000D02*
D03*
X120000D02*
D03*
X110000Y230000D02*
D03*
X120000D02*
D03*
X110000Y240000D02*
D03*
X120000D02*
D03*
X110000Y250000D02*
D03*
X120000D02*
D03*
X110000Y260000D02*
D03*
X120000D02*
D03*
X110000Y270000D02*
D03*
X120000D02*
D03*
X110000Y280000D02*
D03*
X120000D02*
D03*
X110000Y290000D02*
D03*
X120000D02*
D03*
X110000Y300000D02*
D03*
X120000D02*
D03*
X110000Y310000D02*
D03*
X120000D02*
D03*
X140000D02*
D03*
X150000D02*
D03*
X140000Y300000D02*
D03*
X150000D02*
D03*
X140000Y290000D02*
D03*
X150000D02*
D03*
X140000Y280000D02*
D03*
X150000D02*
D03*
X140000Y270000D02*
D03*
X150000D02*
D03*
X140000Y260000D02*
D03*
X150000D02*
D03*
X140000Y250000D02*
D03*
X150000D02*
D03*
X140000Y240000D02*
D03*
X150000D02*
D03*
X140000Y230000D02*
D03*
X150000D02*
D03*
X140000Y220000D02*
D03*
X150000D02*
D03*
X140000Y210000D02*
D03*
X150000D02*
D03*
X140000Y200000D02*
D03*
X150000D02*
D03*
X140000Y190000D02*
D03*
X150000D02*
D03*
X140000Y180000D02*
D03*
X150000D02*
D03*
X140000Y170000D02*
D03*
X150000D02*
D03*
X140000Y160000D02*
D03*
X150000D02*
D03*
X140000Y150000D02*
D03*
X150000D02*
D03*
X140000Y140000D02*
D03*
X150000D02*
D03*
X140000Y130000D02*
D03*
X150000D02*
D03*
X140000Y120000D02*
D03*
D22*
X110000D02*
D03*
X150000D02*
D03*
D23*
X170000Y128937D02*
D03*
D24*
X170000Y121063D02*
D03*
M02*
