G04*
G04 #@! TF.GenerationSoftware,Altium Limited,Altium Designer,21.9.1 (22)*
G04*
G04 Layer_Physical_Order=1*
G04 Layer_Color=255*
%FSLAX25Y25*%
%MOIN*%
G70*
G04*
G04 #@! TF.SameCoordinates,09A2F519-62F4-4556-9982-E7C42AD15BA3*
G04*
G04*
G04 #@! TF.FilePolarity,Positive*
G04*
G01*
G75*
%ADD14C,0.01000*%
%ADD20C,0.02000*%
%ADD21C,0.05906*%
%ADD22R,0.05906X0.05906*%
%ADD23C,0.04921*%
%ADD24R,0.04921X0.04921*%
D14*
X110000Y150000D02*
X115000Y155000D01*
X145000D01*
X150000Y150000D01*
X120000D02*
X140000D01*
X120000Y140000D02*
X140000D01*
X145000Y145000D02*
X150000Y140000D01*
X115000Y145000D02*
X145000D01*
X110000Y140000D02*
X115000Y145000D01*
X110000Y170000D02*
X115000Y175000D01*
X145000D01*
X150000Y170000D01*
X120000D02*
X140000D01*
X120000Y160000D02*
X140000D01*
X145000Y165000D02*
X150000Y160000D01*
X115000Y165000D02*
X145000D01*
X110000Y160000D02*
X115000Y165000D01*
X110000Y190000D02*
X115000Y195000D01*
X145000D01*
X150000Y190000D01*
X120000D02*
X140000D01*
X120000Y180000D02*
X140000D01*
X145000Y185000D02*
X150000Y180000D01*
X115000Y185000D02*
X145000D01*
X110000Y180000D02*
X115000Y185000D01*
X110000Y210000D02*
X115000Y215000D01*
X145000D01*
X150000Y210000D01*
X120000D02*
X140000D01*
X120000Y200000D02*
X140000D01*
X145000Y205000D02*
X150000Y200000D01*
X115000Y205000D02*
X145000D01*
X110000Y200000D02*
X115000Y205000D01*
X110000Y230000D02*
X115000Y235000D01*
X145000D01*
X150000Y230000D01*
X120000D02*
X140000D01*
X120000Y220000D02*
X140000D01*
X145000Y225000D02*
X150000Y220000D01*
X115000Y225000D02*
X145000D01*
X110000Y220000D02*
X115000Y225000D01*
X110000Y250000D02*
X115000Y255000D01*
X145000D01*
X150000Y250000D01*
X120000D02*
X140000D01*
X120000Y240000D02*
X140000D01*
X145000Y245000D02*
X150000Y240000D01*
X115000Y245000D02*
X145000D01*
X110000Y240000D02*
X115000Y245000D01*
X110000Y270000D02*
X115000Y275000D01*
X145000D01*
X150000Y270000D01*
X120000D02*
X140000D01*
X120000Y260000D02*
X140000D01*
X145000Y265000D02*
X150000Y260000D01*
X115000Y265000D02*
X145000D01*
X110000Y260000D02*
X115000Y265000D01*
X110000Y290000D02*
X115000Y295000D01*
X145000D01*
X150000Y290000D01*
X120000D02*
X140000D01*
X120000Y280000D02*
X140000D01*
X145000Y285000D02*
X150000Y280000D01*
X115000Y285000D02*
X145000D01*
X110000Y280000D02*
X115000Y285000D01*
X110000Y300000D02*
X115000Y305000D01*
X145000D01*
X150000Y300000D01*
X120000D02*
X140000D01*
X120000Y310000D02*
X140000D01*
X145000Y315000D02*
X150000Y310000D01*
X115000Y315000D02*
X145000D01*
X110000Y310000D02*
X115000Y315000D01*
D20*
X120000Y120000D02*
X140000D01*
X120000Y130000D02*
X140000D01*
X150000D02*
X159468D01*
X160531Y128937D01*
X170000D01*
X150000Y120000D02*
X159468D01*
X160531Y121063D01*
X170000D01*
X140000Y120000D02*
X150000D01*
X110000D02*
X120000D01*
X140000Y130000D02*
X150000D01*
X110000D02*
X120000D01*
D21*
X585000Y155000D02*
D03*
X595000D02*
D03*
X585000Y145000D02*
D03*
Y195000D02*
D03*
X595000D02*
D03*
Y185000D02*
D03*
X585000D02*
D03*
Y165000D02*
D03*
X595000D02*
D03*
Y175000D02*
D03*
X585000D02*
D03*
Y235000D02*
D03*
X595000D02*
D03*
Y225000D02*
D03*
X585000D02*
D03*
Y205000D02*
D03*
X595000D02*
D03*
Y215000D02*
D03*
X585000D02*
D03*
Y275000D02*
D03*
X595000D02*
D03*
Y265000D02*
D03*
X585000D02*
D03*
Y245000D02*
D03*
X595000D02*
D03*
Y255000D02*
D03*
X585000D02*
D03*
Y285000D02*
D03*
X605000Y255000D02*
D03*
X615000D02*
D03*
Y245000D02*
D03*
X605000D02*
D03*
Y265000D02*
D03*
Y215000D02*
D03*
X615000D02*
D03*
Y205000D02*
D03*
X605000D02*
D03*
Y225000D02*
D03*
X615000D02*
D03*
Y235000D02*
D03*
X605000D02*
D03*
Y175000D02*
D03*
X615000D02*
D03*
X605000Y165000D02*
D03*
Y185000D02*
D03*
X615000D02*
D03*
Y195000D02*
D03*
X605000D02*
D03*
X545000Y155000D02*
D03*
X555000D02*
D03*
Y145000D02*
D03*
X545000D02*
D03*
Y195000D02*
D03*
X555000D02*
D03*
Y185000D02*
D03*
X545000D02*
D03*
Y165000D02*
D03*
X555000D02*
D03*
Y175000D02*
D03*
X545000D02*
D03*
Y235000D02*
D03*
X555000D02*
D03*
Y225000D02*
D03*
X545000D02*
D03*
Y205000D02*
D03*
X555000D02*
D03*
Y215000D02*
D03*
X545000D02*
D03*
Y275000D02*
D03*
X555000D02*
D03*
Y265000D02*
D03*
X545000D02*
D03*
Y245000D02*
D03*
X555000D02*
D03*
Y255000D02*
D03*
X545000D02*
D03*
Y295000D02*
D03*
X555000D02*
D03*
Y285000D02*
D03*
X545000D02*
D03*
Y305000D02*
D03*
X555000D02*
D03*
Y315000D02*
D03*
X545000D02*
D03*
Y135000D02*
D03*
X555000D02*
D03*
Y125000D02*
D03*
X545000D02*
D03*
X555000Y115000D02*
D03*
X545000D02*
D03*
X565000D02*
D03*
X575000D02*
D03*
X565000Y125000D02*
D03*
X575000D02*
D03*
Y135000D02*
D03*
X565000D02*
D03*
Y315000D02*
D03*
X575000D02*
D03*
Y305000D02*
D03*
X565000D02*
D03*
Y285000D02*
D03*
X575000D02*
D03*
Y295000D02*
D03*
X565000D02*
D03*
Y255000D02*
D03*
X575000D02*
D03*
Y245000D02*
D03*
X565000D02*
D03*
Y265000D02*
D03*
X575000D02*
D03*
Y275000D02*
D03*
X565000D02*
D03*
Y215000D02*
D03*
X575000D02*
D03*
Y205000D02*
D03*
X565000D02*
D03*
Y225000D02*
D03*
X575000D02*
D03*
Y235000D02*
D03*
X565000D02*
D03*
Y175000D02*
D03*
X575000D02*
D03*
Y165000D02*
D03*
X565000D02*
D03*
Y185000D02*
D03*
X575000D02*
D03*
Y195000D02*
D03*
X565000D02*
D03*
Y145000D02*
D03*
X575000D02*
D03*
Y155000D02*
D03*
X565000D02*
D03*
X505000D02*
D03*
X515000D02*
D03*
Y145000D02*
D03*
X505000D02*
D03*
Y195000D02*
D03*
X515000D02*
D03*
Y185000D02*
D03*
X505000D02*
D03*
Y165000D02*
D03*
X515000D02*
D03*
Y175000D02*
D03*
X505000D02*
D03*
Y235000D02*
D03*
X515000D02*
D03*
Y225000D02*
D03*
X505000D02*
D03*
Y205000D02*
D03*
X515000D02*
D03*
Y215000D02*
D03*
X505000D02*
D03*
Y275000D02*
D03*
X515000D02*
D03*
Y265000D02*
D03*
X505000D02*
D03*
Y245000D02*
D03*
X515000D02*
D03*
Y255000D02*
D03*
X505000D02*
D03*
Y295000D02*
D03*
X515000D02*
D03*
Y285000D02*
D03*
X505000D02*
D03*
Y305000D02*
D03*
X515000D02*
D03*
Y315000D02*
D03*
X505000D02*
D03*
Y135000D02*
D03*
X515000D02*
D03*
Y125000D02*
D03*
X505000D02*
D03*
X515000Y115000D02*
D03*
X505000D02*
D03*
X525000D02*
D03*
X535000D02*
D03*
X525000Y125000D02*
D03*
X535000D02*
D03*
Y135000D02*
D03*
X525000D02*
D03*
Y315000D02*
D03*
X535000D02*
D03*
Y305000D02*
D03*
X525000D02*
D03*
Y285000D02*
D03*
X535000D02*
D03*
Y295000D02*
D03*
X525000D02*
D03*
Y255000D02*
D03*
X535000D02*
D03*
Y245000D02*
D03*
X525000D02*
D03*
Y265000D02*
D03*
X535000D02*
D03*
Y275000D02*
D03*
X525000D02*
D03*
Y215000D02*
D03*
X535000D02*
D03*
Y205000D02*
D03*
X525000D02*
D03*
Y225000D02*
D03*
X535000D02*
D03*
Y235000D02*
D03*
X525000D02*
D03*
Y175000D02*
D03*
X535000D02*
D03*
Y165000D02*
D03*
X525000D02*
D03*
Y185000D02*
D03*
X535000D02*
D03*
Y195000D02*
D03*
X525000D02*
D03*
Y145000D02*
D03*
X535000D02*
D03*
Y155000D02*
D03*
X525000D02*
D03*
X465000D02*
D03*
X475000D02*
D03*
Y145000D02*
D03*
X465000D02*
D03*
Y195000D02*
D03*
X475000D02*
D03*
Y185000D02*
D03*
X465000D02*
D03*
Y165000D02*
D03*
X475000D02*
D03*
Y175000D02*
D03*
X465000D02*
D03*
Y235000D02*
D03*
X475000D02*
D03*
Y225000D02*
D03*
X465000D02*
D03*
Y205000D02*
D03*
X475000D02*
D03*
Y215000D02*
D03*
X465000D02*
D03*
Y275000D02*
D03*
X475000D02*
D03*
Y265000D02*
D03*
X465000D02*
D03*
Y245000D02*
D03*
X475000D02*
D03*
Y255000D02*
D03*
X465000D02*
D03*
Y295000D02*
D03*
X475000D02*
D03*
Y285000D02*
D03*
X465000D02*
D03*
Y305000D02*
D03*
X475000D02*
D03*
Y315000D02*
D03*
X465000D02*
D03*
Y135000D02*
D03*
X475000D02*
D03*
Y125000D02*
D03*
X465000D02*
D03*
X475000Y115000D02*
D03*
X465000D02*
D03*
X485000D02*
D03*
X495000D02*
D03*
X485000Y125000D02*
D03*
X495000D02*
D03*
Y135000D02*
D03*
X485000D02*
D03*
Y315000D02*
D03*
X495000D02*
D03*
Y305000D02*
D03*
X485000D02*
D03*
Y285000D02*
D03*
X495000D02*
D03*
Y295000D02*
D03*
X485000D02*
D03*
Y255000D02*
D03*
X495000D02*
D03*
Y245000D02*
D03*
X485000D02*
D03*
Y265000D02*
D03*
X495000D02*
D03*
Y275000D02*
D03*
X485000D02*
D03*
Y215000D02*
D03*
X495000D02*
D03*
Y205000D02*
D03*
X485000D02*
D03*
Y225000D02*
D03*
X495000D02*
D03*
Y235000D02*
D03*
X485000D02*
D03*
Y175000D02*
D03*
X495000D02*
D03*
Y165000D02*
D03*
X485000D02*
D03*
Y185000D02*
D03*
X495000D02*
D03*
Y195000D02*
D03*
X485000D02*
D03*
Y145000D02*
D03*
X495000D02*
D03*
Y155000D02*
D03*
X485000D02*
D03*
X425000D02*
D03*
X435000D02*
D03*
Y145000D02*
D03*
X425000D02*
D03*
Y195000D02*
D03*
X435000D02*
D03*
Y185000D02*
D03*
X425000D02*
D03*
Y165000D02*
D03*
X435000D02*
D03*
Y175000D02*
D03*
X425000D02*
D03*
Y235000D02*
D03*
X435000D02*
D03*
Y225000D02*
D03*
X425000D02*
D03*
Y205000D02*
D03*
X435000D02*
D03*
Y215000D02*
D03*
X425000D02*
D03*
Y275000D02*
D03*
X435000D02*
D03*
Y265000D02*
D03*
X425000D02*
D03*
Y245000D02*
D03*
X435000D02*
D03*
Y255000D02*
D03*
X425000D02*
D03*
Y295000D02*
D03*
X435000D02*
D03*
Y285000D02*
D03*
X425000D02*
D03*
Y305000D02*
D03*
X435000D02*
D03*
Y315000D02*
D03*
X425000D02*
D03*
Y135000D02*
D03*
X435000D02*
D03*
Y125000D02*
D03*
X425000D02*
D03*
X435000Y115000D02*
D03*
X425000D02*
D03*
X445000D02*
D03*
X455000D02*
D03*
X445000Y125000D02*
D03*
X455000D02*
D03*
Y135000D02*
D03*
X445000D02*
D03*
Y315000D02*
D03*
X455000D02*
D03*
Y305000D02*
D03*
X445000D02*
D03*
Y285000D02*
D03*
X455000D02*
D03*
Y295000D02*
D03*
X445000D02*
D03*
Y255000D02*
D03*
X455000D02*
D03*
Y245000D02*
D03*
X445000D02*
D03*
Y265000D02*
D03*
X455000D02*
D03*
Y275000D02*
D03*
X445000D02*
D03*
Y215000D02*
D03*
X455000D02*
D03*
Y205000D02*
D03*
X445000D02*
D03*
Y225000D02*
D03*
X455000D02*
D03*
Y235000D02*
D03*
X445000D02*
D03*
Y175000D02*
D03*
X455000D02*
D03*
Y165000D02*
D03*
X445000D02*
D03*
Y185000D02*
D03*
X455000D02*
D03*
Y195000D02*
D03*
X445000D02*
D03*
Y145000D02*
D03*
X455000D02*
D03*
Y155000D02*
D03*
X445000D02*
D03*
X385000D02*
D03*
X395000D02*
D03*
Y145000D02*
D03*
X385000D02*
D03*
Y195000D02*
D03*
X395000D02*
D03*
Y185000D02*
D03*
X385000D02*
D03*
Y165000D02*
D03*
X395000D02*
D03*
Y175000D02*
D03*
X385000D02*
D03*
Y235000D02*
D03*
X395000D02*
D03*
Y225000D02*
D03*
X385000D02*
D03*
Y205000D02*
D03*
X395000D02*
D03*
Y215000D02*
D03*
X385000D02*
D03*
Y275000D02*
D03*
X395000D02*
D03*
Y265000D02*
D03*
X385000D02*
D03*
Y245000D02*
D03*
X395000D02*
D03*
Y255000D02*
D03*
X385000D02*
D03*
Y295000D02*
D03*
X395000D02*
D03*
Y285000D02*
D03*
X385000D02*
D03*
Y305000D02*
D03*
X395000D02*
D03*
Y315000D02*
D03*
X385000D02*
D03*
Y135000D02*
D03*
X395000D02*
D03*
Y125000D02*
D03*
X385000D02*
D03*
X395000Y115000D02*
D03*
X385000D02*
D03*
X405000D02*
D03*
X415000D02*
D03*
X405000Y125000D02*
D03*
X415000D02*
D03*
Y135000D02*
D03*
X405000D02*
D03*
Y315000D02*
D03*
X415000D02*
D03*
Y305000D02*
D03*
X405000D02*
D03*
Y285000D02*
D03*
X415000D02*
D03*
Y295000D02*
D03*
X405000D02*
D03*
Y255000D02*
D03*
X415000D02*
D03*
Y245000D02*
D03*
X405000D02*
D03*
Y265000D02*
D03*
X415000D02*
D03*
Y275000D02*
D03*
X405000D02*
D03*
Y215000D02*
D03*
X415000D02*
D03*
Y205000D02*
D03*
X405000D02*
D03*
Y225000D02*
D03*
X415000D02*
D03*
Y235000D02*
D03*
X405000D02*
D03*
Y175000D02*
D03*
X415000D02*
D03*
Y165000D02*
D03*
X405000D02*
D03*
Y185000D02*
D03*
X415000D02*
D03*
Y195000D02*
D03*
X405000D02*
D03*
Y145000D02*
D03*
X415000D02*
D03*
Y155000D02*
D03*
X405000D02*
D03*
X345000D02*
D03*
X355000D02*
D03*
Y145000D02*
D03*
X345000D02*
D03*
Y195000D02*
D03*
X355000D02*
D03*
Y185000D02*
D03*
X345000D02*
D03*
Y165000D02*
D03*
X355000D02*
D03*
Y175000D02*
D03*
X345000D02*
D03*
Y235000D02*
D03*
X355000D02*
D03*
Y225000D02*
D03*
X345000D02*
D03*
Y205000D02*
D03*
X355000D02*
D03*
Y215000D02*
D03*
X345000D02*
D03*
Y275000D02*
D03*
X355000D02*
D03*
Y265000D02*
D03*
X345000D02*
D03*
Y245000D02*
D03*
X355000D02*
D03*
Y255000D02*
D03*
X345000D02*
D03*
Y295000D02*
D03*
X355000D02*
D03*
Y285000D02*
D03*
X345000D02*
D03*
Y305000D02*
D03*
X355000D02*
D03*
Y315000D02*
D03*
X345000D02*
D03*
Y135000D02*
D03*
X355000D02*
D03*
Y125000D02*
D03*
X345000D02*
D03*
X355000Y115000D02*
D03*
X345000D02*
D03*
X365000D02*
D03*
X375000D02*
D03*
X365000Y125000D02*
D03*
X375000D02*
D03*
Y135000D02*
D03*
X365000D02*
D03*
Y315000D02*
D03*
X375000D02*
D03*
Y305000D02*
D03*
X365000D02*
D03*
Y285000D02*
D03*
X375000D02*
D03*
Y295000D02*
D03*
X365000D02*
D03*
Y255000D02*
D03*
X375000D02*
D03*
Y245000D02*
D03*
X365000D02*
D03*
Y265000D02*
D03*
X375000D02*
D03*
Y275000D02*
D03*
X365000D02*
D03*
Y215000D02*
D03*
X375000D02*
D03*
Y205000D02*
D03*
X365000D02*
D03*
Y225000D02*
D03*
X375000D02*
D03*
Y235000D02*
D03*
X365000D02*
D03*
Y175000D02*
D03*
X375000D02*
D03*
Y165000D02*
D03*
X365000D02*
D03*
Y185000D02*
D03*
X375000D02*
D03*
Y195000D02*
D03*
X365000D02*
D03*
Y145000D02*
D03*
X375000D02*
D03*
Y155000D02*
D03*
X365000D02*
D03*
X305000D02*
D03*
X315000D02*
D03*
Y145000D02*
D03*
X305000D02*
D03*
Y195000D02*
D03*
X315000D02*
D03*
Y185000D02*
D03*
X305000D02*
D03*
Y165000D02*
D03*
X315000D02*
D03*
Y175000D02*
D03*
X305000D02*
D03*
Y235000D02*
D03*
X315000D02*
D03*
Y225000D02*
D03*
X305000D02*
D03*
Y205000D02*
D03*
X315000D02*
D03*
Y215000D02*
D03*
X305000D02*
D03*
Y275000D02*
D03*
X315000D02*
D03*
Y265000D02*
D03*
X305000D02*
D03*
Y245000D02*
D03*
X315000D02*
D03*
Y255000D02*
D03*
X305000D02*
D03*
Y295000D02*
D03*
X315000D02*
D03*
Y285000D02*
D03*
X305000D02*
D03*
Y305000D02*
D03*
X315000D02*
D03*
Y315000D02*
D03*
X305000D02*
D03*
Y135000D02*
D03*
X315000D02*
D03*
Y125000D02*
D03*
X305000D02*
D03*
X315000Y115000D02*
D03*
X305000D02*
D03*
X325000D02*
D03*
X335000D02*
D03*
X325000Y125000D02*
D03*
X335000D02*
D03*
Y135000D02*
D03*
X325000D02*
D03*
Y315000D02*
D03*
X335000D02*
D03*
Y305000D02*
D03*
X325000D02*
D03*
Y285000D02*
D03*
X335000D02*
D03*
Y295000D02*
D03*
X325000D02*
D03*
Y255000D02*
D03*
X335000D02*
D03*
Y245000D02*
D03*
X325000D02*
D03*
Y265000D02*
D03*
X335000D02*
D03*
Y275000D02*
D03*
X325000D02*
D03*
Y215000D02*
D03*
X335000D02*
D03*
Y205000D02*
D03*
X325000D02*
D03*
Y225000D02*
D03*
X335000D02*
D03*
Y235000D02*
D03*
X325000D02*
D03*
Y175000D02*
D03*
X335000D02*
D03*
Y165000D02*
D03*
X325000D02*
D03*
Y185000D02*
D03*
X335000D02*
D03*
Y195000D02*
D03*
X325000D02*
D03*
Y145000D02*
D03*
X335000D02*
D03*
Y155000D02*
D03*
X325000D02*
D03*
X265000D02*
D03*
X275000D02*
D03*
Y145000D02*
D03*
X265000D02*
D03*
Y195000D02*
D03*
X275000D02*
D03*
Y185000D02*
D03*
X265000D02*
D03*
Y165000D02*
D03*
X275000D02*
D03*
Y175000D02*
D03*
X265000D02*
D03*
Y235000D02*
D03*
X275000D02*
D03*
Y225000D02*
D03*
X265000D02*
D03*
Y205000D02*
D03*
X275000D02*
D03*
Y215000D02*
D03*
X265000D02*
D03*
Y275000D02*
D03*
X275000D02*
D03*
Y265000D02*
D03*
X265000D02*
D03*
Y245000D02*
D03*
X275000D02*
D03*
Y255000D02*
D03*
X265000D02*
D03*
Y295000D02*
D03*
X275000D02*
D03*
Y285000D02*
D03*
X265000D02*
D03*
Y305000D02*
D03*
X275000D02*
D03*
Y315000D02*
D03*
X265000D02*
D03*
Y135000D02*
D03*
X275000D02*
D03*
Y125000D02*
D03*
X265000D02*
D03*
X275000Y115000D02*
D03*
X265000D02*
D03*
X285000D02*
D03*
X295000D02*
D03*
X285000Y125000D02*
D03*
X295000D02*
D03*
Y135000D02*
D03*
X285000D02*
D03*
Y315000D02*
D03*
X295000D02*
D03*
Y305000D02*
D03*
X285000D02*
D03*
Y285000D02*
D03*
X295000D02*
D03*
Y295000D02*
D03*
X285000D02*
D03*
Y255000D02*
D03*
X295000D02*
D03*
Y245000D02*
D03*
X285000D02*
D03*
Y265000D02*
D03*
X295000D02*
D03*
Y275000D02*
D03*
X285000D02*
D03*
Y215000D02*
D03*
X295000D02*
D03*
Y205000D02*
D03*
X285000D02*
D03*
Y225000D02*
D03*
X295000D02*
D03*
Y235000D02*
D03*
X285000D02*
D03*
Y175000D02*
D03*
X295000D02*
D03*
Y165000D02*
D03*
X285000D02*
D03*
Y185000D02*
D03*
X295000D02*
D03*
Y195000D02*
D03*
X285000D02*
D03*
Y145000D02*
D03*
X295000D02*
D03*
Y155000D02*
D03*
X285000D02*
D03*
X225000D02*
D03*
X235000D02*
D03*
Y145000D02*
D03*
X225000D02*
D03*
Y195000D02*
D03*
X235000D02*
D03*
Y185000D02*
D03*
X225000D02*
D03*
Y165000D02*
D03*
X235000D02*
D03*
Y175000D02*
D03*
X225000D02*
D03*
Y235000D02*
D03*
X235000D02*
D03*
Y225000D02*
D03*
X225000D02*
D03*
Y205000D02*
D03*
X235000D02*
D03*
Y215000D02*
D03*
X225000D02*
D03*
Y275000D02*
D03*
X235000D02*
D03*
Y265000D02*
D03*
X225000D02*
D03*
Y245000D02*
D03*
X235000D02*
D03*
Y255000D02*
D03*
X225000D02*
D03*
Y295000D02*
D03*
X235000D02*
D03*
Y285000D02*
D03*
X225000D02*
D03*
Y305000D02*
D03*
X235000D02*
D03*
Y315000D02*
D03*
X225000D02*
D03*
Y135000D02*
D03*
X235000D02*
D03*
Y125000D02*
D03*
X225000D02*
D03*
X235000Y115000D02*
D03*
X225000D02*
D03*
X245000D02*
D03*
X255000D02*
D03*
X245000Y125000D02*
D03*
X255000D02*
D03*
Y135000D02*
D03*
X245000D02*
D03*
Y315000D02*
D03*
X255000D02*
D03*
Y305000D02*
D03*
X245000D02*
D03*
Y285000D02*
D03*
X255000D02*
D03*
Y295000D02*
D03*
X245000D02*
D03*
Y255000D02*
D03*
X255000D02*
D03*
Y245000D02*
D03*
X245000D02*
D03*
Y265000D02*
D03*
X255000D02*
D03*
Y275000D02*
D03*
X245000D02*
D03*
Y215000D02*
D03*
X255000D02*
D03*
Y205000D02*
D03*
X245000D02*
D03*
Y225000D02*
D03*
X255000D02*
D03*
Y235000D02*
D03*
X245000D02*
D03*
Y175000D02*
D03*
X255000D02*
D03*
Y165000D02*
D03*
X245000D02*
D03*
Y185000D02*
D03*
X255000D02*
D03*
Y195000D02*
D03*
X245000D02*
D03*
Y145000D02*
D03*
X255000D02*
D03*
Y155000D02*
D03*
X245000D02*
D03*
X205000D02*
D03*
X215000D02*
D03*
Y145000D02*
D03*
X205000D02*
D03*
Y195000D02*
D03*
X215000D02*
D03*
Y185000D02*
D03*
X205000D02*
D03*
Y165000D02*
D03*
X215000D02*
D03*
Y175000D02*
D03*
X205000D02*
D03*
Y235000D02*
D03*
X215000D02*
D03*
Y225000D02*
D03*
X205000D02*
D03*
Y205000D02*
D03*
X215000D02*
D03*
Y215000D02*
D03*
X205000D02*
D03*
Y275000D02*
D03*
X215000D02*
D03*
Y265000D02*
D03*
X205000D02*
D03*
Y245000D02*
D03*
X215000D02*
D03*
Y255000D02*
D03*
X205000D02*
D03*
Y295000D02*
D03*
X215000D02*
D03*
Y285000D02*
D03*
X205000D02*
D03*
Y305000D02*
D03*
X215000D02*
D03*
Y315000D02*
D03*
X205000D02*
D03*
Y135000D02*
D03*
X215000D02*
D03*
Y125000D02*
D03*
X205000D02*
D03*
X215000Y115000D02*
D03*
X205000D02*
D03*
X185000D02*
D03*
X195000D02*
D03*
X185000Y125000D02*
D03*
X195000D02*
D03*
Y135000D02*
D03*
X185000D02*
D03*
Y315000D02*
D03*
X195000D02*
D03*
Y305000D02*
D03*
X185000D02*
D03*
Y285000D02*
D03*
X195000D02*
D03*
Y295000D02*
D03*
X185000D02*
D03*
Y255000D02*
D03*
X195000D02*
D03*
Y245000D02*
D03*
X185000D02*
D03*
Y265000D02*
D03*
X195000D02*
D03*
Y275000D02*
D03*
X185000D02*
D03*
Y215000D02*
D03*
X195000D02*
D03*
Y205000D02*
D03*
X185000D02*
D03*
Y225000D02*
D03*
X195000D02*
D03*
Y235000D02*
D03*
X185000D02*
D03*
Y175000D02*
D03*
X195000D02*
D03*
Y165000D02*
D03*
X185000D02*
D03*
Y185000D02*
D03*
X195000D02*
D03*
Y195000D02*
D03*
X185000D02*
D03*
Y145000D02*
D03*
X195000D02*
D03*
Y155000D02*
D03*
X185000D02*
D03*
X165000D02*
D03*
X175000D02*
D03*
Y145000D02*
D03*
X165000D02*
D03*
Y195000D02*
D03*
X175000D02*
D03*
Y185000D02*
D03*
X165000D02*
D03*
Y165000D02*
D03*
X175000D02*
D03*
Y175000D02*
D03*
X165000D02*
D03*
Y235000D02*
D03*
X175000D02*
D03*
Y225000D02*
D03*
X165000D02*
D03*
Y205000D02*
D03*
X175000D02*
D03*
Y215000D02*
D03*
X165000D02*
D03*
Y275000D02*
D03*
X175000D02*
D03*
Y265000D02*
D03*
X165000D02*
D03*
Y245000D02*
D03*
X175000D02*
D03*
Y255000D02*
D03*
X165000D02*
D03*
Y295000D02*
D03*
X175000D02*
D03*
Y285000D02*
D03*
X165000D02*
D03*
Y305000D02*
D03*
X175000D02*
D03*
Y315000D02*
D03*
X165000D02*
D03*
X120000Y120000D02*
D03*
X110000Y130000D02*
D03*
X120000D02*
D03*
X110000Y140000D02*
D03*
X120000D02*
D03*
X110000Y150000D02*
D03*
X120000D02*
D03*
X110000Y160000D02*
D03*
X120000D02*
D03*
X110000Y170000D02*
D03*
X120000D02*
D03*
X110000Y180000D02*
D03*
X120000D02*
D03*
X110000Y190000D02*
D03*
X120000D02*
D03*
X110000Y200000D02*
D03*
X120000D02*
D03*
X110000Y210000D02*
D03*
X120000D02*
D03*
X110000Y220000D02*
D03*
X120000D02*
D03*
X110000Y230000D02*
D03*
X120000D02*
D03*
X110000Y240000D02*
D03*
X120000D02*
D03*
X110000Y250000D02*
D03*
X120000D02*
D03*
X110000Y260000D02*
D03*
X120000D02*
D03*
X110000Y270000D02*
D03*
X120000D02*
D03*
X110000Y280000D02*
D03*
X120000D02*
D03*
X110000Y290000D02*
D03*
X120000D02*
D03*
X110000Y300000D02*
D03*
X120000D02*
D03*
X110000Y310000D02*
D03*
X120000D02*
D03*
X140000D02*
D03*
X150000D02*
D03*
X140000Y300000D02*
D03*
X150000D02*
D03*
X140000Y290000D02*
D03*
X150000D02*
D03*
X140000Y280000D02*
D03*
X150000D02*
D03*
X140000Y270000D02*
D03*
X150000D02*
D03*
X140000Y260000D02*
D03*
X150000D02*
D03*
X140000Y250000D02*
D03*
X150000D02*
D03*
X140000Y240000D02*
D03*
X150000D02*
D03*
X140000Y230000D02*
D03*
X150000D02*
D03*
X140000Y220000D02*
D03*
X150000D02*
D03*
X140000Y210000D02*
D03*
X150000D02*
D03*
X140000Y200000D02*
D03*
X150000D02*
D03*
X140000Y190000D02*
D03*
X150000D02*
D03*
X140000Y180000D02*
D03*
X150000D02*
D03*
X140000Y170000D02*
D03*
X150000D02*
D03*
X140000Y160000D02*
D03*
X150000D02*
D03*
X140000Y150000D02*
D03*
X150000D02*
D03*
X140000Y140000D02*
D03*
X150000D02*
D03*
X140000Y130000D02*
D03*
X150000D02*
D03*
X140000Y120000D02*
D03*
D22*
X110000D02*
D03*
X150000D02*
D03*
D23*
X170000Y128937D02*
D03*
D24*
X170000Y121063D02*
D03*
M02*
