G04*
G04 #@! TF.GenerationSoftware,Altium Limited,Altium Designer,21.9.1 (22)*
G04*
G04 Layer_Color=65535*
%FSLAX25Y25*%
%MOIN*%
G70*
G04*
G04 #@! TF.SameCoordinates,96388F34-ED53-4079-84C0-77210EF012B4*
G04*
G04*
G04 #@! TF.FilePolarity,Positive*
G04*
G01*
G75*
%ADD10C,0.00787*%
%ADD11C,0.00800*%
%ADD12C,0.01000*%
%ADD13C,0.00400*%
D10*
X1106240Y120000D02*
G03*
X1106240Y120000I-6240J0D01*
G01*
X1076240D02*
G03*
X1076240Y120000I-6240J0D01*
G01*
X1016240D02*
G03*
X1016240Y120000I-6240J0D01*
G01*
X1046240D02*
G03*
X1046240Y120000I-6240J0D01*
G01*
X1166240D02*
G03*
X1166240Y120000I-6240J0D01*
G01*
X1136240D02*
G03*
X1136240Y120000I-6240J0D01*
G01*
X1196240D02*
G03*
X1196240Y120000I-6240J0D01*
G01*
X1226240D02*
G03*
X1226240Y120000I-6240J0D01*
G01*
X1256240D02*
G03*
X1256240Y120000I-6240J0D01*
G01*
X1286240D02*
G03*
X1286240Y120000I-6240J0D01*
G01*
X1316240D02*
G03*
X1316240Y120000I-6240J0D01*
G01*
X1346240D02*
G03*
X1346240Y120000I-6240J0D01*
G01*
X125000Y405000D02*
Y605000D01*
X105000Y405000D02*
Y605000D01*
Y405000D02*
X125000D01*
X105000Y605000D02*
X125000D01*
X975000Y405000D02*
Y605000D01*
X955000Y405000D02*
Y605000D01*
Y405000D02*
X975000D01*
X955000Y605000D02*
X975000D01*
X125000Y145000D02*
Y345000D01*
X105000Y145000D02*
Y345000D01*
Y145000D02*
X125000D01*
X105000Y345000D02*
X125000D01*
X967000Y280000D02*
X970000D01*
X967000Y260000D02*
Y280000D01*
Y260000D02*
X973000D01*
Y280000D01*
X970000D02*
X973000D01*
X970000Y259100D02*
Y260000D01*
Y280000D02*
Y280900D01*
X957000Y280000D02*
X960000D01*
X957000Y260000D02*
Y280000D01*
Y260000D02*
X963000D01*
Y280000D01*
X960000D02*
X963000D01*
X960000Y259100D02*
Y260000D01*
Y280000D02*
Y280900D01*
X937000Y280000D02*
X940000D01*
X937000Y260000D02*
Y280000D01*
Y260000D02*
X943000D01*
Y280000D01*
X940000D02*
X943000D01*
X940000Y259100D02*
Y260000D01*
Y280000D02*
Y280900D01*
X917000Y280000D02*
X920000D01*
X917000Y260000D02*
Y280000D01*
Y260000D02*
X923000D01*
Y280000D01*
X920000D02*
X923000D01*
X920000Y259100D02*
Y260000D01*
Y280000D02*
Y280900D01*
X907000Y280000D02*
X910000D01*
X907000Y260000D02*
Y280000D01*
Y260000D02*
X913000D01*
Y280000D01*
X910000D02*
X913000D01*
X910000Y259100D02*
Y260000D01*
Y280000D02*
Y280900D01*
X887000Y280000D02*
X890000D01*
X887000Y260000D02*
Y280000D01*
Y260000D02*
X893000D01*
Y280000D01*
X890000D02*
X893000D01*
X890000Y259100D02*
Y260000D01*
Y280000D02*
Y280900D01*
X867000Y280000D02*
X870000D01*
X867000Y260000D02*
Y280000D01*
Y260000D02*
X873000D01*
Y280000D01*
X870000D02*
X873000D01*
X870000Y259100D02*
Y260000D01*
Y280000D02*
Y280900D01*
X857000Y280000D02*
X860000D01*
X857000Y260000D02*
Y280000D01*
Y260000D02*
X863000D01*
Y280000D01*
X860000D02*
X863000D01*
X860000Y259100D02*
Y260000D01*
Y280000D02*
Y280900D01*
X837000Y280000D02*
X840000D01*
X837000Y260000D02*
Y280000D01*
Y260000D02*
X843000D01*
Y280000D01*
X840000D02*
X843000D01*
X840000Y259100D02*
Y260000D01*
Y280000D02*
Y280900D01*
X817000Y280000D02*
X820000D01*
X817000Y260000D02*
Y280000D01*
Y260000D02*
X823000D01*
Y280000D01*
X820000D02*
X823000D01*
X820000Y259100D02*
Y260000D01*
Y280000D02*
Y280900D01*
X797000Y280000D02*
X800000D01*
X797000Y260000D02*
Y280000D01*
Y260000D02*
X803000D01*
Y280000D01*
X800000D02*
X803000D01*
X800000Y259100D02*
Y260000D01*
Y280000D02*
Y280900D01*
D11*
X122000Y400000D02*
Y401666D01*
Y400833D01*
X117002D01*
X117835Y400000D01*
X112000Y403332D02*
Y400000D01*
X108668Y403332D01*
X107835D01*
X107002Y402499D01*
Y400833D01*
X107835Y400000D01*
X112000Y610499D02*
X107002D01*
X109501Y608000D01*
Y611332D01*
X107835Y612998D02*
X107002Y613831D01*
Y615498D01*
X107835Y616331D01*
X111167D01*
X112000Y615498D01*
Y613831D01*
X111167Y612998D01*
X107835D01*
X117835Y608000D02*
X117002Y608833D01*
Y610499D01*
X117835Y611332D01*
X118668D01*
X119501Y610499D01*
Y609666D01*
Y610499D01*
X120334Y611332D01*
X121167D01*
X122000Y610499D01*
Y608833D01*
X121167Y608000D01*
Y612998D02*
X122000Y613831D01*
Y615498D01*
X121167Y616331D01*
X117835D01*
X117002Y615498D01*
Y613831D01*
X117835Y612998D01*
X118668D01*
X119501Y613831D01*
Y616331D01*
X972000Y400000D02*
Y401666D01*
Y400833D01*
X967002D01*
X967835Y400000D01*
X962000Y403332D02*
Y400000D01*
X958668Y403332D01*
X957835D01*
X957002Y402499D01*
Y400833D01*
X957835Y400000D01*
X962000Y610499D02*
X957002D01*
X959501Y608000D01*
Y611332D01*
X957835Y612998D02*
X957002Y613831D01*
Y615498D01*
X957835Y616331D01*
X961167D01*
X962000Y615498D01*
Y613831D01*
X961167Y612998D01*
X957835D01*
X967835Y608000D02*
X967002Y608833D01*
Y610499D01*
X967835Y611332D01*
X968668D01*
X969501Y610499D01*
Y609666D01*
Y610499D01*
X970334Y611332D01*
X971167D01*
X972000Y610499D01*
Y608833D01*
X971167Y608000D01*
Y612998D02*
X972000Y613831D01*
Y615498D01*
X971167Y616331D01*
X967835D01*
X967002Y615498D01*
Y613831D01*
X967835Y612998D01*
X968668D01*
X969501Y613831D01*
Y616331D01*
X122000Y140000D02*
Y141666D01*
Y140833D01*
X117002D01*
X117835Y140000D01*
X112000Y143332D02*
Y140000D01*
X108668Y143332D01*
X107835D01*
X107002Y142499D01*
Y140833D01*
X107835Y140000D01*
X112000Y350499D02*
X107002D01*
X109501Y348000D01*
Y351332D01*
X107835Y352998D02*
X107002Y353831D01*
Y355498D01*
X107835Y356331D01*
X111167D01*
X112000Y355498D01*
Y353831D01*
X111167Y352998D01*
X107835D01*
X117835Y348000D02*
X117002Y348833D01*
Y350499D01*
X117835Y351332D01*
X118668D01*
X119501Y350499D01*
Y349666D01*
Y350499D01*
X120334Y351332D01*
X121167D01*
X122000Y350499D01*
Y348833D01*
X121167Y348000D01*
Y352998D02*
X122000Y353831D01*
Y355498D01*
X121167Y356331D01*
X117835D01*
X117002Y355498D01*
Y353831D01*
X117835Y352998D01*
X118668D01*
X119501Y353831D01*
Y356331D01*
D12*
X999503Y132999D02*
X1003502D01*
X1001503D01*
Y127001D01*
X1005501D02*
Y132999D01*
X1008500D01*
X1009500Y131999D01*
Y130000D01*
X1008500Y129000D01*
X1005501D01*
X1011500Y127001D02*
X1013499D01*
X1012499D01*
Y132999D01*
X1011500Y131999D01*
X1019497Y127001D02*
Y132999D01*
X1016498Y130000D01*
X1020497D01*
X1002003Y112999D02*
Y109000D01*
X1004002Y107001D01*
X1006001Y109000D01*
Y112999D01*
X1011999Y111999D02*
X1011000Y112999D01*
X1009000D01*
X1008001Y111999D01*
Y108001D01*
X1009000Y107001D01*
X1011000D01*
X1011999Y108001D01*
X1017997Y111999D02*
X1016998Y112999D01*
X1014998D01*
X1013999Y111999D01*
Y108001D01*
X1014998Y107001D01*
X1016998D01*
X1017997Y108001D01*
X1029503Y132999D02*
X1033502D01*
X1031503D01*
Y127001D01*
X1035501D02*
Y132999D01*
X1038500D01*
X1039500Y131999D01*
Y130000D01*
X1038500Y129000D01*
X1035501D01*
X1041500Y127001D02*
X1043499D01*
X1042499D01*
Y132999D01*
X1041500Y131999D01*
X1046498D02*
X1047498Y132999D01*
X1049497D01*
X1050497Y131999D01*
Y131000D01*
X1049497Y130000D01*
X1048497D01*
X1049497D01*
X1050497Y129000D01*
Y128001D01*
X1049497Y127001D01*
X1047498D01*
X1046498Y128001D01*
X1036001Y111999D02*
X1035002Y112999D01*
X1033002D01*
X1032003Y111999D01*
Y108001D01*
X1033002Y107001D01*
X1035002D01*
X1036001Y108001D01*
Y110000D01*
X1034002D01*
X1038001Y107001D02*
Y112999D01*
X1041999Y107001D01*
Y112999D01*
X1043999D02*
Y107001D01*
X1046998D01*
X1047997Y108001D01*
Y111999D01*
X1046998Y112999D01*
X1043999D01*
X1059503Y132999D02*
X1063502D01*
X1061503D01*
Y127001D01*
X1065501D02*
Y132999D01*
X1068501D01*
X1069500Y131999D01*
Y130000D01*
X1068501Y129000D01*
X1065501D01*
X1071500Y127001D02*
X1073499D01*
X1072499D01*
Y132999D01*
X1071500Y131999D01*
X1080497Y127001D02*
X1076498D01*
X1080497Y131000D01*
Y131999D01*
X1079497Y132999D01*
X1077498D01*
X1076498Y131999D01*
X1066001Y111999D02*
X1065002Y112999D01*
X1063002D01*
X1062003Y111999D01*
Y108001D01*
X1063002Y107001D01*
X1065002D01*
X1066001Y108001D01*
Y110000D01*
X1064002D01*
X1068001Y107001D02*
Y112999D01*
X1071999Y107001D01*
Y112999D01*
X1073999D02*
Y107001D01*
X1076998D01*
X1077997Y108001D01*
Y111999D01*
X1076998Y112999D01*
X1073999D01*
X1090503Y132999D02*
X1094502D01*
X1092502D01*
Y127001D01*
X1096501D02*
Y132999D01*
X1099500D01*
X1100500Y131999D01*
Y130000D01*
X1099500Y129000D01*
X1096501D01*
X1102499Y127001D02*
X1104499D01*
X1103499D01*
Y132999D01*
X1102499Y131999D01*
X1107498Y127001D02*
X1109497D01*
X1108497D01*
Y132999D01*
X1107498Y131999D01*
X1096001Y111999D02*
X1095002Y112999D01*
X1093002D01*
X1092003Y111999D01*
Y108001D01*
X1093002Y107001D01*
X1095002D01*
X1096001Y108001D01*
Y110000D01*
X1094002D01*
X1098001Y107001D02*
Y112999D01*
X1101999Y107001D01*
Y112999D01*
X1103999D02*
Y107001D01*
X1106998D01*
X1107997Y108001D01*
Y111999D01*
X1106998Y112999D01*
X1103999D01*
X1119503Y132999D02*
X1123502D01*
X1121503D01*
Y127001D01*
X1125502D02*
Y132999D01*
X1128500D01*
X1129500Y131999D01*
Y130000D01*
X1128500Y129000D01*
X1125502D01*
X1131499Y127001D02*
X1133499D01*
X1132499D01*
Y132999D01*
X1131499Y131999D01*
X1136498D02*
X1137498Y132999D01*
X1139497D01*
X1140497Y131999D01*
Y128001D01*
X1139497Y127001D01*
X1137498D01*
X1136498Y128001D01*
Y131999D01*
X1126001Y111999D02*
X1125002Y112999D01*
X1123002D01*
X1122003Y111999D01*
Y108001D01*
X1123002Y107001D01*
X1125002D01*
X1126001Y108001D01*
Y110000D01*
X1124002D01*
X1128001Y107001D02*
Y112999D01*
X1131999Y107001D01*
Y112999D01*
X1133999D02*
Y107001D01*
X1136998D01*
X1137997Y108001D01*
Y111999D01*
X1136998Y112999D01*
X1133999D01*
X1152003Y132999D02*
X1156001D01*
X1154002D01*
Y127001D01*
X1158001D02*
Y132999D01*
X1161000D01*
X1161999Y131999D01*
Y130000D01*
X1161000Y129000D01*
X1158001D01*
X1163999Y128001D02*
X1164998Y127001D01*
X1166998D01*
X1167997Y128001D01*
Y131999D01*
X1166998Y132999D01*
X1164998D01*
X1163999Y131999D01*
Y131000D01*
X1164998Y130000D01*
X1167997D01*
X1156001Y111999D02*
X1155002Y112999D01*
X1153002D01*
X1152003Y111999D01*
Y108001D01*
X1153002Y107001D01*
X1155002D01*
X1156001Y108001D01*
Y110000D01*
X1154002D01*
X1158001Y107001D02*
Y112999D01*
X1161999Y107001D01*
Y112999D01*
X1163999D02*
Y107001D01*
X1166998D01*
X1167997Y108001D01*
Y111999D01*
X1166998Y112999D01*
X1163999D01*
X1182003Y132999D02*
X1186001D01*
X1184002D01*
Y127001D01*
X1188001D02*
Y132999D01*
X1191000D01*
X1191999Y131999D01*
Y130000D01*
X1191000Y129000D01*
X1188001D01*
X1193999Y131999D02*
X1194998Y132999D01*
X1196998D01*
X1197997Y131999D01*
Y131000D01*
X1196998Y130000D01*
X1197997Y129000D01*
Y128001D01*
X1196998Y127001D01*
X1194998D01*
X1193999Y128001D01*
Y129000D01*
X1194998Y130000D01*
X1193999Y131000D01*
Y131999D01*
X1194998Y130000D02*
X1196998D01*
X1186001Y111999D02*
X1185002Y112999D01*
X1183002D01*
X1182003Y111999D01*
Y108001D01*
X1183002Y107001D01*
X1185002D01*
X1186001Y108001D01*
Y110000D01*
X1184002D01*
X1188001Y107001D02*
Y112999D01*
X1191999Y107001D01*
Y112999D01*
X1193999D02*
Y107001D01*
X1196998D01*
X1197997Y108001D01*
Y111999D01*
X1196998Y112999D01*
X1193999D01*
X1212003Y132999D02*
X1216001D01*
X1214002D01*
Y127001D01*
X1218001D02*
Y132999D01*
X1221000D01*
X1221999Y131999D01*
Y130000D01*
X1221000Y129000D01*
X1218001D01*
X1223999Y132999D02*
X1227997D01*
Y131999D01*
X1223999Y128001D01*
Y127001D01*
X1212003Y112999D02*
Y107001D01*
X1215002D01*
X1216001Y108001D01*
Y111999D01*
X1215002Y112999D01*
X1212003D01*
X1218001D02*
Y107001D01*
X1221000D01*
X1221999Y108001D01*
Y109000D01*
X1221000Y110000D01*
X1218001D01*
X1221000D01*
X1221999Y111000D01*
Y111999D01*
X1221000Y112999D01*
X1218001D01*
X1227997Y111999D02*
X1226998Y112999D01*
X1224998D01*
X1223999Y111999D01*
Y108001D01*
X1224998Y107001D01*
X1226998D01*
X1227997Y108001D01*
Y110000D01*
X1225998D01*
X1242003Y132999D02*
X1246001D01*
X1244002D01*
Y127001D01*
X1248001D02*
Y132999D01*
X1251000D01*
X1251999Y131999D01*
Y130000D01*
X1251000Y129000D01*
X1248001D01*
X1257997Y132999D02*
X1255998Y131999D01*
X1253999Y130000D01*
Y128001D01*
X1254998Y127001D01*
X1256998D01*
X1257997Y128001D01*
Y129000D01*
X1256998Y130000D01*
X1253999D01*
X1242003Y107001D02*
Y111000D01*
X1244002Y112999D01*
X1246001Y111000D01*
Y107001D01*
Y110000D01*
X1242003D01*
X1248001Y112999D02*
X1251999D01*
X1250000D01*
Y107001D01*
X1254998D02*
Y112999D01*
X1256998D02*
Y107001D01*
X1253999Y111000D02*
X1256998D01*
X1257997D01*
X1253999Y109000D02*
X1257997D01*
X1272003Y132999D02*
X1276001D01*
X1274002D01*
Y127001D01*
X1278001D02*
Y132999D01*
X1281000D01*
X1281999Y131999D01*
Y130000D01*
X1281000Y129000D01*
X1278001D01*
X1287997Y132999D02*
X1283999D01*
Y130000D01*
X1285998Y131000D01*
X1286998D01*
X1287997Y130000D01*
Y128001D01*
X1286998Y127001D01*
X1284998D01*
X1283999Y128001D01*
X1272003Y112999D02*
Y107001D01*
Y110000D01*
X1276001D01*
Y112999D01*
Y107001D01*
X1278001Y112999D02*
X1281999D01*
X1280000D01*
Y107001D01*
X1284998D02*
Y112999D01*
X1286998D02*
Y107001D01*
X1283999Y111000D02*
X1286998D01*
X1287997D01*
X1283999Y109000D02*
X1287997D01*
X1302003Y132999D02*
X1306001D01*
X1304002D01*
Y127001D01*
X1308001D02*
Y132999D01*
X1311000D01*
X1311999Y131999D01*
Y130000D01*
X1311000Y129000D01*
X1308001D01*
X1316998Y127001D02*
Y132999D01*
X1313999Y130000D01*
X1317997D01*
X1299004Y107001D02*
Y112999D01*
X1302003D01*
X1303002Y111999D01*
Y110000D01*
X1302003Y109000D01*
X1299004D01*
X1301003D02*
X1303002Y107001D01*
X1309000Y111999D02*
X1308001Y112999D01*
X1306001D01*
X1305002Y111999D01*
Y111000D01*
X1306001Y110000D01*
X1308001D01*
X1309000Y109000D01*
Y108001D01*
X1308001Y107001D01*
X1306001D01*
X1305002Y108001D01*
X1311000Y112999D02*
X1314998D01*
X1312999D01*
Y107001D01*
X1317997D02*
Y112999D01*
X1319997D02*
Y107001D01*
X1316998Y111000D02*
X1319997D01*
X1320996D01*
X1316998Y109000D02*
X1320996D01*
X1332003Y132999D02*
X1336001D01*
X1334002D01*
Y127001D01*
X1338001D02*
Y132999D01*
X1341000D01*
X1341999Y131999D01*
Y130000D01*
X1341000Y129000D01*
X1338001D01*
X1343999Y131999D02*
X1344998Y132999D01*
X1346998D01*
X1347997Y131999D01*
Y131000D01*
X1346998Y130000D01*
X1345998D01*
X1346998D01*
X1347997Y129000D01*
Y128001D01*
X1346998Y127001D01*
X1344998D01*
X1343999Y128001D01*
X1332003Y112999D02*
Y107001D01*
X1336001D01*
X1338001D02*
Y112999D01*
X1340000Y111000D01*
X1341999Y112999D01*
Y107001D01*
X1344998D02*
Y112999D01*
X1346998D02*
Y107001D01*
X1343999Y111000D02*
X1346998D01*
X1347997D01*
X1343999Y109000D02*
X1347997D01*
X105600Y620100D02*
Y626098D01*
X108599D01*
X109599Y625098D01*
Y623099D01*
X108599Y622099D01*
X105600D01*
X111598Y625098D02*
X112598Y626098D01*
X114597D01*
X115597Y625098D01*
Y624099D01*
X114597Y623099D01*
X113597D01*
X114597D01*
X115597Y622099D01*
Y621100D01*
X114597Y620100D01*
X112598D01*
X111598Y621100D01*
X117596Y625098D02*
X118596Y626098D01*
X120595D01*
X121595Y625098D01*
Y621100D01*
X120595Y620100D01*
X118596D01*
X117596Y621100D01*
Y625098D01*
X955600Y620100D02*
Y626098D01*
X958599D01*
X959599Y625098D01*
Y623099D01*
X958599Y622099D01*
X955600D01*
X961598Y625098D02*
X962598Y626098D01*
X964597D01*
X965597Y625098D01*
Y624099D01*
X964597Y623099D01*
X963597D01*
X964597D01*
X965597Y622099D01*
Y621100D01*
X964597Y620100D01*
X962598D01*
X961598Y621100D01*
X967596Y620100D02*
X969596D01*
X968596D01*
Y626098D01*
X967596Y625098D01*
X105600Y360100D02*
Y366098D01*
X108599D01*
X109599Y365098D01*
Y363099D01*
X108599Y362099D01*
X105600D01*
X111598Y365098D02*
X112598Y366098D01*
X114597D01*
X115597Y365098D01*
Y364099D01*
X114597Y363099D01*
X113597D01*
X114597D01*
X115597Y362099D01*
Y361100D01*
X114597Y360100D01*
X112598D01*
X111598Y361100D01*
X121595Y360100D02*
X117596D01*
X121595Y364099D01*
Y365098D01*
X120595Y366098D01*
X118596D01*
X117596Y365098D01*
X937600Y291200D02*
Y297198D01*
X940599D01*
X941599Y296198D01*
Y294199D01*
X940599Y293199D01*
X937600D01*
X939599D02*
X941599Y291200D01*
X943598D02*
X945597D01*
X944598D01*
Y297198D01*
X943598Y296198D01*
X948596Y291200D02*
X950596D01*
X949596D01*
Y297198D01*
X948596Y296198D01*
X953595D02*
X954595Y297198D01*
X956594D01*
X957594Y296198D01*
Y292200D01*
X956594Y291200D01*
X954595D01*
X953595Y292200D01*
Y296198D01*
X967600Y291200D02*
Y297198D01*
X970599D01*
X971599Y296198D01*
Y294199D01*
X970599Y293199D01*
X967600D01*
X969599D02*
X971599Y291200D01*
X973598D02*
X975597D01*
X974598D01*
Y297198D01*
X973598Y296198D01*
X978596Y291200D02*
X980596D01*
X979596D01*
Y297198D01*
X978596Y296198D01*
X986594Y291200D02*
Y297198D01*
X983595Y294199D01*
X987593D01*
X907600Y291200D02*
Y297198D01*
X910599D01*
X911599Y296198D01*
Y294199D01*
X910599Y293199D01*
X907600D01*
X909599D02*
X911599Y291200D01*
X913598D02*
X915597D01*
X914598D01*
Y297198D01*
X913598Y296198D01*
X918596D02*
X919596Y297198D01*
X921595D01*
X922595Y296198D01*
Y292200D01*
X921595Y291200D01*
X919596D01*
X918596Y292200D01*
Y296198D01*
X928593Y297198D02*
X926594Y296198D01*
X924594Y294199D01*
Y292200D01*
X925594Y291200D01*
X927594D01*
X928593Y292200D01*
Y293199D01*
X927594Y294199D01*
X924594D01*
X857600Y291200D02*
Y297198D01*
X860599D01*
X861599Y296198D01*
Y294199D01*
X860599Y293199D01*
X857600D01*
X859599D02*
X861599Y291200D01*
X863598D02*
X865597D01*
X864598D01*
Y297198D01*
X863598Y296198D01*
X868596D02*
X869596Y297198D01*
X871595D01*
X872595Y296198D01*
Y292200D01*
X871595Y291200D01*
X869596D01*
X868596Y292200D01*
Y296198D01*
X874594D02*
X875594Y297198D01*
X877594D01*
X878593Y296198D01*
Y292200D01*
X877594Y291200D01*
X875594D01*
X874594Y292200D01*
Y296198D01*
X957600Y291200D02*
Y297198D01*
X960599D01*
X961599Y296198D01*
Y294199D01*
X960599Y293199D01*
X957600D01*
X959599D02*
X961599Y291200D01*
X963598D02*
X965597D01*
X964598D01*
Y297198D01*
X963598Y296198D01*
X968596Y291200D02*
X970596D01*
X969596D01*
Y297198D01*
X968596Y296198D01*
X977594Y291200D02*
X973595D01*
X977594Y295199D01*
Y296198D01*
X976594Y297198D01*
X974594D01*
X973595Y296198D01*
X817600Y291200D02*
Y297198D01*
X820599D01*
X821599Y296198D01*
Y294199D01*
X820599Y293199D01*
X817600D01*
X819599D02*
X821599Y291200D01*
X823598Y292200D02*
X824598Y291200D01*
X826597D01*
X827597Y292200D01*
Y296198D01*
X826597Y297198D01*
X824598D01*
X823598Y296198D01*
Y295199D01*
X824598Y294199D01*
X827597D01*
X833595Y297198D02*
X831596Y296198D01*
X829596Y294199D01*
Y292200D01*
X830596Y291200D01*
X832595D01*
X833595Y292200D01*
Y293199D01*
X832595Y294199D01*
X829596D01*
X837600Y291200D02*
Y297198D01*
X840599D01*
X841599Y296198D01*
Y294199D01*
X840599Y293199D01*
X837600D01*
X839599D02*
X841599Y291200D01*
X843598Y292200D02*
X844598Y291200D01*
X846597D01*
X847597Y292200D01*
Y296198D01*
X846597Y297198D01*
X844598D01*
X843598Y296198D01*
Y295199D01*
X844598Y294199D01*
X847597D01*
X849596Y296198D02*
X850596Y297198D01*
X852595D01*
X853595Y296198D01*
Y295199D01*
X852595Y294199D01*
X853595Y293199D01*
Y292200D01*
X852595Y291200D01*
X850596D01*
X849596Y292200D01*
Y293199D01*
X850596Y294199D01*
X849596Y295199D01*
Y296198D01*
X850596Y294199D02*
X852595D01*
X887600Y291200D02*
Y297198D01*
X890599D01*
X891599Y296198D01*
Y294199D01*
X890599Y293199D01*
X887600D01*
X889599D02*
X891599Y291200D01*
X893598D02*
X895597D01*
X894598D01*
Y297198D01*
X893598Y296198D01*
X898596D02*
X899596Y297198D01*
X901595D01*
X902595Y296198D01*
Y292200D01*
X901595Y291200D01*
X899596D01*
X898596Y292200D01*
Y296198D01*
X907594Y291200D02*
Y297198D01*
X904595Y294199D01*
X908593D01*
X867600Y291200D02*
Y297198D01*
X870599D01*
X871599Y296198D01*
Y294199D01*
X870599Y293199D01*
X867600D01*
X869599D02*
X871599Y291200D01*
X873598D02*
X875597D01*
X874598D01*
Y297198D01*
X873598Y296198D01*
X878596D02*
X879596Y297198D01*
X881596D01*
X882595Y296198D01*
Y292200D01*
X881596Y291200D01*
X879596D01*
X878596Y292200D01*
Y296198D01*
X888593Y291200D02*
X884595D01*
X888593Y295199D01*
Y296198D01*
X887593Y297198D01*
X885594D01*
X884595Y296198D01*
X797600Y291200D02*
Y297198D01*
X800599D01*
X801599Y296198D01*
Y294199D01*
X800599Y293199D01*
X797600D01*
X799599D02*
X801599Y291200D01*
X803598Y292200D02*
X804598Y291200D01*
X806597D01*
X807597Y292200D01*
Y296198D01*
X806597Y297198D01*
X804598D01*
X803598Y296198D01*
Y295199D01*
X804598Y294199D01*
X807597D01*
X812595Y291200D02*
Y297198D01*
X809596Y294199D01*
X813595D01*
X917600Y291200D02*
Y297198D01*
X920599D01*
X921599Y296198D01*
Y294199D01*
X920599Y293199D01*
X917600D01*
X919599D02*
X921599Y291200D01*
X923598D02*
X925597D01*
X924598D01*
Y297198D01*
X923598Y296198D01*
X928596D02*
X929596Y297198D01*
X931596D01*
X932595Y296198D01*
Y292200D01*
X931596Y291200D01*
X929596D01*
X928596Y292200D01*
Y296198D01*
X934595D02*
X935594Y297198D01*
X937593D01*
X938593Y296198D01*
Y295199D01*
X937593Y294199D01*
X938593Y293199D01*
Y292200D01*
X937593Y291200D01*
X935594D01*
X934595Y292200D01*
Y293199D01*
X935594Y294199D01*
X934595Y295199D01*
Y296198D01*
X935594Y294199D02*
X937593D01*
D13*
X181184Y577400D02*
X178684D01*
Y578650D01*
X179101Y579066D01*
X179934D01*
X180350Y578650D01*
Y577400D01*
Y578233D02*
X181184Y579066D01*
X178684Y581565D02*
Y579899D01*
X179934D01*
X179517Y580732D01*
Y581149D01*
X179934Y581565D01*
X180767D01*
X181184Y581149D01*
Y580316D01*
X180767Y579899D01*
X179101Y582398D02*
X178684Y582815D01*
Y583648D01*
X179101Y584064D01*
X180767D01*
X181184Y583648D01*
Y582815D01*
X180767Y582398D01*
X179101D01*
X181600Y584898D02*
Y586564D01*
X179101Y589063D02*
X178684Y588646D01*
Y587813D01*
X179101Y587397D01*
X180767D01*
X181184Y587813D01*
Y588646D01*
X180767Y589063D01*
X179934D01*
Y588230D01*
X181184Y589896D02*
Y590729D01*
Y590312D01*
X178684D01*
X179101Y589896D01*
X201041Y577400D02*
X198542D01*
Y578650D01*
X198959Y579066D01*
X199792D01*
X200208Y578650D01*
Y577400D01*
Y578233D02*
X201041Y579066D01*
X198959Y579899D02*
X198542Y580316D01*
Y581149D01*
X198959Y581565D01*
X199375D01*
X199792Y581149D01*
Y580732D01*
Y581149D01*
X200208Y581565D01*
X200625D01*
X201041Y581149D01*
Y580316D01*
X200625Y579899D01*
X201041Y584064D02*
Y582398D01*
X199375Y584064D01*
X198959D01*
X198542Y583648D01*
Y582815D01*
X198959Y582398D01*
X201458Y584898D02*
Y586564D01*
X198959Y589063D02*
X198542Y588646D01*
Y587813D01*
X198959Y587397D01*
X200625D01*
X201041Y587813D01*
Y588646D01*
X200625Y589063D01*
X199792D01*
Y588230D01*
X201041Y589896D02*
Y590729D01*
Y590312D01*
X198542D01*
X198959Y589896D01*
X211041Y577400D02*
X208542D01*
Y578650D01*
X208959Y579066D01*
X209792D01*
X210208Y578650D01*
Y577400D01*
Y578233D02*
X211041Y579066D01*
X208959Y579899D02*
X208542Y580316D01*
Y581149D01*
X208959Y581565D01*
X209375D01*
X209792Y581149D01*
Y580732D01*
Y581149D01*
X210208Y581565D01*
X210625D01*
X211041Y581149D01*
Y580316D01*
X210625Y579899D01*
X211041Y582398D02*
Y583231D01*
Y582815D01*
X208542D01*
X208959Y582398D01*
X211458Y584481D02*
Y586147D01*
X208959Y588646D02*
X208542Y588230D01*
Y587397D01*
X208959Y586980D01*
X210625D01*
X211041Y587397D01*
Y588230D01*
X210625Y588646D01*
X209792D01*
Y587813D01*
X211041Y589479D02*
Y590312D01*
Y589896D01*
X208542D01*
X208959Y589479D01*
X221041Y577400D02*
X218542D01*
Y578650D01*
X218959Y579066D01*
X219792D01*
X220208Y578650D01*
Y577400D01*
Y578233D02*
X221041Y579066D01*
X218959Y579899D02*
X218542Y580316D01*
Y581149D01*
X218959Y581565D01*
X219375D01*
X219792Y581149D01*
Y580732D01*
Y581149D01*
X220208Y581565D01*
X220625D01*
X221041Y581149D01*
Y580316D01*
X220625Y579899D01*
X218959Y582398D02*
X218542Y582815D01*
Y583648D01*
X218959Y584064D01*
X220625D01*
X221041Y583648D01*
Y582815D01*
X220625Y582398D01*
X218959D01*
X221458Y584898D02*
Y586564D01*
X218959Y589063D02*
X218542Y588646D01*
Y587813D01*
X218959Y587397D01*
X220625D01*
X221041Y587813D01*
Y588646D01*
X220625Y589063D01*
X219792D01*
Y588230D01*
X221041Y589896D02*
Y590729D01*
Y590312D01*
X218542D01*
X218959Y589896D01*
X231041Y577400D02*
X228542D01*
Y578650D01*
X228959Y579066D01*
X229792D01*
X230208Y578650D01*
Y577400D01*
Y578233D02*
X231041Y579066D01*
Y581565D02*
Y579899D01*
X229375Y581565D01*
X228959D01*
X228542Y581149D01*
Y580316D01*
X228959Y579899D01*
X230625Y582398D02*
X231041Y582815D01*
Y583648D01*
X230625Y584064D01*
X228959D01*
X228542Y583648D01*
Y582815D01*
X228959Y582398D01*
X229375D01*
X229792Y582815D01*
Y584064D01*
X231458Y584898D02*
Y586564D01*
X228959Y589063D02*
X228542Y588646D01*
Y587813D01*
X228959Y587397D01*
X230625D01*
X231041Y587813D01*
Y588646D01*
X230625Y589063D01*
X229792D01*
Y588230D01*
X231041Y589896D02*
Y590729D01*
Y590312D01*
X228542D01*
X228959Y589896D01*
X241041Y577400D02*
X238542D01*
Y578650D01*
X238959Y579066D01*
X239792D01*
X240208Y578650D01*
Y577400D01*
Y578233D02*
X241041Y579066D01*
Y581565D02*
Y579899D01*
X239375Y581565D01*
X238959D01*
X238542Y581149D01*
Y580316D01*
X238959Y579899D01*
Y582398D02*
X238542Y582815D01*
Y583648D01*
X238959Y584064D01*
X239375D01*
X239792Y583648D01*
X240208Y584064D01*
X240625D01*
X241041Y583648D01*
Y582815D01*
X240625Y582398D01*
X240208D01*
X239792Y582815D01*
X239375Y582398D01*
X238959D01*
X239792Y582815D02*
Y583648D01*
X241458Y584898D02*
Y586564D01*
X238959Y589063D02*
X238542Y588646D01*
Y587813D01*
X238959Y587397D01*
X240625D01*
X241041Y587813D01*
Y588646D01*
X240625Y589063D01*
X239792D01*
Y588230D01*
X241041Y589896D02*
Y590729D01*
Y590312D01*
X238542D01*
X238959Y589896D01*
X251041Y577400D02*
X248542D01*
Y578650D01*
X248959Y579066D01*
X249792D01*
X250208Y578650D01*
Y577400D01*
Y578233D02*
X251041Y579066D01*
Y581565D02*
Y579899D01*
X249375Y581565D01*
X248959D01*
X248542Y581149D01*
Y580316D01*
X248959Y579899D01*
X248542Y582398D02*
Y584064D01*
X248959D01*
X250625Y582398D01*
X251041D01*
X251458Y584898D02*
Y586564D01*
X248959Y589063D02*
X248542Y588646D01*
Y587813D01*
X248959Y587397D01*
X250625D01*
X251041Y587813D01*
Y588646D01*
X250625Y589063D01*
X249792D01*
Y588230D01*
X251041Y589896D02*
Y590729D01*
Y590312D01*
X248542D01*
X248959Y589896D01*
X261041Y577400D02*
X258542D01*
Y578650D01*
X258959Y579066D01*
X259792D01*
X260208Y578650D01*
Y577400D01*
Y578233D02*
X261041Y579066D01*
Y581565D02*
Y579899D01*
X259375Y581565D01*
X258959D01*
X258542Y581149D01*
Y580316D01*
X258959Y579899D01*
X258542Y584064D02*
X258959Y583231D01*
X259792Y582398D01*
X260625D01*
X261041Y582815D01*
Y583648D01*
X260625Y584064D01*
X260208D01*
X259792Y583648D01*
Y582398D01*
X261458Y584898D02*
Y586564D01*
X258959Y589063D02*
X258542Y588646D01*
Y587813D01*
X258959Y587397D01*
X260625D01*
X261041Y587813D01*
Y588646D01*
X260625Y589063D01*
X259792D01*
Y588230D01*
X261041Y589896D02*
Y590729D01*
Y590312D01*
X258542D01*
X258959Y589896D01*
X271041Y577400D02*
X268542D01*
Y578650D01*
X268959Y579066D01*
X269792D01*
X270208Y578650D01*
Y577400D01*
Y578233D02*
X271041Y579066D01*
Y581565D02*
Y579899D01*
X269375Y581565D01*
X268959D01*
X268542Y581149D01*
Y580316D01*
X268959Y579899D01*
X268542Y584064D02*
Y582398D01*
X269792D01*
X269375Y583231D01*
Y583648D01*
X269792Y584064D01*
X270625D01*
X271041Y583648D01*
Y582815D01*
X270625Y582398D01*
X271458Y584898D02*
Y586564D01*
X268959Y589063D02*
X268542Y588646D01*
Y587813D01*
X268959Y587397D01*
X270625D01*
X271041Y587813D01*
Y588646D01*
X270625Y589063D01*
X269792D01*
Y588230D01*
X271041Y589896D02*
Y590729D01*
Y590312D01*
X268542D01*
X268959Y589896D01*
X281041Y577400D02*
X278542D01*
Y578650D01*
X278959Y579066D01*
X279792D01*
X280208Y578650D01*
Y577400D01*
Y578233D02*
X281041Y579066D01*
Y579899D02*
Y580732D01*
Y580316D01*
X278542D01*
X278959Y579899D01*
X278542Y583648D02*
X278959Y582815D01*
X279792Y581982D01*
X280625D01*
X281041Y582398D01*
Y583231D01*
X280625Y583648D01*
X280208D01*
X279792Y583231D01*
Y581982D01*
X281458Y584481D02*
Y586147D01*
X278959Y588646D02*
X278542Y588230D01*
Y587397D01*
X278959Y586980D01*
X280625D01*
X281041Y587397D01*
Y588230D01*
X280625Y588646D01*
X279792D01*
Y587813D01*
X281041Y589479D02*
Y590312D01*
Y589896D01*
X278542D01*
X278959Y589479D01*
X291041Y577400D02*
X288542D01*
Y578650D01*
X288959Y579066D01*
X289792D01*
X290208Y578650D01*
Y577400D01*
Y578233D02*
X291041Y579066D01*
Y579899D02*
Y580732D01*
Y580316D01*
X288542D01*
X288959Y579899D01*
X288542Y583648D02*
Y581982D01*
X289792D01*
X289375Y582815D01*
Y583231D01*
X289792Y583648D01*
X290625D01*
X291041Y583231D01*
Y582398D01*
X290625Y581982D01*
X291458Y584481D02*
Y586147D01*
X288959Y588646D02*
X288542Y588230D01*
Y587397D01*
X288959Y586980D01*
X290625D01*
X291041Y587397D01*
Y588230D01*
X290625Y588646D01*
X289792D01*
Y587813D01*
X291041Y589479D02*
Y590312D01*
Y589896D01*
X288542D01*
X288959Y589479D01*
X301041Y577400D02*
X298542D01*
Y578650D01*
X298959Y579066D01*
X299792D01*
X300208Y578650D01*
Y577400D01*
Y578233D02*
X301041Y579066D01*
Y579899D02*
Y580732D01*
Y580316D01*
X298542D01*
X298959Y579899D01*
X301041Y583231D02*
X298542D01*
X299792Y581982D01*
Y583648D01*
X301458Y584481D02*
Y586147D01*
X298959Y588646D02*
X298542Y588230D01*
Y587397D01*
X298959Y586980D01*
X300625D01*
X301041Y587397D01*
Y588230D01*
X300625Y588646D01*
X299792D01*
Y587813D01*
X301041Y589479D02*
Y590312D01*
Y589896D01*
X298542D01*
X298959Y589479D01*
X311041Y577400D02*
X308542D01*
Y578650D01*
X308959Y579066D01*
X309792D01*
X310208Y578650D01*
Y577400D01*
Y578233D02*
X311041Y579066D01*
Y579899D02*
Y580732D01*
Y580316D01*
X308542D01*
X308959Y579899D01*
Y581982D02*
X308542Y582398D01*
Y583231D01*
X308959Y583648D01*
X309375D01*
X309792Y583231D01*
Y582815D01*
Y583231D01*
X310208Y583648D01*
X310625D01*
X311041Y583231D01*
Y582398D01*
X310625Y581982D01*
X311458Y584481D02*
Y586147D01*
X308959Y588646D02*
X308542Y588230D01*
Y587397D01*
X308959Y586980D01*
X310625D01*
X311041Y587397D01*
Y588230D01*
X310625Y588646D01*
X309792D01*
Y587813D01*
X311041Y589479D02*
Y590312D01*
Y589896D01*
X308542D01*
X308959Y589479D01*
X321041Y577400D02*
X318542D01*
Y578650D01*
X318959Y579066D01*
X319792D01*
X320208Y578650D01*
Y577400D01*
Y578233D02*
X321041Y579066D01*
Y579899D02*
Y580732D01*
Y580316D01*
X318542D01*
X318959Y579899D01*
X321041Y583648D02*
Y581982D01*
X319375Y583648D01*
X318959D01*
X318542Y583231D01*
Y582398D01*
X318959Y581982D01*
X321458Y584481D02*
Y586147D01*
X318959Y588646D02*
X318542Y588230D01*
Y587397D01*
X318959Y586980D01*
X320625D01*
X321041Y587397D01*
Y588230D01*
X320625Y588646D01*
X319792D01*
Y587813D01*
X321041Y589479D02*
Y590312D01*
Y589896D01*
X318542D01*
X318959Y589479D01*
X331041Y577400D02*
X328542D01*
Y578650D01*
X328959Y579066D01*
X329792D01*
X330208Y578650D01*
Y577400D01*
Y578233D02*
X331041Y579066D01*
Y579899D02*
Y580732D01*
Y580316D01*
X328542D01*
X328959Y579899D01*
X331041Y581982D02*
Y582815D01*
Y582398D01*
X328542D01*
X328959Y581982D01*
X331458Y584064D02*
Y585731D01*
X328959Y588230D02*
X328542Y587813D01*
Y586980D01*
X328959Y586564D01*
X330625D01*
X331041Y586980D01*
Y587813D01*
X330625Y588230D01*
X329792D01*
Y587397D01*
X331041Y589063D02*
Y589896D01*
Y589479D01*
X328542D01*
X328959Y589063D01*
X341041Y577400D02*
X338542D01*
Y578650D01*
X338959Y579066D01*
X339792D01*
X340208Y578650D01*
Y577400D01*
Y578233D02*
X341041Y579066D01*
Y579899D02*
Y580732D01*
Y580316D01*
X338542D01*
X338959Y579899D01*
Y581982D02*
X338542Y582398D01*
Y583231D01*
X338959Y583648D01*
X340625D01*
X341041Y583231D01*
Y582398D01*
X340625Y581982D01*
X338959D01*
X341458Y584481D02*
Y586147D01*
X338959Y588646D02*
X338542Y588230D01*
Y587397D01*
X338959Y586980D01*
X340625D01*
X341041Y587397D01*
Y588230D01*
X340625Y588646D01*
X339792D01*
Y587813D01*
X341041Y589479D02*
Y590312D01*
Y589896D01*
X338542D01*
X338959Y589479D01*
X351041Y577400D02*
X348542D01*
Y578650D01*
X348959Y579066D01*
X349792D01*
X350208Y578650D01*
Y577400D01*
Y578233D02*
X351041Y579066D01*
X350625Y579899D02*
X351041Y580316D01*
Y581149D01*
X350625Y581565D01*
X348959D01*
X348542Y581149D01*
Y580316D01*
X348959Y579899D01*
X349375D01*
X349792Y580316D01*
Y581565D01*
X351458Y582398D02*
Y584064D01*
X348959Y586564D02*
X348542Y586147D01*
Y585314D01*
X348959Y584898D01*
X350625D01*
X351041Y585314D01*
Y586147D01*
X350625Y586564D01*
X349792D01*
Y585731D01*
X351041Y587397D02*
Y588230D01*
Y587813D01*
X348542D01*
X348959Y587397D01*
X173959Y579066D02*
X173542Y578650D01*
Y577816D01*
X173959Y577400D01*
X175625D01*
X176041Y577816D01*
Y578650D01*
X175625Y579066D01*
X176041Y579899D02*
Y580732D01*
Y580316D01*
X173542D01*
X173959Y579899D01*
X173542Y581982D02*
Y583648D01*
X173959D01*
X175625Y581982D01*
X176041D01*
X176458Y584481D02*
Y586147D01*
X173959Y588646D02*
X173542Y588230D01*
Y587397D01*
X173959Y586980D01*
X175625D01*
X176041Y587397D01*
Y588230D01*
X175625Y588646D01*
X174792D01*
Y587813D01*
X176041Y589479D02*
Y590312D01*
Y589896D01*
X173542D01*
X173959Y589479D01*
X193959Y579066D02*
X193542Y578650D01*
Y577816D01*
X193959Y577400D01*
X195625D01*
X196041Y577816D01*
Y578650D01*
X195625Y579066D01*
X196041Y579899D02*
Y580732D01*
Y580316D01*
X193542D01*
X193959Y579899D01*
X193542Y583648D02*
X193959Y582815D01*
X194792Y581982D01*
X195625D01*
X196041Y582398D01*
Y583231D01*
X195625Y583648D01*
X195208D01*
X194792Y583231D01*
Y581982D01*
X196458Y584481D02*
Y586147D01*
X193959Y588646D02*
X193542Y588230D01*
Y587397D01*
X193959Y586980D01*
X195625D01*
X196041Y587397D01*
Y588230D01*
X195625Y588646D01*
X194792D01*
Y587813D01*
X196041Y589479D02*
Y590312D01*
Y589896D01*
X193542D01*
X193959Y589479D01*
X203959Y579066D02*
X203542Y578650D01*
Y577816D01*
X203959Y577400D01*
X205625D01*
X206041Y577816D01*
Y578650D01*
X205625Y579066D01*
X206041Y579899D02*
Y580732D01*
Y580316D01*
X203542D01*
X203959Y579899D01*
X203542Y583648D02*
Y581982D01*
X204792D01*
X204375Y582815D01*
Y583231D01*
X204792Y583648D01*
X205625D01*
X206041Y583231D01*
Y582398D01*
X205625Y581982D01*
X206458Y584481D02*
Y586147D01*
X203959Y588646D02*
X203542Y588230D01*
Y587397D01*
X203959Y586980D01*
X205625D01*
X206041Y587397D01*
Y588230D01*
X205625Y588646D01*
X204792D01*
Y587813D01*
X206041Y589479D02*
Y590312D01*
Y589896D01*
X203542D01*
X203959Y589479D01*
X213959Y579066D02*
X213542Y578650D01*
Y577816D01*
X213959Y577400D01*
X215625D01*
X216041Y577816D01*
Y578650D01*
X215625Y579066D01*
X216041Y579899D02*
Y580732D01*
Y580316D01*
X213542D01*
X213959Y579899D01*
X216041Y583231D02*
X213542D01*
X214792Y581982D01*
Y583648D01*
X216458Y584481D02*
Y586147D01*
X213959Y588646D02*
X213542Y588230D01*
Y587397D01*
X213959Y586980D01*
X215625D01*
X216041Y587397D01*
Y588230D01*
X215625Y588646D01*
X214792D01*
Y587813D01*
X216041Y589479D02*
Y590312D01*
Y589896D01*
X213542D01*
X213959Y589479D01*
X223959Y579066D02*
X223542Y578650D01*
Y577816D01*
X223959Y577400D01*
X225625D01*
X226041Y577816D01*
Y578650D01*
X225625Y579066D01*
X226041Y579899D02*
Y580732D01*
Y580316D01*
X223542D01*
X223959Y579899D01*
Y581982D02*
X223542Y582398D01*
Y583231D01*
X223959Y583648D01*
X224375D01*
X224792Y583231D01*
Y582815D01*
Y583231D01*
X225208Y583648D01*
X225625D01*
X226041Y583231D01*
Y582398D01*
X225625Y581982D01*
X226458Y584481D02*
Y586147D01*
X223959Y588646D02*
X223542Y588230D01*
Y587397D01*
X223959Y586980D01*
X225625D01*
X226041Y587397D01*
Y588230D01*
X225625Y588646D01*
X224792D01*
Y587813D01*
X226041Y589479D02*
Y590312D01*
Y589896D01*
X223542D01*
X223959Y589479D01*
X233959Y579066D02*
X233542Y578650D01*
Y577816D01*
X233959Y577400D01*
X235625D01*
X236041Y577816D01*
Y578650D01*
X235625Y579066D01*
X236041Y579899D02*
Y580732D01*
Y580316D01*
X233542D01*
X233959Y579899D01*
X236041Y583648D02*
Y581982D01*
X234375Y583648D01*
X233959D01*
X233542Y583231D01*
Y582398D01*
X233959Y581982D01*
X236458Y584481D02*
Y586147D01*
X233959Y588646D02*
X233542Y588230D01*
Y587397D01*
X233959Y586980D01*
X235625D01*
X236041Y587397D01*
Y588230D01*
X235625Y588646D01*
X234792D01*
Y587813D01*
X236041Y589479D02*
Y590312D01*
Y589896D01*
X233542D01*
X233959Y589479D01*
X243959Y579066D02*
X243542Y578650D01*
Y577816D01*
X243959Y577400D01*
X245625D01*
X246041Y577816D01*
Y578650D01*
X245625Y579066D01*
X246041Y579899D02*
Y580732D01*
Y580316D01*
X243542D01*
X243959Y579899D01*
X246041Y581982D02*
Y582815D01*
Y582398D01*
X243542D01*
X243959Y581982D01*
X246458Y584064D02*
Y585731D01*
X243959Y588230D02*
X243542Y587813D01*
Y586980D01*
X243959Y586564D01*
X245625D01*
X246041Y586980D01*
Y587813D01*
X245625Y588230D01*
X244792D01*
Y587397D01*
X246041Y589063D02*
Y589896D01*
Y589479D01*
X243542D01*
X243959Y589063D01*
X253959Y579066D02*
X253542Y578650D01*
Y577816D01*
X253959Y577400D01*
X255625D01*
X256041Y577816D01*
Y578650D01*
X255625Y579066D01*
X256041Y579899D02*
Y580732D01*
Y580316D01*
X253542D01*
X253959Y579899D01*
Y581982D02*
X253542Y582398D01*
Y583231D01*
X253959Y583648D01*
X255625D01*
X256041Y583231D01*
Y582398D01*
X255625Y581982D01*
X253959D01*
X256458Y584481D02*
Y586147D01*
X253959Y588646D02*
X253542Y588230D01*
Y587397D01*
X253959Y586980D01*
X255625D01*
X256041Y587397D01*
Y588230D01*
X255625Y588646D01*
X254792D01*
Y587813D01*
X256041Y589479D02*
Y590312D01*
Y589896D01*
X253542D01*
X253959Y589479D01*
X263959Y579066D02*
X263542Y578650D01*
Y577816D01*
X263959Y577400D01*
X265625D01*
X266041Y577816D01*
Y578650D01*
X265625Y579066D01*
Y579899D02*
X266041Y580316D01*
Y581149D01*
X265625Y581565D01*
X263959D01*
X263542Y581149D01*
Y580316D01*
X263959Y579899D01*
X264375D01*
X264792Y580316D01*
Y581565D01*
X266458Y582398D02*
Y584064D01*
X263959Y586564D02*
X263542Y586147D01*
Y585314D01*
X263959Y584898D01*
X265625D01*
X266041Y585314D01*
Y586147D01*
X265625Y586564D01*
X264792D01*
Y585731D01*
X266041Y587397D02*
Y588230D01*
Y587813D01*
X263542D01*
X263959Y587397D01*
X273959Y579066D02*
X273542Y578650D01*
Y577816D01*
X273959Y577400D01*
X275625D01*
X276041Y577816D01*
Y578650D01*
X275625Y579066D01*
X273959Y579899D02*
X273542Y580316D01*
Y581149D01*
X273959Y581565D01*
X274375D01*
X274792Y581149D01*
X275208Y581565D01*
X275625D01*
X276041Y581149D01*
Y580316D01*
X275625Y579899D01*
X275208D01*
X274792Y580316D01*
X274375Y579899D01*
X273959D01*
X274792Y580316D02*
Y581149D01*
X276458Y582398D02*
Y584064D01*
X273959Y586564D02*
X273542Y586147D01*
Y585314D01*
X273959Y584898D01*
X275625D01*
X276041Y585314D01*
Y586147D01*
X275625Y586564D01*
X274792D01*
Y585731D01*
X276041Y587397D02*
Y588230D01*
Y587813D01*
X273542D01*
X273959Y587397D01*
X283959Y579066D02*
X283542Y578650D01*
Y577816D01*
X283959Y577400D01*
X285625D01*
X286041Y577816D01*
Y578650D01*
X285625Y579066D01*
X283542Y579899D02*
Y581565D01*
X283959D01*
X285625Y579899D01*
X286041D01*
X286458Y582398D02*
Y584064D01*
X283959Y586564D02*
X283542Y586147D01*
Y585314D01*
X283959Y584898D01*
X285625D01*
X286041Y585314D01*
Y586147D01*
X285625Y586564D01*
X284792D01*
Y585731D01*
X286041Y587397D02*
Y588230D01*
Y587813D01*
X283542D01*
X283959Y587397D01*
X293959Y579066D02*
X293542Y578650D01*
Y577816D01*
X293959Y577400D01*
X295625D01*
X296041Y577816D01*
Y578650D01*
X295625Y579066D01*
X293542Y581565D02*
X293959Y580732D01*
X294792Y579899D01*
X295625D01*
X296041Y580316D01*
Y581149D01*
X295625Y581565D01*
X295208D01*
X294792Y581149D01*
Y579899D01*
X296458Y582398D02*
Y584064D01*
X293959Y586564D02*
X293542Y586147D01*
Y585314D01*
X293959Y584898D01*
X295625D01*
X296041Y585314D01*
Y586147D01*
X295625Y586564D01*
X294792D01*
Y585731D01*
X296041Y587397D02*
Y588230D01*
Y587813D01*
X293542D01*
X293959Y587397D01*
X303959Y579066D02*
X303542Y578650D01*
Y577816D01*
X303959Y577400D01*
X305625D01*
X306041Y577816D01*
Y578650D01*
X305625Y579066D01*
X303542Y581565D02*
Y579899D01*
X304792D01*
X304375Y580732D01*
Y581149D01*
X304792Y581565D01*
X305625D01*
X306041Y581149D01*
Y580316D01*
X305625Y579899D01*
X306458Y582398D02*
Y584064D01*
X303959Y586564D02*
X303542Y586147D01*
Y585314D01*
X303959Y584898D01*
X305625D01*
X306041Y585314D01*
Y586147D01*
X305625Y586564D01*
X304792D01*
Y585731D01*
X306041Y587397D02*
Y588230D01*
Y587813D01*
X303542D01*
X303959Y587397D01*
X313959Y579066D02*
X313542Y578650D01*
Y577816D01*
X313959Y577400D01*
X315625D01*
X316041Y577816D01*
Y578650D01*
X315625Y579066D01*
X316041Y581149D02*
X313542D01*
X314792Y579899D01*
Y581565D01*
X316458Y582398D02*
Y584064D01*
X313959Y586564D02*
X313542Y586147D01*
Y585314D01*
X313959Y584898D01*
X315625D01*
X316041Y585314D01*
Y586147D01*
X315625Y586564D01*
X314792D01*
Y585731D01*
X316041Y587397D02*
Y588230D01*
Y587813D01*
X313542D01*
X313959Y587397D01*
X323959Y579066D02*
X323542Y578650D01*
Y577816D01*
X323959Y577400D01*
X325625D01*
X326041Y577816D01*
Y578650D01*
X325625Y579066D01*
X323959Y579899D02*
X323542Y580316D01*
Y581149D01*
X323959Y581565D01*
X324375D01*
X324792Y581149D01*
Y580732D01*
Y581149D01*
X325208Y581565D01*
X325625D01*
X326041Y581149D01*
Y580316D01*
X325625Y579899D01*
X326458Y582398D02*
Y584064D01*
X323959Y586564D02*
X323542Y586147D01*
Y585314D01*
X323959Y584898D01*
X325625D01*
X326041Y585314D01*
Y586147D01*
X325625Y586564D01*
X324792D01*
Y585731D01*
X326041Y587397D02*
Y588230D01*
Y587813D01*
X323542D01*
X323959Y587397D01*
X333959Y579066D02*
X333542Y578650D01*
Y577816D01*
X333959Y577400D01*
X335625D01*
X336041Y577816D01*
Y578650D01*
X335625Y579066D01*
X336041Y581565D02*
Y579899D01*
X334375Y581565D01*
X333959D01*
X333542Y581149D01*
Y580316D01*
X333959Y579899D01*
X336458Y582398D02*
Y584064D01*
X333959Y586564D02*
X333542Y586147D01*
Y585314D01*
X333959Y584898D01*
X335625D01*
X336041Y585314D01*
Y586147D01*
X335625Y586564D01*
X334792D01*
Y585731D01*
X336041Y587397D02*
Y588230D01*
Y587813D01*
X333542D01*
X333959Y587397D01*
X343959Y579066D02*
X343542Y578650D01*
Y577816D01*
X343959Y577400D01*
X345625D01*
X346041Y577816D01*
Y578650D01*
X345625Y579066D01*
X346041Y579899D02*
Y580732D01*
Y580316D01*
X343542D01*
X343959Y579899D01*
X346458Y581982D02*
Y583648D01*
X343959Y586147D02*
X343542Y585731D01*
Y584898D01*
X343959Y584481D01*
X345625D01*
X346041Y584898D01*
Y585731D01*
X345625Y586147D01*
X344792D01*
Y585314D01*
X346041Y586980D02*
Y587813D01*
Y587397D01*
X343542D01*
X343959Y586980D01*
M02*
