M48
;Layer_Color=9474304
;FILE_FORMAT=2:5
INCH,LZ
;TYPE=PLATED
T1F00S00C0.03346
T2F00S00C0.03543
T3F00S00C0.06299
T4F00S00C0.11600
%
T01
X094Y0255
X096
X097
Y0285
X096
X094
X092
X091
X089
X087
X086
X084
X082
X08
Y0255
X082
X084
X086
X087
X089
X091
X092
X027Y03
Y033
X0625Y051
Y054
X0615
X0605
X0595
X0585
X0575
X0565
X0555
X0545
X0535
X0525
X0515
X0505
X0495
X0485
X0475
Y051
X0485
X0495
X0505
X0515
X0525
X0535
X0545
X0555
X0565
X0575
X0585
X0595
X0605
X0615
X0345Y052
X0335
X0325
X0315
Y055
X0325
X0335
X0345
X0305
X0295
X0285
X0275
X0265
X0255
X0245
X0235
X0225
X0215
X0205
X0195
Y052
X0205
X0215
X0225
X0235
X0245
X0255
X0265
X0275
X0285
X0295
X0305
X0155Y0685
X0145
X0125
Y0715
X0145
X0155
X0175
X0195
X0205
X0225
X0245
X0265
X0275
X0295
Y0685
X0275
X0265
X0245
X0225
X0205
X0195
X0175
X0315
X0325
X0345
X0365
X0375
X0395
X0415
X0435
X0445
X0465
Y0715
X0445
X0435
X0415
X0395
X0375
X0365
X0345
X0325
X0315
X0485
Y0685
X0515Y0715
X0535
X055Y073
Y07
X0535Y0745
X0515
X049Y079
Y082
Y093
X05
X052
X054
X045Y089
X0435
X042
X04
X0385
X0365
X035
X0335
X0315
Y086
X0335
X035
X0365
X0385
X04
X042
X0435
X045
X03
X028
X0265
X025
X023
X0215
X0195
Y089
X0215
X023
X025
X0265
X028
X03
X049Y096
X05
X052
X054
T02
X011Y015
X012
X063Y0165
Y0175
Y0185
Y0195
Y0205
Y0215
Y0225
Y0235
Y0245
Y0255
Y0275
Y0285
Y0295
Y0305
X066
Y0295
Y0285
Y0275
Y0255
Y0245
Y0235
Y0225
Y0215
Y0205
Y0195
Y0185
Y0175
Y0165
X068
Y0175
Y0185
Y0195
Y0205
Y0215
Y0225
Y0235
Y0245
Y0255
Y028
Y029
Y03
Y031
X071
Y03
Y029
Y028
X073Y0275
Y0285
Y0295
Y0305
X076
Y0295
Y0285
Y0275
Y0255
Y0245
Y0235
Y0225
Y0215
Y0205
Y0195
Y0185
Y0175
Y0165
X073
Y0175
Y0185
Y0195
Y0205
Y0215
Y0225
Y0235
Y0245
Y0255
X071
Y0245
Y0235
Y0225
Y0215
Y0205
Y0195
Y0185
Y0175
Y0165
X0595Y0185
Y0195
Y0205
Y0215
Y0225
Y0235
Y0245
Y0255
Y0265
Y0275
Y0285
Y0295
Y0305
X0535
Y0295
Y0285
Y0275
Y0265
Y0255
Y0245
Y0235
Y0225
Y0215
Y0205
Y0195
Y0185
X0495
Y0195
Y0205
Y0215
Y0225
Y0235
Y0245
Y0255
Y0265
Y0275
Y0285
Y0295
Y0305
X0435
Y0295
Y0285
Y0275
Y0265
Y0255
Y0245
Y0235
Y0225
Y0215
Y0205
Y0195
Y0185
X0395
Y0195
Y0205
Y0215
Y0225
Y0235
Y0245
Y0255
Y0265
Y0275
Y0285
Y0295
Y0305
X0335
Y0295
Y0285
Y0275
Y0265
Y0255
Y0245
Y0235
Y0225
Y0215
Y0205
Y0195
Y0185
X031Y019
Y02
Y021
Y022
Y023
Y024
Y025
Y026
X028
Y025
Y024
Y023
Y022
Y021
Y02
Y019
X027
Y018
Y017
Y016
X024
Y017
Y018
Y019
Y02
Y021
Y022
Y023
Y024
Y025
X022
Y026
Y024
Y023
Y022
Y021
Y02
Y019
X019
Y02
Y021
Y022
Y023
Y024
Y025
Y026
X018Y025
Y024
Y023
Y022
Y021
Y02
Y019
Y018
Y017
Y016
X027Y02
Y021
Y022
Y023
Y024
Y025
X015
Y024
Y023
Y022
Y021
Y02
Y019
Y018
Y017
Y016
X012
Y017
Y018
Y019
Y02
Y021
Y022
Y023
Y024
Y025
Y026
Y027
Y028
Y029
Y03
Y031
X011
Y03
Y029
Y028
Y027
Y026
Y025
Y024
Y023
Y022
Y021
Y02
Y019
Y018
Y017
Y016
Y032
Y033
Y034
X012
Y033
Y032
Y041
Y042
Y043
Y044
Y045
Y046
X011
Y045
Y044
Y043
Y042
Y041
X0175Y0405
X0185
X0195
X0205
X0215
X0225
X0235
X0245
Y0375
X0235
X0225
X0215
X0205
X0195
X0185
X0175
X0335Y0315
X0395
X0435
X0495
X0535
X0595
X063
Y0325
Y0335
Y0345
X066
Y0335
Y0325
Y0315
X068Y032
Y033
Y034
X071
Y033
Y032
X073Y0315
Y0325
Y0335
Y0345
X076
Y0335
Y0325
Y0315
X096Y041
Y042
Y043
Y044
Y045
Y046
X097
Y045
Y044
Y043
Y042
Y041
Y047
Y048
Y049
Y05
Y051
Y052
Y053
Y054
Y055
Y056
Y057
Y058
Y059
Y06
X096
Y059
Y058
Y057
Y056
Y055
Y054
Y053
Y052
Y051
Y05
Y049
Y048
Y047
X0635501Y0595
Y0605
X0625501
Y0595
X0615501
Y0605
X0605501
Y0595
X0595501
Y0605
X0585501
Y0595
X0575501
Y0605
X0565501
Y0595
X0555501
Y0605
X0545501
Y0595
X0535501
Y0605
X0525501
Y0595
X0515501
Y0605
X0505501
Y0595
X0495501
Y0605
X0485501
Y0595
X0475501
Y0605
X0465501
Y0595
X0455501
Y0605
X0445501
Y0595
X0355
X0345
X0335
X0325
X0315
Y0605
X0325
X0335
X0345
X0355
X0305
X0295
X0285
X0275
X0265
X0255
X0245
X0235
X0225
X0215
X0205
X0195
X0185
X0175
X0165
Y0595
X0175
X0185
X0195
X0205
X0215
X0225
X0235
X0245
X0255
X0265
X0275
X0285
X0295
X0305
X012Y06
X011
Y059
X012
Y058
X011
Y057
X012
Y056
X011
Y055
X012
Y054
X011
Y053
X012
Y052
X011
Y051
X012
Y05
X011
Y049
X012
Y048
X011
Y047
X012
X0455Y0755
Y0765
Y0775
X0485
Y0765
Y0755
X058Y072
Y0715
Y071
X0485Y0785
Y0795
Y0805
Y0815
Y0825
Y0835
Y0845
X05Y084
Y085
Y086
Y087
Y088
Y089
Y09
Y091
X053
Y09
Y089
Y088
Y087
Y086
Y085
Y084
X0455Y0845
Y0835
Y0825
Y0815
Y0805
Y0795
Y0785
X045Y0935
X042
Y0945
Y0955
Y0965
Y0975
Y0985
Y0995
Y1005
X045
Y0995
Y0985
Y0975
Y0965
Y0955
Y0945
X046Y0995
Y1005
Y1015
Y1025
Y1035
Y1045
Y1055
X039Y103
Y102
Y101
Y1
Y099
Y098
Y097
Y096
Y095
Y094
X036
Y095
Y096
Y097
Y098
Y099
Y1
Y101
Y102
Y103
X049Y1025
Y1015
Y1005
Y0995
Y1035
Y1045
Y1055
T03
X101Y012
X104
X107
X11
X113
X116
X119
X122
X125
X128
X131
X134
X036Y077
X034Y081
T04
X012Y012
X04
X068
X096
X012Y038
X096
X012Y063
X04
X068
X096
M30
