<?xml version="1.0" encoding="UTF-8" standalone="no"?>
<svg xmlns="http://www.w3.org/2000/svg" viewBox="0.00in 0.00in 3.25in 6.75in" width="3.25in" height="6.75in">
<defs>
    <style type="text/css">
        
        text {
            font-family: Optima, Rachana, Sawasdee, sans-serif;
        }
    </style>
</defs>
<g transform="matrix(1.000000 0.000000 0.000000 1.000000 76.800000 12.000000)">
  <rect x="-0.800in" y="-0.125in" width="3.255in" height="6.750in" fill="#fff"/>
  <rect x="0in" y="0in" width="1.500in" height="0.675in" fill="#C7E3EC" stroke="#336DA5" stroke-width="0.028in"/>
  <rect x="0in" y="0.675in" width="1.500in" height="0.625in" fill="#fff"/>
  <rect x="0in" y="1.300in" width="1.500in" height="0.675in" fill="#C7E3EC" stroke="#336DA5" stroke-width="0.028in"/>
  <rect x="0in" y="1.975in" width="1.500in" height="0.625in" fill="#fff"/>
  <rect x="0in" y="2.600in" width="1.500in" height="1.300in" fill="#C7F3DC" stroke="#336DA5" stroke-width="0.028in"/>
  <rect x="0in" y="3.900in" width="1.500in" height="2.600in" fill="#D7D3EC" stroke="#336DA5" stroke-width="0.028in"/>
  <g>
    <text x="0.750in" y="0.338in" style="text-anchor: middle; dominant-baseline: middle;">UART</text>
    <text x="1.580in" y="0.675in" style="dominant-baseline: middle;">0xD008</text>
    <text x="1.580in" y="0.050in" style="dominant-baseline: hanging;">0xD009</text>
    <path fill="none" stroke="#336DA5" stroke-width="0.028in" stroke-linecap="square" d="M 0 64.80 L 144 64.80 M 0 124.80 L 144 124.80"/>
    <path fill="none" stroke="#336DA5" stroke-width="0.028in" stroke-linecap="square" stroke-dasharray="0.111in,0.056in" d="M 0 64.80 L 0 124.80 M 144 64.80 L 144 124.80"/>
    <text x="1.580in" y="1.300in" style="dominant-baseline: middle;">0xD004</text>
    <text x="0.750in" y="1.638in" style="text-anchor: middle; dominant-baseline: middle;">MOT</text>
    <text x="1.580in" y="1.975in" style="dominant-baseline: middle;">0xD002</text>
    <path fill="none" stroke="#336DA5" stroke-width="0.028in" stroke-linecap="square" d="M 0 189.60 L 144 189.60 M 0 249.60 L 144 249.60"/>
    <path fill="none" stroke="#336DA5" stroke-width="0.028in" stroke-linecap="square" stroke-dasharray="0.111in,0.056in" d="M 0 189.60 L 0 249.60 M 144 189.60 L 144 249.60"/>
    <text x="1.580in" y="2.600in" style="dominant-baseline: middle;">0xC000</text>
    <text x="1.580in" y="3.250in" style="dominant-baseline: middle;">16 KiB</text>
    <text x="-0.050in" y="3.517in" style="text-anchor: end;">↑</text>
    <text x="-0.050in" y="3.683in" style="text-anchor: end;">STACK</text>
    <text x="-0.050in" y="3.850in" style="text-anchor: end;">BSS</text>
    <text x="0.750in" y="3.250in" style="text-anchor: middle; dominant-baseline: middle;">SRAM</text>
    <text x="1.580in" y="3.900in" style="dominant-baseline: middle;">0x8000</text>
    <text x="1.580in" y="5.200in" style="dominant-baseline: middle;">32 KiB</text>
    <text x="-0.050in" y="6.450in" style="text-anchor: end;">TEXT</text>
    <text x="0.750in" y="5.200in" style="text-anchor: middle; dominant-baseline: middle;">ROM</text>
    <text x="1.580in" y="6.450in">0x0</text>
  </g>
</g>

</svg>
