G04*
G04 #@! TF.GenerationSoftware,Altium Limited,Altium Designer,21.9.1 (22)*
G04*
G04 Layer_Color=128*
%FSLAX25Y25*%
%MOIN*%
G70*
G04*
G04 #@! TF.SameCoordinates,96388F34-ED53-4079-84C0-77210EF012B4*
G04*
G04*
G04 #@! TF.FilePolarity,Positive*
G04*
G01*
G75*
%ADD36O,0.08268X0.01181*%
%ADD37O,0.01181X0.08268*%
%ADD38R,0.03347X0.03347*%
D36*
X879921Y203622D02*
D03*
Y201654D02*
D03*
Y199685D02*
D03*
Y197716D02*
D03*
Y195748D02*
D03*
Y193780D02*
D03*
Y191811D02*
D03*
Y189842D02*
D03*
Y187874D02*
D03*
Y185906D02*
D03*
Y183937D02*
D03*
Y181968D02*
D03*
Y180000D02*
D03*
Y178032D02*
D03*
Y176063D02*
D03*
Y174094D02*
D03*
Y172126D02*
D03*
Y170158D02*
D03*
Y168189D02*
D03*
Y166220D02*
D03*
Y164252D02*
D03*
Y162284D02*
D03*
Y160315D02*
D03*
Y158346D02*
D03*
Y156378D02*
D03*
X820079D02*
D03*
Y158346D02*
D03*
Y160315D02*
D03*
Y162284D02*
D03*
Y164252D02*
D03*
Y166220D02*
D03*
Y168189D02*
D03*
Y170158D02*
D03*
Y172126D02*
D03*
Y174094D02*
D03*
Y176063D02*
D03*
Y178032D02*
D03*
Y180000D02*
D03*
Y181968D02*
D03*
Y183937D02*
D03*
Y185906D02*
D03*
Y187874D02*
D03*
Y189842D02*
D03*
Y191811D02*
D03*
Y193780D02*
D03*
Y195748D02*
D03*
Y197716D02*
D03*
Y199685D02*
D03*
Y201654D02*
D03*
Y203622D02*
D03*
D37*
X873622Y150079D02*
D03*
X871653D02*
D03*
X869685D02*
D03*
X867717D02*
D03*
X865748D02*
D03*
X863780D02*
D03*
X861811D02*
D03*
X859842D02*
D03*
X857874D02*
D03*
X855906D02*
D03*
X853937D02*
D03*
X851968D02*
D03*
X850000D02*
D03*
X848032D02*
D03*
X846063D02*
D03*
X844094D02*
D03*
X842126D02*
D03*
X840158D02*
D03*
X838189D02*
D03*
X836220D02*
D03*
X834252D02*
D03*
X832283D02*
D03*
X830315D02*
D03*
X828347D02*
D03*
X826378D02*
D03*
Y209921D02*
D03*
X828347D02*
D03*
X830315D02*
D03*
X832283D02*
D03*
X834252D02*
D03*
X836220D02*
D03*
X838189D02*
D03*
X840158D02*
D03*
X842126D02*
D03*
X844094D02*
D03*
X846063D02*
D03*
X848032D02*
D03*
X850000D02*
D03*
X851968D02*
D03*
X853937D02*
D03*
X855906D02*
D03*
X857874D02*
D03*
X859842D02*
D03*
X861811D02*
D03*
X863780D02*
D03*
X865748D02*
D03*
X867717D02*
D03*
X869685D02*
D03*
X871653D02*
D03*
X873622D02*
D03*
D38*
X625501Y581949D02*
D03*
Y588051D02*
D03*
X615501Y581949D02*
D03*
Y588051D02*
D03*
X605501Y581949D02*
D03*
Y588051D02*
D03*
X595501Y581949D02*
D03*
Y588051D02*
D03*
X585501Y581949D02*
D03*
Y588051D02*
D03*
X575501Y581949D02*
D03*
Y588051D02*
D03*
X565501Y581949D02*
D03*
Y588051D02*
D03*
X555501Y581949D02*
D03*
Y588051D02*
D03*
X545501Y581949D02*
D03*
Y588051D02*
D03*
X535501Y581949D02*
D03*
Y588051D02*
D03*
X525501Y581949D02*
D03*
Y588051D02*
D03*
X515501Y581949D02*
D03*
Y588051D02*
D03*
X505501Y581949D02*
D03*
Y588051D02*
D03*
X495501Y581949D02*
D03*
Y588051D02*
D03*
X485501Y581949D02*
D03*
Y588051D02*
D03*
X475501Y581949D02*
D03*
Y588051D02*
D03*
X455501Y581949D02*
D03*
Y588051D02*
D03*
X625501Y573051D02*
D03*
Y566949D02*
D03*
X615501Y573051D02*
D03*
Y566949D02*
D03*
X605501Y573051D02*
D03*
Y566949D02*
D03*
X595501Y573051D02*
D03*
Y566949D02*
D03*
X585501Y573051D02*
D03*
Y566949D02*
D03*
X575501Y573051D02*
D03*
Y566949D02*
D03*
X565501Y573051D02*
D03*
Y566949D02*
D03*
X555501Y573051D02*
D03*
Y566949D02*
D03*
X630501Y588051D02*
D03*
Y581949D02*
D03*
X620501Y588051D02*
D03*
Y581949D02*
D03*
X610501Y588051D02*
D03*
Y581949D02*
D03*
X600501Y588051D02*
D03*
Y581949D02*
D03*
X590501Y588051D02*
D03*
Y581949D02*
D03*
X580501Y588051D02*
D03*
Y581949D02*
D03*
X570501Y588051D02*
D03*
Y581949D02*
D03*
X560501Y588051D02*
D03*
Y581949D02*
D03*
X545501Y573051D02*
D03*
Y566949D02*
D03*
X535501Y573051D02*
D03*
Y566949D02*
D03*
X525501Y573051D02*
D03*
Y566949D02*
D03*
X515501Y573051D02*
D03*
Y566949D02*
D03*
X505501Y573051D02*
D03*
Y566949D02*
D03*
X495501Y573051D02*
D03*
Y566949D02*
D03*
X485501Y573051D02*
D03*
Y566949D02*
D03*
X475501Y573051D02*
D03*
Y566949D02*
D03*
X550501Y588051D02*
D03*
Y581949D02*
D03*
X540501Y588051D02*
D03*
Y581949D02*
D03*
X530501Y588051D02*
D03*
Y581949D02*
D03*
X520501Y588051D02*
D03*
Y581949D02*
D03*
X510501Y588051D02*
D03*
Y581949D02*
D03*
X500501Y588051D02*
D03*
Y581949D02*
D03*
X490501Y588051D02*
D03*
Y581949D02*
D03*
X480501Y588051D02*
D03*
Y581949D02*
D03*
X455501Y573051D02*
D03*
Y566949D02*
D03*
X460501Y588051D02*
D03*
Y581949D02*
D03*
X345000D02*
D03*
Y588051D02*
D03*
X335000Y581949D02*
D03*
Y588051D02*
D03*
X325000Y581949D02*
D03*
Y588051D02*
D03*
X315000Y581949D02*
D03*
Y588051D02*
D03*
X305000Y581949D02*
D03*
Y588051D02*
D03*
X295000Y581949D02*
D03*
Y588051D02*
D03*
X285000Y581949D02*
D03*
Y588051D02*
D03*
X275000Y581949D02*
D03*
Y588051D02*
D03*
X265000Y581949D02*
D03*
Y588051D02*
D03*
X255000Y581949D02*
D03*
Y588051D02*
D03*
X245000Y581949D02*
D03*
Y588051D02*
D03*
X235000Y581949D02*
D03*
Y588051D02*
D03*
X225000Y581949D02*
D03*
Y588051D02*
D03*
X215000Y581949D02*
D03*
Y588051D02*
D03*
X205000Y581949D02*
D03*
Y588051D02*
D03*
X195000Y581949D02*
D03*
Y588051D02*
D03*
X175000Y581949D02*
D03*
Y588051D02*
D03*
X345000Y573051D02*
D03*
Y566949D02*
D03*
X335000Y573051D02*
D03*
Y566949D02*
D03*
X325000Y573051D02*
D03*
Y566949D02*
D03*
X315000Y573051D02*
D03*
Y566949D02*
D03*
X305000Y573051D02*
D03*
Y566949D02*
D03*
X295000Y573051D02*
D03*
Y566949D02*
D03*
X285000Y573051D02*
D03*
Y566949D02*
D03*
X275000Y573051D02*
D03*
Y566949D02*
D03*
X350000Y588051D02*
D03*
Y581949D02*
D03*
X340000Y588051D02*
D03*
Y581949D02*
D03*
X330000Y588051D02*
D03*
Y581949D02*
D03*
X320000Y588051D02*
D03*
Y581949D02*
D03*
X310000Y588051D02*
D03*
Y581949D02*
D03*
X300000Y588051D02*
D03*
Y581949D02*
D03*
X290000Y588051D02*
D03*
Y581949D02*
D03*
X280000Y588051D02*
D03*
Y581949D02*
D03*
X265000Y573051D02*
D03*
Y566949D02*
D03*
X255000Y573051D02*
D03*
Y566949D02*
D03*
X245000Y573051D02*
D03*
Y566949D02*
D03*
X235000Y573051D02*
D03*
Y566949D02*
D03*
X225000Y573051D02*
D03*
Y566949D02*
D03*
X215000Y573051D02*
D03*
Y566949D02*
D03*
X205000Y573051D02*
D03*
Y566949D02*
D03*
X195000Y573051D02*
D03*
Y566949D02*
D03*
X270000Y588051D02*
D03*
Y581949D02*
D03*
X260000Y588051D02*
D03*
Y581949D02*
D03*
X250000Y588051D02*
D03*
Y581949D02*
D03*
X240000Y588051D02*
D03*
Y581949D02*
D03*
X230000Y588051D02*
D03*
Y581949D02*
D03*
X220000Y588051D02*
D03*
Y581949D02*
D03*
X210000Y588051D02*
D03*
Y581949D02*
D03*
X200000Y588051D02*
D03*
Y581949D02*
D03*
X175000Y573051D02*
D03*
Y566949D02*
D03*
X180000Y588051D02*
D03*
Y581949D02*
D03*
M02*
