G04*
G04 #@! TF.GenerationSoftware,Altium Limited,Altium Designer,21.9.1 (22)*
G04*
G04 Layer_Color=8388736*
%FSLAX25Y25*%
%MOIN*%
G70*
G04*
G04 #@! TF.SameCoordinates,96388F34-ED53-4079-84C0-77210EF012B4*
G04*
G04*
G04 #@! TF.FilePolarity,Negative*
G04*
G01*
G75*
%ADD14C,0.09068*%
%ADD15C,0.06312*%
%ADD16R,0.06706X0.06706*%
%ADD17C,0.06706*%
%ADD18O,0.08674X0.04737*%
%ADD19O,0.08674X0.04737*%
%ADD20C,0.06706*%
%ADD21R,0.06706X0.06706*%
%ADD22R,0.06706X0.06706*%
%ADD23C,0.30800*%
%ADD24R,0.06706X0.06706*%
D14*
X360000Y770000D02*
D03*
X340000Y810000D02*
D03*
X1100000Y120000D02*
D03*
X1070000D02*
D03*
X1010000D02*
D03*
X1040000D02*
D03*
X1160000D02*
D03*
X1130000D02*
D03*
X1190000D02*
D03*
X1220000D02*
D03*
X1250000D02*
D03*
X1280000D02*
D03*
X1310000D02*
D03*
X1340000D02*
D03*
D15*
X345000Y685000D02*
D03*
Y715000D02*
D03*
X315000Y685000D02*
D03*
Y715000D02*
D03*
X325000Y685000D02*
D03*
Y715000D02*
D03*
X365000Y685000D02*
D03*
Y715000D02*
D03*
X375000Y685000D02*
D03*
Y715000D02*
D03*
X395000Y685000D02*
D03*
Y715000D02*
D03*
X415000Y685000D02*
D03*
Y715000D02*
D03*
X435000Y685000D02*
D03*
Y715000D02*
D03*
X445000Y685000D02*
D03*
Y715000D02*
D03*
X465000Y685000D02*
D03*
Y715000D02*
D03*
X485000Y685000D02*
D03*
Y715000D02*
D03*
X145000Y685000D02*
D03*
Y715000D02*
D03*
X175000Y685000D02*
D03*
Y715000D02*
D03*
X155000Y685000D02*
D03*
Y715000D02*
D03*
X125000Y685000D02*
D03*
Y715000D02*
D03*
X195000Y685000D02*
D03*
Y715000D02*
D03*
X225000Y685000D02*
D03*
Y715000D02*
D03*
X245000Y685000D02*
D03*
Y715000D02*
D03*
X265000Y685000D02*
D03*
Y715000D02*
D03*
X275000Y685000D02*
D03*
Y715000D02*
D03*
X205000Y685000D02*
D03*
Y715000D02*
D03*
X295000Y685000D02*
D03*
Y715000D02*
D03*
X420000Y890000D02*
D03*
Y860000D02*
D03*
X195000Y890000D02*
D03*
Y860000D02*
D03*
X230000Y890000D02*
D03*
Y860000D02*
D03*
X250000Y890000D02*
D03*
Y860000D02*
D03*
X265000Y890000D02*
D03*
Y860000D02*
D03*
X300000Y890000D02*
D03*
Y860000D02*
D03*
X315000Y890000D02*
D03*
Y860000D02*
D03*
X335000Y890000D02*
D03*
Y860000D02*
D03*
X350000Y890000D02*
D03*
Y860000D02*
D03*
X365000Y890000D02*
D03*
Y860000D02*
D03*
X280000Y890000D02*
D03*
Y860000D02*
D03*
X215000Y890000D02*
D03*
Y860000D02*
D03*
X400000Y890000D02*
D03*
Y860000D02*
D03*
X385000Y890000D02*
D03*
Y860000D02*
D03*
X520000Y930000D02*
D03*
Y960000D02*
D03*
X540000Y930000D02*
D03*
Y960000D02*
D03*
X500000Y930000D02*
D03*
Y960000D02*
D03*
X490000Y930000D02*
D03*
Y960000D02*
D03*
X550000Y730000D02*
D03*
Y700000D02*
D03*
X535000Y715000D02*
D03*
Y745000D02*
D03*
X515000D02*
D03*
Y715000D02*
D03*
X490000Y820000D02*
D03*
Y790000D02*
D03*
X435000Y890000D02*
D03*
Y860000D02*
D03*
X450000Y890000D02*
D03*
Y860000D02*
D03*
X270000Y300000D02*
D03*
Y330000D02*
D03*
X565000Y510000D02*
D03*
Y540000D02*
D03*
X555000Y510000D02*
D03*
Y540000D02*
D03*
X575000Y510000D02*
D03*
Y540000D02*
D03*
X475000Y510000D02*
D03*
Y540000D02*
D03*
X485000Y510000D02*
D03*
Y540000D02*
D03*
X625000Y510000D02*
D03*
Y540000D02*
D03*
X505000Y510000D02*
D03*
Y540000D02*
D03*
X515000Y510000D02*
D03*
Y540000D02*
D03*
X495000Y510000D02*
D03*
Y540000D02*
D03*
X535000Y510000D02*
D03*
Y540000D02*
D03*
X545000Y510000D02*
D03*
Y540000D02*
D03*
X525000Y510000D02*
D03*
Y540000D02*
D03*
X605000Y510000D02*
D03*
Y540000D02*
D03*
X615000Y510000D02*
D03*
Y540000D02*
D03*
X595000Y510000D02*
D03*
Y540000D02*
D03*
X585000Y510000D02*
D03*
Y540000D02*
D03*
X205000Y520000D02*
D03*
Y550000D02*
D03*
X215000Y520000D02*
D03*
Y550000D02*
D03*
X225000Y520000D02*
D03*
Y550000D02*
D03*
X235000Y520000D02*
D03*
Y550000D02*
D03*
X265000Y520000D02*
D03*
Y550000D02*
D03*
X275000Y520000D02*
D03*
Y550000D02*
D03*
X285000Y520000D02*
D03*
Y550000D02*
D03*
X295000Y520000D02*
D03*
Y550000D02*
D03*
X195000Y520000D02*
D03*
Y550000D02*
D03*
X245000Y520000D02*
D03*
Y550000D02*
D03*
X255000Y520000D02*
D03*
Y550000D02*
D03*
X305000Y520000D02*
D03*
Y550000D02*
D03*
X325000Y520000D02*
D03*
Y550000D02*
D03*
X335000Y520000D02*
D03*
Y550000D02*
D03*
X315000Y520000D02*
D03*
Y550000D02*
D03*
X345000Y520000D02*
D03*
Y550000D02*
D03*
X970000Y285000D02*
D03*
Y255000D02*
D03*
X960000Y285000D02*
D03*
Y255000D02*
D03*
X940000Y285000D02*
D03*
Y255000D02*
D03*
X920000Y285000D02*
D03*
Y255000D02*
D03*
X910000Y285000D02*
D03*
Y255000D02*
D03*
X890000Y285000D02*
D03*
Y255000D02*
D03*
X870000Y285000D02*
D03*
Y255000D02*
D03*
X860000Y285000D02*
D03*
Y255000D02*
D03*
X840000Y285000D02*
D03*
Y255000D02*
D03*
X820000Y285000D02*
D03*
Y255000D02*
D03*
X800000Y285000D02*
D03*
Y255000D02*
D03*
D16*
X500000Y840000D02*
D03*
X420000Y935000D02*
D03*
X360000Y940000D02*
D03*
X455000Y755000D02*
D03*
X460000Y995000D02*
D03*
X190000Y190000D02*
D03*
X280000D02*
D03*
X240000Y160000D02*
D03*
X150000D02*
D03*
X760000Y345000D02*
D03*
X710000Y340000D02*
D03*
X660000Y345000D02*
D03*
Y255000D02*
D03*
X710000D02*
D03*
X760000D02*
D03*
X495000Y315000D02*
D03*
X395000D02*
D03*
X595000D02*
D03*
D17*
X500000Y850000D02*
D03*
Y860000D02*
D03*
Y870000D02*
D03*
Y880000D02*
D03*
Y890000D02*
D03*
Y900000D02*
D03*
Y910000D02*
D03*
X530000Y840000D02*
D03*
Y850000D02*
D03*
Y860000D02*
D03*
Y870000D02*
D03*
Y880000D02*
D03*
Y890000D02*
D03*
Y900000D02*
D03*
Y910000D02*
D03*
X450000Y1005000D02*
D03*
Y995000D02*
D03*
Y985000D02*
D03*
Y975000D02*
D03*
Y965000D02*
D03*
Y955000D02*
D03*
Y945000D02*
D03*
Y935000D02*
D03*
X420000Y1005000D02*
D03*
Y995000D02*
D03*
Y985000D02*
D03*
Y975000D02*
D03*
Y965000D02*
D03*
Y955000D02*
D03*
Y945000D02*
D03*
X360000Y950000D02*
D03*
Y960000D02*
D03*
Y970000D02*
D03*
Y980000D02*
D03*
Y990000D02*
D03*
Y1000000D02*
D03*
Y1010000D02*
D03*
Y1020000D02*
D03*
Y1030000D02*
D03*
X390000Y940000D02*
D03*
Y960000D02*
D03*
Y970000D02*
D03*
Y980000D02*
D03*
Y990000D02*
D03*
Y1000000D02*
D03*
Y1010000D02*
D03*
Y1020000D02*
D03*
Y1030000D02*
D03*
X485000Y845000D02*
D03*
Y835000D02*
D03*
Y825000D02*
D03*
Y815000D02*
D03*
Y805000D02*
D03*
Y795000D02*
D03*
Y785000D02*
D03*
Y775000D02*
D03*
Y755000D02*
D03*
X455000Y845000D02*
D03*
Y835000D02*
D03*
Y825000D02*
D03*
Y815000D02*
D03*
Y805000D02*
D03*
Y795000D02*
D03*
Y785000D02*
D03*
Y775000D02*
D03*
Y765000D02*
D03*
X460000Y1005000D02*
D03*
Y1015000D02*
D03*
Y1025000D02*
D03*
Y1035000D02*
D03*
Y1045000D02*
D03*
Y1055000D02*
D03*
X490000Y995000D02*
D03*
Y1005000D02*
D03*
Y1015000D02*
D03*
Y1025000D02*
D03*
Y1035000D02*
D03*
Y1045000D02*
D03*
Y1055000D02*
D03*
X220000Y260000D02*
D03*
Y250000D02*
D03*
Y240000D02*
D03*
Y230000D02*
D03*
Y220000D02*
D03*
Y210000D02*
D03*
Y200000D02*
D03*
Y190000D02*
D03*
X190000Y260000D02*
D03*
Y250000D02*
D03*
Y240000D02*
D03*
Y230000D02*
D03*
Y220000D02*
D03*
Y210000D02*
D03*
Y200000D02*
D03*
X310000Y260000D02*
D03*
Y250000D02*
D03*
Y240000D02*
D03*
Y230000D02*
D03*
Y220000D02*
D03*
Y210000D02*
D03*
Y200000D02*
D03*
Y190000D02*
D03*
X280000Y260000D02*
D03*
Y250000D02*
D03*
Y240000D02*
D03*
Y230000D02*
D03*
Y220000D02*
D03*
Y210000D02*
D03*
Y200000D02*
D03*
X240000Y170000D02*
D03*
Y180000D02*
D03*
Y190000D02*
D03*
Y200000D02*
D03*
Y210000D02*
D03*
Y220000D02*
D03*
Y230000D02*
D03*
Y240000D02*
D03*
Y250000D02*
D03*
X270000Y160000D02*
D03*
Y180000D02*
D03*
Y190000D02*
D03*
Y200000D02*
D03*
Y210000D02*
D03*
Y220000D02*
D03*
Y230000D02*
D03*
Y240000D02*
D03*
Y250000D02*
D03*
X150000Y170000D02*
D03*
Y180000D02*
D03*
Y190000D02*
D03*
Y200000D02*
D03*
Y210000D02*
D03*
Y220000D02*
D03*
Y230000D02*
D03*
Y240000D02*
D03*
Y250000D02*
D03*
X180000Y160000D02*
D03*
Y180000D02*
D03*
Y190000D02*
D03*
Y200000D02*
D03*
Y210000D02*
D03*
Y220000D02*
D03*
Y230000D02*
D03*
Y240000D02*
D03*
Y250000D02*
D03*
X730000Y275000D02*
D03*
Y285000D02*
D03*
Y295000D02*
D03*
Y305000D02*
D03*
Y315000D02*
D03*
Y325000D02*
D03*
Y335000D02*
D03*
Y345000D02*
D03*
X760000Y275000D02*
D03*
Y285000D02*
D03*
Y295000D02*
D03*
Y305000D02*
D03*
Y315000D02*
D03*
Y325000D02*
D03*
Y335000D02*
D03*
X175000Y405000D02*
D03*
X185000D02*
D03*
X195000D02*
D03*
X205000D02*
D03*
X215000D02*
D03*
X225000D02*
D03*
X235000D02*
D03*
X245000D02*
D03*
X175000Y375000D02*
D03*
X185000D02*
D03*
X195000D02*
D03*
X205000D02*
D03*
X215000D02*
D03*
X225000D02*
D03*
X235000D02*
D03*
X710000Y330000D02*
D03*
Y320000D02*
D03*
Y310000D02*
D03*
Y300000D02*
D03*
Y290000D02*
D03*
Y280000D02*
D03*
X680000Y340000D02*
D03*
Y330000D02*
D03*
Y320000D02*
D03*
Y310000D02*
D03*
Y300000D02*
D03*
Y290000D02*
D03*
Y280000D02*
D03*
X630000Y275000D02*
D03*
Y285000D02*
D03*
Y295000D02*
D03*
Y305000D02*
D03*
Y315000D02*
D03*
Y325000D02*
D03*
Y335000D02*
D03*
Y345000D02*
D03*
X660000Y275000D02*
D03*
Y285000D02*
D03*
Y295000D02*
D03*
Y305000D02*
D03*
Y315000D02*
D03*
Y325000D02*
D03*
Y335000D02*
D03*
Y245000D02*
D03*
Y235000D02*
D03*
Y225000D02*
D03*
Y215000D02*
D03*
Y205000D02*
D03*
Y195000D02*
D03*
Y185000D02*
D03*
Y175000D02*
D03*
Y165000D02*
D03*
X630000Y255000D02*
D03*
Y235000D02*
D03*
Y225000D02*
D03*
Y215000D02*
D03*
Y205000D02*
D03*
Y195000D02*
D03*
Y185000D02*
D03*
Y175000D02*
D03*
Y165000D02*
D03*
X710000Y245000D02*
D03*
Y235000D02*
D03*
Y225000D02*
D03*
Y215000D02*
D03*
Y205000D02*
D03*
Y195000D02*
D03*
Y185000D02*
D03*
Y175000D02*
D03*
Y165000D02*
D03*
X680000Y255000D02*
D03*
Y235000D02*
D03*
Y225000D02*
D03*
Y215000D02*
D03*
Y205000D02*
D03*
Y195000D02*
D03*
Y185000D02*
D03*
Y175000D02*
D03*
Y165000D02*
D03*
X760000Y245000D02*
D03*
Y235000D02*
D03*
Y225000D02*
D03*
Y215000D02*
D03*
Y205000D02*
D03*
Y195000D02*
D03*
Y185000D02*
D03*
Y175000D02*
D03*
Y165000D02*
D03*
X730000Y255000D02*
D03*
Y235000D02*
D03*
Y225000D02*
D03*
Y215000D02*
D03*
Y205000D02*
D03*
Y195000D02*
D03*
Y185000D02*
D03*
Y175000D02*
D03*
Y165000D02*
D03*
X435000Y185000D02*
D03*
Y195000D02*
D03*
Y205000D02*
D03*
Y215000D02*
D03*
Y225000D02*
D03*
Y235000D02*
D03*
Y245000D02*
D03*
Y255000D02*
D03*
Y265000D02*
D03*
Y275000D02*
D03*
Y285000D02*
D03*
Y295000D02*
D03*
Y305000D02*
D03*
Y315000D02*
D03*
X495000Y185000D02*
D03*
Y195000D02*
D03*
Y205000D02*
D03*
Y215000D02*
D03*
Y225000D02*
D03*
Y235000D02*
D03*
Y245000D02*
D03*
Y255000D02*
D03*
Y265000D02*
D03*
Y275000D02*
D03*
Y285000D02*
D03*
Y295000D02*
D03*
Y305000D02*
D03*
X335000Y185000D02*
D03*
Y195000D02*
D03*
Y205000D02*
D03*
Y215000D02*
D03*
Y225000D02*
D03*
Y235000D02*
D03*
Y245000D02*
D03*
Y255000D02*
D03*
Y265000D02*
D03*
Y275000D02*
D03*
Y285000D02*
D03*
Y295000D02*
D03*
Y305000D02*
D03*
Y315000D02*
D03*
X395000Y185000D02*
D03*
Y195000D02*
D03*
Y205000D02*
D03*
Y215000D02*
D03*
Y225000D02*
D03*
Y235000D02*
D03*
Y245000D02*
D03*
Y255000D02*
D03*
Y265000D02*
D03*
Y275000D02*
D03*
Y285000D02*
D03*
Y295000D02*
D03*
Y305000D02*
D03*
X535000Y185000D02*
D03*
Y195000D02*
D03*
Y205000D02*
D03*
Y215000D02*
D03*
Y225000D02*
D03*
Y235000D02*
D03*
Y245000D02*
D03*
Y255000D02*
D03*
Y265000D02*
D03*
Y275000D02*
D03*
Y285000D02*
D03*
Y295000D02*
D03*
Y305000D02*
D03*
Y315000D02*
D03*
X595000Y185000D02*
D03*
Y195000D02*
D03*
Y205000D02*
D03*
Y215000D02*
D03*
Y225000D02*
D03*
Y235000D02*
D03*
Y245000D02*
D03*
Y255000D02*
D03*
Y265000D02*
D03*
Y275000D02*
D03*
Y285000D02*
D03*
Y295000D02*
D03*
Y305000D02*
D03*
D18*
X580000Y720000D02*
D03*
Y710000D02*
D03*
D19*
Y715000D02*
D03*
D20*
X390000Y950000D02*
D03*
X485000Y765000D02*
D03*
X270000Y170000D02*
D03*
X180000D02*
D03*
X630000Y245000D02*
D03*
X680000D02*
D03*
X730000D02*
D03*
X635501Y595000D02*
D03*
Y605000D02*
D03*
X625501Y595000D02*
D03*
Y605000D02*
D03*
X615501Y595000D02*
D03*
Y605000D02*
D03*
X605501Y595000D02*
D03*
Y605000D02*
D03*
X595501Y595000D02*
D03*
Y605000D02*
D03*
X585501Y595000D02*
D03*
Y605000D02*
D03*
X575501Y595000D02*
D03*
Y605000D02*
D03*
X565501Y595000D02*
D03*
Y605000D02*
D03*
X555501Y595000D02*
D03*
Y605000D02*
D03*
X545501Y595000D02*
D03*
Y605000D02*
D03*
X535501Y595000D02*
D03*
Y605000D02*
D03*
X525501Y595000D02*
D03*
Y605000D02*
D03*
X515501Y595000D02*
D03*
Y605000D02*
D03*
X505501Y595000D02*
D03*
Y605000D02*
D03*
X495501Y595000D02*
D03*
Y605000D02*
D03*
X485501Y595000D02*
D03*
Y605000D02*
D03*
X475501Y595000D02*
D03*
Y605000D02*
D03*
X465501Y595000D02*
D03*
Y605000D02*
D03*
X455501Y595000D02*
D03*
Y605000D02*
D03*
X445501Y595000D02*
D03*
X165000D02*
D03*
X175000Y605000D02*
D03*
Y595000D02*
D03*
X185000Y605000D02*
D03*
Y595000D02*
D03*
X195000Y605000D02*
D03*
Y595000D02*
D03*
X205000Y605000D02*
D03*
Y595000D02*
D03*
X215000Y605000D02*
D03*
Y595000D02*
D03*
X225000Y605000D02*
D03*
Y595000D02*
D03*
X235000Y605000D02*
D03*
Y595000D02*
D03*
X245000Y605000D02*
D03*
Y595000D02*
D03*
X255000Y605000D02*
D03*
Y595000D02*
D03*
X265000Y605000D02*
D03*
Y595000D02*
D03*
X275000Y605000D02*
D03*
Y595000D02*
D03*
X285000Y605000D02*
D03*
Y595000D02*
D03*
X295000Y605000D02*
D03*
Y595000D02*
D03*
X305000Y605000D02*
D03*
Y595000D02*
D03*
X315000Y605000D02*
D03*
Y595000D02*
D03*
X325000Y605000D02*
D03*
Y595000D02*
D03*
X335000Y605000D02*
D03*
Y595000D02*
D03*
X345000Y605000D02*
D03*
Y595000D02*
D03*
X355000Y605000D02*
D03*
Y595000D02*
D03*
X110000Y600000D02*
D03*
X120000D02*
D03*
X110000Y590000D02*
D03*
X120000D02*
D03*
X110000Y580000D02*
D03*
X120000D02*
D03*
X110000Y570000D02*
D03*
X120000D02*
D03*
X110000Y560000D02*
D03*
X120000D02*
D03*
X110000Y550000D02*
D03*
X120000D02*
D03*
X110000Y540000D02*
D03*
X120000D02*
D03*
X110000Y530000D02*
D03*
X120000D02*
D03*
X110000Y520000D02*
D03*
X120000D02*
D03*
X110000Y510000D02*
D03*
X120000D02*
D03*
X110000Y500000D02*
D03*
X120000D02*
D03*
X110000Y490000D02*
D03*
X120000D02*
D03*
X110000Y480000D02*
D03*
X120000D02*
D03*
X110000Y470000D02*
D03*
X120000D02*
D03*
X110000Y460000D02*
D03*
X120000D02*
D03*
X110000Y450000D02*
D03*
X120000D02*
D03*
X110000Y440000D02*
D03*
X120000D02*
D03*
X110000Y430000D02*
D03*
X120000D02*
D03*
X110000Y420000D02*
D03*
X120000D02*
D03*
X110000Y410000D02*
D03*
X960000Y600000D02*
D03*
X970000D02*
D03*
X960000Y590000D02*
D03*
X970000D02*
D03*
X960000Y580000D02*
D03*
X970000D02*
D03*
X960000Y570000D02*
D03*
X970000D02*
D03*
X960000Y560000D02*
D03*
X970000D02*
D03*
X960000Y550000D02*
D03*
X970000D02*
D03*
X960000Y540000D02*
D03*
X970000D02*
D03*
X960000Y530000D02*
D03*
X970000D02*
D03*
X960000Y520000D02*
D03*
X970000D02*
D03*
X960000Y510000D02*
D03*
X970000D02*
D03*
X960000Y500000D02*
D03*
X970000D02*
D03*
X960000Y490000D02*
D03*
X970000D02*
D03*
X960000Y480000D02*
D03*
X970000D02*
D03*
X960000Y470000D02*
D03*
X970000D02*
D03*
X960000Y460000D02*
D03*
X970000D02*
D03*
X960000Y450000D02*
D03*
X970000D02*
D03*
X960000Y440000D02*
D03*
X970000D02*
D03*
X960000Y430000D02*
D03*
X970000D02*
D03*
X960000Y420000D02*
D03*
X970000D02*
D03*
X960000Y410000D02*
D03*
X110000Y340000D02*
D03*
X120000D02*
D03*
X110000Y330000D02*
D03*
X120000D02*
D03*
X110000Y320000D02*
D03*
X120000D02*
D03*
X110000Y310000D02*
D03*
X120000D02*
D03*
X110000Y300000D02*
D03*
X120000D02*
D03*
X110000Y290000D02*
D03*
X120000D02*
D03*
X110000Y280000D02*
D03*
X120000D02*
D03*
X110000Y270000D02*
D03*
X120000D02*
D03*
X110000Y260000D02*
D03*
X120000D02*
D03*
X110000Y250000D02*
D03*
X120000D02*
D03*
X110000Y240000D02*
D03*
X120000D02*
D03*
X110000Y230000D02*
D03*
X120000D02*
D03*
X110000Y220000D02*
D03*
X120000D02*
D03*
X110000Y210000D02*
D03*
X120000D02*
D03*
X110000Y200000D02*
D03*
X120000D02*
D03*
X110000Y190000D02*
D03*
X120000D02*
D03*
X110000Y180000D02*
D03*
X120000D02*
D03*
X110000Y170000D02*
D03*
X120000D02*
D03*
X110000Y160000D02*
D03*
X120000D02*
D03*
X110000Y150000D02*
D03*
D21*
X245000Y375000D02*
D03*
D22*
X445501Y605000D02*
D03*
X165000D02*
D03*
D23*
X960000Y380000D02*
D03*
Y630000D02*
D03*
X680000D02*
D03*
X960000Y120000D02*
D03*
X400000D02*
D03*
X120000D02*
D03*
Y630000D02*
D03*
X680000Y120000D02*
D03*
X400000Y630000D02*
D03*
X120000Y380000D02*
D03*
D24*
Y410000D02*
D03*
X970000D02*
D03*
X120000Y150000D02*
D03*
M02*
