G04*
G04 #@! TF.GenerationSoftware,Altium Limited,Altium Designer,21.9.1 (22)*
G04*
G04 Layer_Physical_Order=2*
G04 Layer_Color=16711680*
%FSLAX25Y25*%
%MOIN*%
G70*
G04*
G04 #@! TF.SameCoordinates,96388F34-ED53-4079-84C0-77210EF012B4*
G04*
G04*
G04 #@! TF.FilePolarity,Positive*
G04*
G01*
G75*
%ADD12C,0.01000*%
%ADD25C,0.08268*%
%ADD26C,0.05512*%
%ADD27R,0.05906X0.05906*%
%ADD28C,0.05906*%
%ADD29O,0.07874X0.03937*%
%ADD30O,0.07874X0.03937*%
%ADD31C,0.05906*%
%ADD32R,0.05906X0.05906*%
%ADD33R,0.05906X0.05906*%
%ADD34C,0.30000*%
%ADD35R,0.05906X0.05906*%
%ADD36O,0.08268X0.01181*%
%ADD37O,0.01181X0.08268*%
%ADD38R,0.03347X0.03347*%
D12*
X555501Y573051D02*
Y581949D01*
X560501D01*
X545501Y573051D02*
Y581949D01*
X565501Y573051D02*
Y581949D01*
X545501Y588051D02*
X550501D01*
X545501Y581949D02*
X550501D01*
X595501Y573051D02*
Y581949D01*
X585501Y573051D02*
Y581949D01*
X575501Y573051D02*
Y581949D01*
X605501Y573051D02*
Y581949D01*
Y588051D02*
X610501D01*
X605501Y581949D02*
X610501D01*
X595501Y588051D02*
X600501D01*
X595501Y581949D02*
X600501D01*
X585501Y588051D02*
X590501D01*
X585501Y581949D02*
X590501D01*
X575501Y588051D02*
X580501D01*
X575501Y581949D02*
X580501D01*
X565501Y588051D02*
X570501D01*
X565501Y581949D02*
X570501D01*
X555501Y588051D02*
X560501D01*
X625501Y573051D02*
Y581949D01*
X615501Y573051D02*
Y581949D01*
X625501Y588051D02*
X630501D01*
X615501D02*
X620501D01*
X615501Y581949D02*
X620501D01*
X625501D02*
X630501D01*
X535501Y588051D02*
X540501D01*
X525501D02*
X530501D01*
X525501Y581949D02*
X530501D01*
X535501D02*
X540501D01*
X535501Y573051D02*
Y581949D01*
X525501Y573051D02*
Y581949D01*
X505501D02*
X510501D01*
X515501Y588051D02*
X520501D01*
X515501Y581949D02*
X520501D01*
X515501Y573051D02*
Y581949D01*
X505501Y573051D02*
Y581949D01*
X495501Y573051D02*
Y581949D01*
X485501Y573051D02*
Y581949D01*
X475501Y573051D02*
Y581949D01*
X505501Y588051D02*
X510501D01*
X495501D02*
X500501D01*
X495501Y581949D02*
X500501D01*
X485501Y588051D02*
X490501D01*
X485501Y581949D02*
X490501D01*
X475501Y588051D02*
X480501D01*
X475501Y581949D02*
X480501D01*
X455501D02*
X460501D01*
X455501Y588051D02*
X460501D01*
X455501Y573051D02*
Y581949D01*
X460501Y588051D02*
Y600000D01*
X455501Y605000D02*
X460501Y600000D01*
X605501Y605000D02*
X610501Y600000D01*
X615501Y605000D02*
X620501Y600000D01*
X480501Y588051D02*
Y600000D01*
X475501Y605000D02*
X480501Y600000D01*
X490501Y588051D02*
Y600000D01*
X610501Y588051D02*
Y600000D01*
X500501Y588051D02*
Y600000D01*
X510501Y588051D02*
Y600000D01*
X495501Y605000D02*
X500501Y600000D01*
X520501Y588051D02*
Y600000D01*
X515501Y605000D02*
X520501Y600000D01*
X530501Y588051D02*
Y600000D01*
X620501Y588051D02*
Y600000D01*
X540501Y588051D02*
Y600000D01*
X535501Y605000D02*
X540501Y600000D01*
X550501Y588051D02*
Y600000D01*
X625501Y605000D02*
X630501Y600000D01*
X560501Y588051D02*
Y600000D01*
X555501Y605000D02*
X560501Y600000D01*
X570501Y588051D02*
Y600000D01*
X630501Y588051D02*
Y600000D01*
X580501Y588051D02*
Y600000D01*
X575501Y605000D02*
X580501Y600000D01*
X485501Y605000D02*
X490501Y600000D01*
X505501Y605000D02*
X510501Y600000D01*
X525501Y605000D02*
X530501Y600000D01*
X545501Y605000D02*
X550501Y600000D01*
X565501Y605000D02*
X570501Y600000D01*
X590501Y588051D02*
Y600000D01*
X585501Y605000D02*
X590501Y600000D01*
X600501Y588051D02*
Y600000D01*
X595501Y605000D02*
X600501Y600000D01*
X245000Y581949D02*
X250000D01*
X245000Y573051D02*
Y581949D01*
X255000Y573051D02*
Y581949D01*
X260000D01*
X240000Y588051D02*
Y600000D01*
X235000Y588051D02*
X240000D01*
X235000Y605000D02*
X240000Y600000D01*
X250000Y588051D02*
Y600000D01*
X245000Y605000D02*
X250000Y600000D01*
X260000Y588051D02*
Y600000D01*
X255000Y605000D02*
X260000Y600000D01*
X225000Y588051D02*
X230000D01*
X225000Y605000D02*
X230000Y600000D01*
Y588051D02*
Y600000D01*
X235000Y581949D02*
X240000D01*
X225000Y573051D02*
Y581949D01*
X230000D01*
X235000Y573051D02*
Y581949D01*
X215000Y573051D02*
Y581949D01*
X220000D01*
X215000Y588051D02*
X220000D01*
X255000D02*
X260000D01*
X245000D02*
X250000D01*
X215000Y605000D02*
X220000Y600000D01*
Y588051D02*
Y600000D01*
X205000Y605000D02*
X210000Y600000D01*
Y588051D02*
Y600000D01*
X205000Y573051D02*
Y581949D01*
Y588051D02*
X210000D01*
X205000Y581949D02*
X210000D01*
X340000Y588051D02*
Y600000D01*
X350000Y588051D02*
Y600000D01*
X345000Y588051D02*
X350000D01*
X345000Y581949D02*
X350000D01*
X310000Y588051D02*
Y600000D01*
X320000Y588051D02*
Y600000D01*
X315000Y588051D02*
X320000D01*
X315000Y581949D02*
X320000D01*
X275000D02*
X280000D01*
X265000D02*
X270000D01*
X265000Y573051D02*
Y581949D01*
X275000Y573051D02*
Y581949D01*
X335000D02*
X340000D01*
X335000Y588051D02*
X340000D01*
X285000D02*
X290000D01*
X285000Y573051D02*
Y581949D01*
X295000Y573051D02*
Y581949D01*
X285000D02*
X290000D01*
X305000Y588051D02*
X310000D01*
X305000Y581949D02*
X310000D01*
X335000Y573051D02*
Y581949D01*
X345000Y573051D02*
Y581949D01*
X315000Y573051D02*
Y581949D01*
X325000D02*
X330000D01*
X325000Y573051D02*
Y581949D01*
X305000Y573051D02*
Y581949D01*
X325000Y588051D02*
X330000D01*
Y600000D01*
X300000Y588051D02*
Y600000D01*
X275000Y588051D02*
X280000D01*
Y600000D01*
X290000Y588051D02*
Y600000D01*
X295000Y588051D02*
X300000D01*
X295000Y581949D02*
X300000D01*
X275000Y605000D02*
X280000Y600000D01*
X295000Y605000D02*
X300000Y600000D01*
X305000Y605000D02*
X310000Y600000D01*
X285000Y605000D02*
X290000Y600000D01*
X315000Y605000D02*
X320000Y600000D01*
X345000Y605000D02*
X350000Y600000D01*
X335000Y605000D02*
X340000Y600000D01*
X325000Y605000D02*
X330000Y600000D01*
X265000Y588051D02*
X270000D01*
Y600000D01*
X265000Y605000D02*
X270000Y600000D01*
X195000Y581949D02*
X200000D01*
X195000Y588051D02*
X200000D01*
X180000D02*
Y600000D01*
X175000Y605000D02*
X180000Y600000D01*
X195000Y605000D02*
X200000Y600000D01*
Y588051D02*
Y600000D01*
X175000Y588051D02*
X180000D01*
X175000Y581949D02*
X180000D01*
X175000Y573051D02*
Y581949D01*
X195000Y573051D02*
Y581949D01*
D25*
X360000Y770000D02*
D03*
X340000Y810000D02*
D03*
X1100000Y120000D02*
D03*
X1070000D02*
D03*
X1010000D02*
D03*
X1040000D02*
D03*
X1160000D02*
D03*
X1130000D02*
D03*
X1190000D02*
D03*
X1220000D02*
D03*
X1250000D02*
D03*
X1280000D02*
D03*
X1310000D02*
D03*
X1340000D02*
D03*
D26*
X345000Y685000D02*
D03*
Y715000D02*
D03*
X315000Y685000D02*
D03*
Y715000D02*
D03*
X325000Y685000D02*
D03*
Y715000D02*
D03*
X365000Y685000D02*
D03*
Y715000D02*
D03*
X375000Y685000D02*
D03*
Y715000D02*
D03*
X395000Y685000D02*
D03*
Y715000D02*
D03*
X415000Y685000D02*
D03*
Y715000D02*
D03*
X435000Y685000D02*
D03*
Y715000D02*
D03*
X445000Y685000D02*
D03*
Y715000D02*
D03*
X465000Y685000D02*
D03*
Y715000D02*
D03*
X485000Y685000D02*
D03*
Y715000D02*
D03*
X145000Y685000D02*
D03*
Y715000D02*
D03*
X175000Y685000D02*
D03*
Y715000D02*
D03*
X155000Y685000D02*
D03*
Y715000D02*
D03*
X125000Y685000D02*
D03*
Y715000D02*
D03*
X195000Y685000D02*
D03*
Y715000D02*
D03*
X225000Y685000D02*
D03*
Y715000D02*
D03*
X245000Y685000D02*
D03*
Y715000D02*
D03*
X265000Y685000D02*
D03*
Y715000D02*
D03*
X275000Y685000D02*
D03*
Y715000D02*
D03*
X205000Y685000D02*
D03*
Y715000D02*
D03*
X295000Y685000D02*
D03*
Y715000D02*
D03*
X420000Y890000D02*
D03*
Y860000D02*
D03*
X195000Y890000D02*
D03*
Y860000D02*
D03*
X230000Y890000D02*
D03*
Y860000D02*
D03*
X250000Y890000D02*
D03*
Y860000D02*
D03*
X265000Y890000D02*
D03*
Y860000D02*
D03*
X300000Y890000D02*
D03*
Y860000D02*
D03*
X315000Y890000D02*
D03*
Y860000D02*
D03*
X335000Y890000D02*
D03*
Y860000D02*
D03*
X350000Y890000D02*
D03*
Y860000D02*
D03*
X365000Y890000D02*
D03*
Y860000D02*
D03*
X280000Y890000D02*
D03*
Y860000D02*
D03*
X215000Y890000D02*
D03*
Y860000D02*
D03*
X400000Y890000D02*
D03*
Y860000D02*
D03*
X385000Y890000D02*
D03*
Y860000D02*
D03*
X520000Y930000D02*
D03*
Y960000D02*
D03*
X540000Y930000D02*
D03*
Y960000D02*
D03*
X500000Y930000D02*
D03*
Y960000D02*
D03*
X490000Y930000D02*
D03*
Y960000D02*
D03*
X550000Y730000D02*
D03*
Y700000D02*
D03*
X535000Y715000D02*
D03*
Y745000D02*
D03*
X515000D02*
D03*
Y715000D02*
D03*
X490000Y820000D02*
D03*
Y790000D02*
D03*
X435000Y890000D02*
D03*
Y860000D02*
D03*
X450000Y890000D02*
D03*
Y860000D02*
D03*
X270000Y300000D02*
D03*
Y330000D02*
D03*
X565000Y510000D02*
D03*
Y540000D02*
D03*
X555000Y510000D02*
D03*
Y540000D02*
D03*
X575000Y510000D02*
D03*
Y540000D02*
D03*
X475000Y510000D02*
D03*
Y540000D02*
D03*
X485000Y510000D02*
D03*
Y540000D02*
D03*
X625000Y510000D02*
D03*
Y540000D02*
D03*
X505000Y510000D02*
D03*
Y540000D02*
D03*
X515000Y510000D02*
D03*
Y540000D02*
D03*
X495000Y510000D02*
D03*
Y540000D02*
D03*
X535000Y510000D02*
D03*
Y540000D02*
D03*
X545000Y510000D02*
D03*
Y540000D02*
D03*
X525000Y510000D02*
D03*
Y540000D02*
D03*
X605000Y510000D02*
D03*
Y540000D02*
D03*
X615000Y510000D02*
D03*
Y540000D02*
D03*
X595000Y510000D02*
D03*
Y540000D02*
D03*
X585000Y510000D02*
D03*
Y540000D02*
D03*
X205000Y520000D02*
D03*
Y550000D02*
D03*
X215000Y520000D02*
D03*
Y550000D02*
D03*
X225000Y520000D02*
D03*
Y550000D02*
D03*
X235000Y520000D02*
D03*
Y550000D02*
D03*
X265000Y520000D02*
D03*
Y550000D02*
D03*
X275000Y520000D02*
D03*
Y550000D02*
D03*
X285000Y520000D02*
D03*
Y550000D02*
D03*
X295000Y520000D02*
D03*
Y550000D02*
D03*
X195000Y520000D02*
D03*
Y550000D02*
D03*
X245000Y520000D02*
D03*
Y550000D02*
D03*
X255000Y520000D02*
D03*
Y550000D02*
D03*
X305000Y520000D02*
D03*
Y550000D02*
D03*
X325000Y520000D02*
D03*
Y550000D02*
D03*
X335000Y520000D02*
D03*
Y550000D02*
D03*
X315000Y520000D02*
D03*
Y550000D02*
D03*
X345000Y520000D02*
D03*
Y550000D02*
D03*
X970000Y285000D02*
D03*
Y255000D02*
D03*
X960000Y285000D02*
D03*
Y255000D02*
D03*
X940000Y285000D02*
D03*
Y255000D02*
D03*
X920000Y285000D02*
D03*
Y255000D02*
D03*
X910000Y285000D02*
D03*
Y255000D02*
D03*
X890000Y285000D02*
D03*
Y255000D02*
D03*
X870000Y285000D02*
D03*
Y255000D02*
D03*
X860000Y285000D02*
D03*
Y255000D02*
D03*
X840000Y285000D02*
D03*
Y255000D02*
D03*
X820000Y285000D02*
D03*
Y255000D02*
D03*
X800000Y285000D02*
D03*
Y255000D02*
D03*
D27*
X500000Y840000D02*
D03*
X420000Y935000D02*
D03*
X360000Y940000D02*
D03*
X455000Y755000D02*
D03*
X460000Y995000D02*
D03*
X190000Y190000D02*
D03*
X280000D02*
D03*
X240000Y160000D02*
D03*
X150000D02*
D03*
X760000Y345000D02*
D03*
X710000Y340000D02*
D03*
X660000Y345000D02*
D03*
Y255000D02*
D03*
X710000D02*
D03*
X760000D02*
D03*
X495000Y315000D02*
D03*
X395000D02*
D03*
X595000D02*
D03*
D28*
X500000Y850000D02*
D03*
Y860000D02*
D03*
Y870000D02*
D03*
Y880000D02*
D03*
Y890000D02*
D03*
Y900000D02*
D03*
Y910000D02*
D03*
X530000Y840000D02*
D03*
Y850000D02*
D03*
Y860000D02*
D03*
Y870000D02*
D03*
Y880000D02*
D03*
Y890000D02*
D03*
Y900000D02*
D03*
Y910000D02*
D03*
X450000Y1005000D02*
D03*
Y995000D02*
D03*
Y985000D02*
D03*
Y975000D02*
D03*
Y965000D02*
D03*
Y955000D02*
D03*
Y945000D02*
D03*
Y935000D02*
D03*
X420000Y1005000D02*
D03*
Y995000D02*
D03*
Y985000D02*
D03*
Y975000D02*
D03*
Y965000D02*
D03*
Y955000D02*
D03*
Y945000D02*
D03*
X360000Y950000D02*
D03*
Y960000D02*
D03*
Y970000D02*
D03*
Y980000D02*
D03*
Y990000D02*
D03*
Y1000000D02*
D03*
Y1010000D02*
D03*
Y1020000D02*
D03*
Y1030000D02*
D03*
X390000Y940000D02*
D03*
Y960000D02*
D03*
Y970000D02*
D03*
Y980000D02*
D03*
Y990000D02*
D03*
Y1000000D02*
D03*
Y1010000D02*
D03*
Y1020000D02*
D03*
Y1030000D02*
D03*
X485000Y845000D02*
D03*
Y835000D02*
D03*
Y825000D02*
D03*
Y815000D02*
D03*
Y805000D02*
D03*
Y795000D02*
D03*
Y785000D02*
D03*
Y775000D02*
D03*
Y755000D02*
D03*
X455000Y845000D02*
D03*
Y835000D02*
D03*
Y825000D02*
D03*
Y815000D02*
D03*
Y805000D02*
D03*
Y795000D02*
D03*
Y785000D02*
D03*
Y775000D02*
D03*
Y765000D02*
D03*
X460000Y1005000D02*
D03*
Y1015000D02*
D03*
Y1025000D02*
D03*
Y1035000D02*
D03*
Y1045000D02*
D03*
Y1055000D02*
D03*
X490000Y995000D02*
D03*
Y1005000D02*
D03*
Y1015000D02*
D03*
Y1025000D02*
D03*
Y1035000D02*
D03*
Y1045000D02*
D03*
Y1055000D02*
D03*
X220000Y260000D02*
D03*
Y250000D02*
D03*
Y240000D02*
D03*
Y230000D02*
D03*
Y220000D02*
D03*
Y210000D02*
D03*
Y200000D02*
D03*
Y190000D02*
D03*
X190000Y260000D02*
D03*
Y250000D02*
D03*
Y240000D02*
D03*
Y230000D02*
D03*
Y220000D02*
D03*
Y210000D02*
D03*
Y200000D02*
D03*
X310000Y260000D02*
D03*
Y250000D02*
D03*
Y240000D02*
D03*
Y230000D02*
D03*
Y220000D02*
D03*
Y210000D02*
D03*
Y200000D02*
D03*
Y190000D02*
D03*
X280000Y260000D02*
D03*
Y250000D02*
D03*
Y240000D02*
D03*
Y230000D02*
D03*
Y220000D02*
D03*
Y210000D02*
D03*
Y200000D02*
D03*
X240000Y170000D02*
D03*
Y180000D02*
D03*
Y190000D02*
D03*
Y200000D02*
D03*
Y210000D02*
D03*
Y220000D02*
D03*
Y230000D02*
D03*
Y240000D02*
D03*
Y250000D02*
D03*
X270000Y160000D02*
D03*
Y180000D02*
D03*
Y190000D02*
D03*
Y200000D02*
D03*
Y210000D02*
D03*
Y220000D02*
D03*
Y230000D02*
D03*
Y240000D02*
D03*
Y250000D02*
D03*
X150000Y170000D02*
D03*
Y180000D02*
D03*
Y190000D02*
D03*
Y200000D02*
D03*
Y210000D02*
D03*
Y220000D02*
D03*
Y230000D02*
D03*
Y240000D02*
D03*
Y250000D02*
D03*
X180000Y160000D02*
D03*
Y180000D02*
D03*
Y190000D02*
D03*
Y200000D02*
D03*
Y210000D02*
D03*
Y220000D02*
D03*
Y230000D02*
D03*
Y240000D02*
D03*
Y250000D02*
D03*
X730000Y275000D02*
D03*
Y285000D02*
D03*
Y295000D02*
D03*
Y305000D02*
D03*
Y315000D02*
D03*
Y325000D02*
D03*
Y335000D02*
D03*
Y345000D02*
D03*
X760000Y275000D02*
D03*
Y285000D02*
D03*
Y295000D02*
D03*
Y305000D02*
D03*
Y315000D02*
D03*
Y325000D02*
D03*
Y335000D02*
D03*
X175000Y405000D02*
D03*
X185000D02*
D03*
X195000D02*
D03*
X205000D02*
D03*
X215000D02*
D03*
X225000D02*
D03*
X235000D02*
D03*
X245000D02*
D03*
X175000Y375000D02*
D03*
X185000D02*
D03*
X195000D02*
D03*
X205000D02*
D03*
X215000D02*
D03*
X225000D02*
D03*
X235000D02*
D03*
X710000Y330000D02*
D03*
Y320000D02*
D03*
Y310000D02*
D03*
Y300000D02*
D03*
Y290000D02*
D03*
Y280000D02*
D03*
X680000Y340000D02*
D03*
Y330000D02*
D03*
Y320000D02*
D03*
Y310000D02*
D03*
Y300000D02*
D03*
Y290000D02*
D03*
Y280000D02*
D03*
X630000Y275000D02*
D03*
Y285000D02*
D03*
Y295000D02*
D03*
Y305000D02*
D03*
Y315000D02*
D03*
Y325000D02*
D03*
Y335000D02*
D03*
Y345000D02*
D03*
X660000Y275000D02*
D03*
Y285000D02*
D03*
Y295000D02*
D03*
Y305000D02*
D03*
Y315000D02*
D03*
Y325000D02*
D03*
Y335000D02*
D03*
Y245000D02*
D03*
Y235000D02*
D03*
Y225000D02*
D03*
Y215000D02*
D03*
Y205000D02*
D03*
Y195000D02*
D03*
Y185000D02*
D03*
Y175000D02*
D03*
Y165000D02*
D03*
X630000Y255000D02*
D03*
Y235000D02*
D03*
Y225000D02*
D03*
Y215000D02*
D03*
Y205000D02*
D03*
Y195000D02*
D03*
Y185000D02*
D03*
Y175000D02*
D03*
Y165000D02*
D03*
X710000Y245000D02*
D03*
Y235000D02*
D03*
Y225000D02*
D03*
Y215000D02*
D03*
Y205000D02*
D03*
Y195000D02*
D03*
Y185000D02*
D03*
Y175000D02*
D03*
Y165000D02*
D03*
X680000Y255000D02*
D03*
Y235000D02*
D03*
Y225000D02*
D03*
Y215000D02*
D03*
Y205000D02*
D03*
Y195000D02*
D03*
Y185000D02*
D03*
Y175000D02*
D03*
Y165000D02*
D03*
X760000Y245000D02*
D03*
Y235000D02*
D03*
Y225000D02*
D03*
Y215000D02*
D03*
Y205000D02*
D03*
Y195000D02*
D03*
Y185000D02*
D03*
Y175000D02*
D03*
Y165000D02*
D03*
X730000Y255000D02*
D03*
Y235000D02*
D03*
Y225000D02*
D03*
Y215000D02*
D03*
Y205000D02*
D03*
Y195000D02*
D03*
Y185000D02*
D03*
Y175000D02*
D03*
Y165000D02*
D03*
X435000Y185000D02*
D03*
Y195000D02*
D03*
Y205000D02*
D03*
Y215000D02*
D03*
Y225000D02*
D03*
Y235000D02*
D03*
Y245000D02*
D03*
Y255000D02*
D03*
Y265000D02*
D03*
Y275000D02*
D03*
Y285000D02*
D03*
Y295000D02*
D03*
Y305000D02*
D03*
Y315000D02*
D03*
X495000Y185000D02*
D03*
Y195000D02*
D03*
Y205000D02*
D03*
Y215000D02*
D03*
Y225000D02*
D03*
Y235000D02*
D03*
Y245000D02*
D03*
Y255000D02*
D03*
Y265000D02*
D03*
Y275000D02*
D03*
Y285000D02*
D03*
Y295000D02*
D03*
Y305000D02*
D03*
X335000Y185000D02*
D03*
Y195000D02*
D03*
Y205000D02*
D03*
Y215000D02*
D03*
Y225000D02*
D03*
Y235000D02*
D03*
Y245000D02*
D03*
Y255000D02*
D03*
Y265000D02*
D03*
Y275000D02*
D03*
Y285000D02*
D03*
Y295000D02*
D03*
Y305000D02*
D03*
Y315000D02*
D03*
X395000Y185000D02*
D03*
Y195000D02*
D03*
Y205000D02*
D03*
Y215000D02*
D03*
Y225000D02*
D03*
Y235000D02*
D03*
Y245000D02*
D03*
Y255000D02*
D03*
Y265000D02*
D03*
Y275000D02*
D03*
Y285000D02*
D03*
Y295000D02*
D03*
Y305000D02*
D03*
X535000Y185000D02*
D03*
Y195000D02*
D03*
Y205000D02*
D03*
Y215000D02*
D03*
Y225000D02*
D03*
Y235000D02*
D03*
Y245000D02*
D03*
Y255000D02*
D03*
Y265000D02*
D03*
Y275000D02*
D03*
Y285000D02*
D03*
Y295000D02*
D03*
Y305000D02*
D03*
Y315000D02*
D03*
X595000Y185000D02*
D03*
Y195000D02*
D03*
Y205000D02*
D03*
Y215000D02*
D03*
Y225000D02*
D03*
Y235000D02*
D03*
Y245000D02*
D03*
Y255000D02*
D03*
Y265000D02*
D03*
Y275000D02*
D03*
Y285000D02*
D03*
Y295000D02*
D03*
Y305000D02*
D03*
D29*
X580000Y720000D02*
D03*
Y710000D02*
D03*
D30*
Y715000D02*
D03*
D31*
X390000Y950000D02*
D03*
X485000Y765000D02*
D03*
X270000Y170000D02*
D03*
X180000D02*
D03*
X630000Y245000D02*
D03*
X680000D02*
D03*
X730000D02*
D03*
X635501Y595000D02*
D03*
Y605000D02*
D03*
X625501Y595000D02*
D03*
Y605000D02*
D03*
X615501Y595000D02*
D03*
Y605000D02*
D03*
X605501Y595000D02*
D03*
Y605000D02*
D03*
X595501Y595000D02*
D03*
Y605000D02*
D03*
X585501Y595000D02*
D03*
Y605000D02*
D03*
X575501Y595000D02*
D03*
Y605000D02*
D03*
X565501Y595000D02*
D03*
Y605000D02*
D03*
X555501Y595000D02*
D03*
Y605000D02*
D03*
X545501Y595000D02*
D03*
Y605000D02*
D03*
X535501Y595000D02*
D03*
Y605000D02*
D03*
X525501Y595000D02*
D03*
Y605000D02*
D03*
X515501Y595000D02*
D03*
Y605000D02*
D03*
X505501Y595000D02*
D03*
Y605000D02*
D03*
X495501Y595000D02*
D03*
Y605000D02*
D03*
X485501Y595000D02*
D03*
Y605000D02*
D03*
X475501Y595000D02*
D03*
Y605000D02*
D03*
X465501Y595000D02*
D03*
Y605000D02*
D03*
X455501Y595000D02*
D03*
Y605000D02*
D03*
X445501Y595000D02*
D03*
X165000D02*
D03*
X175000Y605000D02*
D03*
Y595000D02*
D03*
X185000Y605000D02*
D03*
Y595000D02*
D03*
X195000Y605000D02*
D03*
Y595000D02*
D03*
X205000Y605000D02*
D03*
Y595000D02*
D03*
X215000Y605000D02*
D03*
Y595000D02*
D03*
X225000Y605000D02*
D03*
Y595000D02*
D03*
X235000Y605000D02*
D03*
Y595000D02*
D03*
X245000Y605000D02*
D03*
Y595000D02*
D03*
X255000Y605000D02*
D03*
Y595000D02*
D03*
X265000Y605000D02*
D03*
Y595000D02*
D03*
X275000Y605000D02*
D03*
Y595000D02*
D03*
X285000Y605000D02*
D03*
Y595000D02*
D03*
X295000Y605000D02*
D03*
Y595000D02*
D03*
X305000Y605000D02*
D03*
Y595000D02*
D03*
X315000Y605000D02*
D03*
Y595000D02*
D03*
X325000Y605000D02*
D03*
Y595000D02*
D03*
X335000Y605000D02*
D03*
Y595000D02*
D03*
X345000Y605000D02*
D03*
Y595000D02*
D03*
X355000Y605000D02*
D03*
Y595000D02*
D03*
X110000Y600000D02*
D03*
X120000D02*
D03*
X110000Y590000D02*
D03*
X120000D02*
D03*
X110000Y580000D02*
D03*
X120000D02*
D03*
X110000Y570000D02*
D03*
X120000D02*
D03*
X110000Y560000D02*
D03*
X120000D02*
D03*
X110000Y550000D02*
D03*
X120000D02*
D03*
X110000Y540000D02*
D03*
X120000D02*
D03*
X110000Y530000D02*
D03*
X120000D02*
D03*
X110000Y520000D02*
D03*
X120000D02*
D03*
X110000Y510000D02*
D03*
X120000D02*
D03*
X110000Y500000D02*
D03*
X120000D02*
D03*
X110000Y490000D02*
D03*
X120000D02*
D03*
X110000Y480000D02*
D03*
X120000D02*
D03*
X110000Y470000D02*
D03*
X120000D02*
D03*
X110000Y460000D02*
D03*
X120000D02*
D03*
X110000Y450000D02*
D03*
X120000D02*
D03*
X110000Y440000D02*
D03*
X120000D02*
D03*
X110000Y430000D02*
D03*
X120000D02*
D03*
X110000Y420000D02*
D03*
X120000D02*
D03*
X110000Y410000D02*
D03*
X960000Y600000D02*
D03*
X970000D02*
D03*
X960000Y590000D02*
D03*
X970000D02*
D03*
X960000Y580000D02*
D03*
X970000D02*
D03*
X960000Y570000D02*
D03*
X970000D02*
D03*
X960000Y560000D02*
D03*
X970000D02*
D03*
X960000Y550000D02*
D03*
X970000D02*
D03*
X960000Y540000D02*
D03*
X970000D02*
D03*
X960000Y530000D02*
D03*
X970000D02*
D03*
X960000Y520000D02*
D03*
X970000D02*
D03*
X960000Y510000D02*
D03*
X970000D02*
D03*
X960000Y500000D02*
D03*
X970000D02*
D03*
X960000Y490000D02*
D03*
X970000D02*
D03*
X960000Y480000D02*
D03*
X970000D02*
D03*
X960000Y470000D02*
D03*
X970000D02*
D03*
X960000Y460000D02*
D03*
X970000D02*
D03*
X960000Y450000D02*
D03*
X970000D02*
D03*
X960000Y440000D02*
D03*
X970000D02*
D03*
X960000Y430000D02*
D03*
X970000D02*
D03*
X960000Y420000D02*
D03*
X970000D02*
D03*
X960000Y410000D02*
D03*
X110000Y340000D02*
D03*
X120000D02*
D03*
X110000Y330000D02*
D03*
X120000D02*
D03*
X110000Y320000D02*
D03*
X120000D02*
D03*
X110000Y310000D02*
D03*
X120000D02*
D03*
X110000Y300000D02*
D03*
X120000D02*
D03*
X110000Y290000D02*
D03*
X120000D02*
D03*
X110000Y280000D02*
D03*
X120000D02*
D03*
X110000Y270000D02*
D03*
X120000D02*
D03*
X110000Y260000D02*
D03*
X120000D02*
D03*
X110000Y250000D02*
D03*
X120000D02*
D03*
X110000Y240000D02*
D03*
X120000D02*
D03*
X110000Y230000D02*
D03*
X120000D02*
D03*
X110000Y220000D02*
D03*
X120000D02*
D03*
X110000Y210000D02*
D03*
X120000D02*
D03*
X110000Y200000D02*
D03*
X120000D02*
D03*
X110000Y190000D02*
D03*
X120000D02*
D03*
X110000Y180000D02*
D03*
X120000D02*
D03*
X110000Y170000D02*
D03*
X120000D02*
D03*
X110000Y160000D02*
D03*
X120000D02*
D03*
X110000Y150000D02*
D03*
D32*
X245000Y375000D02*
D03*
D33*
X445501Y605000D02*
D03*
X165000D02*
D03*
D34*
X960000Y380000D02*
D03*
Y630000D02*
D03*
X680000D02*
D03*
X960000Y120000D02*
D03*
X400000D02*
D03*
X120000D02*
D03*
Y630000D02*
D03*
X680000Y120000D02*
D03*
X400000Y630000D02*
D03*
X120000Y380000D02*
D03*
D35*
Y410000D02*
D03*
X970000D02*
D03*
X120000Y150000D02*
D03*
D36*
X879921Y203622D02*
D03*
Y201654D02*
D03*
Y199685D02*
D03*
Y197716D02*
D03*
Y195748D02*
D03*
Y193780D02*
D03*
Y191811D02*
D03*
Y189842D02*
D03*
Y187874D02*
D03*
Y185906D02*
D03*
Y183937D02*
D03*
Y181968D02*
D03*
Y180000D02*
D03*
Y178032D02*
D03*
Y176063D02*
D03*
Y174094D02*
D03*
Y172126D02*
D03*
Y170158D02*
D03*
Y168189D02*
D03*
Y166220D02*
D03*
Y164252D02*
D03*
Y162284D02*
D03*
Y160315D02*
D03*
Y158346D02*
D03*
Y156378D02*
D03*
X820079D02*
D03*
Y158346D02*
D03*
Y160315D02*
D03*
Y162284D02*
D03*
Y164252D02*
D03*
Y166220D02*
D03*
Y168189D02*
D03*
Y170158D02*
D03*
Y172126D02*
D03*
Y174094D02*
D03*
Y176063D02*
D03*
Y178032D02*
D03*
Y180000D02*
D03*
Y181968D02*
D03*
Y183937D02*
D03*
Y185906D02*
D03*
Y187874D02*
D03*
Y189842D02*
D03*
Y191811D02*
D03*
Y193780D02*
D03*
Y195748D02*
D03*
Y197716D02*
D03*
Y199685D02*
D03*
Y201654D02*
D03*
Y203622D02*
D03*
D37*
X873622Y150079D02*
D03*
X871653D02*
D03*
X869685D02*
D03*
X867717D02*
D03*
X865748D02*
D03*
X863780D02*
D03*
X861811D02*
D03*
X859842D02*
D03*
X857874D02*
D03*
X855906D02*
D03*
X853937D02*
D03*
X851968D02*
D03*
X850000D02*
D03*
X848032D02*
D03*
X846063D02*
D03*
X844094D02*
D03*
X842126D02*
D03*
X840158D02*
D03*
X838189D02*
D03*
X836220D02*
D03*
X834252D02*
D03*
X832283D02*
D03*
X830315D02*
D03*
X828347D02*
D03*
X826378D02*
D03*
Y209921D02*
D03*
X828347D02*
D03*
X830315D02*
D03*
X832283D02*
D03*
X834252D02*
D03*
X836220D02*
D03*
X838189D02*
D03*
X840158D02*
D03*
X842126D02*
D03*
X844094D02*
D03*
X846063D02*
D03*
X848032D02*
D03*
X850000D02*
D03*
X851968D02*
D03*
X853937D02*
D03*
X855906D02*
D03*
X857874D02*
D03*
X859842D02*
D03*
X861811D02*
D03*
X863780D02*
D03*
X865748D02*
D03*
X867717D02*
D03*
X869685D02*
D03*
X871653D02*
D03*
X873622D02*
D03*
D38*
X625501Y581949D02*
D03*
Y588051D02*
D03*
X615501Y581949D02*
D03*
Y588051D02*
D03*
X605501Y581949D02*
D03*
Y588051D02*
D03*
X595501Y581949D02*
D03*
Y588051D02*
D03*
X585501Y581949D02*
D03*
Y588051D02*
D03*
X575501Y581949D02*
D03*
Y588051D02*
D03*
X565501Y581949D02*
D03*
Y588051D02*
D03*
X555501Y581949D02*
D03*
Y588051D02*
D03*
X545501Y581949D02*
D03*
Y588051D02*
D03*
X535501Y581949D02*
D03*
Y588051D02*
D03*
X525501Y581949D02*
D03*
Y588051D02*
D03*
X515501Y581949D02*
D03*
Y588051D02*
D03*
X505501Y581949D02*
D03*
Y588051D02*
D03*
X495501Y581949D02*
D03*
Y588051D02*
D03*
X485501Y581949D02*
D03*
Y588051D02*
D03*
X475501Y581949D02*
D03*
Y588051D02*
D03*
X455501Y581949D02*
D03*
Y588051D02*
D03*
X625501Y573051D02*
D03*
Y566949D02*
D03*
X615501Y573051D02*
D03*
Y566949D02*
D03*
X605501Y573051D02*
D03*
Y566949D02*
D03*
X595501Y573051D02*
D03*
Y566949D02*
D03*
X585501Y573051D02*
D03*
Y566949D02*
D03*
X575501Y573051D02*
D03*
Y566949D02*
D03*
X565501Y573051D02*
D03*
Y566949D02*
D03*
X555501Y573051D02*
D03*
Y566949D02*
D03*
X630501Y588051D02*
D03*
Y581949D02*
D03*
X620501Y588051D02*
D03*
Y581949D02*
D03*
X610501Y588051D02*
D03*
Y581949D02*
D03*
X600501Y588051D02*
D03*
Y581949D02*
D03*
X590501Y588051D02*
D03*
Y581949D02*
D03*
X580501Y588051D02*
D03*
Y581949D02*
D03*
X570501Y588051D02*
D03*
Y581949D02*
D03*
X560501Y588051D02*
D03*
Y581949D02*
D03*
X545501Y573051D02*
D03*
Y566949D02*
D03*
X535501Y573051D02*
D03*
Y566949D02*
D03*
X525501Y573051D02*
D03*
Y566949D02*
D03*
X515501Y573051D02*
D03*
Y566949D02*
D03*
X505501Y573051D02*
D03*
Y566949D02*
D03*
X495501Y573051D02*
D03*
Y566949D02*
D03*
X485501Y573051D02*
D03*
Y566949D02*
D03*
X475501Y573051D02*
D03*
Y566949D02*
D03*
X550501Y588051D02*
D03*
Y581949D02*
D03*
X540501Y588051D02*
D03*
Y581949D02*
D03*
X530501Y588051D02*
D03*
Y581949D02*
D03*
X520501Y588051D02*
D03*
Y581949D02*
D03*
X510501Y588051D02*
D03*
Y581949D02*
D03*
X500501Y588051D02*
D03*
Y581949D02*
D03*
X490501Y588051D02*
D03*
Y581949D02*
D03*
X480501Y588051D02*
D03*
Y581949D02*
D03*
X455501Y573051D02*
D03*
Y566949D02*
D03*
X460501Y588051D02*
D03*
Y581949D02*
D03*
X345000D02*
D03*
Y588051D02*
D03*
X335000Y581949D02*
D03*
Y588051D02*
D03*
X325000Y581949D02*
D03*
Y588051D02*
D03*
X315000Y581949D02*
D03*
Y588051D02*
D03*
X305000Y581949D02*
D03*
Y588051D02*
D03*
X295000Y581949D02*
D03*
Y588051D02*
D03*
X285000Y581949D02*
D03*
Y588051D02*
D03*
X275000Y581949D02*
D03*
Y588051D02*
D03*
X265000Y581949D02*
D03*
Y588051D02*
D03*
X255000Y581949D02*
D03*
Y588051D02*
D03*
X245000Y581949D02*
D03*
Y588051D02*
D03*
X235000Y581949D02*
D03*
Y588051D02*
D03*
X225000Y581949D02*
D03*
Y588051D02*
D03*
X215000Y581949D02*
D03*
Y588051D02*
D03*
X205000Y581949D02*
D03*
Y588051D02*
D03*
X195000Y581949D02*
D03*
Y588051D02*
D03*
X175000Y581949D02*
D03*
Y588051D02*
D03*
X345000Y573051D02*
D03*
Y566949D02*
D03*
X335000Y573051D02*
D03*
Y566949D02*
D03*
X325000Y573051D02*
D03*
Y566949D02*
D03*
X315000Y573051D02*
D03*
Y566949D02*
D03*
X305000Y573051D02*
D03*
Y566949D02*
D03*
X295000Y573051D02*
D03*
Y566949D02*
D03*
X285000Y573051D02*
D03*
Y566949D02*
D03*
X275000Y573051D02*
D03*
Y566949D02*
D03*
X350000Y588051D02*
D03*
Y581949D02*
D03*
X340000Y588051D02*
D03*
Y581949D02*
D03*
X330000Y588051D02*
D03*
Y581949D02*
D03*
X320000Y588051D02*
D03*
Y581949D02*
D03*
X310000Y588051D02*
D03*
Y581949D02*
D03*
X300000Y588051D02*
D03*
Y581949D02*
D03*
X290000Y588051D02*
D03*
Y581949D02*
D03*
X280000Y588051D02*
D03*
Y581949D02*
D03*
X265000Y573051D02*
D03*
Y566949D02*
D03*
X255000Y573051D02*
D03*
Y566949D02*
D03*
X245000Y573051D02*
D03*
Y566949D02*
D03*
X235000Y573051D02*
D03*
Y566949D02*
D03*
X225000Y573051D02*
D03*
Y566949D02*
D03*
X215000Y573051D02*
D03*
Y566949D02*
D03*
X205000Y573051D02*
D03*
Y566949D02*
D03*
X195000Y573051D02*
D03*
Y566949D02*
D03*
X270000Y588051D02*
D03*
Y581949D02*
D03*
X260000Y588051D02*
D03*
Y581949D02*
D03*
X250000Y588051D02*
D03*
Y581949D02*
D03*
X240000Y588051D02*
D03*
Y581949D02*
D03*
X230000Y588051D02*
D03*
Y581949D02*
D03*
X220000Y588051D02*
D03*
Y581949D02*
D03*
X210000Y588051D02*
D03*
Y581949D02*
D03*
X200000Y588051D02*
D03*
Y581949D02*
D03*
X175000Y573051D02*
D03*
Y566949D02*
D03*
X180000Y588051D02*
D03*
Y581949D02*
D03*
M02*
