G04*
G04 #@! TF.GenerationSoftware,Altium Limited,Altium Designer,21.9.1 (22)*
G04*
G04 Layer_Color=65535*
%FSLAX25Y25*%
%MOIN*%
G70*
G04*
G04 #@! TF.SameCoordinates,3B0F3E88-4553-4837-8599-20987A4D8A80*
G04*
G04*
G04 #@! TF.FilePolarity,Positive*
G04*
G01*
G75*
%ADD10C,0.00787*%
%ADD11C,0.00800*%
%ADD12C,0.01000*%
D10*
X456000Y221500D02*
G03*
X456000Y216500I0J-2500D01*
G01*
X167500Y115787D02*
G03*
X162500Y115787I-2500J0D01*
G01*
X237500Y188779D02*
G03*
X242500Y188779I2500J0D01*
G01*
X202500Y288779D02*
G03*
X207500Y288779I2500J0D01*
G01*
X456000Y221500D02*
Y244394D01*
Y193606D02*
Y216500D01*
X306000Y193606D02*
Y244394D01*
X456000D01*
X306000Y193606D02*
X456000D01*
X105000Y115000D02*
Y315000D01*
X86667Y311667D02*
X100000D01*
X85000Y310000D02*
X86667Y311667D01*
X85000Y310000D02*
X86667Y308333D01*
X100000D01*
X86667Y301667D02*
X100000D01*
X85000Y300000D02*
X86667Y301667D01*
X85000Y300000D02*
X86667Y298333D01*
X100000D01*
X86667Y291667D02*
X100000D01*
X85000Y290000D02*
X86667Y291667D01*
X85000Y290000D02*
X86667Y288333D01*
X100000D01*
X86667Y281667D02*
X100000D01*
X85000Y280000D02*
X86667Y281667D01*
X85000Y280000D02*
X86667Y278333D01*
X100000D01*
X86667Y271667D02*
X100000D01*
X85000Y270000D02*
X86667Y271667D01*
X85000Y270000D02*
X86667Y268333D01*
X100000D01*
X86667Y261667D02*
X100000D01*
X85000Y260000D02*
X86667Y261667D01*
X85000Y260000D02*
X86667Y258333D01*
X100000D01*
X86667Y251667D02*
X100000D01*
X85000Y250000D02*
X86667Y251667D01*
X85000Y250000D02*
X86667Y248333D01*
X100000D01*
X86667Y241667D02*
X100000D01*
X85000Y240000D02*
X86667Y241667D01*
X85000Y240000D02*
X86667Y238333D01*
X100000D01*
X86667Y231667D02*
X100000D01*
X85000Y230000D02*
X86667Y231667D01*
X85000Y230000D02*
X86667Y228333D01*
X100000D01*
X86667Y221667D02*
X100000D01*
X85000Y220000D02*
X86667Y221667D01*
X85000Y220000D02*
X86667Y218333D01*
X100000D01*
X86667Y211667D02*
X100000D01*
X85000Y210000D02*
X86667Y211667D01*
X85000Y210000D02*
X86667Y208333D01*
X100000D01*
X86667Y201667D02*
X100000D01*
X85000Y200000D02*
X86667Y201667D01*
X85000Y200000D02*
X86667Y198333D01*
X100000D01*
X86667Y191667D02*
X100000D01*
X85000Y190000D02*
X86667Y191667D01*
X85000Y190000D02*
X86667Y188333D01*
X100000D01*
X86667Y181667D02*
X100000D01*
X85000Y180000D02*
X86667Y181667D01*
X85000Y180000D02*
X86667Y178333D01*
X100000D01*
X86667Y171667D02*
X100000D01*
X85000Y170000D02*
X86667Y171667D01*
X85000Y170000D02*
X86667Y168333D01*
X100000D01*
X86667Y161667D02*
X100000D01*
X85000Y160000D02*
X86667Y161667D01*
X85000Y160000D02*
X86667Y158333D01*
X100000D01*
X86667Y151667D02*
X100000D01*
X85000Y150000D02*
X86667Y151667D01*
X85000Y150000D02*
X86667Y148333D01*
X100000D01*
X86667Y141667D02*
X100000D01*
X85000Y140000D02*
X86667Y141667D01*
X85000Y140000D02*
X86667Y138333D01*
X100000D01*
X86667Y131667D02*
X100000D01*
X85000Y130000D02*
X86667Y131667D01*
X85000Y130000D02*
X86667Y128333D01*
X100000D01*
X86667Y121667D02*
X100000D01*
X85000Y120000D02*
X86667Y121667D01*
X85000Y120000D02*
X86667Y118333D01*
X100000D01*
X102500Y115000D02*
X105000Y117500D01*
X100000Y315000D02*
X105000D01*
X100000Y115000D02*
Y315000D01*
Y115000D02*
X105000D01*
X154567Y115787D02*
Y214213D01*
X175433Y115787D02*
Y214213D01*
X154567D02*
X175433D01*
X154567Y115787D02*
X162500D01*
X167500D02*
X175433D01*
X229567Y188779D02*
X237500D01*
X242500D02*
X250433D01*
X229567Y111221D02*
X250433D01*
X229567D02*
Y188779D01*
X250433Y111221D02*
Y188779D01*
X194567Y288779D02*
X202500D01*
X207500D02*
X215433D01*
X194567Y211221D02*
X215433D01*
X194567D02*
Y288779D01*
X215433Y211221D02*
Y288779D01*
D11*
X118000Y113332D02*
Y110000D01*
X121332Y113332D01*
X122165D01*
X122998Y112499D01*
Y110833D01*
X122165Y110000D01*
X108000Y112000D02*
Y113666D01*
Y112833D01*
X112998D01*
X112165Y112000D01*
Y316000D02*
X112998Y316833D01*
Y318499D01*
X112165Y319332D01*
X111332D01*
X110499Y318499D01*
Y317666D01*
Y318499D01*
X109666Y319332D01*
X108833D01*
X108000Y318499D01*
Y316833D01*
X108833Y316000D01*
Y320998D02*
X108000Y321831D01*
Y323498D01*
X108833Y324331D01*
X112165D01*
X112998Y323498D01*
Y321831D01*
X112165Y320998D01*
X111332D01*
X110499Y321831D01*
Y324331D01*
X118000Y318499D02*
X122998D01*
X120499Y316000D01*
Y319332D01*
X122165Y320998D02*
X122998Y321831D01*
Y323498D01*
X122165Y324331D01*
X118833D01*
X118000Y323498D01*
Y321831D01*
X118833Y320998D01*
X122165D01*
D12*
X85600Y328100D02*
Y334098D01*
X88599D01*
X89599Y333098D01*
Y331099D01*
X88599Y330099D01*
X85600D01*
X91598Y328100D02*
X93597D01*
X92598D01*
Y334098D01*
X91598Y333098D01*
X306600Y261398D02*
Y256400D01*
X307600Y255400D01*
X309599D01*
X310599Y256400D01*
Y261398D01*
X312598Y260398D02*
X313598Y261398D01*
X315597D01*
X316597Y260398D01*
Y259399D01*
X314597Y257399D01*
Y256400D02*
Y255400D01*
X221000Y198198D02*
Y193200D01*
X222000Y192200D01*
X223999D01*
X224999Y193200D01*
Y198198D01*
X226998Y197198D02*
X227998Y198198D01*
X229997D01*
X230997Y197198D01*
Y196199D01*
X229997Y195199D01*
X228997D01*
X229997D01*
X230997Y194199D01*
Y193200D01*
X229997Y192200D01*
X227998D01*
X226998Y193200D01*
X186000Y298198D02*
Y293200D01*
X187000Y292200D01*
X188999D01*
X189999Y293200D01*
Y298198D01*
X195997Y292200D02*
X191998D01*
X195997Y296199D01*
Y297198D01*
X194997Y298198D01*
X192998D01*
X191998Y297198D01*
X145800Y225498D02*
Y220500D01*
X146800Y219500D01*
X148799D01*
X149799Y220500D01*
Y225498D01*
X154797Y219500D02*
Y225498D01*
X151798Y222499D01*
X155797D01*
M02*
