G04*
G04 #@! TF.GenerationSoftware,Altium Limited,Altium Designer,21.9.1 (22)*
G04*
G04 Layer_Physical_Order=1*
G04 Layer_Color=255*
%FSLAX25Y25*%
%MOIN*%
G70*
G04*
G04 #@! TF.SameCoordinates,09011E39-4F28-45AE-BCC4-A3E871BFE86D*
G04*
G04*
G04 #@! TF.FilePolarity,Positive*
G04*
G01*
G75*
%ADD24C,0.00800*%
%ADD25C,0.02000*%
%ADD26C,0.08268*%
%ADD27C,0.05906*%
%ADD28R,0.05906X0.05906*%
%ADD29R,0.04921X0.04921*%
%ADD30C,0.04921*%
%ADD31R,0.04921X0.04921*%
%ADD32C,0.05906*%
%ADD33R,0.05906X0.05906*%
%ADD34C,0.05000*%
%ADD35C,0.02000*%
G36*
X157286Y349300D02*
X157225Y349357D01*
X157160Y349408D01*
X157090Y349453D01*
X157016Y349492D01*
X156938Y349525D01*
X156856Y349552D01*
X156769Y349573D01*
X156678Y349588D01*
X156583Y349597D01*
X156483Y349600D01*
Y350400D01*
X156583Y350403D01*
X156678Y350412D01*
X156769Y350427D01*
X156856Y350448D01*
X156938Y350475D01*
X157016Y350508D01*
X157090Y350547D01*
X157160Y350592D01*
X157225Y350643D01*
X157286Y350700D01*
Y349300D01*
D02*
G37*
G36*
X132429Y351750D02*
X133028Y351217D01*
X133307Y351000D01*
X133573Y350817D01*
X133825Y350667D01*
X134063Y350550D01*
X134288Y350467D01*
X134500Y350417D01*
X134697Y350400D01*
Y349600D01*
X134500Y349583D01*
X134288Y349533D01*
X134063Y349450D01*
X133825Y349333D01*
X133573Y349183D01*
X133307Y349000D01*
X133028Y348783D01*
X132429Y348250D01*
X132109Y347933D01*
Y352067D01*
X132429Y351750D01*
D02*
G37*
G36*
X313786Y343453D02*
X313725Y343510D01*
X313660Y343561D01*
X313590Y343606D01*
X313516Y343645D01*
X313438Y343678D01*
X313356Y343705D01*
X313269Y343726D01*
X313178Y343741D01*
X313083Y343750D01*
X312983Y343753D01*
X312983Y344553D01*
X313083Y344556D01*
X313178Y344565D01*
X313269Y344580D01*
X313356Y344601D01*
X313438Y344628D01*
X313516Y344661D01*
X313590Y344700D01*
X313660Y344745D01*
X313725Y344796D01*
X313786Y344853D01*
X313786Y343453D01*
D02*
G37*
G36*
X315275Y344796D02*
X315340Y344745D01*
X315410Y344700D01*
X315484Y344661D01*
X315562Y344628D01*
X315644Y344601D01*
X315731Y344580D01*
X315822Y344565D01*
X315917Y344556D01*
X316017Y344553D01*
Y343753D01*
X315917Y343750D01*
X315822Y343741D01*
X315731Y343726D01*
X315644Y343705D01*
X315562Y343678D01*
X315484Y343645D01*
X315410Y343606D01*
X315340Y343561D01*
X315275Y343510D01*
X315214Y343453D01*
Y344853D01*
X315275Y344796D01*
D02*
G37*
G36*
X326330Y344259D02*
X326547Y344111D01*
X326780Y343993D01*
X327031Y343903D01*
X327298Y343844D01*
X327582Y343813D01*
X327883Y343811D01*
X328201Y343839D01*
X328536Y343895D01*
X328888Y343981D01*
X326019Y341112D01*
X326105Y341464D01*
X326161Y341799D01*
X326189Y342117D01*
X326187Y342418D01*
X326156Y342702D01*
X326097Y342969D01*
X326007Y343220D01*
X325889Y343453D01*
X325741Y343670D01*
X325564Y343870D01*
X326130Y344436D01*
X326330Y344259D01*
D02*
G37*
G36*
X159786Y340300D02*
X159725Y340357D01*
X159660Y340408D01*
X159590Y340453D01*
X159516Y340492D01*
X159438Y340525D01*
X159356Y340552D01*
X159269Y340573D01*
X159178Y340588D01*
X159083Y340597D01*
X158984Y340600D01*
Y341400D01*
X159083Y341403D01*
X159178Y341412D01*
X159269Y341427D01*
X159356Y341448D01*
X159438Y341475D01*
X159516Y341508D01*
X159590Y341547D01*
X159660Y341592D01*
X159725Y341643D01*
X159786Y341700D01*
Y340300D01*
D02*
G37*
G36*
X123604Y343039D02*
X123476Y342887D01*
X123362Y342702D01*
X123262Y342484D01*
X123176Y342233D01*
X123104Y341949D01*
X123046Y341631D01*
X123001Y341281D01*
X122955Y340480D01*
X122953Y340030D01*
X120029Y342953D01*
X120480Y342955D01*
X121281Y343002D01*
X121631Y343046D01*
X121949Y343104D01*
X122233Y343176D01*
X122484Y343262D01*
X122702Y343362D01*
X122887Y343476D01*
X123039Y343604D01*
X123604Y343039D01*
D02*
G37*
G36*
X132554Y341538D02*
X132771Y341299D01*
X132987Y341089D01*
X133204Y340906D01*
X133420Y340751D01*
X133636Y340625D01*
X133853Y340527D01*
X134069Y340456D01*
X134284Y340414D01*
X134500Y340400D01*
Y339600D01*
X134284Y339586D01*
X134069Y339544D01*
X133853Y339474D01*
X133636Y339375D01*
X133420Y339249D01*
X133204Y339094D01*
X132987Y338912D01*
X132771Y338701D01*
X132554Y338462D01*
X132337Y338195D01*
Y341805D01*
X132554Y341538D01*
D02*
G37*
G36*
X253786Y337300D02*
X253725Y337357D01*
X253660Y337408D01*
X253590Y337453D01*
X253516Y337492D01*
X253438Y337525D01*
X253356Y337552D01*
X253269Y337573D01*
X253178Y337588D01*
X253083Y337597D01*
X252983Y337600D01*
Y338400D01*
X253083Y338403D01*
X253178Y338412D01*
X253269Y338427D01*
X253356Y338448D01*
X253438Y338475D01*
X253516Y338508D01*
X253590Y338547D01*
X253660Y338592D01*
X253725Y338643D01*
X253786Y338700D01*
Y337300D01*
D02*
G37*
G36*
X255503Y337907D02*
X255513Y337824D01*
X255530Y337743D01*
X255555Y337664D01*
X255587Y337585D01*
X255626Y337508D01*
X255672Y337432D01*
X255726Y337357D01*
X255787Y337283D01*
X255855Y337210D01*
X255290Y336645D01*
X255217Y336713D01*
X255143Y336774D01*
X255068Y336828D01*
X254992Y336874D01*
X254915Y336913D01*
X254836Y336945D01*
X254757Y336970D01*
X254676Y336987D01*
X254593Y336997D01*
X254510Y337000D01*
X255500Y337990D01*
X255503Y337907D01*
D02*
G37*
G36*
X162286Y335000D02*
X162225Y335057D01*
X162160Y335108D01*
X162090Y335153D01*
X162016Y335192D01*
X161938Y335225D01*
X161856Y335252D01*
X161769Y335273D01*
X161678Y335288D01*
X161583Y335297D01*
X161484Y335300D01*
Y336100D01*
X161583Y336103D01*
X161678Y336112D01*
X161769Y336127D01*
X161856Y336148D01*
X161938Y336175D01*
X162016Y336208D01*
X162090Y336247D01*
X162160Y336292D01*
X162225Y336343D01*
X162286Y336400D01*
Y335000D01*
D02*
G37*
G36*
X223786Y332800D02*
X223725Y332857D01*
X223660Y332908D01*
X223590Y332953D01*
X223516Y332992D01*
X223438Y333025D01*
X223356Y333052D01*
X223269Y333073D01*
X223178Y333088D01*
X223083Y333097D01*
X222984Y333100D01*
Y333900D01*
X223083Y333903D01*
X223178Y333912D01*
X223269Y333927D01*
X223356Y333948D01*
X223438Y333975D01*
X223516Y334008D01*
X223590Y334047D01*
X223660Y334092D01*
X223725Y334143D01*
X223786Y334200D01*
Y332800D01*
D02*
G37*
G36*
X267048Y332106D02*
X266571Y332580D01*
X265292Y333702D01*
X264915Y333977D01*
X264563Y334201D01*
X264236Y334376D01*
X263934Y334500D01*
X263657Y334575D01*
X263405Y334600D01*
Y335400D01*
X263657Y335425D01*
X263934Y335500D01*
X264236Y335624D01*
X264563Y335799D01*
X264915Y336023D01*
X265292Y336298D01*
X266120Y336996D01*
X266571Y337420D01*
X267048Y337894D01*
Y332106D01*
D02*
G37*
G36*
X164786Y330300D02*
X164725Y330357D01*
X164660Y330408D01*
X164590Y330453D01*
X164516Y330492D01*
X164438Y330525D01*
X164356Y330552D01*
X164269Y330573D01*
X164178Y330588D01*
X164083Y330597D01*
X163984Y330600D01*
Y331400D01*
X164083Y331403D01*
X164178Y331412D01*
X164269Y331427D01*
X164356Y331448D01*
X164438Y331475D01*
X164516Y331508D01*
X164590Y331547D01*
X164660Y331592D01*
X164725Y331643D01*
X164786Y331700D01*
Y330300D01*
D02*
G37*
G36*
X123604Y333039D02*
X123476Y332887D01*
X123362Y332702D01*
X123262Y332484D01*
X123176Y332233D01*
X123104Y331949D01*
X123046Y331631D01*
X123001Y331281D01*
X122955Y330480D01*
X122953Y330030D01*
X120029Y332953D01*
X120480Y332955D01*
X121281Y333001D01*
X121631Y333046D01*
X121949Y333104D01*
X122233Y333176D01*
X122484Y333262D01*
X122702Y333362D01*
X122887Y333476D01*
X123039Y333604D01*
X123604Y333039D01*
D02*
G37*
G36*
X132554Y331538D02*
X132771Y331299D01*
X132987Y331088D01*
X133204Y330906D01*
X133420Y330751D01*
X133636Y330625D01*
X133853Y330526D01*
X134069Y330456D01*
X134284Y330414D01*
X134500Y330400D01*
Y329600D01*
X134284Y329586D01*
X134069Y329544D01*
X133853Y329473D01*
X133636Y329375D01*
X133420Y329249D01*
X133204Y329094D01*
X132987Y328911D01*
X132771Y328701D01*
X132554Y328462D01*
X132337Y328195D01*
Y331805D01*
X132554Y331538D01*
D02*
G37*
G36*
X494286Y327961D02*
X494225Y328018D01*
X494160Y328069D01*
X494090Y328114D01*
X494016Y328153D01*
X493938Y328186D01*
X493856Y328213D01*
X493769Y328234D01*
X493678Y328249D01*
X493583Y328258D01*
X493483Y328261D01*
X493483Y329061D01*
X493583Y329064D01*
X493678Y329073D01*
X493769Y329088D01*
X493856Y329109D01*
X493938Y329136D01*
X494016Y329169D01*
X494090Y329208D01*
X494160Y329253D01*
X494225Y329304D01*
X494286Y329361D01*
X494286Y327961D01*
D02*
G37*
G36*
X226286Y325300D02*
X226225Y325357D01*
X226160Y325408D01*
X226090Y325453D01*
X226016Y325492D01*
X225938Y325525D01*
X225856Y325552D01*
X225769Y325573D01*
X225678Y325588D01*
X225583Y325597D01*
X225483Y325600D01*
Y326400D01*
X225583Y326403D01*
X225678Y326412D01*
X225769Y326427D01*
X225856Y326448D01*
X225938Y326475D01*
X226016Y326508D01*
X226090Y326547D01*
X226160Y326592D01*
X226225Y326643D01*
X226286Y326700D01*
Y325300D01*
D02*
G37*
G36*
X616470Y343538D02*
X616470Y126462D01*
X602557Y112549D01*
X136664D01*
X135453Y114547D01*
X135453Y115033D01*
X135492Y117533D01*
X146055D01*
X146132Y117515D01*
X146299Y117510D01*
X146368Y117504D01*
X146415Y117496D01*
X146430Y117492D01*
X146474Y117451D01*
X146651Y117341D01*
X146930Y117062D01*
X148070Y116404D01*
X149342Y116063D01*
X150658D01*
X151930Y116404D01*
X153070Y117062D01*
X153349Y117341D01*
X153526Y117451D01*
X153570Y117492D01*
X153585Y117496D01*
X153632Y117504D01*
X153701Y117510D01*
X153868Y117515D01*
X153945Y117533D01*
X175039D01*
Y116102D01*
X184961D01*
Y126024D01*
X184961D01*
X183748Y128000D01*
X183505Y127993D01*
X183270Y127970D01*
X183046Y127933D01*
X182834Y127882D01*
X182633Y127815D01*
X182444Y127734D01*
X182266Y127638D01*
X182099Y127526D01*
X181944Y127401D01*
X181801Y127260D01*
X181771Y128437D01*
X180000D01*
X178243D01*
Y127215D01*
X178096Y127352D01*
X177937Y127475D01*
X177768Y127583D01*
X177588Y127677D01*
X177397Y127756D01*
X177195Y127821D01*
X176981Y127872D01*
X176757Y127908D01*
X176522Y127930D01*
X176275Y127937D01*
Y128039D01*
X176262Y128017D01*
X175039Y126024D01*
Y126024D01*
X173132Y124593D01*
X153945D01*
X153868Y124611D01*
X153701Y124616D01*
X153632Y124622D01*
X153585Y124630D01*
X153570Y124634D01*
X153526Y124675D01*
X153349Y124785D01*
X153070Y125064D01*
X151930Y125722D01*
X150658Y126063D01*
X149342D01*
X148070Y125722D01*
X146930Y125064D01*
X146651Y124785D01*
X146474Y124675D01*
X146430Y124634D01*
X146415Y124630D01*
X146368Y124622D01*
X146299Y124616D01*
X146132Y124611D01*
X146055Y124593D01*
X135453D01*
Y125453D01*
X134578D01*
X133830Y126574D01*
X133396Y127909D01*
X133103Y127881D01*
X132840Y127837D01*
X132308Y127712D01*
X132039Y127631D01*
X131497Y127431D01*
X131223Y127313D01*
X132067Y129500D01*
X130000D01*
Y130500D01*
X132453D01*
X132711Y131169D01*
X132827Y130935D01*
X132962Y130726D01*
X133116Y130541D01*
X133160Y130500D01*
X133953D01*
Y130520D01*
X136124Y132075D01*
X137500D01*
X138257Y132175D01*
X138962Y132467D01*
X139568Y132932D01*
X142539Y135903D01*
X145039Y134867D01*
Y130039D01*
X154961D01*
Y131585D01*
X155868Y132139D01*
X157461Y132488D01*
X157718Y132231D01*
X158507Y131775D01*
X158974Y131650D01*
X158969Y131694D01*
X158931Y131917D01*
X158878Y132127D01*
X158809Y132326D01*
X158725Y132512D01*
X158626Y132686D01*
X158511Y132849D01*
X158381Y132998D01*
X158236Y133136D01*
X159343Y133207D01*
Y135000D01*
X159843D01*
Y135500D01*
X163361D01*
X165411Y137075D01*
X195763D01*
X196156Y136596D01*
X196848Y134108D01*
X195892Y133152D01*
X195216Y131982D01*
X194866Y130676D01*
Y130500D01*
X195020D01*
X195058Y130523D01*
X195357Y130754D01*
X195645Y131026D01*
X195920Y131340D01*
X196184Y131696D01*
X196435Y132094D01*
X196833Y130500D01*
X202952D01*
Y132894D01*
X203322Y132534D01*
X204050Y131928D01*
X204409Y131682D01*
X204765Y131473D01*
X204943Y131387D01*
X204784Y131982D01*
X204108Y133152D01*
X203152Y134108D01*
X203844Y136596D01*
X204237Y137075D01*
X214986D01*
X215050Y137037D01*
X215186Y136943D01*
X215341Y136822D01*
X215826Y136391D01*
X216098Y136121D01*
X216302Y135987D01*
X216652Y135637D01*
X216755Y135577D01*
X217033Y134756D01*
X217101Y132763D01*
X217059Y132649D01*
X216837Y132427D01*
X216317Y131526D01*
X216198Y131084D01*
X216256Y131096D01*
X216511Y131171D01*
X216758Y131267D01*
X216999Y131384D01*
X217232Y131523D01*
X217459Y131683D01*
X217679Y131864D01*
X217891Y132067D01*
Y130500D01*
X223953D01*
Y130520D01*
X223683Y131526D01*
X223163Y132427D01*
X222941Y132649D01*
X222899Y132763D01*
X222967Y134756D01*
X223245Y135577D01*
X223348Y135637D01*
X223698Y135987D01*
X223902Y136121D01*
X224174Y136391D01*
X224658Y136822D01*
X224814Y136943D01*
X224950Y137037D01*
X225014Y137075D01*
X242916D01*
X246140Y133851D01*
X245637Y133348D01*
X244919Y132105D01*
X244547Y130718D01*
Y129282D01*
X244919Y127895D01*
X245637Y126652D01*
X246652Y125637D01*
X247895Y124919D01*
X249282Y124547D01*
X250718D01*
X252105Y124919D01*
X253348Y125637D01*
X254363Y126652D01*
X255081Y127895D01*
X255453Y129282D01*
Y130718D01*
X257365Y132922D01*
X274236D01*
X274665Y132634D01*
X276043Y130526D01*
X276045Y130500D01*
X283953D01*
Y130520D01*
X283683Y131526D01*
X283163Y132427D01*
X282941Y132649D01*
X282899Y132763D01*
X282967Y134756D01*
X283242Y135569D01*
X283254Y135583D01*
X283348Y135637D01*
X284363Y136652D01*
X284736Y137298D01*
X284758Y137323D01*
X285116Y137175D01*
X285873Y137075D01*
X304986D01*
X305050Y137037D01*
X305186Y136943D01*
X305342Y136822D01*
X305566Y136623D01*
X305844Y136043D01*
X305949Y134052D01*
X305637Y133348D01*
X304919Y132105D01*
X304547Y130718D01*
Y129282D01*
X304919Y127895D01*
X305637Y126652D01*
X306652Y125637D01*
X307895Y124919D01*
X309282Y124547D01*
X310718D01*
X312105Y124919D01*
X313348Y125637D01*
X314363Y126652D01*
X315081Y127895D01*
X315453Y129282D01*
Y130718D01*
X315081Y132105D01*
X314363Y133348D01*
X313631Y135000D01*
X314363Y136652D01*
X315081Y137895D01*
X315453Y139282D01*
Y140718D01*
X315081Y142105D01*
X314363Y143348D01*
X313631Y145000D01*
X314363Y146652D01*
X315081Y147895D01*
X315453Y149282D01*
Y150718D01*
X315081Y152105D01*
X314363Y153348D01*
X314143Y153845D01*
X314061Y154240D01*
X314156Y156043D01*
X314435Y156623D01*
X314658Y156822D01*
X314814Y156943D01*
X314950Y157037D01*
X315014Y157075D01*
X320066D01*
X320649Y156738D01*
X321539Y156500D01*
X322461D01*
X323351Y156738D01*
X324149Y157199D01*
X324801Y157851D01*
X325261Y158649D01*
X325500Y159539D01*
Y160461D01*
X325261Y161351D01*
X324801Y162149D01*
X324149Y162801D01*
X323351Y163261D01*
X322461Y163500D01*
X321539D01*
X320649Y163261D01*
X320066Y162925D01*
X315183D01*
X314847Y163664D01*
X314828Y163745D01*
X314728Y164389D01*
X314720Y164522D01*
X314773Y165705D01*
X316047Y167075D01*
X317566D01*
X318149Y166738D01*
X319039Y166500D01*
X319961D01*
X320851Y166738D01*
X321649Y167199D01*
X322301Y167851D01*
X322762Y168649D01*
X323000Y169539D01*
Y170461D01*
X322762Y171351D01*
X322301Y172149D01*
X321649Y172801D01*
X320851Y173261D01*
X319961Y173500D01*
X319039D01*
X318149Y173261D01*
X317566Y172925D01*
X315540D01*
X314801Y174402D01*
X314945Y175645D01*
X316253Y176577D01*
X316539Y176500D01*
X317461D01*
X318351Y176739D01*
X319149Y177199D01*
X319801Y177851D01*
X320262Y178649D01*
X320500Y179539D01*
Y180461D01*
X320262Y181351D01*
X319801Y182149D01*
X319149Y182801D01*
X318351Y183262D01*
X317461Y183500D01*
X316539D01*
X316253Y183423D01*
X316140Y183504D01*
X315721Y186724D01*
X316047Y187075D01*
X384986D01*
X385050Y187037D01*
X385186Y186943D01*
X385342Y186822D01*
X385826Y186391D01*
X386098Y186121D01*
X386302Y185987D01*
X386652Y185637D01*
X386755Y185577D01*
X387033Y184756D01*
X387101Y182763D01*
X387059Y182649D01*
X386837Y182427D01*
X386317Y181526D01*
X386047Y180520D01*
Y180500D01*
X392109D01*
Y182067D01*
X392321Y181864D01*
X392541Y181683D01*
X392768Y181523D01*
X393001Y181384D01*
X393242Y181267D01*
X393490Y181171D01*
X393744Y181096D01*
X393802Y181084D01*
X393683Y181526D01*
X393163Y182427D01*
X392941Y182649D01*
X392899Y182763D01*
X392967Y184756D01*
X393245Y185577D01*
X393348Y185637D01*
X394363Y186652D01*
X395081Y187895D01*
X395453Y189282D01*
Y190718D01*
X395081Y192105D01*
X395453Y194547D01*
X395453Y194547D01*
Y205453D01*
X397532Y206470D01*
X415000D01*
X415292Y206508D01*
X415397Y206522D01*
X416652Y204363D01*
X416493Y204204D01*
X415637Y203348D01*
X414919Y202105D01*
X414547Y200718D01*
Y199282D01*
X414919Y197895D01*
X415637Y196652D01*
X416652Y195637D01*
X416755Y195577D01*
X417033Y194756D01*
X417101Y192763D01*
X417059Y192649D01*
X416837Y192427D01*
X416317Y191526D01*
X416047Y190520D01*
Y190500D01*
X423953D01*
Y190520D01*
X423683Y191526D01*
X423163Y192427D01*
X422941Y192649D01*
X422899Y192763D01*
X422967Y194756D01*
X423245Y195577D01*
X423348Y195637D01*
X424363Y196652D01*
X425081Y197895D01*
X425453Y199282D01*
Y200718D01*
X425081Y202105D01*
X424363Y203348D01*
X423348Y204363D01*
X422105Y205081D01*
X420718Y205453D01*
X419282D01*
X418851Y205337D01*
X418741Y205308D01*
X417496Y207504D01*
X417637Y207644D01*
X419223Y209231D01*
X419286Y209269D01*
X420009Y209941D01*
X420132Y210039D01*
X420194D01*
X420380Y210002D01*
X420566Y210039D01*
X420632D01*
X420777Y210034D01*
X420793Y210039D01*
X424961D01*
Y219961D01*
X415039D01*
Y218415D01*
X414132Y217861D01*
X412539Y217512D01*
X412282Y217769D01*
X411493Y218225D01*
X411180Y218309D01*
X411186Y218243D01*
X411223Y218019D01*
X411273Y217805D01*
X411338Y217603D01*
X411418Y217412D01*
X411512Y217232D01*
X411620Y217062D01*
X411743Y216904D01*
X411880Y216757D01*
X410658D01*
Y215000D01*
X410157D01*
Y214500D01*
X406595D01*
X404380Y213530D01*
X314961D01*
Y219961D01*
X305039D01*
Y218415D01*
X304132Y217861D01*
X302539Y217512D01*
X302282Y217769D01*
X301493Y218225D01*
X301453Y218235D01*
X301338Y218020D01*
X301270Y217818D01*
X301273Y217805D01*
X301338Y217603D01*
X301418Y217412D01*
X301512Y217232D01*
X301620Y217062D01*
X301743Y216904D01*
X301880Y216757D01*
X300658D01*
Y215000D01*
X300157D01*
Y214500D01*
X296595D01*
X294380Y213530D01*
X254961D01*
Y219961D01*
X256897Y221322D01*
X257566D01*
X258149Y220986D01*
X259039Y220747D01*
X259961D01*
X260851Y220986D01*
X261649Y221446D01*
X262301Y222098D01*
X262761Y222896D01*
X263000Y223786D01*
Y224708D01*
X264311Y226723D01*
X264796Y227075D01*
X274127D01*
X274884Y227175D01*
X275590Y227467D01*
X276837Y227573D01*
X277573Y226837D01*
X278474Y226317D01*
X279480Y226047D01*
X279500D01*
Y230000D01*
X280500D01*
Y226047D01*
X280520D01*
X281526Y226317D01*
X282427Y226837D01*
X283163Y227573D01*
X284410Y227467D01*
X285116Y227175D01*
X285873Y227075D01*
X304986D01*
X305050Y227037D01*
X305186Y226943D01*
X305342Y226822D01*
X305826Y226391D01*
X306098Y226121D01*
X306302Y225987D01*
X306652Y225637D01*
X307895Y224919D01*
X309282Y224547D01*
X310718D01*
X312105Y224919D01*
X313348Y225637D01*
X314363Y226652D01*
X315081Y227895D01*
X315453Y229282D01*
Y230718D01*
X317365Y232922D01*
X332835D01*
X338825Y226932D01*
X339431Y226467D01*
X340137Y226175D01*
X340894Y226075D01*
X439000D01*
X439757Y226175D01*
X440462Y226467D01*
X441068Y226932D01*
X442201Y228064D01*
X442236Y228083D01*
X442237Y228083D01*
X442367Y228123D01*
X442602Y228175D01*
X442870Y228217D01*
X444374Y228316D01*
X444966Y228317D01*
X445207Y228366D01*
X445653D01*
X446935Y228621D01*
X448142Y229121D01*
X449229Y229847D01*
X450153Y230771D01*
X450879Y231858D01*
X451052Y232276D01*
X453145Y232990D01*
X453906Y232957D01*
X453932Y232932D01*
X454537Y232467D01*
X455296Y232066D01*
X456047Y230520D01*
Y230500D01*
X463953D01*
Y230520D01*
X466124Y232075D01*
X479066D01*
X479649Y231738D01*
X480539Y231500D01*
X481461D01*
X482351Y231738D01*
X483016Y231429D01*
X484547Y230227D01*
Y229282D01*
X484919Y227895D01*
X485637Y226652D01*
X486652Y225637D01*
X487895Y224919D01*
X489282Y224547D01*
X489778D01*
X490016Y224499D01*
X490399Y224497D01*
X491047Y224459D01*
X491242Y224434D01*
X491405Y224404D01*
X491477Y224386D01*
X492932Y222932D01*
X493538Y222467D01*
X494243Y222175D01*
X495000Y222075D01*
X503116D01*
X503154Y222063D01*
X503155Y222063D01*
X503275Y221999D01*
X503478Y221870D01*
X503698Y221710D01*
X504831Y220716D01*
X505250Y220299D01*
X505456Y220163D01*
X505771Y219847D01*
X506858Y219121D01*
X508065Y218621D01*
X509347Y218366D01*
X510653D01*
X511935Y218621D01*
X513142Y219121D01*
X514229Y219847D01*
X515153Y220771D01*
X515879Y221858D01*
X516379Y223065D01*
X516634Y224347D01*
Y225653D01*
X516379Y226935D01*
X515879Y228142D01*
X515153Y229229D01*
X514229Y230153D01*
X513142Y230879D01*
X512430Y231174D01*
X512162Y232500D01*
X512430Y233826D01*
X513142Y234121D01*
X514229Y234847D01*
X515153Y235771D01*
X515879Y236858D01*
X516379Y238065D01*
X516634Y239347D01*
Y240653D01*
X516379Y241935D01*
X515879Y243142D01*
X515153Y244229D01*
X514229Y245153D01*
X513142Y245879D01*
X512430Y246174D01*
X512162Y247500D01*
X512430Y248826D01*
X513142Y249121D01*
X514229Y249847D01*
X515153Y250771D01*
X515879Y251858D01*
X516379Y253065D01*
X516634Y254347D01*
Y255653D01*
X516379Y256935D01*
X515879Y258142D01*
X515153Y259229D01*
X514229Y260153D01*
X513142Y260879D01*
X512430Y261174D01*
X512162Y262500D01*
X512430Y263826D01*
X513142Y264121D01*
X514229Y264847D01*
X515153Y265771D01*
X515879Y266858D01*
X516379Y268065D01*
X516634Y269347D01*
Y270653D01*
X516379Y271935D01*
X515879Y273142D01*
X515153Y274229D01*
X514229Y275153D01*
X513142Y275879D01*
X512430Y276174D01*
X512162Y277500D01*
X512430Y278826D01*
X513142Y279121D01*
X514229Y279847D01*
X515153Y280771D01*
X515879Y281858D01*
X516379Y283065D01*
X516634Y284347D01*
Y285653D01*
X516379Y286935D01*
X515879Y288142D01*
X515153Y289229D01*
X514229Y290153D01*
X513142Y290879D01*
X511935Y291379D01*
X510653Y291634D01*
X509347D01*
X508065Y291379D01*
X506858Y290879D01*
X505771Y290153D01*
X505456Y289837D01*
X505250Y289701D01*
X504800Y289253D01*
X504425Y288901D01*
X503718Y288305D01*
X503478Y288130D01*
X503275Y288001D01*
X503155Y287937D01*
X503154Y287937D01*
X503116Y287925D01*
X496494D01*
X495453Y289282D01*
Y290718D01*
X495081Y292105D01*
X494363Y293348D01*
X493631Y295000D01*
X494363Y296652D01*
X495081Y297895D01*
X495453Y299282D01*
Y300718D01*
X495081Y302105D01*
X494363Y303348D01*
X493348Y304363D01*
X492105Y305081D01*
X490718Y305453D01*
X489282D01*
X487895Y305081D01*
X486652Y304363D01*
X485637Y303348D01*
X484919Y302105D01*
X484547Y300718D01*
Y299282D01*
X482635Y297078D01*
X463953D01*
Y299500D01*
X456047D01*
Y297078D01*
X427365D01*
X425453Y299282D01*
Y300718D01*
X427365Y302922D01*
X450831D01*
X451149Y302738D01*
X452039Y302500D01*
X452961D01*
X453547Y302657D01*
X454467Y302314D01*
X456047Y301227D01*
Y300500D01*
X459500D01*
Y303953D01*
X458139D01*
X456017Y305526D01*
X456000Y306433D01*
Y306461D01*
X455761Y307351D01*
X455301Y308149D01*
X454649Y308801D01*
X453851Y309261D01*
X452961Y309500D01*
X452039D01*
X451149Y309261D01*
X450351Y308801D01*
X450322Y308772D01*
X426936D01*
X424961Y310039D01*
Y316470D01*
X474380D01*
X476595Y315500D01*
X480158D01*
Y315000D01*
X480657D01*
Y311551D01*
X481493Y311775D01*
X482282Y312231D01*
X482539Y312488D01*
X484132Y312139D01*
X485039Y311585D01*
Y310039D01*
X494961D01*
Y319961D01*
X490505D01*
X490380Y319986D01*
X490254Y319961D01*
X490141D01*
X489674Y320356D01*
X489322Y320696D01*
X489249Y320743D01*
X487496Y322496D01*
X486765Y323057D01*
X485914Y323410D01*
X486505Y325736D01*
X493066D01*
X493649Y325399D01*
X494539Y325161D01*
X495461D01*
X496351Y325399D01*
X497149Y325860D01*
X497801Y326512D01*
X498261Y327310D01*
X498500Y328200D01*
Y329121D01*
X498261Y330012D01*
X497801Y330810D01*
X497149Y331461D01*
X496351Y331922D01*
X495461Y332161D01*
X494539D01*
X493649Y331922D01*
X493066Y331586D01*
X333554D01*
X333057Y334086D01*
X333142Y334121D01*
X334229Y334847D01*
X335153Y335771D01*
X335879Y336858D01*
X336379Y338065D01*
X336634Y339347D01*
Y340653D01*
X336379Y341935D01*
X335879Y343142D01*
X335153Y344229D01*
X334229Y345153D01*
X333142Y345879D01*
X331935Y346379D01*
X330653Y346634D01*
X329347D01*
X328509Y346467D01*
X328282Y346458D01*
X328019Y346393D01*
X327877Y346369D01*
X327790Y346361D01*
X327550Y346502D01*
X327310Y346686D01*
X327185Y346738D01*
X327105Y346791D01*
X327028Y346806D01*
X326960Y346846D01*
X326906Y346853D01*
X326604Y346978D01*
X325847Y347078D01*
X316434D01*
X315851Y347414D01*
X314961Y347653D01*
X314039D01*
X313149Y347414D01*
X312566Y347078D01*
X193497D01*
X191634Y349347D01*
Y350653D01*
X191379Y351935D01*
X190879Y353142D01*
X190153Y354229D01*
X189431Y354951D01*
X189528Y355801D01*
X190289Y357451D01*
X602557D01*
X616470Y343538D01*
D02*
G37*
G36*
X454236Y322981D02*
X454179Y323041D01*
X454118Y323096D01*
X454052Y323144D01*
X453981Y323185D01*
X453906Y323220D01*
X453825Y323249D01*
X453740Y323271D01*
X453649Y323287D01*
X453554Y323297D01*
X453454Y323300D01*
X453520Y324100D01*
X453619Y324103D01*
X453714Y324111D01*
X453806Y324125D01*
X453894Y324144D01*
X453977Y324169D01*
X454058Y324200D01*
X454134Y324236D01*
X454207Y324277D01*
X454275Y324324D01*
X454340Y324377D01*
X454236Y322981D01*
D02*
G37*
G36*
X123604Y323039D02*
X123476Y322887D01*
X123362Y322702D01*
X123262Y322484D01*
X123176Y322233D01*
X123104Y321949D01*
X123046Y321631D01*
X123001Y321281D01*
X122955Y320480D01*
X122953Y320029D01*
X120029Y322953D01*
X120480Y322955D01*
X121281Y323002D01*
X121631Y323046D01*
X121949Y323104D01*
X122233Y323176D01*
X122484Y323262D01*
X122702Y323362D01*
X122887Y323476D01*
X123039Y323604D01*
X123604Y323039D01*
D02*
G37*
G36*
X191938Y321607D02*
X192101Y321480D01*
X192275Y321368D01*
X192459Y321270D01*
X192654Y321187D01*
X192860Y321120D01*
X193077Y321068D01*
X193304Y321030D01*
X193543Y321007D01*
X193791Y321000D01*
Y319000D01*
X193543Y318992D01*
X193304Y318970D01*
X193077Y318933D01*
X192860Y318880D01*
X192654Y318812D01*
X192459Y318730D01*
X192275Y318633D01*
X192101Y318520D01*
X191938Y318392D01*
X191785Y318250D01*
Y321750D01*
X191938Y321607D01*
D02*
G37*
G36*
X132554Y321538D02*
X132771Y321299D01*
X132987Y321089D01*
X133204Y320906D01*
X133420Y320751D01*
X133636Y320625D01*
X133853Y320527D01*
X134069Y320456D01*
X134284Y320414D01*
X134500Y320400D01*
Y319600D01*
X134284Y319586D01*
X134069Y319544D01*
X133853Y319474D01*
X133636Y319375D01*
X133420Y319249D01*
X133204Y319094D01*
X132987Y318912D01*
X132771Y318701D01*
X132554Y318462D01*
X132337Y318195D01*
Y321805D01*
X132554Y321538D01*
D02*
G37*
G36*
X172135Y317649D02*
X172074Y317706D01*
X172009Y317757D01*
X171939Y317802D01*
X171865Y317841D01*
X171787Y317874D01*
X171705Y317901D01*
X171618Y317922D01*
X171527Y317937D01*
X171432Y317946D01*
X171332Y317949D01*
Y318749D01*
X171432Y318752D01*
X171527Y318761D01*
X171618Y318776D01*
X171705Y318797D01*
X171787Y318824D01*
X171865Y318857D01*
X171939Y318896D01*
X172009Y318941D01*
X172074Y318992D01*
X172135Y319049D01*
Y317649D01*
D02*
G37*
G36*
X423000Y319000D02*
X422620Y318980D01*
X422280Y318920D01*
X421980Y318820D01*
X421720Y318680D01*
X421500Y318500D01*
X421320Y318280D01*
X421201Y318059D01*
X421250Y317940D01*
X421360Y317759D01*
X421490Y317618D01*
X421640Y317517D01*
X421810Y317457D01*
X422000Y317437D01*
X421030D01*
X421020Y317380D01*
X421000Y317000D01*
X419000D01*
X418980Y317380D01*
X418970Y317437D01*
X418000D01*
X418190Y317457D01*
X418360Y317517D01*
X418510Y317618D01*
X418640Y317759D01*
X418750Y317940D01*
X418799Y318059D01*
X418680Y318280D01*
X418500Y318500D01*
X418280Y318680D01*
X418020Y318820D01*
X417720Y318920D01*
X417380Y318980D01*
X417000Y319000D01*
X420000Y321000D01*
X423000Y319000D01*
D02*
G37*
G36*
X373000D02*
X372620Y318980D01*
X372280Y318920D01*
X371980Y318820D01*
X371720Y318680D01*
X371500Y318500D01*
X371320Y318280D01*
X371201Y318059D01*
X371250Y317940D01*
X371360Y317759D01*
X371490Y317618D01*
X371640Y317517D01*
X371810Y317457D01*
X372000Y317437D01*
X371030D01*
X371020Y317380D01*
X371000Y317000D01*
X369000D01*
X368980Y317380D01*
X368970Y317437D01*
X368000D01*
X368190Y317457D01*
X368360Y317517D01*
X368510Y317618D01*
X368640Y317759D01*
X368750Y317940D01*
X368799Y318059D01*
X368680Y318280D01*
X368500Y318500D01*
X368280Y318680D01*
X368020Y318820D01*
X367720Y318920D01*
X367380Y318980D01*
X367000Y319000D01*
X370000Y321000D01*
X373000Y319000D01*
D02*
G37*
G36*
X313000D02*
X312620Y318980D01*
X312280Y318920D01*
X311980Y318820D01*
X311720Y318680D01*
X311500Y318500D01*
X311320Y318280D01*
X311201Y318059D01*
X311250Y317940D01*
X311360Y317759D01*
X311490Y317618D01*
X311640Y317517D01*
X311810Y317457D01*
X312000Y317437D01*
X311030D01*
X311020Y317380D01*
X311000Y317000D01*
X309000D01*
X308980Y317380D01*
X308970Y317437D01*
X308000D01*
X308190Y317457D01*
X308360Y317517D01*
X308510Y317618D01*
X308640Y317759D01*
X308750Y317940D01*
X308799Y318059D01*
X308680Y318280D01*
X308500Y318500D01*
X308280Y318680D01*
X308020Y318820D01*
X307720Y318920D01*
X307380Y318980D01*
X307000Y319000D01*
X310000Y321000D01*
X313000Y319000D01*
D02*
G37*
G36*
X253000D02*
X252620Y318980D01*
X252280Y318920D01*
X251980Y318820D01*
X251720Y318680D01*
X251500Y318500D01*
X251320Y318280D01*
X251201Y318059D01*
X251250Y317940D01*
X251360Y317759D01*
X251490Y317618D01*
X251640Y317517D01*
X251810Y317457D01*
X252000Y317437D01*
X251030D01*
X251020Y317380D01*
X251000Y317000D01*
X249000D01*
X248980Y317380D01*
X248970Y317437D01*
X248000D01*
X248190Y317457D01*
X248360Y317517D01*
X248510Y317618D01*
X248640Y317759D01*
X248750Y317940D01*
X248799Y318059D01*
X248680Y318280D01*
X248500Y318500D01*
X248280Y318680D01*
X248020Y318820D01*
X247720Y318920D01*
X247380Y318980D01*
X247000Y319000D01*
X250000Y321000D01*
X253000Y319000D01*
D02*
G37*
G36*
X487963Y318466D02*
X488699Y317841D01*
X489025Y317614D01*
X489322Y317443D01*
X489591Y317328D01*
X489831Y317270D01*
X490042Y317269D01*
X490225Y317325D01*
X490380Y317437D01*
X487563Y314620D01*
X487675Y314775D01*
X487731Y314958D01*
X487730Y315169D01*
X487672Y315409D01*
X487557Y315678D01*
X487387Y315975D01*
X487159Y316301D01*
X486875Y316655D01*
X486137Y317449D01*
X487551Y318863D01*
X487963Y318466D01*
D02*
G37*
G36*
X228786Y313453D02*
X228725Y313510D01*
X228660Y313561D01*
X228590Y313606D01*
X228516Y313645D01*
X228438Y313678D01*
X228356Y313705D01*
X228269Y313726D01*
X228178Y313741D01*
X228083Y313750D01*
X227983Y313753D01*
X227983Y314553D01*
X228083Y314556D01*
X228178Y314565D01*
X228269Y314580D01*
X228356Y314601D01*
X228438Y314628D01*
X228516Y314661D01*
X228590Y314700D01*
X228660Y314745D01*
X228725Y314796D01*
X228786Y314853D01*
X228786Y313453D01*
D02*
G37*
G36*
X123604Y313039D02*
X123476Y312887D01*
X123362Y312702D01*
X123262Y312484D01*
X123176Y312233D01*
X123104Y311949D01*
X123046Y311631D01*
X123001Y311281D01*
X122955Y310480D01*
X122953Y310030D01*
X120029Y312953D01*
X120480Y312955D01*
X121281Y313001D01*
X121631Y313046D01*
X121949Y313104D01*
X122233Y313176D01*
X122484Y313262D01*
X122702Y313362D01*
X122887Y313476D01*
X123039Y313604D01*
X123604Y313039D01*
D02*
G37*
G36*
X113604D02*
X113476Y312887D01*
X113362Y312702D01*
X113262Y312484D01*
X113176Y312233D01*
X113104Y311949D01*
X113046Y311631D01*
X113001Y311281D01*
X112955Y310480D01*
X112953Y310030D01*
X110029Y312953D01*
X110480Y312955D01*
X111281Y313001D01*
X111631Y313046D01*
X111949Y313104D01*
X112233Y313176D01*
X112484Y313262D01*
X112702Y313362D01*
X112887Y313476D01*
X113039Y313604D01*
X113604Y313039D01*
D02*
G37*
G36*
X406595Y315500D02*
X410157D01*
Y315000D01*
X410658D01*
Y313207D01*
X411764Y313136D01*
X411619Y312998D01*
X411489Y312848D01*
X411374Y312686D01*
X411275Y312512D01*
X411191Y312326D01*
X411127Y312140D01*
X411180Y311980D01*
X411316Y311728D01*
X411493Y311775D01*
X411611Y311843D01*
X411738Y311836D01*
X413500Y311054D01*
X414081Y310494D01*
X414047Y309403D01*
X413064Y308772D01*
X376936D01*
X374961Y310039D01*
Y316470D01*
X404380D01*
X406595Y315500D01*
D02*
G37*
G36*
X356595D02*
X360157D01*
Y315000D01*
X360658D01*
Y313207D01*
X361764Y313136D01*
X361619Y312998D01*
X361489Y312848D01*
X361374Y312686D01*
X361275Y312512D01*
X361191Y312326D01*
X361127Y312140D01*
X361180Y311980D01*
X361316Y311728D01*
X361493Y311775D01*
X361611Y311843D01*
X361738Y311836D01*
X363500Y311054D01*
X364081Y310494D01*
X364047Y309403D01*
X363064Y308772D01*
X316936D01*
X314961Y310039D01*
Y316470D01*
X354380D01*
X356595Y315500D01*
D02*
G37*
G36*
X236697Y314971D02*
Y314544D01*
X236933Y313664D01*
X237388Y312875D01*
X238033Y312231D01*
X238736Y311824D01*
X238820Y311980D01*
X238902Y312228D01*
X238892Y312275D01*
X238831Y312480D01*
X238757Y312675D01*
X238670Y312861D01*
X238569Y313036D01*
X238454Y313201D01*
X238326Y313357D01*
X239657Y313271D01*
Y315000D01*
X240657D01*
Y313207D01*
X241764Y313136D01*
X241619Y312998D01*
X241489Y312848D01*
X241374Y312686D01*
X241275Y312512D01*
X241191Y312326D01*
X241127Y312140D01*
X241180Y311980D01*
X241316Y311728D01*
X241493Y311775D01*
X241611Y311843D01*
X241738Y311836D01*
X243500Y311054D01*
X244081Y310494D01*
X244047Y309403D01*
X243064Y308772D01*
X232181D01*
X231511Y311272D01*
X231649Y311352D01*
X232301Y312004D01*
X232762Y312802D01*
X233000Y313692D01*
Y314101D01*
X235056Y315686D01*
X236697Y314971D01*
D02*
G37*
G36*
X296595Y315500D02*
X300157D01*
Y315000D01*
X300658D01*
Y313207D01*
X301764Y313136D01*
X301619Y312998D01*
X301489Y312848D01*
X301374Y312686D01*
X301275Y312512D01*
X301191Y312326D01*
X301127Y312140D01*
X301180Y311980D01*
X301316Y311728D01*
X301493Y311775D01*
X301611Y311843D01*
X301738Y311836D01*
X303500Y311054D01*
X304081Y310494D01*
X304047Y309403D01*
X303064Y308772D01*
X282559D01*
X282459Y308730D01*
X282275Y308632D01*
X282101Y308520D01*
X281938Y308393D01*
X281785Y308250D01*
Y308772D01*
X278215D01*
Y308250D01*
X278062Y308393D01*
X277899Y308520D01*
X277725Y308632D01*
X277541Y308730D01*
X277441Y308772D01*
X256936D01*
X254961Y310039D01*
Y316470D01*
X294380D01*
X296595Y315500D01*
D02*
G37*
G36*
X221938Y311608D02*
X222101Y311480D01*
X222275Y311368D01*
X222459Y311270D01*
X222654Y311188D01*
X222860Y311120D01*
X223077Y311068D01*
X223304Y311030D01*
X223542Y311007D01*
X223791Y311000D01*
Y309000D01*
X223542Y308993D01*
X223304Y308970D01*
X223077Y308932D01*
X222860Y308880D01*
X222654Y308812D01*
X222459Y308730D01*
X222275Y308632D01*
X222101Y308520D01*
X221938Y308393D01*
X221785Y308250D01*
Y311750D01*
X221938Y311608D01*
D02*
G37*
G36*
X218215Y308250D02*
X218062Y308393D01*
X217899Y308520D01*
X217725Y308632D01*
X217541Y308730D01*
X217346Y308812D01*
X217140Y308880D01*
X216923Y308932D01*
X216696Y308970D01*
X216458Y308993D01*
X216209Y309000D01*
Y311000D01*
X216458Y311007D01*
X216696Y311030D01*
X216923Y311068D01*
X217140Y311120D01*
X217346Y311188D01*
X217541Y311270D01*
X217725Y311368D01*
X217899Y311480D01*
X218062Y311608D01*
X218215Y311750D01*
Y308250D01*
D02*
G37*
G36*
X201938Y311608D02*
X202101Y311480D01*
X202275Y311368D01*
X202459Y311270D01*
X202654Y311188D01*
X202860Y311120D01*
X203077Y311068D01*
X203304Y311030D01*
X203542Y311007D01*
X203791Y311000D01*
Y309000D01*
X203542Y308993D01*
X203304Y308970D01*
X203077Y308932D01*
X202860Y308880D01*
X202654Y308812D01*
X202459Y308730D01*
X202275Y308632D01*
X202101Y308520D01*
X201938Y308393D01*
X201785Y308250D01*
Y311750D01*
X201938Y311608D01*
D02*
G37*
G36*
X198215Y308250D02*
X198062Y308393D01*
X197899Y308520D01*
X197725Y308632D01*
X197541Y308730D01*
X197346Y308812D01*
X197140Y308880D01*
X196923Y308932D01*
X196696Y308970D01*
X196458Y308993D01*
X196209Y309000D01*
Y311000D01*
X196458Y311007D01*
X196696Y311030D01*
X196923Y311068D01*
X197140Y311120D01*
X197346Y311188D01*
X197541Y311270D01*
X197725Y311368D01*
X197899Y311480D01*
X198062Y311608D01*
X198215Y311750D01*
Y308250D01*
D02*
G37*
G36*
X182321Y311864D02*
X182541Y311683D01*
X182768Y311523D01*
X183001Y311384D01*
X183242Y311267D01*
X183490Y311171D01*
X183744Y311096D01*
X184006Y311043D01*
X184274Y311011D01*
X184550Y311000D01*
Y309000D01*
X184274Y308989D01*
X184006Y308957D01*
X183744Y308904D01*
X183490Y308829D01*
X183242Y308733D01*
X183001Y308616D01*
X182768Y308477D01*
X182541Y308317D01*
X182321Y308136D01*
X182109Y307933D01*
Y312067D01*
X182321Y311864D01*
D02*
G37*
G36*
X147891Y307933D02*
X147571Y308250D01*
X146972Y308783D01*
X146693Y309000D01*
X146427Y309183D01*
X146175Y309333D01*
X145937Y309450D01*
X145712Y309533D01*
X145501Y309583D01*
X145303Y309600D01*
Y310400D01*
X145501Y310417D01*
X145712Y310467D01*
X145937Y310550D01*
X146175Y310667D01*
X146427Y310817D01*
X146693Y311000D01*
X146972Y311217D01*
X147571Y311750D01*
X147891Y312067D01*
Y307933D01*
D02*
G37*
G36*
X132429Y311750D02*
X133028Y311217D01*
X133307Y311000D01*
X133573Y310817D01*
X133825Y310667D01*
X134063Y310550D01*
X134288Y310467D01*
X134500Y310417D01*
X134697Y310400D01*
Y309600D01*
X134500Y309583D01*
X134288Y309533D01*
X134063Y309450D01*
X133825Y309333D01*
X133573Y309183D01*
X133307Y309000D01*
X133028Y308783D01*
X132429Y308250D01*
X132109Y307933D01*
Y312067D01*
X132429Y311750D01*
D02*
G37*
G36*
X451901Y305199D02*
X451833Y305246D01*
X451762Y305289D01*
X451687Y305326D01*
X451608Y305358D01*
X451527Y305385D01*
X451441Y305408D01*
X451353Y305425D01*
X451261Y305437D01*
X451165Y305445D01*
X451067Y305447D01*
X450931Y306247D01*
X451031Y306251D01*
X451126Y306261D01*
X451216Y306277D01*
X451300Y306301D01*
X451378Y306331D01*
X451451Y306368D01*
X451518Y306412D01*
X451580Y306462D01*
X451637Y306519D01*
X451687Y306583D01*
X451901Y305199D01*
D02*
G37*
G36*
X343506Y302941D02*
X343347Y302776D01*
X343095Y302480D01*
X343004Y302350D01*
X342935Y302231D01*
X342888Y302123D01*
X342864Y302028D01*
X342863Y301943D01*
X342885Y301870D01*
X342929Y301809D01*
X341809Y302929D01*
X341870Y302885D01*
X341943Y302863D01*
X342027Y302865D01*
X342123Y302888D01*
X342231Y302935D01*
X342350Y303004D01*
X342480Y303096D01*
X342622Y303210D01*
X342941Y303506D01*
X343506Y302941D01*
D02*
G37*
G36*
X231286Y302300D02*
X231225Y302357D01*
X231160Y302408D01*
X231090Y302453D01*
X231016Y302492D01*
X230938Y302525D01*
X230856Y302552D01*
X230769Y302573D01*
X230678Y302588D01*
X230583Y302597D01*
X230484Y302600D01*
Y303400D01*
X230583Y303403D01*
X230678Y303412D01*
X230769Y303427D01*
X230856Y303448D01*
X230938Y303475D01*
X231016Y303508D01*
X231090Y303547D01*
X231160Y303592D01*
X231225Y303643D01*
X231286Y303700D01*
Y302300D01*
D02*
G37*
G36*
X387224Y303347D02*
X387520Y303096D01*
X387650Y303004D01*
X387769Y302935D01*
X387877Y302888D01*
X387972Y302865D01*
X388057Y302863D01*
X388129Y302885D01*
X388191Y302929D01*
X387071Y301809D01*
X387115Y301870D01*
X387137Y301943D01*
X387136Y302028D01*
X387112Y302123D01*
X387065Y302231D01*
X386996Y302350D01*
X386905Y302480D01*
X386790Y302622D01*
X386494Y302941D01*
X387059Y303506D01*
X387224Y303347D01*
D02*
G37*
G36*
X304547Y300718D02*
Y299282D01*
X304919Y297895D01*
X305637Y296652D01*
X305949Y295948D01*
X305844Y293957D01*
X305566Y293377D01*
X305342Y293178D01*
X305186Y293057D01*
X305050Y292963D01*
X304986Y292925D01*
X285873D01*
X285116Y292825D01*
X284410Y292533D01*
X283653Y292469D01*
X282145Y294453D01*
X283130Y296047D01*
X283953D01*
Y299500D01*
X276047D01*
Y296047D01*
X276870D01*
X277855Y294453D01*
X276347Y292469D01*
X275590Y292533D01*
X274884Y292825D01*
X274127Y292925D01*
X255014D01*
X254950Y292963D01*
X254814Y293057D01*
X254659Y293178D01*
X254434Y293377D01*
X254156Y293957D01*
X254051Y295948D01*
X254363Y296652D01*
X255081Y297895D01*
X255453Y299282D01*
Y300718D01*
X257365Y302922D01*
X276047D01*
Y300500D01*
X283953D01*
Y302922D01*
X302635D01*
X304547Y300718D01*
D02*
G37*
G36*
X123604Y303039D02*
X123476Y302887D01*
X123362Y302702D01*
X123262Y302484D01*
X123176Y302233D01*
X123104Y301949D01*
X123046Y301631D01*
X123001Y301281D01*
X122955Y300480D01*
X122953Y300029D01*
X120029Y302953D01*
X120480Y302955D01*
X121281Y303001D01*
X121631Y303046D01*
X121949Y303104D01*
X122233Y303176D01*
X122484Y303262D01*
X122702Y303362D01*
X122887Y303476D01*
X123039Y303604D01*
X123604Y303039D01*
D02*
G37*
G36*
X113604D02*
X113476Y302887D01*
X113362Y302702D01*
X113262Y302484D01*
X113176Y302233D01*
X113104Y301949D01*
X113046Y301631D01*
X113001Y301281D01*
X112955Y300480D01*
X112953Y300029D01*
X110029Y302953D01*
X110480Y302955D01*
X111281Y303001D01*
X111631Y303046D01*
X111949Y303104D01*
X112233Y303176D01*
X112484Y303262D01*
X112702Y303362D01*
X112887Y303476D01*
X113039Y303604D01*
X113604Y303039D01*
D02*
G37*
G36*
X147891Y297933D02*
X147571Y298250D01*
X146972Y298783D01*
X146693Y299000D01*
X146427Y299183D01*
X146175Y299333D01*
X145937Y299450D01*
X145712Y299533D01*
X145501Y299583D01*
X145303Y299600D01*
Y300400D01*
X145501Y300417D01*
X145712Y300467D01*
X145937Y300550D01*
X146175Y300667D01*
X146427Y300817D01*
X146693Y301000D01*
X146972Y301217D01*
X147571Y301750D01*
X147891Y302067D01*
Y297933D01*
D02*
G37*
G36*
X132429Y301750D02*
X133028Y301217D01*
X133307Y301000D01*
X133573Y300817D01*
X133825Y300667D01*
X134063Y300550D01*
X134288Y300467D01*
X134500Y300417D01*
X134697Y300400D01*
Y299600D01*
X134500Y299583D01*
X134288Y299533D01*
X134063Y299450D01*
X133825Y299333D01*
X133573Y299183D01*
X133307Y299000D01*
X133028Y298783D01*
X132429Y298250D01*
X132109Y297933D01*
Y302067D01*
X132429Y301750D01*
D02*
G37*
G36*
X414547Y300718D02*
Y299282D01*
X412635Y297078D01*
X396934D01*
X396351Y297414D01*
X395701Y297588D01*
X395453Y297837D01*
Y302922D01*
X412635D01*
X414547Y300718D01*
D02*
G37*
G36*
X394283Y295440D02*
X394357Y295379D01*
X394432Y295325D01*
X394508Y295279D01*
X394585Y295239D01*
X394664Y295208D01*
X394743Y295183D01*
X394824Y295166D01*
X394907Y295156D01*
X394990Y295153D01*
X394000Y294163D01*
X393997Y294246D01*
X393987Y294328D01*
X393970Y294409D01*
X393945Y294489D01*
X393913Y294568D01*
X393874Y294645D01*
X393828Y294721D01*
X393774Y294796D01*
X393713Y294870D01*
X393645Y294942D01*
X394211Y295508D01*
X394283Y295440D01*
D02*
G37*
G36*
X395775Y294796D02*
X395840Y294745D01*
X395910Y294700D01*
X395984Y294661D01*
X396062Y294628D01*
X396144Y294601D01*
X396231Y294580D01*
X396322Y294565D01*
X396417Y294556D01*
X396516Y294553D01*
X396516Y293753D01*
X396417Y293750D01*
X396322Y293741D01*
X396231Y293726D01*
X396144Y293705D01*
X396062Y293678D01*
X395984Y293645D01*
X395910Y293606D01*
X395840Y293561D01*
X395775Y293510D01*
X395714Y293453D01*
X395714Y294853D01*
X395775Y294796D01*
D02*
G37*
G36*
X487113Y293476D02*
X487298Y293362D01*
X487516Y293262D01*
X487767Y293176D01*
X488051Y293104D01*
X488369Y293046D01*
X488719Y293002D01*
X489520Y292955D01*
X489970Y292953D01*
X487047Y290030D01*
X487045Y290480D01*
X486999Y291281D01*
X486954Y291631D01*
X486896Y291949D01*
X486824Y292233D01*
X486738Y292484D01*
X486638Y292702D01*
X486524Y292887D01*
X486396Y293039D01*
X486961Y293604D01*
X487113Y293476D01*
D02*
G37*
G36*
X313604Y293039D02*
X313476Y292887D01*
X313362Y292702D01*
X313262Y292484D01*
X313176Y292233D01*
X313104Y291949D01*
X313046Y291631D01*
X313001Y291281D01*
X312955Y290480D01*
X312953Y290030D01*
X310030Y292953D01*
X310480Y292955D01*
X311281Y293002D01*
X311631Y293046D01*
X311949Y293104D01*
X312233Y293176D01*
X312484Y293262D01*
X312702Y293362D01*
X312887Y293476D01*
X313039Y293604D01*
X313604Y293039D01*
D02*
G37*
G36*
X123604D02*
X123476Y292887D01*
X123362Y292702D01*
X123262Y292484D01*
X123176Y292233D01*
X123104Y291949D01*
X123046Y291631D01*
X123001Y291281D01*
X122955Y290480D01*
X122953Y290030D01*
X120029Y292953D01*
X120480Y292955D01*
X121281Y293002D01*
X121631Y293046D01*
X121949Y293104D01*
X122233Y293176D01*
X122484Y293262D01*
X122702Y293362D01*
X122887Y293476D01*
X123039Y293604D01*
X123604Y293039D01*
D02*
G37*
G36*
X113604D02*
X113476Y292887D01*
X113362Y292702D01*
X113262Y292484D01*
X113176Y292233D01*
X113104Y291949D01*
X113046Y291631D01*
X113001Y291281D01*
X112955Y290480D01*
X112953Y290030D01*
X110029Y292953D01*
X110480Y292955D01*
X111281Y293002D01*
X111631Y293046D01*
X111949Y293104D01*
X112233Y293176D01*
X112484Y293262D01*
X112702Y293362D01*
X112887Y293476D01*
X113039Y293604D01*
X113604Y293039D01*
D02*
G37*
G36*
X158775Y290643D02*
X158840Y290592D01*
X158910Y290547D01*
X158984Y290508D01*
X159062Y290475D01*
X159144Y290448D01*
X159231Y290427D01*
X159322Y290412D01*
X159417Y290403D01*
X159517Y290400D01*
Y289600D01*
X159417Y289597D01*
X159322Y289588D01*
X159231Y289573D01*
X159144Y289552D01*
X159062Y289525D01*
X158984Y289492D01*
X158910Y289453D01*
X158840Y289408D01*
X158775Y289357D01*
X158714Y289300D01*
Y290700D01*
X158775Y290643D01*
D02*
G37*
G36*
X387891Y287933D02*
X387571Y288250D01*
X386972Y288783D01*
X386693Y289000D01*
X386427Y289183D01*
X386175Y289333D01*
X385937Y289450D01*
X385712Y289533D01*
X385501Y289583D01*
X385303Y289600D01*
Y290400D01*
X385501Y290417D01*
X385712Y290467D01*
X385937Y290550D01*
X386175Y290667D01*
X386427Y290817D01*
X386693Y291000D01*
X386972Y291217D01*
X387571Y291750D01*
X387891Y292067D01*
Y287933D01*
D02*
G37*
G36*
X372429Y291750D02*
X373028Y291217D01*
X373307Y291000D01*
X373573Y290817D01*
X373825Y290667D01*
X374063Y290550D01*
X374288Y290467D01*
X374500Y290417D01*
X374697Y290400D01*
Y289600D01*
X374500Y289583D01*
X374288Y289533D01*
X374063Y289450D01*
X373825Y289333D01*
X373573Y289183D01*
X373307Y289000D01*
X373028Y288783D01*
X372429Y288250D01*
X372109Y287933D01*
Y292067D01*
X372429Y291750D01*
D02*
G37*
G36*
X337891Y287933D02*
X337571Y288250D01*
X336972Y288783D01*
X336693Y289000D01*
X336427Y289183D01*
X336175Y289333D01*
X335937Y289450D01*
X335712Y289533D01*
X335501Y289583D01*
X335303Y289600D01*
Y290400D01*
X335501Y290417D01*
X335712Y290467D01*
X335937Y290550D01*
X336175Y290667D01*
X336427Y290817D01*
X336693Y291000D01*
X336972Y291217D01*
X337571Y291750D01*
X337891Y292067D01*
Y287933D01*
D02*
G37*
G36*
X307891D02*
X307571Y288250D01*
X306972Y288783D01*
X306693Y289000D01*
X306427Y289183D01*
X306175Y289333D01*
X305937Y289450D01*
X305712Y289533D01*
X305501Y289583D01*
X305303Y289600D01*
Y290400D01*
X305501Y290417D01*
X305712Y290467D01*
X305937Y290550D01*
X306175Y290667D01*
X306427Y290817D01*
X306693Y291000D01*
X306972Y291217D01*
X307571Y291750D01*
X307891Y292067D01*
Y287933D01*
D02*
G37*
G36*
X252429Y291750D02*
X253028Y291217D01*
X253307Y291000D01*
X253573Y290817D01*
X253825Y290667D01*
X254063Y290550D01*
X254288Y290467D01*
X254500Y290417D01*
X254697Y290400D01*
Y289600D01*
X254500Y289583D01*
X254288Y289533D01*
X254063Y289450D01*
X253825Y289333D01*
X253573Y289183D01*
X253307Y289000D01*
X253028Y288783D01*
X252429Y288250D01*
X252109Y287933D01*
Y292067D01*
X252429Y291750D01*
D02*
G37*
G36*
X147891Y287933D02*
X147571Y288250D01*
X146972Y288783D01*
X146693Y289000D01*
X146427Y289183D01*
X146175Y289333D01*
X145937Y289450D01*
X145712Y289533D01*
X145501Y289583D01*
X145303Y289600D01*
Y290400D01*
X145501Y290417D01*
X145712Y290467D01*
X145937Y290550D01*
X146175Y290667D01*
X146427Y290817D01*
X146693Y291000D01*
X146972Y291217D01*
X147571Y291750D01*
X147891Y292067D01*
Y287933D01*
D02*
G37*
G36*
X132429Y291750D02*
X133028Y291217D01*
X133307Y291000D01*
X133573Y290817D01*
X133825Y290667D01*
X134063Y290550D01*
X134288Y290467D01*
X134500Y290417D01*
X134697Y290400D01*
Y289600D01*
X134500Y289583D01*
X134288Y289533D01*
X134063Y289450D01*
X133825Y289333D01*
X133573Y289183D01*
X133307Y289000D01*
X133028Y288783D01*
X132429Y288250D01*
X132109Y287933D01*
Y292067D01*
X132429Y291750D01*
D02*
G37*
G36*
X448732Y287212D02*
X448671Y287269D01*
X448606Y287320D01*
X448537Y287365D01*
X448463Y287404D01*
X448385Y287437D01*
X448302Y287464D01*
X448216Y287485D01*
X448125Y287500D01*
X448029Y287509D01*
X447930Y287512D01*
Y288312D01*
X448029Y288315D01*
X448125Y288324D01*
X448216Y288339D01*
X448302Y288360D01*
X448385Y288387D01*
X448463Y288420D01*
X448537Y288459D01*
X448606Y288504D01*
X448671Y288555D01*
X448732Y288612D01*
Y287212D01*
D02*
G37*
G36*
X507048Y282106D02*
X506571Y282580D01*
X505292Y283702D01*
X504915Y283977D01*
X504563Y284201D01*
X504236Y284376D01*
X503934Y284500D01*
X503657Y284575D01*
X503405Y284600D01*
Y285400D01*
X503657Y285425D01*
X503934Y285500D01*
X504236Y285624D01*
X504563Y285799D01*
X504915Y286023D01*
X505292Y286298D01*
X506120Y286996D01*
X506571Y287420D01*
X507048Y287894D01*
Y282106D01*
D02*
G37*
G36*
X277346Y278707D02*
X275817Y281617D01*
X276069Y282497D01*
X276245Y282346D01*
X276438Y282231D01*
X276646Y282151D01*
X276871Y282106D01*
X277112Y282097D01*
X277369Y282122D01*
X277643Y282183D01*
X277932Y282279D01*
X278238Y282411D01*
X278560Y282578D01*
X277346Y278707D01*
D02*
G37*
G36*
X463604Y283039D02*
X463476Y282887D01*
X463362Y282702D01*
X463262Y282484D01*
X463176Y282233D01*
X463104Y281949D01*
X463046Y281631D01*
X463001Y281281D01*
X462955Y280480D01*
X462953Y280030D01*
X460030Y282953D01*
X460480Y282955D01*
X461281Y283001D01*
X461631Y283046D01*
X461949Y283104D01*
X462233Y283176D01*
X462484Y283262D01*
X462702Y283362D01*
X462887Y283476D01*
X463039Y283604D01*
X463604Y283039D01*
D02*
G37*
G36*
X367113Y283476D02*
X367298Y283362D01*
X367516Y283262D01*
X367767Y283176D01*
X368051Y283104D01*
X368369Y283046D01*
X368719Y283001D01*
X369520Y282955D01*
X369970Y282953D01*
X367047Y280030D01*
X367045Y280480D01*
X366999Y281281D01*
X366954Y281631D01*
X366896Y281949D01*
X366824Y282233D01*
X366738Y282484D01*
X366638Y282702D01*
X366524Y282887D01*
X366396Y283039D01*
X366961Y283604D01*
X367113Y283476D01*
D02*
G37*
G36*
X123604Y283039D02*
X123476Y282887D01*
X123362Y282702D01*
X123262Y282484D01*
X123176Y282233D01*
X123104Y281949D01*
X123046Y281631D01*
X123001Y281281D01*
X122955Y280480D01*
X122953Y280030D01*
X120029Y282953D01*
X120480Y282955D01*
X121281Y283001D01*
X121631Y283046D01*
X121949Y283104D01*
X122233Y283176D01*
X122484Y283262D01*
X122702Y283362D01*
X122887Y283476D01*
X123039Y283604D01*
X123604Y283039D01*
D02*
G37*
G36*
X113604D02*
X113476Y282887D01*
X113362Y282702D01*
X113262Y282484D01*
X113176Y282233D01*
X113104Y281949D01*
X113046Y281631D01*
X113001Y281281D01*
X112955Y280480D01*
X112953Y280030D01*
X110029Y282953D01*
X110480Y282955D01*
X111281Y283001D01*
X111631Y283046D01*
X111949Y283104D01*
X112233Y283176D01*
X112484Y283262D01*
X112702Y283362D01*
X112887Y283476D01*
X113039Y283604D01*
X113604Y283039D01*
D02*
G37*
G36*
X317775Y280643D02*
X317840Y280592D01*
X317910Y280547D01*
X317984Y280508D01*
X318062Y280475D01*
X318144Y280448D01*
X318231Y280427D01*
X318322Y280412D01*
X318417Y280403D01*
X318516Y280400D01*
Y279600D01*
X318417Y279597D01*
X318322Y279588D01*
X318231Y279573D01*
X318144Y279552D01*
X318062Y279525D01*
X317984Y279492D01*
X317910Y279453D01*
X317840Y279408D01*
X317775Y279357D01*
X317714Y279300D01*
X317000Y280000D01*
X317714Y280700D01*
X317775Y280643D01*
D02*
G37*
G36*
X317000Y280000D02*
X316286Y279300D01*
X316225Y279357D01*
X316160Y279408D01*
X316090Y279453D01*
X316016Y279492D01*
X315938Y279525D01*
X315856Y279552D01*
X315769Y279573D01*
X315678Y279588D01*
X315583Y279597D01*
X315483Y279600D01*
Y280400D01*
X315583Y280403D01*
X315678Y280412D01*
X315769Y280427D01*
X315856Y280448D01*
X315938Y280475D01*
X316016Y280508D01*
X316090Y280547D01*
X316160Y280592D01*
X316225Y280643D01*
X316286Y280700D01*
X317000Y280000D01*
D02*
G37*
G36*
X257775Y280643D02*
X257840Y280592D01*
X257910Y280547D01*
X257984Y280508D01*
X258062Y280475D01*
X258144Y280448D01*
X258231Y280427D01*
X258322Y280412D01*
X258417Y280403D01*
X258517Y280400D01*
Y279600D01*
X258417Y279597D01*
X258322Y279588D01*
X258231Y279573D01*
X258144Y279552D01*
X258062Y279525D01*
X257984Y279492D01*
X257910Y279453D01*
X257840Y279408D01*
X257775Y279357D01*
X257714Y279300D01*
X257000Y280000D01*
X257714Y280700D01*
X257775Y280643D01*
D02*
G37*
G36*
X257000Y280000D02*
X256286Y279300D01*
X256225Y279357D01*
X256160Y279408D01*
X256090Y279453D01*
X256016Y279492D01*
X255938Y279525D01*
X255856Y279552D01*
X255769Y279573D01*
X255678Y279588D01*
X255583Y279597D01*
X255484Y279600D01*
Y280400D01*
X255583Y280403D01*
X255678Y280412D01*
X255769Y280427D01*
X255856Y280448D01*
X255938Y280475D01*
X256016Y280508D01*
X256090Y280547D01*
X256160Y280592D01*
X256225Y280643D01*
X256286Y280700D01*
X257000Y280000D01*
D02*
G37*
G36*
X198215Y278250D02*
X198062Y278393D01*
X197899Y278520D01*
X197725Y278632D01*
X197541Y278730D01*
X197346Y278813D01*
X197140Y278880D01*
X196923Y278932D01*
X196696Y278970D01*
X196458Y278993D01*
X196209Y279000D01*
Y281000D01*
X196458Y281008D01*
X196696Y281030D01*
X196923Y281067D01*
X197140Y281120D01*
X197346Y281188D01*
X197541Y281270D01*
X197725Y281367D01*
X197899Y281480D01*
X198062Y281608D01*
X198215Y281750D01*
Y278250D01*
D02*
G37*
G36*
X337891Y277933D02*
X337571Y278250D01*
X336972Y278783D01*
X336693Y279000D01*
X336427Y279183D01*
X336175Y279333D01*
X335937Y279450D01*
X335712Y279533D01*
X335501Y279583D01*
X335303Y279600D01*
Y280400D01*
X335501Y280417D01*
X335712Y280467D01*
X335937Y280550D01*
X336175Y280667D01*
X336427Y280817D01*
X336693Y281000D01*
X336972Y281217D01*
X337571Y281750D01*
X337891Y282067D01*
Y277933D01*
D02*
G37*
G36*
X312429Y281750D02*
X313028Y281217D01*
X313307Y281000D01*
X313573Y280817D01*
X313825Y280667D01*
X314063Y280550D01*
X314288Y280467D01*
X314499Y280417D01*
X314697Y280400D01*
Y279600D01*
X314499Y279583D01*
X314288Y279533D01*
X314063Y279450D01*
X313825Y279333D01*
X313573Y279183D01*
X313307Y279000D01*
X313028Y278783D01*
X312429Y278250D01*
X312109Y277933D01*
Y282067D01*
X312429Y281750D01*
D02*
G37*
G36*
X252429D02*
X253028Y281217D01*
X253307Y281000D01*
X253573Y280817D01*
X253825Y280667D01*
X254063Y280550D01*
X254288Y280467D01*
X254500Y280417D01*
X254697Y280400D01*
Y279600D01*
X254500Y279583D01*
X254288Y279533D01*
X254063Y279450D01*
X253825Y279333D01*
X253573Y279183D01*
X253307Y279000D01*
X253028Y278783D01*
X252429Y278250D01*
X252109Y277933D01*
Y282067D01*
X252429Y281750D01*
D02*
G37*
G36*
X182321Y281864D02*
X182541Y281683D01*
X182768Y281523D01*
X183001Y281384D01*
X183242Y281267D01*
X183490Y281171D01*
X183744Y281096D01*
X184006Y281043D01*
X184274Y281011D01*
X184550Y281000D01*
Y279000D01*
X184274Y278989D01*
X184006Y278957D01*
X183744Y278904D01*
X183490Y278829D01*
X183242Y278733D01*
X183001Y278616D01*
X182768Y278477D01*
X182541Y278317D01*
X182321Y278136D01*
X182109Y277933D01*
Y282067D01*
X182321Y281864D01*
D02*
G37*
G36*
X147891Y277933D02*
X147571Y278250D01*
X146972Y278783D01*
X146693Y279000D01*
X146427Y279183D01*
X146175Y279333D01*
X145937Y279450D01*
X145712Y279533D01*
X145501Y279583D01*
X145303Y279600D01*
Y280400D01*
X145501Y280417D01*
X145712Y280467D01*
X145937Y280550D01*
X146175Y280667D01*
X146427Y280817D01*
X146693Y281000D01*
X146972Y281217D01*
X147571Y281750D01*
X147891Y282067D01*
Y277933D01*
D02*
G37*
G36*
X132429Y281750D02*
X133028Y281217D01*
X133307Y281000D01*
X133573Y280817D01*
X133825Y280667D01*
X134063Y280550D01*
X134288Y280467D01*
X134500Y280417D01*
X134697Y280400D01*
Y279600D01*
X134500Y279583D01*
X134288Y279533D01*
X134063Y279450D01*
X133825Y279333D01*
X133573Y279183D01*
X133307Y279000D01*
X133028Y278783D01*
X132429Y278250D01*
X132109Y277933D01*
Y282067D01*
X132429Y281750D01*
D02*
G37*
G36*
X445714Y277300D02*
X445653Y277357D01*
X445588Y277408D01*
X445518Y277453D01*
X445445Y277492D01*
X445366Y277525D01*
X445284Y277552D01*
X445197Y277573D01*
X445107Y277588D01*
X445011Y277597D01*
X444912Y277600D01*
Y278400D01*
X445011Y278403D01*
X445107Y278412D01*
X445197Y278427D01*
X445284Y278448D01*
X445366Y278475D01*
X445445Y278508D01*
X445518Y278547D01*
X445588Y278592D01*
X445653Y278643D01*
X445714Y278700D01*
Y277300D01*
D02*
G37*
G36*
X489970Y277047D02*
X489520Y277045D01*
X488719Y276998D01*
X488369Y276954D01*
X488051Y276896D01*
X487767Y276824D01*
X487516Y276738D01*
X487298Y276638D01*
X487113Y276524D01*
X486961Y276396D01*
X486396Y276961D01*
X486524Y277113D01*
X486638Y277298D01*
X486738Y277516D01*
X486824Y277767D01*
X486896Y278051D01*
X486954Y278369D01*
X486999Y278719D01*
X487045Y279520D01*
X487047Y279971D01*
X489970Y277047D01*
D02*
G37*
G36*
X277346Y268706D02*
X275817Y271617D01*
X276069Y272497D01*
X276245Y272346D01*
X276438Y272231D01*
X276646Y272151D01*
X276871Y272106D01*
X277112Y272096D01*
X277369Y272122D01*
X277643Y272183D01*
X277932Y272280D01*
X278238Y272411D01*
X278560Y272578D01*
X277346Y268706D01*
D02*
G37*
G36*
X505995Y274602D02*
X506244Y274446D01*
X506530Y274316D01*
X506853Y274211D01*
X507213Y274131D01*
X507610Y274077D01*
X508044Y274047D01*
X508515Y274043D01*
X509568Y274111D01*
X505889Y270432D01*
X505935Y270977D01*
X505953Y271956D01*
X505923Y272390D01*
X505869Y272787D01*
X505789Y273147D01*
X505684Y273470D01*
X505554Y273756D01*
X505398Y274005D01*
X505217Y274217D01*
X505783Y274783D01*
X505995Y274602D01*
D02*
G37*
G36*
X367113Y273476D02*
X367298Y273362D01*
X367516Y273262D01*
X367767Y273176D01*
X368051Y273104D01*
X368369Y273046D01*
X368719Y273002D01*
X369520Y272955D01*
X369970Y272953D01*
X367047Y270029D01*
X367045Y270480D01*
X366999Y271281D01*
X366954Y271631D01*
X366896Y271949D01*
X366824Y272233D01*
X366738Y272484D01*
X366638Y272702D01*
X366524Y272887D01*
X366396Y273039D01*
X366961Y273604D01*
X367113Y273476D01*
D02*
G37*
G36*
X123604Y273039D02*
X123476Y272887D01*
X123362Y272702D01*
X123262Y272484D01*
X123176Y272233D01*
X123104Y271949D01*
X123046Y271631D01*
X123001Y271281D01*
X122955Y270480D01*
X122953Y270029D01*
X120029Y272953D01*
X120480Y272955D01*
X121281Y273002D01*
X121631Y273046D01*
X121949Y273104D01*
X122233Y273176D01*
X122484Y273262D01*
X122702Y273362D01*
X122887Y273476D01*
X123039Y273604D01*
X123604Y273039D01*
D02*
G37*
G36*
X113604D02*
X113476Y272887D01*
X113362Y272702D01*
X113262Y272484D01*
X113176Y272233D01*
X113104Y271949D01*
X113046Y271631D01*
X113001Y271281D01*
X112955Y270480D01*
X112953Y270029D01*
X110029Y272953D01*
X110480Y272955D01*
X111281Y273002D01*
X111631Y273046D01*
X111949Y273104D01*
X112233Y273176D01*
X112484Y273262D01*
X112702Y273362D01*
X112887Y273476D01*
X113039Y273604D01*
X113604Y273039D01*
D02*
G37*
G36*
X320275Y270643D02*
X320340Y270592D01*
X320410Y270547D01*
X320484Y270508D01*
X320562Y270475D01*
X320644Y270448D01*
X320731Y270427D01*
X320822Y270412D01*
X320917Y270403D01*
X321017Y270400D01*
Y269600D01*
X320917Y269597D01*
X320822Y269588D01*
X320731Y269573D01*
X320644Y269552D01*
X320562Y269525D01*
X320484Y269492D01*
X320410Y269453D01*
X320340Y269408D01*
X320275Y269357D01*
X320214Y269300D01*
X319500Y270000D01*
X320214Y270700D01*
X320275Y270643D01*
D02*
G37*
G36*
X319500Y270000D02*
X318786Y269300D01*
X318725Y269357D01*
X318660Y269408D01*
X318590Y269453D01*
X318516Y269492D01*
X318438Y269525D01*
X318356Y269552D01*
X318269Y269573D01*
X318178Y269588D01*
X318083Y269597D01*
X317984Y269600D01*
Y270400D01*
X318083Y270403D01*
X318178Y270412D01*
X318269Y270427D01*
X318356Y270448D01*
X318438Y270475D01*
X318516Y270508D01*
X318590Y270547D01*
X318660Y270592D01*
X318725Y270643D01*
X318786Y270700D01*
X319500Y270000D01*
D02*
G37*
G36*
X260275Y270643D02*
X260340Y270592D01*
X260410Y270547D01*
X260484Y270508D01*
X260562Y270475D01*
X260644Y270448D01*
X260731Y270427D01*
X260822Y270412D01*
X260917Y270403D01*
X261017Y270400D01*
Y269600D01*
X260917Y269597D01*
X260822Y269588D01*
X260731Y269573D01*
X260644Y269552D01*
X260562Y269525D01*
X260484Y269492D01*
X260410Y269453D01*
X260340Y269408D01*
X260275Y269357D01*
X260214Y269300D01*
X259500Y270000D01*
X260214Y270700D01*
X260275Y270643D01*
D02*
G37*
G36*
X259500Y270000D02*
X258786Y269300D01*
X258725Y269357D01*
X258660Y269408D01*
X258590Y269453D01*
X258516Y269492D01*
X258438Y269525D01*
X258356Y269552D01*
X258269Y269573D01*
X258178Y269588D01*
X258083Y269597D01*
X257983Y269600D01*
Y270400D01*
X258083Y270403D01*
X258178Y270412D01*
X258269Y270427D01*
X258356Y270448D01*
X258438Y270475D01*
X258516Y270508D01*
X258590Y270547D01*
X258660Y270592D01*
X258725Y270643D01*
X258786Y270700D01*
X259500Y270000D01*
D02*
G37*
G36*
X462429Y271750D02*
X463028Y271217D01*
X463307Y271000D01*
X463573Y270817D01*
X463825Y270667D01*
X464063Y270550D01*
X464288Y270467D01*
X464500Y270417D01*
X464697Y270400D01*
Y269600D01*
X464500Y269583D01*
X464288Y269533D01*
X464063Y269450D01*
X463825Y269333D01*
X463573Y269183D01*
X463307Y269000D01*
X463028Y268783D01*
X462429Y268250D01*
X462109Y267933D01*
Y272067D01*
X462429Y271750D01*
D02*
G37*
G36*
X312429D02*
X313028Y271217D01*
X313307Y271000D01*
X313573Y270817D01*
X313825Y270667D01*
X314063Y270550D01*
X314288Y270467D01*
X314499Y270417D01*
X314697Y270400D01*
Y269600D01*
X314499Y269583D01*
X314288Y269533D01*
X314063Y269450D01*
X313825Y269333D01*
X313573Y269183D01*
X313307Y269000D01*
X313028Y268783D01*
X312429Y268250D01*
X312109Y267933D01*
Y272067D01*
X312429Y271750D01*
D02*
G37*
G36*
X252429D02*
X253028Y271217D01*
X253307Y271000D01*
X253573Y270817D01*
X253825Y270667D01*
X254063Y270550D01*
X254288Y270467D01*
X254500Y270417D01*
X254697Y270400D01*
Y269600D01*
X254500Y269583D01*
X254288Y269533D01*
X254063Y269450D01*
X253825Y269333D01*
X253573Y269183D01*
X253307Y269000D01*
X253028Y268783D01*
X252429Y268250D01*
X252109Y267933D01*
Y272067D01*
X252429Y271750D01*
D02*
G37*
G36*
X147891Y267933D02*
X147571Y268250D01*
X146972Y268783D01*
X146693Y269000D01*
X146427Y269183D01*
X146175Y269333D01*
X145937Y269450D01*
X145712Y269533D01*
X145501Y269583D01*
X145303Y269600D01*
Y270400D01*
X145501Y270417D01*
X145712Y270467D01*
X145937Y270550D01*
X146175Y270667D01*
X146427Y270817D01*
X146693Y271000D01*
X146972Y271217D01*
X147571Y271750D01*
X147891Y272067D01*
Y267933D01*
D02*
G37*
G36*
X132429Y271750D02*
X133028Y271217D01*
X133307Y271000D01*
X133573Y270817D01*
X133825Y270667D01*
X134063Y270550D01*
X134288Y270467D01*
X134500Y270417D01*
X134697Y270400D01*
Y269600D01*
X134500Y269583D01*
X134288Y269533D01*
X134063Y269450D01*
X133825Y269333D01*
X133573Y269183D01*
X133307Y269000D01*
X133028Y268783D01*
X132429Y268250D01*
X132109Y267933D01*
Y272067D01*
X132429Y271750D01*
D02*
G37*
G36*
X389970Y267047D02*
X389520Y267045D01*
X388719Y266999D01*
X388369Y266954D01*
X388051Y266896D01*
X387767Y266824D01*
X387516Y266738D01*
X387298Y266638D01*
X387113Y266524D01*
X386961Y266396D01*
X386396Y266961D01*
X386524Y267113D01*
X386638Y267298D01*
X386738Y267516D01*
X386824Y267767D01*
X386896Y268051D01*
X386954Y268369D01*
X386999Y268719D01*
X387045Y269520D01*
X387047Y269970D01*
X389970Y267047D01*
D02*
G37*
G36*
X342955Y269520D02*
X343002Y268719D01*
X343046Y268369D01*
X343104Y268051D01*
X343176Y267767D01*
X343262Y267516D01*
X343362Y267298D01*
X343476Y267113D01*
X343604Y266961D01*
X343039Y266396D01*
X342887Y266524D01*
X342702Y266638D01*
X342484Y266738D01*
X342233Y266824D01*
X341949Y266896D01*
X341631Y266954D01*
X341281Y266999D01*
X340480Y267045D01*
X340030Y267047D01*
X342953Y269970D01*
X342955Y269520D01*
D02*
G37*
G36*
X277346Y258706D02*
X275817Y261617D01*
X276069Y262496D01*
X276245Y262346D01*
X276438Y262231D01*
X276646Y262151D01*
X276871Y262106D01*
X277112Y262097D01*
X277369Y262122D01*
X277643Y262183D01*
X277932Y262280D01*
X278238Y262411D01*
X278560Y262578D01*
X277346Y258706D01*
D02*
G37*
G36*
X454547Y269282D02*
X454919Y267895D01*
X455637Y266652D01*
X456369Y265000D01*
X455637Y263348D01*
X454919Y262105D01*
X454547Y260718D01*
Y259282D01*
X452635Y257078D01*
X425764D01*
X425335Y257366D01*
X423953Y259480D01*
Y259500D01*
X416047D01*
Y259480D01*
X416317Y258474D01*
X416670Y257212D01*
X416212Y256221D01*
X412916Y252925D01*
X395014D01*
X394950Y252963D01*
X394814Y253057D01*
X394658Y253178D01*
X394434Y253377D01*
X394156Y253957D01*
X394051Y255948D01*
X394363Y256652D01*
X395081Y257895D01*
X395453Y259282D01*
Y260718D01*
X395081Y262105D01*
X394363Y263348D01*
X393631Y265000D01*
X394363Y266652D01*
X395081Y267895D01*
X395453Y269282D01*
Y270718D01*
X395844Y271228D01*
X412258Y271228D01*
X414547Y269282D01*
X414919Y267895D01*
X415637Y266652D01*
X416652Y265637D01*
X416755Y265577D01*
X417033Y264756D01*
X417101Y262763D01*
X417059Y262649D01*
X416837Y262427D01*
X416317Y261526D01*
X416047Y260520D01*
Y260500D01*
X423953D01*
Y260520D01*
X423683Y261526D01*
X423163Y262427D01*
X422941Y262649D01*
X422899Y262763D01*
X422967Y264756D01*
X423245Y265577D01*
X423348Y265637D01*
X424363Y266652D01*
X425081Y267895D01*
X425453Y269282D01*
Y270718D01*
X425844Y271228D01*
X452258D01*
X454547Y269282D01*
D02*
G37*
G36*
X123604Y263039D02*
X123476Y262887D01*
X123362Y262702D01*
X123262Y262484D01*
X123176Y262233D01*
X123104Y261949D01*
X123046Y261631D01*
X123001Y261281D01*
X122955Y260480D01*
X122953Y260030D01*
X120029Y262953D01*
X120480Y262955D01*
X121281Y263001D01*
X121631Y263046D01*
X121949Y263104D01*
X122233Y263176D01*
X122484Y263262D01*
X122702Y263362D01*
X122887Y263476D01*
X123039Y263604D01*
X123604Y263039D01*
D02*
G37*
G36*
X113604D02*
X113476Y262887D01*
X113362Y262702D01*
X113262Y262484D01*
X113176Y262233D01*
X113104Y261949D01*
X113046Y261631D01*
X113001Y261281D01*
X112955Y260480D01*
X112953Y260030D01*
X110029Y262953D01*
X110480Y262955D01*
X111281Y263001D01*
X111631Y263046D01*
X111949Y263104D01*
X112233Y263176D01*
X112484Y263262D01*
X112702Y263362D01*
X112887Y263476D01*
X113039Y263604D01*
X113604Y263039D01*
D02*
G37*
G36*
X322775Y260643D02*
X322840Y260592D01*
X322910Y260547D01*
X322984Y260508D01*
X323062Y260475D01*
X323144Y260448D01*
X323231Y260427D01*
X323322Y260412D01*
X323417Y260403D01*
X323517Y260400D01*
Y259600D01*
X323417Y259597D01*
X323322Y259588D01*
X323231Y259573D01*
X323144Y259552D01*
X323062Y259525D01*
X322984Y259492D01*
X322910Y259453D01*
X322840Y259408D01*
X322775Y259357D01*
X322714Y259300D01*
X322000Y260000D01*
X322714Y260700D01*
X322775Y260643D01*
D02*
G37*
G36*
X322000Y260000D02*
X321286Y259300D01*
X321225Y259357D01*
X321160Y259408D01*
X321090Y259453D01*
X321016Y259492D01*
X320938Y259525D01*
X320856Y259552D01*
X320769Y259573D01*
X320678Y259588D01*
X320583Y259597D01*
X320483Y259600D01*
Y260400D01*
X320583Y260403D01*
X320678Y260412D01*
X320769Y260427D01*
X320856Y260448D01*
X320938Y260475D01*
X321016Y260508D01*
X321090Y260547D01*
X321160Y260592D01*
X321225Y260643D01*
X321286Y260700D01*
X322000Y260000D01*
D02*
G37*
G36*
X262775Y260643D02*
X262840Y260592D01*
X262910Y260547D01*
X262984Y260508D01*
X263062Y260475D01*
X263144Y260448D01*
X263231Y260427D01*
X263322Y260412D01*
X263417Y260403D01*
X263516Y260400D01*
Y259600D01*
X263417Y259597D01*
X263322Y259588D01*
X263231Y259573D01*
X263144Y259552D01*
X263062Y259525D01*
X262984Y259492D01*
X262910Y259453D01*
X262840Y259408D01*
X262775Y259357D01*
X262714Y259300D01*
X262000Y260000D01*
X262714Y260700D01*
X262775Y260643D01*
D02*
G37*
G36*
X262000Y260000D02*
X261286Y259300D01*
X261225Y259357D01*
X261160Y259408D01*
X261090Y259453D01*
X261016Y259492D01*
X260938Y259525D01*
X260856Y259552D01*
X260769Y259573D01*
X260678Y259588D01*
X260583Y259597D01*
X260484Y259600D01*
Y260400D01*
X260583Y260403D01*
X260678Y260412D01*
X260769Y260427D01*
X260856Y260448D01*
X260938Y260475D01*
X261016Y260508D01*
X261090Y260547D01*
X261160Y260592D01*
X261225Y260643D01*
X261286Y260700D01*
X262000Y260000D01*
D02*
G37*
G36*
X161275Y260643D02*
X161340Y260592D01*
X161410Y260547D01*
X161484Y260508D01*
X161562Y260475D01*
X161644Y260448D01*
X161731Y260427D01*
X161822Y260412D01*
X161917Y260403D01*
X162016Y260400D01*
Y259600D01*
X161917Y259597D01*
X161822Y259588D01*
X161731Y259573D01*
X161644Y259552D01*
X161562Y259525D01*
X161484Y259492D01*
X161410Y259453D01*
X161340Y259408D01*
X161275Y259357D01*
X161214Y259300D01*
Y260700D01*
X161275Y260643D01*
D02*
G37*
G36*
X462429Y261750D02*
X463028Y261217D01*
X463307Y261000D01*
X463573Y260817D01*
X463825Y260667D01*
X464063Y260550D01*
X464288Y260467D01*
X464500Y260417D01*
X464697Y260400D01*
Y259600D01*
X464500Y259583D01*
X464288Y259533D01*
X464063Y259450D01*
X463825Y259333D01*
X463573Y259183D01*
X463307Y259000D01*
X463028Y258783D01*
X462429Y258250D01*
X462109Y257933D01*
Y262067D01*
X462429Y261750D01*
D02*
G37*
G36*
X387891Y257933D02*
X387571Y258250D01*
X386972Y258783D01*
X386693Y259000D01*
X386427Y259183D01*
X386175Y259333D01*
X385937Y259450D01*
X385712Y259533D01*
X385501Y259583D01*
X385303Y259600D01*
Y260400D01*
X385501Y260417D01*
X385712Y260467D01*
X385937Y260550D01*
X386175Y260667D01*
X386427Y260817D01*
X386693Y261000D01*
X386972Y261217D01*
X387571Y261750D01*
X387891Y262067D01*
Y257933D01*
D02*
G37*
G36*
X372429Y261750D02*
X373028Y261217D01*
X373307Y261000D01*
X373573Y260817D01*
X373825Y260667D01*
X374063Y260550D01*
X374288Y260467D01*
X374500Y260417D01*
X374697Y260400D01*
Y259600D01*
X374500Y259583D01*
X374288Y259533D01*
X374063Y259450D01*
X373825Y259333D01*
X373573Y259183D01*
X373307Y259000D01*
X373028Y258783D01*
X372429Y258250D01*
X372109Y257933D01*
Y262067D01*
X372429Y261750D01*
D02*
G37*
G36*
X337891Y257933D02*
X337571Y258250D01*
X336972Y258783D01*
X336693Y259000D01*
X336427Y259183D01*
X336175Y259333D01*
X335937Y259450D01*
X335712Y259533D01*
X335501Y259583D01*
X335303Y259600D01*
Y260400D01*
X335501Y260417D01*
X335712Y260467D01*
X335937Y260550D01*
X336175Y260667D01*
X336427Y260817D01*
X336693Y261000D01*
X336972Y261217D01*
X337571Y261750D01*
X337891Y262067D01*
Y257933D01*
D02*
G37*
G36*
X312429Y261750D02*
X313028Y261217D01*
X313307Y261000D01*
X313573Y260817D01*
X313825Y260667D01*
X314063Y260550D01*
X314288Y260467D01*
X314499Y260417D01*
X314697Y260400D01*
Y259600D01*
X314499Y259583D01*
X314288Y259533D01*
X314063Y259450D01*
X313825Y259333D01*
X313573Y259183D01*
X313307Y259000D01*
X313028Y258783D01*
X312429Y258250D01*
X312109Y257933D01*
Y262067D01*
X312429Y261750D01*
D02*
G37*
G36*
X252429D02*
X253028Y261217D01*
X253307Y261000D01*
X253573Y260817D01*
X253825Y260667D01*
X254063Y260550D01*
X254288Y260467D01*
X254500Y260417D01*
X254697Y260400D01*
Y259600D01*
X254500Y259583D01*
X254288Y259533D01*
X254063Y259450D01*
X253825Y259333D01*
X253573Y259183D01*
X253307Y259000D01*
X253028Y258783D01*
X252429Y258250D01*
X252109Y257933D01*
Y262067D01*
X252429Y261750D01*
D02*
G37*
G36*
X177891Y257933D02*
X177571Y258250D01*
X176972Y258783D01*
X176693Y259000D01*
X176427Y259183D01*
X176175Y259333D01*
X175937Y259450D01*
X175712Y259533D01*
X175501Y259583D01*
X175303Y259600D01*
Y260400D01*
X175501Y260417D01*
X175712Y260467D01*
X175937Y260550D01*
X176175Y260667D01*
X176427Y260817D01*
X176693Y261000D01*
X176972Y261217D01*
X177571Y261750D01*
X177891Y262067D01*
Y257933D01*
D02*
G37*
G36*
X147891D02*
X147571Y258250D01*
X146972Y258783D01*
X146693Y259000D01*
X146427Y259183D01*
X146175Y259333D01*
X145937Y259450D01*
X145712Y259533D01*
X145501Y259583D01*
X145303Y259600D01*
Y260400D01*
X145501Y260417D01*
X145712Y260467D01*
X145937Y260550D01*
X146175Y260667D01*
X146427Y260817D01*
X146693Y261000D01*
X146972Y261217D01*
X147571Y261750D01*
X147891Y262067D01*
Y257933D01*
D02*
G37*
G36*
X132429Y261750D02*
X133028Y261217D01*
X133307Y261000D01*
X133573Y260817D01*
X133825Y260667D01*
X134063Y260550D01*
X134288Y260467D01*
X134500Y260417D01*
X134697Y260400D01*
Y259600D01*
X134500Y259583D01*
X134288Y259533D01*
X134063Y259450D01*
X133825Y259333D01*
X133573Y259183D01*
X133307Y259000D01*
X133028Y258783D01*
X132429Y258250D01*
X132109Y257933D01*
Y262067D01*
X132429Y261750D01*
D02*
G37*
G36*
X489970Y257047D02*
X489520Y257045D01*
X488719Y256998D01*
X488369Y256954D01*
X488051Y256896D01*
X487767Y256824D01*
X487516Y256738D01*
X487298Y256638D01*
X487113Y256524D01*
X486961Y256396D01*
X486396Y256961D01*
X486524Y257113D01*
X486638Y257298D01*
X486738Y257516D01*
X486824Y257767D01*
X486896Y258051D01*
X486954Y258369D01*
X486999Y258719D01*
X487045Y259520D01*
X487047Y259970D01*
X489970Y257047D01*
D02*
G37*
G36*
X505816Y259785D02*
X506064Y259642D01*
X506366Y259517D01*
X506721Y259409D01*
X507128Y259319D01*
X507588Y259247D01*
X508668Y259155D01*
X509287Y259136D01*
X509959Y259134D01*
X505866Y255041D01*
X505864Y255713D01*
X505753Y257412D01*
X505681Y257872D01*
X505591Y258279D01*
X505483Y258634D01*
X505358Y258936D01*
X505215Y259185D01*
X505054Y259380D01*
X505620Y259946D01*
X505816Y259785D01*
D02*
G37*
G36*
X277346Y248707D02*
X275817Y251617D01*
X276069Y252497D01*
X276245Y252346D01*
X276438Y252231D01*
X276646Y252151D01*
X276871Y252106D01*
X277112Y252097D01*
X277369Y252122D01*
X277643Y252183D01*
X277932Y252279D01*
X278238Y252411D01*
X278560Y252578D01*
X277346Y248707D01*
D02*
G37*
G36*
X367113Y253476D02*
X367298Y253362D01*
X367516Y253262D01*
X367767Y253176D01*
X368051Y253104D01*
X368369Y253046D01*
X368719Y253001D01*
X369520Y252955D01*
X369970Y252953D01*
X367047Y250029D01*
X367045Y250480D01*
X366999Y251281D01*
X366954Y251631D01*
X366896Y251949D01*
X366824Y252233D01*
X366738Y252484D01*
X366638Y252702D01*
X366524Y252887D01*
X366396Y253039D01*
X366961Y253604D01*
X367113Y253476D01*
D02*
G37*
G36*
X123604Y253039D02*
X123476Y252887D01*
X123362Y252702D01*
X123262Y252484D01*
X123176Y252233D01*
X123104Y251949D01*
X123046Y251631D01*
X123001Y251281D01*
X122955Y250480D01*
X122953Y250029D01*
X120029Y252953D01*
X120480Y252955D01*
X121281Y253001D01*
X121631Y253046D01*
X121949Y253104D01*
X122233Y253176D01*
X122484Y253262D01*
X122702Y253362D01*
X122887Y253476D01*
X123039Y253604D01*
X123604Y253039D01*
D02*
G37*
G36*
X113604D02*
X113476Y252887D01*
X113362Y252702D01*
X113262Y252484D01*
X113176Y252233D01*
X113104Y251949D01*
X113046Y251631D01*
X113001Y251281D01*
X112955Y250480D01*
X112953Y250029D01*
X110029Y252953D01*
X110480Y252955D01*
X111281Y253001D01*
X111631Y253046D01*
X111949Y253104D01*
X112233Y253176D01*
X112484Y253262D01*
X112702Y253362D01*
X112887Y253476D01*
X113039Y253604D01*
X113604Y253039D01*
D02*
G37*
G36*
X323786Y249300D02*
X323725Y249357D01*
X323660Y249408D01*
X323590Y249453D01*
X323516Y249492D01*
X323438Y249525D01*
X323356Y249552D01*
X323269Y249573D01*
X323178Y249588D01*
X323083Y249597D01*
X322984Y249600D01*
Y250400D01*
X323083Y250403D01*
X323178Y250412D01*
X323269Y250427D01*
X323356Y250448D01*
X323438Y250475D01*
X323516Y250508D01*
X323590Y250547D01*
X323660Y250592D01*
X323725Y250643D01*
X323786Y250700D01*
Y249300D01*
D02*
G37*
G36*
X265275Y250643D02*
X265340Y250592D01*
X265410Y250547D01*
X265484Y250508D01*
X265562Y250475D01*
X265644Y250448D01*
X265731Y250427D01*
X265822Y250412D01*
X265917Y250403D01*
X266017Y250400D01*
Y249600D01*
X265917Y249597D01*
X265822Y249588D01*
X265731Y249573D01*
X265644Y249552D01*
X265562Y249525D01*
X265484Y249492D01*
X265410Y249453D01*
X265340Y249408D01*
X265275Y249357D01*
X265214Y249300D01*
X264500Y250000D01*
X265214Y250700D01*
X265275Y250643D01*
D02*
G37*
G36*
X264500Y250000D02*
X263786Y249300D01*
X263725Y249357D01*
X263660Y249408D01*
X263590Y249453D01*
X263516Y249492D01*
X263438Y249525D01*
X263356Y249552D01*
X263269Y249573D01*
X263178Y249588D01*
X263083Y249597D01*
X262983Y249600D01*
Y250400D01*
X263083Y250403D01*
X263178Y250412D01*
X263269Y250427D01*
X263356Y250448D01*
X263438Y250475D01*
X263516Y250508D01*
X263590Y250547D01*
X263660Y250592D01*
X263725Y250643D01*
X263786Y250700D01*
X264500Y250000D01*
D02*
G37*
G36*
X163775Y250643D02*
X163840Y250592D01*
X163910Y250547D01*
X163984Y250508D01*
X164062Y250475D01*
X164144Y250448D01*
X164231Y250427D01*
X164322Y250412D01*
X164417Y250403D01*
X164516Y250400D01*
Y249600D01*
X164417Y249597D01*
X164322Y249588D01*
X164231Y249573D01*
X164144Y249552D01*
X164062Y249525D01*
X163984Y249492D01*
X163910Y249453D01*
X163840Y249408D01*
X163775Y249357D01*
X163714Y249300D01*
Y250700D01*
X163775Y250643D01*
D02*
G37*
G36*
X325466Y250275D02*
X325499Y250206D01*
X325577Y250067D01*
X325623Y249997D01*
X325728Y249857D01*
X325788Y249786D01*
X325922Y249644D01*
X325598Y248837D01*
X325523Y248906D01*
X325449Y248965D01*
X325375Y249014D01*
X325301Y249053D01*
X325228Y249081D01*
X325154Y249099D01*
X325081Y249107D01*
X325008Y249104D01*
X324935Y249091D01*
X324863Y249068D01*
X325439Y250344D01*
X325466Y250275D01*
D02*
G37*
G36*
X462429Y251750D02*
X463028Y251217D01*
X463307Y251000D01*
X463573Y250817D01*
X463825Y250667D01*
X464063Y250550D01*
X464288Y250467D01*
X464500Y250417D01*
X464697Y250400D01*
Y249600D01*
X464500Y249583D01*
X464288Y249533D01*
X464063Y249450D01*
X463825Y249333D01*
X463573Y249183D01*
X463307Y249000D01*
X463028Y248783D01*
X462429Y248250D01*
X462109Y247933D01*
Y252067D01*
X462429Y251750D01*
D02*
G37*
G36*
X392429D02*
X393028Y251217D01*
X393307Y251000D01*
X393573Y250817D01*
X393825Y250667D01*
X394063Y250550D01*
X394288Y250467D01*
X394499Y250417D01*
X394697Y250400D01*
Y249600D01*
X394499Y249583D01*
X394288Y249533D01*
X394063Y249450D01*
X393825Y249333D01*
X393573Y249183D01*
X393307Y249000D01*
X393028Y248783D01*
X392429Y248250D01*
X392109Y247933D01*
Y252067D01*
X392429Y251750D01*
D02*
G37*
G36*
X337891Y247933D02*
X337571Y248250D01*
X336972Y248783D01*
X336693Y249000D01*
X336427Y249183D01*
X336175Y249333D01*
X335937Y249450D01*
X335712Y249533D01*
X335501Y249583D01*
X335303Y249600D01*
Y250400D01*
X335501Y250417D01*
X335712Y250467D01*
X335937Y250550D01*
X336175Y250667D01*
X336427Y250817D01*
X336693Y251000D01*
X336972Y251217D01*
X337571Y251750D01*
X337891Y252067D01*
Y247933D01*
D02*
G37*
G36*
X312429Y251750D02*
X313028Y251217D01*
X313307Y251000D01*
X313573Y250817D01*
X313825Y250667D01*
X314063Y250550D01*
X314288Y250467D01*
X314499Y250417D01*
X314697Y250400D01*
Y249600D01*
X314499Y249583D01*
X314288Y249533D01*
X314063Y249450D01*
X313825Y249333D01*
X313573Y249183D01*
X313307Y249000D01*
X313028Y248783D01*
X312429Y248250D01*
X312109Y247933D01*
Y252067D01*
X312429Y251750D01*
D02*
G37*
G36*
X252429D02*
X253028Y251217D01*
X253307Y251000D01*
X253573Y250817D01*
X253825Y250667D01*
X254063Y250550D01*
X254288Y250467D01*
X254500Y250417D01*
X254697Y250400D01*
Y249600D01*
X254500Y249583D01*
X254288Y249533D01*
X254063Y249450D01*
X253825Y249333D01*
X253573Y249183D01*
X253307Y249000D01*
X253028Y248783D01*
X252429Y248250D01*
X252109Y247933D01*
Y252067D01*
X252429Y251750D01*
D02*
G37*
G36*
X177891Y247933D02*
X177571Y248250D01*
X176972Y248783D01*
X176693Y249000D01*
X176427Y249183D01*
X176175Y249333D01*
X175937Y249450D01*
X175712Y249533D01*
X175501Y249583D01*
X175303Y249600D01*
Y250400D01*
X175501Y250417D01*
X175712Y250467D01*
X175937Y250550D01*
X176175Y250667D01*
X176427Y250817D01*
X176693Y251000D01*
X176972Y251217D01*
X177571Y251750D01*
X177891Y252067D01*
Y247933D01*
D02*
G37*
G36*
X147891D02*
X147571Y248250D01*
X146972Y248783D01*
X146693Y249000D01*
X146427Y249183D01*
X146175Y249333D01*
X145937Y249450D01*
X145712Y249533D01*
X145501Y249583D01*
X145303Y249600D01*
Y250400D01*
X145501Y250417D01*
X145712Y250467D01*
X145937Y250550D01*
X146175Y250667D01*
X146427Y250817D01*
X146693Y251000D01*
X146972Y251217D01*
X147571Y251750D01*
X147891Y252067D01*
Y247933D01*
D02*
G37*
G36*
X132429Y251750D02*
X133028Y251217D01*
X133307Y251000D01*
X133573Y250817D01*
X133825Y250667D01*
X134063Y250550D01*
X134288Y250467D01*
X134500Y250417D01*
X134697Y250400D01*
Y249600D01*
X134500Y249583D01*
X134288Y249533D01*
X134063Y249450D01*
X133825Y249333D01*
X133573Y249183D01*
X133307Y249000D01*
X133028Y248783D01*
X132429Y248250D01*
X132109Y247933D01*
Y252067D01*
X132429Y251750D01*
D02*
G37*
G36*
X489970Y247047D02*
X489520Y247045D01*
X488719Y246999D01*
X488369Y246954D01*
X488051Y246896D01*
X487767Y246824D01*
X487516Y246738D01*
X487298Y246638D01*
X487113Y246524D01*
X486961Y246396D01*
X486396Y246961D01*
X486524Y247113D01*
X486638Y247298D01*
X486738Y247516D01*
X486824Y247767D01*
X486896Y248051D01*
X486954Y248369D01*
X486999Y248719D01*
X487045Y249520D01*
X487047Y249971D01*
X489970Y247047D01*
D02*
G37*
G36*
X188215Y243250D02*
X188062Y243392D01*
X187899Y243520D01*
X187725Y243633D01*
X187541Y243730D01*
X187346Y243812D01*
X187140Y243880D01*
X186923Y243933D01*
X186696Y243970D01*
X186458Y243992D01*
X186209Y244000D01*
Y246000D01*
X186458Y246007D01*
X186696Y246030D01*
X186923Y246068D01*
X187140Y246120D01*
X187346Y246187D01*
X187541Y246270D01*
X187725Y246368D01*
X187899Y246480D01*
X188062Y246607D01*
X188215Y246750D01*
Y243250D01*
D02*
G37*
G36*
X414547Y240718D02*
Y239282D01*
X414643Y238925D01*
X413332Y236750D01*
X412881Y236425D01*
X395387D01*
X394506Y237485D01*
X393804Y238925D01*
X393953Y239480D01*
Y239500D01*
X386047D01*
Y239480D01*
X386196Y238925D01*
X385494Y237485D01*
X384613Y236425D01*
X377712D01*
X375614Y238523D01*
X375596Y238595D01*
X375566Y238758D01*
X375614Y239049D01*
X376940Y240781D01*
X377270Y241052D01*
X377561Y241228D01*
X385505D01*
X386047Y240520D01*
Y240500D01*
X393953D01*
Y240520D01*
X394496Y241228D01*
X414156D01*
X414547Y240718D01*
D02*
G37*
G36*
X505816Y244785D02*
X506064Y244642D01*
X506366Y244517D01*
X506721Y244409D01*
X507128Y244319D01*
X507588Y244247D01*
X508668Y244155D01*
X509287Y244135D01*
X509959Y244134D01*
X505866Y240041D01*
X505864Y240713D01*
X505753Y242412D01*
X505681Y242872D01*
X505591Y243279D01*
X505483Y243634D01*
X505358Y243936D01*
X505215Y244184D01*
X505054Y244380D01*
X505620Y244946D01*
X505816Y244785D01*
D02*
G37*
G36*
X153924Y242510D02*
X153737Y242308D01*
X153570Y242095D01*
X153422Y241873D01*
X153295Y241640D01*
X153188Y241397D01*
X153101Y241143D01*
X153034Y240880D01*
X152987Y240607D01*
X152960Y240323D01*
X152953Y240030D01*
X150030Y242953D01*
X150323Y242960D01*
X150607Y242987D01*
X150880Y243034D01*
X151144Y243101D01*
X151397Y243188D01*
X151640Y243295D01*
X151873Y243423D01*
X152095Y243570D01*
X152308Y243737D01*
X152510Y243924D01*
X153924Y242510D01*
D02*
G37*
G36*
X166339Y240665D02*
X166398Y240609D01*
X166463Y240560D01*
X166532Y240518D01*
X166607Y240482D01*
X166686Y240452D01*
X166771Y240429D01*
X166861Y240413D01*
X166956Y240403D01*
X167056Y240400D01*
X166962Y239600D01*
X166863Y239597D01*
X166768Y239589D01*
X166676Y239576D01*
X166588Y239558D01*
X166503Y239534D01*
X166422Y239505D01*
X166345Y239470D01*
X166271Y239430D01*
X166201Y239385D01*
X166135Y239335D01*
X166285Y240727D01*
X166339Y240665D01*
D02*
G37*
G36*
X177071Y239200D02*
X177063Y239276D01*
X177039Y239344D01*
X176998Y239404D01*
X176941Y239456D01*
X176868Y239500D01*
X176779Y239536D01*
X176673Y239564D01*
X176552Y239584D01*
X176414Y239596D01*
X176259Y239600D01*
Y240400D01*
X176414Y240404D01*
X176552Y240416D01*
X176673Y240436D01*
X176779Y240464D01*
X176868Y240500D01*
X176941Y240544D01*
X176998Y240596D01*
X177039Y240656D01*
X177063Y240724D01*
X177071Y240800D01*
Y239200D01*
D02*
G37*
G36*
X214547Y260718D02*
Y259282D01*
X214919Y257895D01*
X215637Y256652D01*
X216370Y255000D01*
X215637Y253348D01*
X214919Y252105D01*
X214547Y250718D01*
Y249282D01*
X214919Y247895D01*
X215637Y246652D01*
X216370Y245000D01*
X215637Y243348D01*
X214919Y242105D01*
X214547Y240718D01*
Y239282D01*
X214156Y238772D01*
X194213D01*
X193521Y240120D01*
X193343Y241272D01*
X194001Y241930D01*
X194659Y243070D01*
X195000Y244342D01*
Y245658D01*
X194659Y246930D01*
X194001Y248070D01*
X193070Y249001D01*
X191930Y249659D01*
X190658Y250000D01*
X189342D01*
X188070Y249659D01*
X187953Y249591D01*
X185643Y250632D01*
X185506Y250756D01*
X185411Y250872D01*
X185081Y252105D01*
X184363Y253348D01*
X183631Y255000D01*
X184363Y256652D01*
X185081Y257895D01*
X185453Y259282D01*
Y260718D01*
X185844Y261228D01*
X214156D01*
X214547Y260718D01*
D02*
G37*
G36*
X282429Y241750D02*
X283028Y241217D01*
X283307Y241000D01*
X283573Y240817D01*
X283825Y240667D01*
X284063Y240550D01*
X284288Y240467D01*
X284500Y240417D01*
X284697Y240400D01*
Y239600D01*
X284500Y239583D01*
X284288Y239533D01*
X284063Y239450D01*
X283825Y239333D01*
X283573Y239183D01*
X283307Y239000D01*
X283028Y238783D01*
X282429Y238250D01*
X282109Y237933D01*
Y242067D01*
X282429Y241750D01*
D02*
G37*
G36*
X277891Y237933D02*
X277571Y238250D01*
X276972Y238783D01*
X276693Y239000D01*
X276427Y239183D01*
X276175Y239333D01*
X275937Y239450D01*
X275712Y239533D01*
X275500Y239583D01*
X275303Y239600D01*
Y240400D01*
X275500Y240417D01*
X275712Y240467D01*
X275937Y240550D01*
X276175Y240667D01*
X276427Y240817D01*
X276693Y241000D01*
X276972Y241217D01*
X277571Y241750D01*
X277891Y242067D01*
Y237933D01*
D02*
G37*
G36*
X222429Y241750D02*
X223028Y241217D01*
X223307Y241000D01*
X223573Y240817D01*
X223825Y240667D01*
X224063Y240550D01*
X224288Y240467D01*
X224500Y240417D01*
X224697Y240400D01*
Y239600D01*
X224500Y239583D01*
X224288Y239533D01*
X224063Y239450D01*
X223825Y239333D01*
X223573Y239183D01*
X223307Y239000D01*
X223028Y238783D01*
X222429Y238250D01*
X222109Y237933D01*
Y242067D01*
X222429Y241750D01*
D02*
G37*
G36*
X132429D02*
X133028Y241217D01*
X133307Y241000D01*
X133573Y240817D01*
X133825Y240667D01*
X134063Y240550D01*
X134288Y240467D01*
X134500Y240417D01*
X134697Y240400D01*
Y239600D01*
X134500Y239583D01*
X134288Y239533D01*
X134063Y239450D01*
X133825Y239333D01*
X133573Y239183D01*
X133307Y239000D01*
X133028Y238783D01*
X132429Y238250D01*
X132109Y237933D01*
Y242067D01*
X132429Y241750D01*
D02*
G37*
G36*
X372955Y239520D02*
X373002Y238719D01*
X373046Y238369D01*
X373104Y238051D01*
X373176Y237767D01*
X373262Y237516D01*
X373362Y237298D01*
X373476Y237113D01*
X373604Y236961D01*
X373039Y236396D01*
X372887Y236524D01*
X372702Y236638D01*
X372484Y236738D01*
X372233Y236824D01*
X371949Y236896D01*
X371631Y236954D01*
X371281Y236999D01*
X370480Y237045D01*
X370029Y237047D01*
X372953Y239970D01*
X372955Y239520D01*
D02*
G37*
G36*
X122955D02*
X123001Y238719D01*
X123046Y238369D01*
X123104Y238051D01*
X123176Y237767D01*
X123262Y237516D01*
X123362Y237298D01*
X123476Y237113D01*
X123604Y236961D01*
X123039Y236396D01*
X122887Y236524D01*
X122702Y236638D01*
X122484Y236738D01*
X122233Y236824D01*
X121949Y236896D01*
X121631Y236954D01*
X121281Y236999D01*
X120480Y237045D01*
X120029Y237047D01*
X122953Y239970D01*
X122955Y239520D01*
D02*
G37*
G36*
X112955D02*
X113001Y238719D01*
X113046Y238369D01*
X113104Y238051D01*
X113176Y237767D01*
X113262Y237516D01*
X113362Y237298D01*
X113476Y237113D01*
X113604Y236961D01*
X113039Y236396D01*
X112887Y236524D01*
X112702Y236638D01*
X112484Y236738D01*
X112233Y236824D01*
X111949Y236896D01*
X111631Y236954D01*
X111281Y236999D01*
X110480Y237045D01*
X110029Y237047D01*
X112953Y239970D01*
X112955Y239520D01*
D02*
G37*
G36*
X224490Y236000D02*
X224407Y235997D01*
X224324Y235987D01*
X224243Y235970D01*
X224164Y235945D01*
X224085Y235913D01*
X224008Y235874D01*
X223932Y235828D01*
X223857Y235774D01*
X223783Y235713D01*
X223710Y235645D01*
X223145Y236210D01*
X223213Y236283D01*
X223274Y236357D01*
X223328Y236432D01*
X223374Y236508D01*
X223413Y236585D01*
X223445Y236664D01*
X223470Y236743D01*
X223487Y236824D01*
X223497Y236907D01*
X223500Y236990D01*
X224490Y236000D01*
D02*
G37*
G36*
X480286Y234300D02*
X480225Y234357D01*
X480160Y234408D01*
X480090Y234453D01*
X480016Y234492D01*
X479938Y234525D01*
X479856Y234552D01*
X479769Y234573D01*
X479678Y234588D01*
X479583Y234597D01*
X479484Y234600D01*
Y235400D01*
X479583Y235403D01*
X479678Y235412D01*
X479769Y235427D01*
X479856Y235448D01*
X479938Y235475D01*
X480016Y235508D01*
X480090Y235547D01*
X480160Y235592D01*
X480225Y235643D01*
X480286Y235700D01*
Y234300D01*
D02*
G37*
G36*
X256286Y233547D02*
X256225Y233604D01*
X256160Y233655D01*
X256090Y233700D01*
X256016Y233739D01*
X255938Y233772D01*
X255856Y233799D01*
X255769Y233820D01*
X255678Y233835D01*
X255583Y233844D01*
X255484Y233847D01*
X255484Y234647D01*
X255583Y234650D01*
X255678Y234659D01*
X255769Y234674D01*
X255856Y234695D01*
X255938Y234722D01*
X256016Y234755D01*
X256090Y234794D01*
X256160Y234839D01*
X256225Y234890D01*
X256286Y234947D01*
X256286Y233547D01*
D02*
G37*
G36*
X364674Y241190D02*
X364547Y240718D01*
Y239282D01*
X364919Y237895D01*
X365637Y236652D01*
X366652Y235637D01*
X367895Y234919D01*
X369075Y234603D01*
X369386Y234418D01*
X368186Y231926D01*
X368182Y231925D01*
X342299D01*
X340486Y233754D01*
X340494Y234269D01*
X341308Y236258D01*
X341526Y236317D01*
X342427Y236837D01*
X343163Y237573D01*
X343683Y238474D01*
X343953Y239480D01*
Y239500D01*
X340000D01*
Y240500D01*
X343953D01*
Y240520D01*
X345335Y242634D01*
X345764Y242922D01*
X362941D01*
X364674Y241190D01*
D02*
G37*
G36*
X444959Y230866D02*
X444287Y230865D01*
X442588Y230753D01*
X442128Y230681D01*
X441721Y230591D01*
X441366Y230483D01*
X441064Y230358D01*
X440815Y230215D01*
X440620Y230054D01*
X440054Y230620D01*
X440215Y230816D01*
X440358Y231064D01*
X440483Y231366D01*
X440591Y231721D01*
X440681Y232128D01*
X440753Y232588D01*
X440845Y233668D01*
X440865Y234287D01*
X440866Y234959D01*
X444959Y230866D01*
D02*
G37*
G36*
X174786Y229300D02*
X174725Y229357D01*
X174660Y229408D01*
X174590Y229453D01*
X174516Y229492D01*
X174438Y229525D01*
X174356Y229552D01*
X174269Y229573D01*
X174178Y229588D01*
X174083Y229597D01*
X173984Y229600D01*
Y230400D01*
X174083Y230403D01*
X174178Y230412D01*
X174269Y230427D01*
X174356Y230448D01*
X174438Y230475D01*
X174516Y230508D01*
X174590Y230547D01*
X174660Y230592D01*
X174725Y230643D01*
X174786Y230700D01*
Y229300D01*
D02*
G37*
G36*
X307891Y227933D02*
X307571Y228250D01*
X306972Y228783D01*
X306693Y229000D01*
X306427Y229183D01*
X306175Y229333D01*
X305937Y229450D01*
X305712Y229533D01*
X305501Y229583D01*
X305303Y229600D01*
Y230400D01*
X305501Y230417D01*
X305712Y230467D01*
X305937Y230550D01*
X306175Y230667D01*
X306427Y230817D01*
X306693Y231000D01*
X306972Y231217D01*
X307571Y231750D01*
X307891Y232067D01*
Y227933D01*
D02*
G37*
G36*
X252429Y231750D02*
X253028Y231217D01*
X253307Y231000D01*
X253573Y230817D01*
X253825Y230667D01*
X254063Y230550D01*
X254288Y230467D01*
X254500Y230417D01*
X254697Y230400D01*
Y229600D01*
X254500Y229583D01*
X254288Y229533D01*
X254063Y229450D01*
X253825Y229333D01*
X253573Y229183D01*
X253307Y229000D01*
X253028Y228783D01*
X252429Y228250D01*
X252109Y227933D01*
Y232067D01*
X252429Y231750D01*
D02*
G37*
G36*
X132429D02*
X133028Y231217D01*
X133307Y231000D01*
X133573Y230817D01*
X133825Y230667D01*
X134063Y230550D01*
X134288Y230467D01*
X134500Y230417D01*
X134697Y230400D01*
Y229600D01*
X134500Y229583D01*
X134288Y229533D01*
X134063Y229450D01*
X133825Y229333D01*
X133573Y229183D01*
X133307Y229000D01*
X133028Y228783D01*
X132429Y228250D01*
X132109Y227933D01*
Y232067D01*
X132429Y231750D01*
D02*
G37*
G36*
X503064Y242799D02*
X503083Y242764D01*
X503083Y242763D01*
X503123Y242633D01*
X503175Y242398D01*
X503217Y242130D01*
X503316Y240626D01*
X503317Y240034D01*
X503366Y239793D01*
Y239347D01*
X503621Y238065D01*
X504121Y236858D01*
X504847Y235771D01*
X505771Y234847D01*
X506858Y234121D01*
X507570Y233826D01*
X507838Y232500D01*
X507570Y231174D01*
X506858Y230879D01*
X505771Y230153D01*
X505456Y229837D01*
X505250Y229701D01*
X504800Y229253D01*
X504425Y228901D01*
X503718Y228305D01*
X503478Y228130D01*
X503275Y228001D01*
X503155Y227937D01*
X503154Y227937D01*
X503116Y227925D01*
X496212D01*
X495614Y228523D01*
X495596Y228595D01*
X495566Y228758D01*
X495541Y228953D01*
X495504Y229601D01*
X495502Y229984D01*
X495453Y230223D01*
Y230718D01*
X495081Y232105D01*
X494369Y233339D01*
X494363Y233349D01*
X493631Y235000D01*
X494363Y236651D01*
X494369Y236661D01*
X495081Y237895D01*
X495453Y239282D01*
Y240718D01*
X495081Y242105D01*
X494363Y243348D01*
X493631Y245000D01*
X494363Y246652D01*
X494844Y247484D01*
X496377Y248010D01*
X497732Y248131D01*
X503064Y242799D01*
D02*
G37*
G36*
X492955Y229520D02*
X493002Y228719D01*
X493046Y228369D01*
X493104Y228051D01*
X493176Y227767D01*
X493262Y227516D01*
X493362Y227298D01*
X493476Y227113D01*
X493604Y226961D01*
X493039Y226396D01*
X492887Y226524D01*
X492702Y226638D01*
X492484Y226738D01*
X492233Y226824D01*
X491949Y226896D01*
X491631Y226954D01*
X491281Y226998D01*
X490480Y227045D01*
X490029Y227047D01*
X492953Y229971D01*
X492955Y229520D01*
D02*
G37*
G36*
X122955D02*
X123001Y228719D01*
X123046Y228369D01*
X123104Y228051D01*
X123176Y227767D01*
X123262Y227516D01*
X123362Y227298D01*
X123476Y227113D01*
X123604Y226961D01*
X123039Y226396D01*
X122887Y226524D01*
X122702Y226638D01*
X122484Y226738D01*
X122233Y226824D01*
X121949Y226896D01*
X121631Y226954D01*
X121281Y226998D01*
X120480Y227045D01*
X120029Y227047D01*
X122953Y229971D01*
X122955Y229520D01*
D02*
G37*
G36*
X112955D02*
X113001Y228719D01*
X113046Y228369D01*
X113104Y228051D01*
X113176Y227767D01*
X113262Y227516D01*
X113362Y227298D01*
X113476Y227113D01*
X113604Y226961D01*
X113039Y226396D01*
X112887Y226524D01*
X112702Y226638D01*
X112484Y226738D01*
X112233Y226824D01*
X111949Y226896D01*
X111631Y226954D01*
X111281Y226998D01*
X110480Y227045D01*
X110029Y227047D01*
X112953Y229971D01*
X112955Y229520D01*
D02*
G37*
G36*
X226990Y226000D02*
X226907Y225997D01*
X226824Y225987D01*
X226743Y225970D01*
X226664Y225945D01*
X226585Y225913D01*
X226508Y225874D01*
X226432Y225828D01*
X226357Y225774D01*
X226283Y225713D01*
X226210Y225645D01*
X225645Y226210D01*
X225713Y226283D01*
X225774Y226357D01*
X225828Y226432D01*
X225874Y226508D01*
X225913Y226585D01*
X225945Y226664D01*
X225970Y226743D01*
X225987Y226824D01*
X225997Y226907D01*
X226000Y226990D01*
X226990Y226000D01*
D02*
G37*
G36*
X258786Y223547D02*
X258725Y223604D01*
X258660Y223655D01*
X258590Y223700D01*
X258516Y223739D01*
X258438Y223772D01*
X258356Y223799D01*
X258269Y223820D01*
X258178Y223835D01*
X258083Y223844D01*
X257983Y223847D01*
X257983Y224647D01*
X258083Y224650D01*
X258178Y224659D01*
X258269Y224674D01*
X258356Y224695D01*
X258438Y224722D01*
X258516Y224755D01*
X258590Y224794D01*
X258660Y224839D01*
X258725Y224890D01*
X258786Y224947D01*
X258786Y223547D01*
D02*
G37*
G36*
X507048Y222106D02*
X506571Y222580D01*
X505292Y223702D01*
X504915Y223977D01*
X504563Y224201D01*
X504236Y224376D01*
X503934Y224500D01*
X503657Y224575D01*
X503405Y224600D01*
Y225400D01*
X503657Y225425D01*
X503934Y225500D01*
X504236Y225624D01*
X504563Y225799D01*
X504915Y226023D01*
X505292Y226298D01*
X506120Y226996D01*
X506571Y227420D01*
X507048Y227894D01*
Y222106D01*
D02*
G37*
G36*
X221938Y221607D02*
X222101Y221480D01*
X222275Y221368D01*
X222360Y221322D01*
X224046D01*
X225175Y218822D01*
X225131Y218772D01*
X222559D01*
X222459Y218730D01*
X222275Y218633D01*
X222101Y218520D01*
X221938Y218392D01*
X221785Y218250D01*
X221253Y218772D01*
X218747D01*
X218215Y218250D01*
X218062Y218392D01*
X217899Y218520D01*
X217725Y218633D01*
X217541Y218730D01*
X217441Y218772D01*
X202559D01*
X202459Y218730D01*
X202275Y218633D01*
X202101Y218520D01*
X201938Y218392D01*
X201785Y218250D01*
X201253Y218772D01*
X198748D01*
X198215Y218250D01*
X198062Y218392D01*
X197899Y218520D01*
X197725Y218633D01*
X197541Y218730D01*
X197441Y218772D01*
X186741D01*
X186143Y219788D01*
X187126Y221322D01*
X197640D01*
X197725Y221368D01*
X197899Y221480D01*
X198062Y221607D01*
X198215Y221750D01*
X198651Y221322D01*
X201349D01*
X201785Y221750D01*
X201938Y221607D01*
X202101Y221480D01*
X202275Y221368D01*
X202360Y221322D01*
X217640D01*
X217725Y221368D01*
X217899Y221480D01*
X218062Y221607D01*
X218215Y221750D01*
X218651Y221322D01*
X221349D01*
X221785Y221750D01*
X221938Y221607D01*
D02*
G37*
G36*
X244118Y220608D02*
X244124Y219463D01*
X243525Y218912D01*
X241649Y218135D01*
X241493Y218225D01*
X241454Y218235D01*
X241337Y218020D01*
X241270Y217818D01*
X241273Y217805D01*
X241338Y217603D01*
X241418Y217412D01*
X241512Y217232D01*
X241620Y217062D01*
X241743Y216904D01*
X241880Y216757D01*
X240657D01*
Y215000D01*
X239657D01*
Y216757D01*
X238435D01*
X238572Y216904D01*
X238695Y217062D01*
X238804Y217232D01*
X238897Y217412D01*
X238977Y217603D01*
X239042Y217805D01*
X239045Y217818D01*
X238978Y218020D01*
X238861Y218235D01*
X238822Y218225D01*
X238033Y217769D01*
X237388Y217125D01*
X236933Y216336D01*
X236697Y215456D01*
Y215029D01*
X235056Y214314D01*
X233000Y215899D01*
Y216308D01*
X232762Y217198D01*
X232301Y217996D01*
X231649Y218648D01*
X231347Y218822D01*
X231716Y221215D01*
X231760Y221322D01*
X243103D01*
X244118Y220608D01*
D02*
G37*
G36*
X182321Y221864D02*
X182541Y221683D01*
X182768Y221523D01*
X183001Y221384D01*
X183242Y221267D01*
X183490Y221171D01*
X183744Y221096D01*
X184006Y221043D01*
X184274Y221011D01*
X184550Y221000D01*
Y219000D01*
X184274Y218989D01*
X184006Y218957D01*
X183744Y218904D01*
X183490Y218829D01*
X183242Y218733D01*
X183001Y218616D01*
X182768Y218477D01*
X182541Y218317D01*
X182321Y218136D01*
X182109Y217933D01*
Y222067D01*
X182321Y221864D01*
D02*
G37*
G36*
X147891Y217933D02*
X147571Y218250D01*
X146972Y218783D01*
X146693Y219000D01*
X146427Y219183D01*
X146175Y219333D01*
X145937Y219450D01*
X145712Y219533D01*
X145501Y219583D01*
X145303Y219600D01*
Y220400D01*
X145501Y220417D01*
X145712Y220467D01*
X145937Y220550D01*
X146175Y220667D01*
X146427Y220817D01*
X146693Y221000D01*
X146972Y221217D01*
X147571Y221750D01*
X147891Y222067D01*
Y217933D01*
D02*
G37*
G36*
X132429Y221750D02*
X133028Y221217D01*
X133307Y221000D01*
X133573Y220817D01*
X133825Y220667D01*
X134063Y220550D01*
X134288Y220467D01*
X134500Y220417D01*
X134697Y220400D01*
Y219600D01*
X134500Y219583D01*
X134288Y219533D01*
X134063Y219450D01*
X133825Y219333D01*
X133573Y219183D01*
X133307Y219000D01*
X133028Y218783D01*
X132429Y218250D01*
X132109Y217933D01*
Y222067D01*
X132429Y221750D01*
D02*
G37*
G36*
X122955Y219520D02*
X123001Y218719D01*
X123046Y218369D01*
X123104Y218051D01*
X123176Y217767D01*
X123262Y217516D01*
X123362Y217298D01*
X123476Y217113D01*
X123604Y216961D01*
X123039Y216396D01*
X122887Y216524D01*
X122702Y216638D01*
X122484Y216738D01*
X122233Y216824D01*
X121949Y216896D01*
X121631Y216954D01*
X121281Y216999D01*
X120480Y217045D01*
X120029Y217047D01*
X122953Y219970D01*
X122955Y219520D01*
D02*
G37*
G36*
X112955D02*
X113001Y218719D01*
X113046Y218369D01*
X113104Y218051D01*
X113176Y217767D01*
X113262Y217516D01*
X113362Y217298D01*
X113476Y217113D01*
X113604Y216961D01*
X113039Y216396D01*
X112887Y216524D01*
X112702Y216638D01*
X112484Y216738D01*
X112233Y216824D01*
X111949Y216896D01*
X111631Y216954D01*
X111281Y216999D01*
X110480Y217045D01*
X110029Y217047D01*
X112953Y219970D01*
X112955Y219520D01*
D02*
G37*
G36*
X228786Y215147D02*
X228725Y215204D01*
X228660Y215255D01*
X228590Y215300D01*
X228516Y215339D01*
X228438Y215372D01*
X228356Y215399D01*
X228269Y215420D01*
X228178Y215435D01*
X228083Y215444D01*
X227983Y215447D01*
X227983Y216247D01*
X228083Y216250D01*
X228178Y216259D01*
X228269Y216274D01*
X228356Y216295D01*
X228438Y216322D01*
X228516Y216355D01*
X228590Y216394D01*
X228660Y216439D01*
X228725Y216490D01*
X228786Y216547D01*
X228786Y215147D01*
D02*
G37*
G36*
X420380Y212551D02*
X420224Y212665D01*
X420040Y212721D01*
X419828D01*
X419588Y212665D01*
X419319Y212551D01*
X419022Y212382D01*
X418697Y212155D01*
X418343Y211873D01*
X417551Y211137D01*
X416137Y212551D01*
X416533Y212962D01*
X417155Y213697D01*
X417382Y214022D01*
X417551Y214319D01*
X417664Y214588D01*
X417721Y214828D01*
Y215040D01*
X417664Y215224D01*
X417551Y215380D01*
X420380Y212551D01*
D02*
G37*
G36*
X311020Y212620D02*
X311032Y212551D01*
X312000D01*
X311810Y212531D01*
X311640Y212471D01*
X311490Y212371D01*
X311360Y212231D01*
X311250Y212051D01*
X311203Y211937D01*
X311320Y211720D01*
X311500Y211500D01*
X311720Y211320D01*
X311980Y211180D01*
X312280Y211080D01*
X312620Y211020D01*
X313000Y211000D01*
X310000Y209000D01*
X307000Y211000D01*
X307380Y211020D01*
X307720Y211080D01*
X308020Y211180D01*
X308280Y211320D01*
X308500Y211500D01*
X308680Y211720D01*
X308797Y211937D01*
X308750Y212051D01*
X308640Y212231D01*
X308510Y212371D01*
X308360Y212471D01*
X308190Y212531D01*
X308000Y212551D01*
X308968D01*
X308980Y212620D01*
X309000Y213000D01*
X311000D01*
X311020Y212620D01*
D02*
G37*
G36*
X251020D02*
X251032Y212551D01*
X252000D01*
X251810Y212531D01*
X251640Y212471D01*
X251490Y212371D01*
X251360Y212231D01*
X251250Y212051D01*
X251203Y211937D01*
X251320Y211720D01*
X251500Y211500D01*
X251720Y211320D01*
X251980Y211180D01*
X252280Y211080D01*
X252620Y211020D01*
X253000Y211000D01*
X250000Y209000D01*
X247000Y211000D01*
X247380Y211020D01*
X247720Y211080D01*
X248020Y211180D01*
X248280Y211320D01*
X248500Y211500D01*
X248680Y211720D01*
X248797Y211937D01*
X248750Y212051D01*
X248640Y212231D01*
X248510Y212371D01*
X248360Y212471D01*
X248190Y212531D01*
X248000Y212551D01*
X248968D01*
X248980Y212620D01*
X249000Y213000D01*
X251000D01*
X251020Y212620D01*
D02*
G37*
G36*
X191938Y211608D02*
X192101Y211480D01*
X192275Y211368D01*
X192459Y211270D01*
X192654Y211188D01*
X192860Y211120D01*
X193077Y211068D01*
X193304Y211030D01*
X193543Y211007D01*
X193791Y211000D01*
Y209000D01*
X193543Y208993D01*
X193304Y208970D01*
X193077Y208932D01*
X192860Y208880D01*
X192654Y208812D01*
X192459Y208730D01*
X192275Y208632D01*
X192101Y208520D01*
X191938Y208393D01*
X191785Y208250D01*
Y211750D01*
X191938Y211608D01*
D02*
G37*
G36*
X147891Y207933D02*
X147571Y208250D01*
X146972Y208783D01*
X146693Y209000D01*
X146427Y209183D01*
X146175Y209333D01*
X145937Y209450D01*
X145712Y209533D01*
X145501Y209583D01*
X145303Y209600D01*
Y210400D01*
X145501Y210417D01*
X145712Y210467D01*
X145937Y210550D01*
X146175Y210667D01*
X146427Y210817D01*
X146693Y211000D01*
X146972Y211217D01*
X147571Y211750D01*
X147891Y212067D01*
Y207933D01*
D02*
G37*
G36*
X132429Y211750D02*
X133028Y211217D01*
X133307Y211000D01*
X133573Y210817D01*
X133825Y210667D01*
X134063Y210550D01*
X134288Y210467D01*
X134500Y210417D01*
X134697Y210400D01*
Y209600D01*
X134500Y209583D01*
X134288Y209533D01*
X134063Y209450D01*
X133825Y209333D01*
X133573Y209183D01*
X133307Y209000D01*
X133028Y208783D01*
X132429Y208250D01*
X132109Y207933D01*
Y212067D01*
X132429Y211750D01*
D02*
G37*
G36*
X122955Y209520D02*
X123001Y208719D01*
X123046Y208369D01*
X123104Y208051D01*
X123176Y207767D01*
X123262Y207516D01*
X123362Y207298D01*
X123476Y207113D01*
X123604Y206961D01*
X123039Y206396D01*
X122887Y206524D01*
X122702Y206638D01*
X122484Y206738D01*
X122233Y206824D01*
X121949Y206896D01*
X121631Y206954D01*
X121281Y206998D01*
X120480Y207045D01*
X120029Y207047D01*
X122953Y209970D01*
X122955Y209520D01*
D02*
G37*
G36*
X112955D02*
X113001Y208719D01*
X113046Y208369D01*
X113104Y208051D01*
X113176Y207767D01*
X113262Y207516D01*
X113362Y207298D01*
X113476Y207113D01*
X113604Y206961D01*
X113039Y206396D01*
X112887Y206524D01*
X112702Y206638D01*
X112484Y206738D01*
X112233Y206824D01*
X111949Y206896D01*
X111631Y206954D01*
X111281Y206998D01*
X110480Y207045D01*
X110029Y207047D01*
X112953Y209970D01*
X112955Y209520D01*
D02*
G37*
G36*
X261286Y205600D02*
X261225Y205657D01*
X261160Y205708D01*
X261090Y205753D01*
X261016Y205792D01*
X260938Y205825D01*
X260856Y205852D01*
X260769Y205873D01*
X260678Y205888D01*
X260583Y205897D01*
X260484Y205900D01*
Y206700D01*
X260583Y206703D01*
X260678Y206712D01*
X260769Y206727D01*
X260856Y206748D01*
X260938Y206775D01*
X261016Y206808D01*
X261090Y206847D01*
X261160Y206892D01*
X261225Y206943D01*
X261286Y207000D01*
Y205600D01*
D02*
G37*
G36*
X305898Y205590D02*
X306258Y203970D01*
X305637Y203348D01*
X304919Y202105D01*
X304547Y200718D01*
Y199282D01*
X304919Y197895D01*
X305637Y196652D01*
X305949Y195948D01*
X305844Y193957D01*
X305566Y193377D01*
X305342Y193178D01*
X305186Y193057D01*
X305050Y192963D01*
X304986Y192925D01*
X287085D01*
X283953Y196057D01*
Y199500D01*
X276047D01*
Y196057D01*
X272916Y192925D01*
X268588D01*
X268000Y193692D01*
Y194614D01*
X267761Y195504D01*
X267301Y196302D01*
X266649Y196953D01*
X265851Y197414D01*
X264961Y197653D01*
X264039D01*
X263149Y197414D01*
X262566Y197078D01*
X257365D01*
X255453Y199282D01*
Y200718D01*
X255411Y200875D01*
X256885Y203169D01*
X257235Y203375D01*
X260066D01*
X260649Y203039D01*
X261539Y202800D01*
X262461D01*
X263351Y203039D01*
X264149Y203499D01*
X264801Y204151D01*
X265262Y204949D01*
X265500Y205839D01*
Y206470D01*
X305357D01*
X305898Y205590D01*
D02*
G37*
G36*
X147891Y197933D02*
X147571Y198250D01*
X146972Y198783D01*
X146693Y199000D01*
X146427Y199183D01*
X146175Y199333D01*
X145937Y199450D01*
X145712Y199533D01*
X145501Y199583D01*
X145303Y199600D01*
Y200400D01*
X145501Y200417D01*
X145712Y200467D01*
X145937Y200550D01*
X146175Y200667D01*
X146427Y200817D01*
X146693Y201000D01*
X146972Y201217D01*
X147571Y201750D01*
X147891Y202067D01*
Y197933D01*
D02*
G37*
G36*
X132429Y201750D02*
X133028Y201217D01*
X133307Y201000D01*
X133573Y200817D01*
X133825Y200667D01*
X134063Y200550D01*
X134288Y200467D01*
X134500Y200417D01*
X134697Y200400D01*
Y199600D01*
X134500Y199583D01*
X134288Y199533D01*
X134063Y199450D01*
X133825Y199333D01*
X133573Y199183D01*
X133307Y199000D01*
X133028Y198783D01*
X132429Y198250D01*
X132109Y197933D01*
Y202067D01*
X132429Y201750D01*
D02*
G37*
G36*
X231286Y197299D02*
X231225Y197356D01*
X231160Y197407D01*
X231090Y197452D01*
X231016Y197491D01*
X230938Y197524D01*
X230856Y197551D01*
X230769Y197572D01*
X230678Y197587D01*
X230583Y197596D01*
X230484Y197599D01*
Y198399D01*
X230583Y198402D01*
X230678Y198411D01*
X230769Y198426D01*
X230856Y198447D01*
X230938Y198474D01*
X231016Y198507D01*
X231090Y198546D01*
X231160Y198591D01*
X231225Y198642D01*
X231286Y198699D01*
Y197299D01*
D02*
G37*
G36*
X243115Y203169D02*
X244589Y200875D01*
X244547Y200718D01*
Y199282D01*
X242635Y197078D01*
X235853D01*
X235500Y197538D01*
Y198460D01*
X235262Y199350D01*
X234801Y200148D01*
X234149Y200800D01*
X234019Y200875D01*
X234689Y203375D01*
X242765D01*
X243115Y203169D01*
D02*
G37*
G36*
X122955Y199520D02*
X123001Y198719D01*
X123046Y198369D01*
X123104Y198051D01*
X123176Y197767D01*
X123262Y197516D01*
X123362Y197298D01*
X123476Y197113D01*
X123604Y196961D01*
X123039Y196396D01*
X122887Y196524D01*
X122702Y196638D01*
X122484Y196738D01*
X122233Y196824D01*
X121949Y196896D01*
X121631Y196954D01*
X121281Y196999D01*
X120480Y197045D01*
X120029Y197047D01*
X122953Y199970D01*
X122955Y199520D01*
D02*
G37*
G36*
X112955D02*
X113001Y198719D01*
X113046Y198369D01*
X113104Y198051D01*
X113176Y197767D01*
X113262Y197516D01*
X113362Y197298D01*
X113476Y197113D01*
X113604Y196961D01*
X113039Y196396D01*
X112887Y196524D01*
X112702Y196638D01*
X112484Y196738D01*
X112233Y196824D01*
X111949Y196896D01*
X111631Y196954D01*
X111281Y196999D01*
X110480Y197045D01*
X110029Y197047D01*
X112953Y199970D01*
X112955Y199520D01*
D02*
G37*
G36*
X263786Y193453D02*
X263725Y193510D01*
X263660Y193561D01*
X263590Y193606D01*
X263516Y193645D01*
X263438Y193678D01*
X263356Y193705D01*
X263269Y193726D01*
X263178Y193741D01*
X263083Y193750D01*
X262983Y193753D01*
Y194553D01*
X263083Y194556D01*
X263178Y194565D01*
X263269Y194580D01*
X263356Y194601D01*
X263438Y194628D01*
X263516Y194661D01*
X263590Y194700D01*
X263660Y194745D01*
X263725Y194796D01*
X263786Y194853D01*
Y193453D01*
D02*
G37*
G36*
X384547Y205453D02*
Y194547D01*
X382719Y192925D01*
X315014D01*
X314950Y192963D01*
X314814Y193057D01*
X314658Y193178D01*
X314435Y193377D01*
X314156Y193957D01*
X314051Y195948D01*
X314363Y196652D01*
X315081Y197895D01*
X315453Y199282D01*
Y200718D01*
X315081Y202105D01*
X314363Y203348D01*
X313742Y203970D01*
X314102Y205590D01*
X314643Y206470D01*
X382469D01*
X384547Y205453D01*
D02*
G37*
G36*
X198215Y188250D02*
X198062Y188392D01*
X197899Y188520D01*
X197725Y188633D01*
X197541Y188730D01*
X197346Y188812D01*
X197140Y188880D01*
X196923Y188933D01*
X196696Y188970D01*
X196488Y188990D01*
X196372Y188772D01*
X186741D01*
X186143Y189788D01*
X187126Y191322D01*
X197640D01*
X197725Y191367D01*
X197899Y191480D01*
X198062Y191607D01*
X198215Y191750D01*
Y188250D01*
D02*
G37*
G36*
X387891Y187933D02*
X387571Y188250D01*
X386972Y188783D01*
X386693Y189000D01*
X386427Y189183D01*
X386175Y189333D01*
X385937Y189450D01*
X385712Y189533D01*
X385501Y189583D01*
X385303Y189600D01*
Y190400D01*
X385501Y190417D01*
X385712Y190467D01*
X385937Y190550D01*
X386175Y190667D01*
X386427Y190817D01*
X386693Y191000D01*
X386972Y191217D01*
X387571Y191750D01*
X387891Y192067D01*
Y187933D01*
D02*
G37*
G36*
X312429Y191750D02*
X313028Y191217D01*
X313307Y191000D01*
X313573Y190817D01*
X313825Y190667D01*
X314063Y190550D01*
X314288Y190467D01*
X314499Y190417D01*
X314697Y190400D01*
Y189600D01*
X314499Y189583D01*
X314288Y189533D01*
X314063Y189450D01*
X313825Y189333D01*
X313573Y189183D01*
X313307Y189000D01*
X313028Y188783D01*
X312429Y188250D01*
X312109Y187933D01*
Y192067D01*
X312429Y191750D01*
D02*
G37*
G36*
X307891Y187933D02*
X307571Y188250D01*
X306972Y188783D01*
X306693Y189000D01*
X306427Y189183D01*
X306175Y189333D01*
X305937Y189450D01*
X305712Y189533D01*
X305501Y189583D01*
X305303Y189600D01*
Y190400D01*
X305501Y190417D01*
X305712Y190467D01*
X305937Y190550D01*
X306175Y190667D01*
X306427Y190817D01*
X306693Y191000D01*
X306972Y191217D01*
X307571Y191750D01*
X307891Y192067D01*
Y187933D01*
D02*
G37*
G36*
X252429Y191750D02*
X253028Y191217D01*
X253307Y191000D01*
X253573Y190817D01*
X253825Y190667D01*
X254063Y190550D01*
X254288Y190467D01*
X254500Y190417D01*
X254697Y190400D01*
Y189600D01*
X254500Y189583D01*
X254288Y189533D01*
X254063Y189450D01*
X253825Y189333D01*
X253573Y189183D01*
X253307Y189000D01*
X253028Y188783D01*
X252429Y188250D01*
X252109Y187933D01*
Y192067D01*
X252429Y191750D01*
D02*
G37*
G36*
X182321Y191864D02*
X182541Y191683D01*
X182768Y191523D01*
X183001Y191384D01*
X183242Y191267D01*
X183490Y191171D01*
X183744Y191096D01*
X184006Y191043D01*
X184274Y191011D01*
X184550Y191000D01*
Y189000D01*
X184274Y188989D01*
X184006Y188957D01*
X183744Y188904D01*
X183490Y188829D01*
X183242Y188733D01*
X183001Y188616D01*
X182768Y188477D01*
X182541Y188317D01*
X182321Y188136D01*
X182109Y187933D01*
Y192067D01*
X182321Y191864D01*
D02*
G37*
G36*
X147891Y187933D02*
X147571Y188250D01*
X146972Y188783D01*
X146693Y189000D01*
X146427Y189183D01*
X146175Y189333D01*
X145937Y189450D01*
X145712Y189533D01*
X145501Y189583D01*
X145303Y189600D01*
Y190400D01*
X145501Y190417D01*
X145712Y190467D01*
X145937Y190550D01*
X146175Y190667D01*
X146427Y190817D01*
X146693Y191000D01*
X146972Y191217D01*
X147571Y191750D01*
X147891Y192067D01*
Y187933D01*
D02*
G37*
G36*
X132429Y191750D02*
X133028Y191217D01*
X133307Y191000D01*
X133573Y190817D01*
X133825Y190667D01*
X134063Y190550D01*
X134288Y190467D01*
X134500Y190417D01*
X134697Y190400D01*
Y189600D01*
X134500Y189583D01*
X134288Y189533D01*
X134063Y189450D01*
X133825Y189333D01*
X133573Y189183D01*
X133307Y189000D01*
X133028Y188783D01*
X132429Y188250D01*
X132109Y187933D01*
Y192067D01*
X132429Y191750D01*
D02*
G37*
G36*
X122955Y189520D02*
X123001Y188719D01*
X123046Y188369D01*
X123104Y188051D01*
X123176Y187767D01*
X123262Y187516D01*
X123362Y187298D01*
X123476Y187113D01*
X123604Y186961D01*
X123039Y186396D01*
X122887Y186524D01*
X122702Y186638D01*
X122484Y186738D01*
X122233Y186824D01*
X121949Y186896D01*
X121631Y186954D01*
X121281Y186999D01*
X120480Y187045D01*
X120029Y187047D01*
X122953Y189971D01*
X122955Y189520D01*
D02*
G37*
G36*
X112955D02*
X113001Y188719D01*
X113046Y188369D01*
X113104Y188051D01*
X113176Y187767D01*
X113262Y187516D01*
X113362Y187298D01*
X113476Y187113D01*
X113604Y186961D01*
X113039Y186396D01*
X112887Y186524D01*
X112702Y186638D01*
X112484Y186738D01*
X112233Y186824D01*
X111949Y186896D01*
X111631Y186954D01*
X111281Y186999D01*
X110480Y187045D01*
X110029Y187047D01*
X112953Y189971D01*
X112955Y189520D01*
D02*
G37*
G36*
X277113Y183476D02*
X277298Y183362D01*
X277516Y183262D01*
X277767Y183176D01*
X278051Y183104D01*
X278369Y183046D01*
X278719Y183001D01*
X279520Y182955D01*
X279971Y182953D01*
X277047Y180029D01*
X277045Y180480D01*
X276998Y181281D01*
X276954Y181631D01*
X276896Y181949D01*
X276824Y182233D01*
X276738Y182484D01*
X276638Y182702D01*
X276524Y182887D01*
X276396Y183039D01*
X276961Y183604D01*
X277113Y183476D01*
D02*
G37*
G36*
X316286Y179300D02*
X316225Y179357D01*
X316160Y179408D01*
X316090Y179453D01*
X316016Y179492D01*
X315938Y179525D01*
X315856Y179552D01*
X315769Y179573D01*
X315678Y179588D01*
X315583Y179597D01*
X315483Y179600D01*
Y180400D01*
X315583Y180403D01*
X315678Y180412D01*
X315769Y180427D01*
X315856Y180448D01*
X315938Y180475D01*
X316016Y180508D01*
X316090Y180547D01*
X316160Y180592D01*
X316225Y180643D01*
X316286Y180700D01*
Y179300D01*
D02*
G37*
G36*
X256286D02*
X256225Y179357D01*
X256160Y179408D01*
X256090Y179453D01*
X256016Y179492D01*
X255938Y179525D01*
X255856Y179552D01*
X255769Y179573D01*
X255678Y179588D01*
X255583Y179597D01*
X255484Y179600D01*
Y180400D01*
X255583Y180403D01*
X255678Y180412D01*
X255769Y180427D01*
X255856Y180448D01*
X255938Y180475D01*
X256016Y180508D01*
X256090Y180547D01*
X256160Y180592D01*
X256225Y180643D01*
X256286Y180700D01*
Y179300D01*
D02*
G37*
G36*
X158775Y180643D02*
X158840Y180592D01*
X158910Y180547D01*
X158984Y180508D01*
X159062Y180475D01*
X159144Y180448D01*
X159231Y180427D01*
X159322Y180412D01*
X159417Y180403D01*
X159517Y180400D01*
Y179600D01*
X159417Y179597D01*
X159322Y179588D01*
X159231Y179573D01*
X159144Y179552D01*
X159062Y179525D01*
X158984Y179492D01*
X158910Y179453D01*
X158840Y179408D01*
X158775Y179357D01*
X158714Y179300D01*
Y180700D01*
X158775Y180643D01*
D02*
G37*
G36*
X312429Y181750D02*
X313028Y181217D01*
X313307Y181000D01*
X313573Y180817D01*
X313825Y180667D01*
X314063Y180550D01*
X314288Y180467D01*
X314499Y180417D01*
X314697Y180400D01*
Y179600D01*
X314499Y179583D01*
X314288Y179533D01*
X314063Y179450D01*
X313825Y179333D01*
X313573Y179183D01*
X313307Y179000D01*
X313028Y178783D01*
X312429Y178250D01*
X312109Y177933D01*
Y182067D01*
X312429Y181750D01*
D02*
G37*
G36*
X252429D02*
X253028Y181217D01*
X253307Y181000D01*
X253573Y180817D01*
X253825Y180667D01*
X254063Y180550D01*
X254288Y180467D01*
X254500Y180417D01*
X254697Y180400D01*
Y179600D01*
X254500Y179583D01*
X254288Y179533D01*
X254063Y179450D01*
X253825Y179333D01*
X253573Y179183D01*
X253307Y179000D01*
X253028Y178783D01*
X252429Y178250D01*
X252109Y177933D01*
Y182067D01*
X252429Y181750D01*
D02*
G37*
G36*
X147891Y177933D02*
X147571Y178250D01*
X146972Y178783D01*
X146693Y179000D01*
X146427Y179183D01*
X146175Y179333D01*
X145937Y179450D01*
X145712Y179533D01*
X145501Y179583D01*
X145303Y179600D01*
Y180400D01*
X145501Y180417D01*
X145712Y180467D01*
X145937Y180550D01*
X146175Y180667D01*
X146427Y180817D01*
X146693Y181000D01*
X146972Y181217D01*
X147571Y181750D01*
X147891Y182067D01*
Y177933D01*
D02*
G37*
G36*
X132429Y181750D02*
X133028Y181217D01*
X133307Y181000D01*
X133573Y180817D01*
X133825Y180667D01*
X134063Y180550D01*
X134288Y180467D01*
X134500Y180417D01*
X134697Y180400D01*
Y179600D01*
X134500Y179583D01*
X134288Y179533D01*
X134063Y179450D01*
X133825Y179333D01*
X133573Y179183D01*
X133307Y179000D01*
X133028Y178783D01*
X132429Y178250D01*
X132109Y177933D01*
Y182067D01*
X132429Y181750D01*
D02*
G37*
G36*
X309970Y177047D02*
X309520Y177045D01*
X308719Y176999D01*
X308369Y176954D01*
X308051Y176896D01*
X307767Y176824D01*
X307516Y176738D01*
X307298Y176638D01*
X307113Y176524D01*
X306961Y176396D01*
X306396Y176961D01*
X306524Y177113D01*
X306638Y177298D01*
X306738Y177516D01*
X306824Y177767D01*
X306896Y178051D01*
X306954Y178369D01*
X306998Y178719D01*
X307045Y179520D01*
X307047Y179971D01*
X309970Y177047D01*
D02*
G37*
G36*
X122955Y179520D02*
X123001Y178719D01*
X123046Y178369D01*
X123104Y178051D01*
X123176Y177767D01*
X123262Y177516D01*
X123362Y177298D01*
X123476Y177113D01*
X123604Y176961D01*
X123039Y176396D01*
X122887Y176524D01*
X122702Y176638D01*
X122484Y176738D01*
X122233Y176824D01*
X121949Y176896D01*
X121631Y176954D01*
X121281Y176999D01*
X120480Y177045D01*
X120029Y177047D01*
X122953Y179971D01*
X122955Y179520D01*
D02*
G37*
G36*
X112955D02*
X113001Y178719D01*
X113046Y178369D01*
X113104Y178051D01*
X113176Y177767D01*
X113262Y177516D01*
X113362Y177298D01*
X113476Y177113D01*
X113604Y176961D01*
X113039Y176396D01*
X112887Y176524D01*
X112702Y176638D01*
X112484Y176738D01*
X112233Y176824D01*
X111949Y176896D01*
X111631Y176954D01*
X111281Y176999D01*
X110480Y177045D01*
X110029Y177047D01*
X112953Y179971D01*
X112955Y179520D01*
D02*
G37*
G36*
X277113Y173476D02*
X277298Y173362D01*
X277516Y173262D01*
X277767Y173176D01*
X278051Y173104D01*
X278369Y173046D01*
X278719Y173001D01*
X279520Y172955D01*
X279971Y172953D01*
X277047Y170029D01*
X277045Y170480D01*
X276998Y171281D01*
X276954Y171631D01*
X276896Y171949D01*
X276824Y172233D01*
X276738Y172484D01*
X276638Y172702D01*
X276524Y172887D01*
X276396Y173039D01*
X276961Y173604D01*
X277113Y173476D01*
D02*
G37*
G36*
X318786Y169300D02*
X318725Y169357D01*
X318660Y169408D01*
X318590Y169453D01*
X318516Y169492D01*
X318438Y169525D01*
X318356Y169552D01*
X318269Y169573D01*
X318178Y169588D01*
X318083Y169597D01*
X317984Y169600D01*
Y170400D01*
X318083Y170403D01*
X318178Y170412D01*
X318269Y170427D01*
X318356Y170448D01*
X318438Y170475D01*
X318516Y170508D01*
X318590Y170547D01*
X318660Y170592D01*
X318725Y170643D01*
X318786Y170700D01*
Y169300D01*
D02*
G37*
G36*
X258786D02*
X258725Y169357D01*
X258660Y169408D01*
X258590Y169453D01*
X258516Y169492D01*
X258438Y169525D01*
X258356Y169552D01*
X258269Y169573D01*
X258178Y169588D01*
X258083Y169597D01*
X257983Y169600D01*
Y170400D01*
X258083Y170403D01*
X258178Y170412D01*
X258269Y170427D01*
X258356Y170448D01*
X258438Y170475D01*
X258516Y170508D01*
X258590Y170547D01*
X258660Y170592D01*
X258725Y170643D01*
X258786Y170700D01*
Y169300D01*
D02*
G37*
G36*
X161275Y170643D02*
X161340Y170592D01*
X161410Y170547D01*
X161484Y170508D01*
X161562Y170475D01*
X161644Y170448D01*
X161731Y170427D01*
X161822Y170412D01*
X161917Y170403D01*
X162016Y170400D01*
Y169600D01*
X161917Y169597D01*
X161822Y169588D01*
X161731Y169573D01*
X161644Y169552D01*
X161562Y169525D01*
X161484Y169492D01*
X161410Y169453D01*
X161340Y169408D01*
X161275Y169357D01*
X161214Y169300D01*
Y170700D01*
X161275Y170643D01*
D02*
G37*
G36*
X312429Y171750D02*
X313028Y171217D01*
X313307Y171000D01*
X313573Y170817D01*
X313825Y170667D01*
X314063Y170550D01*
X314288Y170467D01*
X314499Y170417D01*
X314697Y170400D01*
Y169600D01*
X314499Y169583D01*
X314288Y169533D01*
X314063Y169450D01*
X313825Y169333D01*
X313573Y169183D01*
X313307Y169000D01*
X313028Y168783D01*
X312429Y168250D01*
X312109Y167933D01*
Y172067D01*
X312429Y171750D01*
D02*
G37*
G36*
X252429D02*
X253028Y171217D01*
X253307Y171000D01*
X253573Y170817D01*
X253825Y170667D01*
X254063Y170550D01*
X254288Y170467D01*
X254500Y170417D01*
X254697Y170400D01*
Y169600D01*
X254500Y169583D01*
X254288Y169533D01*
X254063Y169450D01*
X253825Y169333D01*
X253573Y169183D01*
X253307Y169000D01*
X253028Y168783D01*
X252429Y168250D01*
X252109Y167933D01*
Y172067D01*
X252429Y171750D01*
D02*
G37*
G36*
X147891Y167933D02*
X147571Y168250D01*
X146972Y168783D01*
X146693Y169000D01*
X146427Y169183D01*
X146175Y169333D01*
X145937Y169450D01*
X145712Y169533D01*
X145501Y169583D01*
X145303Y169600D01*
Y170400D01*
X145501Y170417D01*
X145712Y170467D01*
X145937Y170550D01*
X146175Y170667D01*
X146427Y170817D01*
X146693Y171000D01*
X146972Y171217D01*
X147571Y171750D01*
X147891Y172067D01*
Y167933D01*
D02*
G37*
G36*
X132429Y171750D02*
X133028Y171217D01*
X133307Y171000D01*
X133573Y170817D01*
X133825Y170667D01*
X134063Y170550D01*
X134288Y170467D01*
X134500Y170417D01*
X134697Y170400D01*
Y169600D01*
X134500Y169583D01*
X134288Y169533D01*
X134063Y169450D01*
X133825Y169333D01*
X133573Y169183D01*
X133307Y169000D01*
X133028Y168783D01*
X132429Y168250D01*
X132109Y167933D01*
Y172067D01*
X132429Y171750D01*
D02*
G37*
G36*
X309970Y167047D02*
X309520Y167045D01*
X308719Y166999D01*
X308369Y166954D01*
X308051Y166896D01*
X307767Y166824D01*
X307516Y166738D01*
X307298Y166638D01*
X307113Y166524D01*
X306961Y166396D01*
X306396Y166961D01*
X306524Y167113D01*
X306638Y167298D01*
X306738Y167516D01*
X306824Y167767D01*
X306896Y168051D01*
X306954Y168369D01*
X306998Y168719D01*
X307045Y169520D01*
X307047Y169971D01*
X309970Y167047D01*
D02*
G37*
G36*
X122955Y169520D02*
X123001Y168719D01*
X123046Y168369D01*
X123104Y168051D01*
X123176Y167767D01*
X123262Y167516D01*
X123362Y167298D01*
X123476Y167113D01*
X123604Y166961D01*
X123039Y166396D01*
X122887Y166524D01*
X122702Y166638D01*
X122484Y166738D01*
X122233Y166824D01*
X121949Y166896D01*
X121631Y166954D01*
X121281Y166999D01*
X120480Y167045D01*
X120029Y167047D01*
X122953Y169971D01*
X122955Y169520D01*
D02*
G37*
G36*
X112955D02*
X113001Y168719D01*
X113046Y168369D01*
X113104Y168051D01*
X113176Y167767D01*
X113262Y167516D01*
X113362Y167298D01*
X113476Y167113D01*
X113604Y166961D01*
X113039Y166396D01*
X112887Y166524D01*
X112702Y166638D01*
X112484Y166738D01*
X112233Y166824D01*
X111949Y166896D01*
X111631Y166954D01*
X111281Y166999D01*
X110480Y167045D01*
X110029Y167047D01*
X112953Y169971D01*
X112955Y169520D01*
D02*
G37*
G36*
X277113Y163476D02*
X277298Y163362D01*
X277516Y163262D01*
X277767Y163176D01*
X278051Y163104D01*
X278369Y163046D01*
X278719Y163001D01*
X279520Y162955D01*
X279971Y162953D01*
X277047Y160029D01*
X277045Y160480D01*
X276998Y161281D01*
X276954Y161631D01*
X276896Y161949D01*
X276824Y162233D01*
X276738Y162484D01*
X276638Y162702D01*
X276524Y162887D01*
X276396Y163039D01*
X276961Y163604D01*
X277113Y163476D01*
D02*
G37*
G36*
X321286Y159300D02*
X321225Y159357D01*
X321160Y159408D01*
X321090Y159453D01*
X321016Y159492D01*
X320938Y159525D01*
X320856Y159552D01*
X320769Y159573D01*
X320678Y159588D01*
X320583Y159597D01*
X320483Y159600D01*
Y160400D01*
X320583Y160403D01*
X320678Y160412D01*
X320769Y160427D01*
X320856Y160448D01*
X320938Y160475D01*
X321016Y160508D01*
X321090Y160547D01*
X321160Y160592D01*
X321225Y160643D01*
X321286Y160700D01*
Y159300D01*
D02*
G37*
G36*
X261286D02*
X261225Y159357D01*
X261160Y159408D01*
X261090Y159453D01*
X261016Y159492D01*
X260938Y159525D01*
X260856Y159552D01*
X260769Y159573D01*
X260678Y159588D01*
X260583Y159597D01*
X260484Y159600D01*
Y160400D01*
X260583Y160403D01*
X260678Y160412D01*
X260769Y160427D01*
X260856Y160448D01*
X260938Y160475D01*
X261016Y160508D01*
X261090Y160547D01*
X261160Y160592D01*
X261225Y160643D01*
X261286Y160700D01*
Y159300D01*
D02*
G37*
G36*
X163775Y160643D02*
X163840Y160592D01*
X163910Y160547D01*
X163984Y160508D01*
X164062Y160475D01*
X164144Y160448D01*
X164231Y160427D01*
X164322Y160412D01*
X164417Y160403D01*
X164516Y160400D01*
Y159600D01*
X164417Y159597D01*
X164322Y159588D01*
X164231Y159573D01*
X164144Y159552D01*
X164062Y159525D01*
X163984Y159492D01*
X163910Y159453D01*
X163840Y159408D01*
X163775Y159357D01*
X163714Y159300D01*
Y160700D01*
X163775Y160643D01*
D02*
G37*
G36*
X312429Y161750D02*
X313028Y161217D01*
X313307Y161000D01*
X313573Y160817D01*
X313825Y160667D01*
X314063Y160550D01*
X314288Y160467D01*
X314499Y160417D01*
X314697Y160400D01*
Y159600D01*
X314499Y159583D01*
X314288Y159533D01*
X314063Y159450D01*
X313825Y159333D01*
X313573Y159183D01*
X313307Y159000D01*
X313028Y158783D01*
X312429Y158250D01*
X312109Y157933D01*
Y162067D01*
X312429Y161750D01*
D02*
G37*
G36*
X252429D02*
X253028Y161217D01*
X253307Y161000D01*
X253573Y160817D01*
X253825Y160667D01*
X254063Y160550D01*
X254288Y160467D01*
X254500Y160417D01*
X254697Y160400D01*
Y159600D01*
X254500Y159583D01*
X254288Y159533D01*
X254063Y159450D01*
X253825Y159333D01*
X253573Y159183D01*
X253307Y159000D01*
X253028Y158783D01*
X252429Y158250D01*
X252109Y157933D01*
Y162067D01*
X252429Y161750D01*
D02*
G37*
G36*
X177891Y157933D02*
X177571Y158250D01*
X176972Y158783D01*
X176693Y159000D01*
X176427Y159183D01*
X176175Y159333D01*
X175937Y159450D01*
X175712Y159533D01*
X175501Y159583D01*
X175303Y159600D01*
Y160400D01*
X175501Y160417D01*
X175712Y160467D01*
X175937Y160550D01*
X176175Y160667D01*
X176427Y160817D01*
X176693Y161000D01*
X176972Y161217D01*
X177571Y161750D01*
X177891Y162067D01*
Y157933D01*
D02*
G37*
G36*
X309970Y157047D02*
X309520Y157045D01*
X308719Y156999D01*
X308369Y156954D01*
X308051Y156896D01*
X307767Y156824D01*
X307516Y156738D01*
X307298Y156638D01*
X307113Y156524D01*
X306961Y156396D01*
X306396Y156961D01*
X306524Y157113D01*
X306638Y157298D01*
X306738Y157516D01*
X306824Y157767D01*
X306896Y158051D01*
X306954Y158369D01*
X306998Y158719D01*
X307045Y159520D01*
X307047Y159970D01*
X309970Y157047D01*
D02*
G37*
G36*
X207279Y152084D02*
X207885Y151620D01*
X208590Y151327D01*
X209347Y151228D01*
X214156D01*
X214547Y150718D01*
Y149282D01*
X214919Y147895D01*
X215637Y146652D01*
X215857Y146155D01*
X215939Y145760D01*
X215844Y143957D01*
X215565Y143377D01*
X215341Y143178D01*
X215186Y143057D01*
X215050Y142963D01*
X214986Y142925D01*
X195617D01*
X193500Y144539D01*
Y145461D01*
X193262Y146351D01*
X192801Y147149D01*
X192149Y147801D01*
X191351Y148261D01*
X190461Y148500D01*
X189539D01*
X188649Y148261D01*
X188066Y147925D01*
X185453D01*
Y155453D01*
X185453D01*
X185081Y157895D01*
X185453Y159282D01*
Y160718D01*
X185916Y161322D01*
X198041D01*
X207279Y152084D01*
D02*
G37*
G36*
X277113Y153476D02*
X277298Y153362D01*
X277516Y153262D01*
X277767Y153176D01*
X278051Y153104D01*
X278369Y153046D01*
X278719Y153001D01*
X279520Y152955D01*
X279971Y152953D01*
X277047Y150030D01*
X277045Y150480D01*
X276998Y151281D01*
X276954Y151631D01*
X276896Y151949D01*
X276824Y152233D01*
X276738Y152484D01*
X276638Y152702D01*
X276524Y152887D01*
X276396Y153039D01*
X276961Y153604D01*
X277113Y153476D01*
D02*
G37*
G36*
X263786Y149300D02*
X263725Y149357D01*
X263660Y149408D01*
X263590Y149453D01*
X263516Y149492D01*
X263438Y149525D01*
X263356Y149552D01*
X263269Y149573D01*
X263178Y149588D01*
X263083Y149597D01*
X262983Y149600D01*
Y150400D01*
X263083Y150403D01*
X263178Y150412D01*
X263269Y150427D01*
X263356Y150448D01*
X263438Y150475D01*
X263516Y150508D01*
X263590Y150547D01*
X263660Y150592D01*
X263725Y150643D01*
X263786Y150700D01*
Y149300D01*
D02*
G37*
G36*
X252429Y151750D02*
X253028Y151217D01*
X253307Y151000D01*
X253573Y150817D01*
X253825Y150667D01*
X254063Y150550D01*
X254288Y150467D01*
X254500Y150417D01*
X254697Y150400D01*
Y149600D01*
X254500Y149583D01*
X254288Y149533D01*
X254063Y149450D01*
X253825Y149333D01*
X253573Y149183D01*
X253307Y149000D01*
X253028Y148783D01*
X252429Y148250D01*
X252109Y147933D01*
Y152067D01*
X252429Y151750D01*
D02*
G37*
G36*
X309970Y147047D02*
X309520Y147045D01*
X308719Y146999D01*
X308369Y146954D01*
X308051Y146896D01*
X307767Y146824D01*
X307516Y146738D01*
X307298Y146638D01*
X307113Y146524D01*
X306961Y146396D01*
X306396Y146961D01*
X306524Y147113D01*
X306638Y147298D01*
X306738Y147516D01*
X306824Y147767D01*
X306896Y148051D01*
X306954Y148369D01*
X306998Y148719D01*
X307045Y149520D01*
X307047Y149970D01*
X309970Y147047D01*
D02*
G37*
G36*
X112955Y149520D02*
X113001Y148719D01*
X113046Y148369D01*
X113104Y148051D01*
X113176Y147767D01*
X113262Y147516D01*
X113362Y147298D01*
X113476Y147113D01*
X113604Y146961D01*
X113039Y146396D01*
X112887Y146524D01*
X112702Y146638D01*
X112484Y146738D01*
X112233Y146824D01*
X111949Y146896D01*
X111631Y146954D01*
X111281Y146999D01*
X110480Y147045D01*
X110029Y147047D01*
X112953Y149970D01*
X112955Y149520D01*
D02*
G37*
G36*
X189286Y144300D02*
X189225Y144357D01*
X189160Y144408D01*
X189090Y144453D01*
X189016Y144492D01*
X188938Y144525D01*
X188856Y144552D01*
X188769Y144573D01*
X188678Y144588D01*
X188583Y144597D01*
X188484Y144600D01*
Y145400D01*
X188583Y145403D01*
X188678Y145412D01*
X188769Y145427D01*
X188856Y145448D01*
X188938Y145475D01*
X189016Y145508D01*
X189090Y145547D01*
X189160Y145592D01*
X189225Y145643D01*
X189286Y145700D01*
Y144300D01*
D02*
G37*
G36*
X307891Y137933D02*
X307571Y138250D01*
X306972Y138783D01*
X306693Y139000D01*
X306427Y139183D01*
X306175Y139333D01*
X305937Y139450D01*
X305712Y139533D01*
X305501Y139583D01*
X305303Y139600D01*
Y140400D01*
X305501Y140417D01*
X305712Y140467D01*
X305937Y140550D01*
X306175Y140667D01*
X306427Y140817D01*
X306693Y141000D01*
X306972Y141217D01*
X307571Y141750D01*
X307891Y142067D01*
Y137933D01*
D02*
G37*
G36*
X252429Y141750D02*
X253028Y141217D01*
X253307Y141000D01*
X253573Y140817D01*
X253825Y140667D01*
X254063Y140550D01*
X254288Y140467D01*
X254500Y140417D01*
X254697Y140400D01*
Y139600D01*
X254500Y139583D01*
X254288Y139533D01*
X254063Y139450D01*
X253825Y139333D01*
X253573Y139183D01*
X253307Y139000D01*
X253028Y138783D01*
X252429Y138250D01*
X252109Y137933D01*
Y142067D01*
X252429Y141750D01*
D02*
G37*
G36*
X222429D02*
X223028Y141217D01*
X223307Y141000D01*
X223573Y140817D01*
X223825Y140667D01*
X224063Y140550D01*
X224288Y140467D01*
X224500Y140417D01*
X224697Y140400D01*
Y139600D01*
X224500Y139583D01*
X224288Y139533D01*
X224063Y139450D01*
X223825Y139333D01*
X223573Y139183D01*
X223307Y139000D01*
X223028Y138783D01*
X222429Y138250D01*
X222109Y137933D01*
Y142067D01*
X222429Y141750D01*
D02*
G37*
G36*
X217891Y137933D02*
X217571Y138250D01*
X216972Y138783D01*
X216693Y139000D01*
X216427Y139183D01*
X216175Y139333D01*
X215937Y139450D01*
X215712Y139533D01*
X215500Y139583D01*
X215303Y139600D01*
Y140400D01*
X215500Y140417D01*
X215712Y140467D01*
X215937Y140550D01*
X216175Y140667D01*
X216427Y140817D01*
X216693Y141000D01*
X216972Y141217D01*
X217571Y141750D01*
X217891Y142067D01*
Y137933D01*
D02*
G37*
G36*
X279971Y137047D02*
X279520Y137045D01*
X278719Y136999D01*
X278369Y136954D01*
X278051Y136896D01*
X277767Y136824D01*
X277516Y136738D01*
X277298Y136638D01*
X277113Y136524D01*
X276961Y136396D01*
X276396Y136961D01*
X276524Y137113D01*
X276638Y137298D01*
X276738Y137516D01*
X276824Y137767D01*
X276896Y138051D01*
X276954Y138369D01*
X276998Y138719D01*
X277045Y139520D01*
X277047Y139971D01*
X279971Y137047D01*
D02*
G37*
G36*
X112955Y139520D02*
X113001Y138719D01*
X113046Y138369D01*
X113104Y138051D01*
X113176Y137767D01*
X113262Y137516D01*
X113362Y137298D01*
X113476Y137113D01*
X113604Y136961D01*
X113039Y136396D01*
X112887Y136524D01*
X112702Y136638D01*
X112484Y136738D01*
X112233Y136824D01*
X111949Y136896D01*
X111631Y136954D01*
X111281Y136999D01*
X110480Y137045D01*
X110029Y137047D01*
X112953Y139971D01*
X112955Y139520D01*
D02*
G37*
G36*
X127891Y127933D02*
X127679Y128136D01*
X127459Y128317D01*
X127232Y128477D01*
X126999Y128616D01*
X126758Y128733D01*
X126511Y128829D01*
X126256Y128904D01*
X125994Y128957D01*
X125726Y128989D01*
X125450Y129000D01*
Y131000D01*
X125726Y131011D01*
X125994Y131043D01*
X126256Y131096D01*
X126511Y131171D01*
X126758Y131267D01*
X126999Y131384D01*
X127232Y131523D01*
X127459Y131683D01*
X127679Y131864D01*
X127891Y132067D01*
Y127933D01*
D02*
G37*
G36*
X122321Y131864D02*
X122541Y131683D01*
X122768Y131523D01*
X123001Y131384D01*
X123242Y131267D01*
X123489Y131171D01*
X123744Y131096D01*
X124006Y131043D01*
X124274Y131011D01*
X124550Y131000D01*
Y129000D01*
X124274Y128989D01*
X124006Y128957D01*
X123744Y128904D01*
X123489Y128829D01*
X123242Y128733D01*
X123001Y128616D01*
X122768Y128477D01*
X122541Y128317D01*
X122321Y128136D01*
X122109Y127933D01*
Y132067D01*
X122321Y131864D01*
D02*
G37*
G36*
X117891Y127933D02*
X117679Y128136D01*
X117459Y128317D01*
X117232Y128477D01*
X116999Y128616D01*
X116758Y128733D01*
X116510Y128829D01*
X116256Y128904D01*
X115994Y128957D01*
X115726Y128989D01*
X115450Y129000D01*
Y131000D01*
X115726Y131011D01*
X115994Y131043D01*
X116256Y131096D01*
X116510Y131171D01*
X116758Y131267D01*
X116999Y131384D01*
X117232Y131523D01*
X117459Y131683D01*
X117679Y131864D01*
X117891Y132067D01*
Y127933D01*
D02*
G37*
G36*
X112321Y131864D02*
X112541Y131683D01*
X112768Y131523D01*
X113001Y131384D01*
X113242Y131267D01*
X113489Y131171D01*
X113744Y131096D01*
X114006Y131043D01*
X114274Y131011D01*
X114550Y131000D01*
Y129000D01*
X114274Y128989D01*
X114006Y128957D01*
X113744Y128904D01*
X113489Y128829D01*
X113242Y128733D01*
X113001Y128616D01*
X112768Y128477D01*
X112541Y128317D01*
X112321Y128136D01*
X112109Y127933D01*
Y132067D01*
X112321Y131864D01*
D02*
G37*
G36*
X151938Y122670D02*
X152101Y122543D01*
X152275Y122431D01*
X152459Y122333D01*
X152654Y122250D01*
X152860Y122183D01*
X153077Y122131D01*
X153304Y122093D01*
X153542Y122071D01*
X153791Y122063D01*
X153791Y120063D01*
X153542Y120055D01*
X153304Y120033D01*
X153077Y119995D01*
X152860Y119943D01*
X152654Y119876D01*
X152459Y119793D01*
X152275Y119695D01*
X152101Y119583D01*
X151938Y119456D01*
X151785Y119313D01*
X150000Y121063D01*
X151785Y122813D01*
X151938Y122670D01*
D02*
G37*
G36*
X150000Y121063D02*
X148215Y119313D01*
X148062Y119456D01*
X147899Y119583D01*
X147725Y119695D01*
X147541Y119793D01*
X147346Y119876D01*
X147140Y119943D01*
X146923Y119995D01*
X146696Y120033D01*
X146458Y120055D01*
X146209Y120063D01*
X146209Y122063D01*
X146458Y122071D01*
X146696Y122093D01*
X146923Y122131D01*
X147140Y122183D01*
X147346Y122250D01*
X147541Y122333D01*
X147725Y122431D01*
X147899Y122543D01*
X148062Y122670D01*
X148215Y122813D01*
X150000Y121063D01*
D02*
G37*
G36*
X177563Y119063D02*
X177543Y119253D01*
X177483Y119423D01*
X177382Y119573D01*
X177241Y119703D01*
X177060Y119813D01*
X176839Y119903D01*
X176577Y119973D01*
X176276Y120023D01*
X175934Y120053D01*
X175551Y120063D01*
Y122063D01*
X175934Y122073D01*
X176276Y122103D01*
X176577Y122153D01*
X176839Y122223D01*
X177060Y122313D01*
X177241Y122423D01*
X177382Y122553D01*
X177483Y122703D01*
X177543Y122873D01*
X177563Y123063D01*
Y119063D01*
D02*
G37*
G36*
X132961Y122774D02*
X133021Y122625D01*
X133121Y122493D01*
X133261Y122379D01*
X133441Y122282D01*
X133661Y122203D01*
X133921Y122142D01*
X134221Y122098D01*
X134561Y122072D01*
X134941Y122063D01*
Y120063D01*
X134559Y120053D01*
X134217Y120023D01*
X133916Y119973D01*
X133655Y119903D01*
X133433Y119813D01*
X133252Y119703D01*
X133111Y119573D01*
X133010Y119423D01*
X132949Y119253D01*
X132929Y119063D01*
X132941Y122941D01*
X132961Y122774D01*
D02*
G37*
G36*
X127071Y118000D02*
X127051Y118190D01*
X126991Y118360D01*
X126890Y118510D01*
X126749Y118640D01*
X126568Y118750D01*
X126347Y118840D01*
X126085Y118910D01*
X125784Y118960D01*
X125442Y118990D01*
X125059Y119000D01*
Y121000D01*
X125442Y121010D01*
X125784Y121040D01*
X126085Y121090D01*
X126347Y121160D01*
X126568Y121250D01*
X126749Y121360D01*
X126890Y121490D01*
X126991Y121640D01*
X127051Y121810D01*
X127071Y122000D01*
Y118000D01*
D02*
G37*
G36*
X122949Y121810D02*
X123009Y121640D01*
X123110Y121490D01*
X123251Y121360D01*
X123432Y121250D01*
X123653Y121160D01*
X123915Y121090D01*
X124216Y121040D01*
X124558Y121010D01*
X124941Y121000D01*
Y119000D01*
X124558Y118990D01*
X124216Y118960D01*
X123915Y118910D01*
X123653Y118840D01*
X123432Y118750D01*
X123251Y118640D01*
X123110Y118510D01*
X123009Y118360D01*
X122949Y118190D01*
X122929Y118000D01*
Y122000D01*
X122949Y121810D01*
D02*
G37*
G36*
X117071Y118000D02*
X117051Y118190D01*
X116991Y118360D01*
X116890Y118510D01*
X116749Y118640D01*
X116568Y118750D01*
X116347Y118840D01*
X116085Y118910D01*
X115784Y118960D01*
X115442Y118990D01*
X115059Y119000D01*
Y121000D01*
X115442Y121010D01*
X115784Y121040D01*
X116085Y121090D01*
X116347Y121160D01*
X116568Y121250D01*
X116749Y121360D01*
X116890Y121490D01*
X116991Y121640D01*
X117051Y121810D01*
X117071Y122000D01*
Y118000D01*
D02*
G37*
G36*
X112949Y121810D02*
X113009Y121640D01*
X113110Y121490D01*
X113251Y121360D01*
X113432Y121250D01*
X113653Y121160D01*
X113915Y121090D01*
X114216Y121040D01*
X114558Y121010D01*
X114941Y121000D01*
Y119000D01*
X114558Y118990D01*
X114216Y118960D01*
X113915Y118910D01*
X113653Y118840D01*
X113432Y118750D01*
X113251Y118640D01*
X113110Y118510D01*
X113009Y118360D01*
X112949Y118190D01*
X112929Y118000D01*
Y122000D01*
X112949Y121810D01*
D02*
G37*
%LPC*%
G36*
X595783Y352950D02*
X594217D01*
X592681Y352644D01*
X591234Y352045D01*
X589932Y351175D01*
X588825Y350068D01*
X587955Y348766D01*
X587356Y347319D01*
X587050Y345783D01*
Y344217D01*
X587356Y342681D01*
X587955Y341234D01*
X588825Y339932D01*
X589932Y338825D01*
X591234Y337955D01*
X592681Y337355D01*
X594217Y337050D01*
X595783D01*
X597319Y337355D01*
X598766Y337955D01*
X600068Y338825D01*
X601175Y339932D01*
X602045Y341234D01*
X602644Y342681D01*
X602950Y344217D01*
Y345783D01*
X602644Y347319D01*
X602045Y348766D01*
X601175Y350068D01*
X600068Y351175D01*
X598766Y352045D01*
X597319Y352644D01*
X595783Y352950D01*
D02*
G37*
G36*
X477648Y314500D02*
X476709D01*
X476933Y313664D01*
X477095Y313384D01*
X477137Y313434D01*
X477270Y313619D01*
X477385Y313805D01*
X477482Y313994D01*
X477561Y314186D01*
X477622Y314379D01*
X477648Y314500D01*
D02*
G37*
G36*
X479658D02*
X478172D01*
X479658Y313015D01*
Y314500D01*
D02*
G37*
G36*
Y312491D02*
X479537Y312464D01*
X479343Y312403D01*
X479152Y312325D01*
X478963Y312227D01*
X478776Y312112D01*
X478592Y311979D01*
X478541Y311937D01*
X478822Y311775D01*
X479658Y311551D01*
Y312491D01*
D02*
G37*
G36*
X463953Y303953D02*
X460500D01*
Y300500D01*
X463953D01*
Y303953D01*
D02*
G37*
G36*
X457023Y229500D02*
X456047D01*
Y229480D01*
X456317Y228474D01*
X456545Y228079D01*
X456577Y228128D01*
X456705Y228360D01*
X456812Y228603D01*
X456899Y228856D01*
X456966Y229120D01*
X457013Y229393D01*
X457023Y229500D01*
D02*
G37*
G36*
X459500D02*
X457518D01*
X459500Y227518D01*
Y229500D01*
D02*
G37*
G36*
X463953D02*
X460500D01*
Y226047D01*
X460520D01*
X461526Y226317D01*
X462427Y226837D01*
X463163Y227573D01*
X463683Y228474D01*
X463953Y229480D01*
Y229500D01*
D02*
G37*
G36*
X459500Y227024D02*
X459393Y227013D01*
X459120Y226966D01*
X458856Y226899D01*
X458603Y226812D01*
X458360Y226705D01*
X458127Y226577D01*
X458078Y226545D01*
X458474Y226317D01*
X459480Y226047D01*
X459500D01*
Y227024D01*
D02*
G37*
G36*
X298862Y218235D02*
X298822Y218225D01*
X298033Y217769D01*
X297388Y217125D01*
X296933Y216336D01*
X296709Y215500D01*
X299658D01*
Y216757D01*
X298435D01*
X298572Y216904D01*
X298695Y217062D01*
X298803Y217232D01*
X298897Y217412D01*
X298977Y217603D01*
X299042Y217805D01*
X299045Y217818D01*
X298977Y218020D01*
X298862Y218235D01*
D02*
G37*
G36*
X409135Y218309D02*
X408822Y218225D01*
X408033Y217769D01*
X407388Y217125D01*
X406933Y216336D01*
X406709Y215500D01*
X409657D01*
Y216757D01*
X408435D01*
X408572Y216904D01*
X408695Y217062D01*
X408804Y217232D01*
X408897Y217412D01*
X408977Y217603D01*
X409042Y217805D01*
X409093Y218019D01*
X409129Y218243D01*
X409135Y218309D01*
D02*
G37*
G36*
X417024Y189500D02*
X416047D01*
Y189480D01*
X416317Y188474D01*
X416545Y188078D01*
X416577Y188128D01*
X416705Y188360D01*
X416812Y188603D01*
X416899Y188856D01*
X416966Y189120D01*
X417013Y189393D01*
X417024Y189500D01*
D02*
G37*
G36*
X423953D02*
X417518D01*
X419971Y187047D01*
X419677Y187040D01*
X419393Y187013D01*
X419120Y186966D01*
X418856Y186899D01*
X418603Y186812D01*
X418360Y186705D01*
X418127Y186577D01*
X417905Y186430D01*
X417692Y186263D01*
X417490Y186076D01*
X417076Y186490D01*
X417033Y185244D01*
X416755Y184423D01*
X416652Y184363D01*
X415637Y183348D01*
X414919Y182105D01*
X414547Y180718D01*
Y179282D01*
X414919Y177895D01*
X415637Y176652D01*
X416652Y175637D01*
X416755Y175577D01*
X417033Y174756D01*
X417101Y172763D01*
X417059Y172649D01*
X416837Y172427D01*
X416317Y171526D01*
X416047Y170520D01*
Y170500D01*
X423953D01*
Y170520D01*
X423683Y171526D01*
X423163Y172427D01*
X422941Y172649D01*
X422899Y172763D01*
X422967Y174756D01*
X423245Y175577D01*
X423348Y175637D01*
X424363Y176652D01*
X425081Y177895D01*
X425453Y179282D01*
Y180718D01*
X425081Y182105D01*
X424363Y183348D01*
X423348Y184363D01*
X423245Y184423D01*
X422967Y185244D01*
X422899Y187237D01*
X422941Y187351D01*
X423163Y187573D01*
X423683Y188474D01*
X423953Y189480D01*
Y189500D01*
D02*
G37*
G36*
X417024Y169500D02*
X416047D01*
Y169480D01*
X416317Y168474D01*
X416545Y168078D01*
X416577Y168128D01*
X416705Y168360D01*
X416812Y168603D01*
X416899Y168857D01*
X416966Y169120D01*
X417013Y169393D01*
X417024Y169500D01*
D02*
G37*
G36*
X423953D02*
X417518D01*
X419971Y167047D01*
X419677Y167040D01*
X419393Y167013D01*
X419120Y166966D01*
X418856Y166899D01*
X418603Y166812D01*
X418360Y166705D01*
X418127Y166577D01*
X417905Y166430D01*
X417692Y166263D01*
X417490Y166076D01*
X417076Y166490D01*
X417033Y165244D01*
X416755Y164423D01*
X416652Y164363D01*
X415637Y163348D01*
X414919Y162105D01*
X414547Y160718D01*
Y159282D01*
X414919Y157895D01*
X415637Y156652D01*
X416652Y155637D01*
X416755Y155577D01*
X417033Y154756D01*
X417101Y152763D01*
X417059Y152649D01*
X416837Y152427D01*
X416317Y151526D01*
X416047Y150520D01*
Y150500D01*
X423953D01*
Y150520D01*
X423683Y151526D01*
X423163Y152427D01*
X422941Y152649D01*
X422899Y152763D01*
X422967Y154756D01*
X423245Y155577D01*
X423348Y155637D01*
X424363Y156652D01*
X425081Y157895D01*
X425453Y159282D01*
Y160718D01*
X425081Y162105D01*
X424363Y163348D01*
X423348Y164363D01*
X423245Y164423D01*
X422967Y165244D01*
X422899Y167237D01*
X422941Y167351D01*
X423163Y167573D01*
X423683Y168474D01*
X423953Y169480D01*
Y169500D01*
D02*
G37*
G36*
X392109Y179500D02*
X386047D01*
Y179480D01*
X386317Y178474D01*
X386837Y177573D01*
X387059Y177351D01*
X387101Y177237D01*
X387033Y175244D01*
X386755Y174423D01*
X386652Y174363D01*
X385637Y173348D01*
X384919Y172105D01*
X384547Y170718D01*
Y169282D01*
X384919Y167895D01*
X385637Y166652D01*
X386652Y165637D01*
X386755Y165577D01*
X387033Y164756D01*
X387101Y162763D01*
X387059Y162649D01*
X386837Y162427D01*
X386317Y161526D01*
X386047Y160520D01*
Y160500D01*
X392109D01*
Y162067D01*
X392321Y161864D01*
X392541Y161683D01*
X392768Y161523D01*
X393001Y161384D01*
X393242Y161267D01*
X393490Y161171D01*
X393744Y161096D01*
X393802Y161084D01*
X393683Y161526D01*
X393163Y162427D01*
X392941Y162649D01*
X392899Y162763D01*
X392967Y164756D01*
X393245Y165577D01*
X393348Y165637D01*
X394363Y166652D01*
X395081Y167895D01*
X395453Y169282D01*
Y170718D01*
X395081Y172105D01*
X394363Y173348D01*
X393348Y174363D01*
X393245Y174423D01*
X392967Y175244D01*
X392899Y177237D01*
X392941Y177351D01*
X393163Y177573D01*
X393683Y178474D01*
X393802Y178916D01*
X393744Y178904D01*
X393490Y178829D01*
X393242Y178733D01*
X393001Y178616D01*
X392768Y178477D01*
X392541Y178317D01*
X392321Y178136D01*
X392109Y177933D01*
Y179500D01*
D02*
G37*
G36*
X417024Y149500D02*
X416047D01*
Y149480D01*
X416317Y148474D01*
X416545Y148079D01*
X416577Y148127D01*
X416705Y148360D01*
X416812Y148603D01*
X416899Y148856D01*
X416966Y149120D01*
X417013Y149393D01*
X417024Y149500D01*
D02*
G37*
G36*
X423953D02*
X417518D01*
X419971Y147047D01*
X419677Y147040D01*
X419393Y147013D01*
X419120Y146966D01*
X418856Y146899D01*
X418603Y146812D01*
X418360Y146705D01*
X418127Y146578D01*
X417905Y146430D01*
X417692Y146263D01*
X417490Y146076D01*
X417076Y146490D01*
X417033Y145244D01*
X416755Y144423D01*
X416652Y144363D01*
X415637Y143348D01*
X414919Y142105D01*
X414547Y140718D01*
Y139282D01*
X414919Y137895D01*
X415637Y136652D01*
X416652Y135637D01*
X417895Y134919D01*
X419282Y134547D01*
X420718D01*
X422105Y134919D01*
X423348Y135637D01*
X424363Y136652D01*
X425081Y137895D01*
X425453Y139282D01*
Y140718D01*
X425081Y142105D01*
X424363Y143348D01*
X423348Y144363D01*
X423245Y144423D01*
X422967Y145244D01*
X422899Y147237D01*
X422941Y147351D01*
X423163Y147573D01*
X423683Y148474D01*
X423953Y149480D01*
Y149500D01*
D02*
G37*
G36*
X392109Y159500D02*
X386047D01*
Y159480D01*
X386317Y158474D01*
X386837Y157573D01*
X387059Y157351D01*
X387101Y157237D01*
X387033Y155244D01*
X386755Y154423D01*
X386652Y154363D01*
X385637Y153348D01*
X384919Y152105D01*
X384547Y150718D01*
Y149282D01*
X384919Y147895D01*
X385637Y146652D01*
X386652Y145637D01*
X386755Y145577D01*
X387033Y144756D01*
X387101Y142763D01*
X387059Y142649D01*
X386837Y142427D01*
X386317Y141526D01*
X386047Y140520D01*
Y140500D01*
X392109D01*
Y142067D01*
X392321Y141864D01*
X392541Y141683D01*
X392768Y141523D01*
X393001Y141384D01*
X393242Y141267D01*
X393490Y141171D01*
X393744Y141096D01*
X393802Y141084D01*
X393683Y141526D01*
X393163Y142427D01*
X392941Y142649D01*
X392899Y142763D01*
X392967Y144756D01*
X393245Y145577D01*
X393348Y145637D01*
X394363Y146652D01*
X395081Y147895D01*
X395453Y149282D01*
Y150718D01*
X395081Y152105D01*
X394363Y153348D01*
X393348Y154363D01*
X393245Y154423D01*
X392967Y155244D01*
X392899Y157237D01*
X392941Y157351D01*
X393163Y157573D01*
X393683Y158474D01*
X393802Y158916D01*
X393744Y158904D01*
X393490Y158829D01*
X393242Y158733D01*
X393001Y158616D01*
X392768Y158477D01*
X392541Y158317D01*
X392321Y158136D01*
X392109Y157933D01*
Y159500D01*
D02*
G37*
G36*
X375653Y151634D02*
X374347D01*
X373065Y151379D01*
X371858Y150879D01*
X370771Y150153D01*
X369847Y149229D01*
X369121Y148142D01*
X368621Y146935D01*
X368366Y145653D01*
Y144347D01*
X368621Y143065D01*
X369121Y141858D01*
X369847Y140771D01*
X370771Y139847D01*
X371858Y139121D01*
X373065Y138621D01*
X374347Y138366D01*
X375653D01*
X376935Y138621D01*
X378142Y139121D01*
X379229Y139847D01*
X380153Y140771D01*
X380879Y141858D01*
X381379Y143065D01*
X381634Y144347D01*
Y145653D01*
X381379Y146935D01*
X380879Y148142D01*
X380153Y149229D01*
X379229Y150153D01*
X378142Y150879D01*
X376935Y151379D01*
X375653Y151634D01*
D02*
G37*
G36*
X387023Y139500D02*
X386047D01*
Y139480D01*
X386317Y138474D01*
X386545Y138078D01*
X386578Y138128D01*
X386705Y138360D01*
X386812Y138603D01*
X386899Y138856D01*
X386966Y139120D01*
X387013Y139393D01*
X387023Y139500D01*
D02*
G37*
G36*
X389500D02*
X387518D01*
X389500Y137518D01*
Y139500D01*
D02*
G37*
G36*
X392109D02*
X390500D01*
Y136047D01*
X390520D01*
X391526Y136317D01*
X392427Y136837D01*
X393163Y137573D01*
X393683Y138474D01*
X393802Y138916D01*
X393744Y138904D01*
X393490Y138829D01*
X393242Y138733D01*
X393001Y138616D01*
X392768Y138477D01*
X392541Y138317D01*
X392321Y138136D01*
X392109Y137933D01*
Y139500D01*
D02*
G37*
G36*
X389500Y137023D02*
X389393Y137013D01*
X389120Y136966D01*
X388857Y136899D01*
X388603Y136812D01*
X388360Y136705D01*
X388127Y136577D01*
X388078Y136545D01*
X388474Y136317D01*
X389480Y136047D01*
X389500D01*
Y137023D01*
D02*
G37*
G36*
X163291Y134500D02*
X160343D01*
Y133271D01*
X161674Y133357D01*
X161546Y133201D01*
X161431Y133036D01*
X161330Y132861D01*
X161243Y132675D01*
X161169Y132480D01*
X161108Y132275D01*
X161061Y132059D01*
X161027Y131834D01*
X161018Y131732D01*
X161178Y131775D01*
X161967Y132231D01*
X162612Y132875D01*
X163067Y133664D01*
X163291Y134500D01*
D02*
G37*
G36*
X180500Y132386D02*
Y129437D01*
X181745D01*
X181713Y130704D01*
X181863Y130570D01*
X182024Y130450D01*
X182196Y130345D01*
X182378Y130253D01*
X182571Y130176D01*
X182775Y130113D01*
X182989Y130063D01*
X183214Y130028D01*
X183292Y130021D01*
X183225Y130273D01*
X182769Y131062D01*
X182125Y131706D01*
X181336Y132162D01*
X180500Y132386D01*
D02*
G37*
G36*
X179500D02*
X178664Y132162D01*
X177875Y131706D01*
X177231Y131062D01*
X176775Y130273D01*
X176691Y129960D01*
X176757Y129966D01*
X176981Y130002D01*
X177195Y130053D01*
X177397Y130118D01*
X177588Y130197D01*
X177768Y130291D01*
X177937Y130399D01*
X178096Y130522D01*
X178243Y130659D01*
Y129437D01*
X179500D01*
Y132386D01*
D02*
G37*
G36*
X223953Y129500D02*
X222976D01*
X222987Y129393D01*
X223034Y129120D01*
X223101Y128857D01*
X223188Y128603D01*
X223295Y128360D01*
X223423Y128128D01*
X223455Y128078D01*
X223683Y128474D01*
X223953Y129480D01*
Y129500D01*
D02*
G37*
G36*
X219500D02*
X217891D01*
Y127933D01*
X217679Y128136D01*
X217459Y128317D01*
X217232Y128477D01*
X216999Y128616D01*
X216758Y128733D01*
X216511Y128829D01*
X216256Y128904D01*
X216198Y128916D01*
X216317Y128474D01*
X216837Y127573D01*
X217573Y126837D01*
X218474Y126317D01*
X219480Y126047D01*
X219500D01*
Y129500D01*
D02*
G37*
G36*
X222482D02*
X220500D01*
Y127518D01*
X222482Y129500D01*
D02*
G37*
G36*
X199500D02*
X197082D01*
X197836Y126478D01*
X197350Y126767D01*
X196018Y127452D01*
X195614Y127620D01*
X195407Y127687D01*
X195892Y126848D01*
X196848Y125892D01*
X198018Y125216D01*
X199324Y124866D01*
X199500D01*
Y129500D01*
D02*
G37*
G36*
X283953D02*
X280500D01*
Y128000D01*
X281000D01*
X281006Y127891D01*
X282067D01*
X281864Y127679D01*
X281683Y127459D01*
X281523Y127232D01*
X281384Y126999D01*
X281282Y126790D01*
X281320Y126720D01*
X281500Y126500D01*
X281642Y126384D01*
X282427Y126837D01*
X283163Y127573D01*
X283683Y128474D01*
X283953Y129480D01*
Y129500D01*
D02*
G37*
G36*
X279500D02*
X276047D01*
Y129480D01*
X276317Y128474D01*
X276837Y127573D01*
X277573Y126837D01*
X278358Y126384D01*
X278500Y126500D01*
X278680Y126720D01*
X278718Y126790D01*
X278616Y126999D01*
X278477Y127232D01*
X278317Y127459D01*
X278136Y127679D01*
X277933Y127891D01*
X278994D01*
X279000Y128000D01*
X279500D01*
Y129500D01*
D02*
G37*
G36*
X220500Y127023D02*
Y126047D01*
X220520D01*
X221526Y126317D01*
X221921Y126545D01*
X221872Y126577D01*
X221640Y126705D01*
X221397Y126812D01*
X221144Y126899D01*
X220880Y126966D01*
X220607Y127013D01*
X220500Y127023D01*
D02*
G37*
G36*
X202952Y129500D02*
X200500D01*
Y124866D01*
X200676D01*
X201982Y125216D01*
X203152Y125892D01*
X204108Y126848D01*
X204784Y128018D01*
X204943Y128613D01*
X204765Y128527D01*
X204409Y128318D01*
X204050Y128072D01*
X203688Y127788D01*
X203322Y127466D01*
X202952Y127106D01*
Y129500D01*
D02*
G37*
G36*
X595783Y132950D02*
X594217D01*
X592681Y132644D01*
X591234Y132045D01*
X589932Y131175D01*
X588825Y130068D01*
X587955Y128766D01*
X587356Y127319D01*
X587050Y125783D01*
Y124217D01*
X587356Y122681D01*
X587955Y121234D01*
X588825Y119932D01*
X589932Y118825D01*
X591234Y117955D01*
X592681Y117356D01*
X594217Y117050D01*
X595783D01*
X597319Y117356D01*
X598766Y117955D01*
X600068Y118825D01*
X601175Y119932D01*
X602045Y121234D01*
X602644Y122681D01*
X602950Y124217D01*
Y125783D01*
X602644Y127319D01*
X602045Y128766D01*
X601175Y130068D01*
X600068Y131175D01*
X598766Y132045D01*
X597319Y132644D01*
X595783Y132950D01*
D02*
G37*
G36*
X409657Y314500D02*
X406709D01*
X406933Y313664D01*
X407388Y312875D01*
X408033Y312231D01*
X408736Y311824D01*
X408820Y311980D01*
X408903Y312228D01*
X408892Y312275D01*
X408832Y312480D01*
X408757Y312675D01*
X408670Y312861D01*
X408569Y313036D01*
X408454Y313201D01*
X408326Y313357D01*
X409657Y313271D01*
Y314500D01*
D02*
G37*
G36*
X359658D02*
X356709D01*
X356933Y313664D01*
X357388Y312875D01*
X358033Y312231D01*
X358736Y311824D01*
X358820Y311980D01*
X358903Y312228D01*
X358892Y312275D01*
X358832Y312480D01*
X358757Y312675D01*
X358670Y312861D01*
X358569Y313036D01*
X358454Y313201D01*
X358326Y313357D01*
X359658Y313271D01*
Y314500D01*
D02*
G37*
G36*
X299658D02*
X296709D01*
X296933Y313664D01*
X297388Y312875D01*
X298033Y312231D01*
X298736Y311824D01*
X298820Y311980D01*
X298903Y312228D01*
X298892Y312275D01*
X298832Y312480D01*
X298757Y312675D01*
X298670Y312861D01*
X298569Y313036D01*
X298454Y313201D01*
X298326Y313357D01*
X299658Y313271D01*
Y314500D01*
D02*
G37*
G36*
X283953Y203953D02*
X280500D01*
Y200500D01*
X283953D01*
Y203953D01*
D02*
G37*
G36*
X279500D02*
X276047D01*
Y200500D01*
X279500D01*
Y203953D01*
D02*
G37*
%LPD*%
D24*
X314500Y344153D02*
X325847D01*
X330000Y340000D01*
X254500Y338000D02*
X257500Y335000D01*
X270000D01*
X456000Y235000D02*
X481000D01*
X450000Y241000D02*
X456000Y235000D01*
X438500Y241000D02*
X450000D01*
X431000Y233500D02*
X438500Y241000D01*
X376500Y233500D02*
X431000D01*
X370000Y240000D02*
X376500Y233500D01*
X308280Y235847D02*
X334047D01*
X340894Y229000D01*
X439000D01*
X445000Y235000D01*
X359253Y254247D02*
X369347Y244153D01*
X484153D02*
X490000Y250000D01*
X369347Y244153D02*
X484153D01*
X136500Y338000D02*
X254500D01*
X115753Y234247D02*
X133253D01*
X135000Y232500D02*
X214778D01*
X133253Y234247D02*
X135000Y232500D01*
X216526Y234247D02*
X257000D01*
X214778Y232500D02*
X216526Y234247D01*
X216703Y225847D02*
X225847D01*
X155403Y227800D02*
X214750D01*
X216703Y225847D01*
X178280Y215847D02*
X229500D01*
X176327Y217800D02*
X178280Y215847D01*
X187894Y206300D02*
X262000D01*
X183253Y214247D02*
X185000Y212500D01*
X115753Y214247D02*
X183253D01*
X185000Y209194D02*
Y212500D01*
Y209194D02*
X187894Y206300D01*
X227611Y197999D02*
X232000D01*
X225459Y195847D02*
X227611Y197999D01*
X216153Y195847D02*
X225459D01*
X210500Y201500D02*
X216153Y195847D01*
X189500Y201500D02*
X210500D01*
X205835Y199000D02*
X210682Y194153D01*
X264500D01*
X187613Y199000D02*
X205835D01*
X185153Y205847D02*
X189500Y201500D01*
X178280Y205847D02*
X185153D01*
X115753Y204247D02*
X182366D01*
X187613Y199000D01*
X225847Y225847D02*
X227000Y227000D01*
X223347Y235847D02*
X224500Y237000D01*
X115753Y194247D02*
X201253D01*
X211347Y184153D02*
X222347D01*
X201253Y194247D02*
X211347Y184153D01*
X158000Y290000D02*
X180000D01*
X137500Y135000D02*
X142500Y140000D01*
X220000D01*
X115000Y135000D02*
X137500D01*
X163000Y250000D02*
X180000D01*
X165607Y240000D02*
X180000D01*
X165500Y240107D02*
X165607Y240000D01*
X160500Y260000D02*
X180000D01*
X158000Y180000D02*
X180000D01*
X160500Y170000D02*
X180000D01*
X163000Y160000D02*
X180000D01*
X135500Y341000D02*
X160500D01*
X130000Y350000D02*
X158000D01*
X130000Y330000D02*
X134500D01*
X140200Y335700D01*
X163000D01*
X130000Y340000D02*
X134500D01*
X135500Y341000D01*
X134500Y320000D02*
X145500Y331000D01*
X165500D01*
X143500Y333500D02*
X224500D01*
X134153Y324153D02*
X143500Y333500D01*
X130000Y320000D02*
X134500D01*
X144086Y318349D02*
X172849D01*
X135737Y310000D02*
X144086Y318349D01*
X180615Y315847D02*
X187384Y322616D01*
X151720Y315847D02*
X180615D01*
X130000Y310000D02*
X135737D01*
X124153Y324153D02*
X134153D01*
X125000Y335000D02*
X133500D01*
X136500Y338000D01*
X423873Y278000D02*
X446428D01*
X423785Y287912D02*
X449446D01*
X421720Y285847D02*
X423785Y287912D01*
X418280Y285847D02*
X421720D01*
X414127Y290000D02*
X418280Y285847D01*
X395873Y290000D02*
X414127D01*
X391720Y294153D02*
X395873Y290000D01*
X368280Y294153D02*
X391720D01*
X367075Y292948D02*
X368280Y294153D01*
X342948Y292948D02*
X367075D01*
X342936Y292936D02*
X342948Y292948D01*
X178280Y305847D02*
X452347D01*
X452500Y306000D01*
X176327Y307800D02*
X178280Y305847D01*
X188467Y323700D02*
X454925D01*
X455000Y323625D01*
X187767Y323000D02*
X188467Y323700D01*
X146661Y328661D02*
X495000D01*
X490000Y230000D02*
X495000Y225000D01*
X510000D01*
X495500Y254500D02*
X510000Y240000D01*
X487500Y254500D02*
X495500D01*
X460000Y250000D02*
X483000D01*
X487500Y254500D01*
Y264500D02*
X500500D01*
X510000Y255000D01*
X460000Y260000D02*
X483000D01*
X487500Y264500D01*
X505500Y274500D02*
X510000Y270000D01*
X487500Y274500D02*
X505500D01*
X483000Y270000D02*
X487500Y274500D01*
X460000Y270000D02*
X483000D01*
X465000Y285000D02*
X510000D01*
X460000Y280000D02*
X465000Y285000D01*
X115753Y174247D02*
X199253D01*
X209347Y164153D01*
X115753Y184247D02*
X199253D01*
X209347Y174153D01*
X222347Y184153D02*
X224500Y182000D01*
X245347D01*
X247500Y184153D01*
X305847Y175847D02*
X310000Y180000D01*
X269847Y184153D02*
X278153Y175847D01*
X305847D01*
X247500Y184153D02*
X269847D01*
X222347Y174153D02*
X224500Y172000D01*
X245347D01*
X247500Y174153D01*
X305847Y165847D02*
X310000Y170000D01*
X269847Y174153D02*
X278153Y165847D01*
X305847D01*
X247500Y174153D02*
X269847D01*
X209347D02*
X222347D01*
Y164153D02*
X224500Y162000D01*
X245347D01*
X247500Y164153D01*
X305847Y155847D02*
X310000Y160000D01*
X269847Y164153D02*
X278153Y155847D01*
X305847D01*
X247500Y164153D02*
X269847D01*
X209347D02*
X222347D01*
X115753Y164247D02*
X199253D01*
X209347Y154153D02*
X222347D01*
X199253Y164247D02*
X209347Y154153D01*
X247500D02*
X269847D01*
X278153Y145847D02*
X305847D01*
X269847Y154153D02*
X278153Y145847D01*
X203653Y165847D02*
X213653Y155847D01*
X274153D01*
X305847Y145847D02*
X310000Y150000D01*
X245347Y152000D02*
X247500Y154153D01*
X224500Y152000D02*
X245347D01*
X222347Y154153D02*
X224500Y152000D01*
X178280Y165847D02*
X203653D01*
Y175847D02*
X213653Y165847D01*
X178280Y175847D02*
X203653D01*
Y185847D02*
X213653Y175847D01*
X178280Y185847D02*
X203653D01*
Y195847D02*
X213653Y185847D01*
X178280Y195847D02*
X203653D01*
X274153Y185847D02*
X280000Y180000D01*
X213653Y185847D02*
X274153D01*
Y175847D02*
X280000Y170000D01*
X213653Y175847D02*
X274153D01*
Y165847D02*
X280000Y160000D01*
X213653Y165847D02*
X274153D01*
Y155847D02*
X280000Y150000D01*
X124153Y235847D02*
X223347D01*
X115753Y224247D02*
X259500D01*
X310000Y180000D02*
X317000D01*
X310000Y170000D02*
X319500D01*
X310000Y160000D02*
X322000D01*
X250000Y150000D02*
X264500D01*
X250000Y160000D02*
X262000D01*
X250000Y170000D02*
X259500D01*
X250000Y180000D02*
X257000D01*
X248280Y135847D02*
X275847D01*
X280000Y140000D01*
X244127D02*
X248280Y135847D01*
X224000Y304153D02*
X225153Y303000D01*
X232000D01*
X146153Y304153D02*
X224000D01*
X217153Y294153D02*
X224000D01*
X215000Y292000D02*
X217153Y294153D01*
X185153Y292000D02*
X215000D01*
X146153Y294153D02*
X183000D01*
X185153Y298000D02*
X214000D01*
X216153Y295847D01*
X227153D01*
X178280D02*
X183000D01*
Y294153D02*
X185153Y292000D01*
X183000Y295847D02*
X185153Y298000D01*
X178280Y285847D02*
X183000D01*
X217000D02*
X227153D01*
X183000D02*
X185153Y288000D01*
X214847D01*
X217000Y285847D01*
Y274153D02*
X224000D01*
X146153D02*
X183000D01*
X185153Y272000D01*
X214847D01*
X217000Y274153D01*
Y265847D02*
X227153D01*
X178280D02*
X183000D01*
X214847Y268000D02*
X217000Y265847D01*
X185153Y268000D02*
X214847D01*
X183000Y265847D02*
X185153Y268000D01*
X227153Y295847D02*
X237153Y285847D01*
X331890Y274153D02*
X343847D01*
X352153Y265847D01*
X371847D01*
X380153Y274153D01*
X484153Y274153D01*
X418280Y275847D02*
X421720D01*
X393873Y278000D02*
X416127D01*
X418280Y275847D01*
X421720D02*
X423873Y278000D01*
X368280Y275847D02*
X391720D01*
X331890Y284153D02*
X359974D01*
X391720Y275847D02*
X393873Y278000D01*
X359974Y284153D02*
X368280Y275847D01*
X313000Y285753D02*
X321400Y294153D01*
X484153Y274153D02*
X490000Y280000D01*
X384153Y264153D02*
X390000Y270000D01*
X345847Y264153D02*
X384153D01*
X340000Y270000D02*
X345847Y264153D01*
X418280Y254153D02*
X484153D01*
X490000Y260000D01*
X390000Y250000D02*
X414127D01*
X418280Y254153D01*
X328490Y254247D02*
X359253D01*
X326985Y255753D02*
X328490Y254247D01*
X304753Y255753D02*
X326985D01*
X227153Y265847D02*
X237153Y255847D01*
X310000Y250000D02*
X325000D01*
X329153Y245847D02*
X364153D01*
X325000Y250000D02*
X329153Y245847D01*
X364153D02*
X370000Y240000D01*
X364153Y255847D02*
X370000Y250000D01*
X325000Y260000D02*
X329153Y255847D01*
X364153D01*
X308280Y254153D02*
X324153D01*
X328306Y250000D01*
X340000D01*
X328306Y260000D02*
X340000D01*
X324153Y264153D02*
X328306Y260000D01*
X308280Y264153D02*
X324153D01*
X237153Y255847D02*
X275153D01*
X276847Y254153D01*
X303153D01*
X304753Y255753D01*
X323490Y265753D02*
X331890Y274153D01*
X227153Y275847D02*
X237153Y265847D01*
X310000Y260000D02*
X325000D01*
X310000Y270000D02*
X325000D01*
X330847Y275847D01*
X364153D01*
X370000Y270000D01*
X303153Y264153D02*
X304753Y265753D01*
X276847Y264153D02*
X303153D01*
X275153Y265847D02*
X276847Y264153D01*
X237153Y265847D02*
X275153D01*
X304753Y265753D02*
X323490D01*
X227153Y285847D02*
X237153Y275847D01*
X304753Y275753D02*
X323490D01*
X331890Y284153D01*
X237153Y275847D02*
X275153D01*
X364153Y285847D02*
X370000Y280000D01*
X330847Y285847D02*
X364153D01*
X325000Y280000D02*
X330847Y285847D01*
X304753Y285753D02*
X313000D01*
X342436Y293436D02*
X342436Y293436D01*
Y293436D01*
X342436D02*
X342436D01*
X275153Y275847D02*
X276847Y274153D01*
X303153D01*
X304753Y275753D01*
X308280Y274153D02*
X324153D01*
X330000Y280000D02*
X340000D01*
X324153Y274153D02*
X330000Y280000D01*
X310000D02*
X325000D01*
X324153Y284153D02*
X330000Y290000D01*
X308280Y284153D02*
X324153D01*
X330000Y290000D02*
X340000D01*
X237153Y285847D02*
X275153D01*
X342936Y292936D02*
Y292936D01*
X342436Y293436D02*
X342936Y292936D01*
X342436Y293436D02*
X342436Y293436D01*
X321400Y294153D02*
X341720D01*
X342436Y293436D01*
X303153Y284153D02*
X304753Y285753D01*
X276847Y284153D02*
X303153D01*
X395000Y294153D02*
X485847D01*
X315847Y295847D02*
X393305D01*
X395000Y294153D01*
X310000Y290000D02*
X315847Y295847D01*
X275153Y285847D02*
X276847Y284153D01*
X224000Y294153D02*
X234000Y284153D01*
X273847D02*
X278000Y280000D01*
X280000D01*
X234000Y284153D02*
X273847D01*
X224000D02*
X234000Y274153D01*
X273847D02*
X278000Y270000D01*
X280000D01*
X234000Y274153D02*
X273847D01*
X224000D02*
X234000Y264153D01*
X273847D02*
X278000Y260000D01*
X280000D01*
X234000Y264153D02*
X273847D01*
X234000Y254153D02*
X273847D01*
X278000Y250000D02*
X280000D01*
X273847Y254153D02*
X278000Y250000D01*
X224000Y264153D02*
X234000Y254153D01*
X146153Y264153D02*
X224000D01*
X146153Y284153D02*
X224000D01*
X178280Y275847D02*
X227153D01*
X281720Y245847D02*
X285873Y250000D01*
X274127D02*
X278280Y245847D01*
X250000Y250000D02*
X274127D01*
X278280Y245847D02*
X281720D01*
Y255847D02*
X285873Y260000D01*
X274127D02*
X278280Y255847D01*
X250000Y260000D02*
X274127D01*
X278280Y255847D02*
X281720D01*
Y265847D02*
X285873Y270000D01*
X274127D02*
X278280Y265847D01*
X250000Y270000D02*
X274127D01*
X278280Y265847D02*
X281720D01*
Y275847D02*
X285873Y280000D01*
X274127D02*
X278280Y275847D01*
X250000Y280000D02*
X274127D01*
X278280Y275847D02*
X281720D01*
X285873Y280000D02*
X304127D01*
X281720Y285847D02*
X285873Y290000D01*
X274127D02*
X278280Y285847D01*
X250000Y290000D02*
X274127D01*
X278280Y285847D02*
X281720D01*
X285873Y290000D02*
X310000D01*
X304127Y280000D02*
X308280Y284153D01*
X188500Y326000D02*
X227000D01*
X187384Y322616D02*
Y322621D01*
X187763Y323000D02*
X187767D01*
X187384Y322621D02*
X187763Y323000D01*
X183500Y321000D02*
X188500Y326000D01*
X143000Y321000D02*
X183500D01*
X146153Y314153D02*
X229500D01*
X124153Y344153D02*
X314500D01*
X314500Y344153D01*
X120000Y340000D02*
X124153Y344153D01*
X120000Y330000D02*
X125000Y335000D01*
X120000Y320000D02*
X124153Y324153D01*
X133753Y315753D02*
X146661Y328661D01*
X136153Y314153D02*
X143000Y321000D01*
X124153Y314153D02*
X136153D01*
X115753Y315753D02*
X133753D01*
X110000Y310000D02*
X115753Y315753D01*
X120000Y310000D02*
X124153Y314153D01*
X120000Y300000D02*
X124153Y304153D01*
X110000Y300000D02*
X115753Y305753D01*
X143847Y315847D02*
X151720D01*
X133753Y305753D02*
X143847Y315847D01*
X115753Y305753D02*
X133753D01*
X136153Y304153D02*
X146153Y314153D01*
X124153Y304153D02*
X136153D01*
X120000Y290000D02*
X124153Y294153D01*
X110000Y290000D02*
X115753Y295753D01*
X143847Y305847D02*
X151720D01*
X133753Y295753D02*
X143847Y305847D01*
X115753Y295753D02*
X133753D01*
X136153Y294153D02*
X146153Y304153D01*
X124153Y294153D02*
X136153D01*
X151720Y305847D02*
X153673Y307800D01*
X176327D01*
X120000Y280000D02*
X124153Y284153D01*
X110000Y280000D02*
X115753Y285753D01*
X143847Y295847D02*
X151720D01*
X133753Y285753D02*
X143847Y295847D01*
X115753Y285753D02*
X133753D01*
X136153Y284153D02*
X146153Y294153D01*
X124153Y284153D02*
X136153D01*
X151720Y295847D02*
X153673Y297800D01*
X176327D01*
X178280Y295847D01*
X120000Y270000D02*
X124153Y274153D01*
X110000Y270000D02*
X115753Y275753D01*
X143847Y285847D02*
X151720D01*
X133753Y275753D02*
X143847Y285847D01*
X115753Y275753D02*
X133753D01*
X136153Y274153D02*
X146153Y284153D01*
X124153Y274153D02*
X136153D01*
X151720Y285847D02*
X153673Y287800D01*
X176327D01*
X178280Y285847D01*
X120000Y260000D02*
X124153Y264153D01*
X110000Y260000D02*
X115753Y265753D01*
X143847Y275847D02*
X151720D01*
X133753Y265753D02*
X143847Y275847D01*
X115753Y265753D02*
X133753D01*
X136153Y264153D02*
X146153Y274153D01*
X124153Y264153D02*
X136153D01*
X151720Y275847D02*
X153673Y277800D01*
X176327D01*
X178280Y275847D01*
X176327Y267800D02*
X178280Y265847D01*
X153673Y267800D02*
X176327D01*
X151720Y265847D02*
X153673Y267800D01*
X124153Y254153D02*
X136153D01*
X146153Y264153D01*
X115753Y255753D02*
X133753D01*
X143847Y265847D01*
X151720D01*
X110000Y250000D02*
X115753Y255753D01*
X120000Y250000D02*
X124153Y254153D01*
X130000Y230000D02*
X175500D01*
X130000Y170000D02*
X150000D01*
X130000Y200000D02*
X150000D01*
X135000Y300000D02*
X145000Y310000D01*
X150000D01*
X130000Y300000D02*
X135000D01*
Y280000D02*
X145000Y290000D01*
X150000D01*
X130000Y280000D02*
X135000D01*
X130000Y290000D02*
X135000D01*
X145000Y300000D02*
X150000D01*
X135000Y290000D02*
X145000Y300000D01*
X135000Y260000D02*
X145000Y270000D01*
X150000D01*
X130000Y260000D02*
X135000D01*
X130000Y270000D02*
X135000D01*
X145000Y280000D02*
X150000D01*
X135000Y270000D02*
X145000Y280000D01*
X135000Y250000D02*
X145000Y260000D01*
X150000D01*
X130000Y250000D02*
X135000D01*
X130000Y240000D02*
X135000D01*
X145000Y250000D02*
X150000D01*
X135000Y240000D02*
X145000Y250000D01*
X130000Y220000D02*
X150000D01*
X130000Y210000D02*
X150000D01*
X130000Y190000D02*
X150000D01*
X130000Y180000D02*
X150000D01*
X154153Y226550D02*
Y226550D01*
X155403Y227800D01*
X124153Y225847D02*
X151914D01*
X153450Y225847D02*
X154153Y226550D01*
X151914Y225847D02*
X151914Y225847D01*
X153450D01*
X124153Y215847D02*
X151720D01*
X124153Y195847D02*
X151720D01*
X124153Y185847D02*
X151720D01*
X124153Y175847D02*
X151720D01*
X124153Y165847D02*
X151720D01*
Y165847D02*
X153673Y167800D01*
X176327D01*
X178280Y165847D01*
X151720Y175847D02*
X153673Y177800D01*
X176327D01*
X178280Y175847D01*
X151720Y185847D02*
X153673Y187800D01*
X176327D01*
X178280Y185847D01*
X151720Y215847D02*
X153673Y217800D01*
X176327D01*
X151720Y195847D02*
X153673Y197800D01*
X176327D01*
X178280Y195847D01*
X176327Y207800D02*
X178280Y205847D01*
X153673Y207800D02*
X176327D01*
X151720Y205847D02*
X153673Y207800D01*
X124153Y205847D02*
X148500D01*
X148500Y205847D02*
X151720D01*
X148500Y205847D02*
X148500Y205847D01*
X120000Y170000D02*
X124153Y165847D01*
X120000Y240000D02*
X124153Y235847D01*
X110000Y240000D02*
X115753Y234247D01*
X120000Y230000D02*
X124153Y225847D01*
X110000Y230000D02*
X115753Y224247D01*
X120000Y220000D02*
X124153Y215847D01*
X110000Y220000D02*
X115753Y214247D01*
X110000Y210000D02*
X115753Y204247D01*
X304127Y240000D02*
X308280Y235847D01*
X310000Y190000D02*
X390000D01*
X281720Y194153D02*
X285873Y190000D01*
X274127D02*
X278280Y194153D01*
X250000Y190000D02*
X274127D01*
X278280Y194153D02*
X281720D01*
X285873Y190000D02*
X310000D01*
X485847Y294153D02*
X490000Y290000D01*
X278280Y234153D02*
X281720D01*
X275847Y231720D02*
X278280Y234153D01*
X274127Y230000D02*
X275847Y231720D01*
Y231720D01*
X250000Y230000D02*
X274127D01*
X285873D02*
X310000D01*
X281720Y234153D02*
X285873Y230000D01*
X281720Y144153D02*
X285873Y140000D01*
X310000D01*
X275847Y141720D02*
Y141720D01*
X274127Y140000D02*
X275847Y141720D01*
Y141720D02*
X278280Y144153D01*
X281720D01*
X304127Y250000D02*
X308280Y254153D01*
X285873Y250000D02*
X304127D01*
Y260000D02*
X308280Y264153D01*
X285873Y260000D02*
X304127D01*
Y270000D02*
X308280Y274153D01*
X285873Y270000D02*
X304127D01*
X220000Y140000D02*
X244127D01*
X110000Y170000D02*
X115753Y164247D01*
X115000Y145000D02*
X190000D01*
X110000Y150000D02*
X115000Y145000D01*
X110000Y140000D02*
X115000Y135000D01*
X120000Y180000D02*
X124153Y175847D01*
X110000Y180000D02*
X115753Y174247D01*
X120000Y190000D02*
X124153Y185847D01*
X110000Y190000D02*
X115753Y184247D01*
X120000Y200000D02*
X124153Y195847D01*
X110000Y200000D02*
X115753Y194247D01*
X120000Y210000D02*
X124153Y205847D01*
X244127Y240000D02*
X248280Y244153D01*
X220000Y240000D02*
X244127D01*
X255873D02*
X280000D01*
X251720Y244153D02*
X255873Y240000D01*
X248280Y244153D02*
X251720D01*
X250000Y140000D02*
X274127D01*
X280000Y240000D02*
X304127D01*
X370000Y290000D02*
X390000D01*
X370000Y260000D02*
X390000D01*
X340000Y300000D02*
X344153Y304153D01*
X385847D01*
X390000Y300000D01*
D25*
X180000Y190000D02*
X200000D01*
X180000Y280000D02*
X200000D01*
X410000Y220000D02*
X450000D01*
X460000Y230000D01*
X340000Y220000D02*
X390000D01*
X410000D01*
X410157Y215000D02*
Y219843D01*
X410000Y220000D02*
X410157Y219843D01*
X300157Y220000D02*
X340000D01*
X180157D02*
X240158D01*
X300157Y215000D02*
Y220000D01*
X240158Y215000D02*
Y220000D01*
X300157D01*
X250000Y210000D02*
X310000D01*
X250000D02*
Y215000D01*
X310000Y210000D02*
Y215000D01*
X415000Y210000D02*
X420000Y215000D01*
X310000Y210000D02*
X415000D01*
X190000D02*
X250000D01*
X180000Y310000D02*
X200000D01*
X155000Y245000D02*
X190000D01*
X150000Y240000D02*
X155000Y245000D01*
X131063Y121063D02*
X180000D01*
X131063Y128937D02*
X180000D01*
X160000Y130000D02*
Y134843D01*
X159843Y135000D02*
X160000Y134843D01*
X130000Y120000D02*
X131063Y121063D01*
X130000Y130000D02*
X131063Y128937D01*
X180000Y129000D02*
X199000D01*
X200000Y130000D01*
X410000Y310000D02*
X460000D01*
X360000D02*
X410000D01*
Y314843D01*
X410157Y315000D01*
X300000Y310000D02*
X360000D01*
Y314843D01*
X360157Y315000D01*
X240000Y310000D02*
X280000D01*
X220000D02*
X240000D01*
Y314843D01*
X240158Y315000D01*
X280000Y310000D02*
X300000D01*
X200000D02*
X220000D01*
X300000D02*
Y314843D01*
X300157Y315000D01*
X460000Y310000D02*
X475157D01*
X480158Y315000D01*
X410000Y180000D02*
X420000Y190000D01*
X390000Y180000D02*
X410000D01*
Y160000D02*
X420000Y170000D01*
X390000Y160000D02*
X410000D01*
Y140000D02*
X420000Y150000D01*
X390000Y140000D02*
X410000D01*
X375000Y125000D02*
X390000Y140000D01*
X280000Y125000D02*
X375000D01*
X280000D02*
Y130000D01*
X225000Y125000D02*
X280000D01*
X200000Y130000D02*
X220000D01*
X225000Y125000D01*
X120000Y130000D02*
X130000D01*
X110000D02*
X120000D01*
X250000Y320000D02*
X310000D01*
X190000D02*
X250000D01*
Y315000D02*
Y320000D01*
X310000D02*
X370000D01*
X310000Y315000D02*
Y320000D01*
X370000D02*
X420000D01*
X370000Y315000D02*
Y320000D01*
X420000D02*
X485000D01*
X420000Y315000D02*
Y320000D01*
X485000D02*
X490000Y315000D01*
X120000Y120000D02*
X130000D01*
X110000D02*
X120000D01*
D26*
X200000Y130000D02*
D03*
X185000Y350000D02*
D03*
X270000Y335000D02*
D03*
X330000Y340000D02*
D03*
X445000Y235000D02*
D03*
X375000Y145000D02*
D03*
X510000Y285000D02*
D03*
Y270000D02*
D03*
Y255000D02*
D03*
Y240000D02*
D03*
Y225000D02*
D03*
D27*
X120000Y350000D02*
D03*
Y340000D02*
D03*
Y330000D02*
D03*
Y320000D02*
D03*
Y310000D02*
D03*
Y300000D02*
D03*
Y290000D02*
D03*
Y280000D02*
D03*
Y270000D02*
D03*
Y260000D02*
D03*
Y250000D02*
D03*
Y240000D02*
D03*
Y230000D02*
D03*
Y220000D02*
D03*
Y210000D02*
D03*
Y200000D02*
D03*
Y190000D02*
D03*
Y180000D02*
D03*
Y170000D02*
D03*
Y160000D02*
D03*
Y150000D02*
D03*
Y140000D02*
D03*
Y130000D02*
D03*
X130000Y350000D02*
D03*
Y340000D02*
D03*
Y330000D02*
D03*
Y320000D02*
D03*
Y310000D02*
D03*
Y300000D02*
D03*
Y290000D02*
D03*
Y280000D02*
D03*
Y270000D02*
D03*
Y260000D02*
D03*
Y250000D02*
D03*
Y240000D02*
D03*
Y230000D02*
D03*
Y220000D02*
D03*
Y210000D02*
D03*
Y200000D02*
D03*
Y190000D02*
D03*
Y180000D02*
D03*
Y170000D02*
D03*
Y160000D02*
D03*
Y150000D02*
D03*
Y140000D02*
D03*
Y130000D02*
D03*
X110000Y220000D02*
D03*
Y210000D02*
D03*
Y240000D02*
D03*
Y230000D02*
D03*
Y200000D02*
D03*
Y190000D02*
D03*
Y180000D02*
D03*
Y170000D02*
D03*
Y130000D02*
D03*
Y140000D02*
D03*
Y150000D02*
D03*
Y160000D02*
D03*
Y250000D02*
D03*
Y260000D02*
D03*
Y270000D02*
D03*
Y280000D02*
D03*
Y290000D02*
D03*
Y300000D02*
D03*
Y310000D02*
D03*
Y320000D02*
D03*
Y330000D02*
D03*
Y340000D02*
D03*
Y350000D02*
D03*
D28*
X120000Y120000D02*
D03*
X130000D02*
D03*
X110000D02*
D03*
D29*
X180000Y121063D02*
D03*
D30*
X180000Y128937D02*
D03*
X159843Y135000D02*
D03*
X170158Y325000D02*
D03*
X410157Y215000D02*
D03*
X480158Y315000D02*
D03*
X410157D02*
D03*
X360157D02*
D03*
X300157D02*
D03*
X240158D02*
D03*
Y215000D02*
D03*
X300157D02*
D03*
D31*
X150000Y135000D02*
D03*
X180000Y325000D02*
D03*
X420000Y215000D02*
D03*
X490000Y315000D02*
D03*
X420000D02*
D03*
X370000D02*
D03*
X310000D02*
D03*
X250000D02*
D03*
Y215000D02*
D03*
X310000D02*
D03*
D32*
X460000Y280000D02*
D03*
Y250000D02*
D03*
X490000D02*
D03*
Y280000D02*
D03*
X150000Y310000D02*
D03*
Y300000D02*
D03*
Y290000D02*
D03*
Y280000D02*
D03*
Y270000D02*
D03*
Y260000D02*
D03*
Y250000D02*
D03*
Y240000D02*
D03*
X180000Y310000D02*
D03*
Y300000D02*
D03*
Y290000D02*
D03*
Y280000D02*
D03*
Y270000D02*
D03*
Y260000D02*
D03*
Y250000D02*
D03*
X150000Y220000D02*
D03*
Y210000D02*
D03*
Y200000D02*
D03*
Y190000D02*
D03*
Y180000D02*
D03*
Y170000D02*
D03*
Y160000D02*
D03*
Y150000D02*
D03*
X180000Y220000D02*
D03*
Y210000D02*
D03*
Y200000D02*
D03*
Y190000D02*
D03*
Y180000D02*
D03*
Y170000D02*
D03*
Y160000D02*
D03*
X370000Y240000D02*
D03*
Y270000D02*
D03*
Y250000D02*
D03*
Y280000D02*
D03*
X310000Y230000D02*
D03*
Y240000D02*
D03*
Y250000D02*
D03*
Y260000D02*
D03*
Y270000D02*
D03*
Y280000D02*
D03*
Y290000D02*
D03*
Y300000D02*
D03*
X280000Y230000D02*
D03*
Y240000D02*
D03*
Y250000D02*
D03*
Y260000D02*
D03*
Y270000D02*
D03*
Y280000D02*
D03*
Y290000D02*
D03*
X370000Y260000D02*
D03*
Y290000D02*
D03*
Y300000D02*
D03*
X340000Y240000D02*
D03*
Y250000D02*
D03*
Y260000D02*
D03*
Y270000D02*
D03*
Y280000D02*
D03*
Y290000D02*
D03*
X310000Y130000D02*
D03*
Y140000D02*
D03*
Y150000D02*
D03*
Y160000D02*
D03*
Y170000D02*
D03*
Y180000D02*
D03*
Y190000D02*
D03*
Y200000D02*
D03*
X280000Y130000D02*
D03*
Y140000D02*
D03*
Y150000D02*
D03*
Y160000D02*
D03*
Y170000D02*
D03*
Y180000D02*
D03*
Y190000D02*
D03*
X250000Y130000D02*
D03*
Y140000D02*
D03*
Y150000D02*
D03*
Y160000D02*
D03*
Y170000D02*
D03*
Y180000D02*
D03*
Y190000D02*
D03*
Y200000D02*
D03*
X220000Y130000D02*
D03*
Y140000D02*
D03*
Y150000D02*
D03*
Y160000D02*
D03*
Y170000D02*
D03*
Y180000D02*
D03*
Y190000D02*
D03*
X250000Y230000D02*
D03*
Y240000D02*
D03*
Y250000D02*
D03*
Y260000D02*
D03*
Y270000D02*
D03*
Y280000D02*
D03*
Y290000D02*
D03*
Y300000D02*
D03*
X220000Y230000D02*
D03*
Y240000D02*
D03*
Y250000D02*
D03*
Y260000D02*
D03*
Y270000D02*
D03*
Y280000D02*
D03*
Y290000D02*
D03*
X490000Y270000D02*
D03*
X390000D02*
D03*
Y260000D02*
D03*
Y290000D02*
D03*
X490000Y230000D02*
D03*
Y240000D02*
D03*
Y260000D02*
D03*
Y290000D02*
D03*
Y300000D02*
D03*
X460000Y230000D02*
D03*
Y240000D02*
D03*
Y260000D02*
D03*
Y270000D02*
D03*
Y290000D02*
D03*
X390000Y280000D02*
D03*
Y250000D02*
D03*
Y240000D02*
D03*
X420000Y300000D02*
D03*
Y290000D02*
D03*
Y280000D02*
D03*
Y270000D02*
D03*
Y260000D02*
D03*
Y250000D02*
D03*
Y240000D02*
D03*
X390000Y190000D02*
D03*
Y180000D02*
D03*
Y170000D02*
D03*
Y160000D02*
D03*
Y150000D02*
D03*
Y140000D02*
D03*
X420000Y200000D02*
D03*
Y190000D02*
D03*
Y180000D02*
D03*
Y170000D02*
D03*
Y160000D02*
D03*
Y150000D02*
D03*
Y140000D02*
D03*
D33*
X180000Y240000D02*
D03*
Y150000D02*
D03*
X280000Y300000D02*
D03*
X340000D02*
D03*
X280000Y200000D02*
D03*
X220000D02*
D03*
Y300000D02*
D03*
X390000D02*
D03*
X460000D02*
D03*
X390000Y200000D02*
D03*
D34*
X171500Y134000D02*
D03*
X193957Y154920D02*
D03*
X209726Y146874D02*
D03*
X208572Y243154D02*
D03*
X211500Y257500D02*
D03*
X192000D02*
D03*
X210000Y350500D02*
D03*
X230000D02*
D03*
X250000D02*
D03*
X270000D02*
D03*
X290000D02*
D03*
X310000D02*
D03*
X610000Y340000D02*
D03*
X600000Y320000D02*
D03*
X610000Y300000D02*
D03*
X600000Y280000D02*
D03*
X610000Y260000D02*
D03*
X600000Y240000D02*
D03*
X610000Y220000D02*
D03*
X600000Y200000D02*
D03*
X610000Y180000D02*
D03*
X600000Y160000D02*
D03*
X610000Y140000D02*
D03*
X580000Y320000D02*
D03*
X590000Y300000D02*
D03*
X580000Y280000D02*
D03*
X590000Y260000D02*
D03*
X580000Y240000D02*
D03*
X590000Y220000D02*
D03*
X580000Y200000D02*
D03*
X590000Y180000D02*
D03*
X580000Y160000D02*
D03*
X590000Y140000D02*
D03*
X580000Y120000D02*
D03*
X570000Y340000D02*
D03*
X560000Y320000D02*
D03*
X570000Y300000D02*
D03*
X560000Y280000D02*
D03*
X570000Y260000D02*
D03*
X560000Y240000D02*
D03*
X570000Y220000D02*
D03*
X560000Y200000D02*
D03*
X570000Y180000D02*
D03*
X560000Y160000D02*
D03*
X570000Y140000D02*
D03*
X560000Y120000D02*
D03*
X550000Y340000D02*
D03*
X540000Y320000D02*
D03*
X550000Y300000D02*
D03*
X540000Y280000D02*
D03*
X550000Y260000D02*
D03*
X540000Y240000D02*
D03*
X550000Y220000D02*
D03*
X540000Y200000D02*
D03*
X550000Y180000D02*
D03*
X540000Y160000D02*
D03*
X550000Y140000D02*
D03*
X540000Y120000D02*
D03*
X530000Y340000D02*
D03*
X520000Y320000D02*
D03*
X530000Y300000D02*
D03*
X520000Y280000D02*
D03*
X530000Y260000D02*
D03*
X520000Y240000D02*
D03*
X530000Y220000D02*
D03*
X520000Y200000D02*
D03*
X530000Y180000D02*
D03*
X520000Y160000D02*
D03*
X530000Y140000D02*
D03*
X520000Y120000D02*
D03*
X510000Y340000D02*
D03*
Y300000D02*
D03*
X500000Y240000D02*
D03*
Y200000D02*
D03*
X510000Y180000D02*
D03*
X500000Y160000D02*
D03*
X510000Y140000D02*
D03*
X500000Y120000D02*
D03*
X490000Y340000D02*
D03*
Y220000D02*
D03*
X480000Y200000D02*
D03*
X490000Y180000D02*
D03*
X480000Y160000D02*
D03*
X490000Y140000D02*
D03*
X480000Y120000D02*
D03*
X470000Y340000D02*
D03*
Y300000D02*
D03*
Y220000D02*
D03*
X460000Y200000D02*
D03*
X470000Y180000D02*
D03*
X460000Y160000D02*
D03*
X470000Y140000D02*
D03*
X460000Y120000D02*
D03*
X450000Y340000D02*
D03*
Y220000D02*
D03*
X440000Y200000D02*
D03*
X450000Y180000D02*
D03*
X440000Y160000D02*
D03*
X450000Y140000D02*
D03*
X440000Y120000D02*
D03*
X430000Y340000D02*
D03*
Y300000D02*
D03*
Y260000D02*
D03*
Y220000D02*
D03*
Y180000D02*
D03*
Y140000D02*
D03*
X420000Y120000D02*
D03*
X410000Y340000D02*
D03*
Y300000D02*
D03*
Y260000D02*
D03*
Y180000D02*
D03*
X400000Y160000D02*
D03*
X410000Y140000D02*
D03*
X400000Y120000D02*
D03*
X390000Y340000D02*
D03*
X380000Y200000D02*
D03*
Y120000D02*
D03*
X370000Y340000D02*
D03*
X360000Y240000D02*
D03*
X370000Y220000D02*
D03*
X360000Y200000D02*
D03*
Y160000D02*
D03*
X350000Y340000D02*
D03*
Y220000D02*
D03*
X340000Y200000D02*
D03*
X350000Y180000D02*
D03*
X340000Y160000D02*
D03*
X350000Y140000D02*
D03*
X330000Y220000D02*
D03*
Y180000D02*
D03*
Y140000D02*
D03*
X300000Y200000D02*
D03*
X290000Y300000D02*
D03*
Y220000D02*
D03*
X270000Y300000D02*
D03*
Y220000D02*
D03*
X240000Y200000D02*
D03*
X200000Y190000D02*
D03*
X190000Y320000D02*
D03*
X200000Y310000D02*
D03*
X460000D02*
D03*
X220000D02*
D03*
X280000D02*
D03*
X150000Y121063D02*
D03*
X190000Y245000D02*
D03*
Y210000D02*
D03*
X200000Y220000D02*
D03*
X220000D02*
D03*
X280000D02*
D03*
X340000D02*
D03*
X390000D02*
D03*
X200000Y280000D02*
D03*
D35*
X264500Y150000D02*
D03*
X257000Y280000D02*
D03*
X259500Y270000D02*
D03*
X262000Y260000D02*
D03*
X264500Y250000D02*
D03*
X322000Y160000D02*
D03*
X319500Y170000D02*
D03*
X317000Y180000D02*
D03*
Y280000D02*
D03*
X319500Y270000D02*
D03*
X322000Y260000D02*
D03*
X324500Y250000D02*
D03*
X495000Y328661D02*
D03*
X455000Y323625D02*
D03*
X452500Y306000D02*
D03*
X449446Y287912D02*
D03*
X446428Y278000D02*
D03*
X172849Y318349D02*
D03*
X224500Y333500D02*
D03*
X165500Y331000D02*
D03*
X158000Y350000D02*
D03*
X163000Y335700D02*
D03*
X160500Y341000D02*
D03*
X163000Y160000D02*
D03*
X160500Y170000D02*
D03*
X158000Y180000D02*
D03*
X160500Y260000D02*
D03*
X163000Y250000D02*
D03*
X165500Y240107D02*
D03*
X158000Y290000D02*
D03*
X224500Y237000D02*
D03*
X227000Y227000D02*
D03*
X264500Y194153D02*
D03*
X232000Y197999D02*
D03*
X262000Y206300D02*
D03*
X229500Y215847D02*
D03*
X257000Y234247D02*
D03*
X259500Y224247D02*
D03*
X254500Y338000D02*
D03*
X481000Y235000D02*
D03*
X395000Y294153D02*
D03*
X190000Y145000D02*
D03*
X175500Y230000D02*
D03*
X314500Y344153D02*
D03*
X229500Y314153D02*
D03*
X227000Y326000D02*
D03*
X232000Y303000D02*
D03*
X257000Y180000D02*
D03*
X259500Y170000D02*
D03*
X262000Y160000D02*
D03*
M02*
