G04*
G04 #@! TF.GenerationSoftware,Altium Limited,Altium Designer,21.9.1 (22)*
G04*
G04 Layer_Color=65535*
%FSLAX25Y25*%
%MOIN*%
G70*
G04*
G04 #@! TF.SameCoordinates,F4552E80-0320-46C3-87D5-3CB50851CFD0*
G04*
G04*
G04 #@! TF.FilePolarity,Positive*
G04*
G01*
G75*
%ADD10C,0.00787*%
%ADD11C,0.00984*%
%ADD12C,0.00800*%
%ADD13C,0.00500*%
%ADD14C,0.01000*%
%ADD15C,0.00591*%
D10*
X476240Y210000D02*
G03*
X476240Y210000I-6240J0D01*
G01*
X426240D02*
G03*
X426240Y210000I-6240J0D01*
G01*
X516240D02*
G03*
X516240Y210000I-6240J0D01*
G01*
X536240D02*
G03*
X536240Y210000I-6240J0D01*
G01*
X526240Y180000D02*
G03*
X526240Y180000I-6240J0D01*
G01*
Y120000D02*
G03*
X526240Y120000I-6240J0D01*
G01*
X546240Y130000D02*
G03*
X546240Y130000I-6240J0D01*
G01*
X526240Y150000D02*
G03*
X526240Y150000I-6240J0D01*
G01*
X556240Y350000D02*
G03*
X556240Y350000I-6240J0D01*
G01*
X182500Y214213D02*
G03*
X187500Y214213I2500J0D01*
G01*
X482500Y188779D02*
G03*
X487500Y188779I2500J0D01*
G01*
X282500Y195551D02*
G03*
X287500Y195551I2500J0D01*
G01*
X159843Y125000D02*
G03*
X159843Y125000I-9843J0D01*
G01*
X232500Y308780D02*
G03*
X237500Y308780I2500J0D01*
G01*
X282500D02*
G03*
X287500Y308780I2500J0D01*
G01*
X332500D02*
G03*
X337500Y308780I2500J0D01*
G01*
X382500D02*
G03*
X387500Y308780I2500J0D01*
G01*
X432500D02*
G03*
X437500Y308780I2500J0D01*
G01*
X182500Y334213D02*
G03*
X187500Y334213I2500J0D01*
G01*
X482500Y308780D02*
G03*
X487500Y308780I2500J0D01*
G01*
X532500D02*
G03*
X537500Y308780I2500J0D01*
G01*
X432500Y188779D02*
G03*
X437500Y188779I2500J0D01*
G01*
X332500D02*
G03*
X337500Y188779I2500J0D01*
G01*
X382500D02*
G03*
X387500Y188779I2500J0D01*
G01*
X232500Y195551D02*
G03*
X237500Y195551I2500J0D01*
G01*
X487205Y199035D02*
Y200118D01*
X502953Y199035D02*
Y200118D01*
X487205Y189882D02*
Y190965D01*
X502953Y189882D02*
Y190965D01*
X487205Y200118D02*
X502953D01*
X487205Y189882D02*
X502953D01*
X174567Y214213D02*
X182500D01*
X187500D02*
X195433D01*
X174567Y115787D02*
X195433D01*
X174567D02*
Y214213D01*
X195433Y115787D02*
Y214213D01*
X474567Y188779D02*
X482500D01*
X487500D02*
X495433D01*
X474567Y111221D02*
X495433D01*
X474567D02*
Y188779D01*
X495433Y111221D02*
Y188779D01*
X274567Y195551D02*
X282500D01*
X287500D02*
X295433D01*
X274567Y114449D02*
X295433D01*
X274567D02*
Y195551D01*
X295433Y114449D02*
Y195551D01*
X102500Y115000D02*
X105000D01*
X102500Y335000D02*
X105000D01*
Y115000D02*
Y122500D01*
Y335000D01*
X237205Y319035D02*
Y320118D01*
X252953Y319035D02*
Y320118D01*
X237205Y309882D02*
Y310965D01*
X252953Y309882D02*
Y310965D01*
X237205Y320118D02*
X252953D01*
X237205Y309882D02*
X252953D01*
X287205Y319035D02*
Y320118D01*
X302953Y319035D02*
Y320118D01*
X287205Y309882D02*
Y310965D01*
X302953Y309882D02*
Y310965D01*
X287205Y320118D02*
X302953D01*
X287205Y309882D02*
X302953D01*
X337205Y319035D02*
Y320118D01*
X352953Y319035D02*
Y320118D01*
X337205Y309882D02*
Y310965D01*
X352953Y309882D02*
Y310965D01*
X337205Y320118D02*
X352953D01*
X337205Y309882D02*
X352953D01*
X387205Y319035D02*
Y320118D01*
X402953Y319035D02*
Y320118D01*
X387205Y309882D02*
Y310965D01*
X402953Y309882D02*
Y310965D01*
X387205Y320118D02*
X402953D01*
X387205Y309882D02*
X402953D01*
X437205Y319035D02*
Y320118D01*
X452953Y319035D02*
Y320118D01*
X437205Y309882D02*
Y310965D01*
X452953Y309882D02*
Y310965D01*
X437205Y320118D02*
X452953D01*
X437205Y309882D02*
X452953D01*
X487205Y319035D02*
Y320118D01*
X502953Y319035D02*
Y320118D01*
X487205Y309882D02*
Y310965D01*
X502953Y309882D02*
Y310965D01*
X487205Y320118D02*
X502953D01*
X487205Y309882D02*
X502953D01*
X187205Y349035D02*
Y350118D01*
X202953Y349035D02*
Y350118D01*
X187205Y339882D02*
Y340965D01*
X202953Y339882D02*
Y340965D01*
X187205Y350118D02*
X202953D01*
X187205Y339882D02*
X202953D01*
X537205Y319035D02*
Y320118D01*
X552953Y319035D02*
Y320118D01*
X537205Y309882D02*
Y310965D01*
X552953Y309882D02*
Y310965D01*
X537205Y320118D02*
X552953D01*
X537205Y309882D02*
X552953D01*
X437205Y199035D02*
Y200118D01*
X452953Y199035D02*
Y200118D01*
X437205Y189882D02*
Y190965D01*
X452953Y189882D02*
Y190965D01*
X437205Y200118D02*
X452953D01*
X437205Y189882D02*
X452953D01*
X337205Y199035D02*
Y200118D01*
X352953Y199035D02*
Y200118D01*
X337205Y189882D02*
Y190965D01*
X352953Y189882D02*
Y190965D01*
X337205Y200118D02*
X352953D01*
X337205Y189882D02*
X352953D01*
X387205Y199035D02*
Y200118D01*
X402953Y199035D02*
Y200118D01*
X387205Y189882D02*
Y190965D01*
X402953Y189882D02*
Y190965D01*
X387205Y200118D02*
X402953D01*
X387205Y189882D02*
X402953D01*
X237205Y209035D02*
Y210118D01*
X252953Y209035D02*
Y210118D01*
X237205Y199882D02*
Y200965D01*
X252953Y199882D02*
Y200965D01*
X237205Y210118D02*
X252953D01*
X237205Y199882D02*
X252953D01*
X287205Y209035D02*
Y210118D01*
X302953Y209035D02*
Y210118D01*
X287205Y199882D02*
Y200965D01*
X302953Y199882D02*
Y200965D01*
X287205Y210118D02*
X302953D01*
X287205Y199882D02*
X302953D01*
X187205Y229035D02*
Y230118D01*
X202953Y229035D02*
Y230118D01*
X187205Y219882D02*
Y220965D01*
X202953Y219882D02*
Y220965D01*
X187205Y230118D02*
X202953D01*
X187205Y219882D02*
X202953D01*
X245433Y231221D02*
Y308780D01*
X224567Y231221D02*
Y308780D01*
Y231221D02*
X245433D01*
X237500Y308780D02*
X245433D01*
X224567D02*
X232500D01*
X295433Y231221D02*
Y308780D01*
X274567Y231221D02*
Y308780D01*
Y231221D02*
X295433D01*
X287500Y308780D02*
X295433D01*
X274567D02*
X282500D01*
X345433Y231221D02*
Y308780D01*
X324567Y231221D02*
Y308780D01*
Y231221D02*
X345433D01*
X337500Y308780D02*
X345433D01*
X324567D02*
X332500D01*
X395433Y231221D02*
Y308780D01*
X374567Y231221D02*
Y308780D01*
Y231221D02*
X395433D01*
X387500Y308780D02*
X395433D01*
X374567D02*
X382500D01*
X445433Y231221D02*
Y308780D01*
X424567Y231221D02*
Y308780D01*
Y231221D02*
X445433D01*
X437500Y308780D02*
X445433D01*
X424567D02*
X432500D01*
X174567Y334213D02*
X182500D01*
X187500D02*
X195433D01*
X174567Y235787D02*
X195433D01*
X174567D02*
Y334213D01*
X195433Y235787D02*
Y334213D01*
X474567Y308780D02*
X482500D01*
X487500D02*
X495433D01*
X474567Y231221D02*
X495433D01*
X474567D02*
Y308780D01*
X495433Y231221D02*
Y308780D01*
X545433Y231221D02*
Y308780D01*
X524567Y231221D02*
Y308780D01*
Y231221D02*
X545433D01*
X537500Y308780D02*
X545433D01*
X524567D02*
X532500D01*
X445433Y111221D02*
Y188779D01*
X424567Y111221D02*
Y188779D01*
Y111221D02*
X445433D01*
X437500Y188779D02*
X445433D01*
X424567D02*
X432500D01*
X345433Y111221D02*
Y188779D01*
X324567Y111221D02*
Y188779D01*
Y111221D02*
X345433D01*
X337500Y188779D02*
X345433D01*
X324567D02*
X332500D01*
X395433Y111221D02*
Y188779D01*
X374567Y111221D02*
Y188779D01*
Y111221D02*
X395433D01*
X387500Y188779D02*
X395433D01*
X374567D02*
X382500D01*
X224567Y195551D02*
X232500D01*
X237500D02*
X245433D01*
X224567Y114449D02*
X245433D01*
X224567D02*
Y195551D01*
X245433Y114449D02*
Y195551D01*
D11*
X505118Y195000D02*
G03*
X505118Y195000I-492J0D01*
G01*
X255118Y315000D02*
G03*
X255118Y315000I-492J0D01*
G01*
X305118D02*
G03*
X305118Y315000I-492J0D01*
G01*
X355118D02*
G03*
X355118Y315000I-492J0D01*
G01*
X405118D02*
G03*
X405118Y315000I-492J0D01*
G01*
X455118D02*
G03*
X455118Y315000I-492J0D01*
G01*
X505118D02*
G03*
X505118Y315000I-492J0D01*
G01*
X205118Y345000D02*
G03*
X205118Y345000I-492J0D01*
G01*
X555118Y315000D02*
G03*
X555118Y315000I-492J0D01*
G01*
X455118Y195000D02*
G03*
X455118Y195000I-492J0D01*
G01*
X355118D02*
G03*
X355118Y195000I-492J0D01*
G01*
X405118D02*
G03*
X405118Y195000I-492J0D01*
G01*
X255118Y205000D02*
G03*
X255118Y205000I-492J0D01*
G01*
X305118D02*
G03*
X305118Y205000I-492J0D01*
G01*
X205118Y225000D02*
G03*
X205118Y225000I-492J0D01*
G01*
D12*
X516095Y203905D02*
X523405Y196595D01*
X538147D01*
D13*
X105000Y360000D02*
X600000Y360000D01*
X135000Y110000D02*
X600000Y110000D01*
D14*
X570207Y236000D02*
X566208D01*
X564209Y237999D01*
X566208Y239999D01*
X570207D01*
X567208D01*
Y236000D01*
X564209Y241998D02*
X570207D01*
Y245997D01*
X564209Y247996D02*
X569207D01*
X570207Y248996D01*
Y250995D01*
X569207Y251995D01*
X564209D01*
X570207Y259992D02*
X566208D01*
X564209Y261992D01*
X566208Y263991D01*
X570207D01*
X567208D01*
Y259992D01*
X564209Y269989D02*
X570207D01*
Y266990D01*
X569207Y265990D01*
X567208D01*
X566208Y266990D01*
Y269989D01*
X564209Y275987D02*
X570207D01*
Y272988D01*
X569207Y271988D01*
X567208D01*
X566208Y272988D01*
Y275987D01*
X570207Y280985D02*
Y278986D01*
X569207Y277987D01*
X567208D01*
X566208Y278986D01*
Y280985D01*
X567208Y281985D01*
X568208D01*
Y277987D01*
X566208Y283984D02*
X570207D01*
X568208D01*
X567208Y284984D01*
X566208Y285984D01*
Y286984D01*
X570207Y289983D02*
X566208Y293981D01*
X565209Y299979D02*
X564209Y298980D01*
Y296980D01*
X565209Y295981D01*
X566208D01*
X567208Y296980D01*
Y298980D01*
X568208Y299979D01*
X569207D01*
X570207Y298980D01*
Y296980D01*
X569207Y295981D01*
X564209Y301979D02*
X570207D01*
X567208D01*
X566208Y302978D01*
Y304978D01*
X567208Y305977D01*
X570207D01*
Y307977D02*
Y309976D01*
Y308976D01*
X566208D01*
Y307977D01*
X570207Y313975D02*
X565209D01*
X567208D01*
Y312975D01*
Y314974D01*
Y313975D01*
X565209D01*
X564209Y314974D01*
X565209Y318973D02*
X566208D01*
Y317973D01*
Y319973D01*
Y318973D01*
X569207D01*
X570207Y319973D01*
Y325971D02*
Y323972D01*
X569207Y322972D01*
X567208D01*
X566208Y323972D01*
Y325971D01*
X567208Y326971D01*
X568208D01*
Y322972D01*
X566208Y328970D02*
X570207D01*
X568208D01*
X567208Y329970D01*
X566208Y330969D01*
Y331969D01*
X579805Y236000D02*
X573807D01*
Y238999D01*
X574806Y239999D01*
X576806D01*
X577805Y238999D01*
Y236000D01*
Y237999D02*
X579805Y239999D01*
Y244997D02*
Y242998D01*
X578805Y241998D01*
X576806D01*
X575806Y242998D01*
Y244997D01*
X576806Y245997D01*
X577805D01*
Y241998D01*
X575806Y247996D02*
X579805Y249995D01*
X575806Y251995D01*
X579805Y259992D02*
X575806D01*
X573807Y261992D01*
X575806Y263991D01*
X579805D01*
X576806D01*
Y259992D01*
X588403Y236000D02*
X589402Y237000D01*
Y238999D01*
X588403Y239999D01*
X584404D01*
X583404Y238999D01*
Y237000D01*
X584404Y236000D01*
X585404D01*
X586403Y237000D01*
Y239999D01*
X589402Y241998D02*
X585404Y245997D01*
X589402Y247996D02*
Y249995D01*
Y248996D01*
X583404D01*
X584404Y247996D01*
Y252994D02*
X583404Y253994D01*
Y255994D01*
X584404Y256993D01*
X585404D01*
X586403Y255994D01*
X587403Y256993D01*
X588403D01*
X589402Y255994D01*
Y253994D01*
X588403Y252994D01*
X587403D01*
X586403Y253994D01*
X585404Y252994D01*
X584404D01*
X586403Y253994D02*
Y255994D01*
X589402Y258993D02*
X585404Y262991D01*
X589402Y268989D02*
Y264991D01*
X585404Y268989D01*
X584404D01*
X583404Y267990D01*
Y265990D01*
X584404Y264991D01*
Y270989D02*
X583404Y271988D01*
Y273988D01*
X584404Y274987D01*
X588403D01*
X589402Y273988D01*
Y271988D01*
X588403Y270989D01*
X584404D01*
X589402Y280985D02*
Y276987D01*
X585404Y280985D01*
X584404D01*
X583404Y279986D01*
Y277987D01*
X584404Y276987D01*
X589402Y286984D02*
Y282985D01*
X585404Y286984D01*
X584404D01*
X583404Y285984D01*
Y283984D01*
X584404Y282985D01*
X593002Y239999D02*
Y236000D01*
X599000D01*
Y239999D01*
X596001Y236000D02*
Y237999D01*
X599000Y241998D02*
X598000D01*
Y242998D01*
X599000D01*
Y241998D01*
X594002Y256993D02*
X593002Y255994D01*
Y253994D01*
X594002Y252994D01*
X595001D01*
X596001Y253994D01*
Y255994D01*
X597001Y256993D01*
X598000D01*
X599000Y255994D01*
Y253994D01*
X598000Y252994D01*
X593002Y258993D02*
Y260992D01*
Y259992D01*
X599000D01*
Y258993D01*
Y260992D01*
Y263991D02*
X593002D01*
X595001Y265990D01*
X593002Y267990D01*
X599000D01*
X594002Y273988D02*
X593002Y272988D01*
Y270989D01*
X594002Y269989D01*
X595001D01*
X596001Y270989D01*
Y272988D01*
X597001Y273988D01*
X598000D01*
X599000Y272988D01*
Y270989D01*
X598000Y269989D01*
X512003Y163999D02*
X516001D01*
X514002D01*
Y158001D01*
X518001D02*
Y163999D01*
X521000D01*
X521999Y162999D01*
Y161000D01*
X521000Y160000D01*
X518001D01*
X523999Y159001D02*
X524998Y158001D01*
X526998D01*
X527997Y159001D01*
Y162999D01*
X526998Y163999D01*
X524998D01*
X523999Y162999D01*
Y162000D01*
X524998Y161000D01*
X527997D01*
X534999Y152499D02*
X533999Y153499D01*
X532000D01*
X531000Y152499D01*
Y148501D01*
X532000Y147501D01*
X533999D01*
X534999Y148501D01*
X539997Y153499D02*
X537998D01*
X536998Y152499D01*
Y148501D01*
X537998Y147501D01*
X539997D01*
X540997Y148501D01*
Y152499D01*
X539997Y153499D01*
X542996Y146501D02*
X546995D01*
X548994Y153499D02*
X550993D01*
X549994D01*
Y147501D01*
X548994D01*
X550993D01*
X553993D02*
Y153499D01*
X555992Y151499D01*
X557991Y153499D01*
Y147501D01*
X559991D02*
Y153499D01*
X561990Y151499D01*
X563989Y153499D01*
Y147501D01*
X512003Y193999D02*
X516001D01*
X514002D01*
Y188001D01*
X518001D02*
Y193999D01*
X521000D01*
X521999Y192999D01*
Y191000D01*
X521000Y190000D01*
X518001D01*
X523999Y192999D02*
X524998Y193999D01*
X526998D01*
X527997Y192999D01*
Y192000D01*
X526998Y191000D01*
X527997Y190000D01*
Y189001D01*
X526998Y188001D01*
X524998D01*
X523999Y189001D01*
Y190000D01*
X524998Y191000D01*
X523999Y192000D01*
Y192999D01*
X524998Y191000D02*
X526998D01*
X535439Y181926D02*
X534440Y182926D01*
X532440D01*
X531441Y181926D01*
Y177928D01*
X532440Y176928D01*
X534440D01*
X535439Y177928D01*
X540438Y182926D02*
X538438D01*
X537439Y181926D01*
Y177928D01*
X538438Y176928D01*
X540438D01*
X541437Y177928D01*
Y181926D01*
X540438Y182926D01*
X543437Y175928D02*
X547436D01*
X553434Y181926D02*
X552434Y182926D01*
X550434D01*
X549435Y181926D01*
Y180927D01*
X550434Y179927D01*
X552434D01*
X553434Y178927D01*
Y177928D01*
X552434Y176928D01*
X550434D01*
X549435Y177928D01*
X555433Y182926D02*
Y176928D01*
Y179927D01*
X559432D01*
Y182926D01*
Y176928D01*
X561431Y182926D02*
X563430D01*
X562431D01*
Y176928D01*
X561431D01*
X563430D01*
X570428Y182926D02*
X566429D01*
Y179927D01*
X568429D01*
X566429D01*
Y176928D01*
X572427Y182926D02*
X576426D01*
X574427D01*
Y176928D01*
X532003Y143999D02*
X536001D01*
X534002D01*
Y138001D01*
X538001D02*
Y143999D01*
X541000D01*
X541999Y142999D01*
Y141000D01*
X541000Y140000D01*
X538001D01*
X543999Y143999D02*
X547997D01*
Y142999D01*
X543999Y139001D01*
Y138001D01*
X554774Y132167D02*
X553774Y133167D01*
X551775D01*
X550775Y132167D01*
Y128168D01*
X551775Y127169D01*
X553774D01*
X554774Y128168D01*
X559772Y133167D02*
X557772D01*
X556773Y132167D01*
Y128168D01*
X557772Y127169D01*
X559772D01*
X560772Y128168D01*
Y132167D01*
X559772Y133167D01*
X562771Y126169D02*
X566770D01*
X568769Y127169D02*
Y131167D01*
X570768Y133167D01*
X572768Y131167D01*
Y127169D01*
Y130168D01*
X568769D01*
X574767Y133167D02*
Y127169D01*
X577766D01*
X578766Y128168D01*
Y132167D01*
X577766Y133167D01*
X574767D01*
X580765D02*
Y127169D01*
X583764D01*
X584764Y128168D01*
Y132167D01*
X583764Y133167D01*
X580765D01*
X502003Y223999D02*
X506001D01*
X504002D01*
Y218001D01*
X508001D02*
Y223999D01*
X511000D01*
X511999Y222999D01*
Y221000D01*
X511000Y220000D01*
X508001D01*
X517997Y223999D02*
X515998Y222999D01*
X513999Y221000D01*
Y219001D01*
X514998Y218001D01*
X516998D01*
X517997Y219001D01*
Y220000D01*
X516998Y221000D01*
X513999D01*
X541000Y192001D02*
Y197999D01*
X543999D01*
X544999Y196999D01*
Y195000D01*
X543999Y194000D01*
X541000D01*
X542999D02*
X544999Y192001D01*
X546998Y197999D02*
X548997D01*
X547998D01*
Y192001D01*
X546998D01*
X548997D01*
X555995Y196999D02*
X554995Y197999D01*
X552996D01*
X551996Y196999D01*
Y193001D01*
X552996Y192001D01*
X554995D01*
X555995Y193001D01*
Y195000D01*
X553996D01*
X557995Y197999D02*
Y192001D01*
Y195000D01*
X561993D01*
Y197999D01*
Y192001D01*
X563993Y197999D02*
X567991D01*
X565992D01*
Y192001D01*
X570990D02*
Y197999D01*
X572990D02*
Y192001D01*
X569991Y196000D02*
X572990D01*
X573989D01*
X569991Y194000D02*
X573989D01*
X522003Y223999D02*
X526001D01*
X524002D01*
Y218001D01*
X528001D02*
Y223999D01*
X531000D01*
X531999Y222999D01*
Y221000D01*
X531000Y220000D01*
X528001D01*
X537997Y223999D02*
X533999D01*
Y221000D01*
X535998Y222000D01*
X536998D01*
X537997Y221000D01*
Y219001D01*
X536998Y218001D01*
X534998D01*
X533999Y219001D01*
X541000Y207999D02*
Y202001D01*
X544999D01*
X550997Y207999D02*
X546998D01*
Y202001D01*
X550997D01*
X546998Y205000D02*
X548997D01*
X556995Y207999D02*
X552996D01*
Y205000D01*
X554995D01*
X552996D01*
Y202001D01*
X558994Y207999D02*
X562993D01*
X560993D01*
Y202001D01*
X565992D02*
Y207999D01*
X567991D02*
Y202001D01*
X564992Y206000D02*
X567991D01*
X568991D01*
X564992Y204000D02*
X568991D01*
X412003Y223999D02*
X416001D01*
X414002D01*
Y218001D01*
X418001D02*
Y223999D01*
X421000D01*
X421999Y222999D01*
Y221000D01*
X421000Y220000D01*
X418001D01*
X426998Y218001D02*
Y223999D01*
X423999Y221000D01*
X427997D01*
X393177Y216661D02*
X392178Y217660D01*
X390178D01*
X389178Y216661D01*
Y215661D01*
X390178Y214661D01*
X392178D01*
X393177Y213662D01*
Y212662D01*
X392178Y211662D01*
X390178D01*
X389178Y212662D01*
X395177Y217660D02*
Y212662D01*
X396176Y211662D01*
X398176D01*
X399175Y212662D01*
Y217660D01*
X401175D02*
Y211662D01*
X404174D01*
X405173Y212662D01*
Y213662D01*
X404174Y214661D01*
X401175D01*
X404174D01*
X405173Y215661D01*
Y216661D01*
X404174Y217660D01*
X401175D01*
X408172Y211662D02*
Y217660D01*
X410172D02*
Y211662D01*
X407173Y215661D02*
X410172D01*
X411171D01*
X407173Y213662D02*
X411171D01*
X462003Y223999D02*
X466001D01*
X464002D01*
Y218001D01*
X468001D02*
Y223999D01*
X471000D01*
X471999Y222999D01*
Y221000D01*
X471000Y220000D01*
X468001D01*
X473999Y222999D02*
X474998Y223999D01*
X476998D01*
X477997Y222999D01*
Y222000D01*
X476998Y221000D01*
X475998D01*
X476998D01*
X477997Y220000D01*
Y219001D01*
X476998Y218001D01*
X474998D01*
X473999Y219001D01*
X440013Y212314D02*
Y216313D01*
X442013Y218312D01*
X444012Y216313D01*
Y212314D01*
Y215313D01*
X440013D01*
X446011Y218312D02*
Y212314D01*
X449011D01*
X450010Y213314D01*
Y217313D01*
X449011Y218312D01*
X446011D01*
X452010D02*
Y212314D01*
X455009D01*
X456008Y213314D01*
Y217313D01*
X455009Y218312D01*
X452010D01*
X459007Y212314D02*
Y218312D01*
X461007D02*
Y212314D01*
X458008Y216313D02*
X461007D01*
X462006D01*
X458008Y214314D02*
X462006D01*
X467600Y198198D02*
Y193200D01*
X468600Y192200D01*
X470599D01*
X471599Y193200D01*
Y198198D01*
X473598Y192200D02*
X475597D01*
X474598D01*
Y198198D01*
X473598Y197198D01*
X490000Y206999D02*
X489000Y207999D01*
X487001D01*
X486001Y206999D01*
Y203001D01*
X487001Y202001D01*
X489000D01*
X490000Y203001D01*
X491999Y202001D02*
X493999D01*
X492999D01*
Y207999D01*
X491999Y206999D01*
X166000Y225498D02*
Y220500D01*
X167000Y219500D01*
X168999D01*
X169999Y220500D01*
Y225498D01*
X175997Y219500D02*
X171998D01*
X175997Y223499D01*
Y224498D01*
X174997Y225498D01*
X172998D01*
X171998Y224498D01*
X177996Y225498D02*
X181995D01*
Y224498D01*
X177996Y220500D01*
Y219500D01*
X266000Y205198D02*
Y200200D01*
X267000Y199200D01*
X268999D01*
X269999Y200200D01*
Y205198D01*
X275997Y199200D02*
X271998D01*
X275997Y203199D01*
Y204198D01*
X274997Y205198D01*
X272998D01*
X271998Y204198D01*
X281995Y205198D02*
X279995Y204198D01*
X277996Y202199D01*
Y200200D01*
X278996Y199200D01*
X280995D01*
X281995Y200200D01*
Y201199D01*
X280995Y202199D01*
X277996D01*
X216000Y205198D02*
Y200200D01*
X217000Y199200D01*
X218999D01*
X219999Y200200D01*
Y205198D01*
X225997Y199200D02*
X221998D01*
X225997Y203199D01*
Y204198D01*
X224997Y205198D01*
X222998D01*
X221998Y204198D01*
X231995Y205198D02*
X227996D01*
Y202199D01*
X229995Y203199D01*
X230995D01*
X231995Y202199D01*
Y200200D01*
X230995Y199200D01*
X228996D01*
X227996Y200200D01*
X366000Y198198D02*
Y193200D01*
X367000Y192200D01*
X368999D01*
X369999Y193200D01*
Y198198D01*
X375997Y192200D02*
X371998D01*
X375997Y196199D01*
Y197198D01*
X374997Y198198D01*
X372998D01*
X371998Y197198D01*
X380995Y192200D02*
Y198198D01*
X377996Y195199D01*
X381995D01*
X316000Y198198D02*
Y193200D01*
X317000Y192200D01*
X318999D01*
X319999Y193200D01*
Y198198D01*
X325997Y192200D02*
X321998D01*
X325997Y196199D01*
Y197198D01*
X324997Y198198D01*
X322998D01*
X321998Y197198D01*
X327996D02*
X328996Y198198D01*
X330995D01*
X331995Y197198D01*
Y196199D01*
X330995Y195199D01*
X329995D01*
X330995D01*
X331995Y194199D01*
Y193200D01*
X330995Y192200D01*
X328996D01*
X327996Y193200D01*
X416000Y198198D02*
Y193200D01*
X417000Y192200D01*
X418999D01*
X419999Y193200D01*
Y198198D01*
X425997Y192200D02*
X421998D01*
X425997Y196199D01*
Y197198D01*
X424997Y198198D01*
X422998D01*
X421998Y197198D01*
X431995Y192200D02*
X427996D01*
X431995Y196199D01*
Y197198D01*
X430995Y198198D01*
X428996D01*
X427996Y197198D01*
X516000Y318198D02*
Y313200D01*
X517000Y312200D01*
X518999D01*
X519999Y313200D01*
Y318198D01*
X525997Y312200D02*
X521998D01*
X525997Y316199D01*
Y317198D01*
X524997Y318198D01*
X522998D01*
X521998Y317198D01*
X527996D02*
X528996Y318198D01*
X530995D01*
X531995Y317198D01*
Y313200D01*
X530995Y312200D01*
X528996D01*
X527996Y313200D01*
Y317198D01*
X466000Y318198D02*
Y313200D01*
X467000Y312200D01*
X468999D01*
X469999Y313200D01*
Y318198D01*
X471998Y312200D02*
X473997D01*
X472998D01*
Y318198D01*
X471998Y317198D01*
X476996D02*
X477996Y318198D01*
X479995D01*
X480995Y317198D01*
Y316199D01*
X479995Y315199D01*
X480995Y314199D01*
Y313200D01*
X479995Y312200D01*
X477996D01*
X476996Y313200D01*
Y314199D01*
X477996Y315199D01*
X476996Y316199D01*
Y317198D01*
X477996Y315199D02*
X479995D01*
X166000Y345498D02*
Y340500D01*
X167000Y339500D01*
X168999D01*
X169999Y340500D01*
Y345498D01*
X171998Y339500D02*
X173997D01*
X172998D01*
Y345498D01*
X171998Y344498D01*
X176996Y340500D02*
X177996Y339500D01*
X179996D01*
X180995Y340500D01*
Y344498D01*
X179996Y345498D01*
X177996D01*
X176996Y344498D01*
Y343499D01*
X177996Y342499D01*
X180995D01*
X416000Y318198D02*
Y313200D01*
X417000Y312200D01*
X418999D01*
X419999Y313200D01*
Y318198D01*
X421998Y312200D02*
X423997D01*
X422998D01*
Y318198D01*
X421998Y317198D01*
X426996Y318198D02*
X430995D01*
Y317198D01*
X426996Y313200D01*
Y312200D01*
X366000Y318198D02*
Y313200D01*
X367000Y312200D01*
X368999D01*
X369999Y313200D01*
Y318198D01*
X371998Y312200D02*
X373997D01*
X372998D01*
Y318198D01*
X371998Y317198D01*
X380995Y318198D02*
X378996Y317198D01*
X376996Y315199D01*
Y313200D01*
X377996Y312200D01*
X379995D01*
X380995Y313200D01*
Y314199D01*
X379995Y315199D01*
X376996D01*
X316000Y318198D02*
Y313200D01*
X317000Y312200D01*
X318999D01*
X319999Y313200D01*
Y318198D01*
X321998Y312200D02*
X323997D01*
X322998D01*
Y318198D01*
X321998Y317198D01*
X330995Y318198D02*
X326996D01*
Y315199D01*
X328996Y316199D01*
X329995D01*
X330995Y315199D01*
Y313200D01*
X329995Y312200D01*
X327996D01*
X326996Y313200D01*
X266000Y318198D02*
Y313200D01*
X267000Y312200D01*
X268999D01*
X269999Y313200D01*
Y318198D01*
X271998Y312200D02*
X273997D01*
X272998D01*
Y318198D01*
X271998Y317198D01*
X279995Y312200D02*
Y318198D01*
X276996Y315199D01*
X280995D01*
X216000Y318198D02*
Y313200D01*
X217000Y312200D01*
X218999D01*
X219999Y313200D01*
Y318198D01*
X221998Y312200D02*
X223997D01*
X222998D01*
Y318198D01*
X221998Y317198D01*
X226996D02*
X227996Y318198D01*
X229995D01*
X230995Y317198D01*
Y316199D01*
X229995Y315199D01*
X228996D01*
X229995D01*
X230995Y314199D01*
Y313200D01*
X229995Y312200D01*
X227996D01*
X226996Y313200D01*
X211001Y226999D02*
X210002Y227999D01*
X208002D01*
X207003Y226999D01*
Y223001D01*
X208002Y222001D01*
X210002D01*
X211001Y223001D01*
X216999Y222001D02*
X213001D01*
X216999Y226000D01*
Y226999D01*
X216000Y227999D01*
X214000D01*
X213001Y226999D01*
X218999Y227999D02*
X222997D01*
Y226999D01*
X218999Y223001D01*
Y222001D01*
X291001Y216999D02*
X290002Y217999D01*
X288002D01*
X287003Y216999D01*
Y213001D01*
X288002Y212001D01*
X290002D01*
X291001Y213001D01*
X296999Y212001D02*
X293001D01*
X296999Y216000D01*
Y216999D01*
X296000Y217999D01*
X294000D01*
X293001Y216999D01*
X302997Y217999D02*
X300998Y216999D01*
X298999Y215000D01*
Y213001D01*
X299998Y212001D01*
X301998D01*
X302997Y213001D01*
Y214000D01*
X301998Y215000D01*
X298999D01*
X241001Y216999D02*
X240002Y217999D01*
X238002D01*
X237003Y216999D01*
Y213001D01*
X238002Y212001D01*
X240002D01*
X241001Y213001D01*
X246999Y212001D02*
X243001D01*
X246999Y216000D01*
Y216999D01*
X246000Y217999D01*
X244000D01*
X243001Y216999D01*
X252997Y217999D02*
X248999D01*
Y215000D01*
X250998Y216000D01*
X251998D01*
X252997Y215000D01*
Y213001D01*
X251998Y212001D01*
X249998D01*
X248999Y213001D01*
X391001Y206999D02*
X390002Y207999D01*
X388002D01*
X387003Y206999D01*
Y203001D01*
X388002Y202001D01*
X390002D01*
X391001Y203001D01*
X396999Y202001D02*
X393001D01*
X396999Y206000D01*
Y206999D01*
X396000Y207999D01*
X394000D01*
X393001Y206999D01*
X401998Y202001D02*
Y207999D01*
X398999Y205000D01*
X402997D01*
X341001Y206999D02*
X340002Y207999D01*
X338002D01*
X337003Y206999D01*
Y203001D01*
X338002Y202001D01*
X340002D01*
X341001Y203001D01*
X346999Y202001D02*
X343001D01*
X346999Y206000D01*
Y206999D01*
X346000Y207999D01*
X344000D01*
X343001Y206999D01*
X348999D02*
X349998Y207999D01*
X351998D01*
X352997Y206999D01*
Y206000D01*
X351998Y205000D01*
X350998D01*
X351998D01*
X352997Y204000D01*
Y203001D01*
X351998Y202001D01*
X349998D01*
X348999Y203001D01*
X441001Y206999D02*
X440002Y207999D01*
X438002D01*
X437003Y206999D01*
Y203001D01*
X438002Y202001D01*
X440002D01*
X441001Y203001D01*
X446999Y202001D02*
X443001D01*
X446999Y206000D01*
Y206999D01*
X446000Y207999D01*
X444000D01*
X443001Y206999D01*
X452997Y202001D02*
X448999D01*
X452997Y206000D01*
Y206999D01*
X451998Y207999D01*
X449998D01*
X448999Y206999D01*
X541001Y326999D02*
X540002Y327999D01*
X538002D01*
X537003Y326999D01*
Y323001D01*
X538002Y322001D01*
X540002D01*
X541001Y323001D01*
X546999Y322001D02*
X543001D01*
X546999Y326000D01*
Y326999D01*
X546000Y327999D01*
X544000D01*
X543001Y326999D01*
X548999D02*
X549998Y327999D01*
X551998D01*
X552997Y326999D01*
Y323001D01*
X551998Y322001D01*
X549998D01*
X548999Y323001D01*
Y326999D01*
X211501Y346999D02*
X210502Y347999D01*
X208502D01*
X207502Y346999D01*
Y343001D01*
X208502Y342001D01*
X210502D01*
X211501Y343001D01*
X213500Y342001D02*
X215500D01*
X214500D01*
Y347999D01*
X213500Y346999D01*
X218499Y343001D02*
X219498Y342001D01*
X221498D01*
X222498Y343001D01*
Y346999D01*
X221498Y347999D01*
X219498D01*
X218499Y346999D01*
Y346000D01*
X219498Y345000D01*
X222498D01*
X491501Y326999D02*
X490501Y327999D01*
X488502D01*
X487502Y326999D01*
Y323001D01*
X488502Y322001D01*
X490501D01*
X491501Y323001D01*
X493501Y322001D02*
X495500D01*
X494500D01*
Y327999D01*
X493501Y326999D01*
X498499D02*
X499499Y327999D01*
X501498D01*
X502498Y326999D01*
Y326000D01*
X501498Y325000D01*
X502498Y324000D01*
Y323001D01*
X501498Y322001D01*
X499499D01*
X498499Y323001D01*
Y324000D01*
X499499Y325000D01*
X498499Y326000D01*
Y326999D01*
X499499Y325000D02*
X501498D01*
X441501Y326999D02*
X440501Y327999D01*
X438502D01*
X437502Y326999D01*
Y323001D01*
X438502Y322001D01*
X440501D01*
X441501Y323001D01*
X443501Y322001D02*
X445500D01*
X444500D01*
Y327999D01*
X443501Y326999D01*
X448499Y327999D02*
X452498D01*
Y326999D01*
X448499Y323001D01*
Y322001D01*
X391501Y326999D02*
X390501Y327999D01*
X388502D01*
X387502Y326999D01*
Y323001D01*
X388502Y322001D01*
X390501D01*
X391501Y323001D01*
X393500Y322001D02*
X395500D01*
X394500D01*
Y327999D01*
X393500Y326999D01*
X402498Y327999D02*
X400498Y326999D01*
X398499Y325000D01*
Y323001D01*
X399499Y322001D01*
X401498D01*
X402498Y323001D01*
Y324000D01*
X401498Y325000D01*
X398499D01*
X341501Y326999D02*
X340501Y327999D01*
X338502D01*
X337502Y326999D01*
Y323001D01*
X338502Y322001D01*
X340501D01*
X341501Y323001D01*
X343500Y322001D02*
X345500D01*
X344500D01*
Y327999D01*
X343500Y326999D01*
X352498Y327999D02*
X348499D01*
Y325000D01*
X350498Y326000D01*
X351498D01*
X352498Y325000D01*
Y323001D01*
X351498Y322001D01*
X349499D01*
X348499Y323001D01*
X291501Y326999D02*
X290501Y327999D01*
X288502D01*
X287502Y326999D01*
Y323001D01*
X288502Y322001D01*
X290501D01*
X291501Y323001D01*
X293500Y322001D02*
X295500D01*
X294500D01*
Y327999D01*
X293500Y326999D01*
X301498Y322001D02*
Y327999D01*
X298499Y325000D01*
X302498D01*
X241501Y326999D02*
X240501Y327999D01*
X238502D01*
X237502Y326999D01*
Y323001D01*
X238502Y322001D01*
X240501D01*
X241501Y323001D01*
X243500Y322001D02*
X245500D01*
X244500D01*
Y327999D01*
X243500Y326999D01*
X248499D02*
X249499Y327999D01*
X251498D01*
X252498Y326999D01*
Y326000D01*
X251498Y325000D01*
X250498D01*
X251498D01*
X252498Y324000D01*
Y323001D01*
X251498Y322001D01*
X249499D01*
X248499Y323001D01*
X542003Y341999D02*
X546001D01*
X544002D01*
Y336001D01*
X548001D02*
Y341999D01*
X551000D01*
X551999Y340999D01*
Y339000D01*
X551000Y338000D01*
X548001D01*
X557997Y336001D02*
X553999D01*
X557997Y340000D01*
Y340999D01*
X556998Y341999D01*
X554998D01*
X553999Y340999D01*
X559858Y352999D02*
Y349000D01*
X561858Y347001D01*
X563857Y349000D01*
Y352999D01*
X569855Y351999D02*
X568855Y352999D01*
X566856D01*
X565856Y351999D01*
Y348001D01*
X566856Y347001D01*
X568855D01*
X569855Y348001D01*
X575853Y351999D02*
X574853Y352999D01*
X572854D01*
X571854Y351999D01*
Y348001D01*
X572854Y347001D01*
X574853D01*
X575853Y348001D01*
X513002Y133999D02*
X517001D01*
X515002D01*
Y128001D01*
X519000D02*
Y133999D01*
X521999D01*
X522999Y132999D01*
Y131000D01*
X521999Y130000D01*
X519000D01*
X524998Y128001D02*
X526998D01*
X525998D01*
Y133999D01*
X524998Y132999D01*
X535739Y119527D02*
X534739Y120527D01*
X532740D01*
X531740Y119527D01*
Y115529D01*
X532740Y114529D01*
X534739D01*
X535739Y115529D01*
Y117528D01*
X533740D01*
X537738Y114529D02*
Y120527D01*
X541737Y114529D01*
Y120527D01*
X543736D02*
Y114529D01*
X546735D01*
X547735Y115529D01*
Y119527D01*
X546735Y120527D01*
X543736D01*
X132999Y105002D02*
X127001D01*
Y108001D01*
X128001Y109000D01*
X130000D01*
X131000Y108001D01*
Y105002D01*
X128001Y111000D02*
X127001Y111999D01*
Y113999D01*
X128001Y114998D01*
X129000D01*
X130000Y113999D01*
Y112999D01*
Y113999D01*
X131000Y114998D01*
X131999D01*
X132999Y113999D01*
Y111999D01*
X131999Y111000D01*
X122999Y105002D02*
X117001D01*
Y108001D01*
X118001Y109000D01*
X120000D01*
X121000Y108001D01*
Y105002D01*
X122999Y114998D02*
Y111000D01*
X119000Y114998D01*
X118001D01*
X117001Y113999D01*
Y111999D01*
X118001Y111000D01*
X144799Y143198D02*
X143799Y144198D01*
X141800D01*
X140800Y143198D01*
Y139200D01*
X141800Y138200D01*
X143799D01*
X144799Y139200D01*
X146798D02*
X147798Y138200D01*
X149797D01*
X150797Y139200D01*
Y143198D01*
X149797Y144198D01*
X147798D01*
X146798Y143198D01*
Y142199D01*
X147798Y141199D01*
X150797D01*
X152796Y139200D02*
X153796Y138200D01*
X155795D01*
X156795Y139200D01*
Y143198D01*
X155795Y144198D01*
X153796D01*
X152796Y143198D01*
Y142199D01*
X153796Y141199D01*
X156795D01*
X112999Y106001D02*
X107001D01*
Y109000D01*
X108001Y110000D01*
X110000D01*
X111000Y109000D01*
Y106001D01*
X112999Y111999D02*
Y113999D01*
Y112999D01*
X107001D01*
X108001Y111999D01*
D15*
X145090Y115095D02*
Y111160D01*
X147057Y113128D02*
X143122D01*
M02*
