G04*
G04 #@! TF.GenerationSoftware,Altium Limited,Altium Designer,21.9.1 (22)*
G04*
G04 Layer_Color=65535*
%FSLAX25Y25*%
%MOIN*%
G70*
G04*
G04 #@! TF.SameCoordinates,535E74F5-FE81-4067-B89D-05631C4F16FF*
G04*
G04*
G04 #@! TF.FilePolarity,Positive*
G04*
G01*
G75*
%ADD10C,0.00787*%
%ADD11C,0.00984*%
%ADD12C,0.00500*%
%ADD13C,0.01000*%
%ADD14C,0.00591*%
D10*
X496240Y270000D02*
G03*
X496240Y270000I-6240J0D01*
G01*
X546240D02*
G03*
X546240Y270000I-6240J0D01*
G01*
X446240D02*
G03*
X446240Y270000I-6240J0D01*
G01*
X216240Y120000D02*
G03*
X216240Y120000I-6240J0D01*
G01*
X246240D02*
G03*
X246240Y120000I-6240J0D01*
G01*
X366240Y150000D02*
G03*
X366240Y150000I-6240J0D01*
G01*
X266240D02*
G03*
X266240Y150000I-6240J0D01*
G01*
X166240D02*
G03*
X166240Y150000I-6240J0D01*
G01*
X457500Y145787D02*
G03*
X452500Y145787I-2500J0D01*
G01*
X159843Y125000D02*
G03*
X159843Y125000I-9843J0D01*
G01*
X197500Y145787D02*
G03*
X192500Y145787I-2500J0D01*
G01*
X557500D02*
G03*
X552500Y145787I-2500J0D01*
G01*
X507500D02*
G03*
X502500Y145787I-2500J0D01*
G01*
X351220Y272500D02*
G03*
X351220Y277500I0J2500D01*
G01*
X397500Y145787D02*
G03*
X392500Y145787I-2500J0D01*
G01*
X351220Y322500D02*
G03*
X351220Y327500I0J2500D01*
G01*
X251220Y272500D02*
G03*
X251220Y277500I0J2500D01*
G01*
X297500Y145787D02*
G03*
X292500Y145787I-2500J0D01*
G01*
X251220Y322500D02*
G03*
X251220Y327500I0J2500D01*
G01*
X151221Y272500D02*
G03*
X151221Y277500I0J2500D01*
G01*
Y322500D02*
G03*
X151221Y327500I0J2500D01*
G01*
X102500Y115000D02*
X105000Y117500D01*
X457500Y145787D02*
X465433D01*
X444567D02*
X452500D01*
X444567Y244213D02*
X465433D01*
Y145787D02*
Y244213D01*
X444567Y145787D02*
Y244213D01*
X350118Y277205D02*
Y292953D01*
X339882Y277205D02*
Y292953D01*
X349035D02*
X350118D01*
X349035Y277205D02*
X350118D01*
X339882Y292953D02*
X340965D01*
X339882Y277205D02*
X340965D01*
X350118Y327205D02*
Y342953D01*
X339882Y327205D02*
Y342953D01*
X349035D02*
X350118D01*
X349035Y327205D02*
X350118D01*
X339882Y342953D02*
X340965D01*
X339882Y327205D02*
X340965D01*
X250118D02*
Y342953D01*
X239882Y327205D02*
Y342953D01*
X249035D02*
X250118D01*
X249035Y327205D02*
X250118D01*
X239882Y342953D02*
X240965D01*
X239882Y327205D02*
X240965D01*
X250118Y277205D02*
Y292953D01*
X239882Y277205D02*
Y292953D01*
X249035D02*
X250118D01*
X249035Y277205D02*
X250118D01*
X239882Y292953D02*
X240965D01*
X239882Y277205D02*
X240965D01*
X150118D02*
Y292953D01*
X139882Y277205D02*
Y292953D01*
X149035D02*
X150118D01*
X149035Y277205D02*
X150118D01*
X139882Y292953D02*
X140965D01*
X139882Y277205D02*
X140965D01*
X150118Y327205D02*
Y342953D01*
X139882Y327205D02*
Y342953D01*
X149035D02*
X150118D01*
X149035Y327205D02*
X150118D01*
X139882Y342953D02*
X140965D01*
X139882Y327205D02*
X140965D01*
X177047Y140118D02*
X192795D01*
X177047Y129882D02*
X192795D01*
X177047Y139035D02*
Y140118D01*
X192795Y139035D02*
Y140118D01*
X177047Y129882D02*
Y130965D01*
X192795Y129882D02*
Y130965D01*
X277047Y140118D02*
X292795D01*
X277047Y129882D02*
X292795D01*
X277047Y139035D02*
Y140118D01*
X292795Y139035D02*
Y140118D01*
X277047Y129882D02*
Y130965D01*
X292795Y129882D02*
Y130965D01*
X377047Y140118D02*
X392795D01*
X377047Y129882D02*
X392795D01*
X377047Y139035D02*
Y140118D01*
X392795Y139035D02*
Y140118D01*
X377047Y129882D02*
Y130965D01*
X392795Y129882D02*
Y130965D01*
X437047Y140118D02*
X452795D01*
X437047Y129882D02*
X452795D01*
X437047Y139035D02*
Y140118D01*
X452795Y139035D02*
Y140118D01*
X437047Y129882D02*
Y130965D01*
X452795Y129882D02*
Y130965D01*
X487047Y140118D02*
X502795D01*
X487047Y129882D02*
X502795D01*
X487047Y139035D02*
Y140118D01*
X502795Y139035D02*
Y140118D01*
X487047Y129882D02*
Y130965D01*
X502795Y129882D02*
Y130965D01*
X537047Y140118D02*
X552795D01*
X537047Y129882D02*
X552795D01*
X537047Y139035D02*
Y140118D01*
X552795Y139035D02*
Y140118D01*
X537047Y129882D02*
Y130965D01*
X552795Y129882D02*
Y130965D01*
X197500Y145787D02*
X205433D01*
X184567D02*
X192500D01*
X184567Y244213D02*
X205433D01*
Y145787D02*
Y244213D01*
X184567Y145787D02*
Y244213D01*
X544567Y145787D02*
Y244213D01*
X565433Y145787D02*
Y244213D01*
X544567D02*
X565433D01*
X544567Y145787D02*
X552500D01*
X557500D02*
X565433D01*
X494567D02*
Y244213D01*
X515433Y145787D02*
Y244213D01*
X494567D02*
X515433D01*
X494567Y145787D02*
X502500D01*
X507500D02*
X515433D01*
X351220Y264567D02*
Y272500D01*
Y277500D02*
Y285433D01*
X428780Y264567D02*
Y285433D01*
X351220Y264567D02*
X428780D01*
X351220Y285433D02*
X428780D01*
X384567Y145787D02*
Y244213D01*
X405433Y145787D02*
Y244213D01*
X384567D02*
X405433D01*
X384567Y145787D02*
X392500D01*
X397500D02*
X405433D01*
X351220Y314567D02*
Y322500D01*
Y327500D02*
Y335433D01*
X428780Y314567D02*
Y335433D01*
X351220Y314567D02*
X428780D01*
X351220Y335433D02*
X428780D01*
X251220Y264567D02*
Y272500D01*
Y277500D02*
Y285433D01*
X328780Y264567D02*
Y285433D01*
X251220Y264567D02*
X328780D01*
X251220Y285433D02*
X328780D01*
X284567Y145787D02*
Y244213D01*
X305433Y145787D02*
Y244213D01*
X284567D02*
X305433D01*
X284567Y145787D02*
X292500D01*
X297500D02*
X305433D01*
X251220Y314567D02*
Y322500D01*
Y327500D02*
Y335433D01*
X328780Y314567D02*
Y335433D01*
X251220Y314567D02*
X328780D01*
X251220Y335433D02*
X328780D01*
X151221Y264567D02*
Y272500D01*
Y277500D02*
Y285433D01*
X228780Y264567D02*
Y285433D01*
X151221Y264567D02*
X228780D01*
X151221Y285433D02*
X228780D01*
X151221Y314567D02*
Y322500D01*
Y327500D02*
Y335433D01*
X228780Y314567D02*
Y335433D01*
X151221Y314567D02*
X228780D01*
X151221Y335433D02*
X228780D01*
X105000Y122500D02*
Y335000D01*
Y115000D02*
Y122500D01*
X102500Y335000D02*
X105000D01*
X102500Y115000D02*
X105000D01*
D11*
X345492Y294626D02*
G03*
X345492Y294626I-492J0D01*
G01*
Y344626D02*
G03*
X345492Y344626I-492J0D01*
G01*
X245492D02*
G03*
X245492Y344626I-492J0D01*
G01*
Y294626D02*
G03*
X245492Y294626I-492J0D01*
G01*
X145492D02*
G03*
X145492Y294626I-492J0D01*
G01*
Y344626D02*
G03*
X145492Y344626I-492J0D01*
G01*
X175866Y135000D02*
G03*
X175866Y135000I-492J0D01*
G01*
X275866D02*
G03*
X275866Y135000I-492J0D01*
G01*
X375866D02*
G03*
X375866Y135000I-492J0D01*
G01*
X435866D02*
G03*
X435866Y135000I-492J0D01*
G01*
X485866D02*
G03*
X485866Y135000I-492J0D01*
G01*
X535866D02*
G03*
X535866Y135000I-492J0D01*
G01*
D12*
X105000Y360000D02*
X600000Y360000D01*
X135000Y110000D02*
X600000Y110000D01*
D13*
X441000Y341792D02*
Y345791D01*
X442999Y347790D01*
X444999Y345791D01*
Y341792D01*
Y344791D01*
X441000D01*
X446998Y347790D02*
Y341792D01*
X450997D01*
X452996Y347790D02*
Y342792D01*
X453996Y341792D01*
X455995D01*
X456995Y342792D01*
Y347790D01*
X464992D02*
Y341792D01*
X468991D01*
X471990D02*
X473989D01*
X474989Y342792D01*
Y344791D01*
X473989Y345791D01*
X471990D01*
X470990Y344791D01*
Y342792D01*
X471990Y341792D01*
X478988Y339793D02*
X479987D01*
X480987Y340793D01*
Y345791D01*
X477988D01*
X476988Y344791D01*
Y342792D01*
X477988Y341792D01*
X480987D01*
X482986D02*
X484986D01*
X483986D01*
Y345791D01*
X482986D01*
X491984D02*
X488984D01*
X487985Y344791D01*
Y342792D01*
X488984Y341792D01*
X491984D01*
X441000Y330195D02*
Y336193D01*
X443999D01*
X444999Y335194D01*
Y333194D01*
X443999Y332195D01*
X441000D01*
X442999D02*
X444999Y330195D01*
X449997D02*
X447998D01*
X446998Y331195D01*
Y333194D01*
X447998Y334194D01*
X449997D01*
X450997Y333194D01*
Y332195D01*
X446998D01*
X452996Y334194D02*
X454995Y330195D01*
X456995Y334194D01*
X464992Y330195D02*
Y334194D01*
X466992Y336193D01*
X468991Y334194D01*
Y330195D01*
Y333194D01*
X464992D01*
X441000Y321597D02*
X442000Y320598D01*
X443999D01*
X444999Y321597D01*
Y325596D01*
X443999Y326596D01*
X442000D01*
X441000Y325596D01*
Y324596D01*
X442000Y323597D01*
X444999D01*
X446998Y320598D02*
X450997Y324596D01*
X452996Y320598D02*
X454995D01*
X453996D01*
Y326596D01*
X452996Y325596D01*
X457995D02*
X458994Y326596D01*
X460993D01*
X461993Y325596D01*
Y324596D01*
X460993Y323597D01*
X461993Y322597D01*
Y321597D01*
X460993Y320598D01*
X458994D01*
X457995Y321597D01*
Y322597D01*
X458994Y323597D01*
X457995Y324596D01*
Y325596D01*
X458994Y323597D02*
X460993D01*
X463993Y320598D02*
X467991Y324596D01*
X473989Y320598D02*
X469991D01*
X473989Y324596D01*
Y325596D01*
X472990Y326596D01*
X470990D01*
X469991Y325596D01*
X475989D02*
X476988Y326596D01*
X478988D01*
X479987Y325596D01*
Y321597D01*
X478988Y320598D01*
X476988D01*
X475989Y321597D01*
Y325596D01*
X485986Y320598D02*
X481987D01*
X485986Y324596D01*
Y325596D01*
X484986Y326596D01*
X482986D01*
X481987Y325596D01*
X491984Y320598D02*
X487985D01*
X491984Y324596D01*
Y325596D01*
X490984Y326596D01*
X488984D01*
X487985Y325596D01*
X444999Y316998D02*
X441000D01*
Y311000D01*
X444999D01*
X441000Y313999D02*
X442999D01*
X446998Y311000D02*
Y312000D01*
X447998D01*
Y311000D01*
X446998D01*
X461993Y315998D02*
X460993Y316998D01*
X458994D01*
X457995Y315998D01*
Y314999D01*
X458994Y313999D01*
X460993D01*
X461993Y312999D01*
Y312000D01*
X460993Y311000D01*
X458994D01*
X457995Y312000D01*
X463993Y316998D02*
X465992D01*
X464992D01*
Y311000D01*
X463993D01*
X465992D01*
X468991D02*
Y316998D01*
X470990Y314999D01*
X472990Y316998D01*
Y311000D01*
X478988Y315998D02*
X477988Y316998D01*
X475989D01*
X474989Y315998D01*
Y314999D01*
X475989Y313999D01*
X477988D01*
X478988Y312999D01*
Y312000D01*
X477988Y311000D01*
X475989D01*
X474989Y312000D01*
X482003Y283999D02*
X486001D01*
X484002D01*
Y278001D01*
X488001D02*
Y283999D01*
X491000D01*
X491999Y282999D01*
Y281000D01*
X491000Y280000D01*
X488001D01*
X493999Y282999D02*
X494998Y283999D01*
X496998D01*
X497997Y282999D01*
Y282000D01*
X496998Y281000D01*
X497997Y280000D01*
Y279001D01*
X496998Y278001D01*
X494998D01*
X493999Y279001D01*
Y280000D01*
X494998Y281000D01*
X493999Y282000D01*
Y282999D01*
X494998Y281000D02*
X496998D01*
X499499Y264438D02*
X497500D01*
X496500Y263439D01*
Y259440D01*
X497500Y258440D01*
X499499D01*
X500499Y259440D01*
Y263439D01*
X499499Y264438D01*
X502498Y258440D02*
Y264438D01*
X506497Y258440D01*
Y264438D01*
X512495D02*
X508496D01*
Y258440D01*
X512495D01*
X508496Y261439D02*
X510496D01*
X515494Y258440D02*
Y264438D01*
X517493D02*
Y258440D01*
X514494Y262439D02*
X517493D01*
X518493D01*
X514494Y260439D02*
X518493D01*
X432003Y283999D02*
X436001D01*
X434002D01*
Y278001D01*
X438001D02*
Y283999D01*
X441000D01*
X441999Y282999D01*
Y281000D01*
X441000Y280000D01*
X438001D01*
X443999Y283999D02*
X447997D01*
Y282999D01*
X443999Y279001D01*
Y278001D01*
X446500Y264438D02*
X450499D01*
Y263439D01*
X446500Y259440D01*
Y258440D01*
X450499D01*
X456497Y264438D02*
X452498D01*
Y258440D01*
X456497D01*
X452498Y261439D02*
X454497D01*
X458496Y258440D02*
Y264438D01*
X461495D01*
X462495Y263439D01*
Y261439D01*
X461495Y260439D01*
X458496D01*
X460496D02*
X462495Y258440D01*
X467493Y264438D02*
X465494D01*
X464494Y263439D01*
Y259440D01*
X465494Y258440D01*
X467493D01*
X468493Y259440D01*
Y263439D01*
X467493Y264438D01*
X474491Y263439D02*
X473491Y264438D01*
X471492D01*
X470492Y263439D01*
Y262439D01*
X471492Y261439D01*
X473491D01*
X474491Y260439D01*
Y259440D01*
X473491Y258440D01*
X471492D01*
X470492Y259440D01*
X477490Y258440D02*
Y264438D01*
X479489D02*
Y258440D01*
X476490Y262439D02*
X479489D01*
X480489D01*
X476490Y260439D02*
X480489D01*
X532003Y283999D02*
X536001D01*
X534002D01*
Y278001D01*
X538001D02*
Y283999D01*
X541000D01*
X541999Y282999D01*
Y281000D01*
X541000Y280000D01*
X538001D01*
X547997Y283999D02*
X545998Y282999D01*
X543999Y281000D01*
Y279001D01*
X544998Y278001D01*
X546998D01*
X547997Y279001D01*
Y280000D01*
X546998Y281000D01*
X543999D01*
X549499Y264438D02*
X547500D01*
X546500Y263439D01*
Y259440D01*
X547500Y258440D01*
X549499D01*
X550499Y259440D01*
Y263439D01*
X549499Y264438D01*
X552498Y258440D02*
Y264438D01*
X556497Y258440D01*
Y264438D01*
X562495D02*
X558496D01*
Y258440D01*
X562495D01*
X558496Y261439D02*
X560496D01*
X568493Y263439D02*
X567493Y264438D01*
X565494D01*
X564494Y263439D01*
Y262439D01*
X565494Y261439D01*
X567493D01*
X568493Y260439D01*
Y259440D01*
X567493Y258440D01*
X565494D01*
X564494Y259440D01*
X571492Y258440D02*
Y264438D01*
X573491D02*
Y258440D01*
X570492Y262439D02*
X573491D01*
X574491D01*
X570492Y260439D02*
X574491D01*
X352003Y171999D02*
X356001D01*
X354002D01*
Y166001D01*
X358001D02*
Y171999D01*
X361000D01*
X361999Y170999D01*
Y169000D01*
X361000Y168000D01*
X358001D01*
X367997Y171999D02*
X363999D01*
Y169000D01*
X365998Y170000D01*
X366998D01*
X367997Y169000D01*
Y167001D01*
X366998Y166001D01*
X364998D01*
X363999Y167001D01*
X349004Y163999D02*
X353002Y158001D01*
Y163999D02*
X349004Y158001D01*
X358001Y163999D02*
X356001D01*
X355002Y162999D01*
Y159001D01*
X356001Y158001D01*
X358001D01*
X359000Y159001D01*
Y162999D01*
X358001Y163999D01*
X361000Y158001D02*
Y163999D01*
X363999D01*
X364998Y162999D01*
Y161000D01*
X363999Y160000D01*
X361000D01*
X362999D02*
X364998Y158001D01*
X367997D02*
Y163999D01*
X369997D02*
Y158001D01*
X366998Y162000D02*
X369997D01*
X370996D01*
X366998Y160000D02*
X370996D01*
X252003Y171999D02*
X256001D01*
X254002D01*
Y166001D01*
X258001D02*
Y171999D01*
X261000D01*
X261999Y170999D01*
Y169000D01*
X261000Y168000D01*
X258001D01*
X266998Y166001D02*
Y171999D01*
X263999Y169000D01*
X267997D01*
X255002Y163999D02*
X253002D01*
X252003Y162999D01*
Y159001D01*
X253002Y158001D01*
X255002D01*
X256001Y159001D01*
Y162999D01*
X255002Y163999D01*
X258001Y158001D02*
Y163999D01*
X261000D01*
X261999Y162999D01*
Y161000D01*
X261000Y160000D01*
X258001D01*
X260000D02*
X261999Y158001D01*
X264998D02*
Y163999D01*
X266998D02*
Y158001D01*
X263999Y162000D02*
X266998D01*
X267997D01*
X263999Y160000D02*
X267997D01*
X152003Y171999D02*
X156001D01*
X154002D01*
Y166001D01*
X158001D02*
Y171999D01*
X161000D01*
X161999Y170999D01*
Y169000D01*
X161000Y168000D01*
X158001D01*
X163999Y170999D02*
X164998Y171999D01*
X166998D01*
X167997Y170999D01*
Y170000D01*
X166998Y169000D01*
X165998D01*
X166998D01*
X167997Y168000D01*
Y167001D01*
X166998Y166001D01*
X164998D01*
X163999Y167001D01*
X149004Y158001D02*
Y162000D01*
X151003Y163999D01*
X153002Y162000D01*
Y158001D01*
Y161000D01*
X149004D01*
X155002Y158001D02*
Y163999D01*
X159000Y158001D01*
Y163999D01*
X161000D02*
Y158001D01*
X163999D01*
X164998Y159001D01*
Y162999D01*
X163999Y163999D01*
X161000D01*
X167997Y158001D02*
Y163999D01*
X169997D02*
Y158001D01*
X166998Y162000D02*
X169997D01*
X170996D01*
X166998Y160000D02*
X170996D01*
X535800Y255498D02*
Y250500D01*
X536800Y249500D01*
X538799D01*
X539799Y250500D01*
Y255498D01*
X541798Y249500D02*
X543797D01*
X542798D01*
Y255498D01*
X541798Y254498D01*
X550795Y249500D02*
X546796D01*
X550795Y253499D01*
Y254498D01*
X549795Y255498D01*
X547796D01*
X546796Y254498D01*
X485800Y255498D02*
Y250500D01*
X486800Y249500D01*
X488799D01*
X489799Y250500D01*
Y255498D01*
X491798Y249500D02*
X493797D01*
X492798D01*
Y255498D01*
X491798Y254498D01*
X496796Y249500D02*
X498796D01*
X497796D01*
Y255498D01*
X496796Y254498D01*
X435800Y255498D02*
Y250500D01*
X436800Y249500D01*
X438799D01*
X439799Y250500D01*
Y255498D01*
X441798Y249500D02*
X443797D01*
X442798D01*
Y255498D01*
X441798Y254498D01*
X446796D02*
X447796Y255498D01*
X449795D01*
X450795Y254498D01*
Y250500D01*
X449795Y249500D01*
X447796D01*
X446796Y250500D01*
Y254498D01*
X541501Y126999D02*
X540501Y127999D01*
X538502D01*
X537502Y126999D01*
Y123001D01*
X538502Y122001D01*
X540501D01*
X541501Y123001D01*
X543501Y122001D02*
X545500D01*
X544500D01*
Y127999D01*
X543501Y126999D01*
X552498Y122001D02*
X548499D01*
X552498Y126000D01*
Y126999D01*
X551498Y127999D01*
X549499D01*
X548499Y126999D01*
X492501D02*
X491501Y127999D01*
X489502D01*
X488502Y126999D01*
Y123001D01*
X489502Y122001D01*
X491501D01*
X492501Y123001D01*
X494500Y122001D02*
X496499D01*
X495500D01*
Y127999D01*
X494500Y126999D01*
X499499Y122001D02*
X501498D01*
X500498D01*
Y127999D01*
X499499Y126999D01*
X441501D02*
X440501Y127999D01*
X438502D01*
X437502Y126999D01*
Y123001D01*
X438502Y122001D01*
X440501D01*
X441501Y123001D01*
X443501Y122001D02*
X445500D01*
X444500D01*
Y127999D01*
X443501Y126999D01*
X448499D02*
X449499Y127999D01*
X451498D01*
X452498Y126999D01*
Y123001D01*
X451498Y122001D01*
X449499D01*
X448499Y123001D01*
Y126999D01*
X375800Y255498D02*
Y250500D01*
X376800Y249500D01*
X378799D01*
X379799Y250500D01*
Y255498D01*
X381798Y250500D02*
X382798Y249500D01*
X384797D01*
X385797Y250500D01*
Y254498D01*
X384797Y255498D01*
X382798D01*
X381798Y254498D01*
Y253499D01*
X382798Y252499D01*
X385797D01*
X351800Y354198D02*
Y349200D01*
X352800Y348200D01*
X354799D01*
X355799Y349200D01*
Y354198D01*
X357798Y353198D02*
X358798Y354198D01*
X360797D01*
X361797Y353198D01*
Y352199D01*
X360797Y351199D01*
X361797Y350199D01*
Y349200D01*
X360797Y348200D01*
X358798D01*
X357798Y349200D01*
Y350199D01*
X358798Y351199D01*
X357798Y352199D01*
Y353198D01*
X358798Y351199D02*
X360797D01*
X351800Y304198D02*
Y299200D01*
X352800Y298200D01*
X354799D01*
X355799Y299200D01*
Y304198D01*
X357798D02*
X361797D01*
Y303198D01*
X357798Y299200D01*
Y298200D01*
X384000Y126999D02*
X383001Y127999D01*
X381001D01*
X380002Y126999D01*
Y123001D01*
X381001Y122001D01*
X383001D01*
X384000Y123001D01*
X386000D02*
X386999Y122001D01*
X388999D01*
X389998Y123001D01*
Y126999D01*
X388999Y127999D01*
X386999D01*
X386000Y126999D01*
Y126000D01*
X386999Y125000D01*
X389998D01*
X338001Y349000D02*
X337001Y348001D01*
Y346001D01*
X338001Y345002D01*
X341999D01*
X342999Y346001D01*
Y348001D01*
X341999Y349000D01*
X338001Y351000D02*
X337001Y351999D01*
Y353999D01*
X338001Y354998D01*
X339000D01*
X340000Y353999D01*
X341000Y354998D01*
X341999D01*
X342999Y353999D01*
Y351999D01*
X341999Y351000D01*
X341000D01*
X340000Y351999D01*
X339000Y351000D01*
X338001D01*
X340000Y351999D02*
Y353999D01*
X338001Y299000D02*
X337001Y298001D01*
Y296001D01*
X338001Y295002D01*
X341999D01*
X342999Y296001D01*
Y298001D01*
X341999Y299000D01*
X337001Y301000D02*
Y304998D01*
X338001D01*
X341999Y301000D01*
X342999D01*
X275800Y255498D02*
Y250500D01*
X276800Y249500D01*
X278799D01*
X279799Y250500D01*
Y255498D01*
X285797D02*
X283797Y254498D01*
X281798Y252499D01*
Y250500D01*
X282798Y249500D01*
X284797D01*
X285797Y250500D01*
Y251499D01*
X284797Y252499D01*
X281798D01*
X251800Y354198D02*
Y349200D01*
X252800Y348200D01*
X254799D01*
X255799Y349200D01*
Y354198D01*
X261797D02*
X257798D01*
Y351199D01*
X259797Y352199D01*
X260797D01*
X261797Y351199D01*
Y349200D01*
X260797Y348200D01*
X258798D01*
X257798Y349200D01*
X251800Y304198D02*
Y299200D01*
X252800Y298200D01*
X254799D01*
X255799Y299200D01*
Y304198D01*
X260797Y298200D02*
Y304198D01*
X257798Y301199D01*
X261797D01*
X175800Y255498D02*
Y250500D01*
X176800Y249500D01*
X178799D01*
X179799Y250500D01*
Y255498D01*
X181798Y254498D02*
X182798Y255498D01*
X184797D01*
X185797Y254498D01*
Y253499D01*
X184797Y252499D01*
X183797D01*
X184797D01*
X185797Y251499D01*
Y250500D01*
X184797Y249500D01*
X182798D01*
X181798Y250500D01*
X151800Y354198D02*
Y349200D01*
X152800Y348200D01*
X154799D01*
X155799Y349200D01*
Y354198D01*
X161797Y348200D02*
X157798D01*
X161797Y352199D01*
Y353198D01*
X160797Y354198D01*
X158798D01*
X157798Y353198D01*
X151800Y304198D02*
Y299200D01*
X152800Y298200D01*
X154799D01*
X155799Y299200D01*
Y304198D01*
X157798Y298200D02*
X159797D01*
X158798D01*
Y304198D01*
X157798Y303198D01*
X202003Y133999D02*
X206001D01*
X204002D01*
Y128001D01*
X208001D02*
Y133999D01*
X211000D01*
X211999Y132999D01*
Y131000D01*
X211000Y130000D01*
X208001D01*
X217997Y128001D02*
X213999D01*
X217997Y132000D01*
Y132999D01*
X216998Y133999D01*
X214998D01*
X213999Y132999D01*
X185190Y119704D02*
Y115705D01*
X187189Y113706D01*
X189188Y115705D01*
Y119704D01*
X195186Y118704D02*
X194187Y119704D01*
X192187D01*
X191188Y118704D01*
Y114706D01*
X192187Y113706D01*
X194187D01*
X195186Y114706D01*
X201185Y118704D02*
X200185Y119704D01*
X198185D01*
X197186Y118704D01*
Y114706D01*
X198185Y113706D01*
X200185D01*
X201185Y114706D01*
X233002Y133999D02*
X237001D01*
X235002D01*
Y128001D01*
X239000D02*
Y133999D01*
X241999D01*
X242999Y132999D01*
Y131000D01*
X241999Y130000D01*
X239000D01*
X244998Y128001D02*
X246998D01*
X245998D01*
Y133999D01*
X244998Y132999D01*
X253392Y119635D02*
X252392Y120635D01*
X250393D01*
X249393Y119635D01*
Y115637D01*
X250393Y114637D01*
X252392D01*
X253392Y115637D01*
Y117636D01*
X251393D01*
X255391Y114637D02*
Y120635D01*
X259390Y114637D01*
Y120635D01*
X261389D02*
Y114637D01*
X264388D01*
X265388Y115637D01*
Y119635D01*
X264388Y120635D01*
X261389D01*
X132999Y105002D02*
X127001D01*
Y108001D01*
X128001Y109000D01*
X130000D01*
X131000Y108001D01*
Y105002D01*
X128001Y111000D02*
X127001Y111999D01*
Y113999D01*
X128001Y114998D01*
X129000D01*
X130000Y113999D01*
Y112999D01*
Y113999D01*
X131000Y114998D01*
X131999D01*
X132999Y113999D01*
Y111999D01*
X131999Y111000D01*
X122999Y105002D02*
X117001D01*
Y108001D01*
X118001Y109000D01*
X120000D01*
X121000Y108001D01*
Y105002D01*
X122999Y114998D02*
Y111000D01*
X119000Y114998D01*
X118001D01*
X117001Y113999D01*
Y111999D01*
X118001Y111000D01*
X141001Y141999D02*
X140002Y142999D01*
X138002D01*
X137003Y141999D01*
Y138001D01*
X138002Y137001D01*
X140002D01*
X141001Y138001D01*
X143001D02*
X144000Y137001D01*
X146000D01*
X146999Y138001D01*
Y141999D01*
X146000Y142999D01*
X144000D01*
X143001Y141999D01*
Y141000D01*
X144000Y140000D01*
X146999D01*
X148999Y138001D02*
X149998Y137001D01*
X151998D01*
X152997Y138001D01*
Y141999D01*
X151998Y142999D01*
X149998D01*
X148999Y141999D01*
Y141000D01*
X149998Y140000D01*
X152997D01*
X284000Y126999D02*
X283001Y127999D01*
X281001D01*
X280002Y126999D01*
Y123001D01*
X281001Y122001D01*
X283001D01*
X284000Y123001D01*
X289998Y127999D02*
X287999Y126999D01*
X286000Y125000D01*
Y123001D01*
X286999Y122001D01*
X288999D01*
X289998Y123001D01*
Y124000D01*
X288999Y125000D01*
X286000D01*
X238001Y349000D02*
X237001Y348001D01*
Y346001D01*
X238001Y345002D01*
X241999D01*
X242999Y346001D01*
Y348001D01*
X241999Y349000D01*
X237001Y354998D02*
Y351000D01*
X240000D01*
X239000Y352999D01*
Y353999D01*
X240000Y354998D01*
X241999D01*
X242999Y353999D01*
Y351999D01*
X241999Y351000D01*
X238001Y299000D02*
X237001Y298001D01*
Y296001D01*
X238001Y295002D01*
X241999D01*
X242999Y296001D01*
Y298001D01*
X241999Y299000D01*
X242999Y303999D02*
X237001D01*
X240000Y301000D01*
Y304998D01*
X184000Y126999D02*
X183001Y127999D01*
X181001D01*
X180002Y126999D01*
Y123001D01*
X181001Y122001D01*
X183001D01*
X184000Y123001D01*
X186000Y126999D02*
X186999Y127999D01*
X188999D01*
X189998Y126999D01*
Y126000D01*
X188999Y125000D01*
X187999D01*
X188999D01*
X189998Y124000D01*
Y123001D01*
X188999Y122001D01*
X186999D01*
X186000Y123001D01*
X138001Y349000D02*
X137001Y348001D01*
Y346001D01*
X138001Y345002D01*
X141999D01*
X142999Y346001D01*
Y348001D01*
X141999Y349000D01*
X142999Y354998D02*
Y351000D01*
X139000Y354998D01*
X138001D01*
X137001Y353999D01*
Y351999D01*
X138001Y351000D01*
Y300000D02*
X137001Y299000D01*
Y297001D01*
X138001Y296001D01*
X141999D01*
X142999Y297001D01*
Y299000D01*
X141999Y300000D01*
X142999Y301999D02*
Y303999D01*
Y302999D01*
X137001D01*
X138001Y301999D01*
X112999Y106001D02*
X107001D01*
Y109000D01*
X108001Y110000D01*
X110000D01*
X111000Y109000D01*
Y106001D01*
X112999Y111999D02*
Y113999D01*
Y112999D01*
X107001D01*
X108001Y111999D01*
D14*
X144190Y115296D02*
Y111360D01*
X146158Y113328D02*
X142222D01*
M02*
