M48
;Layer_Color=9474304
;FILE_FORMAT=2:5
INCH,LZ
;TYPE=PLATED
T1F00S00C0.01200
T2F00S00C0.02000
T3F00S00C0.02953
T4F00S00C0.03543
T5F00S00C0.06299
T6F00S00C0.10900
%
T01
X0175Y0135
X0171449Y0145
X01675Y0155
X0205Y0122
X024Y01355
X02668Y01378
X02645Y01285
X0269Y01485
X029Y0138
X02965Y0135334
X0299092Y0140847
X0301068Y0150847
X0292457Y0124155
X045Y01363
X0477Y01385
X04795Y01475
X04745Y0129232
X05Y01363
X0507408Y0133
X0509092Y0140847
X0511068Y0150847
X05045Y0125
X0482Y0159
X04745Y02485
X0477Y02578
X0479Y02685
X0481Y02785
X0511068Y0270847
X0509092Y0260847
X050706Y0250847
X05Y02563
X05045Y0240847
X045Y02563
X0444Y02005
X0424567Y0210753
X0387Y0192
X0384Y01725
X0377Y0160753
X0316Y0178
X0384Y0258
X0299092Y0260847
X0301068Y0270847
X029706Y0250847
X029Y02563
X02945Y0240847
X02645Y02485
X0267Y02585
X0269Y02685
X0271Y02785
X024Y02563
X0198Y0237951
X0195Y024
X02005Y02225
X0203Y02195
X0214567Y0210753
X0235Y01875
X0271Y01585
X0203Y0285
X02005Y0295
X0198Y0305
X017Y0265
X01445Y026
Y0309153
X0132Y0215
X01355Y0209153
X0116Y02035
Y01995
X012Y0345026
T02
X012Y012
X014
X013Y014
X02095Y0118
X022Y012
X024
X026
X028
X03
X031
X032
X034
X038
X042
X044
X046
X047
X048
X05
X05225Y0115
X054Y012
X056
X058
X059Y014
X061
X057
X055
X053
X054Y016
X056
X058
X06
X061Y018
X059
X057
X055
X053
X054Y02
X056
X058
X06
X061Y022
X059
X057
X055
X053
X051
X0515Y0225597
X049Y022
X047Y0225739
X048Y02
X049Y018
X054Y024
X056
X058
X06
X061Y026
X059
X057
X055
X053
Y03
X055
X057
X059
X061
X06Y028
X058
X056
X049Y03
X043
Y022
X042Y0225739
X041Y022
X039
X0369984Y0234261
X036Y0225739
X035Y022
X033
X043Y018
X046Y02
X031Y0225739
X027Y022
X026Y0225739
X025Y022
X023
X021Y0225739
X016Y02343
X015Y023
X014Y028
Y032
X016Y03543
X021Y0345739
X022Y032
X028
X03
X026Y0345739
X032Y032
X0369984Y0354261
X042Y0345739
X044Y032
X046
X048
X047Y0345739
X0515
X05225Y03525
X055Y034
X057
X058Y032
X06
X061Y034
X056Y032
X054
T03
X0490158Y023
X05
X045
X0440158
X04
X0390158
X034
X0330157
X029
X0280157
X024
X0230157
X019
X0180157
X0115Y0342126
X0115Y035
X0180157
X019
X0230157
X024
X0280157
X029
X0330157
X034
X0390158
X04
X0440158
X045
X0490158
X05
T04
X011Y012
Y013
Y014
Y015
X015Y0145
Y0135
Y0125
Y0155
X016
Y0145
Y0135
Y0125
X019
Y0135
Y0145
Y0155
X021
Y0145
X024
Y0155
X026
Y0145
X029
Y0155
X031
X034
X036
X037
Y0145
Y0135
Y0125
X036
Y0135
Y0145
X04
Y0155
X042
Y0145
X045
Y0155
X04Y0135
Y0125
X047Y0145
Y0155
X05
Y0145
Y0165
Y0175
Y0185
Y0195
Y0205
Y0215
X047
Y0205
Y0195
Y0185
Y0175
Y0165
Y0265
Y0275
Y0285
Y0295
Y0305
X05
Y0295
Y0285
Y0275
Y0265
X045
Y0275
Y0285
Y0295
Y0305
X042
Y0295
Y0285
Y0275
Y0265
X04
Y0275
Y0285
Y0295
Y0305
X037
Y0295
Y0285
Y0275
Y0265
Y0255
Y0245
X036
Y0255
Y0265
Y0275
Y0285
Y0295
Y0305
X034
Y0295
Y0285
Y0275
Y0215
Y0205
Y0195
Y0185
Y0175
Y0165
X036
X037
Y0175
Y0185
Y0195
Y0205
Y0215
X036Y0205
Y0195
Y0185
Y0175
X04
Y0185
Y0195
Y0205
Y0215
X042
Y0205
Y0195
Y0185
Y0175
Y0165
X04
X045
Y0175
Y0185
Y0195
Y0205
Y0215
X04Y0245
Y0255
X031Y0275
Y0285
Y0295
Y0305
X029
Y0295
Y0285
Y0275
Y0265
X026
Y0275
Y0285
Y0295
Y0305
X024
Y0295
Y0285
Y0275
Y0265
X021
Y0275
Y0285
Y0295
Y0305
X019
Y0295
Y0285
Y0275
Y0265
Y0255
Y0245
Y0215
Y0205
Y0195
Y0185
Y0175
Y0165
X021
Y0175
Y0185
Y0195
Y0205
Y0215
X024
Y0205
Y0195
Y0185
Y0175
Y0165
X026
Y0175
Y0185
Y0195
Y0205
Y0215
X029
Y0205
Y0195
Y0185
Y0175
Y0165
X031
Y0175
Y0185
Y0195
Y0205
Y0215
X016
Y0205
Y0195
Y0185
Y0175
Y0165
Y0245
Y0255
Y0265
Y0275
Y0285
Y0295
Y0305
X015
Y0295
Y0285
Y0275
Y0265
Y0255
Y0245
Y0205
Y0195
Y0185
Y0175
Y0165
X011Y016
Y017
Y018
Y019
Y02
Y021
Y022
Y023
Y024
Y025
Y026
Y027
Y028
Y029
Y03
Y031
X015Y0315
Y0325
X016
Y0335
Y0315
X019
Y0325
Y0335
X021
Y0325
Y0315
X024
Y0325
Y0335
X026
Y0325
Y0315
X029
Y0325
Y0335
X031
Y0325
Y0315
X034
Y0325
Y0335
X037
Y0325
Y0315
X036
Y0325
X04
Y0335
Y0315
X042
Y0325
Y0335
X045
Y0325
Y0315
X047
Y0325
Y0335
X05
Y0325
Y0315
T05
X0285Y013
X032
X0515Y012
X05225Y023
X0535Y0275
X0285Y025
X0125Y026
Y0275
Y029
Y0305
X0535Y034
T06
X0595Y0125
Y0345
M30
