G04*
G04 #@! TF.GenerationSoftware,Altium Limited,Altium Designer,21.9.1 (22)*
G04*
G04 Layer_Color=16711935*
%FSLAX25Y25*%
%MOIN*%
G70*
G04*
G04 #@! TF.SameCoordinates,ED34AEAF-C743-4D8C-A4B6-5B60F8E4C993*
G04*
G04*
G04 #@! TF.FilePolarity,Negative*
G04*
G01*
G75*
%ADD14C,0.30800*%
%ADD15R,0.06706X0.06706*%
%ADD16C,0.06706*%
%ADD17C,0.09068*%
%ADD18C,0.03200*%
D14*
X120000Y410000D02*
D03*
X680000D02*
D03*
X400000D02*
D03*
X990000D02*
D03*
X120000Y740000D02*
D03*
X400000D02*
D03*
X680000D02*
D03*
Y120000D02*
D03*
X400000D02*
D03*
X990000Y740000D02*
D03*
Y120000D02*
D03*
X120000D02*
D03*
D15*
X1000000Y470000D02*
D03*
X800000Y170000D02*
D03*
X125000Y470000D02*
D03*
X240000Y460000D02*
D03*
X510000D02*
D03*
X500000D02*
D03*
X850000D02*
D03*
X730000D02*
D03*
X710000D02*
D03*
X720000D02*
D03*
X580000D02*
D03*
X570000D02*
D03*
X590000D02*
D03*
X800000D02*
D03*
X790000D02*
D03*
X780000D02*
D03*
X860000D02*
D03*
X660000D02*
D03*
X870000D02*
D03*
X640000D02*
D03*
X520000D02*
D03*
X650000D02*
D03*
X170000D02*
D03*
X310000D02*
D03*
X380000D02*
D03*
X450000D02*
D03*
X120000Y180000D02*
D03*
X170000Y170000D02*
D03*
X240000D02*
D03*
X310000D02*
D03*
X380000D02*
D03*
X450000D02*
D03*
X520000D02*
D03*
X590000D02*
D03*
X660000D02*
D03*
X730000D02*
D03*
X870000D02*
D03*
X940000D02*
D03*
D16*
X990000Y470000D02*
D03*
X1000000Y480000D02*
D03*
X990000D02*
D03*
X1000000Y490000D02*
D03*
X990000D02*
D03*
X1000000Y500000D02*
D03*
X990000D02*
D03*
X1000000Y510000D02*
D03*
X990000D02*
D03*
X1000000Y520000D02*
D03*
X990000D02*
D03*
X1000000Y530000D02*
D03*
X990000D02*
D03*
X1000000Y540000D02*
D03*
X990000D02*
D03*
X1000000Y550000D02*
D03*
X990000D02*
D03*
X1000000Y560000D02*
D03*
X990000D02*
D03*
X1000000Y570000D02*
D03*
X990000D02*
D03*
X1000000Y580000D02*
D03*
X990000D02*
D03*
X1000000Y590000D02*
D03*
X990000D02*
D03*
X1000000Y600000D02*
D03*
X990000D02*
D03*
X1000000Y610000D02*
D03*
X990000D02*
D03*
X1000000Y620000D02*
D03*
X990000D02*
D03*
X1000000Y630000D02*
D03*
X990000D02*
D03*
X1000000Y640000D02*
D03*
X990000D02*
D03*
X1000000Y650000D02*
D03*
X990000D02*
D03*
X1000000Y660000D02*
D03*
X990000D02*
D03*
X800000Y310000D02*
D03*
Y300000D02*
D03*
Y290000D02*
D03*
Y320000D02*
D03*
Y330000D02*
D03*
Y360000D02*
D03*
Y280000D02*
D03*
Y270000D02*
D03*
X790000Y360000D02*
D03*
Y350000D02*
D03*
Y340000D02*
D03*
Y330000D02*
D03*
Y320000D02*
D03*
Y310000D02*
D03*
Y300000D02*
D03*
Y290000D02*
D03*
Y280000D02*
D03*
Y270000D02*
D03*
Y260000D02*
D03*
Y250000D02*
D03*
Y240000D02*
D03*
Y230000D02*
D03*
Y220000D02*
D03*
Y210000D02*
D03*
Y200000D02*
D03*
Y190000D02*
D03*
X800000Y350000D02*
D03*
Y340000D02*
D03*
Y260000D02*
D03*
Y250000D02*
D03*
Y240000D02*
D03*
Y230000D02*
D03*
Y220000D02*
D03*
Y210000D02*
D03*
Y200000D02*
D03*
Y190000D02*
D03*
X790000Y180000D02*
D03*
X800000D02*
D03*
X790000Y170000D02*
D03*
X115000Y470000D02*
D03*
X125000Y480000D02*
D03*
X115000D02*
D03*
Y490000D02*
D03*
Y500000D02*
D03*
Y510000D02*
D03*
Y520000D02*
D03*
Y530000D02*
D03*
Y540000D02*
D03*
Y550000D02*
D03*
Y560000D02*
D03*
Y570000D02*
D03*
Y580000D02*
D03*
Y590000D02*
D03*
Y600000D02*
D03*
Y610000D02*
D03*
Y620000D02*
D03*
Y630000D02*
D03*
Y640000D02*
D03*
Y650000D02*
D03*
Y660000D02*
D03*
X125000D02*
D03*
Y650000D02*
D03*
Y640000D02*
D03*
Y630000D02*
D03*
Y620000D02*
D03*
Y610000D02*
D03*
Y600000D02*
D03*
Y590000D02*
D03*
Y580000D02*
D03*
Y570000D02*
D03*
Y560000D02*
D03*
Y550000D02*
D03*
Y540000D02*
D03*
Y530000D02*
D03*
Y520000D02*
D03*
Y510000D02*
D03*
Y500000D02*
D03*
Y490000D02*
D03*
X230000Y460000D02*
D03*
X240000Y470000D02*
D03*
X230000D02*
D03*
X240000Y480000D02*
D03*
X230000D02*
D03*
X240000Y490000D02*
D03*
X230000D02*
D03*
X240000Y500000D02*
D03*
X230000D02*
D03*
X240000Y510000D02*
D03*
X230000D02*
D03*
X240000Y520000D02*
D03*
X230000D02*
D03*
X240000Y530000D02*
D03*
X230000D02*
D03*
X240000Y540000D02*
D03*
X230000D02*
D03*
X240000Y550000D02*
D03*
X230000D02*
D03*
X240000Y560000D02*
D03*
X230000D02*
D03*
X240000Y570000D02*
D03*
X230000D02*
D03*
X240000Y580000D02*
D03*
X230000D02*
D03*
X240000Y590000D02*
D03*
X230000D02*
D03*
X240000Y600000D02*
D03*
X230000D02*
D03*
X240000Y610000D02*
D03*
X230000D02*
D03*
X240000Y620000D02*
D03*
X230000D02*
D03*
X240000Y630000D02*
D03*
X230000D02*
D03*
X240000Y640000D02*
D03*
X230000D02*
D03*
X240000Y650000D02*
D03*
X230000D02*
D03*
X240000Y660000D02*
D03*
X230000D02*
D03*
X240000Y670000D02*
D03*
X230000D02*
D03*
X240000Y680000D02*
D03*
X230000D02*
D03*
X240000Y690000D02*
D03*
X230000D02*
D03*
X500000Y670000D02*
D03*
Y680000D02*
D03*
Y690000D02*
D03*
X110000Y290000D02*
D03*
Y280000D02*
D03*
X510000Y690000D02*
D03*
Y680000D02*
D03*
Y670000D02*
D03*
Y660000D02*
D03*
Y650000D02*
D03*
Y640000D02*
D03*
Y630000D02*
D03*
Y620000D02*
D03*
Y610000D02*
D03*
Y600000D02*
D03*
Y590000D02*
D03*
Y580000D02*
D03*
Y570000D02*
D03*
Y560000D02*
D03*
Y550000D02*
D03*
Y540000D02*
D03*
Y530000D02*
D03*
Y520000D02*
D03*
Y510000D02*
D03*
Y500000D02*
D03*
Y490000D02*
D03*
Y480000D02*
D03*
Y470000D02*
D03*
X500000Y660000D02*
D03*
Y650000D02*
D03*
Y640000D02*
D03*
Y630000D02*
D03*
Y620000D02*
D03*
Y610000D02*
D03*
Y600000D02*
D03*
Y590000D02*
D03*
Y580000D02*
D03*
Y570000D02*
D03*
Y560000D02*
D03*
Y550000D02*
D03*
Y540000D02*
D03*
Y530000D02*
D03*
Y520000D02*
D03*
Y510000D02*
D03*
Y500000D02*
D03*
Y490000D02*
D03*
Y480000D02*
D03*
Y470000D02*
D03*
X850000Y670000D02*
D03*
Y660000D02*
D03*
Y650000D02*
D03*
Y640000D02*
D03*
Y630000D02*
D03*
Y620000D02*
D03*
Y610000D02*
D03*
Y600000D02*
D03*
Y590000D02*
D03*
Y580000D02*
D03*
Y570000D02*
D03*
Y560000D02*
D03*
Y550000D02*
D03*
Y540000D02*
D03*
Y530000D02*
D03*
Y520000D02*
D03*
Y510000D02*
D03*
Y500000D02*
D03*
Y490000D02*
D03*
Y480000D02*
D03*
Y470000D02*
D03*
X730000Y670000D02*
D03*
Y660000D02*
D03*
Y650000D02*
D03*
Y640000D02*
D03*
Y630000D02*
D03*
Y620000D02*
D03*
Y610000D02*
D03*
Y600000D02*
D03*
Y590000D02*
D03*
Y580000D02*
D03*
Y570000D02*
D03*
Y560000D02*
D03*
Y550000D02*
D03*
Y540000D02*
D03*
Y530000D02*
D03*
Y520000D02*
D03*
Y510000D02*
D03*
Y500000D02*
D03*
Y490000D02*
D03*
Y480000D02*
D03*
Y470000D02*
D03*
X710000Y670000D02*
D03*
Y660000D02*
D03*
Y650000D02*
D03*
Y640000D02*
D03*
Y630000D02*
D03*
Y620000D02*
D03*
Y610000D02*
D03*
Y600000D02*
D03*
Y590000D02*
D03*
Y580000D02*
D03*
Y570000D02*
D03*
Y560000D02*
D03*
Y550000D02*
D03*
Y540000D02*
D03*
Y530000D02*
D03*
Y520000D02*
D03*
Y510000D02*
D03*
Y500000D02*
D03*
Y490000D02*
D03*
Y480000D02*
D03*
Y470000D02*
D03*
X720000Y670000D02*
D03*
Y660000D02*
D03*
Y650000D02*
D03*
Y640000D02*
D03*
Y630000D02*
D03*
Y620000D02*
D03*
Y610000D02*
D03*
Y600000D02*
D03*
Y590000D02*
D03*
Y580000D02*
D03*
Y570000D02*
D03*
Y560000D02*
D03*
Y550000D02*
D03*
Y540000D02*
D03*
Y530000D02*
D03*
Y520000D02*
D03*
Y510000D02*
D03*
Y500000D02*
D03*
Y490000D02*
D03*
Y480000D02*
D03*
Y470000D02*
D03*
X580000Y670000D02*
D03*
Y660000D02*
D03*
Y650000D02*
D03*
Y640000D02*
D03*
Y630000D02*
D03*
Y620000D02*
D03*
Y610000D02*
D03*
Y600000D02*
D03*
Y590000D02*
D03*
Y580000D02*
D03*
Y570000D02*
D03*
Y560000D02*
D03*
Y550000D02*
D03*
Y540000D02*
D03*
Y530000D02*
D03*
Y520000D02*
D03*
Y510000D02*
D03*
Y500000D02*
D03*
Y490000D02*
D03*
Y480000D02*
D03*
Y470000D02*
D03*
X570000Y670000D02*
D03*
Y660000D02*
D03*
Y650000D02*
D03*
Y640000D02*
D03*
Y630000D02*
D03*
Y620000D02*
D03*
Y610000D02*
D03*
Y600000D02*
D03*
Y590000D02*
D03*
Y580000D02*
D03*
Y570000D02*
D03*
Y560000D02*
D03*
Y550000D02*
D03*
Y540000D02*
D03*
Y530000D02*
D03*
Y520000D02*
D03*
Y510000D02*
D03*
Y500000D02*
D03*
Y490000D02*
D03*
Y480000D02*
D03*
Y470000D02*
D03*
X590000Y670000D02*
D03*
Y660000D02*
D03*
Y650000D02*
D03*
Y640000D02*
D03*
Y630000D02*
D03*
Y620000D02*
D03*
Y610000D02*
D03*
Y600000D02*
D03*
Y590000D02*
D03*
Y580000D02*
D03*
Y570000D02*
D03*
Y560000D02*
D03*
Y550000D02*
D03*
Y540000D02*
D03*
Y530000D02*
D03*
Y520000D02*
D03*
Y510000D02*
D03*
Y500000D02*
D03*
Y490000D02*
D03*
Y480000D02*
D03*
Y470000D02*
D03*
X800000Y670000D02*
D03*
Y660000D02*
D03*
Y650000D02*
D03*
Y640000D02*
D03*
Y630000D02*
D03*
Y620000D02*
D03*
Y610000D02*
D03*
Y600000D02*
D03*
Y590000D02*
D03*
Y580000D02*
D03*
Y570000D02*
D03*
Y560000D02*
D03*
Y550000D02*
D03*
Y540000D02*
D03*
Y530000D02*
D03*
Y520000D02*
D03*
Y510000D02*
D03*
Y500000D02*
D03*
Y490000D02*
D03*
Y480000D02*
D03*
Y470000D02*
D03*
X790000Y670000D02*
D03*
Y660000D02*
D03*
Y650000D02*
D03*
Y640000D02*
D03*
Y630000D02*
D03*
Y620000D02*
D03*
Y610000D02*
D03*
Y600000D02*
D03*
Y590000D02*
D03*
Y580000D02*
D03*
Y570000D02*
D03*
Y560000D02*
D03*
Y550000D02*
D03*
Y540000D02*
D03*
Y530000D02*
D03*
Y520000D02*
D03*
Y510000D02*
D03*
Y500000D02*
D03*
Y490000D02*
D03*
Y480000D02*
D03*
Y470000D02*
D03*
X780000Y670000D02*
D03*
Y660000D02*
D03*
Y650000D02*
D03*
Y640000D02*
D03*
Y630000D02*
D03*
Y620000D02*
D03*
Y610000D02*
D03*
Y600000D02*
D03*
Y590000D02*
D03*
Y580000D02*
D03*
Y570000D02*
D03*
Y560000D02*
D03*
Y550000D02*
D03*
Y540000D02*
D03*
Y530000D02*
D03*
Y520000D02*
D03*
Y510000D02*
D03*
Y500000D02*
D03*
Y490000D02*
D03*
Y480000D02*
D03*
Y470000D02*
D03*
X860000Y670000D02*
D03*
Y660000D02*
D03*
Y650000D02*
D03*
Y640000D02*
D03*
Y630000D02*
D03*
Y620000D02*
D03*
Y610000D02*
D03*
Y600000D02*
D03*
Y590000D02*
D03*
Y580000D02*
D03*
Y570000D02*
D03*
Y560000D02*
D03*
Y550000D02*
D03*
Y540000D02*
D03*
Y530000D02*
D03*
Y520000D02*
D03*
Y510000D02*
D03*
Y500000D02*
D03*
Y490000D02*
D03*
Y480000D02*
D03*
Y470000D02*
D03*
X660000Y670000D02*
D03*
Y660000D02*
D03*
Y650000D02*
D03*
Y640000D02*
D03*
Y630000D02*
D03*
Y620000D02*
D03*
Y610000D02*
D03*
Y600000D02*
D03*
Y590000D02*
D03*
Y580000D02*
D03*
Y570000D02*
D03*
Y560000D02*
D03*
Y550000D02*
D03*
Y540000D02*
D03*
Y530000D02*
D03*
Y520000D02*
D03*
Y510000D02*
D03*
Y500000D02*
D03*
Y490000D02*
D03*
Y480000D02*
D03*
Y470000D02*
D03*
X870000Y670000D02*
D03*
Y660000D02*
D03*
Y650000D02*
D03*
Y640000D02*
D03*
Y630000D02*
D03*
Y620000D02*
D03*
Y610000D02*
D03*
Y600000D02*
D03*
Y590000D02*
D03*
Y580000D02*
D03*
Y570000D02*
D03*
Y560000D02*
D03*
Y550000D02*
D03*
Y540000D02*
D03*
Y530000D02*
D03*
Y520000D02*
D03*
Y510000D02*
D03*
Y500000D02*
D03*
Y490000D02*
D03*
Y480000D02*
D03*
Y470000D02*
D03*
X640000Y670000D02*
D03*
Y660000D02*
D03*
Y650000D02*
D03*
Y640000D02*
D03*
Y630000D02*
D03*
Y620000D02*
D03*
Y610000D02*
D03*
Y600000D02*
D03*
Y590000D02*
D03*
Y580000D02*
D03*
Y570000D02*
D03*
Y560000D02*
D03*
Y550000D02*
D03*
Y540000D02*
D03*
Y530000D02*
D03*
Y520000D02*
D03*
Y510000D02*
D03*
Y500000D02*
D03*
Y490000D02*
D03*
Y480000D02*
D03*
Y470000D02*
D03*
X520000Y690000D02*
D03*
Y680000D02*
D03*
Y670000D02*
D03*
Y660000D02*
D03*
Y650000D02*
D03*
Y640000D02*
D03*
Y630000D02*
D03*
Y620000D02*
D03*
Y610000D02*
D03*
Y600000D02*
D03*
Y590000D02*
D03*
Y580000D02*
D03*
Y570000D02*
D03*
Y560000D02*
D03*
Y550000D02*
D03*
Y540000D02*
D03*
Y530000D02*
D03*
Y520000D02*
D03*
Y510000D02*
D03*
Y500000D02*
D03*
Y490000D02*
D03*
Y480000D02*
D03*
Y470000D02*
D03*
X650000Y670000D02*
D03*
Y660000D02*
D03*
Y650000D02*
D03*
Y640000D02*
D03*
Y630000D02*
D03*
Y620000D02*
D03*
Y610000D02*
D03*
Y600000D02*
D03*
Y590000D02*
D03*
Y580000D02*
D03*
Y570000D02*
D03*
Y560000D02*
D03*
Y550000D02*
D03*
Y540000D02*
D03*
Y530000D02*
D03*
Y520000D02*
D03*
Y510000D02*
D03*
Y500000D02*
D03*
Y490000D02*
D03*
Y480000D02*
D03*
Y470000D02*
D03*
X160000D02*
D03*
Y460000D02*
D03*
X170000Y470000D02*
D03*
Y480000D02*
D03*
X160000D02*
D03*
X170000Y490000D02*
D03*
X160000D02*
D03*
X170000Y500000D02*
D03*
X160000D02*
D03*
X170000Y510000D02*
D03*
X160000D02*
D03*
X170000Y520000D02*
D03*
X160000D02*
D03*
X170000Y530000D02*
D03*
X160000D02*
D03*
X170000Y540000D02*
D03*
X160000D02*
D03*
X170000Y550000D02*
D03*
X160000D02*
D03*
X170000Y560000D02*
D03*
X160000D02*
D03*
X170000Y570000D02*
D03*
X160000D02*
D03*
X170000Y580000D02*
D03*
X160000D02*
D03*
X170000Y590000D02*
D03*
X160000D02*
D03*
X170000Y600000D02*
D03*
X160000D02*
D03*
X170000Y610000D02*
D03*
X160000D02*
D03*
X170000Y620000D02*
D03*
X160000D02*
D03*
X170000Y630000D02*
D03*
X160000D02*
D03*
X170000Y640000D02*
D03*
X160000D02*
D03*
X170000Y650000D02*
D03*
X160000D02*
D03*
X170000Y660000D02*
D03*
X160000D02*
D03*
X170000Y670000D02*
D03*
X160000D02*
D03*
X300000Y460000D02*
D03*
X310000Y470000D02*
D03*
X300000D02*
D03*
X310000Y480000D02*
D03*
X300000D02*
D03*
X310000Y490000D02*
D03*
X300000D02*
D03*
X310000Y500000D02*
D03*
X300000D02*
D03*
X310000Y510000D02*
D03*
X300000D02*
D03*
X310000Y520000D02*
D03*
X300000D02*
D03*
X310000Y530000D02*
D03*
X300000D02*
D03*
X310000Y540000D02*
D03*
X300000D02*
D03*
X310000Y550000D02*
D03*
X300000D02*
D03*
X310000Y560000D02*
D03*
X300000D02*
D03*
X310000Y570000D02*
D03*
X300000D02*
D03*
X310000Y580000D02*
D03*
X300000D02*
D03*
X310000Y590000D02*
D03*
X300000D02*
D03*
X380000Y650000D02*
D03*
Y640000D02*
D03*
Y630000D02*
D03*
Y620000D02*
D03*
Y610000D02*
D03*
Y600000D02*
D03*
Y590000D02*
D03*
Y580000D02*
D03*
Y570000D02*
D03*
Y560000D02*
D03*
Y550000D02*
D03*
Y540000D02*
D03*
Y530000D02*
D03*
Y520000D02*
D03*
Y510000D02*
D03*
Y500000D02*
D03*
Y490000D02*
D03*
Y480000D02*
D03*
Y470000D02*
D03*
X450000Y650000D02*
D03*
Y640000D02*
D03*
Y630000D02*
D03*
Y620000D02*
D03*
Y610000D02*
D03*
Y600000D02*
D03*
Y590000D02*
D03*
Y580000D02*
D03*
Y570000D02*
D03*
Y560000D02*
D03*
Y550000D02*
D03*
Y540000D02*
D03*
Y530000D02*
D03*
Y520000D02*
D03*
Y510000D02*
D03*
Y500000D02*
D03*
Y490000D02*
D03*
Y480000D02*
D03*
Y470000D02*
D03*
X110000Y370000D02*
D03*
X120000D02*
D03*
X110000Y360000D02*
D03*
X120000D02*
D03*
X110000Y350000D02*
D03*
X120000D02*
D03*
X110000Y340000D02*
D03*
X120000D02*
D03*
X110000Y330000D02*
D03*
X120000D02*
D03*
X110000Y320000D02*
D03*
X120000D02*
D03*
X110000Y310000D02*
D03*
X120000D02*
D03*
X110000Y300000D02*
D03*
X120000D02*
D03*
Y290000D02*
D03*
Y280000D02*
D03*
X110000Y270000D02*
D03*
X120000D02*
D03*
X110000Y260000D02*
D03*
X120000D02*
D03*
X110000Y250000D02*
D03*
X120000D02*
D03*
X110000Y240000D02*
D03*
X120000D02*
D03*
X110000Y230000D02*
D03*
X120000D02*
D03*
X110000Y220000D02*
D03*
X120000D02*
D03*
X110000Y210000D02*
D03*
X120000D02*
D03*
X110000Y200000D02*
D03*
X120000D02*
D03*
X110000Y190000D02*
D03*
X120000D02*
D03*
X110000Y180000D02*
D03*
X160000Y170000D02*
D03*
X170000Y180000D02*
D03*
X160000D02*
D03*
X170000Y190000D02*
D03*
Y200000D02*
D03*
Y210000D02*
D03*
Y220000D02*
D03*
Y230000D02*
D03*
Y240000D02*
D03*
Y250000D02*
D03*
Y260000D02*
D03*
Y340000D02*
D03*
Y350000D02*
D03*
X230000Y170000D02*
D03*
X240000Y180000D02*
D03*
X230000D02*
D03*
X240000Y190000D02*
D03*
Y200000D02*
D03*
Y210000D02*
D03*
Y220000D02*
D03*
Y230000D02*
D03*
Y240000D02*
D03*
Y250000D02*
D03*
Y260000D02*
D03*
Y340000D02*
D03*
Y350000D02*
D03*
X300000Y170000D02*
D03*
X310000Y180000D02*
D03*
X300000D02*
D03*
X310000Y190000D02*
D03*
Y200000D02*
D03*
Y210000D02*
D03*
Y220000D02*
D03*
Y230000D02*
D03*
Y240000D02*
D03*
Y250000D02*
D03*
Y260000D02*
D03*
Y340000D02*
D03*
Y350000D02*
D03*
X370000Y170000D02*
D03*
X380000Y180000D02*
D03*
X370000D02*
D03*
X380000Y190000D02*
D03*
Y200000D02*
D03*
Y210000D02*
D03*
Y220000D02*
D03*
Y230000D02*
D03*
Y240000D02*
D03*
Y250000D02*
D03*
Y260000D02*
D03*
Y340000D02*
D03*
Y350000D02*
D03*
X440000Y170000D02*
D03*
X450000Y180000D02*
D03*
X440000D02*
D03*
X450000Y190000D02*
D03*
Y200000D02*
D03*
Y210000D02*
D03*
Y220000D02*
D03*
Y230000D02*
D03*
Y240000D02*
D03*
Y250000D02*
D03*
Y260000D02*
D03*
Y340000D02*
D03*
Y350000D02*
D03*
X510000Y170000D02*
D03*
X520000Y180000D02*
D03*
X510000D02*
D03*
X520000Y190000D02*
D03*
Y200000D02*
D03*
Y210000D02*
D03*
Y220000D02*
D03*
Y230000D02*
D03*
Y240000D02*
D03*
Y250000D02*
D03*
Y260000D02*
D03*
Y340000D02*
D03*
Y350000D02*
D03*
X580000Y170000D02*
D03*
X590000Y180000D02*
D03*
X580000D02*
D03*
X590000Y190000D02*
D03*
Y200000D02*
D03*
Y210000D02*
D03*
Y220000D02*
D03*
Y230000D02*
D03*
Y240000D02*
D03*
Y250000D02*
D03*
Y260000D02*
D03*
Y340000D02*
D03*
Y350000D02*
D03*
X650000Y170000D02*
D03*
X660000Y180000D02*
D03*
X650000D02*
D03*
X660000Y190000D02*
D03*
Y200000D02*
D03*
Y210000D02*
D03*
Y220000D02*
D03*
Y230000D02*
D03*
Y240000D02*
D03*
Y250000D02*
D03*
Y260000D02*
D03*
Y340000D02*
D03*
Y350000D02*
D03*
X720000Y170000D02*
D03*
X730000Y180000D02*
D03*
X720000D02*
D03*
X730000Y190000D02*
D03*
Y200000D02*
D03*
Y210000D02*
D03*
Y220000D02*
D03*
Y230000D02*
D03*
Y240000D02*
D03*
Y250000D02*
D03*
Y260000D02*
D03*
Y340000D02*
D03*
Y350000D02*
D03*
X860000Y170000D02*
D03*
X870000Y180000D02*
D03*
X860000D02*
D03*
X870000Y190000D02*
D03*
Y200000D02*
D03*
Y210000D02*
D03*
Y220000D02*
D03*
Y230000D02*
D03*
Y240000D02*
D03*
Y250000D02*
D03*
Y260000D02*
D03*
Y340000D02*
D03*
Y350000D02*
D03*
X930000Y170000D02*
D03*
X940000Y180000D02*
D03*
X930000D02*
D03*
X940000Y190000D02*
D03*
Y200000D02*
D03*
Y210000D02*
D03*
Y220000D02*
D03*
Y230000D02*
D03*
Y240000D02*
D03*
Y250000D02*
D03*
Y260000D02*
D03*
Y340000D02*
D03*
Y350000D02*
D03*
X930000Y190000D02*
D03*
X860000D02*
D03*
X720000D02*
D03*
X650000D02*
D03*
X580000D02*
D03*
X510000D02*
D03*
X440000D02*
D03*
X370000D02*
D03*
X300000D02*
D03*
X230000D02*
D03*
X160000D02*
D03*
X930000Y200000D02*
D03*
X860000D02*
D03*
X720000D02*
D03*
X650000D02*
D03*
X580000D02*
D03*
X510000D02*
D03*
X440000D02*
D03*
X370000D02*
D03*
X300000D02*
D03*
X230000D02*
D03*
X160000D02*
D03*
X930000Y210000D02*
D03*
X860000D02*
D03*
X720000D02*
D03*
X650000D02*
D03*
X580000D02*
D03*
X510000D02*
D03*
X440000D02*
D03*
X370000D02*
D03*
X300000D02*
D03*
X230000D02*
D03*
X160000D02*
D03*
X930000Y220000D02*
D03*
X860000D02*
D03*
X720000D02*
D03*
X650000D02*
D03*
X580000D02*
D03*
X510000D02*
D03*
X440000D02*
D03*
X370000D02*
D03*
X300000D02*
D03*
X230000D02*
D03*
X160000D02*
D03*
X930000Y230000D02*
D03*
X860000D02*
D03*
X720000D02*
D03*
X650000D02*
D03*
X580000D02*
D03*
X510000D02*
D03*
X440000D02*
D03*
X370000D02*
D03*
X300000D02*
D03*
X230000D02*
D03*
X160000D02*
D03*
X930000Y240000D02*
D03*
X860000D02*
D03*
X720000D02*
D03*
X650000D02*
D03*
X580000D02*
D03*
X510000D02*
D03*
X440000D02*
D03*
X370000D02*
D03*
X300000D02*
D03*
X230000D02*
D03*
X160000D02*
D03*
X930000Y250000D02*
D03*
X860000D02*
D03*
X720000D02*
D03*
X650000D02*
D03*
X580000D02*
D03*
X510000D02*
D03*
X440000D02*
D03*
X370000D02*
D03*
X300000D02*
D03*
X230000D02*
D03*
X160000D02*
D03*
X930000Y260000D02*
D03*
X860000D02*
D03*
X720000D02*
D03*
X650000D02*
D03*
X580000D02*
D03*
X510000D02*
D03*
X440000D02*
D03*
X370000D02*
D03*
X300000D02*
D03*
X230000D02*
D03*
X160000D02*
D03*
X930000Y270000D02*
D03*
X860000D02*
D03*
X720000D02*
D03*
X650000D02*
D03*
X580000D02*
D03*
X510000D02*
D03*
X440000D02*
D03*
X370000D02*
D03*
X300000D02*
D03*
X230000D02*
D03*
X160000D02*
D03*
X930000Y280000D02*
D03*
X860000D02*
D03*
X720000D02*
D03*
X650000D02*
D03*
X580000D02*
D03*
X510000D02*
D03*
X440000D02*
D03*
X370000D02*
D03*
X300000D02*
D03*
X230000D02*
D03*
X160000D02*
D03*
X930000Y290000D02*
D03*
X860000D02*
D03*
X720000D02*
D03*
X650000D02*
D03*
X580000D02*
D03*
X510000D02*
D03*
X440000D02*
D03*
X370000D02*
D03*
X300000D02*
D03*
X230000D02*
D03*
X160000D02*
D03*
X930000Y300000D02*
D03*
X860000D02*
D03*
X720000D02*
D03*
X650000D02*
D03*
X580000D02*
D03*
X510000D02*
D03*
X440000D02*
D03*
X370000D02*
D03*
X300000D02*
D03*
X230000D02*
D03*
X160000D02*
D03*
X930000Y310000D02*
D03*
X860000D02*
D03*
X720000D02*
D03*
X650000D02*
D03*
X580000D02*
D03*
X510000D02*
D03*
X440000D02*
D03*
X370000D02*
D03*
X300000D02*
D03*
X230000D02*
D03*
X160000D02*
D03*
X930000Y320000D02*
D03*
X860000D02*
D03*
X720000D02*
D03*
X650000D02*
D03*
X580000D02*
D03*
X510000D02*
D03*
X440000D02*
D03*
X370000D02*
D03*
X300000D02*
D03*
X230000D02*
D03*
X160000D02*
D03*
X930000Y330000D02*
D03*
X860000D02*
D03*
X720000D02*
D03*
X650000D02*
D03*
X580000D02*
D03*
X510000D02*
D03*
X440000D02*
D03*
X370000D02*
D03*
X300000D02*
D03*
X230000D02*
D03*
X160000D02*
D03*
X930000Y340000D02*
D03*
X860000D02*
D03*
X720000D02*
D03*
X650000D02*
D03*
X580000D02*
D03*
X510000D02*
D03*
X440000D02*
D03*
X370000D02*
D03*
X300000D02*
D03*
X230000D02*
D03*
X160000D02*
D03*
X930000Y350000D02*
D03*
X860000D02*
D03*
X720000D02*
D03*
X650000D02*
D03*
X580000D02*
D03*
X510000D02*
D03*
X440000D02*
D03*
X370000D02*
D03*
X300000D02*
D03*
X230000D02*
D03*
X160000D02*
D03*
X930000Y360000D02*
D03*
X860000D02*
D03*
X720000D02*
D03*
X650000D02*
D03*
X580000D02*
D03*
X510000D02*
D03*
X440000D02*
D03*
X370000D02*
D03*
X300000D02*
D03*
X230000D02*
D03*
X160000D02*
D03*
X940000Y270000D02*
D03*
X870000D02*
D03*
X730000D02*
D03*
X660000D02*
D03*
X590000D02*
D03*
X520000D02*
D03*
X450000D02*
D03*
X380000D02*
D03*
X310000D02*
D03*
X240000D02*
D03*
X170000D02*
D03*
X940000Y280000D02*
D03*
X870000D02*
D03*
X730000D02*
D03*
X660000D02*
D03*
X590000D02*
D03*
X520000D02*
D03*
X450000D02*
D03*
X380000D02*
D03*
X310000D02*
D03*
X240000D02*
D03*
X170000D02*
D03*
Y360000D02*
D03*
X240000D02*
D03*
X310000D02*
D03*
X380000D02*
D03*
X450000D02*
D03*
X520000D02*
D03*
X590000D02*
D03*
X660000D02*
D03*
X730000D02*
D03*
X870000D02*
D03*
X940000D02*
D03*
Y330000D02*
D03*
X870000D02*
D03*
X730000D02*
D03*
X660000D02*
D03*
X590000D02*
D03*
X520000D02*
D03*
X450000D02*
D03*
X380000D02*
D03*
X310000D02*
D03*
X240000D02*
D03*
X170000D02*
D03*
X940000Y320000D02*
D03*
X870000D02*
D03*
X730000D02*
D03*
X660000D02*
D03*
X590000D02*
D03*
X520000D02*
D03*
X450000D02*
D03*
X380000D02*
D03*
X310000D02*
D03*
X240000D02*
D03*
X170000D02*
D03*
X940000Y290000D02*
D03*
X870000D02*
D03*
X730000D02*
D03*
X660000D02*
D03*
X590000D02*
D03*
X520000D02*
D03*
X450000D02*
D03*
X380000D02*
D03*
X310000D02*
D03*
X240000D02*
D03*
X170000D02*
D03*
X940000Y300000D02*
D03*
X870000D02*
D03*
X730000D02*
D03*
X660000D02*
D03*
X590000D02*
D03*
X520000D02*
D03*
X450000D02*
D03*
X380000D02*
D03*
X310000D02*
D03*
X240000D02*
D03*
X170000D02*
D03*
X940000Y310000D02*
D03*
X870000D02*
D03*
X730000D02*
D03*
X660000D02*
D03*
X590000D02*
D03*
X520000D02*
D03*
X450000D02*
D03*
X380000D02*
D03*
X310000D02*
D03*
X240000D02*
D03*
X170000D02*
D03*
D17*
X835000Y180000D02*
D03*
X1095000Y120000D02*
D03*
X420000Y490000D02*
D03*
X1160000Y70000D02*
D03*
X1010000Y80000D02*
D03*
X1040000D02*
D03*
X540000Y470000D02*
D03*
X400000Y480000D02*
D03*
X330000Y500000D02*
D03*
Y470000D02*
D03*
X260000Y180000D02*
D03*
X540000D02*
D03*
X815000Y170000D02*
D03*
X750000Y470000D02*
D03*
D18*
X1000000Y682500D02*
D03*
X977500Y702500D02*
D03*
X995000Y690000D02*
D03*
X972500Y692500D02*
D03*
X985000Y697500D02*
D03*
X982500Y700000D02*
D03*
X990000Y695000D02*
D03*
X970000Y685000D02*
D03*
X980000Y687500D02*
D03*
X975000Y705000D02*
D03*
X1005000Y680000D02*
D03*
X542500Y705000D02*
D03*
Y607500D02*
D03*
X540000Y685000D02*
D03*
X537500Y687500D02*
D03*
X535000Y690000D02*
D03*
X532500Y692500D02*
D03*
X537500Y627500D02*
D03*
X532500Y647500D02*
D03*
X535000Y637500D02*
D03*
X540000Y617500D02*
D03*
X842500Y194453D02*
D03*
X840000Y204453D02*
D03*
X837500Y214453D02*
D03*
X835000Y224453D02*
D03*
X832500Y234453D02*
D03*
X830000Y244453D02*
D03*
X827500Y254453D02*
D03*
X825000Y264453D02*
D03*
X277500Y330000D02*
D03*
X280000Y320000D02*
D03*
X272500Y280000D02*
D03*
X270000Y270000D02*
D03*
X267500Y355547D02*
D03*
X265000Y345547D02*
D03*
X825000Y508000D02*
D03*
X827500Y518000D02*
D03*
X830000Y528000D02*
D03*
X832500Y538000D02*
D03*
X835000Y548000D02*
D03*
X837500Y558000D02*
D03*
X840000Y568000D02*
D03*
X842500Y578000D02*
D03*
X280000Y600000D02*
D03*
X277500Y590000D02*
D03*
X300000Y712500D02*
D03*
X125000Y705000D02*
D03*
X127500Y690000D02*
D03*
X130000Y680000D02*
D03*
X132500Y685000D02*
D03*
X137500Y505000D02*
D03*
X135000Y515000D02*
D03*
X132500Y525000D02*
D03*
X439500Y700000D02*
D03*
X437000Y697500D02*
D03*
X262500Y335547D02*
D03*
X260000Y325547D02*
D03*
X257500Y315547D02*
D03*
X255000Y305547D02*
D03*
X252500Y295547D02*
D03*
X250000Y285547D02*
D03*
X247500Y275547D02*
D03*
X245000Y265547D02*
D03*
X207500Y260000D02*
D03*
X210007Y250228D02*
D03*
X212500Y240000D02*
D03*
X215000Y230000D02*
D03*
X217500Y220000D02*
D03*
X220000Y210000D02*
D03*
X222500Y200000D02*
D03*
X429500Y710000D02*
D03*
X432000Y707500D02*
D03*
X434500Y705000D02*
D03*
X149500Y710000D02*
D03*
X147000Y707500D02*
D03*
X144500Y705000D02*
D03*
X142000Y535000D02*
D03*
Y545000D02*
D03*
Y555000D02*
D03*
Y565000D02*
D03*
X139500Y575000D02*
D03*
X137000Y585000D02*
D03*
X142000Y697500D02*
D03*
X139500Y700000D02*
D03*
X442000Y702500D02*
D03*
X137000D02*
D03*
X179500Y643000D02*
D03*
X153000Y634500D02*
D03*
X179500Y633000D02*
D03*
X153000Y624500D02*
D03*
X179500Y623000D02*
D03*
X153000Y614500D02*
D03*
X179500Y613000D02*
D03*
X153000Y604500D02*
D03*
X179500Y603000D02*
D03*
X153000Y594500D02*
D03*
Y584500D02*
D03*
X179500Y593000D02*
D03*
X809000Y671000D02*
D03*
X739000D02*
D03*
X669000D02*
D03*
X599000D02*
D03*
X809000Y661000D02*
D03*
X739000D02*
D03*
X669000D02*
D03*
X599000D02*
D03*
X809000Y651000D02*
D03*
X739000D02*
D03*
X669000D02*
D03*
X529000D02*
D03*
X599000D02*
D03*
X809000Y641000D02*
D03*
X739000D02*
D03*
X669000D02*
D03*
X529000D02*
D03*
X599000D02*
D03*
X809000Y631000D02*
D03*
X739000D02*
D03*
X669000D02*
D03*
X529000D02*
D03*
X599000D02*
D03*
X809000Y621000D02*
D03*
X739000D02*
D03*
X669000D02*
D03*
X529000D02*
D03*
X599000D02*
D03*
X809000Y611000D02*
D03*
X739000D02*
D03*
X669000D02*
D03*
X529000D02*
D03*
X599000D02*
D03*
X809000Y601000D02*
D03*
X739000D02*
D03*
X669000D02*
D03*
X529000D02*
D03*
X599000D02*
D03*
X809000Y591000D02*
D03*
X739000D02*
D03*
X669000D02*
D03*
X529000D02*
D03*
X599000D02*
D03*
X179500Y365000D02*
D03*
X204500Y390000D02*
D03*
X197000Y382500D02*
D03*
X199500Y385000D02*
D03*
X202000Y387500D02*
D03*
X189500Y375000D02*
D03*
X192000Y377500D02*
D03*
X194500Y380000D02*
D03*
X187000Y372500D02*
D03*
X184500Y370000D02*
D03*
X182000Y367500D02*
D03*
X599000Y521000D02*
D03*
Y511000D02*
D03*
Y541000D02*
D03*
Y531000D02*
D03*
Y561000D02*
D03*
Y551000D02*
D03*
Y571000D02*
D03*
Y581000D02*
D03*
X529000Y511000D02*
D03*
Y531000D02*
D03*
Y581000D02*
D03*
Y571000D02*
D03*
Y551000D02*
D03*
Y561000D02*
D03*
Y541000D02*
D03*
Y521000D02*
D03*
X669000D02*
D03*
Y511000D02*
D03*
Y541000D02*
D03*
Y531000D02*
D03*
Y561000D02*
D03*
Y551000D02*
D03*
Y571000D02*
D03*
Y581000D02*
D03*
X739000Y521000D02*
D03*
Y511000D02*
D03*
Y541000D02*
D03*
Y531000D02*
D03*
Y561000D02*
D03*
Y551000D02*
D03*
Y571000D02*
D03*
Y581000D02*
D03*
X809000D02*
D03*
Y521000D02*
D03*
Y541000D02*
D03*
Y531000D02*
D03*
Y561000D02*
D03*
Y551000D02*
D03*
Y571000D02*
D03*
Y511000D02*
D03*
M02*
