G04*
G04 #@! TF.GenerationSoftware,Altium Limited,Altium Designer,21.9.1 (22)*
G04*
G04 Layer_Physical_Order=1*
G04 Layer_Color=255*
%FSLAX25Y25*%
%MOIN*%
G70*
G04*
G04 #@! TF.SameCoordinates,ED34AEAF-C743-4D8C-A4B6-5B60F8E4C993*
G04*
G04*
G04 #@! TF.FilePolarity,Positive*
G04*
G01*
G75*
%ADD13C,0.01000*%
%ADD19C,0.07500*%
%ADD20C,0.30000*%
%ADD21R,0.05906X0.05906*%
%ADD22C,0.05906*%
%ADD23C,0.08268*%
%ADD24C,0.02400*%
D13*
X125652Y604000D02*
G03*
X124348Y604000I-652J-4000D01*
G01*
X170000Y320000D02*
X175359D01*
X170000Y330000D02*
X175359D01*
X180000Y250000D02*
X230000D01*
X532500Y692500D02*
X972500D01*
X537500Y687500D02*
X980000D01*
X540000Y685000D02*
X970000D01*
X525000Y682500D02*
X1000000D01*
X567500Y680000D02*
X1005000D01*
X535000Y690000D02*
X995000D01*
X505000Y695000D02*
X990000D01*
X497500Y697500D02*
X985000D01*
X495000Y700000D02*
X982500D01*
X492500Y702500D02*
X977500D01*
X542500Y705000D02*
X975000D01*
X236453Y345547D02*
X285547D01*
X236453Y355547D02*
X286860D01*
X514053Y654053D02*
X575947D01*
X510000Y650000D02*
X514053Y654053D01*
X525000Y670000D02*
X562000D01*
X566053Y665947D01*
X525000Y660000D02*
X562000D01*
X566053Y655947D01*
X522500Y607500D02*
X542500D01*
X520000Y610000D02*
X522500Y607500D01*
X495000Y685000D02*
Y695000D01*
X497500Y697500D01*
X562500Y675000D02*
X567500Y680000D01*
X522500Y685000D02*
X525000Y682500D01*
X490000Y700000D02*
X492500Y702500D01*
X490000Y670000D02*
Y700000D01*
Y670000D02*
X500000Y660000D01*
X492500Y697500D02*
X495000Y700000D01*
X492500Y677500D02*
Y697500D01*
Y677500D02*
X500000Y670000D01*
X495000Y685000D02*
X500000Y680000D01*
Y690000D02*
X505000Y695000D01*
X515000Y685000D02*
X522500D01*
X510000Y680000D02*
X515000Y685000D01*
Y675000D02*
X562500D01*
X510000Y670000D02*
X515000Y675000D01*
X522500Y617500D02*
X540000D01*
X522500Y647500D02*
X532500D01*
X522500Y627500D02*
X537500D01*
X522500Y637500D02*
X535000D01*
X520000Y650000D02*
X522500Y647500D01*
X520000Y640000D02*
X522500Y637500D01*
X520000Y630000D02*
X522500Y627500D01*
X520000Y620000D02*
X522500Y617500D01*
X832500Y234453D02*
X863547D01*
X812312D02*
X832500D01*
X842500Y194453D02*
X863547D01*
X812312D02*
X842500D01*
X835000Y224453D02*
X863547D01*
X812312D02*
X835000D01*
X827500Y254453D02*
X863547D01*
X812312D02*
X827500D01*
X837500Y214453D02*
X863547D01*
X812312D02*
X837500D01*
X840000Y204453D02*
X863547D01*
X812312D02*
X840000D01*
X830000Y244453D02*
X863547D01*
X812312D02*
X830000D01*
X825000Y264453D02*
X863547D01*
X812312D02*
X825000D01*
X837500Y558000D02*
X844000D01*
X807000D02*
X837500D01*
X835000Y548000D02*
X844000D01*
X807000D02*
X835000D01*
X832500Y538000D02*
X844000D01*
X807000D02*
X832500D01*
X830000Y528000D02*
X844000D01*
X807000D02*
X830000D01*
X827500Y518000D02*
X844000D01*
X807000D02*
X827500D01*
X825000Y508000D02*
X844000D01*
X807000D02*
X825000D01*
X840000Y568000D02*
X844000D01*
X807000D02*
X840000D01*
X800000Y220000D02*
X807860D01*
X812312Y224453D01*
X808047Y215547D02*
X812500Y220000D01*
X860000D01*
X807860Y300000D02*
X812312Y304453D01*
X808047Y255547D02*
X812500Y260000D01*
X860000D01*
X800000Y230000D02*
X807860D01*
X808047Y345547D02*
X812500Y350000D01*
X808047Y205547D02*
X812500Y210000D01*
X808047Y355547D02*
X812500Y360000D01*
X808047Y265547D02*
X812500Y270000D01*
X860000D01*
X796453Y265547D02*
X808047D01*
Y275547D02*
X812500Y280000D01*
X860000D01*
X807860D02*
X812312Y284453D01*
X863547D01*
X808047Y295547D02*
X812500Y300000D01*
X812312Y304453D02*
X863547D01*
X812500Y300000D02*
X860000D01*
X796453Y245547D02*
X808047D01*
X812500Y250000D01*
X860000D01*
X796453Y295547D02*
X808047D01*
X807860Y250000D02*
X812312Y254453D01*
X796453Y225547D02*
X808047D01*
X807860Y230000D02*
X812312Y234453D01*
X812500Y190000D02*
X860000D01*
X812500Y230000D02*
X860000D01*
X807860Y190000D02*
X812312Y194453D01*
X800000Y250000D02*
X807860D01*
Y290000D02*
X812312Y294453D01*
X807860Y340000D02*
X812312Y344453D01*
X807860Y310000D02*
X812312Y314453D01*
X800000Y190000D02*
X807860D01*
X808047Y305547D02*
X812500Y310000D01*
Y350000D02*
X860000D01*
X812312Y344453D02*
X863547D01*
X796453Y285547D02*
X808047D01*
X796453Y325547D02*
X808047D01*
X800000Y340000D02*
X807860D01*
X812312Y314453D02*
X863547D01*
X800000Y260000D02*
X807860D01*
X812500Y290000D02*
X860000D01*
X812500Y330000D02*
X860000D01*
X807860Y210000D02*
X812312Y214453D01*
X807860Y240000D02*
X812312Y244453D01*
X808047Y185547D02*
X812500Y190000D01*
X800000Y290000D02*
X807860D01*
X812500Y210000D02*
X860000D01*
X812500Y360000D02*
X860000D01*
X807860Y350000D02*
X812312Y354453D01*
X800000Y310000D02*
X807860D01*
X812312Y294453D02*
X863547D01*
X796453Y205547D02*
X808047D01*
Y225547D02*
X812500Y230000D01*
X796453Y215547D02*
X808047D01*
X812312Y324453D02*
X863547D01*
X808047Y335547D02*
X812500Y340000D01*
X808047Y195547D02*
X812500Y200000D01*
X796453Y255547D02*
X808047D01*
X796453Y315547D02*
X808047D01*
X796453Y235547D02*
X808047D01*
X796453Y275547D02*
X808047D01*
X800000Y330000D02*
X807860D01*
X812312Y334453D01*
X796453Y335547D02*
X808047D01*
Y235547D02*
X812500Y240000D01*
X800000Y200000D02*
X807860D01*
Y270000D02*
X812312Y274453D01*
X807860Y320000D02*
X812312Y324453D01*
X800000Y300000D02*
X807860D01*
X812500Y200000D02*
X860000D01*
X800000Y280000D02*
X807860D01*
X812312Y354453D02*
X863547D01*
X808047Y325547D02*
X812500Y330000D01*
X808047Y315547D02*
X812500Y320000D01*
X800000D02*
X807860D01*
X800000Y350000D02*
X807860D01*
X812500Y320000D02*
X860000D01*
X800000Y240000D02*
X807860D01*
Y260000D02*
X812312Y264453D01*
X812500Y310000D02*
X860000D01*
X808047Y285547D02*
X812500Y290000D01*
Y240000D02*
X860000D01*
X812312Y334453D02*
X863547D01*
X800000Y270000D02*
X807860D01*
X812500Y340000D02*
X860000D01*
X800000Y210000D02*
X807860D01*
X796453Y355547D02*
X808047D01*
X796453Y185547D02*
X808047D01*
X796453Y305547D02*
X808047D01*
X796453Y195547D02*
X808047D01*
X796453Y345547D02*
X808047D01*
X807860Y200000D02*
X812312Y204453D01*
Y274453D02*
X863547D01*
X277500Y330000D02*
X285360D01*
X240000D02*
X277500D01*
X280000Y320000D02*
X285360D01*
X240000D02*
X280000D01*
X272500Y280000D02*
X285360D01*
X240000D02*
X272500D01*
X270000Y270000D02*
X284907D01*
X240000D02*
X270000D01*
X180000Y260000D02*
X207500D01*
X175547Y255547D02*
X180000Y260000D01*
X175547Y245547D02*
X180000Y250000D01*
X175359Y300000D02*
X179812Y304453D01*
X175359Y320000D02*
X179812Y324453D01*
X233547D01*
X175359Y340000D02*
X179812Y344453D01*
Y304453D02*
X233547D01*
X175547Y275547D02*
X180000Y280000D01*
X170000Y300000D02*
X175359D01*
X180000Y280000D02*
X230000D01*
X179812Y344453D02*
X233547D01*
X176907Y345547D02*
X181360Y350000D01*
X175547Y215547D02*
X180000Y220000D01*
X175359Y230000D02*
X179812Y234453D01*
X170000Y200000D02*
X175359D01*
X179812Y234453D02*
X233547D01*
X175547Y295547D02*
X180000Y300000D01*
X170000Y220000D02*
X175359D01*
X179812Y224453D01*
X233547D01*
X175547Y305547D02*
X180000Y310000D01*
X175547Y225547D02*
X180000Y230000D01*
X181360Y350000D02*
X230000D01*
X175359Y310000D02*
X179812Y314453D01*
Y214453D02*
X233547D01*
X180000Y200000D02*
X222500D01*
X180000Y230000D02*
X215000D01*
X166453Y305547D02*
X175547D01*
X175359Y260000D02*
X179812Y264453D01*
X183360Y360000D02*
X230000D01*
X166453Y265547D02*
X175547D01*
X166453Y255547D02*
X175547D01*
X178907Y355547D02*
X183360Y360000D01*
X166453Y205547D02*
X175547D01*
X180000Y190000D02*
X230000D01*
X175547Y315547D02*
X180000Y320000D01*
X170000Y230000D02*
X175359D01*
Y200000D02*
X179812Y204453D01*
Y314453D02*
X233547D01*
X179812Y264453D02*
X233547D01*
X166453Y345547D02*
X176907D01*
X166453Y225547D02*
X175547D01*
X170000Y210000D02*
X175359D01*
X180000Y310000D02*
X230000D01*
X166453Y335547D02*
X175547D01*
X166453Y295547D02*
X175547D01*
X170000Y340000D02*
X175359D01*
X166453Y355547D02*
X178907D01*
X175547Y335547D02*
X180000Y340000D01*
X175547Y195547D02*
X180000Y200000D01*
X166453Y325547D02*
X175547D01*
X180000Y340000D02*
X230000D01*
X180000Y300000D02*
X230000D01*
X175547Y235547D02*
X180000Y240000D01*
X166453Y185547D02*
X175547D01*
X180000Y320000D02*
X230000D01*
X170000Y190000D02*
X175359D01*
X180000Y240000D02*
X212500D01*
X179812Y294453D02*
X233547D01*
X179812Y194453D02*
X233547D01*
X175359Y240000D02*
X179812Y244453D01*
X166453Y285547D02*
X175547D01*
X179812Y274453D02*
X233547D01*
X166453Y275547D02*
X175547D01*
X179812Y284453D02*
X233547D01*
X170000Y240000D02*
X175359D01*
Y270000D02*
X179812Y274453D01*
X175547Y205547D02*
X180000Y210000D01*
X166453Y235547D02*
X175547D01*
X170000Y250000D02*
X175359D01*
X170000Y280000D02*
X175359D01*
X175547Y185547D02*
X180000Y190000D01*
X175359Y250000D02*
X179812Y254453D01*
X180000Y210000D02*
X220000D01*
X175359D02*
X179812Y214453D01*
X175547Y285547D02*
X180000Y290000D01*
Y220000D02*
X217500D01*
X170000Y260000D02*
X175359D01*
X181812Y354453D02*
X233547D01*
X175359Y290000D02*
X179812Y294453D01*
X175359Y190000D02*
X179812Y194453D01*
Y244453D02*
X233547D01*
X179812Y204453D02*
X233547D01*
X180000Y270000D02*
X230000D01*
X179812Y334453D02*
X233547D01*
X180000Y330000D02*
X230000D01*
X180000Y290000D02*
X230000D01*
X170000Y270000D02*
X175359D01*
X170000Y350000D02*
X177359D01*
X179812Y254453D02*
X233547D01*
X175359Y280000D02*
X179812Y284453D01*
X166453Y245547D02*
X175547D01*
X166453Y215547D02*
X175547D01*
X170000Y290000D02*
X175359D01*
Y330000D02*
X179812Y334453D01*
X175547Y325547D02*
X180000Y330000D01*
X175547Y265547D02*
X180000Y270000D01*
X166453Y195547D02*
X175547D01*
X177359Y350000D02*
X181812Y354453D01*
X166453Y315547D02*
X175547D01*
X170000Y310000D02*
X175359D01*
X285547Y305547D02*
X290000Y310000D01*
X285547Y275547D02*
X290000Y280000D01*
X285547Y325547D02*
X290000Y330000D01*
X236453Y285547D02*
X285547D01*
Y335547D02*
X290000Y340000D01*
Y300000D02*
X300000D01*
X285547Y315547D02*
X290000Y320000D01*
X236453Y265547D02*
X245000D01*
X290000Y310000D02*
X300000D01*
X285547Y195547D02*
X290000Y200000D01*
X236453Y195547D02*
X285547D01*
X285360Y290000D02*
X289812Y294453D01*
X303547D01*
X240000Y310000D02*
X285360D01*
X289812Y314453D01*
X236453Y215547D02*
X285547D01*
X290000Y250000D02*
X300000D01*
X236453Y245547D02*
X285547D01*
X289812Y204453D02*
X303547D01*
X240000Y200000D02*
X285360D01*
X285547Y245547D02*
X290000Y250000D01*
X289812Y254453D02*
X303547D01*
X245000Y265547D02*
X285547D01*
X290000Y240000D02*
X300000D01*
X285360Y200000D02*
X289812Y204453D01*
X285360Y260000D02*
X289812Y264453D01*
X303547D01*
X285360Y230000D02*
X289812Y234453D01*
X303547D01*
X240000Y230000D02*
X285360D01*
X285547Y235547D02*
X290000Y240000D01*
X285360Y340000D02*
X289812Y344453D01*
X285547Y215547D02*
X290000Y220000D01*
X289812Y314453D02*
X303547D01*
X240000Y210000D02*
X285360D01*
X289812Y354453D02*
X303547D01*
X285360Y250000D02*
X289812Y254453D01*
X240000Y350000D02*
X285360D01*
Y330000D02*
X289812Y334453D01*
X285547Y345547D02*
X290000Y350000D01*
X285360D02*
X289812Y354453D01*
X236453Y305547D02*
X285547D01*
X289812Y284453D02*
X303547D01*
X289359Y274453D02*
X303547D01*
X289812Y224453D02*
X303547D01*
X289812Y214453D02*
X303547D01*
X285360Y320000D02*
X289812Y324453D01*
X285547Y225547D02*
X290000Y230000D01*
X285360Y280000D02*
X289812Y284453D01*
X240000Y250000D02*
X285360D01*
X289812Y334453D02*
X303547D01*
X236453Y335547D02*
X285547D01*
X236453Y295547D02*
X285547D01*
X286860Y355547D02*
X291312Y360000D01*
X285360Y300000D02*
X289812Y304453D01*
X290000Y280000D02*
X300000D01*
X236453Y315547D02*
X285547D01*
X285360Y210000D02*
X289812Y214453D01*
X290000Y210000D02*
X300000D01*
X290000Y340000D02*
X300000D01*
X289812Y344453D02*
X303547D01*
X290000Y270000D02*
X300000D01*
X236453Y185547D02*
X285547D01*
X290000Y260000D02*
X300000D01*
X289812Y194453D02*
X303547D01*
X285360Y240000D02*
X289812Y244453D01*
X240000Y220000D02*
X285360D01*
X236453Y205547D02*
X285547D01*
X290000Y330000D02*
X300000D01*
X290000Y200000D02*
X300000D01*
X290000Y350000D02*
X300000D01*
X290000Y230000D02*
X300000D01*
X285547Y265547D02*
X290000Y270000D01*
X285547Y255547D02*
X290000Y260000D01*
X285547Y185547D02*
X290000Y190000D01*
X240000D02*
X285360D01*
X240000Y240000D02*
X285360D01*
X236453Y325547D02*
X285547D01*
X285360Y220000D02*
X289812Y224453D01*
X236453Y255547D02*
X285547D01*
X240000Y340000D02*
X285360D01*
X290000Y220000D02*
X300000D01*
X290000Y290000D02*
X300000D01*
X285547Y205547D02*
X290000Y210000D01*
X240000Y260000D02*
X285360D01*
X285547Y295547D02*
X290000Y300000D01*
X240000D02*
X285360D01*
X284907Y270000D02*
X289359Y274453D01*
X290000Y190000D02*
X300000D01*
X236453Y225547D02*
X285547D01*
X289812Y324453D02*
X303547D01*
X290000Y320000D02*
X300000D01*
X285547Y285547D02*
X290000Y290000D01*
X285360Y190000D02*
X289812Y194453D01*
Y244453D02*
X303547D01*
X236453Y235547D02*
X285547D01*
X291312Y360000D02*
X300000D01*
X240000Y290000D02*
X285360D01*
X236453Y275547D02*
X285547D01*
X289812Y304453D02*
X303547D01*
X355360Y340000D02*
X359812Y344453D01*
X373547D01*
X355360Y220000D02*
X359812Y224453D01*
X355360Y310000D02*
X359812Y314453D01*
X355547Y255547D02*
X360000Y260000D01*
X306453Y215547D02*
X355547D01*
X360000Y220000D02*
X370000D01*
X360000Y290000D02*
X370000D01*
X355547Y285547D02*
X360000Y290000D01*
X359812Y354453D02*
X373547D01*
X310000Y350000D02*
X355360D01*
X359812Y314453D02*
X373547D01*
X355360Y350000D02*
X359812Y354453D01*
X355547Y195547D02*
X360000Y200000D01*
X370000D01*
X360000Y250000D02*
X370000D01*
X355547Y235547D02*
X360000Y240000D01*
X355547Y265547D02*
X360000Y270000D01*
X370000D01*
X310000Y220000D02*
X355360D01*
X306453Y265547D02*
X355547D01*
X310000Y230000D02*
X355360D01*
X359812Y234453D01*
X360000Y240000D02*
X370000D01*
X306453Y355547D02*
X355547D01*
X359812Y224453D02*
X373547D01*
X355547Y355547D02*
X360000Y360000D01*
X355360Y290000D02*
X359812Y294453D01*
X355360Y250000D02*
X359812Y254453D01*
X310000Y200000D02*
X355360D01*
X359812Y294453D02*
X373547D01*
X355547Y275547D02*
X360000Y280000D01*
X355360Y260000D02*
X359812Y264453D01*
X360000Y280000D02*
X370000D01*
X355360Y300000D02*
X359812Y304453D01*
X355547Y305547D02*
X360000Y310000D01*
X355547Y245547D02*
X360000Y250000D01*
X355360Y320000D02*
X359812Y324453D01*
X306453Y195547D02*
X355547D01*
Y205547D02*
X360000Y210000D01*
Y310000D02*
X370000D01*
X359812Y324453D02*
X373547D01*
X360000Y320000D02*
X370000D01*
X310000Y340000D02*
X355360D01*
X306453Y225547D02*
X355547D01*
X360000Y330000D02*
X370000D01*
X355360Y280000D02*
X359812Y284453D01*
X360000Y260000D02*
X370000D01*
X355360Y270000D02*
X359812Y274453D01*
X310000Y310000D02*
X355360D01*
X306453Y185547D02*
X355547D01*
X360000Y190000D01*
X355547Y345547D02*
X360000Y350000D01*
X306453Y295547D02*
X355547D01*
X306453Y255547D02*
X355547D01*
X355360Y200000D02*
X359812Y204453D01*
Y234453D02*
X373547D01*
X306453Y245547D02*
X355547D01*
X360000Y350000D02*
X370000D01*
X355360Y190000D02*
X359812Y194453D01*
Y244453D02*
X373547D01*
X360000Y230000D02*
X370000D01*
X306453Y205547D02*
X355547D01*
X355360Y330000D02*
X359812Y334453D01*
X306453Y335547D02*
X355547D01*
Y315547D02*
X360000Y320000D01*
X355547Y215547D02*
X360000Y220000D01*
X306453Y325547D02*
X355547D01*
Y335547D02*
X360000Y340000D01*
X310000Y320000D02*
X355360D01*
X360000Y360000D02*
X370000D01*
X355547Y225547D02*
X360000Y230000D01*
X359812Y334453D02*
X373547D01*
X310000Y290000D02*
X355360D01*
X306453Y275547D02*
X355547D01*
X306453Y235547D02*
X355547D01*
X360000Y340000D02*
X370000D01*
X360000Y300000D02*
X370000D01*
X306453Y315547D02*
X355547D01*
X306453Y305547D02*
X355547D01*
X310000Y330000D02*
X355360D01*
X359812Y264453D02*
X373547D01*
X355547Y325547D02*
X360000Y330000D01*
X359812Y214453D02*
X373547D01*
X359812Y254453D02*
X373547D01*
X360000Y190000D02*
X370000D01*
X359812Y284453D02*
X373547D01*
X359812Y274453D02*
X373547D01*
X360000Y210000D02*
X370000D01*
X359812Y194453D02*
X373547D01*
X310000Y240000D02*
X355360D01*
X310000Y210000D02*
X355360D01*
X310000Y260000D02*
X355360D01*
X310000Y250000D02*
X355360D01*
X359812Y204453D02*
X373547D01*
X306453Y345547D02*
X355547D01*
X310000Y280000D02*
X355360D01*
X359812Y304453D02*
X373547D01*
X355547Y295547D02*
X360000Y300000D01*
X310000Y190000D02*
X355360D01*
Y240000D02*
X359812Y244453D01*
X355360Y210000D02*
X359812Y214453D01*
X310000Y300000D02*
X355360D01*
X306453Y285547D02*
X355547D01*
X310000Y270000D02*
X355360D01*
X425359Y340000D02*
X429812Y344453D01*
X443547D01*
X425359Y220000D02*
X429812Y224453D01*
X380000Y260000D02*
X425359D01*
X429812Y264453D01*
X425359Y200000D02*
X429812Y204453D01*
X443547D01*
X425359Y310000D02*
X429812Y314453D01*
X443547D01*
X380000Y250000D02*
X425359D01*
X429812Y254453D02*
X443547D01*
X425547Y195547D02*
X430000Y200000D01*
X425359Y240000D02*
X429812Y244453D01*
X430000Y200000D02*
X440000D01*
X376453Y195547D02*
X425547D01*
X376453Y315547D02*
X425547D01*
X430000Y320000D02*
X440000D01*
X429812Y264453D02*
X443547D01*
X376453Y235547D02*
X425547D01*
Y245547D02*
X430000Y250000D01*
X376453Y205547D02*
X425547D01*
X430000Y210000D02*
X440000D01*
X429812Y224453D02*
X443547D01*
X425359Y300000D02*
X429812Y304453D01*
X380000Y300000D02*
X425359D01*
X429812Y304453D02*
X443547D01*
X376453Y295547D02*
X425547D01*
X425359Y210000D02*
X429812Y214453D01*
X380000Y190000D02*
X425359D01*
X425547Y315547D02*
X430000Y320000D01*
X429812Y214453D02*
X443547D01*
X429812Y194453D02*
X443547D01*
X380000Y270000D02*
X425359D01*
X376453Y215547D02*
X425547D01*
X429812Y274453D02*
X443547D01*
X429812Y234453D02*
X443547D01*
X425359Y270000D02*
X429812Y274453D01*
X425359Y230000D02*
X429812Y234453D01*
X380000Y290000D02*
X425359D01*
X430000Y240000D02*
X440000D01*
X425547Y305547D02*
X430000Y310000D01*
X425359Y320000D02*
X429812Y324453D01*
X430000Y300000D02*
X440000D01*
X425547Y205547D02*
X430000Y210000D01*
X376453Y185547D02*
X425547D01*
X430000Y220000D02*
X440000D01*
X380000Y230000D02*
X425359D01*
X425547Y325547D02*
X430000Y330000D01*
X429812Y294453D02*
X443547D01*
X425359Y280000D02*
X429812Y284453D01*
X425547Y235547D02*
X430000Y240000D01*
X425547Y335547D02*
X430000Y340000D01*
X380000Y320000D02*
X425359D01*
X429812Y284453D02*
X443547D01*
X376453Y325547D02*
X425547D01*
X380000Y330000D02*
X425359D01*
X429812Y324453D02*
X443547D01*
X380000Y220000D02*
X425359D01*
X380000Y280000D02*
X425359D01*
X430000Y330000D02*
X440000D01*
X380000Y340000D02*
X425359D01*
X380000Y350000D02*
X425359D01*
X376453Y245547D02*
X425547D01*
X430000Y270000D02*
X440000D01*
X425547Y285547D02*
X430000Y290000D01*
X429812Y334453D02*
X443547D01*
X376453Y275547D02*
X425547D01*
X425359Y250000D02*
X429812Y254453D01*
X430000Y230000D02*
X440000D01*
X425359Y190000D02*
X429812Y194453D01*
X430000Y290000D02*
X440000D01*
X430000Y280000D02*
X440000D01*
X380000Y210000D02*
X425359D01*
X376453Y255547D02*
X425547D01*
Y275547D02*
X430000Y280000D01*
X376453Y305547D02*
X425547D01*
X430000Y310000D02*
X440000D01*
X376453Y355547D02*
X425547D01*
Y225547D02*
X430000Y230000D01*
X425547Y295547D02*
X430000Y300000D01*
Y260000D02*
X440000D01*
X425547Y355547D02*
X430000Y360000D01*
X380000Y310000D02*
X425359D01*
X430000Y340000D02*
X440000D01*
X430000Y250000D02*
X440000D01*
X425547Y255547D02*
X430000Y260000D01*
X376453Y345547D02*
X425547D01*
X376453Y225547D02*
X425547D01*
X429812Y354453D02*
X443547D01*
X429812Y244453D02*
X443547D01*
X425547Y265547D02*
X430000Y270000D01*
Y360000D02*
X440000D01*
X430000Y190000D02*
X440000D01*
X380000Y200000D02*
X425359D01*
X430000Y350000D02*
X440000D01*
X425359D02*
X429812Y354453D01*
X380000Y240000D02*
X425359D01*
X376453Y265547D02*
X425547D01*
X425359Y330000D02*
X429812Y334453D01*
X376453Y335547D02*
X425547D01*
Y185547D02*
X430000Y190000D01*
X425547Y215547D02*
X430000Y220000D01*
X425359Y290000D02*
X429812Y294453D01*
X376453Y285547D02*
X425547D01*
Y345547D02*
X430000Y350000D01*
X380000Y367500D02*
X382500Y365000D01*
X445000D01*
X450000Y360000D01*
X495360Y290000D02*
X499812Y294453D01*
X450000Y290000D02*
X495360D01*
X499812Y294453D02*
X513547D01*
X495547Y195547D02*
X500000Y200000D01*
X510000D01*
X495547Y255547D02*
X500000Y260000D01*
X510000D01*
X446453Y255547D02*
X495547D01*
X495360Y230000D02*
X499812Y234453D01*
X495547Y285547D02*
X500000Y290000D01*
X510000D01*
X446453Y285547D02*
X495547D01*
X495360Y240000D02*
X499812Y244453D01*
Y234453D02*
X513547D01*
X495360Y260000D02*
X499812Y264453D01*
X513547D01*
X450000Y260000D02*
X495360D01*
X446453Y205547D02*
X495547D01*
X495360Y220000D02*
X499812Y224453D01*
X513547D01*
X450000Y330000D02*
X495360D01*
X499812Y334453D02*
X513547D01*
X495360Y330000D02*
X499812Y334453D01*
X495547Y205547D02*
X500000Y210000D01*
X446453Y355547D02*
X495547D01*
X500000Y340000D02*
X510000D01*
X450000Y230000D02*
X495360D01*
X446453Y335547D02*
X495547D01*
Y215547D02*
X500000Y220000D01*
X450000Y340000D02*
X495360D01*
X499812Y214453D02*
X513547D01*
X450000Y190000D02*
X495360D01*
X500000Y300000D02*
X510000D01*
X495547Y275547D02*
X500000Y280000D01*
X495547Y225547D02*
X500000Y230000D01*
X499812Y344453D02*
X513547D01*
X500000Y210000D02*
X510000D01*
X495360Y310000D02*
X499812Y314453D01*
X446453Y305547D02*
X495547D01*
X450000Y200000D02*
X495360D01*
Y250000D02*
X499812Y254453D01*
X495360Y280000D02*
X499812Y284453D01*
X495547Y305547D02*
X500000Y310000D01*
X446453Y345547D02*
X495547D01*
X500000Y220000D02*
X510000D01*
X446453Y295547D02*
X495547D01*
X450000Y210000D02*
X495360D01*
X450000Y280000D02*
X495360D01*
X499812Y194453D02*
X513547D01*
X495360Y320000D02*
X499812Y324453D01*
X500000Y280000D02*
X510000D01*
X446453Y215547D02*
X495547D01*
Y355547D02*
X500000Y360000D01*
Y250000D02*
X510000D01*
X500000Y310000D02*
X510000D01*
X499812Y354453D02*
X513547D01*
X450000Y320000D02*
X495360D01*
X499812Y284453D02*
X513547D01*
X450000Y350000D02*
X495360D01*
X500000D02*
X510000D01*
X499812Y324453D02*
X513547D01*
X500000Y320000D02*
X510000D01*
X446453Y275547D02*
X495547D01*
X495360Y350000D02*
X499812Y354453D01*
X495547Y335547D02*
X500000Y340000D01*
X446453Y185547D02*
X495547D01*
X450000Y250000D02*
X495360D01*
X495547Y185547D02*
X500000Y190000D01*
X446453Y235547D02*
X495547D01*
X500000Y230000D02*
X510000D01*
X495547Y325547D02*
X500000Y330000D01*
X446453Y225547D02*
X495547D01*
X499812Y314453D02*
X513547D01*
X495360Y270000D02*
X499812Y274453D01*
X495360Y200000D02*
X499812Y204453D01*
X495547Y235547D02*
X500000Y240000D01*
Y360000D02*
X510000D01*
X495360Y340000D02*
X499812Y344453D01*
X450000Y220000D02*
X495360D01*
X499812Y254453D02*
X513547D01*
X500000Y270000D02*
X510000D01*
X446453Y195547D02*
X495547D01*
X495360Y210000D02*
X499812Y214453D01*
X495547Y295547D02*
X500000Y300000D01*
X450000D02*
X495360D01*
Y190000D02*
X499812Y194453D01*
X450000Y270000D02*
X495360D01*
X499812Y204453D02*
X513547D01*
X495547Y245547D02*
X500000Y250000D01*
Y240000D02*
X510000D01*
X446453Y265547D02*
X495547D01*
X499812Y274453D02*
X513547D01*
X450000Y240000D02*
X495360D01*
X499812Y304453D02*
X513547D01*
X500000Y190000D02*
X510000D01*
X446453Y315547D02*
X495547D01*
X500000Y320000D01*
X499812Y244453D02*
X513547D01*
X495547Y345547D02*
X500000Y350000D01*
X495547Y265547D02*
X500000Y270000D01*
X495360Y300000D02*
X499812Y304453D01*
X446453Y245547D02*
X495547D01*
X450000Y310000D02*
X495360D01*
X446453Y325547D02*
X495547D01*
X500000Y330000D02*
X510000D01*
X565359D02*
X569812Y334453D01*
X565547Y275547D02*
X570000Y280000D01*
X565359Y290000D02*
X569812Y294453D01*
X565359Y210000D02*
X569812Y214453D01*
X520000Y210000D02*
X565359D01*
Y230000D02*
X569812Y234453D01*
X565359Y220000D02*
X569812Y224453D01*
X520000Y220000D02*
X565359D01*
X569812Y334453D02*
X583547D01*
X569812Y224453D02*
X583547D01*
X569812Y344453D02*
X583547D01*
X520000Y260000D02*
X565359D01*
X569812Y264453D02*
X583547D01*
X516453Y245547D02*
X565547D01*
X516453Y195547D02*
X565547D01*
X516453Y355547D02*
X565547D01*
X570000Y360000D02*
X580000D01*
X570000Y240000D02*
X580000D01*
X565547Y235547D02*
X570000Y240000D01*
X565547Y255547D02*
X570000Y260000D01*
X516453Y255547D02*
X565547D01*
X570000Y260000D02*
X580000D01*
X570000Y280000D02*
X580000D01*
X565547Y335547D02*
X570000Y340000D01*
X520000Y190000D02*
X565359D01*
X520000Y250000D02*
X565359D01*
X569812Y274453D02*
X583547D01*
X565359Y260000D02*
X569812Y264453D01*
X565547Y265547D02*
X570000Y270000D01*
X516453Y185547D02*
X565547D01*
X565359Y350000D02*
X569812Y354453D01*
X565547Y285547D02*
X570000Y290000D01*
X565359Y300000D02*
X569812Y304453D01*
X570000Y300000D02*
X580000D01*
X569812Y214453D02*
X583547D01*
X569812Y354453D02*
X583547D01*
X570000Y250000D02*
X580000D01*
X516453Y225547D02*
X565547D01*
X570000Y220000D02*
X580000D01*
X565547Y355547D02*
X570000Y360000D01*
Y310000D02*
X580000D01*
X516453Y285547D02*
X565547D01*
X570000Y190000D02*
X580000D01*
X520000Y230000D02*
X565359D01*
Y270000D02*
X569812Y274453D01*
X565547Y315547D02*
X570000Y320000D01*
Y230000D02*
X580000D01*
X565359Y240000D02*
X569812Y244453D01*
X565547Y225547D02*
X570000Y230000D01*
X565359Y190000D02*
X569812Y194453D01*
Y254453D02*
X583547D01*
X565359Y280000D02*
X569812Y284453D01*
X565359Y310000D02*
X569812Y314453D01*
X565547Y345547D02*
X570000Y350000D01*
X569812Y194453D02*
X583547D01*
X565359Y250000D02*
X569812Y254453D01*
X516453Y265547D02*
X565547D01*
X516453Y205547D02*
X565547D01*
X520000Y330000D02*
X565359D01*
X520000Y310000D02*
X565359D01*
X516453Y335547D02*
X565547D01*
X516453Y345547D02*
X565547D01*
X570000Y210000D02*
X580000D01*
X520000Y280000D02*
X565359D01*
X516453Y315547D02*
X565547D01*
X569812Y244453D02*
X583547D01*
X569812Y324453D02*
X583547D01*
X565359Y340000D02*
X569812Y344453D01*
Y284453D02*
X583547D01*
X569812Y234453D02*
X583547D01*
X565359Y320000D02*
X569812Y324453D01*
X520000Y340000D02*
X565359D01*
X520000Y270000D02*
X565359D01*
X516453Y235547D02*
X565547D01*
X570000Y200000D02*
X580000D01*
X520000D02*
X565359D01*
X569812Y294453D02*
X583547D01*
X570000Y270000D02*
X580000D01*
X516453Y295547D02*
X565547D01*
X516453Y275547D02*
X565547D01*
Y305547D02*
X570000Y310000D01*
Y290000D02*
X580000D01*
X520000Y300000D02*
X565359D01*
X570000Y340000D02*
X580000D01*
X570000Y320000D02*
X580000D01*
X569812Y204453D02*
X583547D01*
X516453Y215547D02*
X565547D01*
X570000Y330000D02*
X580000D01*
X565547Y185547D02*
X570000Y190000D01*
X516453Y305547D02*
X565547D01*
X569812Y304453D02*
X583547D01*
X565359Y200000D02*
X569812Y204453D01*
X520000Y290000D02*
X565359D01*
X565547Y205547D02*
X570000Y210000D01*
X520000Y320000D02*
X565359D01*
X516453Y325547D02*
X565547D01*
X570000Y330000D01*
Y350000D02*
X580000D01*
X565547Y215547D02*
X570000Y220000D01*
X520000Y350000D02*
X565359D01*
X565547Y245547D02*
X570000Y250000D01*
X520000Y240000D02*
X565359D01*
X565547Y295547D02*
X570000Y300000D01*
X565547Y195547D02*
X570000Y200000D01*
X569812Y314453D02*
X583547D01*
X639812Y204453D02*
X653547D01*
X590000Y210000D02*
X635359D01*
Y310000D02*
X639812Y314453D01*
Y324453D02*
X653547D01*
X590000Y320000D02*
X635359D01*
X639812Y324453D01*
X635359Y190000D02*
X639812Y194453D01*
X635547Y285547D02*
X640000Y290000D01*
X639812Y194453D02*
X653547D01*
X635547Y255547D02*
X640000Y260000D01*
X635547Y215547D02*
X640000Y220000D01*
X650000D01*
X586453Y215547D02*
X635547D01*
Y195547D02*
X640000Y200000D01*
X639812Y294453D02*
X653547D01*
X635359Y290000D02*
X639812Y294453D01*
X590000Y290000D02*
X635359D01*
X639812Y344453D02*
X653547D01*
X635359Y220000D02*
X639812Y224453D01*
X640000Y290000D02*
X650000D01*
X639812Y314453D02*
X653547D01*
X635359Y260000D02*
X639812Y264453D01*
Y254453D02*
X653547D01*
X640000Y250000D02*
X650000D01*
X635359Y240000D02*
X639812Y244453D01*
X635359Y250000D02*
X639812Y254453D01*
X586453Y245547D02*
X635547D01*
X640000Y350000D02*
X650000D01*
X635547Y325547D02*
X640000Y330000D01*
X586453Y335547D02*
X635547D01*
X586453Y305547D02*
X635547D01*
X586453Y345547D02*
X635547D01*
X635359Y330000D02*
X639812Y334453D01*
X640000Y300000D02*
X650000D01*
X635547Y275547D02*
X640000Y280000D01*
Y260000D02*
X650000D01*
X635547Y305547D02*
X640000Y310000D01*
X586453Y285547D02*
X635547D01*
Y265547D02*
X640000Y270000D01*
X639812Y334453D02*
X653547D01*
X640000Y360000D02*
X650000D01*
X640000Y270000D02*
X650000D01*
X635547Y335547D02*
X640000Y340000D01*
X590000Y230000D02*
X635359D01*
X635547Y245547D02*
X640000Y250000D01*
X639812Y244453D02*
X653547D01*
X640000Y330000D02*
X650000D01*
X640000Y280000D02*
X650000D01*
X640000Y200000D02*
X650000D01*
X586453Y255547D02*
X635547D01*
X590000Y280000D02*
X635359D01*
X590000Y340000D02*
X635359D01*
X590000Y220000D02*
X635359D01*
X590000Y260000D02*
X635359D01*
X640000Y240000D02*
X650000D01*
X590000Y350000D02*
X635359D01*
X639812Y214453D02*
X653547D01*
X635359Y280000D02*
X639812Y284453D01*
X640000Y310000D02*
X650000D01*
X590000D02*
X635359D01*
X590000Y330000D02*
X635359D01*
X635547Y355547D02*
X640000Y360000D01*
X586453Y265547D02*
X635547D01*
X640000Y340000D02*
X650000D01*
X590000Y270000D02*
X635359D01*
X590000Y200000D02*
X635359D01*
X639812Y274453D02*
X653547D01*
X586453Y315547D02*
X635547D01*
X635359Y200000D02*
X639812Y204453D01*
X635547Y225547D02*
X640000Y230000D01*
X586453Y235547D02*
X635547D01*
X590000Y250000D02*
X635359D01*
X586453Y295547D02*
X635547D01*
Y345547D02*
X640000Y350000D01*
X586453Y355547D02*
X635547D01*
X635359Y340000D02*
X639812Y344453D01*
X586453Y205547D02*
X635547D01*
X639812Y224453D02*
X653547D01*
X639812Y304453D02*
X653547D01*
X590000Y190000D02*
X635359D01*
X639812Y264453D02*
X653547D01*
X586453Y185547D02*
X635547D01*
Y235547D02*
X640000Y240000D01*
X586453Y195547D02*
X635547D01*
X635359Y270000D02*
X639812Y274453D01*
X635547Y315547D02*
X640000Y320000D01*
X635547Y185547D02*
X640000Y190000D01*
X586453Y225547D02*
X635547D01*
X586453Y325547D02*
X635547D01*
X640000Y320000D02*
X650000D01*
X635547Y295547D02*
X640000Y300000D01*
X586453Y275547D02*
X635547D01*
X635359Y300000D02*
X639812Y304453D01*
X640000Y230000D02*
X650000D01*
X640000Y210000D02*
X650000D01*
X635359Y350000D02*
X639812Y354453D01*
X635359Y210000D02*
X639812Y214453D01*
Y234453D02*
X653547D01*
X639812Y284453D02*
X653547D01*
X590000Y300000D02*
X635359D01*
X635547Y205547D02*
X640000Y210000D01*
X639812Y354453D02*
X653547D01*
X635359Y230000D02*
X639812Y234453D01*
X590000Y240000D02*
X635359D01*
X640000Y190000D02*
X650000D01*
X705360Y320000D02*
X709812Y324453D01*
X705547Y275547D02*
X710000Y280000D01*
X705360Y290000D02*
X709812Y294453D01*
X705547Y255547D02*
X710000Y260000D01*
X709812Y294453D02*
X723547D01*
X705360Y200000D02*
X709812Y204453D01*
X710000Y260000D02*
X720000D01*
X705547Y225547D02*
X710000Y230000D01*
X720000D01*
X656453Y225547D02*
X705547D01*
X656453Y335547D02*
X705547D01*
Y345547D02*
X710000Y350000D01*
X720000D01*
X656453Y255547D02*
X705547D01*
X705360Y260000D02*
X709812Y264453D01*
X723547D01*
X710000Y340000D02*
X720000D01*
X705360Y220000D02*
X709812Y224453D01*
X723547D01*
X710000Y280000D02*
X720000D01*
X660000Y220000D02*
X705360D01*
Y340000D02*
X709812Y344453D01*
X660000Y340000D02*
X705360D01*
X709812Y344453D02*
X723547D01*
X656453Y345547D02*
X705547D01*
X709812Y244453D02*
X723547D01*
X705360Y310000D02*
X709812Y314453D01*
X705547Y305547D02*
X710000Y310000D01*
Y190000D02*
X720000D01*
X705547Y335547D02*
X710000Y340000D01*
X656453Y235547D02*
X705547D01*
X709812Y314453D02*
X723547D01*
X705360Y210000D02*
X709812Y214453D01*
X656453Y205547D02*
X705547D01*
X656453Y185547D02*
X705547D01*
X710000Y240000D02*
X720000D01*
X705547Y325547D02*
X710000Y330000D01*
X705547Y205547D02*
X710000Y210000D01*
X705547Y265547D02*
X710000Y270000D01*
X705360Y330000D02*
X709812Y334453D01*
Y194453D02*
X723547D01*
X656453Y275547D02*
X705547D01*
X709812Y324453D02*
X723547D01*
X709812Y274453D02*
X723547D01*
X710000Y300000D02*
X720000D01*
X705360D02*
X709812Y304453D01*
Y284453D02*
X723547D01*
X705547Y195547D02*
X710000Y200000D01*
X705360Y190000D02*
X709812Y194453D01*
Y304453D02*
X723547D01*
X705547Y295547D02*
X710000Y300000D01*
X660000Y270000D02*
X705360D01*
X710000Y320000D02*
X720000D01*
X709812Y204453D02*
X723547D01*
X710000Y310000D02*
X720000D01*
X705360Y250000D02*
X709812Y254453D01*
X710000Y270000D02*
X720000D01*
X656453Y315547D02*
X705547D01*
X705360Y280000D02*
X709812Y284453D01*
X660000Y290000D02*
X705360D01*
X656453Y265547D02*
X705547D01*
X709812Y354453D02*
X723547D01*
X709812Y334453D02*
X723547D01*
X705360Y270000D02*
X709812Y274453D01*
X660000Y200000D02*
X705360D01*
X656453Y305547D02*
X705547D01*
X710000Y360000D02*
X720000D01*
X656453Y295547D02*
X705547D01*
X660000Y300000D02*
X705360D01*
X660000Y330000D02*
X705360D01*
Y240000D02*
X709812Y244453D01*
X660000Y310000D02*
X705360D01*
X710000Y210000D02*
X720000D01*
X660000Y260000D02*
X705360D01*
X660000Y210000D02*
X705360D01*
X656453Y325547D02*
X705547D01*
Y245547D02*
X710000Y250000D01*
X705360Y350000D02*
X709812Y354453D01*
X705547Y235547D02*
X710000Y240000D01*
Y290000D02*
X720000D01*
X705547Y185547D02*
X710000Y190000D01*
X709812Y214453D02*
X723547D01*
X660000Y240000D02*
X705360D01*
X710000Y330000D02*
X720000D01*
X660000Y250000D02*
X705360D01*
X656453Y215547D02*
X705547D01*
X710000Y200000D02*
X720000D01*
X710000Y250000D02*
X720000D01*
X705547Y285547D02*
X710000Y290000D01*
X705547Y355547D02*
X710000Y360000D01*
X660000Y190000D02*
X705360D01*
X660000Y320000D02*
X705360D01*
X709812Y254453D02*
X723547D01*
X660000Y350000D02*
X705360D01*
Y230000D02*
X709812Y234453D01*
X656453Y245547D02*
X705547D01*
X656453Y285547D02*
X705547D01*
X656453Y355547D02*
X705547D01*
Y315547D02*
X710000Y320000D01*
Y220000D02*
X720000D01*
X656453Y195547D02*
X705547D01*
Y215547D02*
X710000Y220000D01*
X660000Y280000D02*
X705360D01*
X660000Y230000D02*
X705360D01*
X709812Y234453D02*
X723547D01*
X775359Y240000D02*
X779812Y244453D01*
X730000Y340000D02*
X775359D01*
X779812Y344453D01*
X775547Y275547D02*
X780000Y280000D01*
X790000D01*
X780000Y260000D02*
X790000D01*
X726453Y255547D02*
X775547D01*
X779812Y244453D02*
X793547D01*
X775547Y285547D02*
X780000Y290000D01*
X726453Y285547D02*
X775547D01*
X780000Y290000D02*
X790000D01*
X775359Y280000D02*
X779812Y284453D01*
X793547D01*
X775547Y255547D02*
X780000Y260000D01*
X730000D02*
X775359D01*
X779812Y264453D01*
X730000Y330000D02*
X775359D01*
X775547Y245547D02*
X780000Y250000D01*
X775359Y230000D02*
X779812Y234453D01*
X793547D01*
X775359Y330000D02*
X779812Y334453D01*
X780000Y230000D02*
X790000D01*
X779812Y334453D02*
X793547D01*
X779812Y194453D02*
X793547D01*
X775547Y355547D02*
X780000Y360000D01*
X779812Y264453D02*
X793547D01*
X775359Y190000D02*
X779812Y194453D01*
X775547Y265547D02*
X780000Y270000D01*
X775547Y345547D02*
X780000Y350000D01*
X775359Y250000D02*
X779812Y254453D01*
X726453Y275547D02*
X775547D01*
Y195547D02*
X780000Y200000D01*
Y350000D02*
X790000D01*
X730000Y320000D02*
X775359D01*
X780000Y270000D02*
X790000D01*
X779812Y254453D02*
X793547D01*
X730000Y300000D02*
X775359D01*
X775547Y205547D02*
X780000Y210000D01*
X775359Y220000D02*
X779812Y224453D01*
X775547Y235547D02*
X780000Y240000D01*
Y360000D02*
X790000D01*
X730000Y210000D02*
X775359D01*
X779812Y224453D02*
X793547D01*
X726453Y235547D02*
X775547D01*
X779812Y344453D02*
X793547D01*
X780000Y240000D02*
X790000D01*
X780000Y220000D02*
X790000D01*
X780000Y330000D02*
X790000D01*
X775547Y295547D02*
X780000Y300000D01*
Y190000D02*
X790000D01*
X775547Y305547D02*
X780000Y310000D01*
X730000Y200000D02*
X775359D01*
X780000Y250000D02*
X790000D01*
X779812Y314453D02*
X793547D01*
X730000Y350000D02*
X775359D01*
X726453Y225547D02*
X775547D01*
X780000Y200000D02*
X790000D01*
X775547Y335547D02*
X780000Y340000D01*
X726453Y345547D02*
X775547D01*
X775359Y320000D02*
X779812Y324453D01*
X730000Y250000D02*
X775359D01*
X779812Y304453D02*
X793547D01*
X780000Y210000D02*
X790000D01*
X730000Y240000D02*
X775359D01*
X780000Y340000D02*
X790000D01*
X726453Y205547D02*
X775547D01*
X779812Y274453D02*
X793547D01*
X726453Y315547D02*
X775547D01*
X730000Y230000D02*
X775359D01*
X779812Y324453D02*
X793547D01*
X775547Y325547D02*
X780000Y330000D01*
X775359Y300000D02*
X779812Y304453D01*
X780000Y300000D02*
X790000D01*
X780000Y310000D02*
X790000D01*
X779812Y204453D02*
X793547D01*
X775359Y310000D02*
X779812Y314453D01*
X726453Y215547D02*
X775547D01*
X726453Y325547D02*
X775547D01*
X726453Y295547D02*
X775547D01*
X726453Y185547D02*
X775547D01*
X726453Y305547D02*
X775547D01*
X775359Y200000D02*
X779812Y204453D01*
X775359Y270000D02*
X779812Y274453D01*
X730000Y290000D02*
X775359D01*
X726453Y245547D02*
X775547D01*
X730000Y310000D02*
X775359D01*
X730000Y190000D02*
X775359D01*
X775547Y225547D02*
X780000Y230000D01*
Y320000D02*
X790000D01*
X730000Y280000D02*
X775359D01*
X726453Y335547D02*
X775547D01*
X779812Y214453D02*
X793547D01*
X730000Y220000D02*
X775359D01*
X726453Y195547D02*
X775547D01*
Y315547D02*
X780000Y320000D01*
X726453Y355547D02*
X775547D01*
X775359Y210000D02*
X779812Y214453D01*
X775547Y215547D02*
X780000Y220000D01*
X779812Y354453D02*
X793547D01*
X730000Y270000D02*
X775359D01*
X779812Y294453D02*
X793547D01*
X775547Y185547D02*
X780000Y190000D01*
X775359Y290000D02*
X779812Y294453D01*
X775359Y350000D02*
X779812Y354453D01*
X726453Y265547D02*
X775547D01*
X915547Y315547D02*
X920000Y320000D01*
X930000D01*
X870000Y200000D02*
X915359D01*
X919812Y204453D01*
X933547D01*
X915359Y310000D02*
X919812Y314453D01*
X933547D01*
X915547Y285547D02*
X920000Y290000D01*
X930000D01*
X866453Y285547D02*
X915547D01*
Y215547D02*
X920000Y220000D01*
X930000D01*
X915547Y245547D02*
X920000Y250000D01*
X915359Y280000D02*
X919812Y284453D01*
X920000Y250000D02*
X930000D01*
X915547Y345547D02*
X920000Y350000D01*
X930000D01*
X866453Y345547D02*
X915547D01*
X915359Y330000D02*
X919812Y334453D01*
X933547D01*
X915547Y335547D02*
X920000Y340000D01*
X915547Y195547D02*
X920000Y200000D01*
X866453Y245547D02*
X915547D01*
X919812Y284453D02*
X933547D01*
X920000Y200000D02*
X930000D01*
X866453Y195547D02*
X915547D01*
X915359Y300000D02*
X919812Y304453D01*
X870000Y250000D02*
X915359D01*
Y240000D02*
X919812Y244453D01*
X870000Y230000D02*
X915359D01*
X866453Y315547D02*
X915547D01*
X919812Y254453D02*
X933547D01*
X915547Y185547D02*
X920000Y190000D01*
X919812Y234453D02*
X933547D01*
X870000Y210000D02*
X915359D01*
X870000Y300000D02*
X915359D01*
X866453Y335547D02*
X915547D01*
X919812Y264453D02*
X933547D01*
X870000Y240000D02*
X915359D01*
Y340000D02*
X919812Y344453D01*
X866453Y235547D02*
X915547D01*
X915359Y210000D02*
X919812Y214453D01*
X915359Y260000D02*
X919812Y264453D01*
Y344453D02*
X933547D01*
X915547Y235547D02*
X920000Y240000D01*
X915547Y305547D02*
X920000Y310000D01*
X866453Y205547D02*
X915547D01*
X919812Y244453D02*
X933547D01*
X870000Y340000D02*
X915359D01*
Y230000D02*
X919812Y234453D01*
X920000Y240000D02*
X930000D01*
X915359Y290000D02*
X919812Y294453D01*
X920000Y300000D02*
X930000D01*
X866453Y185547D02*
X915547D01*
X920000Y210000D02*
X930000D01*
X920000Y310000D02*
X930000D01*
X870000Y280000D02*
X915359D01*
X915547Y265547D02*
X920000Y270000D01*
X870000Y260000D02*
X915359D01*
Y250000D02*
X919812Y254453D01*
X870000Y320000D02*
X915359D01*
X919812Y214453D02*
X933547D01*
X920000Y340000D02*
X930000D01*
X920000Y280000D02*
X930000D01*
X919812Y304453D02*
X933547D01*
X870000Y190000D02*
X915359D01*
X866453Y275547D02*
X915547D01*
X866453Y265547D02*
X915547D01*
Y295547D02*
X920000Y300000D01*
X915547Y275547D02*
X920000Y280000D01*
Y270000D02*
X930000D01*
X870000Y290000D02*
X915359D01*
X866453Y295547D02*
X915547D01*
X920000Y190000D02*
X930000D01*
X915547Y205547D02*
X920000Y210000D01*
X866453Y305547D02*
X915547D01*
X919812Y274453D02*
X933547D01*
X915359Y220000D02*
X919812Y224453D01*
X920000Y260000D02*
X930000D01*
X919812Y324453D02*
X933547D01*
X915359Y190000D02*
X919812Y194453D01*
X866453Y225547D02*
X915547D01*
X870000Y330000D02*
X915359D01*
X919812Y294453D02*
X933547D01*
X866453Y325547D02*
X915547D01*
X915359Y270000D02*
X919812Y274453D01*
X866453Y215547D02*
X915547D01*
X870000Y310000D02*
X915359D01*
X920000Y330000D02*
X930000D01*
X866453Y255547D02*
X915547D01*
X920000Y360000D02*
X930000D01*
X919812Y194453D02*
X933547D01*
X920000Y230000D02*
X930000D01*
X915547Y325547D02*
X920000Y330000D01*
X915547Y355547D02*
X920000Y360000D01*
X915547Y225547D02*
X920000Y230000D01*
X870000Y350000D02*
X915359D01*
X870000Y270000D02*
X915359D01*
X919812Y224453D02*
X933547D01*
X919812Y354453D02*
X933547D01*
X870000Y220000D02*
X915359D01*
X915547Y255547D02*
X920000Y260000D01*
X915359Y320000D02*
X919812Y324453D01*
X866453Y355547D02*
X915547D01*
X915359Y350000D02*
X919812Y354453D01*
X807000Y578000D02*
X842500D01*
X844000D01*
X450000Y500000D02*
X493000D01*
X497347Y504347D01*
X525153D01*
X529500Y500000D02*
X560500D01*
X525153Y504347D02*
X529500Y500000D01*
X380000Y480000D02*
X450000D01*
X455000Y485000D01*
X515000D02*
X520000Y480000D01*
X455000Y485000D02*
X515000D01*
X870000Y480000D02*
X880000D01*
X870000Y490000D02*
X880000D01*
X840500Y500000D02*
X844847Y504347D01*
X875153D02*
X879500Y500000D01*
X844847Y504347D02*
X875153D01*
X770500Y500000D02*
X774847Y504347D01*
X809500Y500000D02*
X840500D01*
X805153Y504347D02*
X809500Y500000D01*
X774847Y504347D02*
X805153D01*
X700500Y500000D02*
X704847Y504347D01*
X739500Y500000D02*
X770500D01*
X735153Y504347D02*
X739500Y500000D01*
X704847Y504347D02*
X735153D01*
X630500Y500000D02*
X634847Y504347D01*
X669500Y500000D02*
X700500D01*
X665153Y504347D02*
X669500Y500000D01*
X634847Y504347D02*
X665153D01*
X330000Y500000D02*
X380000D01*
X310000D02*
X330000D01*
X564847Y504347D02*
X595153D01*
X599500Y500000D01*
X630500D01*
X560500D02*
X564847Y504347D01*
X450000Y510000D02*
X454053Y505947D01*
X515947D01*
X520000Y510000D01*
X240000Y600000D02*
X280000D01*
X240000Y590000D02*
X277500D01*
X132500Y712500D02*
X300000D01*
X125000Y705000D02*
X132500Y712500D01*
X265000Y387500D02*
X330000D01*
X332500Y385000D01*
X397500D01*
X262500Y390000D02*
X265000Y387500D01*
X397500Y385000D02*
X400000Y382500D01*
X127500Y690000D02*
X230000D01*
X130000Y680000D02*
X230000D01*
X120000Y575000D02*
X139500D01*
X115000Y570000D02*
X120000Y575000D01*
X120000D02*
X120000D01*
X132500Y685000D02*
X235000D01*
X120000Y505000D02*
X137500D01*
X120000Y515000D02*
X135000D01*
X115000Y500000D02*
X120000Y505000D01*
X115000Y510000D02*
X120000Y515000D01*
Y525000D02*
X132500D01*
X115000Y520000D02*
X120000Y525000D01*
X235000Y685000D02*
X240000Y680000D01*
X122600Y664100D02*
X137900D01*
X125000Y660000D02*
X138000D01*
X125000Y650000D02*
X142000D01*
X120000Y645000D02*
X142500D01*
X153000Y634500D01*
X115000Y640000D02*
X120000Y645000D01*
Y625000D02*
X142500D01*
X115000Y620000D02*
X120000Y625000D01*
X142500D02*
X153000Y614500D01*
X142500Y635000D02*
X153000Y624500D01*
X120000Y635000D02*
X142500D01*
X115000Y630000D02*
X120000Y635000D01*
Y565000D02*
X142000D01*
X120000D02*
X120000D01*
Y585000D02*
X137000D01*
X142500Y615000D02*
X153000Y604500D01*
X115000Y610000D02*
X120000Y615000D01*
X142500D01*
X143500Y604000D02*
X153000Y594500D01*
X115000Y600000D02*
X119000Y604000D01*
X124348D01*
X125652D02*
X143500D01*
X120000Y595000D02*
X142500D01*
X153000Y584500D01*
X115000Y590000D02*
X120000Y595000D01*
X115000Y295000D02*
X148500D01*
X115000Y245000D02*
X148500D01*
X115000Y255000D02*
X148500D01*
X115000Y225000D02*
X148500D01*
Y315000D02*
X158500Y305000D01*
X115000Y315000D02*
X148500D01*
Y245000D02*
X158500Y235000D01*
X148500Y225000D02*
X158500Y215000D01*
X148500Y295000D02*
X158500Y285000D01*
X148500Y325000D02*
X158500Y315000D01*
X115000Y235000D02*
X148500D01*
X115000Y215000D02*
X148500D01*
X115000Y275000D02*
X148500D01*
Y285000D02*
X158500Y275000D01*
X148500Y255000D02*
X158500Y245000D01*
X148500Y265000D02*
X158500Y255000D01*
X148500Y305000D02*
X158500Y295000D01*
X148500Y235000D02*
X158500Y225000D01*
X148500Y215000D02*
X158500Y205000D01*
X115000Y285000D02*
X148500D01*
X115000Y265000D02*
X148500D01*
X115000Y305000D02*
X148500D01*
X115000Y205000D02*
X148500D01*
Y275000D02*
X158500Y265000D01*
X148500Y205000D02*
X158500Y195000D01*
X115000Y325000D02*
X148500D01*
X139500Y700000D02*
X439500D01*
X142000Y697500D02*
X437000D01*
X138000Y660000D02*
X152300Y645700D01*
X235700D01*
X232939Y269061D02*
X236453Y265547D01*
X207500Y260000D02*
X230000D01*
X212500Y240000D02*
X230000D01*
X220000Y210000D02*
X230000D01*
X217500Y220000D02*
X230000D01*
X215000Y230000D02*
X230000D01*
X222500Y200000D02*
X230000D01*
X149500Y710000D02*
X429500D01*
X149500D02*
X149500D01*
X147000Y707500D02*
X432000D01*
X144500Y705000D02*
X434500D01*
X120000Y535000D02*
X142000D01*
X115000Y530000D02*
X120000Y535000D01*
Y545000D02*
X142000D01*
X115000Y540000D02*
X120000Y545000D01*
X125000Y560000D02*
X142000D01*
X156300Y545700D02*
X242400D01*
X142000Y560000D02*
X156300Y545700D01*
X115000Y550000D02*
X120000Y555000D01*
X142000D01*
X115000Y560000D02*
X120000Y565000D01*
X115000Y580000D02*
X120000Y585000D01*
X137000Y702500D02*
X442000D01*
X137900Y664100D02*
X146300Y655700D01*
X120000Y655000D02*
Y661500D01*
X122600Y664100D01*
X115000Y650000D02*
X120000Y655000D01*
X179500Y643000D02*
X225500D01*
X226600Y644100D01*
X375900D02*
X380000Y640000D01*
X226600Y644100D02*
X375900D01*
X179500Y633000D02*
X225500D01*
X226600Y634100D01*
X375900D02*
X380000Y630000D01*
X226600Y634100D02*
X375900D01*
X179500Y623000D02*
X225500D01*
X226600Y624100D01*
X375900D02*
X380000Y620000D01*
X226600Y624100D02*
X375900D01*
X179500Y613000D02*
X225500D01*
X226600Y614100D01*
X375900D02*
X380000Y610000D01*
X226600Y614100D02*
X375900D01*
X179500Y603000D02*
X225500D01*
X226600Y604100D01*
X375900D02*
X380000Y600000D01*
X226600Y604100D02*
X375900D01*
X226600Y594100D02*
X375900D01*
X380000Y590000D01*
X225500Y593000D02*
X226600Y594100D01*
X179500Y593000D02*
X225500D01*
X115000Y660000D02*
X120700Y665700D01*
X146300Y655700D02*
X235700D01*
X120700Y665700D02*
X235700D01*
X240000Y670000D01*
X235700Y655700D02*
X240000Y660000D01*
X235700Y645700D02*
X240000Y650000D01*
X142000D02*
X156300Y635700D01*
X235700D02*
X240000Y640000D01*
X156300Y635700D02*
X235700D01*
X125000Y640000D02*
X142000D01*
X156300Y625700D01*
X235700D02*
X240000Y630000D01*
X156300Y625700D02*
X235700D01*
X125000Y630000D02*
X142000D01*
X156300Y615700D01*
X235700D02*
X240000Y620000D01*
X156300Y615700D02*
X235700D01*
X125000Y620000D02*
X142000D01*
X156300Y605700D01*
X235700D02*
X240000Y610000D01*
X156300Y605700D02*
X235700D01*
X125000Y610000D02*
X142000D01*
X156300Y595700D01*
X235700D02*
X240000Y600000D01*
X156300Y595700D02*
X235700D01*
X156300Y585700D02*
X235700D01*
X240000Y590000D01*
X142000Y600000D02*
X156300Y585700D01*
X125000Y600000D02*
X142000D01*
X160000Y660000D02*
X164100Y664100D01*
X173600D02*
X177700Y660000D01*
X230000D01*
X164100Y664100D02*
X173600D01*
X160000Y670000D02*
X164100Y674100D01*
X173600D02*
X177700Y670000D01*
X230000D01*
X164100Y674100D02*
X173600D01*
X125000Y590000D02*
X142000D01*
X246700Y580000D02*
X300000D01*
X242400Y575700D02*
X246700Y580000D01*
X142000Y590000D02*
X156300Y575700D01*
X242400D01*
X156300Y565700D02*
X242400D01*
X142000Y580000D02*
X156300Y565700D01*
X242400D02*
X246700Y570000D01*
X300000D01*
X125000Y580000D02*
X142000D01*
X156300Y555700D02*
X242400D01*
X142000Y570000D02*
X156300Y555700D01*
X242400D02*
X246700Y560000D01*
X300000D01*
X125000Y570000D02*
X142000D01*
X380000Y510000D02*
X450000D01*
X380000Y520000D02*
X450000D01*
X380000Y530000D02*
X450000D01*
X380000Y540000D02*
X450000D01*
X380000Y550000D02*
X450000D01*
X380000Y560000D02*
X450000D01*
X380000Y570000D02*
X450000D01*
X380000Y580000D02*
X450000D01*
X310000D02*
X380000D01*
X310000Y570000D02*
X380000D01*
X310000Y560000D02*
X380000D01*
X310000Y550000D02*
X380000D01*
X310000Y540000D02*
X380000D01*
X310000Y530000D02*
X380000D01*
X310000Y520000D02*
X380000D01*
X310000Y510000D02*
X380000D01*
X310000Y490000D02*
X380000D01*
Y500000D02*
X450000D01*
X380000Y490000D02*
X450000D01*
X310000Y480000D02*
X380000D01*
X164100Y634100D02*
X173600D01*
X177700Y630000D02*
X230000D01*
X173600Y634100D02*
X177700Y630000D01*
X160000D02*
X164100Y634100D01*
Y654100D02*
X173600D01*
X177700Y650000D02*
X230000D01*
X173600Y654100D02*
X177700Y650000D01*
X160000D02*
X164100Y654100D01*
Y644100D02*
X173600D01*
X177700Y640000D02*
X230000D01*
X173600Y644100D02*
X177700Y640000D01*
X160000D02*
X164100Y644100D01*
X160000Y610000D02*
X164100Y614100D01*
X173600D02*
X177700Y610000D01*
X230000D01*
X164100Y614100D02*
X173600D01*
X160000Y620000D02*
X164100Y624100D01*
X173600D02*
X177700Y620000D01*
X230000D01*
X164100Y624100D02*
X173600D01*
X160000Y590000D02*
X164100Y594100D01*
X173600D02*
X177700Y590000D01*
X230000D01*
X164100Y594100D02*
X173600D01*
X160000Y600000D02*
X164100Y604100D01*
X173600D02*
X177700Y600000D01*
X230000D01*
X164100Y604100D02*
X173600D01*
X160000Y570000D02*
X164100Y574100D01*
X173600D02*
X177700Y570000D01*
X230000D01*
X164100Y574100D02*
X173600D01*
X160000Y580000D02*
X164100Y584100D01*
X173600D02*
X177700Y580000D01*
X230000D01*
X164100Y584100D02*
X173600D01*
X164100Y564100D02*
X173600D01*
X177700Y560000D02*
X230000D01*
X173600Y564100D02*
X177700Y560000D01*
X160000D02*
X164100Y564100D01*
Y554100D02*
X173600D01*
X177700Y550000D02*
X230000D01*
X173600Y554100D02*
X177700Y550000D01*
X160000D02*
X164100Y554100D01*
X160000Y540000D02*
X164100Y544100D01*
X246700Y550000D02*
X300000D01*
X173600Y544100D02*
X177700Y540000D01*
X230000D01*
X164100Y544100D02*
X173600D01*
X242400Y545700D02*
X246700Y550000D01*
X160000Y530000D02*
X164100Y534100D01*
X125000Y550000D02*
X142000D01*
X246700Y540000D02*
X300000D01*
X173600Y534100D02*
X177700Y530000D01*
X230000D01*
X164100Y534100D02*
X173600D01*
X242400Y535700D02*
X246700Y540000D01*
X142000Y550000D02*
X156300Y535700D01*
X242400D01*
X160000Y520000D02*
X164100Y524100D01*
X125000Y540000D02*
X142000D01*
X246700Y530000D02*
X300000D01*
X173600Y524100D02*
X177700Y520000D01*
X230000D01*
X164100Y524100D02*
X173600D01*
X242400Y525700D02*
X246700Y530000D01*
X142000Y540000D02*
X156300Y525700D01*
X242400D01*
X160000Y510000D02*
X164100Y514100D01*
X125000Y530000D02*
X142000D01*
X246700Y520000D02*
X300000D01*
X173600Y514100D02*
X177700Y510000D01*
X230000D01*
X164100Y514100D02*
X173600D01*
X242400Y515700D02*
X246700Y520000D01*
X142000Y530000D02*
X156300Y515700D01*
X242400D01*
X160000Y500000D02*
X164100Y504100D01*
X125000Y520000D02*
X142000D01*
X246700Y510000D02*
X300000D01*
X173600Y504100D02*
X177700Y500000D01*
X230000D01*
X164100Y504100D02*
X173600D01*
X242400Y505700D02*
X246700Y510000D01*
X142000Y520000D02*
X156300Y505700D01*
X242400D01*
X160000Y490000D02*
X164100Y494100D01*
X125000Y510000D02*
X142000D01*
X246700Y500000D02*
X300000D01*
X173600Y494100D02*
X177700Y490000D01*
X230000D01*
X164100Y494100D02*
X173600D01*
X242400Y495700D02*
X246700Y500000D01*
X142000Y510000D02*
X156300Y495700D01*
X242400D01*
X125000Y490000D02*
X142000D01*
X246700Y480000D02*
X300000D01*
X242400Y475700D02*
X246700Y480000D01*
X142000Y490000D02*
X156300Y475700D01*
X242400D01*
X156300Y485700D02*
X242400D01*
X142000Y500000D02*
X156300Y485700D01*
X242400D02*
X246700Y490000D01*
X164100Y484100D02*
X173600D01*
X177700Y480000D02*
X230000D01*
X173600Y484100D02*
X177700Y480000D01*
X246700Y490000D02*
X300000D01*
X125000Y500000D02*
X142000D01*
X160000Y480000D02*
X164100Y484100D01*
X516500Y580000D02*
X520000D01*
X455000Y575000D02*
X511500D01*
X516500Y580000D01*
X807000Y668000D02*
X844000D01*
X800000Y670000D02*
X805000D01*
X807000Y668000D01*
X794053Y674053D02*
X855947D01*
X809000Y671000D02*
X849000D01*
X865947Y665947D02*
X870000Y670000D01*
X846053Y665947D02*
X865947D01*
X776053D02*
X795947D01*
X636053D02*
X655947D01*
X720000Y670000D02*
X724053Y674053D01*
X704000Y668000D02*
X706053Y665947D01*
X667000Y668000D02*
X704000D01*
X715947Y674053D02*
X720000Y670000D01*
X669000Y671000D02*
X709000D01*
X710000Y670000D01*
X725947Y665947D02*
X730000Y670000D01*
X706053Y665947D02*
X725947D01*
X660000Y670000D02*
X665000D01*
X667000Y668000D01*
X655947Y665947D02*
X660000Y670000D01*
X595000D02*
X597000Y668000D01*
X634000D02*
X636053Y665947D01*
X597000Y668000D02*
X634000D01*
X590000Y670000D02*
X595000D01*
X584053Y674053D02*
X645947D01*
X599000Y671000D02*
X639000D01*
X580000Y670000D02*
X584053Y674053D01*
X566053Y665947D02*
X585947D01*
X590000Y670000D01*
X730000D02*
X735000D01*
X737000Y668000D01*
X724053Y674053D02*
X785947D01*
X520000Y670000D02*
X525000D01*
X774000Y668000D02*
X776053Y665947D01*
X737000Y668000D02*
X774000D01*
X739000Y671000D02*
X779000D01*
X849000D02*
X850000Y670000D01*
X855947Y674053D02*
X860000Y670000D01*
X844000Y668000D02*
X846053Y665947D01*
X654053Y674053D02*
X715947D01*
X639000Y671000D02*
X640000Y670000D01*
X650000D02*
X654053Y674053D01*
X645947D02*
X650000Y670000D01*
X785947Y674053D02*
X790000Y670000D01*
X779000Y671000D02*
X780000Y670000D01*
X790000D02*
X794053Y674053D01*
X795947Y665947D02*
X800000Y670000D01*
X807000Y658000D02*
X844000D01*
X800000Y660000D02*
X805000D01*
X807000Y658000D01*
X794053Y664053D02*
X855947D01*
X809000Y661000D02*
X849000D01*
X865947Y655947D02*
X870000Y660000D01*
X846053Y655947D02*
X865947D01*
X776053D02*
X795947D01*
X636053D02*
X655947D01*
X720000Y660000D02*
X724053Y664053D01*
X704000Y658000D02*
X706053Y655947D01*
X667000Y658000D02*
X704000D01*
X715947Y664053D02*
X720000Y660000D01*
X669000Y661000D02*
X709000D01*
X710000Y660000D01*
X725947Y655947D02*
X730000Y660000D01*
X706053Y655947D02*
X725947D01*
X660000Y660000D02*
X665000D01*
X667000Y658000D01*
X655947Y655947D02*
X660000Y660000D01*
X595000D02*
X597000Y658000D01*
X634000D02*
X636053Y655947D01*
X597000Y658000D02*
X634000D01*
X590000Y660000D02*
X595000D01*
X584053Y664053D02*
X645947D01*
X599000Y661000D02*
X639000D01*
X514053Y664053D02*
X575947D01*
X580000Y660000D02*
X584053Y664053D01*
X575947D02*
X580000Y660000D01*
X566053Y655947D02*
X585947D01*
X590000Y660000D01*
X730000D02*
X735000D01*
X737000Y658000D01*
X724053Y664053D02*
X785947D01*
X520000Y660000D02*
X525000D01*
X510000D02*
X514053Y664053D01*
X774000Y658000D02*
X776053Y655947D01*
X737000Y658000D02*
X774000D01*
X739000Y661000D02*
X779000D01*
X849000D02*
X850000Y660000D01*
X855947Y664053D02*
X860000Y660000D01*
X844000Y658000D02*
X846053Y655947D01*
X654053Y664053D02*
X715947D01*
X639000Y661000D02*
X640000Y660000D01*
X650000D02*
X654053Y664053D01*
X645947D02*
X650000Y660000D01*
X785947Y664053D02*
X790000Y660000D01*
X779000Y661000D02*
X780000Y660000D01*
X790000D02*
X794053Y664053D01*
X795947Y655947D02*
X800000Y660000D01*
X807000Y648000D02*
X844000D01*
X800000Y650000D02*
X805000D01*
X807000Y648000D01*
X794053Y654053D02*
X855947D01*
X809000Y651000D02*
X849000D01*
X865947Y645947D02*
X870000Y650000D01*
X846053Y645947D02*
X865947D01*
X776053D02*
X795947D01*
X636053D02*
X655947D01*
X720000Y650000D02*
X724053Y654053D01*
X704000Y648000D02*
X706053Y645947D01*
X667000Y648000D02*
X704000D01*
X715947Y654053D02*
X720000Y650000D01*
X669000Y651000D02*
X709000D01*
X710000Y650000D01*
X725947Y645947D02*
X730000Y650000D01*
X706053Y645947D02*
X725947D01*
X660000Y650000D02*
X665000D01*
X667000Y648000D01*
X655947Y645947D02*
X660000Y650000D01*
X595000D02*
X597000Y648000D01*
X634000D02*
X636053Y645947D01*
X597000Y648000D02*
X634000D01*
X590000Y650000D02*
X595000D01*
X584053Y654053D02*
X645947D01*
X599000Y651000D02*
X639000D01*
X529000D02*
X569000D01*
X580000Y650000D02*
X584053Y654053D01*
X575947D02*
X580000Y650000D01*
X569000Y651000D02*
X570000Y650000D01*
X730000D02*
X735000D01*
X737000Y648000D01*
X724053Y654053D02*
X785947D01*
X774000Y648000D02*
X776053Y645947D01*
X737000Y648000D02*
X774000D01*
X739000Y651000D02*
X779000D01*
X849000D02*
X850000Y650000D01*
X855947Y654053D02*
X860000Y650000D01*
X844000Y648000D02*
X846053Y645947D01*
X654053Y654053D02*
X715947D01*
X639000Y651000D02*
X640000Y650000D01*
X650000D02*
X654053Y654053D01*
X645947D02*
X650000Y650000D01*
X785947Y654053D02*
X790000Y650000D01*
X779000Y651000D02*
X780000Y650000D01*
X790000D02*
X794053Y654053D01*
X795947Y645947D02*
X800000Y650000D01*
X807000Y638000D02*
X844000D01*
X800000Y640000D02*
X805000D01*
X807000Y638000D01*
X794053Y644053D02*
X855947D01*
X809000Y641000D02*
X849000D01*
X865947Y635947D02*
X870000Y640000D01*
X846053Y635947D02*
X865947D01*
X776053D02*
X795947D01*
X636053D02*
X655947D01*
X720000Y640000D02*
X724053Y644053D01*
X704000Y638000D02*
X706053Y635947D01*
X667000Y638000D02*
X704000D01*
X715947Y644053D02*
X720000Y640000D01*
X669000Y641000D02*
X709000D01*
X710000Y640000D01*
X725947Y635947D02*
X730000Y640000D01*
X706053Y635947D02*
X725947D01*
X660000Y640000D02*
X665000D01*
X667000Y638000D01*
X655947Y635947D02*
X660000Y640000D01*
X595000D02*
X597000Y638000D01*
X634000D02*
X636053Y635947D01*
X597000Y638000D02*
X634000D01*
X590000Y640000D02*
X595000D01*
X584053Y644053D02*
X645947D01*
X599000Y641000D02*
X639000D01*
X514053Y644053D02*
X575947D01*
X529000Y641000D02*
X569000D01*
X580000Y640000D02*
X584053Y644053D01*
X575947D02*
X580000Y640000D01*
X569000Y641000D02*
X570000Y640000D01*
X730000D02*
X735000D01*
X737000Y638000D01*
X724053Y644053D02*
X785947D01*
X510000Y640000D02*
X514053Y644053D01*
X774000Y638000D02*
X776053Y635947D01*
X737000Y638000D02*
X774000D01*
X739000Y641000D02*
X779000D01*
X849000D02*
X850000Y640000D01*
X855947Y644053D02*
X860000Y640000D01*
X844000Y638000D02*
X846053Y635947D01*
X654053Y644053D02*
X715947D01*
X639000Y641000D02*
X640000Y640000D01*
X650000D02*
X654053Y644053D01*
X645947D02*
X650000Y640000D01*
X785947Y644053D02*
X790000Y640000D01*
X779000Y641000D02*
X780000Y640000D01*
X790000D02*
X794053Y644053D01*
X795947Y635947D02*
X800000Y640000D01*
X807000Y628000D02*
X844000D01*
X800000Y630000D02*
X805000D01*
X807000Y628000D01*
X794053Y634053D02*
X855947D01*
X809000Y631000D02*
X849000D01*
X865947Y625947D02*
X870000Y630000D01*
X846053Y625947D02*
X865947D01*
X776053D02*
X795947D01*
X636053D02*
X655947D01*
X720000Y630000D02*
X724053Y634053D01*
X704000Y628000D02*
X706053Y625947D01*
X667000Y628000D02*
X704000D01*
X715947Y634053D02*
X720000Y630000D01*
X669000Y631000D02*
X709000D01*
X710000Y630000D01*
X725947Y625947D02*
X730000Y630000D01*
X706053Y625947D02*
X725947D01*
X660000Y630000D02*
X665000D01*
X667000Y628000D01*
X655947Y625947D02*
X660000Y630000D01*
X595000D02*
X597000Y628000D01*
X634000D02*
X636053Y625947D01*
X597000Y628000D02*
X634000D01*
X590000Y630000D02*
X595000D01*
X584053Y634053D02*
X645947D01*
X599000Y631000D02*
X639000D01*
X514053Y634053D02*
X575947D01*
X529000Y631000D02*
X569000D01*
X580000Y630000D02*
X584053Y634053D01*
X575947D02*
X580000Y630000D01*
X569000Y631000D02*
X570000Y630000D01*
X730000D02*
X735000D01*
X737000Y628000D01*
X724053Y634053D02*
X785947D01*
X510000Y630000D02*
X514053Y634053D01*
X774000Y628000D02*
X776053Y625947D01*
X737000Y628000D02*
X774000D01*
X739000Y631000D02*
X779000D01*
X849000D02*
X850000Y630000D01*
X855947Y634053D02*
X860000Y630000D01*
X844000Y628000D02*
X846053Y625947D01*
X654053Y634053D02*
X715947D01*
X639000Y631000D02*
X640000Y630000D01*
X650000D02*
X654053Y634053D01*
X645947D02*
X650000Y630000D01*
X785947Y634053D02*
X790000Y630000D01*
X779000Y631000D02*
X780000Y630000D01*
X790000D02*
X794053Y634053D01*
X795947Y625947D02*
X800000Y630000D01*
X807000Y618000D02*
X844000D01*
X800000Y620000D02*
X805000D01*
X807000Y618000D01*
X794053Y624053D02*
X855947D01*
X809000Y621000D02*
X849000D01*
X865947Y615947D02*
X870000Y620000D01*
X846053Y615947D02*
X865947D01*
X776053D02*
X795947D01*
X636053D02*
X655947D01*
X720000Y620000D02*
X724053Y624053D01*
X704000Y618000D02*
X706053Y615947D01*
X667000Y618000D02*
X704000D01*
X715947Y624053D02*
X720000Y620000D01*
X669000Y621000D02*
X709000D01*
X710000Y620000D01*
X725947Y615947D02*
X730000Y620000D01*
X706053Y615947D02*
X725947D01*
X660000Y620000D02*
X665000D01*
X667000Y618000D01*
X655947Y615947D02*
X660000Y620000D01*
X595000D02*
X597000Y618000D01*
X634000D02*
X636053Y615947D01*
X597000Y618000D02*
X634000D01*
X590000Y620000D02*
X595000D01*
X584053Y624053D02*
X645947D01*
X599000Y621000D02*
X639000D01*
X514053Y624053D02*
X575947D01*
X529000Y621000D02*
X569000D01*
X580000Y620000D02*
X584053Y624053D01*
X575947D02*
X580000Y620000D01*
X569000Y621000D02*
X570000Y620000D01*
X730000D02*
X735000D01*
X737000Y618000D01*
X724053Y624053D02*
X785947D01*
X510000Y620000D02*
X514053Y624053D01*
X774000Y618000D02*
X776053Y615947D01*
X737000Y618000D02*
X774000D01*
X739000Y621000D02*
X779000D01*
X849000D02*
X850000Y620000D01*
X855947Y624053D02*
X860000Y620000D01*
X844000Y618000D02*
X846053Y615947D01*
X654053Y624053D02*
X715947D01*
X639000Y621000D02*
X640000Y620000D01*
X650000D02*
X654053Y624053D01*
X645947D02*
X650000Y620000D01*
X785947Y624053D02*
X790000Y620000D01*
X779000Y621000D02*
X780000Y620000D01*
X790000D02*
X794053Y624053D01*
X795947Y615947D02*
X800000Y620000D01*
X807000Y608000D02*
X844000D01*
X800000Y610000D02*
X805000D01*
X807000Y608000D01*
X794053Y614053D02*
X855947D01*
X809000Y611000D02*
X849000D01*
X865947Y605947D02*
X870000Y610000D01*
X846053Y605947D02*
X865947D01*
X776053D02*
X795947D01*
X636053D02*
X655947D01*
X720000Y610000D02*
X724053Y614053D01*
X704000Y608000D02*
X706053Y605947D01*
X667000Y608000D02*
X704000D01*
X715947Y614053D02*
X720000Y610000D01*
X669000Y611000D02*
X709000D01*
X710000Y610000D01*
X725947Y605947D02*
X730000Y610000D01*
X706053Y605947D02*
X725947D01*
X660000Y610000D02*
X665000D01*
X667000Y608000D01*
X655947Y605947D02*
X660000Y610000D01*
X595000D02*
X597000Y608000D01*
X634000D02*
X636053Y605947D01*
X597000Y608000D02*
X634000D01*
X590000Y610000D02*
X595000D01*
X584053Y614053D02*
X645947D01*
X599000Y611000D02*
X639000D01*
X514053Y614053D02*
X575947D01*
X529000Y611000D02*
X569000D01*
X580000Y610000D02*
X584053Y614053D01*
X575947D02*
X580000Y610000D01*
X569000Y611000D02*
X570000Y610000D01*
X730000D02*
X735000D01*
X737000Y608000D01*
X724053Y614053D02*
X785947D01*
X510000Y610000D02*
X514053Y614053D01*
X774000Y608000D02*
X776053Y605947D01*
X737000Y608000D02*
X774000D01*
X739000Y611000D02*
X779000D01*
X849000D02*
X850000Y610000D01*
X855947Y614053D02*
X860000Y610000D01*
X844000Y608000D02*
X846053Y605947D01*
X654053Y614053D02*
X715947D01*
X639000Y611000D02*
X640000Y610000D01*
X650000D02*
X654053Y614053D01*
X645947D02*
X650000Y610000D01*
X785947Y614053D02*
X790000Y610000D01*
X779000Y611000D02*
X780000Y610000D01*
X790000D02*
X794053Y614053D01*
X795947Y605947D02*
X800000Y610000D01*
X807000Y598000D02*
X844000D01*
X800000Y600000D02*
X805000D01*
X807000Y598000D01*
X794053Y604053D02*
X855947D01*
X809000Y601000D02*
X849000D01*
X865947Y595947D02*
X870000Y600000D01*
X846053Y595947D02*
X865947D01*
X776053D02*
X795947D01*
X636053D02*
X655947D01*
X720000Y600000D02*
X724053Y604053D01*
X704000Y598000D02*
X706053Y595947D01*
X667000Y598000D02*
X704000D01*
X715947Y604053D02*
X720000Y600000D01*
X669000Y601000D02*
X709000D01*
X710000Y600000D01*
X725947Y595947D02*
X730000Y600000D01*
X706053Y595947D02*
X725947D01*
X660000Y600000D02*
X665000D01*
X667000Y598000D01*
X655947Y595947D02*
X660000Y600000D01*
X595000D02*
X597000Y598000D01*
X634000D02*
X636053Y595947D01*
X597000Y598000D02*
X634000D01*
X590000Y600000D02*
X595000D01*
X584053Y604053D02*
X645947D01*
X599000Y601000D02*
X639000D01*
X514053Y604053D02*
X575947D01*
X527000Y598000D02*
X564000D01*
X529000Y601000D02*
X569000D01*
X580000Y600000D02*
X584053Y604053D01*
X564000Y598000D02*
X566053Y595947D01*
X575947Y604053D02*
X580000Y600000D01*
X566053Y595947D02*
X585947D01*
X569000Y601000D02*
X570000Y600000D01*
X585947Y595947D02*
X590000Y600000D01*
X730000D02*
X735000D01*
X737000Y598000D01*
X724053Y604053D02*
X785947D01*
X520000Y600000D02*
X525000D01*
X527000Y598000D01*
X510000Y600000D02*
X514053Y604053D01*
X774000Y598000D02*
X776053Y595947D01*
X737000Y598000D02*
X774000D01*
X739000Y601000D02*
X779000D01*
X849000D02*
X850000Y600000D01*
X855947Y604053D02*
X860000Y600000D01*
X844000Y598000D02*
X846053Y595947D01*
X654053Y604053D02*
X715947D01*
X639000Y601000D02*
X640000Y600000D01*
X650000D02*
X654053Y604053D01*
X645947D02*
X650000Y600000D01*
X785947Y604053D02*
X790000Y600000D01*
X779000Y601000D02*
X780000Y600000D01*
X790000D02*
X794053Y604053D01*
X795947Y595947D02*
X800000Y600000D01*
X807000Y588000D02*
X844000D01*
X800000Y590000D02*
X805000D01*
X807000Y588000D01*
X794053Y594053D02*
X855947D01*
X809000Y591000D02*
X849000D01*
X865947Y585947D02*
X870000Y590000D01*
X846053Y585947D02*
X865947D01*
X776053D02*
X795947D01*
X636053D02*
X655947D01*
X720000Y590000D02*
X724053Y594053D01*
X704000Y588000D02*
X706053Y585947D01*
X667000Y588000D02*
X704000D01*
X715947Y594053D02*
X720000Y590000D01*
X669000Y591000D02*
X709000D01*
X710000Y590000D01*
X725947Y585947D02*
X730000Y590000D01*
X706053Y585947D02*
X725947D01*
X660000Y590000D02*
X665000D01*
X667000Y588000D01*
X655947Y585947D02*
X660000Y590000D01*
X595000D02*
X597000Y588000D01*
X634000D02*
X636053Y585947D01*
X597000Y588000D02*
X634000D01*
X590000Y590000D02*
X595000D01*
X584053Y594053D02*
X645947D01*
X599000Y591000D02*
X639000D01*
X514053Y594053D02*
X575947D01*
X527000Y588000D02*
X564000D01*
X529000Y591000D02*
X569000D01*
X580000Y590000D02*
X584053Y594053D01*
X564000Y588000D02*
X566053Y585947D01*
X575947Y594053D02*
X580000Y590000D01*
X566053Y585947D02*
X585947D01*
X569000Y591000D02*
X570000Y590000D01*
X585947Y585947D02*
X590000Y590000D01*
X730000D02*
X735000D01*
X737000Y588000D01*
X724053Y594053D02*
X785947D01*
X520000Y590000D02*
X525000D01*
X527000Y588000D01*
X510000Y590000D02*
X514053Y594053D01*
X774000Y588000D02*
X776053Y585947D01*
X737000Y588000D02*
X774000D01*
X739000Y591000D02*
X779000D01*
X849000D02*
X850000Y590000D01*
X855947Y594053D02*
X860000Y590000D01*
X844000Y588000D02*
X846053Y585947D01*
X654053Y594053D02*
X715947D01*
X639000Y591000D02*
X640000Y590000D01*
X650000D02*
X654053Y594053D01*
X645947D02*
X650000Y590000D01*
X785947Y594053D02*
X790000Y590000D01*
X779000Y591000D02*
X780000Y590000D01*
X790000D02*
X794053Y594053D01*
X795947Y585947D02*
X800000Y590000D01*
X450000Y580000D02*
X455000Y575000D01*
X204500Y390000D02*
X262500D01*
X327500Y385000D02*
X330000Y382500D01*
X202000Y387500D02*
X260000D01*
X262500Y385000D02*
X327500D01*
X260000Y387500D02*
X262500Y385000D01*
X325000Y382500D02*
X327500Y380000D01*
X199500Y385000D02*
X257500D01*
X260000Y382500D02*
X325000D01*
X257500Y385000D02*
X260000Y382500D01*
X322500Y380000D02*
X325000Y377500D01*
X197000Y382500D02*
X255000D01*
X257500Y380000D02*
X322500D01*
X255000Y382500D02*
X257500Y380000D01*
X320000Y377500D02*
X322500Y375000D01*
X194500Y380000D02*
X252500D01*
X255000Y377500D02*
X320000D01*
X252500Y380000D02*
X255000Y377500D01*
X317500Y375000D02*
X320000Y372500D01*
X192000Y377500D02*
X250000D01*
X252500Y375000D02*
X317500D01*
X250000Y377500D02*
X252500Y375000D01*
X315000Y372500D02*
X317500Y370000D01*
X189500Y375000D02*
X247500D01*
X250000Y372500D02*
X315000D01*
X247500Y375000D02*
X250000Y372500D01*
X312500Y370000D02*
X315000Y367500D01*
X187000Y372500D02*
X245000D01*
X247500Y370000D02*
X312500D01*
X245000Y372500D02*
X247500Y370000D01*
X310000Y367500D02*
X312500Y365000D01*
X184500Y370000D02*
X242500D01*
X245000Y367500D02*
X310000D01*
X242500Y370000D02*
X245000Y367500D01*
X182000D02*
X240000D01*
X242500Y365000D01*
X305000D01*
X310000Y360000D01*
X315000Y367500D02*
X380000D01*
X330000Y382500D02*
X395000D01*
X327500Y380000D02*
X392500D01*
X325000Y377500D02*
X390000D01*
X322500Y375000D02*
X387500D01*
X320000Y372500D02*
X385000D01*
X317500Y370000D02*
X382500D01*
X312500Y365000D02*
X375000D01*
X535000Y377500D02*
X600000D01*
X602500Y375000D01*
X667500D01*
X670000Y372500D01*
X735000D01*
X737500Y370000D01*
X802500D01*
X805000Y367500D01*
X870000D01*
X872500Y365000D01*
X935000D01*
X940000Y360000D01*
X532500Y375000D02*
X597500D01*
X600000Y372500D01*
X665000D01*
X667500Y370000D01*
X732500D01*
X735000Y367500D01*
X800000D01*
X802500Y365000D01*
X865000D01*
X870000Y360000D01*
X530000Y372500D02*
X595000D01*
X597500Y370000D01*
X662500D01*
X665000Y367500D01*
X730000D01*
X732500Y365000D01*
X795000D01*
X800000Y360000D01*
X532500Y380000D02*
X535000Y377500D01*
X530000D02*
X532500Y375000D01*
X527500D02*
X530000Y372500D01*
X467500Y380000D02*
X532500D01*
X465000Y382500D02*
X467500Y380000D01*
X400000Y382500D02*
X465000D01*
Y377500D02*
X530000D01*
X462500Y380000D02*
X465000Y377500D01*
X397500Y380000D02*
X462500D01*
Y375000D02*
X527500D01*
X460000Y377500D02*
X462500Y375000D01*
X725000Y365000D02*
X730000Y360000D01*
X662500Y365000D02*
X725000D01*
X595000Y367500D02*
X660000D01*
X662500Y365000D01*
X592500Y370000D02*
X595000Y367500D01*
X527500Y370000D02*
X592500D01*
X525000Y372500D02*
X527500Y370000D01*
X655000Y365000D02*
X660000Y360000D01*
X592500Y365000D02*
X655000D01*
X590000Y367500D02*
X592500Y365000D01*
X525000Y367500D02*
X590000D01*
X522500Y370000D02*
X525000Y367500D01*
X457500Y370000D02*
X522500D01*
X585000Y365000D02*
X590000Y360000D01*
X522500Y365000D02*
X585000D01*
X520000Y367500D02*
X522500Y365000D01*
X460000Y372500D02*
X525000D01*
X457500Y375000D02*
X460000Y372500D01*
X392500Y375000D02*
X457500D01*
X455000Y372500D02*
X457500Y370000D01*
X390000Y372500D02*
X455000D01*
Y367500D02*
X520000D01*
X452500Y370000D02*
X455000Y367500D01*
X395000Y382500D02*
X397500Y380000D01*
X392500D02*
X395000Y377500D01*
X460000D01*
X390000D02*
X392500Y375000D01*
X387500D02*
X390000Y372500D01*
X387500Y370000D02*
X452500D01*
X385000Y372500D02*
X387500Y370000D01*
X515000Y365000D02*
X520000Y360000D01*
X452500Y365000D02*
X515000D01*
X450000Y367500D02*
X452500Y365000D01*
X385000Y367500D02*
X450000D01*
X382500Y370000D02*
X385000Y367500D01*
X375000Y365000D02*
X380000Y360000D01*
X179500Y365000D02*
X235000D01*
X240000Y360000D01*
X158500Y295000D02*
X162000D01*
X167000Y290000D01*
X170000D01*
X110000Y300000D02*
X115000Y305000D01*
X158500D02*
X162000D01*
X167000Y300000D01*
X170000D01*
X110000Y310000D02*
X115000Y315000D01*
X158500D02*
X162000D01*
X167000Y310000D01*
X170000D01*
X110000Y320000D02*
X115000Y325000D01*
X159000Y360000D02*
X160000D01*
X149000Y370000D02*
X159000Y360000D01*
X120000Y370000D02*
X149000D01*
X159000Y350000D02*
X160000D01*
X149000Y360000D02*
X159000Y350000D01*
X120000Y360000D02*
X149000D01*
X159000Y340000D02*
X160000D01*
X149000Y350000D02*
X159000Y340000D01*
X120000Y350000D02*
X149000D01*
X159000Y330000D02*
X160000D01*
X149000Y340000D02*
X159000Y330000D01*
X120000Y340000D02*
X149000D01*
X159000Y320000D02*
X160000D01*
X149000Y330000D02*
X159000Y320000D01*
X120000Y330000D02*
X149000D01*
X159000Y310000D02*
X160000D01*
X149000Y320000D02*
X159000Y310000D01*
X120000Y320000D02*
X149000D01*
X159000Y300000D02*
X160000D01*
X149000Y310000D02*
X159000Y300000D01*
X120000Y310000D02*
X149000D01*
X159000Y290000D02*
X160000D01*
X149000Y300000D02*
X159000Y290000D01*
X120000Y300000D02*
X149000D01*
X159000Y280000D02*
X160000D01*
X149000Y290000D02*
X159000Y280000D01*
X120000Y290000D02*
X149000D01*
X159000Y270000D02*
X160000D01*
X149000Y280000D02*
X159000Y270000D01*
X120000Y280000D02*
X149000D01*
X110000Y290000D02*
X115000Y295000D01*
X167000Y280000D02*
X170000D01*
X162000Y285000D02*
X167000Y280000D01*
X158500Y285000D02*
X162000D01*
X110000Y280000D02*
X115000Y285000D01*
X167000Y270000D02*
X170000D01*
X162000Y275000D02*
X167000Y270000D01*
X158500Y275000D02*
X162000D01*
X158500Y265000D02*
X162000D01*
X158500Y255000D02*
X162000D01*
X167000Y250000D01*
X162000Y265000D02*
X167000Y260000D01*
X170000D01*
X442939Y269061D02*
X446453Y265547D01*
X372939Y269061D02*
X376453Y265547D01*
X582939Y269061D02*
X586453Y265547D01*
X792939Y269061D02*
X796453Y265547D01*
X162939Y269061D02*
X166453Y265547D01*
X302939Y269061D02*
X306453Y265547D01*
X652939Y269061D02*
X656453Y265547D01*
X512939Y269061D02*
X516453Y265547D01*
X862939Y269061D02*
X866453Y265547D01*
X722939Y269061D02*
X726453Y265547D01*
X110000Y270000D02*
X115000Y275000D01*
X120000Y270000D02*
X149000D01*
X159000Y260000D01*
X160000D01*
X110000D02*
X115000Y265000D01*
X167000Y250000D02*
X170000D01*
X120000Y260000D02*
X149000D01*
X159000Y250000D01*
X160000D01*
X110000D02*
X115000Y255000D01*
X162000Y245000D02*
X167000Y240000D01*
X170000D01*
X158500Y245000D02*
X162000D01*
X120000Y250000D02*
X149000D01*
X159000Y240000D01*
X160000D01*
X110000D02*
X115000Y245000D01*
X162000Y235000D02*
X167000Y230000D01*
X170000D01*
X158500Y235000D02*
X162000D01*
X120000Y240000D02*
X149000D01*
X159000Y230000D01*
X160000D01*
X110000D02*
X115000Y235000D01*
X162000Y225000D02*
X167000Y220000D01*
X170000D01*
X158500Y225000D02*
X162000D01*
X120000Y230000D02*
X149000D01*
X159000Y220000D01*
X160000D01*
X110000D02*
X115000Y225000D01*
X162000Y215000D02*
X167000Y210000D01*
X170000D01*
X158500Y215000D02*
X162000D01*
X120000Y220000D02*
X149000D01*
X159000Y210000D01*
X160000D01*
X110000D02*
X115000Y215000D01*
X162000Y205000D02*
X167000Y200000D01*
X170000D01*
X158500Y205000D02*
X162000D01*
X120000Y210000D02*
X149000D01*
X159000Y200000D01*
X160000D01*
X159000Y190000D02*
X160000D01*
X149000Y200000D02*
X159000Y190000D01*
X120000Y200000D02*
X149000D01*
X158500Y195000D02*
X162000D01*
X162939Y189061D02*
X166453Y185547D01*
X162939Y199061D02*
X166453Y195547D01*
X160000Y200000D02*
X160939Y199061D01*
X162939D01*
X167000Y190000D02*
X170000D01*
X162000Y195000D02*
X167000Y190000D01*
X110000Y200000D02*
X115000Y205000D01*
X245000Y585000D02*
X305000D01*
X240000Y580000D02*
X245000Y585000D01*
X305000D02*
X310000Y580000D01*
X245000Y575000D02*
X305000D01*
X240000Y570000D02*
X245000Y575000D01*
X305000D02*
X310000Y570000D01*
X450000D02*
X455000Y565000D01*
X511500D02*
X516500Y570000D01*
X455000Y565000D02*
X511500D01*
X516500Y570000D02*
X520000D01*
X245000Y565000D02*
X305000D01*
X240000Y560000D02*
X245000Y565000D01*
X305000D02*
X310000Y560000D01*
X450000D02*
X455000Y555000D01*
X511500D02*
X516500Y560000D01*
X455000Y555000D02*
X511500D01*
X516500Y560000D02*
X520000D01*
X245000Y555000D02*
X305000D01*
X240000Y550000D02*
X245000Y555000D01*
X305000D02*
X310000Y550000D01*
X450000D02*
X455000Y545000D01*
X511500D02*
X516500Y550000D01*
X455000Y545000D02*
X511500D01*
X516500Y550000D02*
X520000D01*
X245000Y545000D02*
X305000D01*
X240000Y540000D02*
X245000Y545000D01*
X305000D02*
X310000Y540000D01*
X450000D02*
X455000Y535000D01*
X511500D02*
X516500Y540000D01*
X455000Y535000D02*
X511500D01*
X516500Y540000D02*
X520000D01*
X245000Y535000D02*
X305000D01*
X240000Y530000D02*
X245000Y535000D01*
X305000D02*
X310000Y530000D01*
X450000D02*
X455000Y525000D01*
X511500D02*
X516500Y530000D01*
X455000Y525000D02*
X511500D01*
X516500Y530000D02*
X520000D01*
X245000Y515000D02*
X305000D01*
X240000Y510000D02*
X245000Y515000D01*
X305000D02*
X310000Y510000D01*
X516500Y520000D02*
X520000D01*
X455000Y515000D02*
X511500D01*
X516500Y520000D01*
X450000D02*
X455000Y515000D01*
X305000Y525000D02*
X310000Y520000D01*
X240000D02*
X245000Y525000D01*
X305000D01*
Y505000D02*
X310000Y500000D01*
X240000D02*
X245000Y505000D01*
X305000D01*
X455000Y495000D02*
X515000D01*
X785947Y534053D02*
X790000Y530000D01*
X785947Y544053D02*
X790000Y540000D01*
X785947Y554053D02*
X790000Y550000D01*
X785947Y564053D02*
X790000Y560000D01*
Y530000D02*
X794053Y534053D01*
X790000Y540000D02*
X794053Y544053D01*
X790000Y550000D02*
X794053Y554053D01*
X790000Y560000D02*
X794053Y564053D01*
X795947Y525947D02*
X800000Y530000D01*
X795947Y515947D02*
X800000Y520000D01*
X785947Y524053D02*
X790000Y520000D01*
X779000Y521000D02*
X780000Y520000D01*
X790000D02*
X794053Y524053D01*
X795000Y495000D02*
X800000Y490000D01*
X795000Y485000D02*
X800000Y480000D01*
X795947Y575947D02*
X800000Y580000D01*
X795947Y535947D02*
X800000Y540000D01*
X795947Y555947D02*
X800000Y560000D01*
X795947Y545947D02*
X800000Y550000D01*
X795947Y565947D02*
X800000Y570000D01*
X790000Y580000D02*
X794053Y584053D01*
X790000Y570000D02*
X794053Y574053D01*
X779000Y531000D02*
X780000Y530000D01*
X779000Y541000D02*
X780000Y540000D01*
X779000Y561000D02*
X780000Y560000D01*
X779000Y551000D02*
X780000Y550000D01*
X779000Y571000D02*
X780000Y570000D01*
X779000Y581000D02*
X780000Y580000D01*
X785947Y584053D02*
X790000Y580000D01*
X785947Y574053D02*
X790000Y570000D01*
X785947Y514053D02*
X790000Y510000D01*
X779000Y511000D02*
X780000Y510000D01*
X795947Y505947D02*
X800000Y510000D01*
X790000D02*
X794053Y514053D01*
X645947Y544053D02*
X650000Y540000D01*
X645947Y554053D02*
X650000Y550000D01*
X645947Y564053D02*
X650000Y560000D01*
X645947Y584053D02*
X650000Y580000D01*
X645947Y574053D02*
X650000Y570000D01*
Y560000D02*
X654053Y564053D01*
X650000Y580000D02*
X654053Y584053D01*
X650000Y570000D02*
X654053Y574053D01*
X639000Y541000D02*
X640000Y540000D01*
X639000Y531000D02*
X640000Y530000D01*
X639000Y561000D02*
X640000Y560000D01*
X639000Y551000D02*
X640000Y550000D01*
X639000Y571000D02*
X640000Y570000D01*
X639000Y581000D02*
X640000Y580000D01*
X650000Y530000D02*
X654053Y534053D01*
X650000Y540000D02*
X654053Y544053D01*
X650000Y550000D02*
X654053Y554053D01*
X639000Y521000D02*
X640000Y520000D01*
X639000Y511000D02*
X640000Y510000D01*
X645947Y514053D02*
X650000Y510000D01*
X645947Y524053D02*
X650000Y520000D01*
X645947Y534053D02*
X650000Y530000D01*
Y510000D02*
X654053Y514053D01*
X650000Y520000D02*
X654053Y524053D01*
X715947Y514053D02*
X720000Y510000D01*
X725947Y515947D02*
X730000Y520000D01*
X706053Y515947D02*
X725947D01*
X715947Y524053D02*
X720000Y520000D01*
X715947Y534053D02*
X720000Y530000D01*
X706053Y535947D02*
X725947D01*
X706053Y525947D02*
X725947D01*
X730000Y530000D01*
X654053Y584053D02*
X715947D01*
Y554053D02*
X720000Y550000D01*
X725947Y555947D02*
X730000Y560000D01*
X706053Y555947D02*
X725947D01*
X715947Y564053D02*
X720000Y560000D01*
X725947Y565947D02*
X730000Y570000D01*
X706053Y565947D02*
X725947D01*
X655000Y495000D02*
X660000Y490000D01*
X655000Y485000D02*
X660000Y480000D01*
X667000Y568000D02*
X704000D01*
X654053Y544053D02*
X715947D01*
X654053Y534053D02*
X715947D01*
X667000Y538000D02*
X704000D01*
X669000Y541000D02*
X709000D01*
X669000Y531000D02*
X709000D01*
X667000Y528000D02*
X704000D01*
X654053Y554053D02*
X715947D01*
X667000Y558000D02*
X704000D01*
X654053Y564053D02*
X715947D01*
X669000Y561000D02*
X709000D01*
X669000Y551000D02*
X709000D01*
X667000Y548000D02*
X704000D01*
X669000Y571000D02*
X709000D01*
X654053Y574053D02*
X715947D01*
X704000Y518000D02*
X706053Y515947D01*
X709000Y521000D02*
X710000Y520000D01*
X709000Y511000D02*
X710000Y510000D01*
X704000Y538000D02*
X706053Y535947D01*
X709000Y531000D02*
X710000Y530000D01*
X704000Y528000D02*
X706053Y525947D01*
X654053Y514053D02*
X715947D01*
X667000Y518000D02*
X704000D01*
X654053Y524053D02*
X715947D01*
X669000Y521000D02*
X709000D01*
X669000Y511000D02*
X709000D01*
X665000Y510000D02*
X667000Y508000D01*
X660000Y510000D02*
X665000D01*
X667000Y508000D02*
X704000D01*
X706053Y505947D02*
X725947D01*
X704000Y508000D02*
X706053Y505947D01*
X725947Y535947D02*
X730000Y540000D01*
X715947Y544053D02*
X720000Y540000D01*
X709000Y541000D02*
X710000Y540000D01*
X865947Y535947D02*
X870000Y540000D01*
X865947Y525947D02*
X870000Y530000D01*
X865947Y555947D02*
X870000Y560000D01*
X865947Y545947D02*
X870000Y550000D01*
X865947Y565947D02*
X870000Y570000D01*
X849000Y561000D02*
X850000Y560000D01*
X844000Y558000D02*
X846053Y555947D01*
Y515947D02*
X865947D01*
X846053Y505947D02*
X865947D01*
X844000Y508000D02*
X846053Y505947D01*
Y555947D02*
X865947D01*
X849000Y551000D02*
X850000Y550000D01*
X846053Y545947D02*
X865947D01*
X844000Y548000D02*
X846053Y545947D01*
X844000Y568000D02*
X846053Y565947D01*
X865947D01*
X849000Y571000D02*
X850000Y570000D01*
X844000Y578000D02*
X846053Y575947D01*
X855947Y574053D02*
X860000Y570000D01*
X855947Y554053D02*
X860000Y550000D01*
X855947Y564053D02*
X860000Y560000D01*
X855947Y584053D02*
X860000Y580000D01*
X865947Y515947D02*
X870000Y520000D01*
X865947Y505947D02*
X870000Y510000D01*
X865000Y485000D02*
X870000Y480000D01*
X865000Y495000D02*
X870000Y490000D01*
X846053Y535947D02*
X865947D01*
X846053Y525947D02*
X865947D01*
X844000Y528000D02*
X846053Y525947D01*
X849000Y581000D02*
X850000Y580000D01*
X735000Y510000D02*
X737000Y508000D01*
X739000Y521000D02*
X779000D01*
X739000Y511000D02*
X779000D01*
X737000Y508000D02*
X774000D01*
X776053Y505947D01*
X774000Y558000D02*
X776053Y555947D01*
X737000Y558000D02*
X774000D01*
Y568000D02*
X776053Y565947D01*
X737000Y568000D02*
X774000D01*
X739000Y571000D02*
X779000D01*
X739000Y581000D02*
X779000D01*
X737000Y578000D02*
X774000D01*
X776053Y575947D01*
X510000Y570000D02*
X514053Y574053D01*
X510000Y580000D02*
X514053Y584053D01*
X510000Y560000D02*
X514053Y564053D01*
X575947D01*
X510000Y550000D02*
X514053Y554053D01*
X575947D01*
X510000Y540000D02*
X514053Y544053D01*
X575947D01*
X515000Y495000D02*
X520000Y490000D01*
Y570000D02*
X525000D01*
Y580000D02*
X527000Y578000D01*
X520000Y580000D02*
X525000D01*
X636053Y515947D02*
X655947D01*
X636053Y505947D02*
X655947D01*
X636053Y535947D02*
X655947D01*
X636053Y525947D02*
X655947D01*
X636053Y555947D02*
X655947D01*
X636053Y545947D02*
X655947D01*
X636053Y565947D02*
X655947D01*
X724053Y584053D02*
X785947D01*
X724053Y574053D02*
X785947D01*
X730000Y510000D02*
X735000D01*
X595000Y495000D02*
X655000D01*
X590000Y490000D02*
X595000Y495000D01*
Y485000D02*
X655000D01*
X590000Y480000D02*
X595000Y485000D01*
X724053Y554053D02*
X785947D01*
X730000Y530000D02*
X735000D01*
X737000Y528000D02*
X774000D01*
X776053Y525947D01*
X724053Y564053D02*
X785947D01*
X739000Y561000D02*
X779000D01*
X739000Y551000D02*
X779000D01*
X737000Y548000D02*
X774000D01*
X776053Y545947D01*
X724053Y544053D02*
X785947D01*
X724053Y514053D02*
X785947D01*
X730000Y520000D02*
X735000D01*
X774000Y518000D02*
X776053Y515947D01*
X737000Y518000D02*
X774000D01*
X735000Y520000D02*
X737000Y518000D01*
X724053Y524053D02*
X785947D01*
X724053Y534053D02*
X785947D01*
X774000Y538000D02*
X776053Y535947D01*
X737000Y538000D02*
X774000D01*
X739000Y541000D02*
X779000D01*
X739000Y531000D02*
X779000D01*
X735000Y530000D02*
X737000Y528000D01*
X735000Y580000D02*
X737000Y578000D01*
X730000Y540000D02*
X735000D01*
X737000Y538000D01*
X730000Y560000D02*
X735000D01*
X737000Y558000D01*
X735000Y550000D02*
X737000Y548000D01*
X730000Y550000D02*
X735000D01*
X730000Y570000D02*
X735000D01*
X737000Y568000D01*
X730000Y580000D02*
X735000D01*
X730000Y490000D02*
X735000Y495000D01*
X730000Y480000D02*
X735000Y485000D01*
X585947Y505947D02*
X590000Y510000D01*
X585947Y515947D02*
X590000Y520000D01*
X585000Y495000D02*
X590000Y490000D01*
X585000Y485000D02*
X590000Y480000D01*
X575947Y574053D02*
X580000Y570000D01*
X575947Y564053D02*
X580000Y560000D01*
X575947Y554053D02*
X580000Y550000D01*
X575947Y544053D02*
X580000Y540000D01*
X575947Y534053D02*
X580000Y530000D01*
X575947Y524053D02*
X580000Y520000D01*
Y540000D02*
X584053Y544053D01*
X580000Y550000D02*
X584053Y554053D01*
X580000Y560000D02*
X584053Y564053D01*
X580000Y570000D02*
X584053Y574053D01*
X564000Y508000D02*
X566053Y505947D01*
X564000Y548000D02*
X566053Y545947D01*
X564000Y528000D02*
X566053Y525947D01*
X569000Y531000D02*
X570000Y530000D01*
X569000Y541000D02*
X570000Y540000D01*
X564000Y538000D02*
X566053Y535947D01*
X569000Y521000D02*
X570000Y520000D01*
X564000Y518000D02*
X566053Y515947D01*
X585947Y535947D02*
X590000Y540000D01*
X585947Y565947D02*
X590000Y570000D01*
X585947Y545947D02*
X590000Y550000D01*
X585947Y555947D02*
X590000Y560000D01*
X585947Y525947D02*
X590000Y530000D01*
X585947Y575947D02*
X590000Y580000D01*
X569000Y581000D02*
X570000Y580000D01*
X566053Y575947D02*
X585947D01*
X575947Y584053D02*
X580000Y580000D01*
X564000Y578000D02*
X566053Y575947D01*
Y565947D02*
X585947D01*
X564000Y568000D02*
X566053Y565947D01*
X569000Y561000D02*
X570000Y560000D01*
X566053Y555947D02*
X585947D01*
X564000Y558000D02*
X566053Y555947D01*
X569000Y571000D02*
X570000Y570000D01*
X580000Y580000D02*
X584053Y584053D01*
X569000Y511000D02*
X570000Y510000D01*
X566053Y505947D02*
X585947D01*
X566053Y525947D02*
X585947D01*
X566053Y535947D02*
X585947D01*
X566053Y515947D02*
X585947D01*
X575947Y514053D02*
X580000Y510000D01*
X584053Y514053D01*
X580000Y520000D02*
X584053Y524053D01*
X580000Y530000D02*
X584053Y534053D01*
X566053Y545947D02*
X585947D01*
X569000Y551000D02*
X570000Y550000D01*
X527000Y568000D02*
X564000D01*
X529000Y571000D02*
X569000D01*
X525000Y570000D02*
X527000Y568000D01*
X529000Y551000D02*
X569000D01*
X527000Y548000D02*
X564000D01*
X520000Y550000D02*
X525000D01*
X527000Y548000D01*
X529000Y541000D02*
X569000D01*
X525000Y540000D02*
X527000Y538000D01*
X520000Y540000D02*
X525000D01*
X527000Y538000D02*
X564000D01*
X527000Y508000D02*
X564000D01*
X527000Y528000D02*
X564000D01*
X520000Y530000D02*
X525000D01*
X527000Y528000D01*
X529000Y531000D02*
X569000D01*
X520000Y510000D02*
X525000D01*
X527000Y508000D01*
X529000Y511000D02*
X569000D01*
X529000Y521000D02*
X569000D01*
X525000Y520000D02*
X527000Y518000D01*
X520000Y520000D02*
X525000D01*
X527000Y518000D02*
X564000D01*
X525000Y495000D02*
X585000D01*
X520000Y490000D02*
X525000Y495000D01*
Y485000D02*
X585000D01*
X520000Y480000D02*
X525000Y485000D01*
X527000Y558000D02*
X564000D01*
X529000Y561000D02*
X569000D01*
X525000Y560000D02*
X527000Y558000D01*
X520000Y560000D02*
X525000D01*
X529000Y581000D02*
X569000D01*
X527000Y578000D02*
X564000D01*
X510000Y530000D02*
X514053Y534053D01*
X575947D01*
X510000Y520000D02*
X514053Y524053D01*
X575947D01*
X510000Y510000D02*
X514053Y514053D01*
X575947D01*
X514053Y574053D02*
X575947D01*
X599000Y551000D02*
X639000D01*
X595000Y550000D02*
X597000Y548000D01*
X590000Y550000D02*
X595000D01*
X597000Y548000D02*
X634000D01*
Y568000D02*
X636053Y565947D01*
X597000Y568000D02*
X634000D01*
X590000Y570000D02*
X595000D01*
X597000Y568000D01*
X599000Y571000D02*
X639000D01*
X584053Y574053D02*
X645947D01*
X514053Y584053D02*
X575947D01*
X599000Y581000D02*
X639000D01*
X584053Y584053D02*
X645947D01*
X590000Y580000D02*
X595000D01*
X597000Y578000D02*
X634000D01*
X636053Y575947D01*
X595000Y580000D02*
X597000Y578000D01*
X584053Y544053D02*
X645947D01*
X584053Y534053D02*
X645947D01*
X634000Y538000D02*
X636053Y535947D01*
X597000Y538000D02*
X634000D01*
X599000Y541000D02*
X639000D01*
X599000Y531000D02*
X639000D01*
X595000Y530000D02*
X597000Y528000D01*
X590000Y530000D02*
X595000D01*
X597000Y528000D02*
X634000D01*
X584053Y524053D02*
X645947D01*
X634000Y518000D02*
X636053Y515947D01*
X597000Y508000D02*
X634000D01*
X595000Y510000D02*
X597000Y508000D01*
X584053Y514053D02*
X645947D01*
X597000Y518000D02*
X634000D01*
X590000Y520000D02*
X595000D01*
X597000Y518000D01*
X634000Y508000D02*
X636053Y505947D01*
X590000Y510000D02*
X595000D01*
X599000Y521000D02*
X639000D01*
X599000Y511000D02*
X639000D01*
X590000Y540000D02*
X595000D01*
X597000Y538000D01*
X634000Y528000D02*
X636053Y525947D01*
X584053Y554053D02*
X645947D01*
X634000Y558000D02*
X636053Y555947D01*
X597000Y558000D02*
X634000D01*
X590000Y560000D02*
X595000D01*
X597000Y558000D01*
X584053Y564053D02*
X645947D01*
X599000Y561000D02*
X639000D01*
X634000Y548000D02*
X636053Y545947D01*
X655947Y565947D02*
X660000Y570000D01*
Y550000D02*
X665000D01*
X660000Y570000D02*
X665000D01*
X667000Y568000D01*
X655947Y575947D02*
X660000Y580000D01*
X665000D02*
X667000Y578000D01*
X660000Y580000D02*
X665000D01*
X660000Y520000D02*
X665000D01*
X667000Y518000D01*
X665000Y530000D02*
X667000Y528000D01*
X660000Y530000D02*
X665000D01*
X660000Y540000D02*
X665000D01*
X655947Y555947D02*
X660000Y560000D01*
X655947Y545947D02*
X660000Y550000D01*
X665000Y540000D02*
X667000Y538000D01*
X660000Y560000D02*
X665000D01*
X667000Y558000D01*
X665000Y550000D02*
X667000Y548000D01*
X655947Y535947D02*
X660000Y540000D01*
X655947Y515947D02*
X660000Y520000D01*
X655947Y505947D02*
X660000Y510000D01*
X655947Y525947D02*
X660000Y530000D01*
X704000Y558000D02*
X706053Y555947D01*
X709000Y561000D02*
X710000Y560000D01*
X709000Y551000D02*
X710000Y550000D01*
X704000Y568000D02*
X706053Y565947D01*
X709000Y571000D02*
X710000Y570000D01*
X715947Y574053D02*
X720000Y570000D01*
Y560000D02*
X724053Y564053D01*
X720000Y570000D02*
X724053Y574053D01*
X725947Y505947D02*
X730000Y510000D01*
X706053Y545947D02*
X725947D01*
X704000Y548000D02*
X706053Y545947D01*
X725947D02*
X730000Y550000D01*
X720000Y510000D02*
X724053Y514053D01*
X720000Y520000D02*
X724053Y524053D01*
X720000Y530000D02*
X724053Y534053D01*
X720000Y540000D02*
X724053Y544053D01*
X720000Y550000D02*
X724053Y554053D01*
X706053Y575947D02*
X725947D01*
X730000Y580000D01*
X709000Y581000D02*
X710000Y580000D01*
X669000Y581000D02*
X709000D01*
X715947Y584053D02*
X720000Y580000D01*
X667000Y578000D02*
X704000D01*
X706053Y575947D01*
X720000Y580000D02*
X724053Y584053D01*
X725000Y485000D02*
X730000Y480000D01*
X665000Y485000D02*
X725000D01*
X660000Y480000D02*
X665000Y485000D01*
X725000Y495000D02*
X730000Y490000D01*
X665000Y495000D02*
X725000D01*
X660000Y490000D02*
X665000Y495000D01*
X636053Y575947D02*
X655947D01*
X735000Y495000D02*
X795000D01*
X735000Y485000D02*
X795000D01*
X776053Y505947D02*
X795947D01*
X776053Y575947D02*
X795947D01*
X776053Y515947D02*
X795947D01*
X776053Y535947D02*
X795947D01*
X776053Y525947D02*
X795947D01*
X776053Y555947D02*
X795947D01*
X776053Y545947D02*
X795947D01*
X776053Y565947D02*
X795947D01*
X849000Y521000D02*
X850000Y520000D01*
X849000Y511000D02*
X850000Y510000D01*
X800000Y520000D02*
X805000D01*
X800000Y510000D02*
X805000D01*
X800000Y540000D02*
X805000D01*
X807000Y538000D01*
X800000Y560000D02*
X805000D01*
X807000Y558000D01*
X800000Y570000D02*
X805000D01*
X807000Y568000D01*
X800000Y480000D02*
X805000Y485000D01*
X800000Y490000D02*
X805000Y495000D01*
X846053Y575947D02*
X865947D01*
X870000Y580000D01*
X809000Y581000D02*
X849000D01*
X794053Y584053D02*
X855947D01*
X805000Y580000D02*
X807000Y578000D01*
X800000Y580000D02*
X805000D01*
X794053Y574053D02*
X855947D01*
Y514053D02*
X860000Y510000D01*
X855947Y524053D02*
X860000Y520000D01*
X855947Y534053D02*
X860000Y530000D01*
X855947Y544053D02*
X860000Y540000D01*
X794053Y564053D02*
X855947D01*
X794053Y554053D02*
X855947D01*
X809000Y561000D02*
X849000D01*
X809000Y551000D02*
X849000D01*
X805000Y550000D02*
X807000Y548000D01*
X800000Y550000D02*
X805000D01*
X809000Y571000D02*
X849000D01*
X794053Y514053D02*
X855947D01*
X844000Y518000D02*
X846053Y515947D01*
X794053Y524053D02*
X855947D01*
X809000Y521000D02*
X849000D01*
X809000Y511000D02*
X849000D01*
X794053Y544053D02*
X855947D01*
X794053Y534053D02*
X855947D01*
X844000Y538000D02*
X846053Y535947D01*
X809000Y541000D02*
X849000D01*
X850000Y540000D01*
X849000Y531000D02*
X850000Y530000D01*
X809000Y531000D02*
X849000D01*
X805000Y530000D02*
X807000Y528000D01*
X800000Y530000D02*
X805000D01*
Y510000D02*
X807000Y508000D01*
X805000Y520000D02*
X807000Y518000D01*
X805000Y485000D02*
X865000D01*
X805000Y495000D02*
X865000D01*
X450000Y490000D02*
X455000Y495000D01*
X305000D02*
X310000Y490000D01*
X240000D02*
X245000Y495000D01*
X305000D01*
X245000Y485000D02*
X305000D01*
X240000Y480000D02*
X245000Y485000D01*
X305000D02*
X310000Y480000D01*
X303547Y284453D02*
X307061Y280939D01*
X309061D02*
X310000Y280000D01*
X307061Y280939D02*
X309061D01*
Y260939D02*
X310000Y260000D01*
X589061Y260939D02*
X590000Y260000D01*
X160939Y189061D02*
X162939D01*
X160000Y190000D02*
X160939Y189061D01*
X230000Y190000D02*
X230939Y189061D01*
X232939D02*
X236453Y185547D01*
X230939Y189061D02*
X232939D01*
X302939D02*
X306453Y185547D01*
X370000Y190000D02*
X370939Y189061D01*
X372939D01*
X376453Y185547D01*
X300939Y189061D02*
X302939D01*
X300000Y190000D02*
X300939Y189061D01*
X442939D02*
X446453Y185547D01*
X440939Y189061D02*
X442939D01*
X440000Y190000D02*
X440939Y189061D01*
X512939D02*
X516453Y185547D01*
X510939Y189061D02*
X512939D01*
X510000Y190000D02*
X510939Y189061D01*
X582939D02*
X586453Y185547D01*
X580939Y189061D02*
X582939D01*
X580000Y190000D02*
X580939Y189061D01*
X650939D02*
X652939D01*
X656453Y185547D01*
X650000Y190000D02*
X650939Y189061D01*
X792939D02*
X796453Y185547D01*
X790939Y189061D02*
X792939D01*
X790000Y190000D02*
X790939Y189061D01*
X860000Y190000D02*
X860939Y189061D01*
X862939D01*
X866453Y185547D01*
X722939Y189061D02*
X726453Y185547D01*
X720939Y189061D02*
X722939D01*
X720000Y190000D02*
X720939Y189061D01*
X442939Y199061D02*
X446453Y195547D01*
X372939Y199061D02*
X376453Y195547D01*
X370939Y199061D02*
X372939D01*
X370000Y200000D02*
X370939Y199061D01*
X300939D02*
X302939D01*
X300000Y200000D02*
X300939Y199061D01*
X302939D02*
X306453Y195547D01*
X232939Y199061D02*
X236453Y195547D01*
X230939Y199061D02*
X232939D01*
X230000Y200000D02*
X230939Y199061D01*
X440000Y200000D02*
X440939Y199061D01*
X442939D01*
X580000Y200000D02*
X580939Y199061D01*
X582939D01*
X586453Y195547D01*
X512939Y199061D02*
X516453Y195547D01*
X510939Y199061D02*
X512939D01*
X510000Y200000D02*
X510939Y199061D01*
X652939D02*
X656453Y195547D01*
X650939Y199061D02*
X652939D01*
X650000Y200000D02*
X650939Y199061D01*
X720000Y200000D02*
X720939Y199061D01*
X722939D01*
X726453Y195547D01*
X790000Y200000D02*
X790939Y199061D01*
X792939D01*
X796453Y195547D01*
X860939Y199061D02*
X862939D01*
X860000Y200000D02*
X860939Y199061D01*
X862939D02*
X866453Y195547D01*
X300939Y209061D02*
X302939D01*
X300000Y210000D02*
X300939Y209061D01*
X230939D02*
X232939D01*
X160939D02*
X162939D01*
X510939D02*
X512939D01*
X516453Y205547D01*
X442939Y209061D02*
X446453Y205547D01*
X370000Y210000D02*
X370939Y209061D01*
X372939D01*
X440000Y210000D02*
X440939Y209061D01*
X720939D02*
X722939D01*
X650000Y210000D02*
X650939Y209061D01*
X652939D01*
X792939D02*
X796453Y205547D01*
X790939Y209061D02*
X792939D01*
X790000Y210000D02*
X790939Y209061D01*
X860000Y210000D02*
X860939Y209061D01*
X862939D01*
X866453Y205547D01*
X720000Y210000D02*
X720939Y209061D01*
X722939D02*
X726453Y205547D01*
X652939Y209061D02*
X656453Y205547D01*
X580939Y209061D02*
X582939D01*
X580000Y210000D02*
X580939Y209061D01*
X582939D02*
X586453Y205547D01*
X510000Y210000D02*
X510939Y209061D01*
X372939D02*
X376453Y205547D01*
X302939Y209061D02*
X306453Y205547D01*
X440939Y209061D02*
X442939D01*
X230000Y210000D02*
X230939Y209061D01*
X232939D02*
X236453Y205547D01*
X160000Y210000D02*
X160939Y209061D01*
X162939D02*
X166453Y205547D01*
X720000Y220000D02*
X720939Y219061D01*
X722939D01*
X726453Y215547D01*
X862939Y219061D02*
X866453Y215547D01*
X860939Y219061D02*
X862939D01*
X860000Y220000D02*
X860939Y219061D01*
X790000Y220000D02*
X790939Y219061D01*
X792939D01*
X796453Y215547D01*
X650000Y220000D02*
X650939Y219061D01*
X652939D02*
X656453Y215547D01*
X650939Y219061D02*
X652939D01*
X580000Y220000D02*
X580939Y219061D01*
X582939D01*
X586453Y215547D01*
X510000Y220000D02*
X510939Y219061D01*
X512939D01*
X516453Y215547D01*
X440000Y220000D02*
X440939Y219061D01*
X442939D01*
X446453Y215547D01*
X300000Y220000D02*
X300939Y219061D01*
X302939D01*
X372939D02*
X376453Y215547D01*
X370939Y219061D02*
X372939D01*
X370000Y220000D02*
X370939Y219061D01*
X302939D02*
X306453Y215547D01*
X230939Y219061D02*
X232939D01*
X236453Y215547D01*
X230000Y220000D02*
X230939Y219061D01*
X160000Y220000D02*
X160939Y219061D01*
X162939D01*
X166453Y215547D01*
X862939Y229061D02*
X866453Y225547D01*
X860000Y230000D02*
X860939Y229061D01*
X862939D01*
X792939D02*
X796453Y225547D01*
X790939Y229061D02*
X792939D01*
X790000Y230000D02*
X790939Y229061D01*
X722939D02*
X726453Y225547D01*
X720939Y229061D02*
X722939D01*
X720000Y230000D02*
X720939Y229061D01*
X650000Y230000D02*
X650939Y229061D01*
X652939D01*
X656453Y225547D01*
X510000Y230000D02*
X510939Y229061D01*
X512939D01*
X516453Y225547D01*
X582939Y229061D02*
X586453Y225547D01*
X580939Y229061D02*
X582939D01*
X580000Y230000D02*
X580939Y229061D01*
X440939D02*
X442939D01*
X440000Y230000D02*
X440939Y229061D01*
X160939D02*
X162939D01*
X166453Y225547D01*
X230000Y230000D02*
X230939Y229061D01*
X232939D01*
X236453Y225547D01*
X302939Y229061D02*
X306453Y225547D01*
X300000Y230000D02*
X300939Y229061D01*
X302939D01*
X370000Y230000D02*
X370939Y229061D01*
X372939D01*
X376453Y225547D01*
X442939Y229061D02*
X446453Y225547D01*
X160000Y230000D02*
X160939Y229061D01*
X722939Y239061D02*
X726453Y235547D01*
X862939Y239061D02*
X866453Y235547D01*
X860939Y239061D02*
X862939D01*
X860000Y240000D02*
X860939Y239061D01*
X790000Y240000D02*
X790939Y239061D01*
X792939D01*
X796453Y235547D01*
X652939Y239061D02*
X656453Y235547D01*
X650939Y239061D02*
X652939D01*
X650000Y240000D02*
X650939Y239061D01*
X720000Y240000D02*
X720939Y239061D01*
X722939D01*
X440000Y240000D02*
X440939Y239061D01*
X442939D01*
X370939D02*
X372939D01*
X370000Y240000D02*
X370939Y239061D01*
X442939D02*
X446453Y235547D01*
X372939Y239061D02*
X376453Y235547D01*
X580000Y240000D02*
X580939Y239061D01*
X582939D01*
X586453Y235547D01*
X512939Y239061D02*
X516453Y235547D01*
X510939Y239061D02*
X512939D01*
X510000Y240000D02*
X510939Y239061D01*
X160939D02*
X162939D01*
X160000Y240000D02*
X160939Y239061D01*
X162939D02*
X166453Y235547D01*
X230000Y240000D02*
X230939Y239061D01*
X232939D02*
X236453Y235547D01*
X230939Y239061D02*
X232939D01*
X300000Y240000D02*
X300939Y239061D01*
X302939D01*
X306453Y235547D01*
X862939Y249061D02*
X866453Y245547D01*
X860000Y250000D02*
X860939Y249061D01*
X862939D01*
X790939D02*
X792939D01*
X790000Y250000D02*
X790939Y249061D01*
X792939D02*
X796453Y245547D01*
X650000Y250000D02*
X650939Y249061D01*
X652939D01*
X656453Y245547D01*
X720939Y249061D02*
X722939D01*
X726453Y245547D01*
X720000Y250000D02*
X720939Y249061D01*
X510000Y250000D02*
X510939Y249061D01*
X512939D01*
X516453Y245547D01*
X580939Y249061D02*
X582939D01*
X160939D02*
X162939D01*
X160000Y250000D02*
X160939Y249061D01*
X230939D02*
X232939D01*
X236453Y245547D01*
X582939Y249061D02*
X586453Y245547D01*
X580000Y250000D02*
X580939Y249061D01*
X162939D02*
X166453Y245547D01*
X370000Y250000D02*
X370939Y249061D01*
X372939D01*
X376453Y245547D01*
X442939Y249061D02*
X446453Y245547D01*
X440939Y249061D02*
X442939D01*
X440000Y250000D02*
X440939Y249061D01*
X230000Y250000D02*
X230939Y249061D01*
X302939D02*
X306453Y245547D01*
X300939Y249061D02*
X302939D01*
X300000Y250000D02*
X300939Y249061D01*
X862939Y259061D02*
X866453Y255547D01*
X860939Y259061D02*
X862939D01*
X860000Y260000D02*
X860939Y259061D01*
X792939D02*
X796453Y255547D01*
X720000Y260000D02*
X720939Y259061D01*
X790000Y260000D02*
X790939Y259061D01*
X792939D01*
X720939D02*
X722939D01*
X726453Y255547D01*
X652939Y259061D02*
X656453Y255547D01*
X650939Y259061D02*
X652939D01*
X650000Y260000D02*
X650939Y259061D01*
X300939D02*
X302939D01*
X232939D02*
X236453Y255547D01*
X230939Y259061D02*
X232939D01*
X580000Y260000D02*
X580939Y259061D01*
X582939D01*
X586453Y255547D01*
X510000Y260000D02*
X510939Y259061D01*
X512939D02*
X516453Y255547D01*
X510939Y259061D02*
X512939D01*
X372939D02*
X376453Y255547D01*
X370939Y259061D02*
X372939D01*
X370000Y260000D02*
X370939Y259061D01*
X300000Y260000D02*
X300939Y259061D01*
X302939D02*
X306453Y255547D01*
X440000Y260000D02*
X440939Y259061D01*
X442939D01*
X446453Y255547D01*
X160000Y260000D02*
X160939Y259061D01*
X162939D01*
X166453Y255547D01*
X230000Y260000D02*
X230939Y259061D01*
X790939Y269061D02*
X792939D01*
X790000Y270000D02*
X790939Y269061D01*
X650000Y270000D02*
X650939Y269061D01*
X652939D01*
X720939D02*
X722939D01*
X720000Y270000D02*
X720939Y269061D01*
X860000Y270000D02*
X860939Y269061D01*
X862939D01*
X230939D02*
X232939D01*
X580939D02*
X582939D01*
X580000Y270000D02*
X580939Y269061D01*
X510000Y270000D02*
X510939Y269061D01*
X512939D01*
X440939D02*
X442939D01*
X440000Y270000D02*
X440939Y269061D01*
X160939D02*
X162939D01*
X230000Y270000D02*
X230939Y269061D01*
X300939D02*
X302939D01*
X300000Y270000D02*
X300939Y269061D01*
X370000Y270000D02*
X370939Y269061D01*
X372939D01*
X160000Y270000D02*
X160939Y269061D01*
X862939Y279061D02*
X866453Y275547D01*
X720000Y280000D02*
X720939Y279061D01*
X722939D01*
X790000Y280000D02*
X790939Y279061D01*
X792939D01*
X796453Y275547D01*
X860939Y279061D02*
X862939D01*
X860000Y280000D02*
X860939Y279061D01*
X230000Y280000D02*
X230939Y279061D01*
X232939D02*
X236453Y275547D01*
X230939Y279061D02*
X232939D01*
X722939D02*
X726453Y275547D01*
X580000Y280000D02*
X580939Y279061D01*
X582939D01*
X652939D02*
X656453Y275547D01*
X650939Y279061D02*
X652939D01*
X650000Y280000D02*
X650939Y279061D01*
X510939D02*
X512939D01*
X516453Y275547D01*
X510000Y280000D02*
X510939Y279061D01*
X582939D02*
X586453Y275547D01*
X300000Y280000D02*
X300939Y279061D01*
X302939D01*
X306453Y275547D01*
X372939Y279061D02*
X376453Y275547D01*
X370939Y279061D02*
X372939D01*
X370000Y280000D02*
X370939Y279061D01*
X440000Y280000D02*
X440939Y279061D01*
X442939D01*
X160939D02*
X162939D01*
X160000Y280000D02*
X160939Y279061D01*
X162939D02*
X166453Y275547D01*
X442939Y279061D02*
X446453Y275547D01*
X862939Y289061D02*
X866453Y285547D01*
X792939Y289061D02*
X796453Y285547D01*
X790939Y289061D02*
X792939D01*
X790000Y290000D02*
X790939Y289061D01*
X722939D02*
X726453Y285547D01*
X720939Y289061D02*
X722939D01*
X720000Y290000D02*
X720939Y289061D01*
X860000Y290000D02*
X860939Y289061D01*
X862939D01*
X230000Y290000D02*
X230939Y289061D01*
X162939D02*
X166453Y285547D01*
X230939Y289061D02*
X232939D01*
X236453Y285547D01*
X582939Y289061D02*
X586453Y285547D01*
X580939Y289061D02*
X582939D01*
X580000Y290000D02*
X580939Y289061D01*
X650000Y290000D02*
X650939Y289061D01*
X652939D01*
X656453Y285547D01*
X510000Y290000D02*
X510939Y289061D01*
X512939D01*
X516453Y285547D01*
X442939Y289061D02*
X446453Y285547D01*
X440939Y289061D02*
X442939D01*
X440000Y290000D02*
X440939Y289061D01*
X300939D02*
X302939D01*
X300000Y290000D02*
X300939Y289061D01*
X302939D02*
X306453Y285547D01*
X370000Y290000D02*
X370939Y289061D01*
X372939D01*
X376453Y285547D01*
X160939Y289061D02*
X162939D01*
X160000Y290000D02*
X160939Y289061D01*
X862939Y299061D02*
X866453Y295547D01*
X722939Y299061D02*
X726453Y295547D01*
X790000Y300000D02*
X790939Y299061D01*
X792939D01*
X796453Y295547D01*
X720000Y300000D02*
X720939Y299061D01*
X722939D01*
X860939D02*
X862939D01*
X860000Y300000D02*
X860939Y299061D01*
X160939D02*
X162939D01*
X160000Y300000D02*
X160939Y299061D01*
X230000Y300000D02*
X230939Y299061D01*
X162939D02*
X166453Y295547D01*
X230939Y299061D02*
X232939D01*
X236453Y295547D01*
X652939Y299061D02*
X656453Y295547D01*
X650939Y299061D02*
X652939D01*
X650000Y300000D02*
X650939Y299061D01*
X580000Y300000D02*
X580939Y299061D01*
X582939D01*
X586453Y295547D01*
X512939Y299061D02*
X516453Y295547D01*
X510939Y299061D02*
X512939D01*
X510000Y300000D02*
X510939Y299061D01*
X300000Y300000D02*
X300939Y299061D01*
X302939D01*
X306453Y295547D01*
X372939Y299061D02*
X376453Y295547D01*
X370939Y299061D02*
X372939D01*
X370000Y300000D02*
X370939Y299061D01*
X440000Y300000D02*
X440939Y299061D01*
X442939D01*
X446453Y295547D01*
X790939Y309061D02*
X792939D01*
X796453Y305547D01*
X722939Y309061D02*
X726453Y305547D01*
X790000Y310000D02*
X790939Y309061D01*
X720000Y310000D02*
X720939Y309061D01*
X722939D01*
X860000Y310000D02*
X860939Y309061D01*
X862939D01*
X866453Y305547D01*
X442939Y309061D02*
X446453Y305547D01*
X440939Y309061D02*
X442939D01*
X440000Y310000D02*
X440939Y309061D01*
X160939D02*
X162939D01*
X160000Y310000D02*
X160939Y309061D01*
X162939D02*
X166453Y305547D01*
X230000Y310000D02*
X230939Y309061D01*
X232939D01*
X236453Y305547D01*
X652939Y309061D02*
X656453Y305547D01*
X650000Y310000D02*
X650939Y309061D01*
X652939D01*
X582939D02*
X586453Y305547D01*
X580939Y309061D02*
X582939D01*
X580000Y310000D02*
X580939Y309061D01*
X512939D02*
X516453Y305547D01*
X510000Y310000D02*
X510939Y309061D01*
X512939D01*
X302939D02*
X306453Y305547D01*
X300939Y309061D02*
X302939D01*
X300000Y310000D02*
X300939Y309061D01*
X370000Y310000D02*
X370939Y309061D01*
X372939D01*
X376453Y305547D01*
X860000Y320000D02*
X860939Y319061D01*
X862939D02*
X866453Y315547D01*
X860939Y319061D02*
X862939D01*
X162939D02*
X166453Y315547D01*
X442939Y319061D02*
X446453Y315547D01*
X230000Y320000D02*
X230939Y319061D01*
X160000Y320000D02*
X160939Y319061D01*
X162939D01*
X230939D02*
X232939D01*
X236453Y315547D01*
X650939Y319061D02*
X652939D01*
X656453Y315547D01*
X650000Y320000D02*
X650939Y319061D01*
X580000Y320000D02*
X580939Y319061D01*
X582939D01*
X586453Y315547D01*
X720000Y320000D02*
X720939Y319061D01*
X722939D01*
X726453Y315547D01*
X790000Y320000D02*
X790939Y319061D01*
X792939D01*
X796453Y315547D01*
X510939Y319061D02*
X512939D01*
X516453Y315547D01*
X510000Y320000D02*
X510939Y319061D01*
X370939D02*
X372939D01*
X376453Y315547D01*
X370000Y320000D02*
X370939Y319061D01*
X302939D02*
X306453Y315547D01*
X300000Y320000D02*
X300939Y319061D01*
X302939D01*
X440000Y320000D02*
X440939Y319061D01*
X442939D01*
X860000Y330000D02*
X860939Y329061D01*
X862939D01*
X866453Y325547D01*
X232939Y329061D02*
X236453Y325547D01*
X230939Y329061D02*
X232939D01*
X230000Y330000D02*
X230939Y329061D01*
X160000Y330000D02*
X160939Y329061D01*
X162939D01*
X166453Y325547D01*
X652939Y329061D02*
X656453Y325547D01*
X650939Y329061D02*
X652939D01*
X650000Y330000D02*
X650939Y329061D01*
X580000Y330000D02*
X580939Y329061D01*
X582939D01*
X586453Y325547D01*
X300000Y330000D02*
X300939Y329061D01*
X302939D01*
X306453Y325547D01*
X372939Y329061D02*
X376453Y325547D01*
X442939Y329061D02*
X446453Y325547D01*
X370939Y329061D02*
X372939D01*
X370000Y330000D02*
X370939Y329061D01*
X440000Y330000D02*
X440939Y329061D01*
X510000Y330000D02*
X510939Y329061D01*
X512939D02*
X516453Y325547D01*
X510939Y329061D02*
X512939D01*
X440939D02*
X442939D01*
X720000Y330000D02*
X720939Y329061D01*
X722939D01*
X726453Y325547D01*
X790000Y330000D02*
X790939Y329061D01*
X792939D01*
X796453Y325547D01*
X860000Y340000D02*
X860939Y339061D01*
X862939D01*
X866453Y335547D01*
X230000Y340000D02*
X230939Y339061D01*
X160939D02*
X162939D01*
X166453Y335547D01*
X160000Y340000D02*
X160939Y339061D01*
X652939D02*
X656453Y335547D01*
X442939Y339061D02*
X446453Y335547D01*
X440939Y339061D02*
X442939D01*
X440000Y340000D02*
X440939Y339061D01*
X510000Y340000D02*
X510939Y339061D01*
X512939D01*
X516453Y335547D01*
X582939Y339061D02*
X586453Y335547D01*
X580939Y339061D02*
X582939D01*
X580000Y340000D02*
X580939Y339061D01*
X650000Y340000D02*
X650939Y339061D01*
X652939D01*
X370000Y340000D02*
X370939Y339061D01*
X372939D01*
X376453Y335547D01*
X230939Y339061D02*
X232939D01*
X236453Y335547D01*
X300939Y339061D02*
X302939D01*
X300000Y340000D02*
X300939Y339061D01*
X722939D02*
X726453Y335547D01*
X720939Y339061D02*
X722939D01*
X720000Y340000D02*
X720939Y339061D01*
X792939D02*
X796453Y335547D01*
X790939Y339061D02*
X792939D01*
X790000Y340000D02*
X790939Y339061D01*
X302939D02*
X306453Y335547D01*
X790000Y350000D02*
X790939Y349061D01*
X792939D02*
X796453Y345547D01*
X790939Y349061D02*
X792939D01*
X232939D02*
X236453Y345547D01*
X230939Y349061D02*
X232939D01*
X512939D02*
X516453Y345547D01*
X510939Y349061D02*
X512939D01*
X510000Y350000D02*
X510939Y349061D01*
X862939D02*
X866453Y345547D01*
X860939Y349061D02*
X862939D01*
X860000Y350000D02*
X860939Y349061D01*
X582939D02*
X586453Y345547D01*
X580000Y350000D02*
X580939Y349061D01*
X582939D01*
X720000Y350000D02*
X720939Y349061D01*
X722939D01*
X726453Y345547D01*
X372939Y349061D02*
X376453Y345547D01*
X300000Y350000D02*
X300939Y349061D01*
X302939D01*
X306453Y345547D01*
X370939Y349061D02*
X372939D01*
X370000Y350000D02*
X370939Y349061D01*
X652939D02*
X656453Y345547D01*
X650939Y349061D02*
X652939D01*
X650000Y350000D02*
X650939Y349061D01*
X440000Y350000D02*
X440939Y349061D01*
X442939D01*
X446453Y345547D01*
X230000Y350000D02*
X230939Y349061D01*
X160000Y350000D02*
X160939Y349061D01*
X162939D01*
X166453Y345547D01*
X230939Y359061D02*
X232939D01*
X236453Y355547D01*
X860000Y360000D02*
X860939Y359061D01*
X862939D02*
X866453Y355547D01*
X860939Y359061D02*
X862939D01*
X792939D02*
X796453Y355547D01*
X790939Y359061D02*
X792939D01*
X790000Y360000D02*
X790939Y359061D01*
X582939D02*
X586453Y355547D01*
X580939Y359061D02*
X582939D01*
X580000Y360000D02*
X580939Y359061D01*
X510939D02*
X512939D01*
X516453Y355547D01*
X720000Y360000D02*
X720939Y359061D01*
X722939D02*
X726453Y355547D01*
X720939Y359061D02*
X722939D01*
X510000Y360000D02*
X510939Y359061D01*
X302939D02*
X306453Y355547D01*
X300939Y359061D02*
X302939D01*
X300000Y360000D02*
X300939Y359061D01*
X370000Y360000D02*
X370939Y359061D01*
X372939D02*
X376453Y355547D01*
X370939Y359061D02*
X372939D01*
X650000Y360000D02*
X650939Y359061D01*
X652939D02*
X656453Y355547D01*
X650939Y359061D02*
X652939D01*
X442939D02*
X446453Y355547D01*
X440939Y359061D02*
X442939D01*
X440000Y360000D02*
X440939Y359061D01*
X230000Y360000D02*
X230939Y359061D01*
X162939D02*
X166453Y355547D01*
X160939Y359061D02*
X162939D01*
X160000Y360000D02*
X160939Y359061D01*
X379061Y270939D02*
X380000Y270000D01*
X373547Y274453D02*
X377061Y270939D01*
X379061D01*
X447061D02*
X449061D01*
X443547Y274453D02*
X447061Y270939D01*
X449061D02*
X450000Y270000D01*
X307061Y270939D02*
X309061D01*
X303547Y274453D02*
X307061Y270939D01*
X309061D02*
X310000Y270000D01*
X939061Y270939D02*
X940000Y270000D01*
X519061Y270939D02*
X520000Y270000D01*
X589061Y270939D02*
X590000Y270000D01*
X587061Y270939D02*
X589061D01*
X583547Y274453D02*
X587061Y270939D01*
X513547Y274453D02*
X517061Y270939D01*
X519061D01*
X659061D02*
X660000Y270000D01*
X653547Y274453D02*
X657061Y270939D01*
X659061D01*
X239061D02*
X240000Y270000D01*
X237061Y270939D02*
X239061D01*
X233547Y274453D02*
X237061Y270939D01*
X727061D02*
X729061D01*
X723547Y274453D02*
X727061Y270939D01*
X793547Y274453D02*
X797061Y270939D01*
X799061D01*
X729061D02*
X730000Y270000D01*
X799061Y270939D02*
X800000Y270000D01*
X933547Y274453D02*
X937061Y270939D01*
X939061D01*
X863547Y274453D02*
X867061Y270939D01*
X869061D02*
X870000Y270000D01*
X867061Y270939D02*
X869061D01*
X449061Y280939D02*
X450000Y280000D01*
X443547Y284453D02*
X447061Y280939D01*
X449061D01*
X377061D02*
X379061D01*
X373547Y284453D02*
X377061Y280939D01*
X379061D02*
X380000Y280000D01*
X513547Y284453D02*
X517061Y280939D01*
X939061D02*
X940000Y280000D01*
X659061Y280939D02*
X660000Y280000D01*
X657061Y280939D02*
X659061D01*
X517061D02*
X519061D01*
X520000Y280000D01*
X589061Y280939D02*
X590000Y280000D01*
X653547Y284453D02*
X657061Y280939D01*
X583547Y284453D02*
X587061Y280939D01*
X589061D01*
X239061D02*
X240000Y280000D01*
X237061Y280939D02*
X239061D01*
X233547Y284453D02*
X237061Y280939D01*
X799061D02*
X800000Y280000D01*
X723547Y284453D02*
X727061Y280939D01*
X729061D01*
X793547Y284453D02*
X797061Y280939D01*
X729061D02*
X730000Y280000D01*
X933547Y284453D02*
X937061Y280939D01*
X939061D01*
X797061D02*
X799061D01*
X867061D02*
X869061D01*
X863547Y284453D02*
X867061Y280939D01*
X869061D02*
X870000Y280000D01*
X869061Y330939D02*
X870000Y330000D01*
X863547Y334453D02*
X867061Y330939D01*
X869061D01*
X659061D02*
X660000Y330000D01*
X653547Y334453D02*
X657061Y330939D01*
X659061D01*
X583547Y334453D02*
X587061Y330939D01*
X589061D02*
X590000Y330000D01*
X587061Y330939D02*
X589061D01*
X519061D02*
X520000Y330000D01*
X517061Y330939D02*
X519061D01*
X447061D02*
X449061D01*
X443547Y334453D02*
X447061Y330939D01*
X449061D02*
X450000Y330000D01*
X513547Y334453D02*
X517061Y330939D01*
X307061D02*
X309061D01*
X303547Y334453D02*
X307061Y330939D01*
X309061D02*
X310000Y330000D01*
X373547Y334453D02*
X377061Y330939D01*
X233547Y334453D02*
X237061Y330939D01*
X239061D02*
X240000Y330000D01*
X237061Y330939D02*
X239061D01*
X379061D02*
X380000Y330000D01*
X377061Y330939D02*
X379061D01*
X799061D02*
X800000Y330000D01*
X933547Y334453D02*
X937061Y330939D01*
X727061D02*
X729061D01*
X723547Y334453D02*
X727061Y330939D01*
X729061D02*
X730000Y330000D01*
X793547Y334453D02*
X797061Y330939D01*
X799061D01*
X939061D02*
X940000Y330000D01*
X937061Y330939D02*
X939061D01*
X867061Y320939D02*
X869061D01*
X863547Y324453D02*
X867061Y320939D01*
X869061D02*
X870000Y320000D01*
X237061Y320939D02*
X239061D01*
X233547Y324453D02*
X237061Y320939D01*
X239061D02*
X240000Y320000D01*
X657061Y320939D02*
X659061D01*
X653547Y324453D02*
X657061Y320939D01*
X659061D02*
X660000Y320000D01*
X589061Y320939D02*
X590000Y320000D01*
X583547Y324453D02*
X587061Y320939D01*
X589061D01*
X517061D02*
X519061D01*
X513547Y324453D02*
X517061Y320939D01*
X519061D02*
X520000Y320000D01*
X449061Y320939D02*
X450000Y320000D01*
X443547Y324453D02*
X447061Y320939D01*
X449061D01*
X377061D02*
X379061D01*
X309061D02*
X310000Y320000D01*
X373547Y324453D02*
X377061Y320939D01*
X379061D02*
X380000Y320000D01*
X303547Y324453D02*
X307061Y320939D01*
X309061D01*
X799061D02*
X800000Y320000D01*
X933547Y324453D02*
X937061Y320939D01*
X939061D01*
X729061D02*
X730000Y320000D01*
X723547Y324453D02*
X727061Y320939D01*
X729061D01*
X797061D02*
X799061D01*
X793547Y324453D02*
X797061Y320939D01*
X939061D02*
X940000Y320000D01*
X443547Y294453D02*
X447061Y290939D01*
X307061D02*
X309061D01*
X303547Y294453D02*
X307061Y290939D01*
X309061D02*
X310000Y290000D01*
X447061Y290939D02*
X449061D01*
X450000Y290000D01*
X379061Y290939D02*
X380000Y290000D01*
X377061Y290939D02*
X379061D01*
X513547Y294453D02*
X517061Y290939D01*
X939061D02*
X940000Y290000D01*
X519061Y290939D02*
X520000Y290000D01*
X517061Y290939D02*
X519061D01*
X587061D02*
X589061D01*
X583547Y294453D02*
X587061Y290939D01*
X589061D02*
X590000Y290000D01*
X659061Y290939D02*
X660000Y290000D01*
X653547Y294453D02*
X657061Y290939D01*
X659061D01*
X239061D02*
X240000Y290000D01*
X237061Y290939D02*
X239061D01*
X233547Y294453D02*
X237061Y290939D01*
X373547Y294453D02*
X377061Y290939D01*
X867061D02*
X869061D01*
X727061D02*
X729061D01*
X723547Y294453D02*
X727061Y290939D01*
X729061D02*
X730000Y290000D01*
X933547Y294453D02*
X937061Y290939D01*
X939061D01*
X799061D02*
X800000Y290000D01*
X793547Y294453D02*
X797061Y290939D01*
X799061D01*
X863547Y294453D02*
X867061Y290939D01*
X869061D02*
X870000Y290000D01*
X869061Y300939D02*
X870000Y300000D01*
X863547Y304453D02*
X867061Y300939D01*
X799061D02*
X800000Y300000D01*
X793547Y304453D02*
X797061Y300939D01*
X799061D01*
X727061D02*
X729061D01*
X723547Y304453D02*
X727061Y300939D01*
X729061D02*
X730000Y300000D01*
X867061Y300939D02*
X869061D01*
X233547Y304453D02*
X237061Y300939D01*
X239061D02*
X240000Y300000D01*
X237061Y300939D02*
X239061D01*
X937061D02*
X939061D01*
X933547Y304453D02*
X937061Y300939D01*
X659061D02*
X660000Y300000D01*
X587061Y300939D02*
X589061D01*
X583547Y304453D02*
X587061Y300939D01*
X653547Y304453D02*
X657061Y300939D01*
X659061D01*
X519061D02*
X520000Y300000D01*
X517061Y300939D02*
X519061D01*
X589061D02*
X590000Y300000D01*
X379061Y300939D02*
X380000Y300000D01*
X373547Y304453D02*
X377061Y300939D01*
X379061D01*
X447061D02*
X449061D01*
X443547Y304453D02*
X447061Y300939D01*
X449061D02*
X450000Y300000D01*
X513547Y304453D02*
X517061Y300939D01*
X939061D02*
X940000Y300000D01*
X307061Y300939D02*
X309061D01*
X303547Y304453D02*
X307061Y300939D01*
X309061D02*
X310000Y300000D01*
X939061Y310939D02*
X940000Y310000D01*
X793547Y314453D02*
X797061Y310939D01*
X799061D01*
X727061D02*
X729061D01*
X723547Y314453D02*
X727061Y310939D01*
X729061D02*
X730000Y310000D01*
X937061Y310939D02*
X939061D01*
X933547Y314453D02*
X937061Y310939D01*
X799061D02*
X800000Y310000D01*
X307061Y310939D02*
X309061D01*
X303547Y314453D02*
X307061Y310939D01*
X379061D02*
X380000Y310000D01*
X373547Y314453D02*
X377061Y310939D01*
X309061D02*
X310000Y310000D01*
X377061Y310939D02*
X379061D01*
X447061D02*
X449061D01*
X443547Y314453D02*
X447061Y310939D01*
X449061D02*
X450000Y310000D01*
X519061Y310939D02*
X520000Y310000D01*
X513547Y314453D02*
X517061Y310939D01*
X519061D01*
X587061D02*
X589061D01*
X583547Y314453D02*
X587061Y310939D01*
X589061D02*
X590000Y310000D01*
X659061Y310939D02*
X660000Y310000D01*
X653547Y314453D02*
X657061Y310939D01*
X659061D01*
X239061D02*
X240000Y310000D01*
X233547Y314453D02*
X237061Y310939D01*
X239061D01*
X869061D02*
X870000Y310000D01*
X863547Y314453D02*
X867061Y310939D01*
X869061D01*
X519061Y210939D02*
X520000Y210000D01*
X517061Y210939D02*
X519061D01*
X513547Y214453D02*
X517061Y210939D01*
X583547Y214453D02*
X587061Y210939D01*
X589061D01*
X449061D02*
X450000Y210000D01*
X589061Y210939D02*
X590000Y210000D01*
X447061Y210939D02*
X449061D01*
X443547Y214453D02*
X447061Y210939D01*
X653547Y214453D02*
X657061Y210939D01*
X659061D01*
X379061D02*
X380000Y210000D01*
X659061Y210939D02*
X660000Y210000D01*
X377061Y210939D02*
X379061D01*
X373547Y214453D02*
X377061Y210939D01*
X723547Y214453D02*
X727061Y210939D01*
X729061D01*
X309061D02*
X310000Y210000D01*
X729061Y210939D02*
X730000Y210000D01*
X307061Y210939D02*
X309061D01*
X303547Y214453D02*
X307061Y210939D01*
X793547Y214453D02*
X797061Y210939D01*
X799061D01*
X239061D02*
X240000Y210000D01*
X799061Y210939D02*
X800000Y210000D01*
X237061Y210939D02*
X239061D01*
X233547Y214453D02*
X237061Y210939D01*
X863547Y214453D02*
X867061Y210939D01*
X869061D01*
X870000Y210000D01*
X933547Y214453D02*
X937061Y210939D01*
X939061D01*
X940000Y210000D01*
X657061Y190939D02*
X659061D01*
X653547Y194453D02*
X657061Y190939D01*
X659061D02*
X660000Y190000D01*
X723547Y194453D02*
X727061Y190939D01*
X589061D02*
X590000Y190000D01*
X727061Y190939D02*
X729061D01*
X587061D02*
X589061D01*
X729061D02*
X730000Y190000D01*
X583547Y194453D02*
X587061Y190939D01*
X793547Y194453D02*
X797061Y190939D01*
X519061D02*
X520000Y190000D01*
X797061Y190939D02*
X799061D01*
X517061D02*
X519061D01*
X799061D02*
X800000Y190000D01*
X513547Y194453D02*
X517061Y190939D01*
X863547Y194453D02*
X867061Y190939D01*
X449061D02*
X450000Y190000D01*
X867061Y190939D02*
X869061D01*
X447061D02*
X449061D01*
X869061D02*
X870000Y190000D01*
X443547Y194453D02*
X447061Y190939D01*
X933547Y194453D02*
X937061Y190939D01*
X379061D02*
X380000Y190000D01*
X937061Y190939D02*
X939061D01*
X377061D02*
X379061D01*
X939061D02*
X940000Y190000D01*
X373547Y194453D02*
X377061Y190939D01*
X309061D02*
X310000Y190000D01*
X307061Y190939D02*
X309061D01*
X303547Y194453D02*
X307061Y190939D01*
X239061D02*
X240000Y190000D01*
X237061Y190939D02*
X239061D01*
X233547Y194453D02*
X237061Y190939D01*
X659061Y350939D02*
X660000Y350000D01*
X657061Y350939D02*
X659061D01*
X653547Y354453D02*
X657061Y350939D01*
X723547Y354453D02*
X727061Y350939D01*
X729061D01*
X589061D02*
X590000Y350000D01*
X729061Y350939D02*
X730000Y350000D01*
X587061Y350939D02*
X589061D01*
X583547Y354453D02*
X587061Y350939D01*
X793547Y354453D02*
X797061Y350939D01*
X799061D01*
X519061D02*
X520000Y350000D01*
X799061Y350939D02*
X800000Y350000D01*
X517061Y350939D02*
X519061D01*
X513547Y354453D02*
X517061Y350939D01*
X863547Y354453D02*
X867061Y350939D01*
X869061D01*
X449061D02*
X450000Y350000D01*
X869061Y350939D02*
X870000Y350000D01*
X447061Y350939D02*
X449061D01*
X443547Y354453D02*
X447061Y350939D01*
X933547Y354453D02*
X937061Y350939D01*
X939061D01*
X379061D02*
X380000Y350000D01*
X939061Y350939D02*
X940000Y350000D01*
X377061Y350939D02*
X379061D01*
X373547Y354453D02*
X377061Y350939D01*
X309061D02*
X310000Y350000D01*
X307061Y350939D02*
X309061D01*
X303547Y354453D02*
X307061Y350939D01*
X239061D02*
X240000Y350000D01*
X237061Y350939D02*
X239061D01*
X233547Y354453D02*
X237061Y350939D01*
X519061Y260939D02*
X520000Y260000D01*
X517061Y260939D02*
X519061D01*
X513547Y264453D02*
X517061Y260939D01*
X583547Y264453D02*
X587061Y260939D01*
X589061D01*
X449061D02*
X450000Y260000D01*
X447061Y260939D02*
X449061D01*
X443547Y264453D02*
X447061Y260939D01*
X653547Y264453D02*
X657061Y260939D01*
X659061D01*
X379061D02*
X380000Y260000D01*
X659061Y260939D02*
X660000Y260000D01*
X377061Y260939D02*
X379061D01*
X373547Y264453D02*
X377061Y260939D01*
X723547Y264453D02*
X727061Y260939D01*
X729061D01*
X730000Y260000D01*
X307061Y260939D02*
X309061D01*
X303547Y264453D02*
X307061Y260939D01*
X793547Y264453D02*
X797061Y260939D01*
X799061D01*
X239061D02*
X240000Y260000D01*
X799061Y260939D02*
X800000Y260000D01*
X237061Y260939D02*
X239061D01*
X233547Y264453D02*
X237061Y260939D01*
X863547Y264453D02*
X867061Y260939D01*
X869061D01*
X870000Y260000D01*
X933547Y264453D02*
X937061Y260939D01*
X939061D01*
X940000Y260000D01*
X589061Y230939D02*
X590000Y230000D01*
X587061Y230939D02*
X589061D01*
X583547Y234453D02*
X587061Y230939D01*
X653547Y234453D02*
X657061Y230939D01*
X519061D02*
X520000Y230000D01*
X657061Y230939D02*
X659061D01*
X517061D02*
X519061D01*
X659061D02*
X660000Y230000D01*
X513547Y234453D02*
X517061Y230939D01*
X723547Y234453D02*
X727061Y230939D01*
X449061D02*
X450000Y230000D01*
X727061Y230939D02*
X729061D01*
X447061D02*
X449061D01*
X729061D02*
X730000Y230000D01*
X443547Y234453D02*
X447061Y230939D01*
X793547Y234453D02*
X797061Y230939D01*
X379061D02*
X380000Y230000D01*
X797061Y230939D02*
X799061D01*
X377061D02*
X379061D01*
X799061D02*
X800000Y230000D01*
X373547Y234453D02*
X377061Y230939D01*
X863547Y234453D02*
X867061Y230939D01*
X309061D02*
X310000Y230000D01*
X867061Y230939D02*
X869061D01*
X307061D02*
X309061D01*
X869061D02*
X870000Y230000D01*
X303547Y234453D02*
X307061Y230939D01*
X933547Y234453D02*
X937061Y230939D01*
X239061D02*
X240000Y230000D01*
X937061Y230939D02*
X939061D01*
X237061D02*
X239061D01*
X939061D02*
X940000Y230000D01*
X233547Y234453D02*
X237061Y230939D01*
X793547Y244453D02*
X797061Y240939D01*
X799061D02*
X800000Y240000D01*
X797061Y240939D02*
X799061D01*
X863547Y244453D02*
X867061Y240939D01*
X729061D02*
X730000Y240000D01*
X867061Y240939D02*
X869061D01*
X727061D02*
X729061D01*
X869061D02*
X870000Y240000D01*
X723547Y244453D02*
X727061Y240939D01*
X933547Y244453D02*
X937061Y240939D01*
X659061D02*
X660000Y240000D01*
X937061Y240939D02*
X939061D01*
X657061D02*
X659061D01*
X939061D02*
X940000Y240000D01*
X653547Y244453D02*
X657061Y240939D01*
X589061D02*
X590000Y240000D01*
X587061Y240939D02*
X589061D01*
X583547Y244453D02*
X587061Y240939D01*
X519061D02*
X520000Y240000D01*
X517061Y240939D02*
X519061D01*
X513547Y244453D02*
X517061Y240939D01*
X449061D02*
X450000Y240000D01*
X447061Y240939D02*
X449061D01*
X443547Y244453D02*
X447061Y240939D01*
X379061D02*
X380000Y240000D01*
X377061Y240939D02*
X379061D01*
X373547Y244453D02*
X377061Y240939D01*
X309061D02*
X310000Y240000D01*
X307061Y240939D02*
X309061D01*
X303547Y244453D02*
X307061Y240939D01*
X239061D02*
X240000Y240000D01*
X237061Y240939D02*
X239061D01*
X233547Y244453D02*
X237061Y240939D01*
X449061Y220939D02*
X450000Y220000D01*
X447061Y220939D02*
X449061D01*
X443547Y224453D02*
X447061Y220939D01*
X513547Y224453D02*
X517061Y220939D01*
X519061D01*
X379061D02*
X380000Y220000D01*
X519061Y220939D02*
X520000Y220000D01*
X377061Y220939D02*
X379061D01*
X373547Y224453D02*
X377061Y220939D01*
X583547Y224453D02*
X587061Y220939D01*
X589061D01*
X309061D02*
X310000Y220000D01*
X589061Y220939D02*
X590000Y220000D01*
X307061Y220939D02*
X309061D01*
X303547Y224453D02*
X307061Y220939D01*
X653547Y224453D02*
X657061Y220939D01*
X659061D01*
X239061D02*
X240000Y220000D01*
X659061Y220939D02*
X660000Y220000D01*
X237061Y220939D02*
X239061D01*
X233547Y224453D02*
X237061Y220939D01*
X723547Y224453D02*
X727061Y220939D01*
X729061D01*
X730000Y220000D01*
X793547Y224453D02*
X797061Y220939D01*
X799061D01*
X800000Y220000D01*
X863547Y224453D02*
X867061Y220939D01*
X869061D01*
X870000Y220000D01*
X933547Y224453D02*
X937061Y220939D01*
X939061D01*
X940000Y220000D01*
X443547Y344453D02*
X447061Y340939D01*
X449061D02*
X450000Y340000D01*
X447061Y340939D02*
X449061D01*
X513547Y344453D02*
X517061Y340939D01*
X379061D02*
X380000Y340000D01*
X517061Y340939D02*
X519061D01*
X377061D02*
X379061D01*
X519061D02*
X520000Y340000D01*
X373547Y344453D02*
X377061Y340939D01*
X583547Y344453D02*
X587061Y340939D01*
X309061D02*
X310000Y340000D01*
X587061Y340939D02*
X589061D01*
X307061D02*
X309061D01*
X589061D02*
X590000Y340000D01*
X303547Y344453D02*
X307061Y340939D01*
X653547Y344453D02*
X657061Y340939D01*
X239061D02*
X240000Y340000D01*
X657061Y340939D02*
X659061D01*
X237061D02*
X239061D01*
X659061D02*
X660000Y340000D01*
X233547Y344453D02*
X237061Y340939D01*
X723547Y344453D02*
X727061Y340939D01*
X729061D01*
X730000Y340000D01*
X793547Y344453D02*
X797061Y340939D01*
X799061D01*
X800000Y340000D01*
X863547Y344453D02*
X867061Y340939D01*
X869061D01*
X870000Y340000D01*
X933547Y344453D02*
X937061Y340939D01*
X939061D01*
X940000Y340000D01*
X443547Y204453D02*
X447061Y200939D01*
X449061D01*
X450000Y200000D01*
X513547Y204453D02*
X517061Y200939D01*
X379061D02*
X380000Y200000D01*
X517061Y200939D02*
X519061D01*
X377061D02*
X379061D01*
X519061D02*
X520000Y200000D01*
X373547Y204453D02*
X377061Y200939D01*
X583547Y204453D02*
X587061Y200939D01*
X309061D02*
X310000Y200000D01*
X587061Y200939D02*
X589061D01*
X307061D02*
X309061D01*
X589061D02*
X590000Y200000D01*
X303547Y204453D02*
X307061Y200939D01*
X653547Y204453D02*
X657061Y200939D01*
X239061D02*
X240000Y200000D01*
X657061Y200939D02*
X659061D01*
X237061D02*
X239061D01*
X659061D02*
X660000Y200000D01*
X233547Y204453D02*
X237061Y200939D01*
X723547Y204453D02*
X727061Y200939D01*
X729061D01*
X730000Y200000D01*
X793547Y204453D02*
X797061Y200939D01*
X799061D01*
X800000Y200000D01*
X863547Y204453D02*
X867061Y200939D01*
X869061D01*
X870000Y200000D01*
X933547Y204453D02*
X937061Y200939D01*
X939061D01*
X940000Y200000D01*
X443547Y254453D02*
X447061Y250939D01*
X449061D02*
X450000Y250000D01*
X447061Y250939D02*
X449061D01*
X513547Y254453D02*
X517061Y250939D01*
X519061D01*
X379061D02*
X380000Y250000D01*
X519061Y250939D02*
X520000Y250000D01*
X377061Y250939D02*
X379061D01*
X373547Y254453D02*
X377061Y250939D01*
X583547Y254453D02*
X587061Y250939D01*
X589061D01*
X309061D02*
X310000Y250000D01*
X589061Y250939D02*
X590000Y250000D01*
X307061Y250939D02*
X309061D01*
X303547Y254453D02*
X307061Y250939D01*
X653547Y254453D02*
X657061Y250939D01*
X659061D01*
X239061D02*
X240000Y250000D01*
X659061Y250939D02*
X660000Y250000D01*
X237061Y250939D02*
X239061D01*
X233547Y254453D02*
X237061Y250939D01*
X723547Y254453D02*
X727061Y250939D01*
X729061D01*
X730000Y250000D01*
X793547Y254453D02*
X797061Y250939D01*
X799061D01*
X800000Y250000D01*
X863547Y254453D02*
X867061Y250939D01*
X869061D01*
X870000Y250000D01*
X933547Y254453D02*
X937061Y250939D01*
X939061D01*
X940000Y250000D01*
D19*
X800000Y470000D02*
X835000D01*
X850000D01*
X800000Y460000D02*
X850000D01*
X815000Y170000D02*
X860000D01*
X800000D02*
X815000D01*
X870000D02*
X930000D01*
X835000Y180000D02*
X860000D01*
X800000D02*
X835000D01*
X230000Y470000D02*
X330000D01*
X115000Y470000D02*
X125000D01*
X115000Y480000D02*
X125000D01*
X140000D01*
X150000Y470000D01*
X730000Y180000D02*
X790000D01*
X540000Y470000D02*
X570000D01*
X520000D02*
X540000D01*
X330000Y470000D02*
X380000Y470000D01*
X160000Y470000D02*
X190000D01*
X125000Y470000D02*
X135000D01*
X110000Y180000D02*
X120000D01*
X110000Y190000D02*
X120000D01*
X145000Y460000D02*
X160000D01*
X135000Y470000D02*
X145000Y460000D01*
X150000Y470000D02*
X160000D01*
X120000Y180000D02*
X140000D01*
X150000Y170000D01*
X160000D01*
X120000Y190000D02*
X145000D01*
X155000Y180000D01*
X160000D01*
X450000Y460000D02*
X500000D01*
X450000Y470000D02*
X500000D01*
X650000D02*
X660000D01*
X850000Y460000D02*
X860000D01*
X850000Y470000D02*
X860000D01*
X520000Y460000D02*
X570000D01*
X580000D02*
X590000D01*
X580000Y470000D02*
X590000D01*
X640000Y460000D02*
X650000D01*
X640000Y470000D02*
X650000D01*
Y460000D02*
X660000D01*
X710000D01*
X720000D01*
X730000D01*
X590000D02*
X640000D01*
X590000Y470000D02*
X640000D01*
X720000D02*
X730000D01*
Y460000D02*
X780000D01*
X730000Y470000D02*
X780000D01*
X570000D02*
X580000D01*
X570000Y460000D02*
X580000D01*
X510000D02*
X520000D01*
X510000Y470000D02*
X520000D01*
X500000Y460000D02*
X510000D01*
X500000Y470000D02*
X510000D01*
X660000D02*
X710000D01*
X720000D01*
X860000Y460000D02*
X870000D01*
X860000Y470000D02*
X870000D01*
X780000Y460000D02*
X790000D01*
X780000Y470000D02*
X790000D01*
Y460000D02*
X800000D01*
X790000Y470000D02*
X800000D01*
X870000Y180000D02*
X930000D01*
X380000Y470000D02*
X450000Y470000D01*
X190000Y470000D02*
X230000Y470000D01*
X540000Y180000D02*
X580000D01*
X520000D02*
X540000D01*
X260000D02*
X300000D01*
X240000D02*
X260000D01*
X380000Y460000D02*
X450000Y460000D01*
X310000Y460000D02*
X380000Y460000D01*
X230000Y460000D02*
X310000D01*
X170000Y460000D02*
X230000Y460000D01*
X160000Y460000D02*
X170000D01*
X520000Y170000D02*
X580000D01*
Y180000D02*
X590000D01*
X650000D01*
X660000D01*
X510000D02*
X520000D01*
X660000D02*
X720000D01*
X450000D02*
X510000D01*
X720000D02*
X730000D01*
X440000D02*
X450000D01*
X380000D02*
X440000D01*
X790000D02*
X800000D01*
X370000D02*
X380000D01*
X310000D02*
X370000D01*
X860000D02*
X870000D01*
X300000D02*
X310000D01*
X930000D02*
X940000D01*
X230000D02*
X240000D01*
X170000D02*
X230000D01*
X160000D02*
X170000D01*
X440000Y170000D02*
X450000D01*
X510000D01*
X380000D02*
X440000D01*
X510000D02*
X520000D01*
X370000D02*
X380000D01*
X310000D02*
X370000D01*
X580000D02*
X590000D01*
X300000D02*
X310000D01*
X590000D02*
X650000D01*
X240000D02*
X300000D01*
X650000D02*
X660000D01*
X230000D02*
X240000D01*
X660000D02*
X720000D01*
X170000D02*
X230000D01*
X720000D02*
X730000D01*
X160000D02*
X170000D01*
X730000D02*
X790000D01*
X800000D01*
X860000D02*
X870000D01*
X930000D02*
X940000D01*
D20*
X120000Y410000D02*
D03*
X680000D02*
D03*
X400000D02*
D03*
X990000D02*
D03*
X120000Y740000D02*
D03*
X400000D02*
D03*
X680000D02*
D03*
Y120000D02*
D03*
X400000D02*
D03*
X990000Y740000D02*
D03*
Y120000D02*
D03*
X120000D02*
D03*
D21*
X1000000Y470000D02*
D03*
X800000Y170000D02*
D03*
X125000Y470000D02*
D03*
X240000Y460000D02*
D03*
X510000D02*
D03*
X500000D02*
D03*
X850000D02*
D03*
X730000D02*
D03*
X710000D02*
D03*
X720000D02*
D03*
X580000D02*
D03*
X570000D02*
D03*
X590000D02*
D03*
X800000D02*
D03*
X790000D02*
D03*
X780000D02*
D03*
X860000D02*
D03*
X660000D02*
D03*
X870000D02*
D03*
X640000D02*
D03*
X520000D02*
D03*
X650000D02*
D03*
X170000D02*
D03*
X310000D02*
D03*
X380000D02*
D03*
X450000D02*
D03*
X120000Y180000D02*
D03*
X170000Y170000D02*
D03*
X240000D02*
D03*
X310000D02*
D03*
X380000D02*
D03*
X450000D02*
D03*
X520000D02*
D03*
X590000D02*
D03*
X660000D02*
D03*
X730000D02*
D03*
X870000D02*
D03*
X940000D02*
D03*
D22*
X990000Y470000D02*
D03*
X1000000Y480000D02*
D03*
X990000D02*
D03*
X1000000Y490000D02*
D03*
X990000D02*
D03*
X1000000Y500000D02*
D03*
X990000D02*
D03*
X1000000Y510000D02*
D03*
X990000D02*
D03*
X1000000Y520000D02*
D03*
X990000D02*
D03*
X1000000Y530000D02*
D03*
X990000D02*
D03*
X1000000Y540000D02*
D03*
X990000D02*
D03*
X1000000Y550000D02*
D03*
X990000D02*
D03*
X1000000Y560000D02*
D03*
X990000D02*
D03*
X1000000Y570000D02*
D03*
X990000D02*
D03*
X1000000Y580000D02*
D03*
X990000D02*
D03*
X1000000Y590000D02*
D03*
X990000D02*
D03*
X1000000Y600000D02*
D03*
X990000D02*
D03*
X1000000Y610000D02*
D03*
X990000D02*
D03*
X1000000Y620000D02*
D03*
X990000D02*
D03*
X1000000Y630000D02*
D03*
X990000D02*
D03*
X1000000Y640000D02*
D03*
X990000D02*
D03*
X1000000Y650000D02*
D03*
X990000D02*
D03*
X1000000Y660000D02*
D03*
X990000D02*
D03*
X800000Y310000D02*
D03*
Y300000D02*
D03*
Y290000D02*
D03*
Y320000D02*
D03*
Y330000D02*
D03*
Y360000D02*
D03*
Y280000D02*
D03*
Y270000D02*
D03*
X790000Y360000D02*
D03*
Y350000D02*
D03*
Y340000D02*
D03*
Y330000D02*
D03*
Y320000D02*
D03*
Y310000D02*
D03*
Y300000D02*
D03*
Y290000D02*
D03*
Y280000D02*
D03*
Y270000D02*
D03*
Y260000D02*
D03*
Y250000D02*
D03*
Y240000D02*
D03*
Y230000D02*
D03*
Y220000D02*
D03*
Y210000D02*
D03*
Y200000D02*
D03*
Y190000D02*
D03*
X800000Y350000D02*
D03*
Y340000D02*
D03*
Y260000D02*
D03*
Y250000D02*
D03*
Y240000D02*
D03*
Y230000D02*
D03*
Y220000D02*
D03*
Y210000D02*
D03*
Y200000D02*
D03*
Y190000D02*
D03*
X790000Y180000D02*
D03*
X800000D02*
D03*
X790000Y170000D02*
D03*
X115000Y470000D02*
D03*
X125000Y480000D02*
D03*
X115000D02*
D03*
Y490000D02*
D03*
Y500000D02*
D03*
Y510000D02*
D03*
Y520000D02*
D03*
Y530000D02*
D03*
Y540000D02*
D03*
Y550000D02*
D03*
Y560000D02*
D03*
Y570000D02*
D03*
Y580000D02*
D03*
Y590000D02*
D03*
Y600000D02*
D03*
Y610000D02*
D03*
Y620000D02*
D03*
Y630000D02*
D03*
Y640000D02*
D03*
Y650000D02*
D03*
Y660000D02*
D03*
X125000D02*
D03*
Y650000D02*
D03*
Y640000D02*
D03*
Y630000D02*
D03*
Y620000D02*
D03*
Y610000D02*
D03*
Y600000D02*
D03*
Y590000D02*
D03*
Y580000D02*
D03*
Y570000D02*
D03*
Y560000D02*
D03*
Y550000D02*
D03*
Y540000D02*
D03*
Y530000D02*
D03*
Y520000D02*
D03*
Y510000D02*
D03*
Y500000D02*
D03*
Y490000D02*
D03*
X230000Y460000D02*
D03*
X240000Y470000D02*
D03*
X230000D02*
D03*
X240000Y480000D02*
D03*
X230000D02*
D03*
X240000Y490000D02*
D03*
X230000D02*
D03*
X240000Y500000D02*
D03*
X230000D02*
D03*
X240000Y510000D02*
D03*
X230000D02*
D03*
X240000Y520000D02*
D03*
X230000D02*
D03*
X240000Y530000D02*
D03*
X230000D02*
D03*
X240000Y540000D02*
D03*
X230000D02*
D03*
X240000Y550000D02*
D03*
X230000D02*
D03*
X240000Y560000D02*
D03*
X230000D02*
D03*
X240000Y570000D02*
D03*
X230000D02*
D03*
X240000Y580000D02*
D03*
X230000D02*
D03*
X240000Y590000D02*
D03*
X230000D02*
D03*
X240000Y600000D02*
D03*
X230000D02*
D03*
X240000Y610000D02*
D03*
X230000D02*
D03*
X240000Y620000D02*
D03*
X230000D02*
D03*
X240000Y630000D02*
D03*
X230000D02*
D03*
X240000Y640000D02*
D03*
X230000D02*
D03*
X240000Y650000D02*
D03*
X230000D02*
D03*
X240000Y660000D02*
D03*
X230000D02*
D03*
X240000Y670000D02*
D03*
X230000D02*
D03*
X240000Y680000D02*
D03*
X230000D02*
D03*
X240000Y690000D02*
D03*
X230000D02*
D03*
X500000Y670000D02*
D03*
Y680000D02*
D03*
Y690000D02*
D03*
X110000Y290000D02*
D03*
Y280000D02*
D03*
X510000Y690000D02*
D03*
Y680000D02*
D03*
Y670000D02*
D03*
Y660000D02*
D03*
Y650000D02*
D03*
Y640000D02*
D03*
Y630000D02*
D03*
Y620000D02*
D03*
Y610000D02*
D03*
Y600000D02*
D03*
Y590000D02*
D03*
Y580000D02*
D03*
Y570000D02*
D03*
Y560000D02*
D03*
Y550000D02*
D03*
Y540000D02*
D03*
Y530000D02*
D03*
Y520000D02*
D03*
Y510000D02*
D03*
Y500000D02*
D03*
Y490000D02*
D03*
Y480000D02*
D03*
Y470000D02*
D03*
X500000Y660000D02*
D03*
Y650000D02*
D03*
Y640000D02*
D03*
Y630000D02*
D03*
Y620000D02*
D03*
Y610000D02*
D03*
Y600000D02*
D03*
Y590000D02*
D03*
Y580000D02*
D03*
Y570000D02*
D03*
Y560000D02*
D03*
Y550000D02*
D03*
Y540000D02*
D03*
Y530000D02*
D03*
Y520000D02*
D03*
Y510000D02*
D03*
Y500000D02*
D03*
Y490000D02*
D03*
Y480000D02*
D03*
Y470000D02*
D03*
X850000Y670000D02*
D03*
Y660000D02*
D03*
Y650000D02*
D03*
Y640000D02*
D03*
Y630000D02*
D03*
Y620000D02*
D03*
Y610000D02*
D03*
Y600000D02*
D03*
Y590000D02*
D03*
Y580000D02*
D03*
Y570000D02*
D03*
Y560000D02*
D03*
Y550000D02*
D03*
Y540000D02*
D03*
Y530000D02*
D03*
Y520000D02*
D03*
Y510000D02*
D03*
Y500000D02*
D03*
Y490000D02*
D03*
Y480000D02*
D03*
Y470000D02*
D03*
X730000Y670000D02*
D03*
Y660000D02*
D03*
Y650000D02*
D03*
Y640000D02*
D03*
Y630000D02*
D03*
Y620000D02*
D03*
Y610000D02*
D03*
Y600000D02*
D03*
Y590000D02*
D03*
Y580000D02*
D03*
Y570000D02*
D03*
Y560000D02*
D03*
Y550000D02*
D03*
Y540000D02*
D03*
Y530000D02*
D03*
Y520000D02*
D03*
Y510000D02*
D03*
Y500000D02*
D03*
Y490000D02*
D03*
Y480000D02*
D03*
Y470000D02*
D03*
X710000Y670000D02*
D03*
Y660000D02*
D03*
Y650000D02*
D03*
Y640000D02*
D03*
Y630000D02*
D03*
Y620000D02*
D03*
Y610000D02*
D03*
Y600000D02*
D03*
Y590000D02*
D03*
Y580000D02*
D03*
Y570000D02*
D03*
Y560000D02*
D03*
Y550000D02*
D03*
Y540000D02*
D03*
Y530000D02*
D03*
Y520000D02*
D03*
Y510000D02*
D03*
Y500000D02*
D03*
Y490000D02*
D03*
Y480000D02*
D03*
Y470000D02*
D03*
X720000Y670000D02*
D03*
Y660000D02*
D03*
Y650000D02*
D03*
Y640000D02*
D03*
Y630000D02*
D03*
Y620000D02*
D03*
Y610000D02*
D03*
Y600000D02*
D03*
Y590000D02*
D03*
Y580000D02*
D03*
Y570000D02*
D03*
Y560000D02*
D03*
Y550000D02*
D03*
Y540000D02*
D03*
Y530000D02*
D03*
Y520000D02*
D03*
Y510000D02*
D03*
Y500000D02*
D03*
Y490000D02*
D03*
Y480000D02*
D03*
Y470000D02*
D03*
X580000Y670000D02*
D03*
Y660000D02*
D03*
Y650000D02*
D03*
Y640000D02*
D03*
Y630000D02*
D03*
Y620000D02*
D03*
Y610000D02*
D03*
Y600000D02*
D03*
Y590000D02*
D03*
Y580000D02*
D03*
Y570000D02*
D03*
Y560000D02*
D03*
Y550000D02*
D03*
Y540000D02*
D03*
Y530000D02*
D03*
Y520000D02*
D03*
Y510000D02*
D03*
Y500000D02*
D03*
Y490000D02*
D03*
Y480000D02*
D03*
Y470000D02*
D03*
X570000Y670000D02*
D03*
Y660000D02*
D03*
Y650000D02*
D03*
Y640000D02*
D03*
Y630000D02*
D03*
Y620000D02*
D03*
Y610000D02*
D03*
Y600000D02*
D03*
Y590000D02*
D03*
Y580000D02*
D03*
Y570000D02*
D03*
Y560000D02*
D03*
Y550000D02*
D03*
Y540000D02*
D03*
Y530000D02*
D03*
Y520000D02*
D03*
Y510000D02*
D03*
Y500000D02*
D03*
Y490000D02*
D03*
Y480000D02*
D03*
Y470000D02*
D03*
X590000Y670000D02*
D03*
Y660000D02*
D03*
Y650000D02*
D03*
Y640000D02*
D03*
Y630000D02*
D03*
Y620000D02*
D03*
Y610000D02*
D03*
Y600000D02*
D03*
Y590000D02*
D03*
Y580000D02*
D03*
Y570000D02*
D03*
Y560000D02*
D03*
Y550000D02*
D03*
Y540000D02*
D03*
Y530000D02*
D03*
Y520000D02*
D03*
Y510000D02*
D03*
Y500000D02*
D03*
Y490000D02*
D03*
Y480000D02*
D03*
Y470000D02*
D03*
X800000Y670000D02*
D03*
Y660000D02*
D03*
Y650000D02*
D03*
Y640000D02*
D03*
Y630000D02*
D03*
Y620000D02*
D03*
Y610000D02*
D03*
Y600000D02*
D03*
Y590000D02*
D03*
Y580000D02*
D03*
Y570000D02*
D03*
Y560000D02*
D03*
Y550000D02*
D03*
Y540000D02*
D03*
Y530000D02*
D03*
Y520000D02*
D03*
Y510000D02*
D03*
Y500000D02*
D03*
Y490000D02*
D03*
Y480000D02*
D03*
Y470000D02*
D03*
X790000Y670000D02*
D03*
Y660000D02*
D03*
Y650000D02*
D03*
Y640000D02*
D03*
Y630000D02*
D03*
Y620000D02*
D03*
Y610000D02*
D03*
Y600000D02*
D03*
Y590000D02*
D03*
Y580000D02*
D03*
Y570000D02*
D03*
Y560000D02*
D03*
Y550000D02*
D03*
Y540000D02*
D03*
Y530000D02*
D03*
Y520000D02*
D03*
Y510000D02*
D03*
Y500000D02*
D03*
Y490000D02*
D03*
Y480000D02*
D03*
Y470000D02*
D03*
X780000Y670000D02*
D03*
Y660000D02*
D03*
Y650000D02*
D03*
Y640000D02*
D03*
Y630000D02*
D03*
Y620000D02*
D03*
Y610000D02*
D03*
Y600000D02*
D03*
Y590000D02*
D03*
Y580000D02*
D03*
Y570000D02*
D03*
Y560000D02*
D03*
Y550000D02*
D03*
Y540000D02*
D03*
Y530000D02*
D03*
Y520000D02*
D03*
Y510000D02*
D03*
Y500000D02*
D03*
Y490000D02*
D03*
Y480000D02*
D03*
Y470000D02*
D03*
X860000Y670000D02*
D03*
Y660000D02*
D03*
Y650000D02*
D03*
Y640000D02*
D03*
Y630000D02*
D03*
Y620000D02*
D03*
Y610000D02*
D03*
Y600000D02*
D03*
Y590000D02*
D03*
Y580000D02*
D03*
Y570000D02*
D03*
Y560000D02*
D03*
Y550000D02*
D03*
Y540000D02*
D03*
Y530000D02*
D03*
Y520000D02*
D03*
Y510000D02*
D03*
Y500000D02*
D03*
Y490000D02*
D03*
Y480000D02*
D03*
Y470000D02*
D03*
X660000Y670000D02*
D03*
Y660000D02*
D03*
Y650000D02*
D03*
Y640000D02*
D03*
Y630000D02*
D03*
Y620000D02*
D03*
Y610000D02*
D03*
Y600000D02*
D03*
Y590000D02*
D03*
Y580000D02*
D03*
Y570000D02*
D03*
Y560000D02*
D03*
Y550000D02*
D03*
Y540000D02*
D03*
Y530000D02*
D03*
Y520000D02*
D03*
Y510000D02*
D03*
Y500000D02*
D03*
Y490000D02*
D03*
Y480000D02*
D03*
Y470000D02*
D03*
X870000Y670000D02*
D03*
Y660000D02*
D03*
Y650000D02*
D03*
Y640000D02*
D03*
Y630000D02*
D03*
Y620000D02*
D03*
Y610000D02*
D03*
Y600000D02*
D03*
Y590000D02*
D03*
Y580000D02*
D03*
Y570000D02*
D03*
Y560000D02*
D03*
Y550000D02*
D03*
Y540000D02*
D03*
Y530000D02*
D03*
Y520000D02*
D03*
Y510000D02*
D03*
Y500000D02*
D03*
Y490000D02*
D03*
Y480000D02*
D03*
Y470000D02*
D03*
X640000Y670000D02*
D03*
Y660000D02*
D03*
Y650000D02*
D03*
Y640000D02*
D03*
Y630000D02*
D03*
Y620000D02*
D03*
Y610000D02*
D03*
Y600000D02*
D03*
Y590000D02*
D03*
Y580000D02*
D03*
Y570000D02*
D03*
Y560000D02*
D03*
Y550000D02*
D03*
Y540000D02*
D03*
Y530000D02*
D03*
Y520000D02*
D03*
Y510000D02*
D03*
Y500000D02*
D03*
Y490000D02*
D03*
Y480000D02*
D03*
Y470000D02*
D03*
X520000Y690000D02*
D03*
Y680000D02*
D03*
Y670000D02*
D03*
Y660000D02*
D03*
Y650000D02*
D03*
Y640000D02*
D03*
Y630000D02*
D03*
Y620000D02*
D03*
Y610000D02*
D03*
Y600000D02*
D03*
Y590000D02*
D03*
Y580000D02*
D03*
Y570000D02*
D03*
Y560000D02*
D03*
Y550000D02*
D03*
Y540000D02*
D03*
Y530000D02*
D03*
Y520000D02*
D03*
Y510000D02*
D03*
Y500000D02*
D03*
Y490000D02*
D03*
Y480000D02*
D03*
Y470000D02*
D03*
X650000Y670000D02*
D03*
Y660000D02*
D03*
Y650000D02*
D03*
Y640000D02*
D03*
Y630000D02*
D03*
Y620000D02*
D03*
Y610000D02*
D03*
Y600000D02*
D03*
Y590000D02*
D03*
Y580000D02*
D03*
Y570000D02*
D03*
Y560000D02*
D03*
Y550000D02*
D03*
Y540000D02*
D03*
Y530000D02*
D03*
Y520000D02*
D03*
Y510000D02*
D03*
Y500000D02*
D03*
Y490000D02*
D03*
Y480000D02*
D03*
Y470000D02*
D03*
X160000D02*
D03*
Y460000D02*
D03*
X170000Y470000D02*
D03*
Y480000D02*
D03*
X160000D02*
D03*
X170000Y490000D02*
D03*
X160000D02*
D03*
X170000Y500000D02*
D03*
X160000D02*
D03*
X170000Y510000D02*
D03*
X160000D02*
D03*
X170000Y520000D02*
D03*
X160000D02*
D03*
X170000Y530000D02*
D03*
X160000D02*
D03*
X170000Y540000D02*
D03*
X160000D02*
D03*
X170000Y550000D02*
D03*
X160000D02*
D03*
X170000Y560000D02*
D03*
X160000D02*
D03*
X170000Y570000D02*
D03*
X160000D02*
D03*
X170000Y580000D02*
D03*
X160000D02*
D03*
X170000Y590000D02*
D03*
X160000D02*
D03*
X170000Y600000D02*
D03*
X160000D02*
D03*
X170000Y610000D02*
D03*
X160000D02*
D03*
X170000Y620000D02*
D03*
X160000D02*
D03*
X170000Y630000D02*
D03*
X160000D02*
D03*
X170000Y640000D02*
D03*
X160000D02*
D03*
X170000Y650000D02*
D03*
X160000D02*
D03*
X170000Y660000D02*
D03*
X160000D02*
D03*
X170000Y670000D02*
D03*
X160000D02*
D03*
X300000Y460000D02*
D03*
X310000Y470000D02*
D03*
X300000D02*
D03*
X310000Y480000D02*
D03*
X300000D02*
D03*
X310000Y490000D02*
D03*
X300000D02*
D03*
X310000Y500000D02*
D03*
X300000D02*
D03*
X310000Y510000D02*
D03*
X300000D02*
D03*
X310000Y520000D02*
D03*
X300000D02*
D03*
X310000Y530000D02*
D03*
X300000D02*
D03*
X310000Y540000D02*
D03*
X300000D02*
D03*
X310000Y550000D02*
D03*
X300000D02*
D03*
X310000Y560000D02*
D03*
X300000D02*
D03*
X310000Y570000D02*
D03*
X300000D02*
D03*
X310000Y580000D02*
D03*
X300000D02*
D03*
X310000Y590000D02*
D03*
X300000D02*
D03*
X380000Y650000D02*
D03*
Y640000D02*
D03*
Y630000D02*
D03*
Y620000D02*
D03*
Y610000D02*
D03*
Y600000D02*
D03*
Y590000D02*
D03*
Y580000D02*
D03*
Y570000D02*
D03*
Y560000D02*
D03*
Y550000D02*
D03*
Y540000D02*
D03*
Y530000D02*
D03*
Y520000D02*
D03*
Y510000D02*
D03*
Y500000D02*
D03*
Y490000D02*
D03*
Y480000D02*
D03*
Y470000D02*
D03*
X450000Y650000D02*
D03*
Y640000D02*
D03*
Y630000D02*
D03*
Y620000D02*
D03*
Y610000D02*
D03*
Y600000D02*
D03*
Y590000D02*
D03*
Y580000D02*
D03*
Y570000D02*
D03*
Y560000D02*
D03*
Y550000D02*
D03*
Y540000D02*
D03*
Y530000D02*
D03*
Y520000D02*
D03*
Y510000D02*
D03*
Y500000D02*
D03*
Y490000D02*
D03*
Y480000D02*
D03*
Y470000D02*
D03*
X110000Y370000D02*
D03*
X120000D02*
D03*
X110000Y360000D02*
D03*
X120000D02*
D03*
X110000Y350000D02*
D03*
X120000D02*
D03*
X110000Y340000D02*
D03*
X120000D02*
D03*
X110000Y330000D02*
D03*
X120000D02*
D03*
X110000Y320000D02*
D03*
X120000D02*
D03*
X110000Y310000D02*
D03*
X120000D02*
D03*
X110000Y300000D02*
D03*
X120000D02*
D03*
Y290000D02*
D03*
Y280000D02*
D03*
X110000Y270000D02*
D03*
X120000D02*
D03*
X110000Y260000D02*
D03*
X120000D02*
D03*
X110000Y250000D02*
D03*
X120000D02*
D03*
X110000Y240000D02*
D03*
X120000D02*
D03*
X110000Y230000D02*
D03*
X120000D02*
D03*
X110000Y220000D02*
D03*
X120000D02*
D03*
X110000Y210000D02*
D03*
X120000D02*
D03*
X110000Y200000D02*
D03*
X120000D02*
D03*
X110000Y190000D02*
D03*
X120000D02*
D03*
X110000Y180000D02*
D03*
X160000Y170000D02*
D03*
X170000Y180000D02*
D03*
X160000D02*
D03*
X170000Y190000D02*
D03*
Y200000D02*
D03*
Y210000D02*
D03*
Y220000D02*
D03*
Y230000D02*
D03*
Y240000D02*
D03*
Y250000D02*
D03*
Y260000D02*
D03*
Y340000D02*
D03*
Y350000D02*
D03*
X230000Y170000D02*
D03*
X240000Y180000D02*
D03*
X230000D02*
D03*
X240000Y190000D02*
D03*
Y200000D02*
D03*
Y210000D02*
D03*
Y220000D02*
D03*
Y230000D02*
D03*
Y240000D02*
D03*
Y250000D02*
D03*
Y260000D02*
D03*
Y340000D02*
D03*
Y350000D02*
D03*
X300000Y170000D02*
D03*
X310000Y180000D02*
D03*
X300000D02*
D03*
X310000Y190000D02*
D03*
Y200000D02*
D03*
Y210000D02*
D03*
Y220000D02*
D03*
Y230000D02*
D03*
Y240000D02*
D03*
Y250000D02*
D03*
Y260000D02*
D03*
Y340000D02*
D03*
Y350000D02*
D03*
X370000Y170000D02*
D03*
X380000Y180000D02*
D03*
X370000D02*
D03*
X380000Y190000D02*
D03*
Y200000D02*
D03*
Y210000D02*
D03*
Y220000D02*
D03*
Y230000D02*
D03*
Y240000D02*
D03*
Y250000D02*
D03*
Y260000D02*
D03*
Y340000D02*
D03*
Y350000D02*
D03*
X440000Y170000D02*
D03*
X450000Y180000D02*
D03*
X440000D02*
D03*
X450000Y190000D02*
D03*
Y200000D02*
D03*
Y210000D02*
D03*
Y220000D02*
D03*
Y230000D02*
D03*
Y240000D02*
D03*
Y250000D02*
D03*
Y260000D02*
D03*
Y340000D02*
D03*
Y350000D02*
D03*
X510000Y170000D02*
D03*
X520000Y180000D02*
D03*
X510000D02*
D03*
X520000Y190000D02*
D03*
Y200000D02*
D03*
Y210000D02*
D03*
Y220000D02*
D03*
Y230000D02*
D03*
Y240000D02*
D03*
Y250000D02*
D03*
Y260000D02*
D03*
Y340000D02*
D03*
Y350000D02*
D03*
X580000Y170000D02*
D03*
X590000Y180000D02*
D03*
X580000D02*
D03*
X590000Y190000D02*
D03*
Y200000D02*
D03*
Y210000D02*
D03*
Y220000D02*
D03*
Y230000D02*
D03*
Y240000D02*
D03*
Y250000D02*
D03*
Y260000D02*
D03*
Y340000D02*
D03*
Y350000D02*
D03*
X650000Y170000D02*
D03*
X660000Y180000D02*
D03*
X650000D02*
D03*
X660000Y190000D02*
D03*
Y200000D02*
D03*
Y210000D02*
D03*
Y220000D02*
D03*
Y230000D02*
D03*
Y240000D02*
D03*
Y250000D02*
D03*
Y260000D02*
D03*
Y340000D02*
D03*
Y350000D02*
D03*
X720000Y170000D02*
D03*
X730000Y180000D02*
D03*
X720000D02*
D03*
X730000Y190000D02*
D03*
Y200000D02*
D03*
Y210000D02*
D03*
Y220000D02*
D03*
Y230000D02*
D03*
Y240000D02*
D03*
Y250000D02*
D03*
Y260000D02*
D03*
Y340000D02*
D03*
Y350000D02*
D03*
X860000Y170000D02*
D03*
X870000Y180000D02*
D03*
X860000D02*
D03*
X870000Y190000D02*
D03*
Y200000D02*
D03*
Y210000D02*
D03*
Y220000D02*
D03*
Y230000D02*
D03*
Y240000D02*
D03*
Y250000D02*
D03*
Y260000D02*
D03*
Y340000D02*
D03*
Y350000D02*
D03*
X930000Y170000D02*
D03*
X940000Y180000D02*
D03*
X930000D02*
D03*
X940000Y190000D02*
D03*
Y200000D02*
D03*
Y210000D02*
D03*
Y220000D02*
D03*
Y230000D02*
D03*
Y240000D02*
D03*
Y250000D02*
D03*
Y260000D02*
D03*
Y340000D02*
D03*
Y350000D02*
D03*
X930000Y190000D02*
D03*
X860000D02*
D03*
X720000D02*
D03*
X650000D02*
D03*
X580000D02*
D03*
X510000D02*
D03*
X440000D02*
D03*
X370000D02*
D03*
X300000D02*
D03*
X230000D02*
D03*
X160000D02*
D03*
X930000Y200000D02*
D03*
X860000D02*
D03*
X720000D02*
D03*
X650000D02*
D03*
X580000D02*
D03*
X510000D02*
D03*
X440000D02*
D03*
X370000D02*
D03*
X300000D02*
D03*
X230000D02*
D03*
X160000D02*
D03*
X930000Y210000D02*
D03*
X860000D02*
D03*
X720000D02*
D03*
X650000D02*
D03*
X580000D02*
D03*
X510000D02*
D03*
X440000D02*
D03*
X370000D02*
D03*
X300000D02*
D03*
X230000D02*
D03*
X160000D02*
D03*
X930000Y220000D02*
D03*
X860000D02*
D03*
X720000D02*
D03*
X650000D02*
D03*
X580000D02*
D03*
X510000D02*
D03*
X440000D02*
D03*
X370000D02*
D03*
X300000D02*
D03*
X230000D02*
D03*
X160000D02*
D03*
X930000Y230000D02*
D03*
X860000D02*
D03*
X720000D02*
D03*
X650000D02*
D03*
X580000D02*
D03*
X510000D02*
D03*
X440000D02*
D03*
X370000D02*
D03*
X300000D02*
D03*
X230000D02*
D03*
X160000D02*
D03*
X930000Y240000D02*
D03*
X860000D02*
D03*
X720000D02*
D03*
X650000D02*
D03*
X580000D02*
D03*
X510000D02*
D03*
X440000D02*
D03*
X370000D02*
D03*
X300000D02*
D03*
X230000D02*
D03*
X160000D02*
D03*
X930000Y250000D02*
D03*
X860000D02*
D03*
X720000D02*
D03*
X650000D02*
D03*
X580000D02*
D03*
X510000D02*
D03*
X440000D02*
D03*
X370000D02*
D03*
X300000D02*
D03*
X230000D02*
D03*
X160000D02*
D03*
X930000Y260000D02*
D03*
X860000D02*
D03*
X720000D02*
D03*
X650000D02*
D03*
X580000D02*
D03*
X510000D02*
D03*
X440000D02*
D03*
X370000D02*
D03*
X300000D02*
D03*
X230000D02*
D03*
X160000D02*
D03*
X930000Y270000D02*
D03*
X860000D02*
D03*
X720000D02*
D03*
X650000D02*
D03*
X580000D02*
D03*
X510000D02*
D03*
X440000D02*
D03*
X370000D02*
D03*
X300000D02*
D03*
X230000D02*
D03*
X160000D02*
D03*
X930000Y280000D02*
D03*
X860000D02*
D03*
X720000D02*
D03*
X650000D02*
D03*
X580000D02*
D03*
X510000D02*
D03*
X440000D02*
D03*
X370000D02*
D03*
X300000D02*
D03*
X230000D02*
D03*
X160000D02*
D03*
X930000Y290000D02*
D03*
X860000D02*
D03*
X720000D02*
D03*
X650000D02*
D03*
X580000D02*
D03*
X510000D02*
D03*
X440000D02*
D03*
X370000D02*
D03*
X300000D02*
D03*
X230000D02*
D03*
X160000D02*
D03*
X930000Y300000D02*
D03*
X860000D02*
D03*
X720000D02*
D03*
X650000D02*
D03*
X580000D02*
D03*
X510000D02*
D03*
X440000D02*
D03*
X370000D02*
D03*
X300000D02*
D03*
X230000D02*
D03*
X160000D02*
D03*
X930000Y310000D02*
D03*
X860000D02*
D03*
X720000D02*
D03*
X650000D02*
D03*
X580000D02*
D03*
X510000D02*
D03*
X440000D02*
D03*
X370000D02*
D03*
X300000D02*
D03*
X230000D02*
D03*
X160000D02*
D03*
X930000Y320000D02*
D03*
X860000D02*
D03*
X720000D02*
D03*
X650000D02*
D03*
X580000D02*
D03*
X510000D02*
D03*
X440000D02*
D03*
X370000D02*
D03*
X300000D02*
D03*
X230000D02*
D03*
X160000D02*
D03*
X930000Y330000D02*
D03*
X860000D02*
D03*
X720000D02*
D03*
X650000D02*
D03*
X580000D02*
D03*
X510000D02*
D03*
X440000D02*
D03*
X370000D02*
D03*
X300000D02*
D03*
X230000D02*
D03*
X160000D02*
D03*
X930000Y340000D02*
D03*
X860000D02*
D03*
X720000D02*
D03*
X650000D02*
D03*
X580000D02*
D03*
X510000D02*
D03*
X440000D02*
D03*
X370000D02*
D03*
X300000D02*
D03*
X230000D02*
D03*
X160000D02*
D03*
X930000Y350000D02*
D03*
X860000D02*
D03*
X720000D02*
D03*
X650000D02*
D03*
X580000D02*
D03*
X510000D02*
D03*
X440000D02*
D03*
X370000D02*
D03*
X300000D02*
D03*
X230000D02*
D03*
X160000D02*
D03*
X930000Y360000D02*
D03*
X860000D02*
D03*
X720000D02*
D03*
X650000D02*
D03*
X580000D02*
D03*
X510000D02*
D03*
X440000D02*
D03*
X370000D02*
D03*
X300000D02*
D03*
X230000D02*
D03*
X160000D02*
D03*
X940000Y270000D02*
D03*
X870000D02*
D03*
X730000D02*
D03*
X660000D02*
D03*
X590000D02*
D03*
X520000D02*
D03*
X450000D02*
D03*
X380000D02*
D03*
X310000D02*
D03*
X240000D02*
D03*
X170000D02*
D03*
X940000Y280000D02*
D03*
X870000D02*
D03*
X730000D02*
D03*
X660000D02*
D03*
X590000D02*
D03*
X520000D02*
D03*
X450000D02*
D03*
X380000D02*
D03*
X310000D02*
D03*
X240000D02*
D03*
X170000D02*
D03*
Y360000D02*
D03*
X240000D02*
D03*
X310000D02*
D03*
X380000D02*
D03*
X450000D02*
D03*
X520000D02*
D03*
X590000D02*
D03*
X660000D02*
D03*
X730000D02*
D03*
X870000D02*
D03*
X940000D02*
D03*
Y330000D02*
D03*
X870000D02*
D03*
X730000D02*
D03*
X660000D02*
D03*
X590000D02*
D03*
X520000D02*
D03*
X450000D02*
D03*
X380000D02*
D03*
X310000D02*
D03*
X240000D02*
D03*
X170000D02*
D03*
X940000Y320000D02*
D03*
X870000D02*
D03*
X730000D02*
D03*
X660000D02*
D03*
X590000D02*
D03*
X520000D02*
D03*
X450000D02*
D03*
X380000D02*
D03*
X310000D02*
D03*
X240000D02*
D03*
X170000D02*
D03*
X940000Y290000D02*
D03*
X870000D02*
D03*
X730000D02*
D03*
X660000D02*
D03*
X590000D02*
D03*
X520000D02*
D03*
X450000D02*
D03*
X380000D02*
D03*
X310000D02*
D03*
X240000D02*
D03*
X170000D02*
D03*
X940000Y300000D02*
D03*
X870000D02*
D03*
X730000D02*
D03*
X660000D02*
D03*
X590000D02*
D03*
X520000D02*
D03*
X450000D02*
D03*
X380000D02*
D03*
X310000D02*
D03*
X240000D02*
D03*
X170000D02*
D03*
X940000Y310000D02*
D03*
X870000D02*
D03*
X730000D02*
D03*
X660000D02*
D03*
X590000D02*
D03*
X520000D02*
D03*
X450000D02*
D03*
X380000D02*
D03*
X310000D02*
D03*
X240000D02*
D03*
X170000D02*
D03*
D23*
X835000Y180000D02*
D03*
X1095000Y120000D02*
D03*
X420000Y490000D02*
D03*
X1160000Y70000D02*
D03*
X1010000Y80000D02*
D03*
X1040000D02*
D03*
X540000Y470000D02*
D03*
X400000Y480000D02*
D03*
X330000Y500000D02*
D03*
Y470000D02*
D03*
X260000Y180000D02*
D03*
X540000D02*
D03*
X815000Y170000D02*
D03*
X750000Y470000D02*
D03*
D24*
X1000000Y682500D02*
D03*
X977500Y702500D02*
D03*
X995000Y690000D02*
D03*
X972500Y692500D02*
D03*
X985000Y697500D02*
D03*
X982500Y700000D02*
D03*
X990000Y695000D02*
D03*
X970000Y685000D02*
D03*
X980000Y687500D02*
D03*
X975000Y705000D02*
D03*
X1005000Y680000D02*
D03*
X542500Y705000D02*
D03*
Y607500D02*
D03*
X540000Y685000D02*
D03*
X537500Y687500D02*
D03*
X535000Y690000D02*
D03*
X532500Y692500D02*
D03*
X537500Y627500D02*
D03*
X532500Y647500D02*
D03*
X535000Y637500D02*
D03*
X540000Y617500D02*
D03*
X842500Y194453D02*
D03*
X840000Y204453D02*
D03*
X837500Y214453D02*
D03*
X835000Y224453D02*
D03*
X832500Y234453D02*
D03*
X830000Y244453D02*
D03*
X827500Y254453D02*
D03*
X825000Y264453D02*
D03*
X277500Y330000D02*
D03*
X280000Y320000D02*
D03*
X272500Y280000D02*
D03*
X270000Y270000D02*
D03*
X267500Y355547D02*
D03*
X265000Y345547D02*
D03*
X825000Y508000D02*
D03*
X827500Y518000D02*
D03*
X830000Y528000D02*
D03*
X832500Y538000D02*
D03*
X835000Y548000D02*
D03*
X837500Y558000D02*
D03*
X840000Y568000D02*
D03*
X842500Y578000D02*
D03*
X280000Y600000D02*
D03*
X277500Y590000D02*
D03*
X300000Y712500D02*
D03*
X125000Y705000D02*
D03*
X127500Y690000D02*
D03*
X130000Y680000D02*
D03*
X132500Y685000D02*
D03*
X137500Y505000D02*
D03*
X135000Y515000D02*
D03*
X132500Y525000D02*
D03*
X439500Y700000D02*
D03*
X437000Y697500D02*
D03*
X262500Y335547D02*
D03*
X260000Y325547D02*
D03*
X257500Y315547D02*
D03*
X255000Y305547D02*
D03*
X252500Y295547D02*
D03*
X250000Y285547D02*
D03*
X247500Y275547D02*
D03*
X245000Y265547D02*
D03*
X207500Y260000D02*
D03*
X210007Y250228D02*
D03*
X212500Y240000D02*
D03*
X215000Y230000D02*
D03*
X217500Y220000D02*
D03*
X220000Y210000D02*
D03*
X222500Y200000D02*
D03*
X429500Y710000D02*
D03*
X432000Y707500D02*
D03*
X434500Y705000D02*
D03*
X149500Y710000D02*
D03*
X147000Y707500D02*
D03*
X144500Y705000D02*
D03*
X142000Y535000D02*
D03*
Y545000D02*
D03*
Y555000D02*
D03*
Y565000D02*
D03*
X139500Y575000D02*
D03*
X137000Y585000D02*
D03*
X142000Y697500D02*
D03*
X139500Y700000D02*
D03*
X442000Y702500D02*
D03*
X137000D02*
D03*
X179500Y643000D02*
D03*
X153000Y634500D02*
D03*
X179500Y633000D02*
D03*
X153000Y624500D02*
D03*
X179500Y623000D02*
D03*
X153000Y614500D02*
D03*
X179500Y613000D02*
D03*
X153000Y604500D02*
D03*
X179500Y603000D02*
D03*
X153000Y594500D02*
D03*
Y584500D02*
D03*
X179500Y593000D02*
D03*
X809000Y671000D02*
D03*
X739000D02*
D03*
X669000D02*
D03*
X599000D02*
D03*
X809000Y661000D02*
D03*
X739000D02*
D03*
X669000D02*
D03*
X599000D02*
D03*
X809000Y651000D02*
D03*
X739000D02*
D03*
X669000D02*
D03*
X529000D02*
D03*
X599000D02*
D03*
X809000Y641000D02*
D03*
X739000D02*
D03*
X669000D02*
D03*
X529000D02*
D03*
X599000D02*
D03*
X809000Y631000D02*
D03*
X739000D02*
D03*
X669000D02*
D03*
X529000D02*
D03*
X599000D02*
D03*
X809000Y621000D02*
D03*
X739000D02*
D03*
X669000D02*
D03*
X529000D02*
D03*
X599000D02*
D03*
X809000Y611000D02*
D03*
X739000D02*
D03*
X669000D02*
D03*
X529000D02*
D03*
X599000D02*
D03*
X809000Y601000D02*
D03*
X739000D02*
D03*
X669000D02*
D03*
X529000D02*
D03*
X599000D02*
D03*
X809000Y591000D02*
D03*
X739000D02*
D03*
X669000D02*
D03*
X529000D02*
D03*
X599000D02*
D03*
X179500Y365000D02*
D03*
X204500Y390000D02*
D03*
X197000Y382500D02*
D03*
X199500Y385000D02*
D03*
X202000Y387500D02*
D03*
X189500Y375000D02*
D03*
X192000Y377500D02*
D03*
X194500Y380000D02*
D03*
X187000Y372500D02*
D03*
X184500Y370000D02*
D03*
X182000Y367500D02*
D03*
X599000Y521000D02*
D03*
Y511000D02*
D03*
Y541000D02*
D03*
Y531000D02*
D03*
Y561000D02*
D03*
Y551000D02*
D03*
Y571000D02*
D03*
Y581000D02*
D03*
X529000Y511000D02*
D03*
Y531000D02*
D03*
Y581000D02*
D03*
Y571000D02*
D03*
Y551000D02*
D03*
Y561000D02*
D03*
Y541000D02*
D03*
Y521000D02*
D03*
X669000D02*
D03*
Y511000D02*
D03*
Y541000D02*
D03*
Y531000D02*
D03*
Y561000D02*
D03*
Y551000D02*
D03*
Y571000D02*
D03*
Y581000D02*
D03*
X739000Y521000D02*
D03*
Y511000D02*
D03*
Y541000D02*
D03*
Y531000D02*
D03*
Y561000D02*
D03*
Y551000D02*
D03*
Y571000D02*
D03*
Y581000D02*
D03*
X809000D02*
D03*
Y521000D02*
D03*
Y541000D02*
D03*
Y531000D02*
D03*
Y561000D02*
D03*
Y551000D02*
D03*
Y571000D02*
D03*
Y511000D02*
D03*
M02*
