M48
;Layer_Color=9474304
;FILE_FORMAT=2:5
INCH,LZ
;TYPE=PLATED
T1F00S00C0.02756
T2F00S00C0.03346
T3F00S00C0.03543
T4F00S00C0.06299
T5F00S00C0.10900
%
T01
X0225Y03
X0255
T02
X0235Y028
X0265
T03
X011Y012
Y013
Y014
Y015
X012
Y014
Y013
Y012
X015Y013
Y014
Y015
X018
Y014
Y013
X021
Y014
Y015
X024
Y014
Y013
X032Y024
Y025
Y026
Y027
Y028
Y029
Y03
X029
Y029
Y028
Y027
Y026
Y025
Y024
X024
Y023
Y022
Y021
Y02
Y019
Y018
Y017
Y016
X021
Y017
Y018
Y019
Y02
Y021
Y022
Y023
Y024
Y025
Y026
X024
Y025
X018
Y026
Y027
Y028
Y029
Y03
Y031
Y022
Y021
Y02
Y019
Y018
Y017
Y016
X015
Y017
Y018
Y019
Y02
Y021
Y022
Y025
Y026
Y027
Y028
Y029
Y03
Y031
X012
X011
Y03
X012
Y029
X011
Y028
X012
Y027
X011
Y026
X012
Y025
X011
Y024
X012
Y023
X011
Y022
X012
Y021
X011
Y02
X012
Y019
X011
Y018
X012
Y017
X011
Y016
X012
T04
X026Y015
X029
X035Y024
Y028
X039Y026
X02Y031
T05
X0595Y0125
Y0305
M30
