G04*
G04 #@! TF.GenerationSoftware,Altium Limited,Altium Designer,21.0.9 (235)*
G04*
G04 Layer_Color=16711935*
%FSLAX25Y25*%
%MOIN*%
G70*
G04*
G04 #@! TF.SameCoordinates,FB95D301-224C-4E96-9DF8-CBEBB5970212*
G04*
G04*
G04 #@! TF.FilePolarity,Negative*
G04*
G01*
G75*
%ADD16C,0.06706*%
%ADD17R,0.06706X0.06706*%
%ADD18C,0.05721*%
%ADD19R,0.05721X0.05721*%
%ADD20C,0.09068*%
%ADD21R,0.06706X0.06706*%
%ADD22C,0.06706*%
%ADD23R,0.05721X0.05721*%
%ADD24C,0.00800*%
D16*
X120000Y250000D02*
D03*
X110000D02*
D03*
X120000Y240000D02*
D03*
X110000D02*
D03*
X120000Y230000D02*
D03*
X110000D02*
D03*
X120000Y220000D02*
D03*
X110000D02*
D03*
X120000Y210000D02*
D03*
X110000D02*
D03*
X120000Y200000D02*
D03*
X110000D02*
D03*
X120000Y190000D02*
D03*
X110000D02*
D03*
X120000Y180000D02*
D03*
X110000D02*
D03*
X120000Y170000D02*
D03*
X110000D02*
D03*
X120000Y160000D02*
D03*
X110000D02*
D03*
X120000Y150000D02*
D03*
X110000D02*
D03*
X120000Y140000D02*
D03*
X110000D02*
D03*
X120000Y130000D02*
D03*
X110000D02*
D03*
X120000Y120000D02*
D03*
X200000Y235000D02*
D03*
X250000D02*
D03*
D17*
X110000Y120000D02*
D03*
D18*
X360157Y220000D02*
D03*
X420157D02*
D03*
X190157Y350000D02*
D03*
X240158D02*
D03*
X290000D02*
D03*
X310157Y220000D02*
D03*
X190157Y260000D02*
D03*
X360157Y320000D02*
D03*
X310157D02*
D03*
X420157D02*
D03*
X240157Y260000D02*
D03*
D19*
X370000Y220000D02*
D03*
X430000D02*
D03*
X200000Y350000D02*
D03*
X250000D02*
D03*
X320000Y220000D02*
D03*
X200000Y260000D02*
D03*
X370000Y320000D02*
D03*
X320000D02*
D03*
X430000D02*
D03*
X250000Y260000D02*
D03*
D20*
X400000Y335000D02*
D03*
X340000D02*
D03*
X275000Y325000D02*
D03*
X130000Y290000D02*
D03*
Y310000D02*
D03*
Y330000D02*
D03*
X450000Y295000D02*
D03*
Y320000D02*
D03*
X455000Y135000D02*
D03*
D21*
X220000Y335000D02*
D03*
X290000Y205000D02*
D03*
X170000Y245000D02*
D03*
X290000Y305000D02*
D03*
X400000Y205000D02*
D03*
X340000Y305000D02*
D03*
X170000Y335000D02*
D03*
X340000Y205000D02*
D03*
X400000Y305000D02*
D03*
X220000Y245000D02*
D03*
D22*
Y325000D02*
D03*
Y315000D02*
D03*
Y305000D02*
D03*
Y295000D02*
D03*
Y285000D02*
D03*
Y275000D02*
D03*
X250000Y335000D02*
D03*
Y325000D02*
D03*
Y315000D02*
D03*
Y305000D02*
D03*
Y295000D02*
D03*
Y285000D02*
D03*
Y275000D02*
D03*
X290000Y195000D02*
D03*
Y185000D02*
D03*
Y175000D02*
D03*
Y165000D02*
D03*
Y155000D02*
D03*
Y145000D02*
D03*
Y135000D02*
D03*
X320000Y205000D02*
D03*
Y195000D02*
D03*
Y185000D02*
D03*
Y175000D02*
D03*
Y165000D02*
D03*
Y155000D02*
D03*
Y145000D02*
D03*
Y135000D02*
D03*
X200000Y155000D02*
D03*
Y165000D02*
D03*
Y175000D02*
D03*
Y185000D02*
D03*
Y195000D02*
D03*
Y205000D02*
D03*
Y215000D02*
D03*
Y225000D02*
D03*
Y245000D02*
D03*
X170000Y155000D02*
D03*
Y165000D02*
D03*
Y175000D02*
D03*
Y185000D02*
D03*
Y195000D02*
D03*
Y205000D02*
D03*
Y215000D02*
D03*
Y225000D02*
D03*
Y235000D02*
D03*
X320000D02*
D03*
Y245000D02*
D03*
Y255000D02*
D03*
Y265000D02*
D03*
Y275000D02*
D03*
Y285000D02*
D03*
Y295000D02*
D03*
Y305000D02*
D03*
X290000Y235000D02*
D03*
Y245000D02*
D03*
Y255000D02*
D03*
Y265000D02*
D03*
Y275000D02*
D03*
Y285000D02*
D03*
Y295000D02*
D03*
X430000Y135000D02*
D03*
Y145000D02*
D03*
Y155000D02*
D03*
Y165000D02*
D03*
Y175000D02*
D03*
Y185000D02*
D03*
Y195000D02*
D03*
Y205000D02*
D03*
X400000Y135000D02*
D03*
Y145000D02*
D03*
Y155000D02*
D03*
Y165000D02*
D03*
Y175000D02*
D03*
Y185000D02*
D03*
Y195000D02*
D03*
X370000Y235000D02*
D03*
Y245000D02*
D03*
Y255000D02*
D03*
Y265000D02*
D03*
Y275000D02*
D03*
Y285000D02*
D03*
Y295000D02*
D03*
Y305000D02*
D03*
X340000Y235000D02*
D03*
Y245000D02*
D03*
Y255000D02*
D03*
Y265000D02*
D03*
Y275000D02*
D03*
Y285000D02*
D03*
Y295000D02*
D03*
X200000Y275000D02*
D03*
Y285000D02*
D03*
Y295000D02*
D03*
Y305000D02*
D03*
Y315000D02*
D03*
Y325000D02*
D03*
Y335000D02*
D03*
X170000Y275000D02*
D03*
Y285000D02*
D03*
Y295000D02*
D03*
Y305000D02*
D03*
Y315000D02*
D03*
Y325000D02*
D03*
X370000Y135000D02*
D03*
Y145000D02*
D03*
Y155000D02*
D03*
Y165000D02*
D03*
Y175000D02*
D03*
Y185000D02*
D03*
Y195000D02*
D03*
Y205000D02*
D03*
X340000Y135000D02*
D03*
Y145000D02*
D03*
Y155000D02*
D03*
Y165000D02*
D03*
Y175000D02*
D03*
Y185000D02*
D03*
Y195000D02*
D03*
X430000Y235000D02*
D03*
Y245000D02*
D03*
Y255000D02*
D03*
Y265000D02*
D03*
Y275000D02*
D03*
Y285000D02*
D03*
Y295000D02*
D03*
Y305000D02*
D03*
X400000Y235000D02*
D03*
Y245000D02*
D03*
Y255000D02*
D03*
Y265000D02*
D03*
Y275000D02*
D03*
Y285000D02*
D03*
Y295000D02*
D03*
X220000Y235000D02*
D03*
Y225000D02*
D03*
Y215000D02*
D03*
Y205000D02*
D03*
Y195000D02*
D03*
Y185000D02*
D03*
Y175000D02*
D03*
Y165000D02*
D03*
Y155000D02*
D03*
X250000Y245000D02*
D03*
Y225000D02*
D03*
Y215000D02*
D03*
Y205000D02*
D03*
Y195000D02*
D03*
Y185000D02*
D03*
Y175000D02*
D03*
Y165000D02*
D03*
Y155000D02*
D03*
D23*
X290000Y342126D02*
D03*
D24*
X595000Y125000D02*
D03*
Y345000D02*
D03*
M02*
