G04*
G04 #@! TF.GenerationSoftware,Altium Limited,Altium Designer,21.0.9 (235)*
G04*
G04 Layer_Physical_Order=2*
G04 Layer_Color=16711680*
%FSLAX25Y25*%
%MOIN*%
G70*
G04*
G04 #@! TF.SameCoordinates,FB95D301-224C-4E96-9DF8-CBEBB5970212*
G04*
G04*
G04 #@! TF.FilePolarity,Positive*
G04*
G01*
G75*
%ADD15C,0.00800*%
%ADD25C,0.02000*%
%ADD26C,0.05906*%
%ADD27R,0.05906X0.05906*%
%ADD28C,0.04921*%
%ADD29R,0.04921X0.04921*%
%ADD30C,0.08268*%
%ADD31R,0.05906X0.05906*%
%ADD32C,0.05906*%
%ADD33R,0.04921X0.04921*%
%ADD34C,0.02200*%
%ADD35C,0.03000*%
G36*
X245039Y354961D02*
X245039Y354951D01*
Y353415D01*
X244132Y352861D01*
X242844Y352579D01*
X243540Y351811D01*
X243371Y351632D01*
X243219Y351451D01*
X243084Y351267D01*
X242966Y351081D01*
X242865Y350892D01*
X242781Y350701D01*
X242715Y350508D01*
X242665Y350312D01*
X242632Y350114D01*
X242617Y349913D01*
X240657Y352058D01*
Y350000D01*
X240158D01*
Y349500D01*
X236663D01*
X236486Y349270D01*
X206898D01*
X204982Y350680D01*
X204961Y350761D01*
Y354951D01*
X204961Y354961D01*
X204984Y357451D01*
X245016D01*
X245039Y354961D01*
D02*
G37*
G36*
X195039D02*
X195039Y354951D01*
Y353415D01*
X194132Y352861D01*
X192844Y352579D01*
X193540Y351811D01*
X193371Y351632D01*
X193219Y351451D01*
X193084Y351267D01*
X192966Y351081D01*
X192865Y350892D01*
X192781Y350701D01*
X192715Y350508D01*
X192665Y350312D01*
X192632Y350114D01*
X192617Y349913D01*
X190657Y352058D01*
Y350000D01*
Y346551D01*
X191493Y346775D01*
X192282Y347231D01*
X192539Y347488D01*
X194132Y347139D01*
X195039Y346585D01*
Y345039D01*
X199473D01*
X199507Y345029D01*
X199624Y345039D01*
X199771D01*
X199920Y345018D01*
X200002Y345039D01*
X200019D01*
X200475Y344652D01*
X200835Y344304D01*
X200908Y344257D01*
X200991Y344174D01*
X201014Y344146D01*
X201023Y344142D01*
X201922Y343243D01*
X202653Y342682D01*
X203504Y342330D01*
X204418Y342209D01*
X212775D01*
X214547Y340453D01*
X214547Y339709D01*
Y333772D01*
X205844D01*
X205453Y334282D01*
Y335718D01*
X205081Y337105D01*
X204363Y338348D01*
X203348Y339363D01*
X202105Y340081D01*
X200718Y340453D01*
X199282D01*
X197895Y340081D01*
X196652Y339363D01*
X195637Y338348D01*
X194919Y337105D01*
X194547Y335718D01*
Y334282D01*
X194156Y333772D01*
X175847D01*
X175453Y334118D01*
Y340453D01*
X164547D01*
Y337925D01*
X135000D01*
X134243Y337825D01*
X133537Y337533D01*
X132932Y337068D01*
X132799Y336936D01*
X132764Y336917D01*
X132764Y336917D01*
X132633Y336877D01*
X132398Y336825D01*
X132130Y336783D01*
X130626Y336684D01*
X130034Y336683D01*
X129793Y336634D01*
X129347D01*
X128065Y336379D01*
X126858Y335879D01*
X125771Y335153D01*
X124847Y334229D01*
X124121Y333142D01*
X123621Y331935D01*
X123366Y330653D01*
Y329347D01*
X123621Y328065D01*
X124121Y326858D01*
X124847Y325771D01*
X125771Y324847D01*
X126858Y324121D01*
X128065Y323621D01*
X129347Y323366D01*
X130653D01*
X131935Y323621D01*
X133142Y324121D01*
X134229Y324847D01*
X135153Y325771D01*
X135879Y326858D01*
X136379Y328065D01*
X136634Y329347D01*
Y329793D01*
X136683Y330034D01*
X136684Y330670D01*
X136700Y331184D01*
X136776Y332075D01*
X164547D01*
Y329547D01*
X164547D01*
X164919Y327105D01*
X164547Y325718D01*
Y324282D01*
X163506Y322925D01*
X140000D01*
X139243Y322825D01*
X138538Y322533D01*
X137932Y322068D01*
X132799Y316936D01*
X132764Y316917D01*
X132764Y316917D01*
X132633Y316877D01*
X132398Y316825D01*
X132130Y316783D01*
X130626Y316684D01*
X130034Y316683D01*
X129793Y316634D01*
X129347D01*
X128065Y316379D01*
X126858Y315879D01*
X125771Y315153D01*
X124847Y314229D01*
X124121Y313142D01*
X123621Y311935D01*
X123366Y310653D01*
Y309347D01*
X123621Y308065D01*
X124121Y306858D01*
X124847Y305771D01*
X125771Y304847D01*
X126858Y304121D01*
X128065Y303621D01*
X129347Y303366D01*
X130653D01*
X131935Y303621D01*
X133142Y304121D01*
X134229Y304847D01*
X135153Y305771D01*
X135879Y306858D01*
X136379Y308065D01*
X136634Y309347D01*
Y309793D01*
X136683Y310034D01*
X136684Y310670D01*
X136700Y311184D01*
X136779Y312105D01*
X136825Y312398D01*
X136877Y312633D01*
X136917Y312764D01*
X136917Y312764D01*
X136936Y312799D01*
X141212Y317075D01*
X163506D01*
X164547Y315718D01*
Y314282D01*
X164919Y312895D01*
X165637Y311652D01*
X166369Y310000D01*
X165637Y308348D01*
X164919Y307105D01*
X164547Y305718D01*
Y304282D01*
X164919Y302895D01*
X165637Y301652D01*
X166369Y300000D01*
X165637Y298348D01*
X164919Y297105D01*
X164547Y295718D01*
Y294282D01*
X164919Y292895D01*
X165637Y291652D01*
X166369Y290000D01*
X165637Y288348D01*
X164919Y287105D01*
X164871Y286925D01*
X137212D01*
X136936Y287201D01*
X136917Y287236D01*
X136917Y287236D01*
X136877Y287367D01*
X136825Y287602D01*
X136783Y287870D01*
X136684Y289374D01*
X136683Y289966D01*
X136634Y290207D01*
Y290653D01*
X136379Y291935D01*
X135879Y293142D01*
X135153Y294229D01*
X134229Y295153D01*
X133142Y295879D01*
X131935Y296379D01*
X130653Y296634D01*
X129347D01*
X128065Y296379D01*
X126858Y295879D01*
X125771Y295153D01*
X124847Y294229D01*
X124121Y293142D01*
X123621Y291935D01*
X123366Y290653D01*
Y289347D01*
X123621Y288065D01*
X124121Y286858D01*
X124847Y285771D01*
X125771Y284847D01*
X126858Y284121D01*
X128065Y283621D01*
X129347Y283366D01*
X129793D01*
X130034Y283317D01*
X130670Y283316D01*
X131184Y283299D01*
X132105Y283221D01*
X132398Y283175D01*
X132633Y283123D01*
X132764Y283083D01*
X132764Y283083D01*
X132799Y283064D01*
X133932Y281932D01*
X134537Y281467D01*
X135243Y281175D01*
X136000Y281075D01*
X163916D01*
X165433Y279558D01*
X166649Y277712D01*
X166317Y276526D01*
X166047Y275520D01*
Y275500D01*
X173953D01*
Y275520D01*
X175335Y277634D01*
X175764Y277922D01*
X192635D01*
X194547Y275718D01*
Y274282D01*
X194919Y272895D01*
X195637Y271652D01*
X196652Y270637D01*
X197895Y269919D01*
X199282Y269547D01*
X199777D01*
X200016Y269498D01*
X200399Y269496D01*
X201047Y269459D01*
X201242Y269434D01*
X201405Y269404D01*
X201477Y269386D01*
X203403Y267461D01*
X202367Y264961D01*
X195039D01*
Y263415D01*
X194132Y262861D01*
X192846Y262579D01*
X193498Y261927D01*
X193329Y261747D01*
X193178Y261566D01*
X193045Y261381D01*
X192930Y261195D01*
X192833Y261006D01*
X192754Y260814D01*
X192693Y260621D01*
X192650Y260424D01*
X192625Y260226D01*
X192618Y260025D01*
X190657Y261985D01*
Y260000D01*
Y256551D01*
X191493Y256775D01*
X191641Y256860D01*
X194102Y256273D01*
X194458Y256085D01*
X194934Y255083D01*
X193792Y252925D01*
X125014D01*
X124950Y252963D01*
X124814Y253057D01*
X124659Y253178D01*
X124174Y253609D01*
X123902Y253879D01*
X123698Y254013D01*
X123348Y254363D01*
X122105Y255081D01*
X120718Y255453D01*
X119282D01*
X117895Y255081D01*
X116652Y254363D01*
X115000Y253630D01*
X113348Y254363D01*
X112105Y255081D01*
X110718Y255453D01*
X109282D01*
X107895Y255081D01*
X106652Y254363D01*
X106030Y253742D01*
X104410Y254102D01*
X103530Y254643D01*
X103530Y357451D01*
X195016D01*
X195039Y354961D01*
D02*
G37*
G36*
X252332Y350376D02*
X252282Y350187D01*
X252287Y349972D01*
X252347Y349729D01*
X252462Y349460D01*
X252632Y349164D01*
X252857Y348840D01*
X253138Y348490D01*
X253863Y347709D01*
X252606Y346137D01*
X252188Y346541D01*
X251442Y347176D01*
X251114Y347405D01*
X250816Y347577D01*
X250548Y347691D01*
X250323Y347743D01*
X250537Y347551D01*
X250375Y347657D01*
X250185Y347709D01*
X249991Y347705D01*
X249925Y347682D01*
X249778Y347563D01*
X249886Y347684D01*
X249726Y347646D01*
X249457Y347532D01*
X249161Y347363D01*
X248838Y347139D01*
X248488Y346860D01*
X248112Y346526D01*
X247709Y346137D01*
X246137Y347394D01*
X246540Y347811D01*
X247172Y348556D01*
X247401Y348884D01*
X247571Y349181D01*
X247683Y349449D01*
X247738Y349687D01*
X247734Y349896D01*
X247672Y350074D01*
X247551Y350222D01*
X250109Y347934D01*
X252437Y350537D01*
X252332Y350376D01*
D02*
G37*
G36*
X202332D02*
X202282Y350187D01*
X202287Y349972D01*
X202347Y349729D01*
X202462Y349460D01*
X202632Y349164D01*
X202857Y348840D01*
X203138Y348490D01*
X203863Y347709D01*
X202606Y346137D01*
X202188Y346541D01*
X201442Y347176D01*
X201114Y347405D01*
X200816Y347577D01*
X200548Y347691D01*
X200310Y347746D01*
X200103Y347743D01*
X199925Y347682D01*
X199778Y347563D01*
X202437Y350537D01*
X202332Y350376D01*
D02*
G37*
G36*
X318929Y341076D02*
X318911Y341086D01*
X318875Y341094D01*
X318823Y341102D01*
X318668Y341113D01*
X318153Y341125D01*
X317982Y341126D01*
X317982Y343126D01*
X318929Y343176D01*
X318929Y341076D01*
D02*
G37*
G36*
X292457Y343936D02*
X292517Y343766D01*
X292618Y343616D01*
X292758Y343486D01*
X292940Y343376D01*
X293161Y343286D01*
X293423Y343216D01*
X293724Y343166D01*
X294066Y343136D01*
X294449Y343126D01*
Y341126D01*
X294066Y341116D01*
X293724Y341086D01*
X293423Y341036D01*
X293161Y340966D01*
X292940Y340876D01*
X292758Y340766D01*
X292618Y340636D01*
X292517Y340486D01*
X292457Y340316D01*
X292437Y340126D01*
Y344126D01*
X292457Y343936D01*
D02*
G37*
G36*
X287563Y340126D02*
X287543Y340316D01*
X287483Y340486D01*
X287382Y340636D01*
X287241Y340766D01*
X287060Y340876D01*
X286839Y340966D01*
X286578Y341036D01*
X286276Y341086D01*
X285934Y341116D01*
X285551Y341126D01*
Y343126D01*
X285934Y343136D01*
X286276Y343166D01*
X286578Y343216D01*
X286839Y343286D01*
X287060Y343376D01*
X287241Y343486D01*
X287382Y343616D01*
X287483Y343766D01*
X287543Y343936D01*
X287563Y344126D01*
Y340126D01*
D02*
G37*
G36*
X616470Y343538D02*
X616470Y126462D01*
X602557Y112549D01*
X414956D01*
X412873Y115013D01*
X412990Y115645D01*
X413810Y116119D01*
X414481Y116790D01*
X414955Y117610D01*
X415166Y118400D01*
X415374D01*
X416290Y118645D01*
X417110Y119119D01*
X417781Y119790D01*
X418255Y120610D01*
X418500Y121526D01*
Y122474D01*
X418255Y123390D01*
X417781Y124210D01*
X417110Y124881D01*
X416290Y125355D01*
X415374Y125600D01*
X414426D01*
X413511Y125355D01*
X412766Y124925D01*
X395100D01*
Y124974D01*
X394855Y125890D01*
X394381Y126710D01*
X393710Y127381D01*
X392890Y127855D01*
X392468Y127968D01*
X392355Y128390D01*
X391881Y129210D01*
X391210Y129881D01*
X390390Y130355D01*
X389474Y130600D01*
X388526D01*
X387610Y130355D01*
X387236Y130139D01*
X387203Y130125D01*
X376231D01*
X376124Y130212D01*
X374925Y132625D01*
X375081Y132895D01*
X375453Y134282D01*
Y135718D01*
X377365Y137922D01*
X394236D01*
X394665Y137634D01*
X396047Y135520D01*
Y135500D01*
X403953D01*
Y135520D01*
X405335Y137634D01*
X405764Y137922D01*
X415847D01*
X416604Y138022D01*
X417310Y138314D01*
X417915Y138779D01*
X422267Y143131D01*
X423623Y143010D01*
X425156Y142484D01*
X425637Y141652D01*
X426369Y140000D01*
X425637Y138348D01*
X424919Y137105D01*
X424547Y135718D01*
Y134282D01*
X424919Y132895D01*
X425637Y131652D01*
X426652Y130637D01*
X427895Y129919D01*
X429282Y129547D01*
X430718D01*
X432105Y129919D01*
X433348Y130637D01*
X433698Y130987D01*
X433902Y131122D01*
X434174Y131391D01*
X434658Y131822D01*
X434814Y131943D01*
X434950Y132037D01*
X435014Y132075D01*
X448116D01*
X448154Y132063D01*
X448155Y132063D01*
X448276Y131999D01*
X448478Y131870D01*
X448698Y131710D01*
X449831Y130716D01*
X450250Y130299D01*
X450456Y130163D01*
X450771Y129847D01*
X451858Y129121D01*
X453065Y128621D01*
X454347Y128366D01*
X455653D01*
X456935Y128621D01*
X458142Y129121D01*
X459229Y129847D01*
X460153Y130771D01*
X460879Y131858D01*
X461379Y133065D01*
X461634Y134347D01*
Y135653D01*
X461379Y136935D01*
X460879Y138142D01*
X460153Y139229D01*
X459229Y140153D01*
X458142Y140879D01*
X456935Y141379D01*
X455653Y141634D01*
X454347D01*
X453065Y141379D01*
X451858Y140879D01*
X450771Y140153D01*
X450456Y139837D01*
X450250Y139701D01*
X449800Y139253D01*
X449425Y138901D01*
X448718Y138305D01*
X448478Y138130D01*
X448275Y138001D01*
X448155Y137937D01*
X448154Y137937D01*
X448116Y137925D01*
X435014D01*
X434950Y137963D01*
X434814Y138057D01*
X434658Y138178D01*
X434435Y138377D01*
X434156Y138957D01*
X434051Y140948D01*
X434363Y141652D01*
X435081Y142895D01*
X435453Y144282D01*
Y145718D01*
X435081Y147105D01*
X434363Y148348D01*
X433631Y150000D01*
X434363Y151652D01*
X435081Y152895D01*
X435453Y154282D01*
Y155718D01*
X435081Y157105D01*
X434363Y158348D01*
X433631Y160000D01*
X434363Y161652D01*
X435081Y162895D01*
X435453Y164282D01*
Y165718D01*
X435081Y167105D01*
X434363Y168348D01*
X433631Y170000D01*
X434363Y171652D01*
X435081Y172895D01*
X435453Y174282D01*
Y175718D01*
X435081Y177105D01*
X434363Y178348D01*
X433631Y180000D01*
X434363Y181652D01*
X435081Y182895D01*
X435453Y184282D01*
Y185718D01*
X435081Y187105D01*
X434363Y188348D01*
X434051Y189052D01*
X434156Y191043D01*
X434435Y191623D01*
X434658Y191822D01*
X434814Y191943D01*
X434950Y192037D01*
X435014Y192075D01*
X436866D01*
X437610Y191645D01*
X438526Y191400D01*
X439474D01*
X440389Y191645D01*
X441211Y192119D01*
X441881Y192790D01*
X442355Y193610D01*
X442600Y194526D01*
Y195474D01*
X442355Y196390D01*
X441881Y197210D01*
X441211Y197881D01*
X440389Y198355D01*
X439474Y198600D01*
X438526D01*
X437610Y198355D01*
X436866Y197925D01*
X435014D01*
X434950Y197963D01*
X434814Y198057D01*
X434658Y198178D01*
X434435Y198377D01*
X434156Y198957D01*
X434051Y200948D01*
X434363Y201652D01*
X435081Y202895D01*
X435453Y204282D01*
Y205718D01*
X435081Y207105D01*
X434363Y208348D01*
X433348Y209363D01*
X432105Y210081D01*
X430718Y210453D01*
X429282D01*
X427895Y210081D01*
X426652Y209363D01*
X425637Y208348D01*
X424919Y207105D01*
X424547Y205718D01*
Y204282D01*
X424919Y202895D01*
X425637Y201652D01*
X426369Y200000D01*
X425637Y198348D01*
X424919Y197105D01*
X424547Y195718D01*
Y194282D01*
X424919Y192895D01*
X425637Y191652D01*
X426369Y190000D01*
X425637Y188348D01*
X424919Y187105D01*
X424547Y185718D01*
Y185222D01*
X424498Y184984D01*
X424497Y184601D01*
X424459Y183953D01*
X424434Y183758D01*
X424404Y183595D01*
X424386Y183523D01*
X414636Y173772D01*
X405844D01*
X405453Y174282D01*
Y175718D01*
X405081Y177105D01*
X404363Y178348D01*
X403630Y180000D01*
X404363Y181652D01*
X405081Y182895D01*
X405453Y184282D01*
Y185718D01*
X405081Y187105D01*
X404363Y188348D01*
X403348Y189363D01*
X403245Y189423D01*
X402967Y190244D01*
X402899Y192237D01*
X402941Y192351D01*
X403163Y192573D01*
X403683Y193474D01*
X403953Y194480D01*
Y194500D01*
X396047D01*
Y194480D01*
X396317Y193474D01*
X396837Y192573D01*
X397059Y192351D01*
X397101Y192237D01*
X397033Y190244D01*
X396755Y189423D01*
X396652Y189363D01*
X395637Y188348D01*
X394919Y187105D01*
X394547Y185718D01*
Y184282D01*
X394919Y182895D01*
X395637Y181652D01*
X396370Y180000D01*
X395637Y178348D01*
X394919Y177105D01*
X394547Y175718D01*
Y174282D01*
X394156Y173772D01*
X381678D01*
X381100Y174526D01*
Y175474D01*
X380855Y176390D01*
X380381Y177210D01*
X379710Y177881D01*
X378890Y178355D01*
X377974Y178600D01*
X377026D01*
X376540Y178470D01*
X373860Y181149D01*
X374363Y181652D01*
X375081Y182895D01*
X375453Y184282D01*
Y185718D01*
X375081Y187105D01*
X374363Y188348D01*
X373630Y190000D01*
X374363Y191652D01*
X375081Y192895D01*
X375453Y194282D01*
Y195718D01*
X375081Y197105D01*
X374363Y198348D01*
X373630Y200000D01*
X374363Y201652D01*
X375081Y202895D01*
X375453Y204282D01*
Y205718D01*
X375081Y207105D01*
X374363Y208348D01*
X373348Y209363D01*
X372105Y210081D01*
X370718Y210453D01*
X369864D01*
X368985Y211052D01*
X369065Y211978D01*
X370204Y213557D01*
X371446Y213562D01*
X371764Y213243D01*
X372496Y212682D01*
X373347Y212330D01*
X374261Y212209D01*
X425739D01*
X426653Y212330D01*
X427504Y212682D01*
X428236Y213243D01*
X429223Y214231D01*
X429286Y214269D01*
X430009Y214941D01*
X430132Y215039D01*
X430194D01*
X430380Y215002D01*
X430566Y215039D01*
X430632D01*
X430777Y215034D01*
X430793Y215039D01*
X434961D01*
Y224961D01*
X425039D01*
Y223415D01*
X424132Y222861D01*
X422539Y222512D01*
X422282Y222769D01*
X421493Y223225D01*
X420657Y223449D01*
Y220000D01*
X420157D01*
Y219500D01*
X416663D01*
X416486Y219270D01*
X377121D01*
X376395Y219649D01*
X374966Y220777D01*
X374961Y220793D01*
Y224961D01*
X365039D01*
Y224961D01*
X364934Y224876D01*
X362539Y224020D01*
X361693Y224737D01*
X361616Y225123D01*
X361658Y225769D01*
X361855Y226110D01*
X362100Y227026D01*
Y227974D01*
X361855Y228890D01*
X361381Y229710D01*
X360710Y230381D01*
X359890Y230855D01*
X358974Y231100D01*
X358524D01*
Y231398D01*
X358278Y232313D01*
X357804Y233134D01*
X357134Y233804D01*
X356313Y234278D01*
X355398Y234524D01*
X354450D01*
X353534Y234278D01*
X352713Y233804D01*
X352681Y233772D01*
X345646D01*
X344959Y235454D01*
X346585Y237575D01*
X350490D01*
X351234Y237145D01*
X352150Y236900D01*
X353098D01*
X354013Y237145D01*
X354834Y237619D01*
X355504Y238290D01*
X355978Y239110D01*
X356224Y240026D01*
Y240974D01*
X358517Y242075D01*
X364986D01*
X365050Y242037D01*
X365186Y241943D01*
X365341Y241822D01*
X365565Y241623D01*
X365844Y241043D01*
X365949Y239052D01*
X365637Y238348D01*
X364919Y237105D01*
X364547Y235718D01*
Y234282D01*
X364919Y232895D01*
X365637Y231652D01*
X366652Y230637D01*
X367895Y229919D01*
X369282Y229547D01*
X370718D01*
X372105Y229919D01*
X373348Y230637D01*
X374363Y231652D01*
X375081Y232895D01*
X375453Y234282D01*
Y235718D01*
X375081Y237105D01*
X374363Y238348D01*
X373630Y240000D01*
X374363Y241652D01*
X375081Y242895D01*
X375453Y244282D01*
Y245718D01*
X376494Y247075D01*
X393506D01*
X394547Y245718D01*
Y244282D01*
X394919Y242895D01*
X395637Y241652D01*
X396652Y240637D01*
X396755Y240577D01*
X397033Y239756D01*
X397101Y237763D01*
X397059Y237649D01*
X396837Y237427D01*
X396317Y236526D01*
X396047Y235520D01*
Y235500D01*
X403953D01*
Y235520D01*
X403683Y236526D01*
X403163Y237427D01*
X402941Y237649D01*
X402899Y237763D01*
X402967Y239756D01*
X403245Y240577D01*
X403348Y240637D01*
X404363Y241652D01*
X405081Y242895D01*
X405453Y244282D01*
Y245718D01*
X406494Y247075D01*
X423788D01*
X424386Y246477D01*
X424404Y246405D01*
X424434Y246242D01*
X424459Y246047D01*
X424497Y245399D01*
X424498Y245016D01*
X424547Y244777D01*
Y244282D01*
X424919Y242895D01*
X425637Y241652D01*
X426369Y240000D01*
X425637Y238348D01*
X424919Y237105D01*
X424547Y235718D01*
Y234282D01*
X424919Y232895D01*
X425637Y231652D01*
X426652Y230637D01*
X427895Y229919D01*
X429282Y229547D01*
X430718D01*
X432105Y229919D01*
X433348Y230637D01*
X434363Y231652D01*
X435081Y232895D01*
X435453Y234282D01*
Y235718D01*
X435081Y237105D01*
X434363Y238348D01*
X433631Y240000D01*
X434363Y241652D01*
X435081Y242895D01*
X435453Y244282D01*
Y245718D01*
X435081Y247105D01*
X434369Y248339D01*
X434363Y248349D01*
X433631Y250000D01*
X434363Y251651D01*
X434369Y251661D01*
X435081Y252895D01*
X435453Y254282D01*
Y255718D01*
X435081Y257105D01*
X434363Y258348D01*
X433631Y260000D01*
X434363Y261652D01*
X435081Y262895D01*
X435453Y264282D01*
Y265718D01*
X435081Y267105D01*
X434363Y268348D01*
X433631Y270000D01*
X434363Y271652D01*
X435081Y272895D01*
X435453Y274282D01*
Y275718D01*
X435081Y277105D01*
X434363Y278348D01*
X433631Y280000D01*
X434363Y281652D01*
X435081Y282895D01*
X435453Y284282D01*
Y285718D01*
X435081Y287105D01*
X434363Y288348D01*
X433631Y290000D01*
X434363Y291652D01*
X435081Y292895D01*
X435453Y294282D01*
Y295718D01*
X435844Y296228D01*
X439636D01*
X442932Y292932D01*
X443538Y292467D01*
X443878Y292326D01*
X443936Y292284D01*
X443946Y292281D01*
X444121Y291858D01*
X444847Y290771D01*
X445771Y289847D01*
X446858Y289121D01*
X448065Y288621D01*
X449347Y288366D01*
X450653D01*
X451935Y288621D01*
X453142Y289121D01*
X454229Y289847D01*
X455153Y290771D01*
X455879Y291858D01*
X456379Y293065D01*
X456634Y294347D01*
Y295653D01*
X456379Y296935D01*
X455879Y298142D01*
X455153Y299229D01*
X454229Y300153D01*
X453142Y300879D01*
X451935Y301379D01*
X450653Y301634D01*
X449347D01*
X448065Y301379D01*
X446858Y300879D01*
X445771Y300153D01*
X444877Y299259D01*
X442915Y301221D01*
X442310Y301686D01*
X441604Y301978D01*
X440847Y302078D01*
X437365D01*
X435453Y304282D01*
Y305718D01*
X435081Y307105D01*
X434363Y308348D01*
X433348Y309363D01*
X432105Y310081D01*
X430718Y310453D01*
X429282D01*
X427895Y310081D01*
X426652Y309363D01*
X425637Y308348D01*
X424919Y307105D01*
X424547Y305718D01*
Y304282D01*
X422635Y302078D01*
X411653D01*
X410896Y301978D01*
X410190Y301686D01*
X409585Y301221D01*
X407500Y299137D01*
X405415Y301221D01*
X404810Y301686D01*
X404104Y301978D01*
X403953Y301998D01*
Y304500D01*
X396047D01*
Y301057D01*
X392916Y297925D01*
X377084D01*
X373860Y301149D01*
X374363Y301652D01*
X375081Y302895D01*
X375453Y304282D01*
Y305718D01*
X375081Y307105D01*
X374363Y308348D01*
X373348Y309363D01*
X372105Y310081D01*
X370718Y310453D01*
X369282D01*
X367895Y310081D01*
X366652Y309363D01*
X365637Y308348D01*
X364919Y307105D01*
X364547Y305718D01*
Y304282D01*
X364919Y302895D01*
X365637Y301652D01*
X366140Y301149D01*
X362915Y297925D01*
X347281D01*
X345453Y299547D01*
Y310453D01*
X347225Y312209D01*
X365739D01*
X366653Y312330D01*
X367505Y312682D01*
X368236Y313243D01*
X369223Y314231D01*
X369286Y314269D01*
X369992Y314925D01*
X370328Y314641D01*
X370678Y314303D01*
X370751Y314257D01*
X371764Y313243D01*
X372496Y312682D01*
X373347Y312330D01*
X374261Y312209D01*
X425739D01*
X426653Y312330D01*
X427504Y312682D01*
X428236Y313243D01*
X429223Y314231D01*
X429286Y314269D01*
X430009Y314941D01*
X430132Y315039D01*
X430194D01*
X430380Y315002D01*
X430566Y315039D01*
X430632D01*
X430777Y315034D01*
X430793Y315039D01*
X434961D01*
Y316470D01*
X443309D01*
X443366Y316455D01*
X443566Y316444D01*
X443641Y316431D01*
X443742Y316404D01*
X443873Y316354D01*
X444034Y316276D01*
X444224Y316165D01*
X444411Y316037D01*
X444972Y315570D01*
X445270Y315280D01*
X445465Y315153D01*
X445771Y314847D01*
X446858Y314121D01*
X448065Y313621D01*
X449347Y313366D01*
X450653D01*
X451935Y313621D01*
X453142Y314121D01*
X454229Y314847D01*
X455153Y315771D01*
X455879Y316858D01*
X456379Y318065D01*
X456634Y319347D01*
Y320653D01*
X456379Y321935D01*
X455879Y323142D01*
X455153Y324229D01*
X454229Y325153D01*
X453142Y325879D01*
X451935Y326379D01*
X450653Y326634D01*
X449347D01*
X448065Y326379D01*
X446858Y325879D01*
X445771Y325153D01*
X445465Y324847D01*
X445270Y324720D01*
X444946Y324405D01*
X444683Y324174D01*
X444442Y323985D01*
X444224Y323835D01*
X444034Y323724D01*
X443873Y323646D01*
X443742Y323596D01*
X443641Y323569D01*
X443566Y323556D01*
X443366Y323545D01*
X443309Y323530D01*
X434961D01*
Y324961D01*
X425039D01*
Y323415D01*
X424132Y322861D01*
X422539Y322512D01*
X422282Y322769D01*
X421493Y323225D01*
X420657Y323449D01*
Y320000D01*
X420157D01*
Y319500D01*
X416663D01*
X416486Y319270D01*
X377121D01*
X376395Y319649D01*
X374966Y320777D01*
X374961Y320793D01*
Y324961D01*
X365039D01*
Y323415D01*
X364132Y322861D01*
X362846Y322579D01*
X363498Y321927D01*
X363329Y321747D01*
X363178Y321566D01*
X363045Y321381D01*
X362930Y321195D01*
X362833Y321006D01*
X362754Y320814D01*
X362693Y320621D01*
X362650Y320424D01*
X362625Y320226D01*
X362618Y320025D01*
X360658Y321985D01*
Y320000D01*
X360157D01*
Y319500D01*
X356663D01*
X356486Y319270D01*
X327121D01*
X326395Y319649D01*
X324966Y320777D01*
X324961Y320793D01*
Y324961D01*
X315039D01*
Y323415D01*
X314132Y322861D01*
X312846Y322579D01*
X313498Y321927D01*
X313329Y321747D01*
X313178Y321566D01*
X313045Y321381D01*
X312930Y321195D01*
X312833Y321006D01*
X312754Y320814D01*
X312693Y320621D01*
X312650Y320424D01*
X312625Y320226D01*
X312618Y320025D01*
X310658Y321985D01*
Y320000D01*
Y316551D01*
X311493Y316775D01*
X311611Y316843D01*
X311738Y316836D01*
X313500Y316055D01*
X314081Y315494D01*
X314047Y314403D01*
X313064Y313772D01*
X255844D01*
X255453Y314282D01*
Y315718D01*
X255081Y317105D01*
X254363Y318348D01*
X254051Y319052D01*
X254156Y321043D01*
X254434Y321623D01*
X254659Y321822D01*
X254814Y321942D01*
X254950Y322037D01*
X255014Y322075D01*
X268116D01*
X268154Y322063D01*
X268155Y322063D01*
X268275Y321999D01*
X268478Y321870D01*
X268698Y321710D01*
X269831Y320716D01*
X270250Y320299D01*
X270456Y320163D01*
X270771Y319847D01*
X271858Y319121D01*
X273065Y318621D01*
X274347Y318366D01*
X275653D01*
X276935Y318621D01*
X278142Y319121D01*
X279229Y319847D01*
X280153Y320771D01*
X280879Y321858D01*
X281379Y323065D01*
X281634Y324347D01*
Y325653D01*
X281379Y326935D01*
X280879Y328142D01*
X280153Y329229D01*
X279229Y330153D01*
X278142Y330879D01*
X276935Y331379D01*
X275653Y331634D01*
X274347D01*
X273065Y331379D01*
X271858Y330879D01*
X270771Y330153D01*
X270456Y329837D01*
X270250Y329701D01*
X269800Y329253D01*
X269425Y328901D01*
X268718Y328305D01*
X268478Y328130D01*
X268275Y328001D01*
X268155Y327937D01*
X268154Y327937D01*
X268116Y327925D01*
X255014D01*
X254950Y327963D01*
X254814Y328057D01*
X254659Y328178D01*
X254434Y328377D01*
X254156Y328957D01*
X254051Y330948D01*
X254363Y331652D01*
X255081Y332895D01*
X255453Y334282D01*
Y335718D01*
X255124Y336945D01*
X255515Y337476D01*
X257012Y338760D01*
X257118Y338716D01*
X258032Y338596D01*
X258032Y338596D01*
X285039D01*
Y337165D01*
X294961D01*
Y338596D01*
X317882D01*
X317974Y338577D01*
X318120Y338577D01*
X318149Y338576D01*
X318456Y338399D01*
X319473Y338126D01*
X320527D01*
X321544Y338399D01*
X322456Y338925D01*
X323201Y339670D01*
X323727Y340582D01*
X324000Y341599D01*
Y342653D01*
X323727Y343670D01*
X323201Y344582D01*
X322456Y345327D01*
X321544Y345853D01*
X320527Y346126D01*
X319473D01*
X318456Y345853D01*
X318170Y345689D01*
X317847Y345671D01*
X317788Y345656D01*
X296868D01*
X294961Y347087D01*
X294961D01*
X293737Y349080D01*
X293725Y349101D01*
Y349000D01*
X293478Y348993D01*
X293243Y348971D01*
X293019Y348935D01*
X292805Y348884D01*
X292603Y348819D01*
X292412Y348740D01*
X292232Y348646D01*
X292062Y348538D01*
X291904Y348415D01*
X291757Y348278D01*
Y349500D01*
X290000D01*
X286513D01*
X286262Y349080D01*
X285039Y347087D01*
Y347087D01*
X283132Y345656D01*
X259494D01*
X255770Y349380D01*
X255731Y349443D01*
X255070Y350156D01*
X254961Y350292D01*
Y350531D01*
X254982Y350680D01*
X254961Y350761D01*
Y354951D01*
X254961Y354961D01*
X254984Y357451D01*
X602557D01*
X616470Y343538D01*
D02*
G37*
G36*
X167071Y334200D02*
X167063Y334276D01*
X167039Y334344D01*
X166998Y334404D01*
X166941Y334456D01*
X166868Y334500D01*
X166779Y334536D01*
X166673Y334564D01*
X166552Y334584D01*
X166413Y334596D01*
X166259Y334600D01*
Y335400D01*
X166413Y335404D01*
X166552Y335416D01*
X166673Y335436D01*
X166779Y335464D01*
X166868Y335500D01*
X166941Y335544D01*
X166998Y335596D01*
X167039Y335656D01*
X167063Y335724D01*
X167071Y335800D01*
Y334200D01*
D02*
G37*
G36*
X218191Y332059D02*
X218128Y332104D01*
X218055Y332127D01*
X217970D01*
X217874Y332104D01*
X217766Y332059D01*
X217648Y331991D01*
X217517Y331901D01*
X217376Y331788D01*
X217059Y331494D01*
X216494Y332059D01*
X216652Y332223D01*
X216901Y332518D01*
X216991Y332648D01*
X217059Y332766D01*
X217105Y332874D01*
X217127Y332970D01*
Y333055D01*
X217105Y333128D01*
X217059Y333191D01*
X218191Y332059D01*
D02*
G37*
G36*
X134946Y334380D02*
X134785Y334185D01*
X134642Y333936D01*
X134517Y333634D01*
X134409Y333279D01*
X134319Y332872D01*
X134247Y332412D01*
X134155Y331332D01*
X134135Y330713D01*
X134134Y330041D01*
X130041Y334134D01*
X130713Y334136D01*
X132412Y334247D01*
X132872Y334319D01*
X133279Y334409D01*
X133634Y334517D01*
X133936Y334642D01*
X134185Y334785D01*
X134380Y334946D01*
X134946Y334380D01*
D02*
G37*
G36*
X173604Y328039D02*
X173476Y327887D01*
X173362Y327702D01*
X173262Y327484D01*
X173176Y327233D01*
X173104Y326949D01*
X173046Y326631D01*
X173001Y326281D01*
X172955Y325480D01*
X172953Y325029D01*
X170029Y327953D01*
X170480Y327955D01*
X171281Y328001D01*
X171631Y328046D01*
X171949Y328104D01*
X172233Y328176D01*
X172484Y328262D01*
X172702Y328362D01*
X172887Y328476D01*
X173039Y328604D01*
X173604Y328039D01*
D02*
G37*
G36*
X252429Y326750D02*
X253028Y326217D01*
X253307Y326000D01*
X253573Y325817D01*
X253825Y325667D01*
X254063Y325550D01*
X254288Y325467D01*
X254500Y325417D01*
X254697Y325400D01*
Y324600D01*
X254500Y324583D01*
X254288Y324533D01*
X254063Y324450D01*
X253825Y324333D01*
X253573Y324183D01*
X253307Y324000D01*
X253028Y323783D01*
X252429Y323250D01*
X252109Y322933D01*
Y327067D01*
X252429Y326750D01*
D02*
G37*
G36*
X247891Y322933D02*
X247571Y323250D01*
X246972Y323783D01*
X246693Y324000D01*
X246427Y324183D01*
X246175Y324333D01*
X245937Y324450D01*
X245712Y324533D01*
X245500Y324583D01*
X245303Y324600D01*
Y325400D01*
X245500Y325417D01*
X245712Y325467D01*
X245937Y325550D01*
X246175Y325667D01*
X246427Y325817D01*
X246693Y326000D01*
X246972Y326217D01*
X247571Y326750D01*
X247891Y327067D01*
Y322933D01*
D02*
G37*
G36*
X222429Y326750D02*
X223028Y326217D01*
X223307Y326000D01*
X223573Y325817D01*
X223825Y325667D01*
X224063Y325550D01*
X224288Y325467D01*
X224500Y325417D01*
X224697Y325400D01*
Y324600D01*
X224500Y324583D01*
X224288Y324533D01*
X224063Y324450D01*
X223825Y324333D01*
X223573Y324183D01*
X223307Y324000D01*
X223028Y323783D01*
X222429Y323250D01*
X222109Y322933D01*
Y327067D01*
X222429Y326750D01*
D02*
G37*
G36*
X197891Y322933D02*
X197571Y323250D01*
X196972Y323783D01*
X196693Y324000D01*
X196427Y324183D01*
X196175Y324333D01*
X195937Y324450D01*
X195712Y324533D01*
X195501Y324583D01*
X195303Y324600D01*
Y325400D01*
X195501Y325417D01*
X195712Y325467D01*
X195937Y325550D01*
X196175Y325667D01*
X196427Y325817D01*
X196693Y326000D01*
X196972Y326217D01*
X197571Y326750D01*
X197891Y327067D01*
Y322933D01*
D02*
G37*
G36*
X272048Y322106D02*
X271571Y322580D01*
X270292Y323702D01*
X269915Y323977D01*
X269563Y324201D01*
X269236Y324376D01*
X268934Y324500D01*
X268657Y324575D01*
X268405Y324600D01*
Y325400D01*
X268657Y325425D01*
X268934Y325500D01*
X269236Y325624D01*
X269563Y325799D01*
X269915Y326023D01*
X270292Y326298D01*
X271120Y326996D01*
X271571Y327420D01*
X272048Y327894D01*
Y322106D01*
D02*
G37*
G36*
X219970Y322047D02*
X219520Y322045D01*
X218719Y321999D01*
X218369Y321954D01*
X218051Y321896D01*
X217767Y321824D01*
X217516Y321738D01*
X217298Y321638D01*
X217113Y321524D01*
X216961Y321396D01*
X216396Y321961D01*
X216524Y322113D01*
X216638Y322298D01*
X216738Y322516D01*
X216824Y322767D01*
X216896Y323051D01*
X216954Y323369D01*
X216999Y323719D01*
X217045Y324520D01*
X217047Y324971D01*
X219970Y322047D01*
D02*
G37*
G36*
X432457Y321810D02*
X432517Y321640D01*
X432618Y321490D01*
X432759Y321360D01*
X432940Y321250D01*
X433161Y321160D01*
X433423Y321090D01*
X433724Y321040D01*
X434066Y321010D01*
X434449Y321000D01*
Y319000D01*
X434066Y318990D01*
X433724Y318960D01*
X433423Y318910D01*
X433161Y318840D01*
X432940Y318750D01*
X432759Y318640D01*
X432618Y318510D01*
X432517Y318360D01*
X432457Y318190D01*
X432437Y318000D01*
Y322000D01*
X432457Y321810D01*
D02*
G37*
G36*
X372336Y320224D02*
X372279Y320040D01*
Y319828D01*
X372336Y319588D01*
X372449Y319319D01*
X372618Y319022D01*
X372845Y318697D01*
X373127Y318343D01*
X373863Y317551D01*
X372449Y316137D01*
X372039Y316533D01*
X371303Y317155D01*
X370978Y317382D01*
X370681Y317551D01*
X370412Y317665D01*
X370222Y317709D01*
X370380Y317551D01*
X370224Y317665D01*
X370040Y317721D01*
X369960D01*
X369776Y317665D01*
X369620Y317551D01*
X369778Y317709D01*
X369588Y317665D01*
X369319Y317551D01*
X369022Y317382D01*
X368697Y317155D01*
X368343Y316873D01*
X367551Y316137D01*
X366137Y317551D01*
X366533Y317962D01*
X367155Y318697D01*
X367382Y319022D01*
X367551Y319319D01*
X367665Y319588D01*
X367721Y319828D01*
Y320040D01*
X367665Y320224D01*
X367551Y320380D01*
X370000Y317931D01*
X372449Y320380D01*
X372336Y320224D01*
D02*
G37*
G36*
X430380Y317551D02*
X430224Y317665D01*
X430040Y317721D01*
X429828D01*
X429588Y317665D01*
X429319Y317551D01*
X429022Y317382D01*
X428697Y317155D01*
X428343Y316873D01*
X427551Y316137D01*
X426137Y317551D01*
X426533Y317962D01*
X427155Y318697D01*
X427382Y319022D01*
X427551Y319319D01*
X427665Y319588D01*
X427721Y319828D01*
Y320040D01*
X427665Y320224D01*
X427551Y320380D01*
X430380Y317551D01*
D02*
G37*
G36*
X447048Y317106D02*
X446678Y317466D01*
X445950Y318072D01*
X445591Y318318D01*
X445235Y318527D01*
X444883Y318697D01*
X444534Y318830D01*
X444189Y318924D01*
X443847Y318981D01*
X443509Y319000D01*
Y321000D01*
X443847Y321019D01*
X444189Y321076D01*
X444534Y321170D01*
X444883Y321303D01*
X445235Y321473D01*
X445591Y321682D01*
X445950Y321928D01*
X446312Y322212D01*
X446678Y322534D01*
X447048Y322894D01*
Y317106D01*
D02*
G37*
G36*
X322336Y320224D02*
X322279Y320040D01*
Y319828D01*
X322336Y319588D01*
X322449Y319319D01*
X322618Y319022D01*
X322845Y318697D01*
X323127Y318343D01*
X323863Y317551D01*
X322449Y316137D01*
X322039Y316533D01*
X321303Y317155D01*
X320978Y317382D01*
X320681Y317551D01*
X320412Y317665D01*
X320172Y317721D01*
X319960D01*
X319776Y317665D01*
X319620Y317551D01*
X322449Y320380D01*
X322336Y320224D01*
D02*
G37*
G36*
X247113Y318476D02*
X247298Y318362D01*
X247516Y318262D01*
X247767Y318176D01*
X248051Y318104D01*
X248369Y318046D01*
X248719Y318002D01*
X249520Y317955D01*
X249971Y317953D01*
X247047Y315030D01*
X247045Y315480D01*
X246999Y316281D01*
X246954Y316631D01*
X246896Y316949D01*
X246824Y317233D01*
X246738Y317484D01*
X246638Y317702D01*
X246524Y317887D01*
X246396Y318039D01*
X246961Y318604D01*
X247113Y318476D01*
D02*
G37*
G36*
X173604Y318039D02*
X173476Y317887D01*
X173362Y317702D01*
X173262Y317484D01*
X173176Y317233D01*
X173104Y316949D01*
X173046Y316631D01*
X173001Y316281D01*
X172955Y315480D01*
X172953Y315030D01*
X170029Y317953D01*
X170480Y317955D01*
X171281Y318002D01*
X171631Y318046D01*
X171949Y318104D01*
X172233Y318176D01*
X172484Y318262D01*
X172702Y318362D01*
X172887Y318476D01*
X173039Y318604D01*
X173604Y318039D01*
D02*
G37*
G36*
X222429Y316750D02*
X223028Y316217D01*
X223307Y316000D01*
X223573Y315817D01*
X223825Y315667D01*
X224063Y315550D01*
X224288Y315467D01*
X224500Y315417D01*
X224697Y315400D01*
Y314600D01*
X224500Y314583D01*
X224288Y314533D01*
X224063Y314450D01*
X223825Y314333D01*
X223573Y314183D01*
X223307Y314000D01*
X223028Y313783D01*
X222429Y313250D01*
X222109Y312933D01*
Y317067D01*
X222429Y316750D01*
D02*
G37*
G36*
X202429D02*
X203028Y316217D01*
X203307Y316000D01*
X203573Y315817D01*
X203825Y315667D01*
X204063Y315550D01*
X204288Y315467D01*
X204500Y315417D01*
X204697Y315400D01*
Y314600D01*
X204500Y314583D01*
X204288Y314533D01*
X204063Y314450D01*
X203825Y314333D01*
X203573Y314183D01*
X203307Y314000D01*
X203028Y313783D01*
X202429Y313250D01*
X202109Y312933D01*
Y317067D01*
X202429Y316750D01*
D02*
G37*
G36*
X324214Y310077D02*
X324140Y310148D01*
X324062Y310210D01*
X323981Y310266D01*
X323897Y310314D01*
X323808Y310355D01*
X323717Y310388D01*
X323622Y310414D01*
X323523Y310433D01*
X323421Y310444D01*
X323315Y310447D01*
X323315Y311247D01*
X323421Y311251D01*
X323523Y311262D01*
X323622Y311280D01*
X323717Y311306D01*
X323808Y311340D01*
X323897Y311380D01*
X323981Y311428D01*
X324062Y311484D01*
X324140Y311547D01*
X324215Y311617D01*
X324214Y310077D01*
D02*
G37*
G36*
X134946Y314380D02*
X134785Y314184D01*
X134642Y313936D01*
X134517Y313634D01*
X134409Y313279D01*
X134319Y312872D01*
X134247Y312412D01*
X134155Y311332D01*
X134135Y310713D01*
X134134Y310041D01*
X130041Y314134D01*
X130713Y314136D01*
X132412Y314247D01*
X132872Y314319D01*
X133279Y314409D01*
X133634Y314517D01*
X133936Y314642D01*
X134185Y314785D01*
X134380Y314946D01*
X134946Y314380D01*
D02*
G37*
G36*
X337071Y304200D02*
X337063Y304276D01*
X337039Y304344D01*
X336998Y304404D01*
X336941Y304456D01*
X336868Y304500D01*
X336779Y304536D01*
X336673Y304564D01*
X336552Y304584D01*
X336414Y304596D01*
X336259Y304600D01*
Y305400D01*
X336414Y305404D01*
X336552Y305416D01*
X336673Y305436D01*
X336779Y305464D01*
X336868Y305500D01*
X336941Y305544D01*
X336998Y305596D01*
X337039Y305656D01*
X337063Y305724D01*
X337071Y305800D01*
Y304200D01*
D02*
G37*
G36*
X292937Y305724D02*
X292961Y305656D01*
X293002Y305596D01*
X293059Y305544D01*
X293132Y305500D01*
X293221Y305464D01*
X293327Y305436D01*
X293448Y305416D01*
X293586Y305404D01*
X293741Y305400D01*
Y304600D01*
X293586Y304596D01*
X293448Y304584D01*
X293327Y304564D01*
X293221Y304536D01*
X293132Y304500D01*
X293059Y304456D01*
X293002Y304404D01*
X292961Y304344D01*
X292937Y304276D01*
X292929Y304200D01*
Y305800D01*
X292937Y305724D01*
D02*
G37*
G36*
X287071Y304200D02*
X287063Y304276D01*
X287039Y304344D01*
X286998Y304404D01*
X286941Y304456D01*
X286868Y304500D01*
X286779Y304536D01*
X286673Y304564D01*
X286552Y304584D01*
X286414Y304596D01*
X286259Y304600D01*
Y305400D01*
X286414Y305404D01*
X286552Y305416D01*
X286673Y305436D01*
X286779Y305464D01*
X286868Y305500D01*
X286941Y305544D01*
X286998Y305596D01*
X287039Y305656D01*
X287063Y305724D01*
X287071Y305800D01*
Y304200D01*
D02*
G37*
G36*
X194547Y315718D02*
Y314282D01*
X194919Y312895D01*
X195637Y311652D01*
X196652Y310637D01*
X196755Y310577D01*
X197033Y309756D01*
X197101Y307763D01*
X197059Y307649D01*
X196837Y307427D01*
X196317Y306526D01*
X196047Y305520D01*
Y305500D01*
X200000D01*
Y304500D01*
X196047D01*
Y304480D01*
X194665Y302366D01*
X194236Y302078D01*
X177059D01*
X175614Y303523D01*
X175596Y303595D01*
X175566Y303758D01*
X175541Y303953D01*
X175504Y304601D01*
X175502Y304984D01*
X175453Y305223D01*
Y305718D01*
X175081Y307105D01*
X174363Y308348D01*
X173630Y310000D01*
X174363Y311652D01*
X175081Y312895D01*
X175453Y314282D01*
Y314777D01*
X175502Y315016D01*
X175504Y315399D01*
X175541Y316047D01*
X175566Y316242D01*
X175596Y316405D01*
X175614Y316477D01*
X177059Y317922D01*
X192635D01*
X194547Y315718D01*
D02*
G37*
G36*
X249971Y302047D02*
X249520Y302045D01*
X248719Y301999D01*
X248369Y301954D01*
X248051Y301896D01*
X247767Y301824D01*
X247516Y301738D01*
X247298Y301638D01*
X247113Y301524D01*
X246961Y301396D01*
X246396Y301961D01*
X246524Y302113D01*
X246638Y302298D01*
X246738Y302516D01*
X246824Y302767D01*
X246896Y303051D01*
X246954Y303369D01*
X246999Y303719D01*
X247045Y304520D01*
X247047Y304971D01*
X249971Y302047D01*
D02*
G37*
G36*
X172955Y304520D02*
X173001Y303719D01*
X173046Y303369D01*
X173104Y303051D01*
X173176Y302767D01*
X173262Y302516D01*
X173362Y302298D01*
X173476Y302113D01*
X173604Y301961D01*
X173039Y301396D01*
X172887Y301524D01*
X172702Y301638D01*
X172484Y301738D01*
X172233Y301824D01*
X171949Y301896D01*
X171631Y301954D01*
X171281Y301998D01*
X170480Y302045D01*
X170029Y302047D01*
X172953Y304971D01*
X172955Y304520D01*
D02*
G37*
G36*
X208947Y301576D02*
X209015Y301507D01*
X209087Y301446D01*
X209164Y301394D01*
X209247Y301349D01*
X209334Y301312D01*
X209426Y301284D01*
X209523Y301263D01*
X209625Y301251D01*
X209732Y301247D01*
X209611Y300447D01*
X209507Y300444D01*
X209405Y300434D01*
X209306Y300419D01*
X209208Y300396D01*
X209113Y300367D01*
X209020Y300332D01*
X208930Y300291D01*
X208841Y300243D01*
X208755Y300189D01*
X208671Y300128D01*
X208885Y301654D01*
X208947Y301576D01*
D02*
G37*
G36*
X408974Y295908D02*
X408902Y295831D01*
X408838Y295751D01*
X408781Y295668D01*
X408732Y295583D01*
X408691Y295494D01*
X408657Y295403D01*
X408631Y295309D01*
X408613Y295213D01*
X408603Y295113D01*
X408600Y295011D01*
X407511Y296100D01*
X407613Y296103D01*
X407713Y296113D01*
X407809Y296131D01*
X407903Y296157D01*
X407994Y296191D01*
X408083Y296232D01*
X408168Y296281D01*
X408251Y296338D01*
X408331Y296402D01*
X408408Y296474D01*
X408974Y295908D01*
D02*
G37*
G36*
X406669Y296402D02*
X406749Y296338D01*
X406832Y296281D01*
X406917Y296232D01*
X407006Y296191D01*
X407097Y296157D01*
X407191Y296131D01*
X407287Y296113D01*
X407387Y296103D01*
X407489Y296100D01*
X406400Y295011D01*
X406397Y295113D01*
X406387Y295213D01*
X406369Y295309D01*
X406343Y295403D01*
X406309Y295494D01*
X406268Y295583D01*
X406219Y295668D01*
X406162Y295751D01*
X406098Y295831D01*
X406026Y295908D01*
X406592Y296474D01*
X406669Y296402D01*
D02*
G37*
G36*
X445992Y293989D02*
X445954Y294106D01*
X445903Y294209D01*
X445838Y294301D01*
X445759Y294380D01*
X445667Y294447D01*
X445561Y294502D01*
X445441Y294545D01*
X445308Y294576D01*
X445161Y294594D01*
X445000Y294600D01*
Y295400D01*
X445161Y295406D01*
X445308Y295424D01*
X445441Y295455D01*
X445561Y295498D01*
X445667Y295553D01*
X445759Y295620D01*
X445838Y295699D01*
X445903Y295791D01*
X445954Y295895D01*
X445992Y296010D01*
Y293989D01*
D02*
G37*
G36*
X427891Y292933D02*
X427571Y293250D01*
X426972Y293783D01*
X426693Y294000D01*
X426427Y294183D01*
X426175Y294333D01*
X425937Y294450D01*
X425712Y294533D01*
X425500Y294583D01*
X425303Y294600D01*
Y295400D01*
X425500Y295417D01*
X425712Y295467D01*
X425937Y295550D01*
X426175Y295667D01*
X426427Y295817D01*
X426693Y296000D01*
X426972Y296217D01*
X427571Y296750D01*
X427891Y297067D01*
Y292933D01*
D02*
G37*
G36*
X342429Y296750D02*
X343028Y296217D01*
X343307Y296000D01*
X343573Y295817D01*
X343825Y295667D01*
X344063Y295550D01*
X344288Y295467D01*
X344499Y295417D01*
X344697Y295400D01*
Y294600D01*
X344499Y294583D01*
X344288Y294533D01*
X344063Y294450D01*
X343825Y294333D01*
X343573Y294183D01*
X343307Y294000D01*
X343028Y293783D01*
X342429Y293250D01*
X342109Y292933D01*
Y297067D01*
X342429Y296750D01*
D02*
G37*
G36*
X337891Y292933D02*
X337571Y293250D01*
X336972Y293783D01*
X336693Y294000D01*
X336427Y294183D01*
X336175Y294333D01*
X335937Y294450D01*
X335712Y294533D01*
X335501Y294583D01*
X335303Y294600D01*
Y295400D01*
X335501Y295417D01*
X335712Y295467D01*
X335937Y295550D01*
X336175Y295667D01*
X336427Y295817D01*
X336693Y296000D01*
X336972Y296217D01*
X337571Y296750D01*
X337891Y297067D01*
Y292933D01*
D02*
G37*
G36*
X292429Y296750D02*
X293028Y296217D01*
X293307Y296000D01*
X293573Y295817D01*
X293825Y295667D01*
X294063Y295550D01*
X294288Y295467D01*
X294499Y295417D01*
X294697Y295400D01*
Y294600D01*
X294499Y294583D01*
X294288Y294533D01*
X294063Y294450D01*
X293825Y294333D01*
X293573Y294183D01*
X293307Y294000D01*
X293028Y293783D01*
X292429Y293250D01*
X292109Y292933D01*
Y297067D01*
X292429Y296750D01*
D02*
G37*
G36*
X247891Y292933D02*
X247571Y293250D01*
X246972Y293783D01*
X246693Y294000D01*
X246427Y294183D01*
X246175Y294333D01*
X245937Y294450D01*
X245712Y294533D01*
X245500Y294583D01*
X245303Y294600D01*
Y295400D01*
X245500Y295417D01*
X245712Y295467D01*
X245937Y295550D01*
X246175Y295667D01*
X246427Y295817D01*
X246693Y296000D01*
X246972Y296217D01*
X247571Y296750D01*
X247891Y297067D01*
Y292933D01*
D02*
G37*
G36*
X222429Y296750D02*
X223028Y296217D01*
X223307Y296000D01*
X223573Y295817D01*
X223825Y295667D01*
X224063Y295550D01*
X224288Y295467D01*
X224500Y295417D01*
X224697Y295400D01*
Y294600D01*
X224500Y294583D01*
X224288Y294533D01*
X224063Y294450D01*
X223825Y294333D01*
X223573Y294183D01*
X223307Y294000D01*
X223028Y293783D01*
X222429Y293250D01*
X222109Y292933D01*
Y297067D01*
X222429Y296750D01*
D02*
G37*
G36*
X217891Y292933D02*
X217571Y293250D01*
X216972Y293783D01*
X216693Y294000D01*
X216427Y294183D01*
X216175Y294333D01*
X215937Y294450D01*
X215712Y294533D01*
X215500Y294583D01*
X215303Y294600D01*
Y295400D01*
X215500Y295417D01*
X215712Y295467D01*
X215937Y295550D01*
X216175Y295667D01*
X216427Y295817D01*
X216693Y296000D01*
X216972Y296217D01*
X217571Y296750D01*
X217891Y297067D01*
Y292933D01*
D02*
G37*
G36*
X172429Y296750D02*
X173028Y296217D01*
X173307Y296000D01*
X173573Y295817D01*
X173825Y295667D01*
X174063Y295550D01*
X174288Y295467D01*
X174499Y295417D01*
X174697Y295400D01*
Y294600D01*
X174499Y294583D01*
X174288Y294533D01*
X174063Y294450D01*
X173825Y294333D01*
X173573Y294183D01*
X173307Y294000D01*
X173028Y293783D01*
X172429Y293250D01*
X172109Y292933D01*
Y297067D01*
X172429Y296750D01*
D02*
G37*
G36*
X134135Y289287D02*
X134247Y287588D01*
X134319Y287128D01*
X134409Y286721D01*
X134517Y286366D01*
X134642Y286064D01*
X134785Y285816D01*
X134946Y285620D01*
X134380Y285054D01*
X134185Y285215D01*
X133936Y285358D01*
X133634Y285483D01*
X133279Y285591D01*
X132872Y285681D01*
X132412Y285753D01*
X131332Y285845D01*
X130713Y285864D01*
X130041Y285866D01*
X134134Y289959D01*
X134135Y289287D01*
D02*
G37*
G36*
X427113Y288476D02*
X427298Y288362D01*
X427516Y288262D01*
X427767Y288176D01*
X428051Y288104D01*
X428369Y288046D01*
X428719Y288001D01*
X429520Y287955D01*
X429971Y287953D01*
X427047Y285030D01*
X427045Y285480D01*
X426999Y286281D01*
X426954Y286631D01*
X426896Y286949D01*
X426824Y287233D01*
X426738Y287484D01*
X426638Y287702D01*
X426524Y287887D01*
X426396Y288039D01*
X426961Y288604D01*
X427113Y288476D01*
D02*
G37*
G36*
X343604Y288039D02*
X343476Y287887D01*
X343362Y287702D01*
X343262Y287484D01*
X343176Y287233D01*
X343104Y286949D01*
X343046Y286631D01*
X343002Y286281D01*
X342955Y285480D01*
X342953Y285030D01*
X340030Y287953D01*
X340480Y287955D01*
X341281Y288001D01*
X341631Y288046D01*
X341949Y288104D01*
X342233Y288176D01*
X342484Y288262D01*
X342702Y288362D01*
X342887Y288476D01*
X343039Y288604D01*
X343604Y288039D01*
D02*
G37*
G36*
X293604D02*
X293476Y287887D01*
X293362Y287702D01*
X293262Y287484D01*
X293176Y287233D01*
X293104Y286949D01*
X293046Y286631D01*
X293002Y286281D01*
X292955Y285480D01*
X292953Y285030D01*
X290030Y287953D01*
X290480Y287955D01*
X291281Y288001D01*
X291631Y288046D01*
X291949Y288104D01*
X292233Y288176D01*
X292484Y288262D01*
X292702Y288362D01*
X292887Y288476D01*
X293039Y288604D01*
X293604Y288039D01*
D02*
G37*
G36*
X337891Y282933D02*
X337571Y283250D01*
X336972Y283783D01*
X336693Y284000D01*
X336427Y284183D01*
X336175Y284333D01*
X335937Y284450D01*
X335712Y284533D01*
X335501Y284583D01*
X335303Y284600D01*
Y285400D01*
X335501Y285417D01*
X335712Y285467D01*
X335937Y285550D01*
X336175Y285667D01*
X336427Y285817D01*
X336693Y286000D01*
X336972Y286217D01*
X337571Y286750D01*
X337891Y287067D01*
Y282933D01*
D02*
G37*
G36*
X222429Y286750D02*
X223028Y286217D01*
X223307Y286000D01*
X223573Y285817D01*
X223825Y285667D01*
X224063Y285550D01*
X224288Y285467D01*
X224500Y285417D01*
X224697Y285400D01*
Y284600D01*
X224500Y284583D01*
X224288Y284533D01*
X224063Y284450D01*
X223825Y284333D01*
X223573Y284183D01*
X223307Y284000D01*
X223028Y283783D01*
X222429Y283250D01*
X222109Y282933D01*
Y287067D01*
X222429Y286750D01*
D02*
G37*
G36*
X172429D02*
X173028Y286217D01*
X173307Y286000D01*
X173573Y285817D01*
X173825Y285667D01*
X174063Y285550D01*
X174288Y285467D01*
X174499Y285417D01*
X174697Y285400D01*
Y284600D01*
X174499Y284583D01*
X174288Y284533D01*
X174063Y284450D01*
X173825Y284333D01*
X173573Y284183D01*
X173307Y284000D01*
X173028Y283783D01*
X172429Y283250D01*
X172109Y282933D01*
Y287067D01*
X172429Y286750D01*
D02*
G37*
G36*
X199970Y282047D02*
X199520Y282045D01*
X198719Y281999D01*
X198369Y281954D01*
X198051Y281896D01*
X197767Y281824D01*
X197516Y281738D01*
X197298Y281638D01*
X197113Y281524D01*
X196961Y281396D01*
X196396Y281961D01*
X196524Y282113D01*
X196638Y282298D01*
X196738Y282516D01*
X196824Y282767D01*
X196896Y283051D01*
X196954Y283369D01*
X196999Y283719D01*
X197045Y284520D01*
X197047Y284970D01*
X199970Y282047D01*
D02*
G37*
G36*
X374989Y281400D02*
X374887Y281397D01*
X374787Y281387D01*
X374691Y281369D01*
X374597Y281343D01*
X374506Y281309D01*
X374417Y281268D01*
X374332Y281219D01*
X374249Y281162D01*
X374169Y281098D01*
X374092Y281026D01*
X373526Y281592D01*
X373598Y281669D01*
X373662Y281749D01*
X373719Y281832D01*
X373768Y281917D01*
X373809Y282006D01*
X373843Y282097D01*
X373869Y282191D01*
X373887Y282287D01*
X373897Y282387D01*
X373900Y282489D01*
X374989Y281400D01*
D02*
G37*
G36*
X427113Y278476D02*
X427298Y278362D01*
X427516Y278262D01*
X427767Y278176D01*
X428051Y278104D01*
X428369Y278046D01*
X428719Y278001D01*
X429520Y277955D01*
X429971Y277953D01*
X427047Y275029D01*
X427045Y275480D01*
X426999Y276281D01*
X426954Y276631D01*
X426896Y276949D01*
X426824Y277233D01*
X426738Y277484D01*
X426638Y277702D01*
X426524Y277887D01*
X426396Y278039D01*
X426961Y278604D01*
X427113Y278476D01*
D02*
G37*
G36*
X343604Y278039D02*
X343476Y277887D01*
X343362Y277702D01*
X343262Y277484D01*
X343176Y277233D01*
X343104Y276949D01*
X343046Y276631D01*
X343002Y276281D01*
X342955Y275480D01*
X342953Y275029D01*
X340030Y277953D01*
X340480Y277955D01*
X341281Y278001D01*
X341631Y278046D01*
X341949Y278104D01*
X342233Y278176D01*
X342484Y278262D01*
X342702Y278362D01*
X342887Y278476D01*
X343039Y278604D01*
X343604Y278039D01*
D02*
G37*
G36*
X293604D02*
X293476Y277887D01*
X293362Y277702D01*
X293262Y277484D01*
X293176Y277233D01*
X293104Y276949D01*
X293046Y276631D01*
X293002Y276281D01*
X292955Y275480D01*
X292953Y275029D01*
X290030Y277953D01*
X290480Y277955D01*
X291281Y278001D01*
X291631Y278046D01*
X291949Y278104D01*
X292233Y278176D01*
X292484Y278262D01*
X292702Y278362D01*
X292887Y278476D01*
X293039Y278604D01*
X293604Y278039D01*
D02*
G37*
G36*
X337891Y272933D02*
X337571Y273250D01*
X336972Y273783D01*
X336693Y274000D01*
X336427Y274183D01*
X336175Y274333D01*
X335937Y274450D01*
X335712Y274533D01*
X335501Y274583D01*
X335303Y274600D01*
Y275400D01*
X335501Y275417D01*
X335712Y275467D01*
X335937Y275550D01*
X336175Y275667D01*
X336427Y275817D01*
X336693Y276000D01*
X336972Y276217D01*
X337571Y276750D01*
X337891Y277067D01*
Y272933D01*
D02*
G37*
G36*
X202955Y274520D02*
X203001Y273719D01*
X203046Y273369D01*
X203104Y273051D01*
X203176Y272767D01*
X203262Y272516D01*
X203362Y272298D01*
X203476Y272113D01*
X203604Y271961D01*
X203039Y271396D01*
X202887Y271524D01*
X202702Y271638D01*
X202484Y271738D01*
X202233Y271824D01*
X201949Y271896D01*
X201631Y271954D01*
X201281Y271999D01*
X200480Y272045D01*
X200029Y272047D01*
X202953Y274971D01*
X202955Y274520D01*
D02*
G37*
G36*
X267964Y267230D02*
X267890Y267300D01*
X267812Y267363D01*
X267731Y267419D01*
X267647Y267467D01*
X267558Y267508D01*
X267467Y267541D01*
X267372Y267567D01*
X267273Y267585D01*
X267171Y267596D01*
X267065Y267600D01*
Y268400D01*
X267171Y268404D01*
X267273Y268415D01*
X267372Y268433D01*
X267467Y268459D01*
X267558Y268493D01*
X267647Y268533D01*
X267731Y268581D01*
X267812Y268637D01*
X267890Y268700D01*
X267964Y268770D01*
Y267230D01*
D02*
G37*
G36*
X221090Y265301D02*
X221125Y265293D01*
X221177Y265285D01*
X221332Y265273D01*
X221847Y265261D01*
X222018Y265261D01*
Y265075D01*
X237026D01*
X237744Y263429D01*
X237801Y262911D01*
X238231Y263341D01*
X238410Y263172D01*
X238592Y263021D01*
X238776Y262888D01*
X238963Y262773D01*
X239152Y262676D01*
X239343Y262597D01*
X239537Y262536D01*
X239733Y262492D01*
X239932Y262468D01*
X240133Y262460D01*
X238172Y260500D01*
X240157D01*
Y260000D01*
X240657D01*
Y256551D01*
X241493Y256775D01*
X241641Y256861D01*
X244102Y256273D01*
X244458Y256085D01*
X244935Y255083D01*
X243793Y252925D01*
X205892D01*
X204961Y255039D01*
X204961Y255425D01*
Y263000D01*
X205271Y263526D01*
X206977Y265055D01*
X207413Y265075D01*
X217982D01*
Y265261D01*
X218929Y265311D01*
Y265075D01*
X221071D01*
Y265311D01*
X221090Y265301D01*
D02*
G37*
G36*
X427113Y268476D02*
X427298Y268362D01*
X427516Y268262D01*
X427767Y268176D01*
X428051Y268104D01*
X428369Y268046D01*
X428719Y268002D01*
X429520Y267955D01*
X429971Y267953D01*
X427047Y265030D01*
X427045Y265480D01*
X426999Y266281D01*
X426954Y266631D01*
X426896Y266949D01*
X426824Y267233D01*
X426738Y267484D01*
X426638Y267702D01*
X426524Y267887D01*
X426396Y268039D01*
X426961Y268604D01*
X427113Y268476D01*
D02*
G37*
G36*
X343604Y268039D02*
X343476Y267887D01*
X343362Y267702D01*
X343262Y267484D01*
X343176Y267233D01*
X343104Y266949D01*
X343046Y266631D01*
X343002Y266281D01*
X342955Y265480D01*
X342953Y265030D01*
X340030Y267953D01*
X340480Y267955D01*
X341281Y268002D01*
X341631Y268046D01*
X341949Y268104D01*
X342233Y268176D01*
X342484Y268262D01*
X342702Y268362D01*
X342887Y268476D01*
X343039Y268604D01*
X343604Y268039D01*
D02*
G37*
G36*
X293604D02*
X293476Y267887D01*
X293362Y267702D01*
X293262Y267484D01*
X293176Y267233D01*
X293104Y266949D01*
X293046Y266631D01*
X293002Y266281D01*
X292955Y265480D01*
X292953Y265030D01*
X290030Y267953D01*
X290480Y267955D01*
X291281Y268002D01*
X291631Y268046D01*
X291949Y268104D01*
X292233Y268176D01*
X292484Y268262D01*
X292702Y268362D01*
X292887Y268476D01*
X293039Y268604D01*
X293604Y268039D01*
D02*
G37*
G36*
X337891Y262933D02*
X337571Y263250D01*
X336972Y263783D01*
X336693Y264000D01*
X336427Y264183D01*
X336175Y264333D01*
X335937Y264450D01*
X335712Y264533D01*
X335501Y264583D01*
X335303Y264600D01*
Y265400D01*
X335501Y265417D01*
X335712Y265467D01*
X335937Y265550D01*
X336175Y265667D01*
X336427Y265817D01*
X336693Y266000D01*
X336972Y266217D01*
X337571Y266750D01*
X337891Y267067D01*
Y262933D01*
D02*
G37*
G36*
X427113Y258476D02*
X427298Y258362D01*
X427516Y258262D01*
X427767Y258176D01*
X428051Y258104D01*
X428369Y258046D01*
X428719Y258001D01*
X429520Y257955D01*
X429971Y257953D01*
X427047Y255030D01*
X427045Y255480D01*
X426999Y256281D01*
X426954Y256631D01*
X426896Y256949D01*
X426824Y257233D01*
X426738Y257484D01*
X426638Y257702D01*
X426524Y257887D01*
X426396Y258039D01*
X426961Y258604D01*
X427113Y258476D01*
D02*
G37*
G36*
X343604Y258039D02*
X343476Y257887D01*
X343362Y257702D01*
X343262Y257484D01*
X343176Y257233D01*
X343104Y256949D01*
X343046Y256631D01*
X343002Y256281D01*
X342955Y255480D01*
X342953Y255030D01*
X340030Y257953D01*
X340480Y257955D01*
X341281Y258001D01*
X341631Y258046D01*
X341949Y258104D01*
X342233Y258176D01*
X342484Y258262D01*
X342702Y258362D01*
X342887Y258476D01*
X343039Y258604D01*
X343604Y258039D01*
D02*
G37*
G36*
X293604D02*
X293476Y257887D01*
X293362Y257702D01*
X293262Y257484D01*
X293176Y257233D01*
X293104Y256949D01*
X293046Y256631D01*
X293002Y256281D01*
X292955Y255480D01*
X292953Y255030D01*
X290030Y257953D01*
X290480Y257955D01*
X291281Y258001D01*
X291631Y258046D01*
X291949Y258104D01*
X292233Y258176D01*
X292484Y258262D01*
X292702Y258362D01*
X292887Y258476D01*
X293039Y258604D01*
X293604Y258039D01*
D02*
G37*
G36*
X337891Y252933D02*
X337571Y253250D01*
X336972Y253783D01*
X336693Y254000D01*
X336427Y254183D01*
X336175Y254333D01*
X335937Y254450D01*
X335712Y254533D01*
X335501Y254583D01*
X335303Y254600D01*
Y255400D01*
X335501Y255417D01*
X335712Y255467D01*
X335937Y255550D01*
X336175Y255667D01*
X336427Y255817D01*
X336693Y256000D01*
X336972Y256217D01*
X337571Y256750D01*
X337891Y257067D01*
Y252933D01*
D02*
G37*
G36*
X122429Y251750D02*
X123028Y251217D01*
X123307Y251000D01*
X123573Y250817D01*
X123825Y250667D01*
X124063Y250550D01*
X124288Y250467D01*
X124499Y250417D01*
X124697Y250400D01*
Y249600D01*
X124499Y249583D01*
X124288Y249533D01*
X124063Y249450D01*
X123825Y249333D01*
X123573Y249183D01*
X123307Y249000D01*
X123028Y248783D01*
X122429Y248250D01*
X122109Y247933D01*
Y252067D01*
X122429Y251750D01*
D02*
G37*
G36*
X427113Y248476D02*
X427298Y248362D01*
X427516Y248262D01*
X427767Y248176D01*
X428051Y248104D01*
X428369Y248046D01*
X428719Y248002D01*
X429520Y247955D01*
X429971Y247953D01*
X427047Y245029D01*
X427045Y245480D01*
X426999Y246281D01*
X426954Y246631D01*
X426896Y246949D01*
X426824Y247233D01*
X426738Y247484D01*
X426638Y247702D01*
X426524Y247887D01*
X426396Y248039D01*
X426961Y248604D01*
X427113Y248476D01*
D02*
G37*
G36*
X347860Y245700D02*
X347938Y245637D01*
X348019Y245581D01*
X348103Y245533D01*
X348192Y245493D01*
X348283Y245459D01*
X348378Y245433D01*
X348477Y245415D01*
X348579Y245404D01*
X348685Y245400D01*
Y244600D01*
X348579Y244596D01*
X348477Y244585D01*
X348378Y244567D01*
X348283Y244541D01*
X348192Y244508D01*
X348103Y244467D01*
X348019Y244419D01*
X347938Y244363D01*
X347860Y244300D01*
X347786Y244230D01*
Y245770D01*
X347860Y245700D01*
D02*
G37*
G36*
X269610D02*
X269688Y245637D01*
X269769Y245581D01*
X269853Y245533D01*
X269942Y245493D01*
X270033Y245459D01*
X270128Y245433D01*
X270227Y245415D01*
X270329Y245404D01*
X270435Y245400D01*
Y244600D01*
X270329Y244596D01*
X270227Y244585D01*
X270128Y244567D01*
X270033Y244541D01*
X269942Y244508D01*
X269853Y244467D01*
X269769Y244419D01*
X269688Y244363D01*
X269610Y244300D01*
X269536Y244230D01*
Y245770D01*
X269610Y245700D01*
D02*
G37*
G36*
X222949Y246810D02*
X223009Y246640D01*
X223110Y246490D01*
X223251Y246360D01*
X223432Y246250D01*
X223653Y246160D01*
X223915Y246090D01*
X224216Y246040D01*
X224558Y246010D01*
X224941Y246000D01*
Y244000D01*
X224558Y243990D01*
X224216Y243960D01*
X223915Y243910D01*
X223653Y243840D01*
X223432Y243750D01*
X223251Y243640D01*
X223110Y243510D01*
X223009Y243360D01*
X222949Y243190D01*
X222929Y243000D01*
Y247000D01*
X222949Y246810D01*
D02*
G37*
G36*
X217071Y243000D02*
X217051Y243190D01*
X216991Y243360D01*
X216890Y243510D01*
X216749Y243640D01*
X216568Y243750D01*
X216347Y243840D01*
X216085Y243910D01*
X215784Y243960D01*
X215441Y243990D01*
X215059Y244000D01*
Y246000D01*
X215441Y246010D01*
X215784Y246040D01*
X216085Y246090D01*
X216347Y246160D01*
X216568Y246250D01*
X216749Y246360D01*
X216890Y246490D01*
X216991Y246640D01*
X217051Y246810D01*
X217071Y247000D01*
Y243000D01*
D02*
G37*
G36*
X172949Y246810D02*
X173009Y246640D01*
X173110Y246490D01*
X173251Y246360D01*
X173432Y246250D01*
X173653Y246160D01*
X173915Y246090D01*
X174216Y246040D01*
X174558Y246010D01*
X174941Y246000D01*
Y244000D01*
X174558Y243990D01*
X174216Y243960D01*
X173915Y243910D01*
X173653Y243840D01*
X173432Y243750D01*
X173251Y243640D01*
X173110Y243510D01*
X173009Y243360D01*
X172949Y243190D01*
X172929Y243000D01*
Y247000D01*
X172949Y246810D01*
D02*
G37*
G36*
X367891Y242933D02*
X367571Y243250D01*
X366972Y243783D01*
X366693Y244000D01*
X366427Y244183D01*
X366175Y244333D01*
X365937Y244450D01*
X365712Y244533D01*
X365500Y244583D01*
X365303Y244600D01*
Y245400D01*
X365500Y245417D01*
X365712Y245467D01*
X365937Y245550D01*
X366175Y245667D01*
X366427Y245817D01*
X366693Y246000D01*
X366972Y246217D01*
X367571Y246750D01*
X367891Y247067D01*
Y242933D01*
D02*
G37*
G36*
X337891D02*
X337571Y243250D01*
X336972Y243783D01*
X336693Y244000D01*
X336427Y244183D01*
X336175Y244333D01*
X335937Y244450D01*
X335712Y244533D01*
X335501Y244583D01*
X335303Y244600D01*
Y245400D01*
X335501Y245417D01*
X335712Y245467D01*
X335937Y245550D01*
X336175Y245667D01*
X336427Y245817D01*
X336693Y246000D01*
X336972Y246217D01*
X337571Y246750D01*
X337891Y247067D01*
Y242933D01*
D02*
G37*
G36*
X322429Y246750D02*
X323028Y246217D01*
X323307Y246000D01*
X323573Y245817D01*
X323825Y245667D01*
X324063Y245550D01*
X324288Y245467D01*
X324500Y245417D01*
X324697Y245400D01*
Y244600D01*
X324500Y244583D01*
X324288Y244533D01*
X324063Y244450D01*
X323825Y244333D01*
X323573Y244183D01*
X323307Y244000D01*
X323028Y243783D01*
X322429Y243250D01*
X322109Y242933D01*
Y247067D01*
X322429Y246750D01*
D02*
G37*
G36*
X317891Y242933D02*
X317571Y243250D01*
X316972Y243783D01*
X316693Y244000D01*
X316427Y244183D01*
X316175Y244333D01*
X315937Y244450D01*
X315712Y244533D01*
X315500Y244583D01*
X315303Y244600D01*
Y245400D01*
X315500Y245417D01*
X315712Y245467D01*
X315937Y245550D01*
X316175Y245667D01*
X316427Y245817D01*
X316693Y246000D01*
X316972Y246217D01*
X317571Y246750D01*
X317891Y247067D01*
Y242933D01*
D02*
G37*
G36*
X292429Y246750D02*
X293028Y246217D01*
X293307Y246000D01*
X293573Y245817D01*
X293825Y245667D01*
X294063Y245550D01*
X294288Y245467D01*
X294499Y245417D01*
X294697Y245400D01*
Y244600D01*
X294499Y244583D01*
X294288Y244533D01*
X294063Y244450D01*
X293825Y244333D01*
X293573Y244183D01*
X293307Y244000D01*
X293028Y243783D01*
X292429Y243250D01*
X292109Y242933D01*
Y247067D01*
X292429Y246750D01*
D02*
G37*
G36*
X287891Y242933D02*
X287571Y243250D01*
X286972Y243783D01*
X286693Y244000D01*
X286427Y244183D01*
X286175Y244333D01*
X285937Y244450D01*
X285712Y244533D01*
X285501Y244583D01*
X285303Y244600D01*
Y245400D01*
X285501Y245417D01*
X285712Y245467D01*
X285937Y245550D01*
X286175Y245667D01*
X286427Y245817D01*
X286693Y246000D01*
X286972Y246217D01*
X287571Y246750D01*
X287891Y247067D01*
Y242933D01*
D02*
G37*
G36*
X247891D02*
X247679Y243136D01*
X247459Y243317D01*
X247232Y243477D01*
X246999Y243616D01*
X246758Y243733D01*
X246511Y243829D01*
X246256Y243904D01*
X245994Y243957D01*
X245726Y243989D01*
X245450Y244000D01*
Y246000D01*
X245726Y246011D01*
X245994Y246043D01*
X246256Y246096D01*
X246511Y246171D01*
X246758Y246267D01*
X246999Y246384D01*
X247232Y246523D01*
X247459Y246683D01*
X247679Y246864D01*
X247891Y247067D01*
Y242933D01*
D02*
G37*
G36*
X202321Y246864D02*
X202541Y246683D01*
X202768Y246523D01*
X203001Y246384D01*
X203242Y246267D01*
X203489Y246171D01*
X203744Y246096D01*
X204006Y246043D01*
X204274Y246011D01*
X204550Y246000D01*
Y244000D01*
X204274Y243989D01*
X204006Y243957D01*
X203744Y243904D01*
X203489Y243829D01*
X203242Y243733D01*
X203001Y243616D01*
X202768Y243477D01*
X202541Y243317D01*
X202321Y243136D01*
X202109Y242933D01*
Y247067D01*
X202321Y246864D01*
D02*
G37*
G36*
X197891Y242933D02*
X197679Y243136D01*
X197459Y243317D01*
X197232Y243477D01*
X196999Y243616D01*
X196758Y243733D01*
X196511Y243829D01*
X196256Y243904D01*
X195994Y243957D01*
X195726Y243989D01*
X195450Y244000D01*
Y246000D01*
X195726Y246011D01*
X195994Y246043D01*
X196256Y246096D01*
X196511Y246171D01*
X196758Y246267D01*
X196999Y246384D01*
X197232Y246523D01*
X197459Y246683D01*
X197679Y246864D01*
X197891Y247067D01*
Y242933D01*
D02*
G37*
G36*
X351838Y239730D02*
X351764Y239800D01*
X351686Y239863D01*
X351605Y239919D01*
X351520Y239967D01*
X351432Y240007D01*
X351340Y240041D01*
X351245Y240067D01*
X351147Y240085D01*
X351045Y240096D01*
X350939Y240100D01*
Y240900D01*
X351045Y240904D01*
X351147Y240915D01*
X351245Y240933D01*
X351340Y240959D01*
X351432Y240992D01*
X351520Y241033D01*
X351605Y241081D01*
X351686Y241137D01*
X351764Y241200D01*
X351838Y241270D01*
Y239730D01*
D02*
G37*
G36*
X300669Y238902D02*
X300749Y238838D01*
X300832Y238781D01*
X300917Y238732D01*
X301006Y238691D01*
X301097Y238657D01*
X301191Y238631D01*
X301287Y238613D01*
X301387Y238603D01*
X301489Y238600D01*
X300400Y237511D01*
X300397Y237613D01*
X300387Y237713D01*
X300369Y237809D01*
X300343Y237903D01*
X300309Y237994D01*
X300268Y238083D01*
X300219Y238168D01*
X300162Y238251D01*
X300098Y238331D01*
X300026Y238408D01*
X300592Y238974D01*
X300669Y238902D01*
D02*
G37*
G36*
X112955Y239520D02*
X113001Y238719D01*
X113046Y238369D01*
X113104Y238051D01*
X113176Y237767D01*
X113262Y237516D01*
X113362Y237298D01*
X113476Y237113D01*
X113604Y236961D01*
X113039Y236396D01*
X112887Y236524D01*
X112702Y236638D01*
X112484Y236738D01*
X112233Y236824D01*
X111949Y236896D01*
X111631Y236954D01*
X111281Y236999D01*
X110480Y237045D01*
X110029Y237047D01*
X112953Y239970D01*
X112955Y239520D01*
D02*
G37*
G36*
X222877Y235697D02*
X222913Y235635D01*
X222961Y235580D01*
X223020Y235532D01*
X223090Y235492D01*
X223172Y235459D01*
X223265Y235433D01*
X223369Y235415D01*
X223484Y235404D01*
X223610Y235400D01*
Y234600D01*
X223484Y234596D01*
X223369Y234585D01*
X223265Y234567D01*
X223172Y234541D01*
X223090Y234508D01*
X223020Y234468D01*
X222961Y234420D01*
X222913Y234365D01*
X222877Y234303D01*
X222851Y234233D01*
Y235767D01*
X222877Y235697D01*
D02*
G37*
G36*
X172955Y234520D02*
X173001Y233719D01*
X173046Y233369D01*
X173104Y233051D01*
X173176Y232767D01*
X173262Y232516D01*
X173362Y232298D01*
X173476Y232113D01*
X173604Y231961D01*
X173039Y231396D01*
X172887Y231524D01*
X172702Y231638D01*
X172484Y231738D01*
X172233Y231824D01*
X171949Y231896D01*
X171631Y231954D01*
X171281Y231998D01*
X170480Y232045D01*
X170029Y232047D01*
X172953Y234970D01*
X172955Y234520D01*
D02*
G37*
G36*
X354193Y230101D02*
X354114Y230167D01*
X354032Y230226D01*
X353947Y230278D01*
X353859Y230323D01*
X353768Y230361D01*
X353675Y230392D01*
X353578Y230416D01*
X353479Y230433D01*
X353377Y230444D01*
X353272Y230447D01*
X353212Y231247D01*
X353319Y231251D01*
X353421Y231263D01*
X353519Y231282D01*
X353612Y231310D01*
X353702Y231345D01*
X353787Y231388D01*
X353868Y231438D01*
X353945Y231497D01*
X354018Y231563D01*
X354086Y231637D01*
X354193Y230101D01*
D02*
G37*
G36*
X301214Y227230D02*
X301140Y227300D01*
X301062Y227363D01*
X300981Y227419D01*
X300897Y227467D01*
X300808Y227507D01*
X300717Y227541D01*
X300622Y227567D01*
X300523Y227585D01*
X300421Y227596D01*
X300315Y227600D01*
Y228400D01*
X300421Y228404D01*
X300523Y228415D01*
X300622Y228433D01*
X300717Y228459D01*
X300808Y228492D01*
X300897Y228533D01*
X300981Y228581D01*
X301062Y228637D01*
X301140Y228700D01*
X301214Y228770D01*
Y227230D01*
D02*
G37*
G36*
X357464Y227130D02*
X357429Y227212D01*
X357386Y227285D01*
X357334Y227349D01*
X357275Y227406D01*
X357207Y227453D01*
X357130Y227492D01*
X357046Y227522D01*
X356953Y227543D01*
X356851Y227556D01*
X356742Y227561D01*
X357155Y228361D01*
X357259Y228362D01*
X357559Y228387D01*
X357654Y228401D01*
X357838Y228441D01*
X357927Y228465D01*
X358098Y228524D01*
X357464Y227130D01*
D02*
G37*
G36*
X112955Y229520D02*
X113001Y228719D01*
X113046Y228369D01*
X113104Y228051D01*
X113176Y227767D01*
X113262Y227516D01*
X113362Y227298D01*
X113476Y227113D01*
X113604Y226961D01*
X113039Y226396D01*
X112887Y226524D01*
X112702Y226638D01*
X112484Y226738D01*
X112233Y226824D01*
X111949Y226896D01*
X111631Y226954D01*
X111281Y226998D01*
X110480Y227045D01*
X110029Y227047D01*
X112953Y229971D01*
X112955Y229520D01*
D02*
G37*
G36*
X222877Y225697D02*
X222913Y225635D01*
X222961Y225580D01*
X223020Y225532D01*
X223090Y225492D01*
X223172Y225459D01*
X223265Y225433D01*
X223369Y225415D01*
X223484Y225404D01*
X223610Y225400D01*
Y224600D01*
X223484Y224596D01*
X223369Y224585D01*
X223265Y224567D01*
X223172Y224541D01*
X223090Y224508D01*
X223020Y224468D01*
X222961Y224420D01*
X222913Y224365D01*
X222877Y224303D01*
X222851Y224233D01*
Y225767D01*
X222877Y225697D01*
D02*
G37*
G36*
X276714Y224230D02*
X276640Y224300D01*
X276562Y224363D01*
X276481Y224419D01*
X276396Y224467D01*
X276308Y224507D01*
X276217Y224541D01*
X276121Y224567D01*
X276023Y224585D01*
X275921Y224596D01*
X275815Y224600D01*
Y225400D01*
X275921Y225404D01*
X276023Y225415D01*
X276121Y225433D01*
X276217Y225459D01*
X276308Y225493D01*
X276396Y225533D01*
X276481Y225581D01*
X276562Y225637D01*
X276640Y225700D01*
X276714Y225770D01*
Y224230D01*
D02*
G37*
G36*
X341090Y225301D02*
X341125Y225293D01*
X341177Y225285D01*
X341332Y225273D01*
X341847Y225261D01*
X342018Y225261D01*
X342018Y223261D01*
X341071Y223211D01*
X340000Y224261D01*
X341071Y225311D01*
X341090Y225301D01*
D02*
G37*
G36*
X340000Y224261D02*
X338929Y223211D01*
X337982Y223261D01*
X337982Y225261D01*
X338153Y225261D01*
X338668Y225273D01*
X338823Y225285D01*
X338875Y225293D01*
X338911Y225301D01*
X338929Y225311D01*
X340000Y224261D01*
D02*
G37*
G36*
X252429Y226750D02*
X253028Y226217D01*
X253307Y226000D01*
X253573Y225817D01*
X253825Y225667D01*
X254063Y225550D01*
X254288Y225467D01*
X254500Y225417D01*
X254697Y225400D01*
Y224600D01*
X254500Y224583D01*
X254288Y224533D01*
X254063Y224450D01*
X253825Y224333D01*
X253573Y224183D01*
X253307Y224000D01*
X253028Y223783D01*
X252429Y223250D01*
X252109Y222933D01*
Y227067D01*
X252429Y226750D01*
D02*
G37*
G36*
X247891Y222933D02*
X247571Y223250D01*
X246972Y223783D01*
X246693Y224000D01*
X246427Y224183D01*
X246175Y224333D01*
X245937Y224450D01*
X245712Y224533D01*
X245500Y224583D01*
X245303Y224600D01*
Y225400D01*
X245500Y225417D01*
X245712Y225467D01*
X245937Y225550D01*
X246175Y225667D01*
X246427Y225817D01*
X246693Y226000D01*
X246972Y226217D01*
X247571Y226750D01*
X247891Y227067D01*
Y222933D01*
D02*
G37*
G36*
X202429Y226750D02*
X203028Y226217D01*
X203307Y226000D01*
X203573Y225817D01*
X203825Y225667D01*
X204063Y225550D01*
X204288Y225467D01*
X204500Y225417D01*
X204697Y225400D01*
Y224600D01*
X204500Y224583D01*
X204288Y224533D01*
X204063Y224450D01*
X203825Y224333D01*
X203573Y224183D01*
X203307Y224000D01*
X203028Y223783D01*
X202429Y223250D01*
X202109Y222933D01*
Y227067D01*
X202429Y226750D01*
D02*
G37*
G36*
X197891Y222933D02*
X197571Y223250D01*
X196972Y223783D01*
X196693Y224000D01*
X196427Y224183D01*
X196175Y224333D01*
X195937Y224450D01*
X195712Y224533D01*
X195501Y224583D01*
X195303Y224600D01*
Y225400D01*
X195501Y225417D01*
X195712Y225467D01*
X195937Y225550D01*
X196175Y225667D01*
X196427Y225817D01*
X196693Y226000D01*
X196972Y226217D01*
X197571Y226750D01*
X197891Y227067D01*
Y222933D01*
D02*
G37*
G36*
X172955Y224520D02*
X173001Y223719D01*
X173046Y223369D01*
X173104Y223051D01*
X173176Y222767D01*
X173262Y222516D01*
X173362Y222298D01*
X173476Y222113D01*
X173604Y221961D01*
X173039Y221396D01*
X172887Y221524D01*
X172702Y221638D01*
X172484Y221738D01*
X172233Y221824D01*
X171949Y221896D01*
X171631Y221954D01*
X171281Y221999D01*
X170480Y222045D01*
X170029Y222047D01*
X172953Y224971D01*
X172955Y224520D01*
D02*
G37*
G36*
X363498Y221927D02*
X363329Y221747D01*
X363178Y221566D01*
X363045Y221381D01*
X362930Y221195D01*
X362833Y221006D01*
X362754Y220814D01*
X362693Y220621D01*
X362650Y220424D01*
X362625Y220226D01*
X362618Y220025D01*
X360182Y222461D01*
X360383Y222467D01*
X360582Y222493D01*
X360778Y222535D01*
X360972Y222597D01*
X361163Y222675D01*
X361352Y222773D01*
X361539Y222888D01*
X361723Y223021D01*
X361905Y223172D01*
X362084Y223341D01*
X363498Y221927D01*
D02*
G37*
G36*
X358410Y223172D02*
X358592Y223021D01*
X358776Y222888D01*
X358963Y222773D01*
X359152Y222675D01*
X359343Y222597D01*
X359537Y222535D01*
X359733Y222493D01*
X359932Y222467D01*
X360133Y222461D01*
X357697Y220025D01*
X357690Y220226D01*
X357665Y220424D01*
X357622Y220621D01*
X357561Y220814D01*
X357482Y221006D01*
X357385Y221195D01*
X357270Y221381D01*
X357137Y221566D01*
X356986Y221747D01*
X356817Y221927D01*
X358231Y223341D01*
X358410Y223172D01*
D02*
G37*
G36*
X313498Y221927D02*
X313329Y221747D01*
X313178Y221566D01*
X313045Y221381D01*
X312930Y221195D01*
X312833Y221006D01*
X312754Y220814D01*
X312693Y220621D01*
X312650Y220424D01*
X312625Y220226D01*
X312618Y220025D01*
X310182Y222461D01*
X310383Y222467D01*
X310582Y222493D01*
X310778Y222535D01*
X310972Y222597D01*
X311163Y222675D01*
X311352Y222773D01*
X311539Y222888D01*
X311723Y223021D01*
X311905Y223172D01*
X312084Y223341D01*
X313498Y221927D01*
D02*
G37*
G36*
X291090Y221041D02*
X291125Y221032D01*
X291177Y221024D01*
X291332Y221012D01*
X291847Y221001D01*
X292018Y221000D01*
Y219000D01*
X291071Y218950D01*
Y221050D01*
X291090Y221041D01*
D02*
G37*
G36*
X308400Y218278D02*
X308253Y218415D01*
X308095Y218538D01*
X307926Y218646D01*
X307746Y218740D01*
X307554Y218819D01*
X307352Y218884D01*
X307139Y218935D01*
X306914Y218971D01*
X306679Y218993D01*
X306433Y219000D01*
Y221000D01*
X306679Y221007D01*
X306914Y221029D01*
X307139Y221065D01*
X307352Y221116D01*
X307554Y221181D01*
X307746Y221260D01*
X307926Y221354D01*
X308095Y221462D01*
X308253Y221585D01*
X308400Y221722D01*
Y218278D01*
D02*
G37*
G36*
X372336Y220224D02*
X372279Y220040D01*
Y219828D01*
X372336Y219588D01*
X372449Y219319D01*
X372618Y219022D01*
X372845Y218697D01*
X373127Y218343D01*
X373863Y217551D01*
X372449Y216137D01*
X372039Y216533D01*
X371303Y217155D01*
X370978Y217382D01*
X370681Y217551D01*
X370412Y217665D01*
X370222Y217709D01*
X370380Y217551D01*
X370224Y217665D01*
X370040Y217721D01*
X369960D01*
X369776Y217665D01*
X369620Y217551D01*
X369778Y217709D01*
X369588Y217665D01*
X369319Y217551D01*
X369022Y217382D01*
X368697Y217155D01*
X368343Y216873D01*
X367551Y216137D01*
X366137Y217551D01*
X366533Y217962D01*
X367155Y218697D01*
X367382Y219022D01*
X367551Y219319D01*
X367665Y219588D01*
X367721Y219828D01*
Y220040D01*
X367665Y220224D01*
X367551Y220380D01*
X370000Y217931D01*
X372449Y220380D01*
X372336Y220224D01*
D02*
G37*
G36*
X430380Y217551D02*
X430224Y217665D01*
X430040Y217721D01*
X429828D01*
X429588Y217665D01*
X429319Y217551D01*
X429022Y217382D01*
X428697Y217155D01*
X428343Y216873D01*
X427551Y216137D01*
X426137Y217551D01*
X426533Y217962D01*
X427155Y218697D01*
X427382Y219022D01*
X427551Y219319D01*
X427665Y219588D01*
X427721Y219828D01*
Y220040D01*
X427665Y220224D01*
X427551Y220380D01*
X430380Y217551D01*
D02*
G37*
G36*
X112955Y219520D02*
X113001Y218719D01*
X113046Y218369D01*
X113104Y218051D01*
X113176Y217767D01*
X113262Y217516D01*
X113362Y217298D01*
X113476Y217113D01*
X113604Y216961D01*
X113039Y216396D01*
X112887Y216524D01*
X112702Y216638D01*
X112484Y216738D01*
X112233Y216824D01*
X111949Y216896D01*
X111631Y216954D01*
X111281Y216999D01*
X110480Y217045D01*
X110029Y217047D01*
X112953Y219970D01*
X112955Y219520D01*
D02*
G37*
G36*
X322336Y220224D02*
X322279Y220040D01*
Y219828D01*
X322336Y219588D01*
X322449Y219319D01*
X322618Y219022D01*
X322845Y218697D01*
X323127Y218343D01*
X323863Y217551D01*
X322449Y216137D01*
X322039Y216533D01*
X321303Y217155D01*
X320978Y217382D01*
X320681Y217551D01*
X320412Y217665D01*
X320172Y217721D01*
X319960D01*
X319776Y217665D01*
X319620Y217551D01*
X322449Y220380D01*
X322336Y220224D01*
D02*
G37*
G36*
X222877Y215697D02*
X222913Y215635D01*
X222961Y215580D01*
X223020Y215532D01*
X223090Y215492D01*
X223172Y215459D01*
X223265Y215433D01*
X223369Y215415D01*
X223484Y215404D01*
X223610Y215400D01*
Y214600D01*
X223484Y214596D01*
X223369Y214585D01*
X223265Y214567D01*
X223172Y214541D01*
X223090Y214508D01*
X223020Y214468D01*
X222961Y214420D01*
X222913Y214365D01*
X222877Y214303D01*
X222851Y214233D01*
Y215767D01*
X222877Y215697D01*
D02*
G37*
G36*
X279214Y214230D02*
X279140Y214300D01*
X279062Y214363D01*
X278981Y214419D01*
X278896Y214467D01*
X278808Y214508D01*
X278717Y214541D01*
X278622Y214567D01*
X278523Y214585D01*
X278421Y214596D01*
X278315Y214600D01*
Y215400D01*
X278421Y215404D01*
X278523Y215415D01*
X278622Y215433D01*
X278717Y215459D01*
X278808Y215493D01*
X278896Y215533D01*
X278981Y215581D01*
X279062Y215637D01*
X279140Y215700D01*
X279214Y215770D01*
Y214230D01*
D02*
G37*
G36*
X302989Y213400D02*
X302887Y213397D01*
X302787Y213387D01*
X302691Y213369D01*
X302597Y213343D01*
X302506Y213309D01*
X302417Y213268D01*
X302332Y213219D01*
X302249Y213162D01*
X302169Y213098D01*
X302092Y213026D01*
X301526Y213592D01*
X301598Y213669D01*
X301662Y213749D01*
X301719Y213832D01*
X301768Y213917D01*
X301809Y214006D01*
X301843Y214097D01*
X301869Y214191D01*
X301887Y214287D01*
X301897Y214387D01*
X301900Y214489D01*
X302989Y213400D01*
D02*
G37*
G36*
X252429Y216750D02*
X253028Y216217D01*
X253307Y216000D01*
X253573Y215817D01*
X253825Y215667D01*
X254063Y215550D01*
X254288Y215467D01*
X254500Y215417D01*
X254697Y215400D01*
Y214600D01*
X254500Y214583D01*
X254288Y214533D01*
X254063Y214450D01*
X253825Y214333D01*
X253573Y214183D01*
X253307Y214000D01*
X253028Y213783D01*
X252429Y213250D01*
X252109Y212933D01*
Y217067D01*
X252429Y216750D01*
D02*
G37*
G36*
X247891Y212933D02*
X247571Y213250D01*
X246972Y213783D01*
X246693Y214000D01*
X246427Y214183D01*
X246175Y214333D01*
X245937Y214450D01*
X245712Y214533D01*
X245500Y214583D01*
X245303Y214600D01*
Y215400D01*
X245500Y215417D01*
X245712Y215467D01*
X245937Y215550D01*
X246175Y215667D01*
X246427Y215817D01*
X246693Y216000D01*
X246972Y216217D01*
X247571Y216750D01*
X247891Y217067D01*
Y212933D01*
D02*
G37*
G36*
X202429Y216750D02*
X203028Y216217D01*
X203307Y216000D01*
X203573Y215817D01*
X203825Y215667D01*
X204063Y215550D01*
X204288Y215467D01*
X204500Y215417D01*
X204697Y215400D01*
Y214600D01*
X204500Y214583D01*
X204288Y214533D01*
X204063Y214450D01*
X203825Y214333D01*
X203573Y214183D01*
X203307Y214000D01*
X203028Y213783D01*
X202429Y213250D01*
X202109Y212933D01*
Y217067D01*
X202429Y216750D01*
D02*
G37*
G36*
X197891Y212933D02*
X197571Y213250D01*
X196972Y213783D01*
X196693Y214000D01*
X196427Y214183D01*
X196175Y214333D01*
X195937Y214450D01*
X195712Y214533D01*
X195501Y214583D01*
X195303Y214600D01*
Y215400D01*
X195501Y215417D01*
X195712Y215467D01*
X195937Y215550D01*
X196175Y215667D01*
X196427Y215817D01*
X196693Y216000D01*
X196972Y216217D01*
X197571Y216750D01*
X197891Y217067D01*
Y212933D01*
D02*
G37*
G36*
X172955Y214520D02*
X173001Y213719D01*
X173046Y213369D01*
X173104Y213051D01*
X173176Y212767D01*
X173262Y212516D01*
X173362Y212298D01*
X173476Y212113D01*
X173604Y211961D01*
X173039Y211396D01*
X172887Y211524D01*
X172702Y211638D01*
X172484Y211738D01*
X172233Y211824D01*
X171949Y211896D01*
X171631Y211954D01*
X171281Y211999D01*
X170480Y212045D01*
X170029Y212047D01*
X172953Y214970D01*
X172955Y214520D01*
D02*
G37*
G36*
X363115Y208347D02*
X363053Y208424D01*
X362985Y208493D01*
X362913Y208554D01*
X362836Y208607D01*
X362753Y208651D01*
X362666Y208688D01*
X362574Y208716D01*
X362477Y208736D01*
X362375Y208749D01*
X362268Y208753D01*
X362389Y209553D01*
X362493Y209556D01*
X362595Y209565D01*
X362694Y209581D01*
X362792Y209604D01*
X362887Y209632D01*
X362980Y209667D01*
X363070Y209709D01*
X363159Y209757D01*
X363245Y209811D01*
X363329Y209872D01*
X363115Y208347D01*
D02*
G37*
G36*
X112955Y209520D02*
X113001Y208719D01*
X113046Y208369D01*
X113104Y208051D01*
X113176Y207767D01*
X113262Y207516D01*
X113362Y207298D01*
X113476Y207113D01*
X113604Y206961D01*
X113039Y206396D01*
X112887Y206524D01*
X112702Y206638D01*
X112484Y206738D01*
X112233Y206824D01*
X111949Y206896D01*
X111631Y206954D01*
X111281Y206998D01*
X110480Y207045D01*
X110029Y207047D01*
X112953Y209970D01*
X112955Y209520D01*
D02*
G37*
G36*
X222877Y205697D02*
X222913Y205635D01*
X222961Y205580D01*
X223020Y205532D01*
X223090Y205492D01*
X223172Y205459D01*
X223265Y205433D01*
X223369Y205415D01*
X223484Y205404D01*
X223610Y205400D01*
Y204600D01*
X223484Y204596D01*
X223369Y204585D01*
X223265Y204567D01*
X223172Y204541D01*
X223090Y204508D01*
X223020Y204468D01*
X222961Y204420D01*
X222913Y204365D01*
X222877Y204303D01*
X222851Y204233D01*
Y205767D01*
X222877Y205697D01*
D02*
G37*
G36*
X281714Y204230D02*
X281640Y204300D01*
X281562Y204363D01*
X281481Y204419D01*
X281397Y204467D01*
X281308Y204507D01*
X281217Y204541D01*
X281121Y204567D01*
X281023Y204585D01*
X280921Y204596D01*
X280815Y204600D01*
Y205400D01*
X280921Y205404D01*
X281023Y205415D01*
X281121Y205433D01*
X281217Y205459D01*
X281308Y205492D01*
X281397Y205533D01*
X281481Y205581D01*
X281562Y205637D01*
X281640Y205700D01*
X281714Y205770D01*
Y204230D01*
D02*
G37*
G36*
X337071Y204200D02*
X337063Y204276D01*
X337039Y204344D01*
X336998Y204404D01*
X336941Y204456D01*
X336868Y204500D01*
X336779Y204536D01*
X336673Y204564D01*
X336552Y204584D01*
X336414Y204596D01*
X336259Y204600D01*
Y205400D01*
X336414Y205404D01*
X336552Y205416D01*
X336673Y205436D01*
X336779Y205464D01*
X336868Y205500D01*
X336941Y205544D01*
X336998Y205596D01*
X337039Y205656D01*
X337063Y205724D01*
X337071Y205800D01*
Y204200D01*
D02*
G37*
G36*
X292937Y205724D02*
X292961Y205656D01*
X293002Y205596D01*
X293059Y205544D01*
X293132Y205500D01*
X293221Y205464D01*
X293327Y205436D01*
X293448Y205416D01*
X293586Y205404D01*
X293741Y205400D01*
Y204600D01*
X293586Y204596D01*
X293448Y204584D01*
X293327Y204564D01*
X293221Y204536D01*
X293132Y204500D01*
X293059Y204456D01*
X293002Y204404D01*
X292961Y204344D01*
X292937Y204276D01*
X292929Y204200D01*
Y205800D01*
X292937Y205724D01*
D02*
G37*
G36*
X252429Y206750D02*
X253028Y206217D01*
X253307Y206000D01*
X253573Y205817D01*
X253825Y205667D01*
X254063Y205550D01*
X254288Y205467D01*
X254500Y205417D01*
X254697Y205400D01*
Y204600D01*
X254500Y204583D01*
X254288Y204533D01*
X254063Y204450D01*
X253825Y204333D01*
X253573Y204183D01*
X253307Y204000D01*
X253028Y203783D01*
X252429Y203250D01*
X252109Y202933D01*
Y207067D01*
X252429Y206750D01*
D02*
G37*
G36*
X247891Y202933D02*
X247571Y203250D01*
X246972Y203783D01*
X246693Y204000D01*
X246427Y204183D01*
X246175Y204333D01*
X245937Y204450D01*
X245712Y204533D01*
X245500Y204583D01*
X245303Y204600D01*
Y205400D01*
X245500Y205417D01*
X245712Y205467D01*
X245937Y205550D01*
X246175Y205667D01*
X246427Y205817D01*
X246693Y206000D01*
X246972Y206217D01*
X247571Y206750D01*
X247891Y207067D01*
Y202933D01*
D02*
G37*
G36*
X202429Y206750D02*
X203028Y206217D01*
X203307Y206000D01*
X203573Y205817D01*
X203825Y205667D01*
X204063Y205550D01*
X204288Y205467D01*
X204500Y205417D01*
X204697Y205400D01*
Y204600D01*
X204500Y204583D01*
X204288Y204533D01*
X204063Y204450D01*
X203825Y204333D01*
X203573Y204183D01*
X203307Y204000D01*
X203028Y203783D01*
X202429Y203250D01*
X202109Y202933D01*
Y207067D01*
X202429Y206750D01*
D02*
G37*
G36*
X197891Y202933D02*
X197571Y203250D01*
X196972Y203783D01*
X196693Y204000D01*
X196427Y204183D01*
X196175Y204333D01*
X195937Y204450D01*
X195712Y204533D01*
X195501Y204583D01*
X195303Y204600D01*
Y205400D01*
X195501Y205417D01*
X195712Y205467D01*
X195937Y205550D01*
X196175Y205667D01*
X196427Y205817D01*
X196693Y206000D01*
X196972Y206217D01*
X197571Y206750D01*
X197891Y207067D01*
Y202933D01*
D02*
G37*
G36*
X172955Y204520D02*
X173001Y203719D01*
X173046Y203369D01*
X173104Y203051D01*
X173176Y202767D01*
X173262Y202516D01*
X173362Y202298D01*
X173476Y202113D01*
X173604Y201961D01*
X173039Y201396D01*
X172887Y201524D01*
X172702Y201638D01*
X172484Y201738D01*
X172233Y201824D01*
X171949Y201896D01*
X171631Y201954D01*
X171281Y201999D01*
X170480Y202045D01*
X170029Y202047D01*
X172953Y204971D01*
X172955Y204520D01*
D02*
G37*
G36*
X348558Y199931D02*
X348505Y200011D01*
X348445Y200083D01*
X348379Y200146D01*
X348307Y200201D01*
X348229Y200247D01*
X348145Y200285D01*
X348055Y200315D01*
X347959Y200336D01*
X347858Y200348D01*
X347750Y200353D01*
X347955Y201153D01*
X348058Y201155D01*
X348159Y201164D01*
X348259Y201178D01*
X348357Y201197D01*
X348454Y201222D01*
X348549Y201253D01*
X348642Y201289D01*
X348734Y201330D01*
X348824Y201377D01*
X348912Y201430D01*
X348558Y199931D01*
D02*
G37*
G36*
X313669Y200402D02*
X313749Y200338D01*
X313832Y200281D01*
X313917Y200232D01*
X314006Y200191D01*
X314097Y200157D01*
X314191Y200131D01*
X314287Y200113D01*
X314387Y200103D01*
X314489Y200100D01*
X313400Y199011D01*
X313397Y199113D01*
X313387Y199213D01*
X313369Y199309D01*
X313343Y199403D01*
X313309Y199494D01*
X313268Y199583D01*
X313219Y199668D01*
X313162Y199751D01*
X313098Y199831D01*
X313026Y199908D01*
X313592Y200474D01*
X313669Y200402D01*
D02*
G37*
G36*
X112955Y199520D02*
X113001Y198719D01*
X113046Y198369D01*
X113104Y198051D01*
X113176Y197767D01*
X113262Y197516D01*
X113362Y197298D01*
X113476Y197113D01*
X113604Y196961D01*
X113039Y196396D01*
X112887Y196524D01*
X112702Y196638D01*
X112484Y196738D01*
X112233Y196824D01*
X111949Y196896D01*
X111631Y196954D01*
X111281Y196999D01*
X110480Y197045D01*
X110029Y197047D01*
X112953Y199970D01*
X112955Y199520D01*
D02*
G37*
G36*
X323604Y198039D02*
X323476Y197887D01*
X323362Y197702D01*
X323262Y197484D01*
X323176Y197233D01*
X323104Y196949D01*
X323046Y196631D01*
X323002Y196281D01*
X322955Y195480D01*
X322953Y195029D01*
X320029Y197953D01*
X320480Y197955D01*
X321281Y198001D01*
X321631Y198046D01*
X321949Y198104D01*
X322233Y198176D01*
X322484Y198262D01*
X322702Y198362D01*
X322887Y198476D01*
X323039Y198604D01*
X323604Y198039D01*
D02*
G37*
G36*
X223827Y197120D02*
X224413Y196320D01*
X224178Y196302D01*
X223962Y196249D01*
X223766Y196161D01*
X223588Y196037D01*
X223429Y195877D01*
X223289Y195682D01*
X223168Y195452D01*
X223065Y195186D01*
X222982Y194885D01*
X222918Y194548D01*
X220745Y197857D01*
X223827Y197120D01*
D02*
G37*
G36*
X438214Y194230D02*
X438140Y194300D01*
X438062Y194363D01*
X437981Y194419D01*
X437896Y194467D01*
X437808Y194508D01*
X437717Y194541D01*
X437621Y194567D01*
X437523Y194585D01*
X437421Y194596D01*
X437315Y194600D01*
Y195400D01*
X437421Y195404D01*
X437523Y195415D01*
X437621Y195433D01*
X437717Y195459D01*
X437808Y195492D01*
X437896Y195533D01*
X437981Y195581D01*
X438062Y195637D01*
X438140Y195700D01*
X438214Y195770D01*
Y194230D01*
D02*
G37*
G36*
X284214D02*
X284140Y194300D01*
X284062Y194363D01*
X283981Y194419D01*
X283896Y194467D01*
X283808Y194508D01*
X283717Y194541D01*
X283622Y194567D01*
X283523Y194585D01*
X283421Y194596D01*
X283315Y194600D01*
Y195400D01*
X283421Y195404D01*
X283523Y195415D01*
X283622Y195433D01*
X283717Y195459D01*
X283808Y195492D01*
X283896Y195533D01*
X283981Y195581D01*
X284062Y195637D01*
X284140Y195700D01*
X284214Y195770D01*
Y194230D01*
D02*
G37*
G36*
X432429Y196750D02*
X433028Y196217D01*
X433307Y196000D01*
X433573Y195817D01*
X433825Y195667D01*
X434063Y195550D01*
X434288Y195467D01*
X434500Y195417D01*
X434697Y195400D01*
Y194600D01*
X434500Y194583D01*
X434288Y194533D01*
X434063Y194450D01*
X433825Y194333D01*
X433573Y194183D01*
X433307Y194000D01*
X433028Y193783D01*
X432429Y193250D01*
X432109Y192933D01*
Y197067D01*
X432429Y196750D01*
D02*
G37*
G36*
X342429D02*
X343028Y196217D01*
X343307Y196000D01*
X343573Y195817D01*
X343825Y195667D01*
X344063Y195550D01*
X344288Y195467D01*
X344499Y195417D01*
X344697Y195400D01*
Y194600D01*
X344499Y194583D01*
X344288Y194533D01*
X344063Y194450D01*
X343825Y194333D01*
X343573Y194183D01*
X343307Y194000D01*
X343028Y193783D01*
X342429Y193250D01*
X342109Y192933D01*
Y197067D01*
X342429Y196750D01*
D02*
G37*
G36*
X292429D02*
X293028Y196217D01*
X293307Y196000D01*
X293573Y195817D01*
X293825Y195667D01*
X294063Y195550D01*
X294288Y195467D01*
X294499Y195417D01*
X294697Y195400D01*
Y194600D01*
X294499Y194583D01*
X294288Y194533D01*
X294063Y194450D01*
X293825Y194333D01*
X293573Y194183D01*
X293307Y194000D01*
X293028Y193783D01*
X292429Y193250D01*
X292109Y192933D01*
Y197067D01*
X292429Y196750D01*
D02*
G37*
G36*
X252429D02*
X253028Y196217D01*
X253307Y196000D01*
X253573Y195817D01*
X253825Y195667D01*
X254063Y195550D01*
X254288Y195467D01*
X254500Y195417D01*
X254697Y195400D01*
Y194600D01*
X254500Y194583D01*
X254288Y194533D01*
X254063Y194450D01*
X253825Y194333D01*
X253573Y194183D01*
X253307Y194000D01*
X253028Y193783D01*
X252429Y193250D01*
X252109Y192933D01*
Y197067D01*
X252429Y196750D01*
D02*
G37*
G36*
X202429D02*
X203028Y196217D01*
X203307Y196000D01*
X203573Y195817D01*
X203825Y195667D01*
X204063Y195550D01*
X204288Y195467D01*
X204500Y195417D01*
X204697Y195400D01*
Y194600D01*
X204500Y194583D01*
X204288Y194533D01*
X204063Y194450D01*
X203825Y194333D01*
X203573Y194183D01*
X203307Y194000D01*
X203028Y193783D01*
X202429Y193250D01*
X202109Y192933D01*
Y197067D01*
X202429Y196750D01*
D02*
G37*
G36*
X197891Y192933D02*
X197571Y193250D01*
X196972Y193783D01*
X196693Y194000D01*
X196427Y194183D01*
X196175Y194333D01*
X195937Y194450D01*
X195712Y194533D01*
X195501Y194583D01*
X195303Y194600D01*
Y195400D01*
X195501Y195417D01*
X195712Y195467D01*
X195937Y195550D01*
X196175Y195667D01*
X196427Y195817D01*
X196693Y196000D01*
X196972Y196217D01*
X197571Y196750D01*
X197891Y197067D01*
Y192933D01*
D02*
G37*
G36*
X339970Y192047D02*
X339520Y192045D01*
X338719Y191999D01*
X338369Y191954D01*
X338051Y191896D01*
X337767Y191824D01*
X337516Y191738D01*
X337298Y191638D01*
X337113Y191524D01*
X336961Y191396D01*
X336396Y191961D01*
X336524Y192113D01*
X336638Y192298D01*
X336738Y192516D01*
X336824Y192767D01*
X336896Y193051D01*
X336954Y193369D01*
X336999Y193719D01*
X337045Y194520D01*
X337047Y194971D01*
X339970Y192047D01*
D02*
G37*
G36*
X172955Y194520D02*
X173001Y193719D01*
X173046Y193369D01*
X173104Y193051D01*
X173176Y192767D01*
X173262Y192516D01*
X173362Y192298D01*
X173476Y192113D01*
X173604Y191961D01*
X173039Y191396D01*
X172887Y191524D01*
X172702Y191638D01*
X172484Y191738D01*
X172233Y191824D01*
X171949Y191896D01*
X171631Y191954D01*
X171281Y191999D01*
X170480Y192045D01*
X170029Y192047D01*
X172953Y194971D01*
X172955Y194520D01*
D02*
G37*
G36*
X112955Y189520D02*
X113001Y188719D01*
X113046Y188369D01*
X113104Y188051D01*
X113176Y187767D01*
X113262Y187516D01*
X113362Y187298D01*
X113476Y187113D01*
X113604Y186961D01*
X113039Y186396D01*
X112887Y186524D01*
X112702Y186638D01*
X112484Y186738D01*
X112233Y186824D01*
X111949Y186896D01*
X111631Y186954D01*
X111281Y186999D01*
X110480Y187045D01*
X110029Y187047D01*
X112953Y189971D01*
X112955Y189520D01*
D02*
G37*
G36*
X223827Y187120D02*
X224413Y186320D01*
X224178Y186302D01*
X223962Y186249D01*
X223766Y186161D01*
X223588Y186037D01*
X223429Y185877D01*
X223289Y185682D01*
X223168Y185452D01*
X223065Y185186D01*
X222982Y184885D01*
X222918Y184548D01*
X220745Y187857D01*
X223827Y187120D01*
D02*
G37*
G36*
X367891Y182933D02*
X367571Y183250D01*
X366972Y183783D01*
X366693Y184000D01*
X366427Y184183D01*
X366175Y184333D01*
X365937Y184450D01*
X365712Y184533D01*
X365500Y184583D01*
X365303Y184600D01*
Y185400D01*
X365500Y185417D01*
X365712Y185467D01*
X365937Y185550D01*
X366175Y185667D01*
X366427Y185817D01*
X366693Y186000D01*
X366972Y186217D01*
X367571Y186750D01*
X367891Y187067D01*
Y182933D01*
D02*
G37*
G36*
X342429Y186750D02*
X343028Y186217D01*
X343307Y186000D01*
X343573Y185817D01*
X343825Y185667D01*
X344063Y185550D01*
X344288Y185467D01*
X344499Y185417D01*
X344697Y185400D01*
Y184600D01*
X344499Y184583D01*
X344288Y184533D01*
X344063Y184450D01*
X343825Y184333D01*
X343573Y184183D01*
X343307Y184000D01*
X343028Y183783D01*
X342429Y183250D01*
X342109Y182933D01*
Y187067D01*
X342429Y186750D01*
D02*
G37*
G36*
X317891Y182933D02*
X317571Y183250D01*
X316972Y183783D01*
X316693Y184000D01*
X316427Y184183D01*
X316175Y184333D01*
X315937Y184450D01*
X315712Y184533D01*
X315500Y184583D01*
X315303Y184600D01*
Y185400D01*
X315500Y185417D01*
X315712Y185467D01*
X315937Y185550D01*
X316175Y185667D01*
X316427Y185817D01*
X316693Y186000D01*
X316972Y186217D01*
X317571Y186750D01*
X317891Y187067D01*
Y182933D01*
D02*
G37*
G36*
X292429Y186750D02*
X293028Y186217D01*
X293307Y186000D01*
X293573Y185817D01*
X293825Y185667D01*
X294063Y185550D01*
X294288Y185467D01*
X294499Y185417D01*
X294697Y185400D01*
Y184600D01*
X294499Y184583D01*
X294288Y184533D01*
X294063Y184450D01*
X293825Y184333D01*
X293573Y184183D01*
X293307Y184000D01*
X293028Y183783D01*
X292429Y183250D01*
X292109Y182933D01*
Y187067D01*
X292429Y186750D01*
D02*
G37*
G36*
X287891Y182933D02*
X287571Y183250D01*
X286972Y183783D01*
X286693Y184000D01*
X286427Y184183D01*
X286175Y184333D01*
X285937Y184450D01*
X285712Y184533D01*
X285501Y184583D01*
X285303Y184600D01*
Y185400D01*
X285501Y185417D01*
X285712Y185467D01*
X285937Y185550D01*
X286175Y185667D01*
X286427Y185817D01*
X286693Y186000D01*
X286972Y186217D01*
X287571Y186750D01*
X287891Y187067D01*
Y182933D01*
D02*
G37*
G36*
X252429Y186750D02*
X253028Y186217D01*
X253307Y186000D01*
X253573Y185817D01*
X253825Y185667D01*
X254063Y185550D01*
X254288Y185467D01*
X254500Y185417D01*
X254697Y185400D01*
Y184600D01*
X254500Y184583D01*
X254288Y184533D01*
X254063Y184450D01*
X253825Y184333D01*
X253573Y184183D01*
X253307Y184000D01*
X253028Y183783D01*
X252429Y183250D01*
X252109Y182933D01*
Y187067D01*
X252429Y186750D01*
D02*
G37*
G36*
X202429D02*
X203028Y186217D01*
X203307Y186000D01*
X203573Y185817D01*
X203825Y185667D01*
X204063Y185550D01*
X204288Y185467D01*
X204500Y185417D01*
X204697Y185400D01*
Y184600D01*
X204500Y184583D01*
X204288Y184533D01*
X204063Y184450D01*
X203825Y184333D01*
X203573Y184183D01*
X203307Y184000D01*
X203028Y183783D01*
X202429Y183250D01*
X202109Y182933D01*
Y187067D01*
X202429Y186750D01*
D02*
G37*
G36*
X197891Y182933D02*
X197571Y183250D01*
X196972Y183783D01*
X196693Y184000D01*
X196427Y184183D01*
X196175Y184333D01*
X195937Y184450D01*
X195712Y184533D01*
X195501Y184583D01*
X195303Y184600D01*
Y185400D01*
X195501Y185417D01*
X195712Y185467D01*
X195937Y185550D01*
X196175Y185667D01*
X196427Y185817D01*
X196693Y186000D01*
X196972Y186217D01*
X197571Y186750D01*
X197891Y187067D01*
Y182933D01*
D02*
G37*
G36*
X429971Y182047D02*
X429520Y182045D01*
X428719Y181999D01*
X428369Y181954D01*
X428051Y181896D01*
X427767Y181824D01*
X427516Y181738D01*
X427298Y181638D01*
X427113Y181524D01*
X426961Y181396D01*
X426396Y181961D01*
X426524Y182113D01*
X426638Y182298D01*
X426738Y182516D01*
X426824Y182767D01*
X426896Y183051D01*
X426954Y183369D01*
X426999Y183719D01*
X427045Y184520D01*
X427047Y184970D01*
X429971Y182047D01*
D02*
G37*
G36*
X339970D02*
X339520Y182045D01*
X338719Y181999D01*
X338369Y181954D01*
X338051Y181896D01*
X337767Y181824D01*
X337516Y181738D01*
X337298Y181638D01*
X337113Y181524D01*
X336961Y181396D01*
X336396Y181961D01*
X336524Y182113D01*
X336638Y182298D01*
X336738Y182516D01*
X336824Y182767D01*
X336896Y183051D01*
X336954Y183369D01*
X336999Y183719D01*
X337045Y184520D01*
X337047Y184970D01*
X339970Y182047D01*
D02*
G37*
G36*
X172955Y184520D02*
X173001Y183719D01*
X173046Y183369D01*
X173104Y183051D01*
X173176Y182767D01*
X173262Y182516D01*
X173362Y182298D01*
X173476Y182113D01*
X173604Y181961D01*
X173039Y181396D01*
X172887Y181524D01*
X172702Y181638D01*
X172484Y181738D01*
X172233Y181824D01*
X171949Y181896D01*
X171631Y181954D01*
X171281Y181999D01*
X170480Y182045D01*
X170029Y182047D01*
X172953Y184970D01*
X172955Y184520D01*
D02*
G37*
G36*
X112955Y179520D02*
X113001Y178719D01*
X113046Y178369D01*
X113104Y178051D01*
X113176Y177767D01*
X113262Y177516D01*
X113362Y177298D01*
X113476Y177113D01*
X113604Y176961D01*
X113039Y176396D01*
X112887Y176524D01*
X112702Y176638D01*
X112484Y176738D01*
X112233Y176824D01*
X111949Y176896D01*
X111631Y176954D01*
X111281Y176999D01*
X110480Y177045D01*
X110029Y177047D01*
X112953Y179971D01*
X112955Y179520D01*
D02*
G37*
G36*
X223827Y177120D02*
X224413Y176320D01*
X224178Y176302D01*
X223962Y176249D01*
X223766Y176161D01*
X223588Y176037D01*
X223429Y175877D01*
X223289Y175682D01*
X223168Y175452D01*
X223065Y175186D01*
X222982Y174885D01*
X222918Y174548D01*
X220745Y177857D01*
X223827Y177120D01*
D02*
G37*
G36*
X376588Y174385D02*
X376555Y174426D01*
X376513Y174462D01*
X376463Y174495D01*
X376404Y174523D01*
X376337Y174546D01*
X376261Y174566D01*
X376177Y174581D01*
X376084Y174591D01*
X375873Y174600D01*
Y175400D01*
X375983Y175402D01*
X376177Y175419D01*
X376261Y175434D01*
X376337Y175454D01*
X376404Y175477D01*
X376463Y175505D01*
X376513Y175538D01*
X376555Y175574D01*
X376588Y175615D01*
Y174385D01*
D02*
G37*
G36*
X367891Y172933D02*
X367571Y173250D01*
X366972Y173783D01*
X366693Y174000D01*
X366427Y174183D01*
X366175Y174333D01*
X365937Y174450D01*
X365712Y174533D01*
X365500Y174583D01*
X365303Y174600D01*
Y175400D01*
X365500Y175417D01*
X365712Y175467D01*
X365937Y175550D01*
X366175Y175667D01*
X366427Y175817D01*
X366693Y176000D01*
X366972Y176217D01*
X367571Y176750D01*
X367891Y177067D01*
Y172933D01*
D02*
G37*
G36*
X342429Y176750D02*
X343028Y176217D01*
X343307Y176000D01*
X343573Y175817D01*
X343825Y175667D01*
X344063Y175550D01*
X344288Y175467D01*
X344499Y175417D01*
X344697Y175400D01*
Y174600D01*
X344499Y174583D01*
X344288Y174533D01*
X344063Y174450D01*
X343825Y174333D01*
X343573Y174183D01*
X343307Y174000D01*
X343028Y173783D01*
X342429Y173250D01*
X342109Y172933D01*
Y177067D01*
X342429Y176750D01*
D02*
G37*
G36*
X317891Y172933D02*
X317571Y173250D01*
X316972Y173783D01*
X316693Y174000D01*
X316427Y174183D01*
X316175Y174333D01*
X315937Y174450D01*
X315712Y174533D01*
X315500Y174583D01*
X315303Y174600D01*
Y175400D01*
X315500Y175417D01*
X315712Y175467D01*
X315937Y175550D01*
X316175Y175667D01*
X316427Y175817D01*
X316693Y176000D01*
X316972Y176217D01*
X317571Y176750D01*
X317891Y177067D01*
Y172933D01*
D02*
G37*
G36*
X292429Y176750D02*
X293028Y176217D01*
X293307Y176000D01*
X293573Y175817D01*
X293825Y175667D01*
X294063Y175550D01*
X294288Y175467D01*
X294499Y175417D01*
X294697Y175400D01*
Y174600D01*
X294499Y174583D01*
X294288Y174533D01*
X294063Y174450D01*
X293825Y174333D01*
X293573Y174183D01*
X293307Y174000D01*
X293028Y173783D01*
X292429Y173250D01*
X292109Y172933D01*
Y177067D01*
X292429Y176750D01*
D02*
G37*
G36*
X287891Y172933D02*
X287571Y173250D01*
X286972Y173783D01*
X286693Y174000D01*
X286427Y174183D01*
X286175Y174333D01*
X285937Y174450D01*
X285712Y174533D01*
X285501Y174583D01*
X285303Y174600D01*
Y175400D01*
X285501Y175417D01*
X285712Y175467D01*
X285937Y175550D01*
X286175Y175667D01*
X286427Y175817D01*
X286693Y176000D01*
X286972Y176217D01*
X287571Y176750D01*
X287891Y177067D01*
Y172933D01*
D02*
G37*
G36*
X252429Y176750D02*
X253028Y176217D01*
X253307Y176000D01*
X253573Y175817D01*
X253825Y175667D01*
X254063Y175550D01*
X254288Y175467D01*
X254500Y175417D01*
X254697Y175400D01*
Y174600D01*
X254500Y174583D01*
X254288Y174533D01*
X254063Y174450D01*
X253825Y174333D01*
X253573Y174183D01*
X253307Y174000D01*
X253028Y173783D01*
X252429Y173250D01*
X252109Y172933D01*
Y177067D01*
X252429Y176750D01*
D02*
G37*
G36*
X202429D02*
X203028Y176217D01*
X203307Y176000D01*
X203573Y175817D01*
X203825Y175667D01*
X204063Y175550D01*
X204288Y175467D01*
X204500Y175417D01*
X204697Y175400D01*
Y174600D01*
X204500Y174583D01*
X204288Y174533D01*
X204063Y174450D01*
X203825Y174333D01*
X203573Y174183D01*
X203307Y174000D01*
X203028Y173783D01*
X202429Y173250D01*
X202109Y172933D01*
Y177067D01*
X202429Y176750D01*
D02*
G37*
G36*
X197891Y172933D02*
X197571Y173250D01*
X196972Y173783D01*
X196693Y174000D01*
X196427Y174183D01*
X196175Y174333D01*
X195937Y174450D01*
X195712Y174533D01*
X195501Y174583D01*
X195303Y174600D01*
Y175400D01*
X195501Y175417D01*
X195712Y175467D01*
X195937Y175550D01*
X196175Y175667D01*
X196427Y175817D01*
X196693Y176000D01*
X196972Y176217D01*
X197571Y176750D01*
X197891Y177067D01*
Y172933D01*
D02*
G37*
G36*
X429971Y172047D02*
X429520Y172045D01*
X428719Y171999D01*
X428369Y171954D01*
X428051Y171896D01*
X427767Y171824D01*
X427516Y171738D01*
X427298Y171638D01*
X427113Y171524D01*
X426961Y171396D01*
X426396Y171961D01*
X426524Y172113D01*
X426638Y172298D01*
X426738Y172516D01*
X426824Y172767D01*
X426896Y173051D01*
X426954Y173369D01*
X426999Y173719D01*
X427045Y174520D01*
X427047Y174970D01*
X429971Y172047D01*
D02*
G37*
G36*
X339970D02*
X339520Y172045D01*
X338719Y171999D01*
X338369Y171954D01*
X338051Y171896D01*
X337767Y171824D01*
X337516Y171738D01*
X337298Y171638D01*
X337113Y171524D01*
X336961Y171396D01*
X336396Y171961D01*
X336524Y172113D01*
X336638Y172298D01*
X336738Y172516D01*
X336824Y172767D01*
X336896Y173051D01*
X336954Y173369D01*
X336999Y173719D01*
X337045Y174520D01*
X337047Y174970D01*
X339970Y172047D01*
D02*
G37*
G36*
X172955Y174520D02*
X173001Y173719D01*
X173046Y173369D01*
X173104Y173051D01*
X173176Y172767D01*
X173262Y172516D01*
X173362Y172298D01*
X173476Y172113D01*
X173604Y171961D01*
X173039Y171396D01*
X172887Y171524D01*
X172702Y171638D01*
X172484Y171738D01*
X172233Y171824D01*
X171949Y171896D01*
X171631Y171954D01*
X171281Y171999D01*
X170480Y172045D01*
X170029Y172047D01*
X172953Y174970D01*
X172955Y174520D01*
D02*
G37*
G36*
X112955Y169520D02*
X113001Y168719D01*
X113046Y168369D01*
X113104Y168051D01*
X113176Y167767D01*
X113262Y167516D01*
X113362Y167298D01*
X113476Y167113D01*
X113604Y166961D01*
X113039Y166396D01*
X112887Y166524D01*
X112702Y166638D01*
X112484Y166738D01*
X112233Y166824D01*
X111949Y166896D01*
X111631Y166954D01*
X111281Y166999D01*
X110480Y167045D01*
X110029Y167047D01*
X112953Y169971D01*
X112955Y169520D01*
D02*
G37*
G36*
X223827Y167120D02*
X224413Y166320D01*
X224178Y166302D01*
X223962Y166249D01*
X223766Y166161D01*
X223588Y166037D01*
X223429Y165877D01*
X223289Y165682D01*
X223168Y165452D01*
X223065Y165186D01*
X222982Y164885D01*
X222918Y164548D01*
X220745Y167857D01*
X223827Y167120D01*
D02*
G37*
G36*
X367891Y162933D02*
X367571Y163250D01*
X366972Y163783D01*
X366693Y164000D01*
X366427Y164183D01*
X366175Y164333D01*
X365937Y164450D01*
X365712Y164533D01*
X365500Y164583D01*
X365303Y164600D01*
Y165400D01*
X365500Y165417D01*
X365712Y165467D01*
X365937Y165550D01*
X366175Y165667D01*
X366427Y165817D01*
X366693Y166000D01*
X366972Y166217D01*
X367571Y166750D01*
X367891Y167067D01*
Y162933D01*
D02*
G37*
G36*
X342429Y166750D02*
X343028Y166217D01*
X343307Y166000D01*
X343573Y165817D01*
X343825Y165667D01*
X344063Y165550D01*
X344288Y165467D01*
X344499Y165417D01*
X344697Y165400D01*
Y164600D01*
X344499Y164583D01*
X344288Y164533D01*
X344063Y164450D01*
X343825Y164333D01*
X343573Y164183D01*
X343307Y164000D01*
X343028Y163783D01*
X342429Y163250D01*
X342109Y162933D01*
Y167067D01*
X342429Y166750D01*
D02*
G37*
G36*
X317891Y162933D02*
X317571Y163250D01*
X316972Y163783D01*
X316693Y164000D01*
X316427Y164183D01*
X316175Y164333D01*
X315937Y164450D01*
X315712Y164533D01*
X315500Y164583D01*
X315303Y164600D01*
Y165400D01*
X315500Y165417D01*
X315712Y165467D01*
X315937Y165550D01*
X316175Y165667D01*
X316427Y165817D01*
X316693Y166000D01*
X316972Y166217D01*
X317571Y166750D01*
X317891Y167067D01*
Y162933D01*
D02*
G37*
G36*
X292429Y166750D02*
X293028Y166217D01*
X293307Y166000D01*
X293573Y165817D01*
X293825Y165667D01*
X294063Y165550D01*
X294288Y165467D01*
X294499Y165417D01*
X294697Y165400D01*
Y164600D01*
X294499Y164583D01*
X294288Y164533D01*
X294063Y164450D01*
X293825Y164333D01*
X293573Y164183D01*
X293307Y164000D01*
X293028Y163783D01*
X292429Y163250D01*
X292109Y162933D01*
Y167067D01*
X292429Y166750D01*
D02*
G37*
G36*
X287891Y162933D02*
X287571Y163250D01*
X286972Y163783D01*
X286693Y164000D01*
X286427Y164183D01*
X286175Y164333D01*
X285937Y164450D01*
X285712Y164533D01*
X285501Y164583D01*
X285303Y164600D01*
Y165400D01*
X285501Y165417D01*
X285712Y165467D01*
X285937Y165550D01*
X286175Y165667D01*
X286427Y165817D01*
X286693Y166000D01*
X286972Y166217D01*
X287571Y166750D01*
X287891Y167067D01*
Y162933D01*
D02*
G37*
G36*
X252429Y166750D02*
X253028Y166217D01*
X253307Y166000D01*
X253573Y165817D01*
X253825Y165667D01*
X254063Y165550D01*
X254288Y165467D01*
X254500Y165417D01*
X254697Y165400D01*
Y164600D01*
X254500Y164583D01*
X254288Y164533D01*
X254063Y164450D01*
X253825Y164333D01*
X253573Y164183D01*
X253307Y164000D01*
X253028Y163783D01*
X252429Y163250D01*
X252109Y162933D01*
Y167067D01*
X252429Y166750D01*
D02*
G37*
G36*
X202429D02*
X203028Y166217D01*
X203307Y166000D01*
X203573Y165817D01*
X203825Y165667D01*
X204063Y165550D01*
X204288Y165467D01*
X204500Y165417D01*
X204697Y165400D01*
Y164600D01*
X204500Y164583D01*
X204288Y164533D01*
X204063Y164450D01*
X203825Y164333D01*
X203573Y164183D01*
X203307Y164000D01*
X203028Y163783D01*
X202429Y163250D01*
X202109Y162933D01*
Y167067D01*
X202429Y166750D01*
D02*
G37*
G36*
X197891Y162933D02*
X197571Y163250D01*
X196972Y163783D01*
X196693Y164000D01*
X196427Y164183D01*
X196175Y164333D01*
X195937Y164450D01*
X195712Y164533D01*
X195501Y164583D01*
X195303Y164600D01*
Y165400D01*
X195501Y165417D01*
X195712Y165467D01*
X195937Y165550D01*
X196175Y165667D01*
X196427Y165817D01*
X196693Y166000D01*
X196972Y166217D01*
X197571Y166750D01*
X197891Y167067D01*
Y162933D01*
D02*
G37*
G36*
X429971Y162047D02*
X429520Y162045D01*
X428719Y161999D01*
X428369Y161954D01*
X428051Y161896D01*
X427767Y161824D01*
X427516Y161738D01*
X427298Y161638D01*
X427113Y161524D01*
X426961Y161396D01*
X426396Y161961D01*
X426524Y162113D01*
X426638Y162298D01*
X426738Y162516D01*
X426824Y162767D01*
X426896Y163051D01*
X426954Y163369D01*
X426999Y163719D01*
X427045Y164520D01*
X427047Y164971D01*
X429971Y162047D01*
D02*
G37*
G36*
X339970D02*
X339520Y162045D01*
X338719Y161999D01*
X338369Y161954D01*
X338051Y161896D01*
X337767Y161824D01*
X337516Y161738D01*
X337298Y161638D01*
X337113Y161524D01*
X336961Y161396D01*
X336396Y161961D01*
X336524Y162113D01*
X336638Y162298D01*
X336738Y162516D01*
X336824Y162767D01*
X336896Y163051D01*
X336954Y163369D01*
X336999Y163719D01*
X337045Y164520D01*
X337047Y164971D01*
X339970Y162047D01*
D02*
G37*
G36*
X172955Y164520D02*
X173001Y163719D01*
X173046Y163369D01*
X173104Y163051D01*
X173176Y162767D01*
X173262Y162516D01*
X173362Y162298D01*
X173476Y162113D01*
X173604Y161961D01*
X173039Y161396D01*
X172887Y161524D01*
X172702Y161638D01*
X172484Y161738D01*
X172233Y161824D01*
X171949Y161896D01*
X171631Y161954D01*
X171281Y161999D01*
X170480Y162045D01*
X170029Y162047D01*
X172953Y164971D01*
X172955Y164520D01*
D02*
G37*
G36*
X112955Y159520D02*
X113001Y158719D01*
X113046Y158369D01*
X113104Y158051D01*
X113176Y157767D01*
X113262Y157516D01*
X113362Y157298D01*
X113476Y157113D01*
X113604Y156961D01*
X113039Y156396D01*
X112887Y156524D01*
X112702Y156638D01*
X112484Y156738D01*
X112233Y156824D01*
X111949Y156896D01*
X111631Y156954D01*
X111281Y156999D01*
X110480Y157045D01*
X110029Y157047D01*
X112953Y159970D01*
X112955Y159520D01*
D02*
G37*
G36*
X149214Y154230D02*
X149140Y154300D01*
X149062Y154363D01*
X148981Y154419D01*
X148897Y154467D01*
X148808Y154508D01*
X148717Y154541D01*
X148621Y154567D01*
X148523Y154585D01*
X148421Y154596D01*
X148315Y154600D01*
Y155400D01*
X148421Y155404D01*
X148523Y155415D01*
X148621Y155433D01*
X148717Y155459D01*
X148808Y155492D01*
X148897Y155533D01*
X148981Y155581D01*
X149062Y155637D01*
X149140Y155700D01*
X149214Y155770D01*
Y154230D01*
D02*
G37*
G36*
X367891Y152933D02*
X367571Y153250D01*
X366972Y153783D01*
X366693Y154000D01*
X366427Y154183D01*
X366175Y154333D01*
X365937Y154450D01*
X365712Y154533D01*
X365500Y154583D01*
X365303Y154600D01*
Y155400D01*
X365500Y155417D01*
X365712Y155467D01*
X365937Y155550D01*
X366175Y155667D01*
X366427Y155817D01*
X366693Y156000D01*
X366972Y156217D01*
X367571Y156750D01*
X367891Y157067D01*
Y152933D01*
D02*
G37*
G36*
X342429Y156750D02*
X343028Y156217D01*
X343307Y156000D01*
X343573Y155817D01*
X343825Y155667D01*
X344063Y155550D01*
X344288Y155467D01*
X344499Y155417D01*
X344697Y155400D01*
Y154600D01*
X344499Y154583D01*
X344288Y154533D01*
X344063Y154450D01*
X343825Y154333D01*
X343573Y154183D01*
X343307Y154000D01*
X343028Y153783D01*
X342429Y153250D01*
X342109Y152933D01*
Y157067D01*
X342429Y156750D01*
D02*
G37*
G36*
X317891Y152933D02*
X317571Y153250D01*
X316972Y153783D01*
X316693Y154000D01*
X316427Y154183D01*
X316175Y154333D01*
X315937Y154450D01*
X315712Y154533D01*
X315500Y154583D01*
X315303Y154600D01*
Y155400D01*
X315500Y155417D01*
X315712Y155467D01*
X315937Y155550D01*
X316175Y155667D01*
X316427Y155817D01*
X316693Y156000D01*
X316972Y156217D01*
X317571Y156750D01*
X317891Y157067D01*
Y152933D01*
D02*
G37*
G36*
X292429Y156750D02*
X293028Y156217D01*
X293307Y156000D01*
X293573Y155817D01*
X293825Y155667D01*
X294063Y155550D01*
X294288Y155467D01*
X294499Y155417D01*
X294697Y155400D01*
Y154600D01*
X294499Y154583D01*
X294288Y154533D01*
X294063Y154450D01*
X293825Y154333D01*
X293573Y154183D01*
X293307Y154000D01*
X293028Y153783D01*
X292429Y153250D01*
X292109Y152933D01*
Y157067D01*
X292429Y156750D01*
D02*
G37*
G36*
X287891Y152933D02*
X287571Y153250D01*
X286972Y153783D01*
X286693Y154000D01*
X286427Y154183D01*
X286175Y154333D01*
X285937Y154450D01*
X285712Y154533D01*
X285501Y154583D01*
X285303Y154600D01*
Y155400D01*
X285501Y155417D01*
X285712Y155467D01*
X285937Y155550D01*
X286175Y155667D01*
X286427Y155817D01*
X286693Y156000D01*
X286972Y156217D01*
X287571Y156750D01*
X287891Y157067D01*
Y152933D01*
D02*
G37*
G36*
X252429Y156750D02*
X253028Y156217D01*
X253307Y156000D01*
X253573Y155817D01*
X253825Y155667D01*
X254063Y155550D01*
X254288Y155467D01*
X254500Y155417D01*
X254697Y155400D01*
Y154600D01*
X254500Y154583D01*
X254288Y154533D01*
X254063Y154450D01*
X253825Y154333D01*
X253573Y154183D01*
X253307Y154000D01*
X253028Y153783D01*
X252429Y153250D01*
X252109Y152933D01*
Y157067D01*
X252429Y156750D01*
D02*
G37*
G36*
X247891Y152933D02*
X247571Y153250D01*
X246972Y153783D01*
X246693Y154000D01*
X246427Y154183D01*
X246175Y154333D01*
X245937Y154450D01*
X245712Y154533D01*
X245500Y154583D01*
X245303Y154600D01*
Y155400D01*
X245500Y155417D01*
X245712Y155467D01*
X245937Y155550D01*
X246175Y155667D01*
X246427Y155817D01*
X246693Y156000D01*
X246972Y156217D01*
X247571Y156750D01*
X247891Y157067D01*
Y152933D01*
D02*
G37*
G36*
X202429Y156750D02*
X203028Y156217D01*
X203307Y156000D01*
X203573Y155817D01*
X203825Y155667D01*
X204063Y155550D01*
X204288Y155467D01*
X204500Y155417D01*
X204697Y155400D01*
Y154600D01*
X204500Y154583D01*
X204288Y154533D01*
X204063Y154450D01*
X203825Y154333D01*
X203573Y154183D01*
X203307Y154000D01*
X203028Y153783D01*
X202429Y153250D01*
X202109Y152933D01*
Y157067D01*
X202429Y156750D01*
D02*
G37*
G36*
X197891Y152933D02*
X197571Y153250D01*
X196972Y153783D01*
X196693Y154000D01*
X196427Y154183D01*
X196175Y154333D01*
X195937Y154450D01*
X195712Y154533D01*
X195501Y154583D01*
X195303Y154600D01*
Y155400D01*
X195501Y155417D01*
X195712Y155467D01*
X195937Y155550D01*
X196175Y155667D01*
X196427Y155817D01*
X196693Y156000D01*
X196972Y156217D01*
X197571Y156750D01*
X197891Y157067D01*
Y152933D01*
D02*
G37*
G36*
X158779Y157084D02*
X159385Y156620D01*
X160090Y156327D01*
X160847Y156228D01*
X165505D01*
X166047Y155520D01*
Y155500D01*
X170000D01*
Y155000D01*
X170500D01*
Y151047D01*
X170520D01*
X171526Y151317D01*
X172427Y151837D01*
X173163Y152573D01*
X174410Y152467D01*
X175116Y152175D01*
X175873Y152075D01*
X194986D01*
X195050Y152037D01*
X195186Y151943D01*
X195342Y151822D01*
X195826Y151391D01*
X196098Y151121D01*
X196302Y150987D01*
X196652Y150637D01*
X197895Y149919D01*
X199282Y149547D01*
X200718D01*
X202105Y149919D01*
X203348Y150637D01*
X203698Y150987D01*
X203902Y151121D01*
X204174Y151391D01*
X204659Y151822D01*
X204814Y151943D01*
X204950Y152037D01*
X205014Y152075D01*
X212915D01*
X216212Y148779D01*
X216817Y148314D01*
X217523Y148022D01*
X218280Y147922D01*
X221720D01*
X222477Y148022D01*
X223183Y148314D01*
X223788Y148779D01*
X227084Y152075D01*
X244986D01*
X245050Y152037D01*
X245186Y151943D01*
X245341Y151822D01*
X245826Y151391D01*
X246098Y151121D01*
X246302Y150987D01*
X246652Y150637D01*
X247895Y149919D01*
X249282Y149547D01*
X250718D01*
X252105Y149919D01*
X253348Y150637D01*
X253698Y150987D01*
X253902Y151121D01*
X254174Y151391D01*
X254659Y151822D01*
X254814Y151943D01*
X254950Y152037D01*
X255014Y152075D01*
X284986D01*
X285050Y152037D01*
X285186Y151943D01*
X285342Y151822D01*
X285565Y151623D01*
X285844Y151043D01*
X285949Y149052D01*
X285637Y148348D01*
X284919Y147105D01*
X284547Y145718D01*
Y144282D01*
X284621Y144005D01*
X282380Y142711D01*
X282210Y142881D01*
X281390Y143355D01*
X280474Y143600D01*
X279526D01*
X278610Y143355D01*
X277866Y142925D01*
X163240D01*
X161100Y144526D01*
Y145474D01*
X160855Y146390D01*
X160381Y147210D01*
X159710Y147881D01*
X158890Y148355D01*
X157974Y148600D01*
X157026D01*
X156110Y148355D01*
X155366Y147925D01*
X126494D01*
X125453Y149282D01*
Y150718D01*
X126494Y152075D01*
X147866D01*
X148610Y151645D01*
X149526Y151400D01*
X150474D01*
X151390Y151645D01*
X152210Y152119D01*
X152881Y152790D01*
X153355Y153610D01*
X153600Y154526D01*
Y155474D01*
X153355Y156390D01*
X152881Y157210D01*
X152210Y157881D01*
X151390Y158355D01*
X150474Y158600D01*
X149526D01*
X148610Y158355D01*
X147866Y157925D01*
X126494D01*
X125453Y159282D01*
Y160718D01*
X126494Y162075D01*
X153788D01*
X158779Y157084D01*
D02*
G37*
G36*
X429971Y152047D02*
X429520Y152045D01*
X428719Y151999D01*
X428369Y151954D01*
X428051Y151896D01*
X427767Y151824D01*
X427516Y151738D01*
X427298Y151638D01*
X427113Y151524D01*
X426961Y151396D01*
X426396Y151961D01*
X426524Y152113D01*
X426638Y152298D01*
X426738Y152516D01*
X426824Y152767D01*
X426896Y153051D01*
X426954Y153369D01*
X426999Y153719D01*
X427045Y154520D01*
X427047Y154971D01*
X429971Y152047D01*
D02*
G37*
G36*
X339970D02*
X339520Y152045D01*
X338719Y151999D01*
X338369Y151954D01*
X338051Y151896D01*
X337767Y151824D01*
X337516Y151738D01*
X337298Y151638D01*
X337113Y151524D01*
X336961Y151396D01*
X336396Y151961D01*
X336524Y152113D01*
X336638Y152298D01*
X336738Y152516D01*
X336824Y152767D01*
X336896Y153051D01*
X336954Y153369D01*
X336999Y153719D01*
X337045Y154520D01*
X337047Y154971D01*
X339970Y152047D01*
D02*
G37*
G36*
X112955Y149520D02*
X113001Y148719D01*
X113046Y148369D01*
X113104Y148051D01*
X113176Y147767D01*
X113262Y147516D01*
X113362Y147298D01*
X113476Y147113D01*
X113604Y146961D01*
X113039Y146396D01*
X112887Y146524D01*
X112702Y146638D01*
X112484Y146738D01*
X112233Y146824D01*
X111949Y146896D01*
X111631Y146954D01*
X111281Y146999D01*
X110480Y147045D01*
X110029Y147047D01*
X112953Y149970D01*
X112955Y149520D01*
D02*
G37*
G36*
X378360Y145700D02*
X378438Y145637D01*
X378519Y145581D01*
X378604Y145533D01*
X378692Y145492D01*
X378783Y145459D01*
X378878Y145433D01*
X378977Y145415D01*
X379079Y145404D01*
X379185Y145400D01*
Y144600D01*
X379079Y144596D01*
X378977Y144585D01*
X378878Y144567D01*
X378783Y144541D01*
X378692Y144508D01*
X378604Y144467D01*
X378519Y144419D01*
X378438Y144363D01*
X378360Y144300D01*
X378286Y144230D01*
Y145770D01*
X378360Y145700D01*
D02*
G37*
G36*
X156714Y144230D02*
X156640Y144300D01*
X156562Y144363D01*
X156481Y144419D01*
X156396Y144467D01*
X156308Y144508D01*
X156217Y144541D01*
X156122Y144567D01*
X156023Y144585D01*
X155921Y144596D01*
X155815Y144600D01*
Y145400D01*
X155921Y145404D01*
X156023Y145415D01*
X156122Y145433D01*
X156217Y145459D01*
X156308Y145492D01*
X156396Y145533D01*
X156481Y145581D01*
X156562Y145637D01*
X156640Y145700D01*
X156714Y145770D01*
Y144230D01*
D02*
G37*
G36*
X397891Y142933D02*
X397571Y143250D01*
X396972Y143783D01*
X396693Y144000D01*
X396427Y144183D01*
X396175Y144333D01*
X395937Y144450D01*
X395712Y144533D01*
X395500Y144583D01*
X395303Y144600D01*
Y145400D01*
X395500Y145417D01*
X395712Y145467D01*
X395937Y145550D01*
X396175Y145667D01*
X396427Y145817D01*
X396693Y146000D01*
X396972Y146217D01*
X397571Y146750D01*
X397891Y147067D01*
Y142933D01*
D02*
G37*
G36*
X337891D02*
X337571Y143250D01*
X336972Y143783D01*
X336693Y144000D01*
X336427Y144183D01*
X336175Y144333D01*
X335937Y144450D01*
X335712Y144533D01*
X335501Y144583D01*
X335303Y144600D01*
Y145400D01*
X335501Y145417D01*
X335712Y145467D01*
X335937Y145550D01*
X336175Y145667D01*
X336427Y145817D01*
X336693Y146000D01*
X336972Y146217D01*
X337571Y146750D01*
X337891Y147067D01*
Y142933D01*
D02*
G37*
G36*
X292429Y146750D02*
X293028Y146217D01*
X293307Y146000D01*
X293573Y145817D01*
X293825Y145667D01*
X294063Y145550D01*
X294288Y145467D01*
X294499Y145417D01*
X294697Y145400D01*
Y144600D01*
X294499Y144583D01*
X294288Y144533D01*
X294063Y144450D01*
X293825Y144333D01*
X293573Y144183D01*
X293307Y144000D01*
X293028Y143783D01*
X292429Y143250D01*
X292109Y142933D01*
Y147067D01*
X292429Y146750D01*
D02*
G37*
G36*
X279214Y139230D02*
X279140Y139300D01*
X279062Y139363D01*
X278981Y139419D01*
X278896Y139467D01*
X278808Y139507D01*
X278717Y139541D01*
X278622Y139567D01*
X278523Y139585D01*
X278421Y139596D01*
X278315Y139600D01*
Y140400D01*
X278421Y140404D01*
X278523Y140415D01*
X278622Y140433D01*
X278717Y140459D01*
X278808Y140492D01*
X278896Y140533D01*
X278981Y140581D01*
X279062Y140637D01*
X279140Y140700D01*
X279214Y140770D01*
Y139230D01*
D02*
G37*
G36*
X112955Y139520D02*
X113001Y138719D01*
X113046Y138369D01*
X113104Y138051D01*
X113176Y137767D01*
X113262Y137516D01*
X113362Y137298D01*
X113476Y137113D01*
X113604Y136961D01*
X113039Y136396D01*
X112887Y136524D01*
X112702Y136638D01*
X112484Y136738D01*
X112233Y136824D01*
X111949Y136896D01*
X111631Y136954D01*
X111281Y136999D01*
X110480Y137045D01*
X110029Y137047D01*
X112953Y139971D01*
X112955Y139520D01*
D02*
G37*
G36*
X263714Y135230D02*
X263640Y135300D01*
X263562Y135363D01*
X263481Y135419D01*
X263397Y135467D01*
X263308Y135508D01*
X263217Y135541D01*
X263122Y135567D01*
X263023Y135585D01*
X262921Y135596D01*
X262815Y135600D01*
Y136400D01*
X262921Y136404D01*
X263023Y136415D01*
X263122Y136433D01*
X263217Y136459D01*
X263308Y136493D01*
X263397Y136533D01*
X263481Y136581D01*
X263562Y136637D01*
X263640Y136700D01*
X263714Y136770D01*
Y135230D01*
D02*
G37*
G36*
X432429Y136750D02*
X433028Y136217D01*
X433307Y136000D01*
X433573Y135817D01*
X433825Y135667D01*
X434063Y135550D01*
X434288Y135467D01*
X434500Y135417D01*
X434697Y135400D01*
Y134600D01*
X434500Y134583D01*
X434288Y134533D01*
X434063Y134450D01*
X433825Y134333D01*
X433573Y134183D01*
X433307Y134000D01*
X433028Y133783D01*
X432429Y133250D01*
X432109Y132933D01*
Y137067D01*
X432429Y136750D01*
D02*
G37*
G36*
X267587Y132886D02*
X267529Y132964D01*
X267465Y133035D01*
X267396Y133097D01*
X267321Y133151D01*
X267241Y133196D01*
X267155Y133234D01*
X267064Y133263D01*
X266968Y133283D01*
X266866Y133296D01*
X266758Y133300D01*
X266918Y134100D01*
X267022Y134103D01*
X267123Y134112D01*
X267223Y134127D01*
X267321Y134148D01*
X267417Y134175D01*
X267511Y134208D01*
X267603Y134247D01*
X267693Y134292D01*
X267781Y134343D01*
X267867Y134400D01*
X267587Y132886D01*
D02*
G37*
G36*
X143160Y133700D02*
X143238Y133637D01*
X143319Y133581D01*
X143403Y133533D01*
X143492Y133493D01*
X143583Y133459D01*
X143678Y133433D01*
X143777Y133415D01*
X143879Y133404D01*
X143985Y133400D01*
Y132600D01*
X143879Y132596D01*
X143777Y132585D01*
X143678Y132567D01*
X143583Y132541D01*
X143492Y132508D01*
X143403Y132467D01*
X143319Y132419D01*
X143238Y132363D01*
X143160Y132300D01*
X143086Y132230D01*
Y133770D01*
X143160Y133700D01*
D02*
G37*
G36*
X452048Y132106D02*
X451571Y132580D01*
X450292Y133702D01*
X449915Y133977D01*
X449563Y134201D01*
X449236Y134376D01*
X448934Y134500D01*
X448657Y134575D01*
X448405Y134600D01*
Y135400D01*
X448657Y135425D01*
X448934Y135500D01*
X449236Y135624D01*
X449563Y135799D01*
X449915Y136023D01*
X450292Y136298D01*
X451120Y136996D01*
X451571Y137420D01*
X452048Y137894D01*
Y132106D01*
D02*
G37*
G36*
X357584Y138779D02*
X358190Y138314D01*
X358896Y138022D01*
X359653Y137922D01*
X362635D01*
X364547Y135718D01*
Y134282D01*
X364919Y132895D01*
X365075Y132625D01*
X363876Y130212D01*
X363769Y130125D01*
X344251D01*
X343163Y132573D01*
X343683Y133474D01*
X343953Y134480D01*
Y134500D01*
X340000D01*
Y135500D01*
X343953D01*
Y135520D01*
X343683Y136526D01*
X343163Y137427D01*
X342941Y137649D01*
X342899Y137763D01*
X342967Y139756D01*
X343245Y140577D01*
X343348Y140637D01*
X344363Y141652D01*
X345081Y142895D01*
X345453Y144282D01*
Y145718D01*
X345081Y147105D01*
X344994Y147256D01*
X345723Y148702D01*
X347192Y149171D01*
X357584Y138779D01*
D02*
G37*
G36*
X316140Y138851D02*
X315637Y138348D01*
X314919Y137105D01*
X314547Y135718D01*
Y134282D01*
X314919Y132895D01*
X315075Y132625D01*
X313876Y130212D01*
X313769Y130125D01*
X294251D01*
X293163Y132573D01*
X293683Y133474D01*
X293953Y134480D01*
Y134500D01*
X290000D01*
Y135500D01*
X293953D01*
Y135520D01*
X293683Y136526D01*
X293163Y137427D01*
X292941Y137649D01*
X292899Y137763D01*
X292967Y139756D01*
X293245Y140577D01*
X293348Y140637D01*
X293698Y140987D01*
X293902Y141121D01*
X294174Y141391D01*
X294658Y141822D01*
X294814Y141943D01*
X294950Y142037D01*
X295014Y142075D01*
X312915D01*
X316140Y138851D01*
D02*
G37*
G36*
X341006Y132891D02*
X342067D01*
X341864Y132679D01*
X341683Y132459D01*
X341523Y132232D01*
X341384Y131999D01*
X341282Y131790D01*
X341320Y131720D01*
X341500Y131500D01*
X341720Y131320D01*
X341980Y131180D01*
X342280Y131080D01*
X342620Y131020D01*
X343000Y131000D01*
X340000Y129000D01*
X337000Y131000D01*
X337380Y131020D01*
X337720Y131080D01*
X338020Y131180D01*
X338280Y131320D01*
X338500Y131500D01*
X338680Y131720D01*
X338718Y131790D01*
X338616Y131999D01*
X338477Y132232D01*
X338317Y132459D01*
X338136Y132679D01*
X337933Y132891D01*
X338994D01*
X339000Y133000D01*
X341000D01*
X341006Y132891D01*
D02*
G37*
G36*
X291006D02*
X292067D01*
X291864Y132679D01*
X291683Y132459D01*
X291523Y132232D01*
X291384Y131999D01*
X291282Y131790D01*
X291320Y131720D01*
X291500Y131500D01*
X291720Y131320D01*
X291980Y131180D01*
X292280Y131080D01*
X292620Y131020D01*
X293000Y131000D01*
X290000Y129000D01*
X287000Y131000D01*
X287380Y131020D01*
X287720Y131080D01*
X288020Y131180D01*
X288280Y131320D01*
X288500Y131500D01*
X288680Y131720D01*
X288718Y131790D01*
X288616Y131999D01*
X288477Y132232D01*
X288317Y132459D01*
X288136Y132679D01*
X287933Y132891D01*
X288994D01*
X289000Y133000D01*
X291000D01*
X291006Y132891D01*
D02*
G37*
G36*
X241090Y131041D02*
X241125Y131032D01*
X241177Y131025D01*
X241332Y131012D01*
X241847Y131000D01*
X242018Y131000D01*
Y129000D01*
X241071Y128950D01*
Y131050D01*
X241090Y131041D01*
D02*
G37*
G36*
X238929Y128950D02*
X238911Y128960D01*
X238875Y128968D01*
X238823Y128975D01*
X238668Y128988D01*
X238153Y128999D01*
X237982Y129000D01*
Y131000D01*
X238929Y131050D01*
Y128950D01*
D02*
G37*
G36*
X221090Y131041D02*
X221125Y131032D01*
X221177Y131025D01*
X221332Y131012D01*
X221847Y131000D01*
X222018Y131000D01*
Y129000D01*
X221071Y128950D01*
Y131050D01*
X221090Y131041D01*
D02*
G37*
G36*
X218929Y128950D02*
X218911Y128960D01*
X218875Y128968D01*
X218823Y128975D01*
X218668Y128988D01*
X218153Y128999D01*
X217982Y129000D01*
Y131000D01*
X218929Y131050D01*
Y128950D01*
D02*
G37*
G36*
X171089Y131041D02*
X171125Y131032D01*
X171177Y131025D01*
X171332Y131012D01*
X171847Y131000D01*
X172018Y131000D01*
Y129000D01*
X171071Y128950D01*
Y131050D01*
X171089Y131041D01*
D02*
G37*
G36*
X168929Y128950D02*
X168911Y128960D01*
X168875Y128968D01*
X168823Y128975D01*
X168668Y128988D01*
X168153Y128999D01*
X167982Y129000D01*
Y131000D01*
X168929Y131050D01*
Y128950D01*
D02*
G37*
G36*
X122321Y131864D02*
X122541Y131683D01*
X122768Y131523D01*
X123001Y131384D01*
X123242Y131267D01*
X123489Y131171D01*
X123744Y131096D01*
X124006Y131043D01*
X124274Y131011D01*
X124550Y131000D01*
Y129000D01*
X124274Y128989D01*
X124006Y128957D01*
X123744Y128904D01*
X123489Y128829D01*
X123242Y128733D01*
X123001Y128616D01*
X122768Y128477D01*
X122541Y128317D01*
X122321Y128136D01*
X122109Y127933D01*
Y132067D01*
X122321Y131864D01*
D02*
G37*
G36*
X117891Y127933D02*
X117679Y128136D01*
X117459Y128317D01*
X117232Y128477D01*
X116999Y128616D01*
X116758Y128733D01*
X116510Y128829D01*
X116256Y128904D01*
X115994Y128957D01*
X115726Y128989D01*
X115450Y129000D01*
Y131000D01*
X115726Y131011D01*
X115994Y131043D01*
X116256Y131096D01*
X116510Y131171D01*
X116758Y131267D01*
X116999Y131384D01*
X117232Y131523D01*
X117459Y131683D01*
X117679Y131864D01*
X117891Y132067D01*
Y127933D01*
D02*
G37*
G36*
X112321Y131864D02*
X112541Y131683D01*
X112768Y131523D01*
X113001Y131384D01*
X113242Y131267D01*
X113489Y131171D01*
X113744Y131096D01*
X114006Y131043D01*
X114274Y131011D01*
X114550Y131000D01*
Y129000D01*
X114274Y128989D01*
X114006Y128957D01*
X113744Y128904D01*
X113489Y128829D01*
X113242Y128733D01*
X113001Y128616D01*
X112768Y128477D01*
X112541Y128317D01*
X112321Y128136D01*
X112109Y127933D01*
Y132067D01*
X112321Y131864D01*
D02*
G37*
G36*
X388088Y126386D02*
X388029Y126464D01*
X387965Y126535D01*
X387896Y126597D01*
X387821Y126651D01*
X387741Y126696D01*
X387655Y126734D01*
X387564Y126763D01*
X387468Y126783D01*
X387366Y126796D01*
X387258Y126800D01*
X387418Y127600D01*
X387522Y127603D01*
X387623Y127612D01*
X387723Y127627D01*
X387821Y127648D01*
X387917Y127675D01*
X388011Y127708D01*
X388103Y127747D01*
X388193Y127792D01*
X388281Y127843D01*
X388368Y127900D01*
X388088Y126386D01*
D02*
G37*
G36*
X139719Y127843D02*
X139807Y127792D01*
X139897Y127747D01*
X139989Y127708D01*
X140083Y127675D01*
X140179Y127648D01*
X140277Y127627D01*
X140377Y127612D01*
X140478Y127603D01*
X140582Y127600D01*
X140742Y126800D01*
X140634Y126796D01*
X140532Y126783D01*
X140436Y126763D01*
X140345Y126734D01*
X140259Y126696D01*
X140179Y126651D01*
X140104Y126597D01*
X140035Y126535D01*
X139971Y126464D01*
X139912Y126386D01*
X139632Y127900D01*
X139719Y127843D01*
D02*
G37*
G36*
X137096Y126158D02*
X137128Y126061D01*
X137164Y125968D01*
X137206Y125876D01*
X137252Y125788D01*
X137303Y125703D01*
X137359Y125620D01*
X137420Y125540D01*
X137486Y125462D01*
X137557Y125388D01*
X137145Y124668D01*
X137066Y124741D01*
X136985Y124804D01*
X136903Y124857D01*
X136818Y124899D01*
X136732Y124931D01*
X136645Y124953D01*
X136556Y124964D01*
X136465Y124965D01*
X136373Y124955D01*
X136278Y124936D01*
X137069Y126257D01*
X137096Y126158D01*
D02*
G37*
G36*
X390714Y123730D02*
X390640Y123800D01*
X390562Y123863D01*
X390481Y123919D01*
X390396Y123967D01*
X390308Y124007D01*
X390217Y124041D01*
X390122Y124067D01*
X390023Y124085D01*
X389921Y124096D01*
X389815Y124100D01*
Y124900D01*
X389921Y124904D01*
X390023Y124915D01*
X390122Y124933D01*
X390217Y124959D01*
X390308Y124993D01*
X390396Y125033D01*
X390481Y125081D01*
X390562Y125137D01*
X390640Y125200D01*
X390714Y125270D01*
Y123730D01*
D02*
G37*
G36*
X134024Y124027D02*
X134098Y123961D01*
X134176Y123904D01*
X134259Y123854D01*
X134345Y123812D01*
X134435Y123777D01*
X134529Y123750D01*
X134627Y123731D01*
X134729Y123719D01*
X134836Y123716D01*
X134794Y122916D01*
X134689Y122912D01*
X134587Y122901D01*
X134488Y122884D01*
X134392Y122859D01*
X134299Y122827D01*
X134209Y122788D01*
X134122Y122742D01*
X134038Y122689D01*
X133957Y122629D01*
X133879Y122562D01*
X133953Y124100D01*
X134024Y124027D01*
D02*
G37*
G36*
X414114Y121230D02*
X414040Y121300D01*
X413962Y121363D01*
X413881Y121419D01*
X413797Y121467D01*
X413708Y121508D01*
X413617Y121541D01*
X413521Y121567D01*
X413423Y121585D01*
X413321Y121596D01*
X413215Y121600D01*
Y122400D01*
X413321Y122404D01*
X413423Y122415D01*
X413521Y122433D01*
X413617Y122459D01*
X413708Y122493D01*
X413797Y122533D01*
X413881Y122581D01*
X413962Y122637D01*
X414040Y122700D01*
X414114Y122770D01*
Y121230D01*
D02*
G37*
G36*
X269360Y122100D02*
X269438Y122037D01*
X269519Y121981D01*
X269603Y121933D01*
X269692Y121892D01*
X269783Y121859D01*
X269879Y121833D01*
X269977Y121815D01*
X270079Y121804D01*
X270185Y121800D01*
Y121000D01*
X270079Y120996D01*
X269977Y120985D01*
X269879Y120967D01*
X269783Y120941D01*
X269692Y120907D01*
X269603Y120867D01*
X269519Y120819D01*
X269438Y120763D01*
X269360Y120700D01*
X269286Y120630D01*
Y122170D01*
X269360Y122100D01*
D02*
G37*
G36*
X383375Y121625D02*
X383485Y121534D01*
X383536Y121500D01*
X383584Y121474D01*
X383629Y121456D01*
X383671Y121446D01*
X383710Y121444D01*
X383746Y121449D01*
X383779Y121463D01*
X383211Y120514D01*
X383206Y120545D01*
X383193Y120583D01*
X383170Y120627D01*
X383138Y120677D01*
X383097Y120733D01*
X382987Y120866D01*
X382841Y121024D01*
X382754Y121113D01*
X383315Y121683D01*
X383375Y121625D01*
D02*
G37*
G36*
X258929Y118950D02*
X258910Y118959D01*
X258875Y118968D01*
X258823Y118975D01*
X258668Y118988D01*
X258153Y119000D01*
X257982Y119000D01*
Y121000D01*
X258929Y121050D01*
Y118950D01*
D02*
G37*
G36*
X410814Y118230D02*
X410740Y118300D01*
X410662Y118363D01*
X410581Y118419D01*
X410497Y118467D01*
X410408Y118508D01*
X410317Y118541D01*
X410221Y118567D01*
X410123Y118585D01*
X410021Y118596D01*
X409915Y118600D01*
Y119400D01*
X410021Y119404D01*
X410123Y119415D01*
X410221Y119433D01*
X410317Y119459D01*
X410408Y119492D01*
X410497Y119533D01*
X410581Y119581D01*
X410662Y119637D01*
X410740Y119700D01*
X410814Y119770D01*
Y118230D01*
D02*
G37*
G36*
X380814D02*
X380740Y118300D01*
X380662Y118363D01*
X380581Y118419D01*
X380497Y118467D01*
X380408Y118508D01*
X380317Y118541D01*
X380222Y118567D01*
X380123Y118585D01*
X380021Y118596D01*
X379915Y118600D01*
Y119400D01*
X380021Y119404D01*
X380123Y119415D01*
X380222Y119433D01*
X380317Y119459D01*
X380408Y119492D01*
X380497Y119533D01*
X380581Y119581D01*
X380662Y119637D01*
X380740Y119700D01*
X380814Y119770D01*
Y118230D01*
D02*
G37*
G36*
X266360Y119700D02*
X266438Y119637D01*
X266519Y119581D01*
X266603Y119533D01*
X266692Y119492D01*
X266783Y119459D01*
X266879Y119433D01*
X266977Y119415D01*
X267079Y119404D01*
X267185Y119400D01*
Y118600D01*
X267079Y118596D01*
X266977Y118585D01*
X266879Y118567D01*
X266783Y118541D01*
X266692Y118508D01*
X266603Y118467D01*
X266519Y118419D01*
X266438Y118363D01*
X266360Y118300D01*
X266286Y118230D01*
Y119770D01*
X266360Y119700D01*
D02*
G37*
G36*
X112949Y121810D02*
X113009Y121640D01*
X113110Y121490D01*
X113251Y121360D01*
X113432Y121250D01*
X113653Y121160D01*
X113915Y121090D01*
X114216Y121040D01*
X114558Y121010D01*
X114941Y121000D01*
Y119000D01*
X114558Y118990D01*
X114216Y118960D01*
X113915Y118910D01*
X113653Y118840D01*
X113432Y118750D01*
X113251Y118640D01*
X113110Y118510D01*
X113009Y118360D01*
X112949Y118190D01*
X112929Y118000D01*
Y122000D01*
X112949Y121810D01*
D02*
G37*
G36*
X122321Y121864D02*
X122541Y121683D01*
X122768Y121523D01*
X123001Y121384D01*
X123242Y121267D01*
X123489Y121171D01*
X123744Y121096D01*
X124006Y121043D01*
X124274Y121011D01*
X124550Y121000D01*
Y119000D01*
X124274Y118989D01*
X124006Y118957D01*
X123744Y118904D01*
X123489Y118829D01*
X123242Y118733D01*
X123001Y118616D01*
X122768Y118477D01*
X122541Y118317D01*
X122321Y118136D01*
X122109Y117933D01*
Y122067D01*
X122321Y121864D01*
D02*
G37*
G36*
X117891Y117933D02*
X117679Y118136D01*
X117459Y118317D01*
X117232Y118477D01*
X116999Y118616D01*
X116758Y118733D01*
X116510Y118829D01*
X116256Y118904D01*
X115994Y118957D01*
X115726Y118989D01*
X115450Y119000D01*
Y121000D01*
X115726Y121011D01*
X115994Y121043D01*
X116256Y121096D01*
X116510Y121171D01*
X116758Y121267D01*
X116999Y121384D01*
X117232Y121523D01*
X117459Y121683D01*
X117679Y121864D01*
X117891Y122067D01*
Y117933D01*
D02*
G37*
G36*
X407514Y115730D02*
X407440Y115800D01*
X407362Y115863D01*
X407281Y115919D01*
X407197Y115967D01*
X407108Y116007D01*
X407017Y116041D01*
X406921Y116067D01*
X406823Y116085D01*
X406721Y116096D01*
X406615Y116100D01*
Y116900D01*
X406721Y116904D01*
X406823Y116915D01*
X406921Y116933D01*
X407017Y116959D01*
X407108Y116992D01*
X407197Y117033D01*
X407281Y117081D01*
X407362Y117137D01*
X407440Y117200D01*
X407514Y117270D01*
Y115730D01*
D02*
G37*
G36*
X133419Y116920D02*
X133490Y116853D01*
X133566Y116794D01*
X133646Y116742D01*
X133730Y116699D01*
X133819Y116663D01*
X133912Y116636D01*
X134010Y116616D01*
X134112Y116604D01*
X134218Y116600D01*
X134140Y115800D01*
X134035Y115797D01*
X133933Y115787D01*
X133834Y115770D01*
X133737Y115746D01*
X133643Y115715D01*
X133552Y115678D01*
X133463Y115634D01*
X133377Y115584D01*
X133293Y115526D01*
X133212Y115462D01*
X133352Y116995D01*
X133419Y116920D01*
D02*
G37*
G36*
X130606Y115566D02*
X130631Y115467D01*
X130661Y115371D01*
X130697Y115278D01*
X130739Y115188D01*
X130788Y115101D01*
X130841Y115016D01*
X130901Y114935D01*
X130966Y114857D01*
X131037Y114781D01*
X130572Y114115D01*
X130493Y114188D01*
X130413Y114251D01*
X130330Y114305D01*
X130245Y114349D01*
X130157Y114384D01*
X130068Y114410D01*
X129977Y114426D01*
X129883Y114432D01*
X129787Y114429D01*
X129690Y114417D01*
X130587Y115668D01*
X130606Y115566D01*
D02*
G37*
G36*
X404214Y112730D02*
X404140Y112800D01*
X404062Y112863D01*
X403981Y112919D01*
X403897Y112967D01*
X403808Y113007D01*
X403717Y113041D01*
X403621Y113067D01*
X403523Y113085D01*
X403421Y113096D01*
X403315Y113100D01*
Y113900D01*
X403421Y113904D01*
X403523Y113915D01*
X403621Y113933D01*
X403717Y113959D01*
X403808Y113993D01*
X403897Y114033D01*
X403981Y114081D01*
X404062Y114137D01*
X404140Y114200D01*
X404214Y114270D01*
Y112730D01*
D02*
G37*
G36*
X126360Y112700D02*
X126438Y112637D01*
X126519Y112581D01*
X126603Y112533D01*
X126692Y112493D01*
X126783Y112459D01*
X126878Y112433D01*
X126977Y112415D01*
X127079Y112404D01*
X127185Y112400D01*
Y111600D01*
X127079Y111596D01*
X126977Y111585D01*
X126878Y111567D01*
X126783Y111541D01*
X126692Y111507D01*
X126603Y111467D01*
X126519Y111419D01*
X126438Y111363D01*
X126360Y111300D01*
X126286Y111230D01*
Y112770D01*
X126360Y112700D01*
D02*
G37*
%LPC*%
G36*
X239657Y353449D02*
X238822Y353225D01*
X238638Y353119D01*
X238707Y353061D01*
X238891Y352926D01*
X239076Y352808D01*
X239265Y352708D01*
X239456Y352624D01*
X239649Y352557D01*
X239657Y352555D01*
Y353449D01*
D02*
G37*
G36*
X240657D02*
Y352469D01*
X240692Y352472D01*
X240888Y352509D01*
X241082Y352564D01*
X241273Y352639D01*
X241462Y352732D01*
X241649Y352844D01*
X241833Y352975D01*
X241871Y353007D01*
X241493Y353225D01*
X240657Y353449D01*
D02*
G37*
G36*
X239657Y351923D02*
X238099Y350500D01*
X239657D01*
Y351923D01*
D02*
G37*
G36*
X237151Y351714D02*
X236933Y351336D01*
X236709Y350500D01*
X237688D01*
X237685Y350535D01*
X237649Y350731D01*
X237593Y350924D01*
X237519Y351116D01*
X237426Y351305D01*
X237313Y351491D01*
X237182Y351676D01*
X237151Y351714D01*
D02*
G37*
G36*
X190657Y353449D02*
Y352469D01*
X190692Y352472D01*
X190888Y352509D01*
X191082Y352564D01*
X191273Y352639D01*
X191462Y352732D01*
X191649Y352844D01*
X191833Y352975D01*
X191871Y353007D01*
X191493Y353225D01*
X190657Y353449D01*
D02*
G37*
G36*
X189657D02*
X188822Y353225D01*
X188033Y352769D01*
X187388Y352125D01*
X186933Y351336D01*
X186709Y350500D01*
X189657D01*
Y353449D01*
D02*
G37*
G36*
Y349500D02*
X186709D01*
X186933Y348664D01*
X187388Y347875D01*
X188033Y347231D01*
X188822Y346775D01*
X189657Y346551D01*
Y349500D01*
D02*
G37*
G36*
X173953Y274500D02*
X170500D01*
Y271047D01*
X170520D01*
X171526Y271317D01*
X172427Y271837D01*
X173163Y272573D01*
X173683Y273474D01*
X173953Y274480D01*
Y274500D01*
D02*
G37*
G36*
X169500D02*
X166047D01*
Y274480D01*
X166317Y273474D01*
X166837Y272573D01*
X167573Y271837D01*
X168474Y271317D01*
X169480Y271047D01*
X169500D01*
Y274500D01*
D02*
G37*
G36*
X190657Y263449D02*
Y262509D01*
X190778Y262536D01*
X190972Y262597D01*
X191163Y262675D01*
X191352Y262773D01*
X191539Y262888D01*
X191723Y263021D01*
X191774Y263063D01*
X191493Y263225D01*
X190657Y263449D01*
D02*
G37*
G36*
X189657D02*
X188822Y263225D01*
X188444Y263006D01*
X188481Y262975D01*
X188666Y262844D01*
X188853Y262732D01*
X189042Y262638D01*
X189233Y262564D01*
X189427Y262509D01*
X189623Y262473D01*
X189657Y262470D01*
Y263449D01*
D02*
G37*
G36*
Y262058D02*
X188234Y260500D01*
X189657D01*
Y262058D01*
D02*
G37*
G36*
X187039Y261519D02*
X186933Y261336D01*
X186709Y260500D01*
X187602D01*
X187600Y260508D01*
X187534Y260701D01*
X187450Y260892D01*
X187349Y261081D01*
X187231Y261267D01*
X187096Y261451D01*
X187039Y261519D01*
D02*
G37*
G36*
X189657Y259500D02*
X186709D01*
X186933Y258664D01*
X187388Y257875D01*
X188033Y257231D01*
X188822Y256775D01*
X189657Y256551D01*
Y259500D01*
D02*
G37*
G36*
X289500Y353449D02*
X288664Y353225D01*
X288384Y353063D01*
X288434Y353021D01*
X288619Y352888D01*
X288805Y352773D01*
X288994Y352676D01*
X289186Y352596D01*
X289379Y352536D01*
X289500Y352509D01*
Y353449D01*
D02*
G37*
G36*
X290500D02*
Y350500D01*
X291757D01*
Y351722D01*
X291904Y351585D01*
X292062Y351462D01*
X292232Y351354D01*
X292412Y351260D01*
X292603Y351181D01*
X292805Y351116D01*
X293019Y351065D01*
X293243Y351029D01*
X293309Y351023D01*
X293225Y351336D01*
X292769Y352125D01*
X292125Y352769D01*
X291336Y353225D01*
X290500Y353449D01*
D02*
G37*
G36*
X289500Y351985D02*
X288015Y350500D01*
X289500D01*
Y351985D01*
D02*
G37*
G36*
X286937Y351616D02*
X286775Y351336D01*
X286551Y350500D01*
X287491D01*
X287464Y350621D01*
X287403Y350815D01*
X287325Y351006D01*
X287227Y351195D01*
X287112Y351381D01*
X286979Y351566D01*
X286937Y351616D01*
D02*
G37*
G36*
X595783Y352950D02*
X594217D01*
X592681Y352644D01*
X591234Y352045D01*
X589932Y351175D01*
X588825Y350068D01*
X587955Y348766D01*
X587356Y347319D01*
X587050Y345783D01*
Y344217D01*
X587356Y342681D01*
X587955Y341234D01*
X588825Y339932D01*
X589932Y338825D01*
X591234Y337955D01*
X592681Y337355D01*
X594217Y337050D01*
X595783D01*
X597319Y337355D01*
X598766Y337955D01*
X600068Y338825D01*
X601175Y339932D01*
X602045Y341234D01*
X602644Y342681D01*
X602950Y344217D01*
Y345783D01*
X602644Y347319D01*
X602045Y348766D01*
X601175Y350068D01*
X600068Y351175D01*
X598766Y352045D01*
X597319Y352644D01*
X595783Y352950D01*
D02*
G37*
G36*
X400676Y340134D02*
X400500D01*
Y335500D01*
X405134D01*
Y335676D01*
X404784Y336982D01*
X404108Y338152D01*
X403152Y339108D01*
X401982Y339784D01*
X400676Y340134D01*
D02*
G37*
G36*
X399500D02*
X399324D01*
X398018Y339784D01*
X396848Y339108D01*
X395892Y338152D01*
X395216Y336982D01*
X394866Y335676D01*
Y335500D01*
X399500D01*
Y340134D01*
D02*
G37*
G36*
X405134Y334500D02*
X400500D01*
Y329866D01*
X400676D01*
X401982Y330216D01*
X403152Y330892D01*
X404108Y331848D01*
X404784Y333018D01*
X405134Y334324D01*
Y334500D01*
D02*
G37*
G36*
X399500D02*
X394866D01*
Y334324D01*
X395216Y333018D01*
X395892Y331848D01*
X396848Y330892D01*
X398018Y330216D01*
X399324Y329866D01*
X399500D01*
Y334500D01*
D02*
G37*
G36*
X340653Y341634D02*
X339347D01*
X338065Y341379D01*
X336858Y340879D01*
X335771Y340153D01*
X334847Y339229D01*
X334121Y338142D01*
X333621Y336935D01*
X333366Y335653D01*
Y334347D01*
X333621Y333065D01*
X334121Y331858D01*
X334847Y330771D01*
X335771Y329847D01*
X336858Y329121D01*
X338065Y328621D01*
X339347Y328366D01*
X340653D01*
X341935Y328621D01*
X343142Y329121D01*
X344229Y329847D01*
X345153Y330771D01*
X345879Y331858D01*
X346379Y333065D01*
X346634Y334347D01*
Y335653D01*
X346379Y336935D01*
X345879Y338142D01*
X345153Y339229D01*
X344229Y340153D01*
X343142Y340879D01*
X341935Y341379D01*
X340653Y341634D01*
D02*
G37*
G36*
X419658Y323449D02*
X418822Y323225D01*
X418541Y323063D01*
X418592Y323021D01*
X418776Y322888D01*
X418963Y322773D01*
X419152Y322675D01*
X419343Y322597D01*
X419537Y322535D01*
X419658Y322509D01*
Y323449D01*
D02*
G37*
G36*
X359658D02*
X358822Y323225D01*
X358541Y323063D01*
X358592Y323021D01*
X358776Y322888D01*
X358963Y322773D01*
X359152Y322675D01*
X359343Y322597D01*
X359537Y322535D01*
X359658Y322509D01*
Y323449D01*
D02*
G37*
G36*
X360658D02*
Y322509D01*
X360778Y322535D01*
X360972Y322597D01*
X361163Y322675D01*
X361352Y322773D01*
X361539Y322888D01*
X361723Y323021D01*
X361774Y323063D01*
X361493Y323225D01*
X360658Y323449D01*
D02*
G37*
G36*
X310658D02*
Y322509D01*
X310778Y322535D01*
X310972Y322597D01*
X311163Y322675D01*
X311352Y322773D01*
X311539Y322888D01*
X311723Y323021D01*
X311774Y323063D01*
X311493Y323225D01*
X310658Y323449D01*
D02*
G37*
G36*
X419658Y321985D02*
X418172Y320500D01*
X419658D01*
Y321985D01*
D02*
G37*
G36*
X359658D02*
X358172Y320500D01*
X359658D01*
Y321985D01*
D02*
G37*
G36*
X417095Y321616D02*
X416933Y321336D01*
X416709Y320500D01*
X417648D01*
X417622Y320621D01*
X417561Y320814D01*
X417482Y321006D01*
X417385Y321195D01*
X417270Y321381D01*
X417137Y321566D01*
X417095Y321616D01*
D02*
G37*
G36*
X357095D02*
X356933Y321336D01*
X356709Y320500D01*
X357648D01*
X357622Y320621D01*
X357561Y320814D01*
X357482Y321006D01*
X357385Y321195D01*
X357270Y321381D01*
X357137Y321566D01*
X357095Y321616D01*
D02*
G37*
G36*
X309658Y323449D02*
X308822Y323225D01*
X308033Y322769D01*
X307388Y322125D01*
X306933Y321336D01*
X306709Y320500D01*
X309658D01*
Y323449D01*
D02*
G37*
G36*
Y319500D02*
X306709D01*
X306933Y318664D01*
X307388Y317875D01*
X308033Y317231D01*
X308822Y316775D01*
X309658Y316551D01*
Y319500D01*
D02*
G37*
G36*
X403953Y308953D02*
X400500D01*
Y305500D01*
X403953D01*
Y308953D01*
D02*
G37*
G36*
X399500D02*
X396047D01*
Y305500D01*
X399500D01*
Y308953D01*
D02*
G37*
G36*
X403953Y234500D02*
X400500D01*
Y231047D01*
X400520D01*
X401526Y231317D01*
X402427Y231837D01*
X403163Y232573D01*
X403683Y233474D01*
X403953Y234480D01*
Y234500D01*
D02*
G37*
G36*
X399500D02*
X396047D01*
Y234480D01*
X396317Y233474D01*
X396837Y232573D01*
X397573Y231837D01*
X398474Y231317D01*
X399480Y231047D01*
X399500D01*
Y234500D01*
D02*
G37*
G36*
X419658Y223449D02*
X418822Y223225D01*
X418541Y223063D01*
X418592Y223021D01*
X418776Y222888D01*
X418963Y222773D01*
X419152Y222675D01*
X419343Y222597D01*
X419537Y222535D01*
X419658Y222509D01*
Y223449D01*
D02*
G37*
G36*
Y221985D02*
X418172Y220500D01*
X419658D01*
Y221985D01*
D02*
G37*
G36*
X417095Y221616D02*
X416933Y221336D01*
X416709Y220500D01*
X417648D01*
X417622Y220621D01*
X417561Y220814D01*
X417482Y221006D01*
X417385Y221195D01*
X417270Y221381D01*
X417137Y221566D01*
X417095Y221616D01*
D02*
G37*
G36*
X403953Y208953D02*
X400500D01*
Y205500D01*
X403953D01*
Y208953D01*
D02*
G37*
G36*
X399500D02*
X396047D01*
Y205500D01*
X399500D01*
Y208953D01*
D02*
G37*
G36*
X403953Y204500D02*
X396047D01*
Y201047D01*
X396870D01*
X397071Y200723D01*
X397573Y198163D01*
X396837Y197427D01*
X396317Y196526D01*
X396047Y195520D01*
Y195500D01*
X403953D01*
Y195520D01*
X403683Y196526D01*
X403163Y197427D01*
X402427Y198163D01*
X402929Y200723D01*
X403129Y201047D01*
X403953D01*
Y204500D01*
D02*
G37*
G36*
X397024Y134500D02*
X396047D01*
Y134480D01*
X396317Y133474D01*
X396545Y133079D01*
X396578Y133127D01*
X396705Y133360D01*
X396812Y133603D01*
X396899Y133856D01*
X396966Y134120D01*
X397013Y134393D01*
X397024Y134500D01*
D02*
G37*
G36*
X399500D02*
X397518D01*
X399500Y132518D01*
Y134500D01*
D02*
G37*
G36*
X403953D02*
X400500D01*
Y131047D01*
X400520D01*
X401526Y131317D01*
X402427Y131837D01*
X403163Y132573D01*
X403683Y133474D01*
X403953Y134480D01*
Y134500D01*
D02*
G37*
G36*
X399500Y132024D02*
X399393Y132013D01*
X399120Y131966D01*
X398856Y131899D01*
X398603Y131812D01*
X398360Y131705D01*
X398128Y131578D01*
X398078Y131545D01*
X398474Y131317D01*
X399480Y131047D01*
X399500D01*
Y132024D01*
D02*
G37*
G36*
X595783Y132950D02*
X594217D01*
X592681Y132644D01*
X591234Y132045D01*
X589932Y131175D01*
X588825Y130068D01*
X587955Y128766D01*
X587356Y127319D01*
X587050Y125783D01*
Y124217D01*
X587356Y122681D01*
X587955Y121234D01*
X588825Y119932D01*
X589932Y118825D01*
X591234Y117955D01*
X592681Y117356D01*
X594217Y117050D01*
X595783D01*
X597319Y117356D01*
X598766Y117955D01*
X600068Y118825D01*
X601175Y119932D01*
X602045Y121234D01*
X602644Y122681D01*
X602950Y124217D01*
Y125783D01*
X602644Y127319D01*
X602045Y128766D01*
X601175Y130068D01*
X600068Y131175D01*
X598766Y132045D01*
X597319Y132644D01*
X595783Y132950D01*
D02*
G37*
G36*
X237095Y261616D02*
X236933Y261336D01*
X236709Y260500D01*
X237648D01*
X237622Y260621D01*
X237561Y260814D01*
X237482Y261006D01*
X237385Y261195D01*
X237270Y261382D01*
X237137Y261566D01*
X237095Y261616D01*
D02*
G37*
G36*
X239657Y259500D02*
X236709D01*
X236933Y258664D01*
X237388Y257875D01*
X238033Y257231D01*
X238822Y256775D01*
X239657Y256551D01*
Y259500D01*
D02*
G37*
G36*
X169500Y154500D02*
X166047D01*
Y154480D01*
X166317Y153474D01*
X166837Y152573D01*
X167573Y151837D01*
X168474Y151317D01*
X169480Y151047D01*
X169500D01*
Y154500D01*
D02*
G37*
%LPD*%
D15*
X242433Y127200D02*
X388800D01*
X389000Y127000D01*
X383932Y120500D02*
X384311D01*
X383032Y121400D02*
X383932Y120500D01*
X268500Y121400D02*
X383032D01*
X309546Y240847D02*
X309893Y240500D01*
X352624D01*
X267195Y240847D02*
X309546D01*
X354847Y230847D02*
X354924Y230924D01*
X267151Y229153D02*
X268846Y230847D01*
X354847D01*
X139000Y127000D02*
X139200Y127200D01*
X167567D01*
X136379Y126000D02*
X137679Y124700D01*
X136000Y126000D02*
X136379D01*
X137679Y124700D02*
X242195D01*
X257467Y122700D02*
X258467Y123700D01*
X133184Y123316D02*
X135432D01*
X133132Y123368D02*
X133184Y123316D01*
X135432D02*
X136047Y122700D01*
X257467D01*
X131253Y114000D02*
X385531D01*
X129753Y115500D02*
X131253Y114000D01*
X129500Y115500D02*
X129753D01*
X132500Y116300D02*
X132600Y116200D01*
X383956D01*
X386756Y119000D01*
X146100Y136000D02*
X264500D01*
X145100Y137000D02*
X146100Y136000D01*
X187153Y289153D02*
X281653D01*
X283253Y290753D02*
X411753D01*
X281653Y289153D02*
X283253Y290753D01*
X115000Y145000D02*
X157500D01*
X115000Y155000D02*
X150000D01*
X135000Y140000D02*
X280000D01*
X130000Y135000D02*
X135000Y140000D01*
X115000Y135000D02*
X130000D01*
X110000Y140000D02*
X115000Y135000D01*
X110000Y150000D02*
X115000Y145000D01*
X110000Y160000D02*
X115000Y155000D01*
X425000Y250000D02*
X430000Y245000D01*
X120000Y250000D02*
X425000D01*
X268750Y245000D02*
X290000D01*
X207000Y268000D02*
X268750D01*
X290000Y245000D02*
X320000D01*
X130000Y290000D02*
X136000Y284000D01*
X135000Y335000D02*
X170000D01*
X130000Y330000D02*
X135000Y335000D01*
X177500Y325000D02*
X200000D01*
X172500Y320000D02*
X177500Y325000D01*
X140000Y320000D02*
X172500D01*
X130000Y310000D02*
X140000Y320000D01*
X129000Y310000D02*
X130000D01*
X214127Y315000D02*
X218280Y319153D01*
X200000Y315000D02*
X214127D01*
X218280Y319153D02*
X245847D01*
X250000Y315000D01*
X208153Y300847D02*
X245847D01*
X208000Y301000D02*
X208153Y300847D01*
X215847Y330847D02*
X220000Y335000D01*
X175847Y330847D02*
X215847D01*
X170000Y325000D02*
X175847Y330847D01*
X170000Y315000D02*
X175847Y320847D01*
X215847D01*
X220000Y325000D01*
X201720Y299153D02*
X205873Y295000D01*
X220000D01*
X170000Y305000D02*
X175847Y299153D01*
X201720D01*
X198280Y290847D02*
X253847D01*
X268000Y305000D02*
X290000D01*
X253847Y290847D02*
X268000Y305000D01*
X170000Y295000D02*
X194127D01*
X198280Y290847D01*
X170000Y285000D02*
X183000D01*
X187153Y289153D01*
X278000Y221500D02*
X284500Y228000D01*
X302000D01*
X321720Y300847D02*
X325873Y305000D01*
X340000D01*
X318280Y300847D02*
X321720D01*
X290000Y305000D02*
X314127D01*
X318280Y300847D01*
X314127Y205000D02*
X318280Y200847D01*
X290000Y205000D02*
X314127D01*
X318280Y200847D02*
X321720D01*
X325873Y205000D02*
X340000D01*
X321720Y200847D02*
X325873Y205000D01*
X136000Y284000D02*
X165127D01*
X168280Y280847D01*
X195847D02*
X200000Y285000D01*
X168280Y280847D02*
X195847D01*
X416000Y295000D02*
X430000D01*
X411753Y290753D02*
X416000Y295000D01*
X430000Y195000D02*
X439000D01*
X388031Y116500D02*
X408300D01*
X391000Y113500D02*
X405000D01*
X125500Y112000D02*
X389500D01*
X391000Y113500D01*
X385531Y114000D02*
X388031Y116500D01*
X386756Y119000D02*
X411600D01*
X387511Y122000D02*
X414900D01*
X385811Y123700D02*
X387511Y122000D01*
X387500Y124500D02*
X391500D01*
X386700Y125300D02*
X387500Y124500D01*
X242795Y125300D02*
X386700D01*
X258467Y123700D02*
X385811D01*
X265500Y119000D02*
X381600D01*
X168467Y133700D02*
X268300D01*
X268500Y133500D01*
X142300Y133000D02*
X167767D01*
X168467Y133700D01*
X242195Y124700D02*
X242795Y125300D01*
X237567Y127200D02*
X238467Y126300D01*
X222433Y127200D02*
X237567D01*
X238467Y126300D02*
X241533D01*
X242433Y127200D01*
X172433D02*
X217567D01*
X218467Y126300D02*
X221533D01*
X217567Y127200D02*
X218467Y126300D01*
X221533D02*
X222433Y127200D01*
X167567D02*
X168467Y126300D01*
X171533D01*
X172433Y127200D01*
X375873Y175000D02*
X377500D01*
Y145000D02*
X400000D01*
X315007Y227961D02*
X358039D01*
X358500Y227500D01*
X227763Y209153D02*
X363847D01*
X364000Y209000D01*
X293450Y200847D02*
X294103Y201500D01*
X312000D01*
X286550Y200847D02*
X293450D01*
X285847Y201550D02*
X286550Y200847D01*
X285797Y201500D02*
X285847Y201550D01*
X312000Y201500D02*
X314500Y199000D01*
X300000Y211500D02*
X303000Y214500D01*
X251720Y230847D02*
X252373Y231500D01*
X262000D01*
X269653Y239153D01*
X299847D01*
X301500Y237500D01*
X312546Y225500D02*
X315007Y227961D01*
X286000Y225500D02*
X312546D01*
X279653Y219153D02*
X286000Y225500D01*
X252373Y221500D02*
X278000D01*
X227763Y229153D02*
X267151D01*
X325753Y200753D02*
X349247D01*
X349500Y200500D01*
X320000Y195000D02*
X325753Y200753D01*
X347000Y245000D02*
X370000D01*
X265500Y239153D02*
X267195Y240847D01*
X227763Y239153D02*
X265500D01*
X170000Y205000D02*
X175753Y199247D01*
X224247D01*
X251720Y200847D02*
X252373Y201500D01*
X248280Y200847D02*
X251720D01*
X252373Y201500D02*
X285797D01*
X247127Y202000D02*
X248280Y200847D01*
X227000Y202000D02*
X247127D01*
X224247Y199247D02*
X227000Y202000D01*
X223610Y235000D02*
X227763Y239153D01*
X220000Y235000D02*
X223610D01*
X220000Y225000D02*
X223610D01*
X227763Y229153D01*
X170000Y235000D02*
X175753Y229247D01*
X224247D01*
X248280Y230847D02*
X251720D01*
X247127Y232000D02*
X248280Y230847D01*
X227000Y232000D02*
X247127D01*
X224247Y229247D02*
X227000Y232000D01*
X220000Y215000D02*
X223610D01*
X227763Y219153D01*
X279653D01*
X170000Y225000D02*
X175753Y219247D01*
X224247D01*
X251720Y220847D02*
X252373Y221500D01*
X248280Y220847D02*
X251720D01*
X247127Y222000D02*
X248280Y220847D01*
X227000Y222000D02*
X247127D01*
X224247Y219247D02*
X227000Y222000D01*
X224247Y209247D02*
X227000Y212000D01*
X247127D01*
X248280Y210847D01*
X252373Y211500D02*
X300000D01*
X248280Y210847D02*
X251720D01*
X252373Y211500D01*
X175753Y209247D02*
X224247D01*
X170000Y215000D02*
X175753Y209247D01*
X223610Y205000D02*
X227763Y209153D01*
X220000Y205000D02*
X223610D01*
X371720Y179153D02*
X375873Y175000D01*
X345500Y195000D02*
X361347Y179153D01*
X371720D01*
X340000Y195000D02*
X345500D01*
X290000D02*
X308500D01*
X403347Y299153D02*
X407500Y295000D01*
X398280Y299153D02*
X403347D01*
X411653D02*
X440847D01*
X407500Y295000D02*
X411653Y299153D01*
X314347Y189153D02*
X334153D01*
X340000Y195000D01*
X308500D02*
X314347Y189153D01*
X223888Y190753D02*
X309247D01*
X315000Y185000D01*
X308347Y189153D02*
X316653Y180847D01*
X248280Y189153D02*
X308347D01*
X310000Y185000D02*
X315753Y179247D01*
X290000Y185000D02*
X310000D01*
X250000D02*
X290000D01*
X316653Y190847D02*
X329974D01*
X308347Y199153D02*
X316653Y190847D01*
X329974D02*
X338280Y199153D01*
X445000Y295000D02*
X450000D01*
X440847Y299153D02*
X445000Y295000D01*
X394127D02*
X398280Y299153D01*
X375873Y295000D02*
X394127D01*
X340000D02*
X364127D01*
X368280Y299153D01*
X371720D02*
X375873Y295000D01*
X368280Y299153D02*
X371720D01*
X320000Y245000D02*
X340000D01*
X290000Y295000D02*
X314127D01*
X321720Y299153D02*
X325873Y295000D01*
X340000D01*
X314127D02*
X318280Y299153D01*
X321720D01*
X430000Y135000D02*
X455000D01*
X250000Y325000D02*
X275000D01*
X248280Y310847D02*
X325000D01*
X220000Y315000D02*
X244127D01*
X248280Y310847D01*
Y280847D02*
X373347D01*
X375000Y282500D01*
X368280Y279153D02*
X425847D01*
X430000Y275000D01*
X340000D02*
X344153Y279153D01*
X244127Y285000D02*
X248280Y280847D01*
X344153Y279153D02*
X368280D01*
X294153D02*
X318280D01*
X290000Y275000D02*
X294153Y279153D01*
X321720Y279153D02*
X325873Y275000D01*
X220000Y285000D02*
X244127D01*
X245847Y300847D02*
X250000Y305000D01*
X200000Y275000D02*
X207000Y268000D01*
X250000Y205000D02*
X282500D01*
X250000Y215000D02*
X280000D01*
X250000Y225000D02*
X277500D01*
X250000Y195000D02*
X285000D01*
X220000Y295000D02*
X250000D01*
X220000Y325000D02*
X250000D01*
X321720Y140847D02*
X325873Y145000D01*
X340000D01*
X314127D02*
X318280Y140847D01*
X290000Y145000D02*
X314127D01*
X318280Y140847D02*
X321720D01*
Y259153D02*
X325873Y255000D01*
X318280Y259153D02*
X321720D01*
X325873Y255000D02*
X340000D01*
X294153Y259153D02*
X318280D01*
X318280Y259153D01*
X290000Y255000D02*
X294153Y259153D01*
X340000Y255000D02*
X344153Y259153D01*
X368280D02*
X368280Y259153D01*
X344153Y259153D02*
X368280D01*
X368280Y259153D02*
X425847D01*
X430000Y255000D01*
X321720Y269153D02*
X325873Y265000D01*
X318280Y269153D02*
X321720D01*
X325873Y265000D02*
X340000D01*
X294153Y269153D02*
X318280D01*
X318280Y269153D01*
X290000Y265000D02*
X294153Y269153D01*
X340000Y265000D02*
X344153Y269153D01*
X368280D02*
X368280Y269153D01*
X344153Y269153D02*
X368280D01*
X368280Y269153D02*
X425847D01*
X430000Y265000D01*
X318280Y279153D02*
X321720D01*
X325873Y275000D02*
X340000D01*
X318280Y279153D02*
X318280Y279153D01*
X368280Y279153D02*
X368280Y279153D01*
X425847Y289153D02*
X430000Y285000D01*
X368280Y289153D02*
X425847D01*
X344153Y289153D02*
X368280D01*
X368280Y289153D01*
X340000Y285000D02*
X344153Y289153D01*
X290000Y285000D02*
X294153Y289153D01*
X318280D02*
X318280Y289153D01*
X294153Y289153D02*
X318280D01*
X325873Y285000D02*
X340000D01*
X318280Y289153D02*
X321720D01*
X325873Y285000D01*
X171720Y159153D02*
X175873Y155000D01*
X200000D01*
X110000Y170000D02*
X115000Y165000D01*
X155000D02*
X160847Y159153D01*
X115000Y165000D02*
X155000D01*
X160847Y159153D02*
X171720D01*
Y169153D02*
X175873Y165000D01*
X200000D01*
X110000Y180000D02*
X115000Y175000D01*
X155000D02*
X160847Y169153D01*
X115000Y175000D02*
X155000D01*
X160847Y169153D02*
X171720D01*
Y179153D02*
X175873Y175000D01*
X200000D01*
X110000Y190000D02*
X115000Y185000D01*
X155000D02*
X160847Y179153D01*
X115000Y185000D02*
X155000D01*
X160847Y179153D02*
X171720D01*
Y189153D02*
X175873Y185000D01*
X200000D01*
X110000Y200000D02*
X115000Y195000D01*
X155000D02*
X160847Y189153D01*
X115000Y195000D02*
X155000D01*
X160847Y189153D02*
X171720D01*
Y229153D02*
X175873Y225000D01*
X200000D01*
X110000Y240000D02*
X115000Y235000D01*
X155000D02*
X160847Y229153D01*
X115000Y235000D02*
X155000D01*
X160847Y229153D02*
X171720D01*
Y219153D02*
X175873Y215000D01*
X200000D01*
X110000Y230000D02*
X115000Y225000D01*
X155000D02*
X160847Y219153D01*
X115000Y225000D02*
X155000D01*
X160847Y219153D02*
X171720D01*
Y209153D02*
X175873Y205000D01*
X200000D01*
X110000Y220000D02*
X115000Y215000D01*
X155000D02*
X160847Y209153D01*
X115000Y215000D02*
X155000D01*
X160847Y209153D02*
X171720D01*
X200000Y195000D02*
X214127D01*
X160847Y199153D02*
X171720D01*
X115000Y205000D02*
X155000D01*
X160847Y199153D01*
X110000Y210000D02*
X115000Y205000D01*
X175873Y195000D02*
X200000D01*
X171720Y199153D02*
X175873Y195000D01*
X214127D02*
X215847Y193280D01*
Y193280D02*
Y193280D01*
X225873Y195000D02*
X250000D01*
X221720Y190847D02*
X225873Y195000D01*
X215847Y193280D02*
X218280Y190847D01*
X221720D01*
X170000Y195000D02*
X175753Y189247D01*
X218280Y200847D02*
X221720D01*
X215847Y203280D02*
X218280Y200847D01*
X221720D02*
X225873Y205000D01*
X250000D01*
X215847Y203280D02*
Y203280D01*
X214127Y205000D02*
X215847Y203280D01*
X200000Y205000D02*
X214127D01*
X218280Y210847D02*
X221720D01*
X215847Y213280D02*
X218280Y210847D01*
X221720D02*
X225873Y215000D01*
X250000D01*
X215847Y213280D02*
Y213280D01*
X214127Y215000D02*
X215847Y213280D01*
X200000Y215000D02*
X214127D01*
X200000Y225000D02*
X214127D01*
X215847Y223280D01*
Y223280D02*
Y223280D01*
X225873Y225000D02*
X250000D01*
X221720Y220847D02*
X225873Y225000D01*
X215847Y223280D02*
X218280Y220847D01*
X221720D01*
X220000Y175000D02*
X221720Y176720D01*
X361000Y165000D02*
X370000D01*
X315000D02*
X320000D01*
X250000Y175000D02*
X290000D01*
X200000D02*
X214127D01*
X225873D02*
X250000D01*
X290000D02*
X310000D01*
X340000D02*
X345500D01*
X220000Y185000D02*
X221720Y186720D01*
X361000Y175000D02*
X370000D01*
X250000Y155000D02*
X290000D01*
X200000D02*
X214127D01*
X225873D02*
X250000D01*
X290000D02*
X310000D01*
X340000D02*
X345500D01*
X315000Y185000D02*
X320000D01*
X315000Y155000D02*
X320000D01*
X250000Y165000D02*
X290000D01*
X200000D02*
X214127D01*
X225873D02*
X250000D01*
X290000D02*
X310000D01*
X340000D02*
X345500D01*
X220000Y195000D02*
X221720Y196720D01*
X361000Y185000D02*
X370000D01*
X315000Y175000D02*
X320000D01*
X200000Y185000D02*
X214127D01*
X225873D02*
X250000D01*
X340000D02*
X345500D01*
X220000Y165000D02*
X221720Y166720D01*
X361000Y155000D02*
X370000D01*
X345500D02*
X359653Y140847D01*
X415847D01*
X430000Y155000D01*
X345500Y165000D02*
X359653Y150847D01*
X415847D01*
X430000Y165000D01*
X345500Y175000D02*
X359653Y160847D01*
X415847D01*
X430000Y175000D01*
X334247Y179247D02*
X340000Y185000D01*
X415847Y170847D02*
X430000Y185000D01*
X359653Y170847D02*
X415847D01*
X345500Y185000D02*
X359653Y170847D01*
X338280Y179153D02*
X346847D01*
X361000Y165000D01*
X329974Y170847D02*
X338280Y179153D01*
X346847Y199153D02*
X361000Y185000D01*
X338280Y199153D02*
X346847D01*
X338280Y189153D02*
X346847D01*
X361000Y175000D01*
X248280Y199153D02*
X308347D01*
X221720Y196720D02*
X245847D01*
X248280Y199153D01*
X334247Y149247D02*
X340000Y155000D01*
X315753Y149247D02*
X334247D01*
X310000Y155000D02*
X315753Y149247D01*
X221720Y150847D02*
X225873Y155000D01*
X218280Y150847D02*
X221720D01*
X214127Y155000D02*
X218280Y150847D01*
X214127Y165000D02*
X218280Y160847D01*
X221720D01*
X225873Y165000D01*
X248280Y169153D02*
X308347D01*
X316653Y160847D01*
X310000Y165000D02*
X315753Y159247D01*
X334247D01*
X340000Y165000D01*
X329974Y160847D02*
X338280Y169153D01*
X316653Y160847D02*
X329974D01*
X346847Y169153D02*
X361000Y155000D01*
X338280Y169153D02*
X346847D01*
X309247Y160753D02*
X315000Y155000D01*
X222383Y159247D02*
X223888Y160753D01*
X309247D01*
X170000Y165000D02*
X175753Y159247D01*
X222383D01*
X221720Y166720D02*
X245847D01*
X248280Y169153D01*
X214127Y175000D02*
X218280Y170847D01*
X221720D01*
X225873Y175000D01*
X248280Y179153D02*
X308347D01*
X316653Y170847D01*
X310000Y175000D02*
X315753Y169247D01*
X334247D01*
X340000Y175000D01*
X316653Y170847D02*
X329974D01*
X309247Y170753D02*
X315000Y165000D01*
X222383Y169247D02*
X223888Y170753D01*
X309247D01*
X170000Y175000D02*
X175753Y169247D01*
X222383D01*
X221720Y176720D02*
X245847D01*
X248280Y179153D01*
X245847Y186720D02*
X248280Y189153D01*
X221720Y186720D02*
X245847D01*
X175753Y189247D02*
X222383D01*
X223888Y190753D01*
X175753Y179247D02*
X222383D01*
X170000Y185000D02*
X175753Y179247D01*
X223888Y180753D02*
X309247D01*
X222383Y179247D02*
X223888Y180753D01*
X309247D02*
X315000Y175000D01*
X316653Y180847D02*
X329974D01*
X338280Y189153D01*
X315753Y179247D02*
X334247D01*
X221720Y180847D02*
X225873Y185000D01*
X218280Y180847D02*
X221720D01*
X214127Y185000D02*
X218280Y180847D01*
D25*
X236054Y354261D02*
X240315Y350000D01*
X364418Y224261D02*
X415897D01*
X314418D02*
X355897D01*
X245897Y345739D02*
X250157Y350000D01*
X110000Y130000D02*
X120000D01*
X170000D01*
X110000Y120000D02*
X120000D01*
X260000D01*
X250157Y350000D02*
X258032Y342126D01*
X290000D01*
X320000D02*
X320000Y342126D01*
X290000Y342126D02*
X320000D01*
X290000Y350000D02*
X310157D01*
X244576Y354261D02*
X285739D01*
X290000Y350000D01*
X364418Y324261D02*
X400000D01*
X415897D01*
X290000Y220000D02*
X310157D01*
X240000Y130000D02*
X290000D01*
X220000D02*
X240000D01*
X235897Y264261D02*
X240158Y260000D01*
X190157D02*
X194418Y264261D01*
X220000D02*
X235897D01*
X194418D02*
X220000D01*
X170000Y264261D02*
X185739D01*
X190000Y260000D01*
X190315Y350000D02*
X194576Y354261D01*
X236054D01*
X240315Y350000D02*
X244576Y354261D01*
X310157Y320000D02*
X314418Y324261D01*
X355897D02*
X360157Y320000D01*
X314418Y324261D02*
X355897D01*
X360157Y320000D02*
X364418Y324261D01*
X415897D02*
X420157Y320000D01*
X415897Y224261D02*
X420157Y220000D01*
X360157D02*
X364418Y224261D01*
X355897D02*
X360157Y220000D01*
X310157D02*
X314418Y224261D01*
X170000Y130000D02*
X220000D01*
X290000D02*
X340000D01*
X290000D02*
Y135000D01*
X340000Y130000D02*
X395000D01*
X340000D02*
Y135000D01*
X395000Y130000D02*
X400000Y135000D01*
X430000Y320000D02*
X450000D01*
X220000Y245000D02*
X250000D01*
X170000D02*
X200000D01*
X220000D01*
X200157Y350000D02*
X204418Y345739D01*
X245897D01*
X374261Y315739D02*
X425739D01*
X430000Y320000D01*
X370000D02*
X374261Y315739D01*
X324261D02*
X365739D01*
X370000Y320000D01*
X320000D02*
X324261Y315739D01*
X320000Y220000D02*
X324261Y215739D01*
X365739D02*
X370000Y220000D01*
X324261Y215739D02*
X365739D01*
X370000Y220000D02*
X374261Y215739D01*
X425739D02*
X430000Y220000D01*
X374261Y215739D02*
X425739D01*
D26*
X120000Y250000D02*
D03*
X110000D02*
D03*
X120000Y240000D02*
D03*
X110000D02*
D03*
X120000Y230000D02*
D03*
X110000D02*
D03*
X120000Y220000D02*
D03*
X110000D02*
D03*
X120000Y210000D02*
D03*
X110000D02*
D03*
X120000Y200000D02*
D03*
X110000D02*
D03*
X120000Y190000D02*
D03*
X110000D02*
D03*
X120000Y180000D02*
D03*
X110000D02*
D03*
X120000Y170000D02*
D03*
X110000D02*
D03*
X120000Y160000D02*
D03*
X110000D02*
D03*
X120000Y150000D02*
D03*
X110000D02*
D03*
X120000Y140000D02*
D03*
X110000D02*
D03*
X120000Y130000D02*
D03*
X110000D02*
D03*
X120000Y120000D02*
D03*
X200000Y235000D02*
D03*
X250000D02*
D03*
D27*
X110000Y120000D02*
D03*
D28*
X360157Y220000D02*
D03*
X420157D02*
D03*
X190157Y350000D02*
D03*
X240158D02*
D03*
X290000D02*
D03*
X310157Y220000D02*
D03*
X190157Y260000D02*
D03*
X360157Y320000D02*
D03*
X310157D02*
D03*
X420157D02*
D03*
X240157Y260000D02*
D03*
D29*
X370000Y220000D02*
D03*
X430000D02*
D03*
X200000Y350000D02*
D03*
X250000D02*
D03*
X320000Y220000D02*
D03*
X200000Y260000D02*
D03*
X370000Y320000D02*
D03*
X320000D02*
D03*
X430000D02*
D03*
X250000Y260000D02*
D03*
D30*
X400000Y335000D02*
D03*
X340000D02*
D03*
X275000Y325000D02*
D03*
X130000Y290000D02*
D03*
Y310000D02*
D03*
Y330000D02*
D03*
X450000Y295000D02*
D03*
Y320000D02*
D03*
X455000Y135000D02*
D03*
D31*
X220000Y335000D02*
D03*
X290000Y205000D02*
D03*
X170000Y245000D02*
D03*
X290000Y305000D02*
D03*
X400000Y205000D02*
D03*
X340000Y305000D02*
D03*
X170000Y335000D02*
D03*
X340000Y205000D02*
D03*
X400000Y305000D02*
D03*
X220000Y245000D02*
D03*
D32*
Y325000D02*
D03*
Y315000D02*
D03*
Y305000D02*
D03*
Y295000D02*
D03*
Y285000D02*
D03*
Y275000D02*
D03*
X250000Y335000D02*
D03*
Y325000D02*
D03*
Y315000D02*
D03*
Y305000D02*
D03*
Y295000D02*
D03*
Y285000D02*
D03*
Y275000D02*
D03*
X290000Y195000D02*
D03*
Y185000D02*
D03*
Y175000D02*
D03*
Y165000D02*
D03*
Y155000D02*
D03*
Y145000D02*
D03*
Y135000D02*
D03*
X320000Y205000D02*
D03*
Y195000D02*
D03*
Y185000D02*
D03*
Y175000D02*
D03*
Y165000D02*
D03*
Y155000D02*
D03*
Y145000D02*
D03*
Y135000D02*
D03*
X200000Y155000D02*
D03*
Y165000D02*
D03*
Y175000D02*
D03*
Y185000D02*
D03*
Y195000D02*
D03*
Y205000D02*
D03*
Y215000D02*
D03*
Y225000D02*
D03*
Y245000D02*
D03*
X170000Y155000D02*
D03*
Y165000D02*
D03*
Y175000D02*
D03*
Y185000D02*
D03*
Y195000D02*
D03*
Y205000D02*
D03*
Y215000D02*
D03*
Y225000D02*
D03*
Y235000D02*
D03*
X320000D02*
D03*
Y245000D02*
D03*
Y255000D02*
D03*
Y265000D02*
D03*
Y275000D02*
D03*
Y285000D02*
D03*
Y295000D02*
D03*
Y305000D02*
D03*
X290000Y235000D02*
D03*
Y245000D02*
D03*
Y255000D02*
D03*
Y265000D02*
D03*
Y275000D02*
D03*
Y285000D02*
D03*
Y295000D02*
D03*
X430000Y135000D02*
D03*
Y145000D02*
D03*
Y155000D02*
D03*
Y165000D02*
D03*
Y175000D02*
D03*
Y185000D02*
D03*
Y195000D02*
D03*
Y205000D02*
D03*
X400000Y135000D02*
D03*
Y145000D02*
D03*
Y155000D02*
D03*
Y165000D02*
D03*
Y175000D02*
D03*
Y185000D02*
D03*
Y195000D02*
D03*
X370000Y235000D02*
D03*
Y245000D02*
D03*
Y255000D02*
D03*
Y265000D02*
D03*
Y275000D02*
D03*
Y285000D02*
D03*
Y295000D02*
D03*
Y305000D02*
D03*
X340000Y235000D02*
D03*
Y245000D02*
D03*
Y255000D02*
D03*
Y265000D02*
D03*
Y275000D02*
D03*
Y285000D02*
D03*
Y295000D02*
D03*
X200000Y275000D02*
D03*
Y285000D02*
D03*
Y295000D02*
D03*
Y305000D02*
D03*
Y315000D02*
D03*
Y325000D02*
D03*
Y335000D02*
D03*
X170000Y275000D02*
D03*
Y285000D02*
D03*
Y295000D02*
D03*
Y305000D02*
D03*
Y315000D02*
D03*
Y325000D02*
D03*
X370000Y135000D02*
D03*
Y145000D02*
D03*
Y155000D02*
D03*
Y165000D02*
D03*
Y175000D02*
D03*
Y185000D02*
D03*
Y195000D02*
D03*
Y205000D02*
D03*
X340000Y135000D02*
D03*
Y145000D02*
D03*
Y155000D02*
D03*
Y165000D02*
D03*
Y175000D02*
D03*
Y185000D02*
D03*
Y195000D02*
D03*
X430000Y235000D02*
D03*
Y245000D02*
D03*
Y255000D02*
D03*
Y265000D02*
D03*
Y275000D02*
D03*
Y285000D02*
D03*
Y295000D02*
D03*
Y305000D02*
D03*
X400000Y235000D02*
D03*
Y245000D02*
D03*
Y255000D02*
D03*
Y265000D02*
D03*
Y275000D02*
D03*
Y285000D02*
D03*
Y295000D02*
D03*
X220000Y235000D02*
D03*
Y225000D02*
D03*
Y215000D02*
D03*
Y205000D02*
D03*
Y195000D02*
D03*
Y185000D02*
D03*
Y175000D02*
D03*
Y165000D02*
D03*
Y155000D02*
D03*
X250000Y245000D02*
D03*
Y225000D02*
D03*
Y215000D02*
D03*
Y205000D02*
D03*
Y195000D02*
D03*
Y185000D02*
D03*
Y175000D02*
D03*
Y165000D02*
D03*
Y155000D02*
D03*
D33*
X290000Y342126D02*
D03*
D34*
X389000Y127000D02*
D03*
X384311Y120500D02*
D03*
X352624Y240500D02*
D03*
X354924Y230924D02*
D03*
X268500Y121400D02*
D03*
X139000Y127000D02*
D03*
X136000Y126000D02*
D03*
X133132Y123368D02*
D03*
X129500Y115500D02*
D03*
X132500Y116300D02*
D03*
X145100Y137000D02*
D03*
X314500Y199000D02*
D03*
X157500Y145000D02*
D03*
X150000Y155000D02*
D03*
X280000Y140000D02*
D03*
X268750Y268000D02*
D03*
Y245000D02*
D03*
X208000Y301000D02*
D03*
X302000Y228000D02*
D03*
X439000Y195000D02*
D03*
X405000Y113500D02*
D03*
X408300Y116500D02*
D03*
X411600Y119000D02*
D03*
X414900Y122000D02*
D03*
X391500Y124500D02*
D03*
X381600Y119000D02*
D03*
X268500Y133500D02*
D03*
X265500Y119000D02*
D03*
X264500Y136000D02*
D03*
X142300Y133000D02*
D03*
X125500Y112000D02*
D03*
X377500Y175000D02*
D03*
Y145000D02*
D03*
X358500Y227500D02*
D03*
X364000Y209000D02*
D03*
X303000Y214500D02*
D03*
X301500Y237500D02*
D03*
X349500Y200500D02*
D03*
X347000Y245000D02*
D03*
X407500Y295000D02*
D03*
X325000Y310847D02*
D03*
X375000Y282500D02*
D03*
X282500Y205000D02*
D03*
X280000Y215000D02*
D03*
X277500Y225000D02*
D03*
X285000Y195000D02*
D03*
D35*
X270000Y147500D02*
D03*
X232500D02*
D03*
X185000D02*
D03*
X610000Y340000D02*
D03*
X600000Y320000D02*
D03*
X610000Y300000D02*
D03*
X600000Y280000D02*
D03*
X610000Y260000D02*
D03*
X600000Y240000D02*
D03*
X610000Y220000D02*
D03*
X600000Y200000D02*
D03*
X610000Y180000D02*
D03*
X600000Y160000D02*
D03*
X610000Y140000D02*
D03*
X580000Y320000D02*
D03*
X590000Y300000D02*
D03*
X580000Y280000D02*
D03*
X590000Y260000D02*
D03*
X580000Y240000D02*
D03*
X590000Y220000D02*
D03*
X580000Y200000D02*
D03*
X590000Y180000D02*
D03*
X580000Y160000D02*
D03*
X590000Y140000D02*
D03*
X580000Y120000D02*
D03*
X570000Y340000D02*
D03*
X560000Y320000D02*
D03*
X570000Y300000D02*
D03*
X560000Y280000D02*
D03*
X570000Y260000D02*
D03*
X560000Y240000D02*
D03*
X570000Y220000D02*
D03*
X560000Y200000D02*
D03*
X570000Y180000D02*
D03*
X560000Y160000D02*
D03*
X570000Y140000D02*
D03*
X560000Y120000D02*
D03*
X550000Y340000D02*
D03*
X540000Y320000D02*
D03*
X550000Y300000D02*
D03*
X540000Y280000D02*
D03*
X550000Y260000D02*
D03*
X540000Y240000D02*
D03*
X550000Y220000D02*
D03*
X540000Y200000D02*
D03*
X550000Y180000D02*
D03*
X540000Y160000D02*
D03*
X550000Y140000D02*
D03*
X540000Y120000D02*
D03*
X530000Y340000D02*
D03*
X520000Y320000D02*
D03*
X530000Y300000D02*
D03*
X520000Y280000D02*
D03*
X530000Y260000D02*
D03*
X520000Y240000D02*
D03*
X530000Y220000D02*
D03*
X520000Y200000D02*
D03*
X530000Y180000D02*
D03*
X520000Y160000D02*
D03*
X530000Y140000D02*
D03*
X520000Y120000D02*
D03*
X510000Y340000D02*
D03*
X500000Y320000D02*
D03*
X510000Y300000D02*
D03*
X500000Y280000D02*
D03*
X510000Y260000D02*
D03*
X500000Y240000D02*
D03*
X510000Y220000D02*
D03*
X500000Y200000D02*
D03*
X510000Y180000D02*
D03*
X500000Y160000D02*
D03*
X510000Y140000D02*
D03*
X500000Y120000D02*
D03*
X490000Y340000D02*
D03*
X480000Y320000D02*
D03*
X490000Y300000D02*
D03*
X480000Y280000D02*
D03*
X490000Y260000D02*
D03*
X480000Y240000D02*
D03*
X490000Y220000D02*
D03*
X480000Y200000D02*
D03*
X490000Y180000D02*
D03*
X480000Y160000D02*
D03*
X490000Y140000D02*
D03*
X480000Y120000D02*
D03*
X470000Y340000D02*
D03*
X460000Y320000D02*
D03*
X470000Y300000D02*
D03*
X460000Y280000D02*
D03*
X470000Y260000D02*
D03*
X460000Y240000D02*
D03*
X470000Y220000D02*
D03*
X460000Y200000D02*
D03*
X470000Y180000D02*
D03*
X460000Y160000D02*
D03*
X470000Y140000D02*
D03*
X460000Y120000D02*
D03*
X450000Y340000D02*
D03*
Y260000D02*
D03*
Y220000D02*
D03*
Y180000D02*
D03*
X440000Y120000D02*
D03*
X430000Y340000D02*
D03*
X420000Y200000D02*
D03*
X410000Y340000D02*
D03*
X390000D02*
D03*
X370000D02*
D03*
X350000D02*
D03*
Y140000D02*
D03*
X330000Y340000D02*
D03*
X300000Y320000D02*
D03*
X230000Y260000D02*
D03*
X210000D02*
D03*
X190000Y340000D02*
D03*
X130000D02*
D03*
X120000Y320000D02*
D03*
X130000Y300000D02*
D03*
X120000Y280000D02*
D03*
X400000Y324261D02*
D03*
X290000Y220000D02*
D03*
X340000Y224261D02*
D03*
X400000D02*
D03*
X240000Y130000D02*
D03*
X170000Y264261D02*
D03*
X220000D02*
D03*
X310157Y350000D02*
D03*
X170000Y130000D02*
D03*
X220000D02*
D03*
X260000Y120000D02*
D03*
X320000Y342126D02*
D03*
M02*
