G04*
G04 #@! TF.GenerationSoftware,Altium Limited,Altium Designer,21.9.1 (22)*
G04*
G04 Layer_Physical_Order=1*
G04 Layer_Color=255*
%FSLAX25Y25*%
%MOIN*%
G70*
G04*
G04 #@! TF.SameCoordinates,C109554B-D48E-4F6B-8FAB-988FC137D98F*
G04*
G04*
G04 #@! TF.FilePolarity,Positive*
G04*
G01*
G75*
%ADD24C,0.00800*%
%ADD25C,0.02000*%
%ADD26C,0.04921*%
%ADD27R,0.04921X0.04921*%
%ADD28R,0.05906X0.05906*%
%ADD29C,0.05906*%
%ADD30C,0.05906*%
%ADD31C,0.08268*%
%ADD32R,0.05906X0.05906*%
%ADD33R,0.04921X0.04921*%
%ADD34C,0.03500*%
%ADD35C,0.02000*%
D24*
X500000Y160000D02*
X520000Y180000D01*
X442300Y238000D02*
X444000Y236300D01*
Y223500D02*
Y236300D01*
X450000Y260000D02*
X455000Y255000D01*
Y217000D02*
Y255000D01*
X330000Y217000D02*
Y280000D01*
X235000Y228000D02*
Y278000D01*
X450000Y220000D02*
Y240000D01*
X364100Y255900D02*
Y302000D01*
X365000Y302900D01*
Y311000D01*
X364100Y255900D02*
X370000Y250000D01*
X243000Y302153D02*
X245000Y304153D01*
X361000Y344000D02*
X361500Y343500D01*
Y201500D02*
Y343500D01*
X358000Y218000D02*
Y351000D01*
X355000Y226000D02*
Y265000D01*
X350000Y270000D02*
X355000Y265000D01*
X345000Y188933D02*
X345433Y188500D01*
X345000Y188933D02*
Y255000D01*
X350000Y260000D01*
X215000Y255000D02*
Y335000D01*
Y255000D02*
X220000Y250000D01*
X234700Y323700D02*
X236480Y325480D01*
X234700Y287200D02*
Y323700D01*
X445000Y323000D02*
Y323800D01*
Y323000D02*
X445079Y322921D01*
Y297921D02*
Y322921D01*
Y297921D02*
X448000Y295000D01*
X451000D01*
X455000Y291000D01*
Y275000D02*
Y291000D01*
X450000Y270000D02*
X455000Y275000D01*
X464000Y256000D02*
Y307000D01*
Y256000D02*
X470000Y250000D01*
Y260000D02*
X476000Y254000D01*
Y244000D02*
Y254000D01*
X479000Y230200D02*
Y266000D01*
X470000Y300000D02*
Y326000D01*
X474800Y226000D02*
X479000Y230200D01*
X475000Y270000D02*
X479000Y266000D01*
X470000Y270000D02*
X475000D01*
X482000Y222000D02*
Y358000D01*
X470000Y210000D02*
X482000Y222000D01*
X528000Y288000D02*
Y336000D01*
X520000Y280000D02*
X528000Y288000D01*
X520000Y290000D02*
X525000Y295000D01*
Y304153D01*
X520000Y270000D02*
X531000Y281000D01*
Y294000D01*
X260000Y245000D02*
Y336200D01*
X262200Y215700D02*
Y262200D01*
X270000Y270000D01*
X256000Y171500D02*
Y254000D01*
X250000Y260000D02*
X256000Y254000D01*
X245000Y265000D02*
X250000Y260000D01*
X464000Y166000D02*
X470000Y160000D01*
X464000Y166000D02*
Y204000D01*
X212800Y214500D02*
X214200Y213100D01*
X212800Y214500D02*
Y235800D01*
X210000Y180000D02*
Y212900D01*
X200000Y250000D02*
X208000Y242000D01*
Y218000D02*
Y242000D01*
X200000Y260000D02*
X210000Y250000D01*
Y212900D02*
Y250000D01*
X162000Y229000D02*
Y273200D01*
X162300Y273500D01*
X178700Y151300D02*
Y193400D01*
Y278700D01*
X179200Y279200D01*
X176400Y160400D02*
Y202300D01*
X181000Y185000D02*
Y289000D01*
X214400Y165600D02*
Y199900D01*
X216500Y202000D01*
Y202200D01*
X220000Y180000D02*
X228500Y171500D01*
Y122500D02*
Y171500D01*
X155000Y270000D02*
X156000Y269000D01*
Y255000D02*
Y269000D01*
X225000Y215600D02*
Y228000D01*
X212000Y202600D02*
X225000Y215600D01*
X212000Y158000D02*
Y202600D01*
Y158000D02*
X220000Y150000D01*
X200000Y170000D02*
X210000Y180000D01*
X214400Y165600D02*
X220000Y160000D01*
X332000Y138000D02*
Y186500D01*
Y138000D02*
X350000Y120000D01*
X414500Y135500D02*
Y191000D01*
Y135500D02*
X420000Y130000D01*
X379500Y133500D02*
Y183500D01*
X376000Y130000D02*
X379500Y133500D01*
X370000Y130000D02*
X376000D01*
X408000Y138000D02*
Y341500D01*
X400000Y130000D02*
X408000Y138000D01*
X410500Y130500D02*
Y177500D01*
X400000Y120000D02*
X410500Y130500D01*
X400000Y160000D02*
X405000Y165000D01*
Y338500D01*
X155000Y334500D02*
X157000Y336500D01*
X378000Y188000D02*
Y346500D01*
X364500Y189500D02*
X375000Y200000D01*
Y265000D01*
Y275000D02*
Y285000D01*
X370000Y290000D02*
X375000Y285000D01*
X370000Y270000D02*
X375000Y275000D01*
X370000Y270000D02*
X375000Y265000D01*
X370000Y180000D02*
X378000Y188000D01*
X364500Y174000D02*
Y189500D01*
X361500Y158500D02*
Y201500D01*
Y158500D02*
X370000Y150000D01*
X320000Y140000D02*
X320500D01*
X326500Y134000D01*
X350000Y130000D02*
X358000Y138000D01*
Y218000D01*
X335500Y174500D02*
Y349000D01*
X310000Y190000D02*
Y351500D01*
X307500Y182000D02*
Y348500D01*
X335500Y174500D02*
X350000Y160000D01*
X306000Y350000D02*
X307500Y348500D01*
X310000Y190000D02*
X320000Y180000D01*
X307500Y182000D02*
X312500Y177000D01*
Y157500D02*
Y177000D01*
Y157500D02*
X320000Y150000D01*
X325000Y195200D02*
Y265000D01*
X312500Y257500D02*
Y326000D01*
X147100Y345551D02*
Y346399D01*
X147000Y342339D02*
X149080Y344420D01*
X149000Y340379D02*
X151060Y342440D01*
X151000Y338420D02*
X153040Y340460D01*
X153000Y336460D02*
X155020Y338480D01*
X141400Y347770D02*
X143141Y349511D01*
X141400Y328400D02*
Y347770D01*
X143141Y349511D02*
Y350359D01*
X141000Y328000D02*
X141400Y328400D01*
X143000Y345410D02*
X145121Y347531D01*
Y348379D01*
X145400Y343850D02*
X147100Y345551D01*
X145400Y328400D02*
Y343850D01*
X145000Y328000D02*
X145400Y328400D01*
X155000Y270000D02*
Y334500D01*
X186000Y166000D02*
Y310000D01*
Y166000D02*
X187000Y165000D01*
X183700Y175000D02*
Y299700D01*
X147000Y306111D02*
Y342339D01*
X143000Y326111D02*
Y345410D01*
X145000Y316111D02*
Y328000D01*
X141000Y325000D02*
Y328000D01*
X323600Y193800D02*
X325000Y195200D01*
X320000Y270000D02*
X325000Y265000D01*
X151000Y286111D02*
Y338420D01*
X153000Y276111D02*
Y336460D01*
X149000Y296111D02*
Y340379D01*
X143000Y323889D02*
X143200Y324089D01*
X143000Y315000D02*
Y323889D01*
X153000Y265000D02*
Y273889D01*
X153200Y274089D01*
X153000Y276111D02*
X153200Y275911D01*
Y274089D02*
Y275911D01*
X151000Y275000D02*
Y283889D01*
Y286111D02*
X151200Y285911D01*
X151000Y283889D02*
X151200Y284089D01*
Y285911D01*
X147000Y295000D02*
Y303889D01*
X149000Y285000D02*
Y293889D01*
X145000Y305000D02*
Y313889D01*
X139000Y259000D02*
Y323889D01*
X130000Y250000D02*
X139000Y259000D01*
X149200Y294089D02*
Y295911D01*
X149000Y296111D02*
X149200Y295911D01*
X149000Y293889D02*
X149200Y294089D01*
X147000Y306111D02*
X147200Y305911D01*
Y304089D02*
Y305911D01*
X147000Y303889D02*
X147200Y304089D01*
X145200Y314089D02*
Y315911D01*
X145000Y313889D02*
X145200Y314089D01*
X145000Y316111D02*
X145200Y315911D01*
X143000Y326111D02*
X143200Y325911D01*
X138800D02*
X139000Y326111D01*
X138800Y324089D02*
X139000Y323889D01*
Y326111D02*
Y352000D01*
X138800Y324089D02*
Y325911D01*
X143200Y324089D02*
Y325911D01*
X139000Y352000D02*
X140000Y353000D01*
X137000Y307000D02*
Y355000D01*
X130000Y300000D02*
X137000Y307000D01*
X130000Y310000D02*
X135000Y315000D01*
X130000Y358000D02*
X135000Y353000D01*
Y315000D02*
Y353000D01*
X427000Y355000D02*
Y356200D01*
X520000Y300000D02*
Y352000D01*
X470000Y280000D02*
X475400Y285400D01*
Y297500D01*
X474800D02*
X475400D01*
X424800Y228000D02*
X425000D01*
X427000Y217000D02*
Y355000D01*
X420000Y210000D02*
X427000Y217000D01*
X505000Y255000D02*
Y276000D01*
X495079Y274921D02*
Y309882D01*
Y274921D02*
X500000Y270000D01*
X420000Y300000D02*
Y334000D01*
X414500Y252500D02*
Y274500D01*
X442300Y238000D02*
Y282300D01*
X444500Y262000D02*
Y274500D01*
X450000Y280000D01*
X350000Y223500D02*
Y240000D01*
X442300Y282300D02*
X450000Y290000D01*
X255873Y260000D02*
Y284127D01*
X250000Y290000D02*
X255873Y284127D01*
X345000Y265000D02*
X350000Y260000D01*
X414500Y274500D02*
X420000Y280000D01*
Y260000D02*
X425000Y255000D01*
Y228000D02*
Y255000D01*
X395000D02*
X400000Y260000D01*
X395000Y223500D02*
Y255000D01*
X300000Y228500D02*
Y240000D01*
X295500Y200600D02*
Y255500D01*
X312500Y257500D02*
X320000Y250000D01*
X315000Y275000D02*
Y285000D01*
Y275000D02*
X320000Y270000D01*
X315000Y285000D02*
X320000Y290000D01*
X260800Y170900D02*
X262300Y172400D01*
Y215600D01*
X262200Y215700D02*
X262300Y215600D01*
X207700Y187700D02*
Y218000D01*
X260800Y168700D02*
Y170900D01*
X258600Y200000D02*
X259100Y200500D01*
X250000Y150000D02*
X258600Y158600D01*
Y200000D01*
X263000Y154000D02*
X264400Y155400D01*
Y169437D01*
Y184400D01*
X270000Y190000D01*
X470000Y180000D02*
Y210000D01*
X420000D02*
X425600Y204400D01*
Y175600D02*
Y204400D01*
X420000Y170000D02*
X425600Y175600D01*
X295500Y255500D02*
X300000Y260000D01*
X278300Y158300D02*
Y194000D01*
X270000Y150000D02*
X278300Y158300D01*
X176400Y202300D02*
Y269600D01*
X514000Y226000D02*
X530000Y210000D01*
X514000Y226000D02*
Y274000D01*
X520000Y280000D01*
X510000Y290000D02*
X520000Y300000D01*
X510000Y210000D02*
Y290000D01*
X500000Y250000D02*
X505000Y255000D01*
X494500Y165500D02*
X500000Y160000D01*
X494500Y165500D02*
Y234500D01*
X500000Y240000D01*
Y140000D02*
X530000Y170000D01*
Y210000D01*
X500000Y170000D02*
X510000Y180000D01*
Y210000D01*
X495000Y155000D02*
X500000Y160000D01*
X495000Y135000D02*
Y155000D01*
Y135000D02*
X500000Y130000D01*
X305500Y155500D02*
Y163000D01*
X300000Y150000D02*
X305500Y155500D01*
X293000Y137000D02*
Y153000D01*
X300000Y160000D01*
X394000Y163000D02*
Y222500D01*
X395000Y223500D01*
X225000Y228000D02*
Y265000D01*
X220000Y270000D02*
X225000Y265000D01*
X242500Y137500D02*
X250000Y130000D01*
X242500Y137500D02*
Y172500D01*
X245000Y165000D02*
Y183000D01*
Y165000D02*
X250000Y160000D01*
X186957Y157772D02*
X187000Y157815D01*
Y165000D01*
Y120000D02*
Y157729D01*
X186957Y157772D02*
X187000Y157729D01*
X465000Y155000D02*
X470000Y160000D01*
X465000Y135000D02*
Y155000D01*
Y135000D02*
X470000Y130000D01*
X276000Y176000D02*
Y186720D01*
X275720Y187000D02*
X276000Y186720D01*
X270000Y170000D02*
X276000Y176000D01*
X370000Y160000D02*
X376000Y154000D01*
Y137000D02*
Y154000D01*
X320000Y170000D02*
X325000Y165000D01*
Y145000D02*
Y165000D01*
X320000Y140000D02*
X325000Y145000D01*
X260000Y120000D02*
X270000Y130000D01*
X250000Y120000D02*
X260000D01*
X420000Y150000D02*
Y160000D01*
Y140000D02*
Y150000D01*
Y170000D02*
X450000Y140000D01*
X445000Y125000D02*
X450000Y120000D01*
X445000Y125000D02*
Y135000D01*
X470000Y140000D02*
X475000Y145000D01*
Y165000D01*
X470000Y170000D02*
X475000Y165000D01*
X450000Y130000D02*
Y140000D01*
X265000Y275000D02*
X270000Y270000D01*
X265000Y275000D02*
Y285000D01*
X270000Y290000D01*
X243000Y257000D02*
Y302153D01*
Y257000D02*
X250000Y250000D01*
X245000Y275000D02*
X250000Y280000D01*
X245000Y265000D02*
Y275000D01*
X295000Y265000D02*
X300000Y260000D01*
X295000Y275000D02*
X300000Y280000D01*
X295000Y265000D02*
Y275000D01*
X395000D02*
X400000Y280000D01*
X395000Y265000D02*
Y275000D01*
Y265000D02*
X400000Y260000D01*
X345000Y275000D02*
X350000Y280000D01*
X345000Y265000D02*
Y275000D01*
X220000Y270000D02*
X225000Y275000D01*
Y285000D01*
X220000Y290000D02*
X225000Y285000D01*
X200000Y240000D02*
X205000Y235000D01*
Y221000D02*
Y235000D01*
X200000Y180000D02*
X207700Y187700D01*
X200000Y190000D02*
X205000Y195000D01*
Y221000D01*
X207700Y218000D02*
X208000D01*
X176000Y270000D02*
X176400Y269600D01*
X176000Y160000D02*
X176400Y160400D01*
X179200Y279200D02*
Y280000D01*
X178700D02*
X179200D01*
X178700Y151300D02*
X179000Y151000D01*
X183700Y300000D02*
X183850Y299850D01*
X183700Y299700D02*
X183850Y299850D01*
X181400Y140000D02*
Y184600D01*
X181000Y185000D02*
X181400Y184600D01*
X183700Y130300D02*
X184000Y130000D01*
X183700Y130300D02*
Y175000D01*
D25*
X143000Y210000D02*
Y210950D01*
X240158Y205000D02*
Y232000D01*
X458000Y203000D02*
Y292000D01*
X450000Y300000D02*
X458000Y292000D01*
X440000Y232000D02*
Y315000D01*
Y195158D02*
Y232000D01*
X450000Y300000D02*
Y315000D01*
Y195000D02*
X458000Y203000D01*
X500000Y300000D02*
Y315000D01*
X520000Y260000D02*
X525500Y254500D01*
Y245500D02*
Y254500D01*
X520000Y240000D02*
X525500Y245500D01*
X550000Y270000D02*
X555500Y264500D01*
Y255500D02*
Y264500D01*
X550000Y250000D02*
X555500Y255500D01*
X550000Y270000D02*
X555500Y275500D01*
Y284500D01*
X550000Y290000D02*
X555500Y284500D01*
X450000Y160000D02*
Y170000D01*
X440158Y179842D02*
Y195000D01*
Y179842D02*
X450000Y170000D01*
X190157Y115000D02*
Y225000D01*
X143000Y128063D02*
Y210000D01*
Y128063D02*
X150000Y121063D01*
X550000Y315000D02*
Y350000D01*
X190157Y232000D02*
Y345000D01*
Y225000D02*
Y232000D01*
X540000D02*
X540158Y232157D01*
Y315000D01*
X490158Y232000D02*
Y315000D01*
X490000Y232000D02*
X490158D01*
X440000Y315000D02*
X440158D01*
X390158Y232000D02*
Y315000D01*
Y195000D02*
Y232000D01*
X340158Y195000D02*
Y232000D01*
Y315000D01*
X340000Y232000D02*
X340158D01*
X290158Y205000D02*
Y232000D01*
Y315000D01*
X290000Y232000D02*
X290158D01*
X240158D02*
Y315000D01*
X240000Y232000D02*
X240158D01*
X550000Y300000D02*
Y315000D01*
X400000Y300000D02*
Y315000D01*
X350000Y300000D02*
Y315000D01*
X300000Y300000D02*
Y315000D01*
X250000Y300000D02*
Y315000D01*
X200000Y330000D02*
Y345000D01*
Y210000D02*
Y225000D01*
X250000Y190000D02*
Y205000D01*
X300000Y190000D02*
Y205000D01*
X350000Y180000D02*
Y195000D01*
X400000Y180000D02*
Y195000D01*
X450000Y180000D02*
Y195000D01*
X500000Y180000D02*
Y195000D01*
X490000Y195158D02*
Y232000D01*
Y195158D02*
X490158Y195000D01*
X390000Y232000D02*
X390158D01*
D26*
X490158Y195000D02*
D03*
X150000Y128937D02*
D03*
X240158Y315000D02*
D03*
X290158D02*
D03*
X340158D02*
D03*
X390158D02*
D03*
X440158D02*
D03*
X490158D02*
D03*
X190157Y345000D02*
D03*
X540158Y315000D02*
D03*
X440158Y195000D02*
D03*
X340158D02*
D03*
X390158D02*
D03*
X240158Y205000D02*
D03*
X290158D02*
D03*
X190157Y225000D02*
D03*
D27*
X500000Y195000D02*
D03*
X250000Y315000D02*
D03*
X300000D02*
D03*
X350000D02*
D03*
X400000D02*
D03*
X450000D02*
D03*
X500000D02*
D03*
X200000Y345000D02*
D03*
X550000Y315000D02*
D03*
X450000Y195000D02*
D03*
X350000D02*
D03*
X400000D02*
D03*
X250000Y205000D02*
D03*
X300000D02*
D03*
X200000Y225000D02*
D03*
D28*
X170000Y210000D02*
D03*
X470000Y180000D02*
D03*
X270000Y190000D02*
D03*
X220000Y300000D02*
D03*
X270000D02*
D03*
X320000D02*
D03*
X370000D02*
D03*
X420000D02*
D03*
X170000Y330000D02*
D03*
X470000Y300000D02*
D03*
X520000D02*
D03*
X420000Y180000D02*
D03*
X320000D02*
D03*
X370000D02*
D03*
X220000Y190000D02*
D03*
D29*
X170000Y200000D02*
D03*
Y190000D02*
D03*
Y180000D02*
D03*
Y170000D02*
D03*
Y160000D02*
D03*
Y150000D02*
D03*
Y140000D02*
D03*
Y130000D02*
D03*
Y120000D02*
D03*
X200000Y210000D02*
D03*
Y190000D02*
D03*
Y180000D02*
D03*
Y170000D02*
D03*
Y160000D02*
D03*
Y150000D02*
D03*
Y140000D02*
D03*
Y130000D02*
D03*
Y120000D02*
D03*
X470000Y170000D02*
D03*
Y160000D02*
D03*
Y150000D02*
D03*
Y140000D02*
D03*
Y130000D02*
D03*
Y120000D02*
D03*
X500000Y180000D02*
D03*
Y170000D02*
D03*
Y160000D02*
D03*
Y150000D02*
D03*
Y140000D02*
D03*
Y130000D02*
D03*
Y120000D02*
D03*
X270000Y180000D02*
D03*
Y170000D02*
D03*
Y160000D02*
D03*
Y150000D02*
D03*
Y140000D02*
D03*
Y130000D02*
D03*
Y120000D02*
D03*
X300000Y190000D02*
D03*
Y180000D02*
D03*
Y170000D02*
D03*
Y160000D02*
D03*
Y150000D02*
D03*
Y140000D02*
D03*
Y130000D02*
D03*
Y120000D02*
D03*
X250000Y240000D02*
D03*
Y250000D02*
D03*
Y260000D02*
D03*
Y270000D02*
D03*
Y280000D02*
D03*
Y290000D02*
D03*
Y300000D02*
D03*
X220000Y240000D02*
D03*
Y250000D02*
D03*
Y260000D02*
D03*
Y270000D02*
D03*
Y280000D02*
D03*
Y290000D02*
D03*
X300000Y240000D02*
D03*
Y250000D02*
D03*
Y260000D02*
D03*
Y270000D02*
D03*
Y280000D02*
D03*
Y290000D02*
D03*
Y300000D02*
D03*
X270000Y240000D02*
D03*
Y250000D02*
D03*
Y260000D02*
D03*
Y270000D02*
D03*
Y280000D02*
D03*
Y290000D02*
D03*
X350000Y240000D02*
D03*
Y250000D02*
D03*
Y260000D02*
D03*
Y270000D02*
D03*
Y280000D02*
D03*
Y290000D02*
D03*
Y300000D02*
D03*
X320000Y240000D02*
D03*
Y250000D02*
D03*
Y260000D02*
D03*
Y270000D02*
D03*
Y280000D02*
D03*
Y290000D02*
D03*
X400000Y240000D02*
D03*
Y250000D02*
D03*
Y260000D02*
D03*
Y270000D02*
D03*
Y280000D02*
D03*
Y290000D02*
D03*
Y300000D02*
D03*
X370000Y240000D02*
D03*
Y250000D02*
D03*
Y260000D02*
D03*
Y270000D02*
D03*
Y280000D02*
D03*
Y290000D02*
D03*
X450000Y240000D02*
D03*
Y250000D02*
D03*
Y260000D02*
D03*
Y270000D02*
D03*
Y280000D02*
D03*
Y290000D02*
D03*
Y300000D02*
D03*
X420000Y240000D02*
D03*
Y250000D02*
D03*
Y260000D02*
D03*
Y270000D02*
D03*
Y280000D02*
D03*
Y290000D02*
D03*
X170000Y320000D02*
D03*
Y310000D02*
D03*
Y300000D02*
D03*
Y290000D02*
D03*
Y280000D02*
D03*
Y270000D02*
D03*
Y260000D02*
D03*
Y250000D02*
D03*
Y240000D02*
D03*
X200000Y330000D02*
D03*
Y310000D02*
D03*
Y300000D02*
D03*
Y290000D02*
D03*
Y280000D02*
D03*
Y270000D02*
D03*
Y260000D02*
D03*
Y250000D02*
D03*
Y240000D02*
D03*
X470000Y290000D02*
D03*
Y280000D02*
D03*
Y270000D02*
D03*
Y260000D02*
D03*
Y250000D02*
D03*
Y240000D02*
D03*
X500000Y300000D02*
D03*
Y290000D02*
D03*
Y280000D02*
D03*
Y270000D02*
D03*
Y260000D02*
D03*
Y250000D02*
D03*
Y240000D02*
D03*
X550000D02*
D03*
Y250000D02*
D03*
Y260000D02*
D03*
Y270000D02*
D03*
Y280000D02*
D03*
Y290000D02*
D03*
Y300000D02*
D03*
X520000Y240000D02*
D03*
Y250000D02*
D03*
Y260000D02*
D03*
Y270000D02*
D03*
Y280000D02*
D03*
Y290000D02*
D03*
X450000Y120000D02*
D03*
Y130000D02*
D03*
Y140000D02*
D03*
Y150000D02*
D03*
Y160000D02*
D03*
Y170000D02*
D03*
Y180000D02*
D03*
X420000Y120000D02*
D03*
Y130000D02*
D03*
Y140000D02*
D03*
Y150000D02*
D03*
Y160000D02*
D03*
Y170000D02*
D03*
X350000Y120000D02*
D03*
Y130000D02*
D03*
Y140000D02*
D03*
Y150000D02*
D03*
Y160000D02*
D03*
Y170000D02*
D03*
Y180000D02*
D03*
X320000Y120000D02*
D03*
Y130000D02*
D03*
Y140000D02*
D03*
Y150000D02*
D03*
Y160000D02*
D03*
Y170000D02*
D03*
X400000Y120000D02*
D03*
Y130000D02*
D03*
Y140000D02*
D03*
Y150000D02*
D03*
Y160000D02*
D03*
Y170000D02*
D03*
Y180000D02*
D03*
X370000Y120000D02*
D03*
Y130000D02*
D03*
Y140000D02*
D03*
Y150000D02*
D03*
Y160000D02*
D03*
Y170000D02*
D03*
X220000Y180000D02*
D03*
Y170000D02*
D03*
Y160000D02*
D03*
Y150000D02*
D03*
Y140000D02*
D03*
Y130000D02*
D03*
Y120000D02*
D03*
X250000Y190000D02*
D03*
Y180000D02*
D03*
Y170000D02*
D03*
Y160000D02*
D03*
Y150000D02*
D03*
Y140000D02*
D03*
Y130000D02*
D03*
Y120000D02*
D03*
D30*
X200000Y200000D02*
D03*
X130000Y330000D02*
D03*
Y320000D02*
D03*
Y310000D02*
D03*
Y300000D02*
D03*
Y290000D02*
D03*
Y280000D02*
D03*
Y270000D02*
D03*
Y260000D02*
D03*
Y250000D02*
D03*
Y240000D02*
D03*
Y230000D02*
D03*
Y220000D02*
D03*
Y210000D02*
D03*
Y200000D02*
D03*
Y190000D02*
D03*
Y180000D02*
D03*
Y170000D02*
D03*
Y160000D02*
D03*
Y150000D02*
D03*
Y140000D02*
D03*
Y130000D02*
D03*
X110000D02*
D03*
Y140000D02*
D03*
Y150000D02*
D03*
Y160000D02*
D03*
Y170000D02*
D03*
Y180000D02*
D03*
Y190000D02*
D03*
Y200000D02*
D03*
Y210000D02*
D03*
Y220000D02*
D03*
Y230000D02*
D03*
Y240000D02*
D03*
Y250000D02*
D03*
Y260000D02*
D03*
Y270000D02*
D03*
Y280000D02*
D03*
Y290000D02*
D03*
Y300000D02*
D03*
Y310000D02*
D03*
Y320000D02*
D03*
Y330000D02*
D03*
X120000D02*
D03*
Y320000D02*
D03*
Y310000D02*
D03*
Y300000D02*
D03*
Y290000D02*
D03*
Y280000D02*
D03*
Y270000D02*
D03*
Y260000D02*
D03*
Y250000D02*
D03*
Y240000D02*
D03*
Y230000D02*
D03*
Y220000D02*
D03*
Y210000D02*
D03*
Y200000D02*
D03*
Y190000D02*
D03*
Y180000D02*
D03*
Y170000D02*
D03*
Y160000D02*
D03*
Y150000D02*
D03*
Y140000D02*
D03*
Y130000D02*
D03*
X200000Y320000D02*
D03*
D31*
X520000Y150000D02*
D03*
Y120000D02*
D03*
X550000Y350000D02*
D03*
X470000Y210000D02*
D03*
X420000D02*
D03*
X530000D02*
D03*
X510000D02*
D03*
X540000Y130000D02*
D03*
X520000Y180000D02*
D03*
D32*
X130000Y120000D02*
D03*
X110000D02*
D03*
X120000D02*
D03*
D33*
X150000Y121063D02*
D03*
D34*
X143000Y210950D02*
D03*
X190157Y115000D02*
D03*
X540000Y232000D02*
D03*
X440000D02*
D03*
X490000D02*
D03*
X390000D02*
D03*
X340000D02*
D03*
X290000D02*
D03*
X240000D02*
D03*
X190157D02*
D03*
D35*
X455000Y217000D02*
D03*
X330000D02*
D03*
Y280000D02*
D03*
X235000Y278000D02*
D03*
Y228000D02*
D03*
X450000Y220000D02*
D03*
X365000Y311000D02*
D03*
X245000Y304153D02*
D03*
X361000Y344000D02*
D03*
X358000Y351000D02*
D03*
X355000Y226000D02*
D03*
X345433Y188500D02*
D03*
X215000Y335000D02*
D03*
X236480Y325480D02*
D03*
X234700Y287200D02*
D03*
X445000Y323800D02*
D03*
X476000Y244000D02*
D03*
X464000Y307000D02*
D03*
X482000Y358000D02*
D03*
X528000Y336000D02*
D03*
X531000Y294000D02*
D03*
X260000Y336200D02*
D03*
Y245000D02*
D03*
X464000Y204000D02*
D03*
X214200Y213100D02*
D03*
X212800Y235800D02*
D03*
X162300Y273500D02*
D03*
X178700Y193400D02*
D03*
X176400Y202300D02*
D03*
X181000Y185000D02*
D03*
X216500Y202200D02*
D03*
X228500Y122500D02*
D03*
X156000Y255000D02*
D03*
X162000Y229000D02*
D03*
X332000Y186500D02*
D03*
X414500Y191000D02*
D03*
X379500Y183500D02*
D03*
X410500Y177500D02*
D03*
X157000Y336500D02*
D03*
X408000Y341500D02*
D03*
X405000Y338500D02*
D03*
X378000Y346500D02*
D03*
X364500Y174000D02*
D03*
X326500Y134000D02*
D03*
X335500Y349000D02*
D03*
X306000Y350000D02*
D03*
X310000Y351500D02*
D03*
X312500Y326000D02*
D03*
X147100Y346399D02*
D03*
X149080Y344420D02*
D03*
X151060Y342440D02*
D03*
X153040Y340460D02*
D03*
X155020Y338480D02*
D03*
X143141Y350359D02*
D03*
X145121Y348379D02*
D03*
X323600Y193800D02*
D03*
X153000Y265000D02*
D03*
X151000Y275000D02*
D03*
X149000Y285000D02*
D03*
X147000Y295000D02*
D03*
X145000Y305000D02*
D03*
X143000Y315000D02*
D03*
X141000Y325000D02*
D03*
X140000Y353000D02*
D03*
X137000Y355000D02*
D03*
X130000Y358000D02*
D03*
X427000Y356200D02*
D03*
X520000Y352000D02*
D03*
X474800Y226000D02*
D03*
Y297500D02*
D03*
X424800Y228000D02*
D03*
X505000Y276000D02*
D03*
X420000Y334000D02*
D03*
X525000Y304153D02*
D03*
X350000Y223500D02*
D03*
X444000D02*
D03*
X255873Y260000D02*
D03*
X444500Y262000D02*
D03*
X414500Y252500D02*
D03*
X300000Y228500D02*
D03*
X470000Y326000D02*
D03*
X207700Y218000D02*
D03*
X262300Y215600D02*
D03*
X210000Y212900D02*
D03*
X256000Y171500D02*
D03*
X260800Y168700D02*
D03*
X259100Y200500D02*
D03*
X295500Y200600D02*
D03*
X278300Y194000D02*
D03*
X495079Y309882D02*
D03*
X305500Y163000D02*
D03*
X394000D02*
D03*
X225000Y228000D02*
D03*
X242500Y172500D02*
D03*
X186957Y157772D02*
D03*
X293000Y137000D02*
D03*
X275720Y187000D02*
D03*
X376000Y137000D02*
D03*
X445000Y135000D02*
D03*
X245000Y183000D02*
D03*
X263000Y154000D02*
D03*
X205000Y221000D02*
D03*
X176000Y270000D02*
D03*
Y160000D02*
D03*
X178700Y280000D02*
D03*
X179000Y151000D02*
D03*
X181000Y289000D02*
D03*
X183700Y300000D02*
D03*
X181400Y140000D02*
D03*
X184000Y130000D02*
D03*
X183700Y175000D02*
D03*
X186000Y310000D02*
D03*
X187000Y120000D02*
D03*
M02*
