G04*
G04 #@! TF.GenerationSoftware,Altium Limited,Altium Designer,21.9.1 (22)*
G04*
G04 Layer_Physical_Order=2*
G04 Layer_Color=16711680*
%FSLAX25Y25*%
%MOIN*%
G70*
G04*
G04 #@! TF.SameCoordinates,C109554B-D48E-4F6B-8FAB-988FC137D98F*
G04*
G04*
G04 #@! TF.FilePolarity,Positive*
G04*
G01*
G75*
%ADD24C,0.00800*%
%ADD25C,0.02000*%
%ADD26C,0.04921*%
%ADD27R,0.04921X0.04921*%
%ADD28R,0.05906X0.05906*%
%ADD29C,0.05906*%
%ADD30C,0.05906*%
%ADD31C,0.08268*%
%ADD32R,0.05906X0.05906*%
%ADD33R,0.04921X0.04921*%
%ADD34C,0.03500*%
%ADD35C,0.02000*%
D24*
X500000Y150000D02*
X520000D01*
X470000Y140000D02*
X475000Y135000D01*
X535000D01*
X540000Y130000D01*
X470000D02*
X490000D01*
X500000Y120000D01*
X132847Y205847D02*
X135000Y208000D01*
X163900D02*
X166053Y205847D01*
X135000Y208000D02*
X163900D01*
X330000Y217000D02*
X455000D01*
X320000Y280000D02*
X330000D01*
X322873Y277000D02*
X347127D01*
X321720Y275847D02*
X322873Y277000D01*
X417127D02*
X418280Y275847D01*
X223847D02*
X226000Y278000D01*
X196653Y275847D02*
X223847D01*
X226000Y278000D02*
X235000D01*
X222383Y274247D02*
X244247D01*
X250000Y280000D01*
X175000D02*
X178400Y276600D01*
X235000Y228000D02*
X294000D01*
X302000Y220000D01*
X450000D01*
X355200Y225800D02*
X474800D01*
X361000Y311000D02*
X365000D01*
X226700Y309300D02*
X359300D01*
X361000Y311000D01*
X236061Y311339D02*
X355339D01*
X359000Y315000D02*
X379000D01*
X355339Y311339D02*
X359000Y315000D01*
X382661Y311339D02*
X493621D01*
X379000Y315000D02*
X382661Y311339D01*
X227400Y320000D02*
X236061Y311339D01*
X221720Y305847D02*
X223073Y307200D01*
X463800D01*
X365847Y304153D02*
X370000Y300000D01*
X324153Y304153D02*
X365847D01*
X221000Y315000D02*
X226700Y309300D01*
X224153Y304153D02*
X245000D01*
X265847D01*
X175000Y315000D02*
X221000D01*
X170000Y320000D02*
X175000Y315000D01*
X315500Y344000D02*
X361000D01*
X316500Y341500D02*
X408000D01*
X313500Y351500D02*
X357500D01*
X358000Y351000D01*
X355000Y226000D02*
X355200Y225800D01*
X350000Y223500D02*
X444000D01*
X335000Y188500D02*
X345433D01*
X338000Y191000D02*
X414500D01*
X331200Y197800D02*
X338000Y191000D01*
X257000Y334000D02*
X420000D01*
X256000Y335000D02*
X257000Y334000D01*
X215000Y335000D02*
X256000D01*
X307200Y323800D02*
X445000D01*
X305520Y325480D02*
X307200Y323800D01*
X236480Y325480D02*
X305520D01*
X200000Y320000D02*
X227400D01*
X312500Y326000D02*
X470000D01*
X404153Y244153D02*
X475847D01*
X476000Y244000D01*
X196653Y305847D02*
X221720D01*
X463800Y307200D02*
X464000Y307000D01*
X428311Y358000D02*
X482000D01*
X427911Y358400D02*
X428311Y358000D01*
X260000Y336200D02*
X527800D01*
X528000Y336000D01*
X504500Y294500D02*
X530500D01*
X531000Y294000D01*
X500000Y290000D02*
X504500Y294500D01*
X212263Y340500D02*
X315500D01*
X211500Y344500D02*
X312500D01*
X212000Y342500D02*
X314000D01*
X315500Y344000D01*
X212526Y338500D02*
X405000D01*
X312500Y344500D02*
X314500Y346500D01*
X315500Y340500D02*
X316500Y341500D01*
X266653Y294153D02*
X272847D01*
X262500Y290000D02*
X266653Y294153D01*
X174153Y295847D02*
X474347D01*
X170000Y300000D02*
X174153Y295847D01*
X250000Y290000D02*
X262500D01*
X249127Y245000D02*
X260000D01*
X247127Y247000D02*
X249127Y245000D01*
X222873Y247000D02*
X247127D01*
X197153Y245847D02*
X202847D01*
X194000Y249000D02*
X197153Y245847D01*
X178000Y249000D02*
X194000D01*
X175753Y244247D02*
X245753D01*
X202847Y245847D02*
X204000Y247000D01*
X245753Y244247D02*
X250000Y240000D01*
X170000Y250000D02*
X175753Y244247D01*
X218280Y245847D02*
X221720D01*
X217127Y247000D02*
X218280Y245847D01*
X204000Y247000D02*
X217127D01*
X221720Y245847D02*
X222873Y247000D01*
X253747Y254247D02*
X255253Y255753D01*
X170000Y260000D02*
X175753Y254247D01*
X253747D01*
X172000Y255000D02*
X178000Y249000D01*
X163427Y255000D02*
X172000D01*
X158427Y260000D02*
X163427Y255000D01*
X130000Y260000D02*
X158427D01*
X203400Y235900D02*
X212900D01*
X463500Y203500D02*
X464000Y204000D01*
X309800Y203500D02*
X463500D01*
X300200Y213100D02*
X309800Y203500D01*
X214200Y213100D02*
X300200D01*
X204900Y215600D02*
X262300D01*
X204100Y216400D02*
X204900Y215600D01*
X120000Y220000D02*
X124153Y215847D01*
X212800Y235800D02*
X212900Y235900D01*
X202700Y235200D02*
X203400Y235900D01*
X181400Y235200D02*
X202700D01*
X171700Y244900D02*
X181400Y235200D01*
X115100Y244900D02*
X171700D01*
X110000Y250000D02*
X115100Y244900D01*
X175000Y310000D02*
X178400Y306600D01*
X170000Y310000D02*
X175000D01*
X178400Y306600D02*
X195900D01*
X196653Y305847D01*
Y285847D02*
X221720D01*
X223073Y287200D01*
X234700D01*
X175000Y290000D02*
X178400Y286600D01*
X170000Y290000D02*
X175000D01*
X178400Y286600D02*
X195900D01*
X196653Y285847D01*
X195900Y276600D02*
X196653Y275847D01*
X178400Y276600D02*
X195900D01*
X170000Y280000D02*
X175000D01*
X202383Y274247D02*
X217617D01*
X162300Y273500D02*
X163047Y274247D01*
X202383D01*
X217617D02*
X222383D01*
X170000Y190000D02*
X187700D01*
X189700Y192000D01*
X191853Y194153D02*
X206347D01*
X189700Y192000D02*
X191853Y194153D01*
X115753Y194247D02*
X177853D01*
X178700Y193400D01*
X174453Y204247D02*
X176400Y202300D01*
X173873Y188000D02*
X194000D01*
X196153Y185847D01*
X171720D02*
X173873Y188000D01*
X210500Y190000D02*
X220000D01*
X206347Y194153D02*
X210500Y190000D01*
X230347Y194153D02*
X278453D01*
X228653Y195847D02*
X230347Y194153D01*
X167453Y195847D02*
X228653D01*
X164300Y199000D02*
X167453Y195847D01*
X214547Y204153D02*
X216500Y202200D01*
X193500Y204153D02*
X214547D01*
X170000Y200000D02*
X189347D01*
X193500Y204153D01*
X200000Y200000D02*
X231000D01*
X230153Y124153D02*
X301153D01*
X228500Y122500D02*
X230153Y124153D01*
X125000Y255000D02*
X156000D01*
X134873Y229000D02*
X162000D01*
X160753Y234247D02*
X174000Y221000D01*
X205000D01*
X170000Y130000D02*
X175500Y124500D01*
X218280Y125847D02*
X285847D01*
X290000Y130000D01*
X216933Y124500D02*
X218280Y125847D01*
X175500Y124500D02*
X216933D01*
X290000Y130000D02*
X300000D01*
X301153Y124153D02*
X307000Y130000D01*
X320000D01*
X310000Y189500D02*
X334000D01*
X305347Y194153D02*
X310000Y189500D01*
X282872Y194153D02*
X305347D01*
X334000Y189500D02*
X335000Y188500D01*
X302373Y186500D02*
X332000D01*
X294653Y184153D02*
X353736D01*
X290500Y180000D02*
X294653Y184153D01*
X360153D02*
X361500Y185500D01*
X377500D01*
X285153Y184153D02*
X286847Y185847D01*
X301720D01*
X264153Y184153D02*
X285153D01*
X301720Y185847D02*
X302373Y186500D01*
X250000Y180000D02*
X260000D01*
X264153Y184153D01*
X275720Y187000D02*
X282872Y194153D01*
X311500Y196000D02*
X313700Y193800D01*
X278453Y194153D02*
X280300Y196000D01*
X278300Y194000D02*
X278453Y194153D01*
X313700Y193800D02*
X323600D01*
X280300Y196000D02*
X311500D01*
X353736Y184153D02*
X360153D01*
X377500Y185500D02*
X379500Y183500D01*
X365764Y175847D02*
X402847D01*
X270000Y180000D02*
X290500D01*
X311000D02*
X315153Y175847D01*
X300000Y180000D02*
X311000D01*
X404500Y177500D02*
X410500D01*
X402847Y175847D02*
X404500Y177500D01*
X315153Y175847D02*
X325347D01*
X327412Y177912D02*
X346215D01*
X325347Y175847D02*
X327412Y177912D01*
X363611Y178000D02*
X365764Y175847D01*
X353873Y178000D02*
X363611D01*
X351720Y175847D02*
X353873Y178000D01*
X348280Y175847D02*
X351720D01*
X346215Y177912D02*
X348280Y175847D01*
X304153Y174153D02*
X364347D01*
X300000Y170000D02*
X304153Y174153D01*
X364347D02*
X364500Y174000D01*
X232700Y198300D02*
X303589D01*
X304089Y197800D01*
X331200D01*
X231000Y200000D02*
X232700Y198300D01*
X229653Y205847D02*
X234900Y200600D01*
X295500D01*
X166053Y205847D02*
X229653D01*
X157000Y336500D02*
X158000Y337500D01*
X314500Y346500D02*
X378000D01*
X208302Y336539D02*
X212263Y340500D01*
X208965Y334939D02*
X212526Y338500D01*
X325000Y134000D02*
X326500D01*
X207639Y338139D02*
X212000Y342500D01*
X313500Y349000D02*
X335500D01*
X206739Y339739D02*
X211500Y344500D01*
X304126Y346500D02*
X304526Y346100D01*
X310600D01*
X313500Y349000D01*
X305089Y347800D02*
X309800D01*
X313500Y351500D01*
X306911Y352200D02*
X309300D01*
X310000Y351500D01*
X305089Y352200D02*
X306911D01*
X304889Y352000D02*
X305089Y352200D01*
X203881Y350000D02*
X306000D01*
X203309Y348309D02*
X304580D01*
X305089Y347800D01*
X211000Y346500D02*
X304126D01*
X205839Y341339D02*
X211000Y346500D01*
X144781Y352000D02*
X304889D01*
X141000Y354000D02*
X518000D01*
X138000Y356000D02*
X426000D01*
X130000Y358000D02*
X425689D01*
X208900Y334900D02*
X208939Y334939D01*
X208965D01*
X186030Y334900D02*
X208900D01*
X208000Y336500D02*
X208039Y336539D01*
X208302D01*
X189304Y339739D02*
X206739D01*
X188641Y341339D02*
X205839D01*
X183430Y337500D02*
X186030Y334900D01*
X183192Y340000D02*
X186692Y336500D01*
X208000D01*
X186890Y340827D02*
X187978Y339739D01*
X189304D01*
X187316Y338139D02*
X207639D01*
X188490Y341490D02*
X188641Y341339D01*
X189304Y339739D02*
X189304Y339739D01*
X158000Y337500D02*
X183430D01*
X156540Y340000D02*
X183192D01*
X155020Y338480D02*
X156540Y340000D01*
X154580Y342000D02*
X183455D01*
X187316Y338139D01*
X153040Y340460D02*
X154580Y342000D01*
X152621Y344000D02*
X183737D01*
X186890Y340827D02*
Y340828D01*
X184897Y342821D02*
X186890Y340828D01*
X184897Y342821D02*
Y342840D01*
X183737Y344000D02*
X184897Y342840D01*
X188490Y341490D02*
X188490Y341490D01*
X186497Y343484D02*
X188490Y341490D01*
X150661Y346000D02*
X184000D01*
X186497Y343484D02*
Y343503D01*
X184000Y346000D02*
X186497Y343503D01*
X187978Y350261D02*
X203620D01*
X203881Y350000D01*
X187718D02*
X187978Y350261D01*
X202958Y348661D02*
X203309Y348309D01*
X148701Y348000D02*
X187981D01*
X188641Y348661D02*
X202958D01*
X187981Y348000D02*
X188641Y348661D01*
X146741Y350000D02*
X187718D01*
X151060Y342440D02*
X152621Y344000D01*
X149080Y344420D02*
X150661Y346000D01*
X147100Y346399D02*
X148701Y348000D01*
X425689Y358000D02*
X426089Y358400D01*
X145121Y348379D02*
X146741Y350000D01*
X143141Y350359D02*
X144781Y352000D01*
X140000Y353000D02*
X141000Y354000D01*
X125000Y285000D02*
X149000D01*
X125000Y265000D02*
X153000D01*
X125000Y275000D02*
X151000D01*
X120000Y250000D02*
X125000Y255000D01*
X120000Y260000D02*
X125000Y265000D01*
X120000Y270000D02*
X125000Y275000D01*
X132383Y234247D02*
X160753D01*
X125000Y295000D02*
X147000D01*
X125000Y305000D02*
X145000D01*
X120000Y280000D02*
X125000Y285000D01*
X120000Y290000D02*
X125000Y295000D01*
X120000Y300000D02*
X125000Y305000D01*
Y315000D02*
X143000D01*
X120000Y310000D02*
X125000Y315000D01*
Y325000D02*
X141000D01*
X120000Y320000D02*
X125000Y325000D01*
X137000Y355000D02*
X138000Y356000D01*
X426089Y358400D02*
X427911D01*
X518000Y354000D02*
X520000Y352000D01*
X426400Y355600D02*
X427000Y356200D01*
X426000Y356000D02*
X426400Y355600D01*
X474347Y295847D02*
X475400Y296900D01*
X474800Y225800D02*
Y226000D01*
Y297500D02*
X475400Y296900D01*
X424800Y228000D02*
X424900Y228100D01*
X424500Y228500D02*
X424900Y228100D01*
X280026Y154153D02*
X314153D01*
X320000Y160000D01*
X271720Y145847D02*
X280026Y154153D01*
X220000Y140000D02*
X225847Y145847D01*
X271720D01*
X263000Y140000D02*
X267153Y144153D01*
X296653D01*
X298347Y145847D01*
X250000Y140000D02*
X263000D01*
X365653Y294153D02*
X374347D01*
X378500Y290000D02*
X400000D01*
X374347Y294153D02*
X378500Y290000D01*
X315653Y294153D02*
X324847D01*
X329000Y290000D02*
X350000D01*
X324847Y294153D02*
X329000Y290000D01*
X350000D02*
X361500D01*
X365653Y294153D01*
X277000Y290000D02*
X300000D01*
X272847Y294153D02*
X277000Y290000D01*
X300000D02*
X311500D01*
X315653Y294153D01*
X404153D02*
X495847D01*
X400000Y290000D02*
X404153Y294153D01*
X495847D02*
X500000Y290000D01*
X275753Y285753D02*
X403253D01*
X270000Y280000D02*
X275753Y285753D01*
X401720Y284153D02*
X418280D01*
X407500Y290000D02*
X420000D01*
X403253Y285753D02*
X407500Y290000D01*
X393153Y284153D02*
X401720D01*
X389500Y280500D02*
X393153Y284153D01*
X464153D02*
X470000Y290000D01*
X370000Y280000D02*
X389500D01*
X410047Y274153D02*
X414200Y270000D01*
X398280Y275847D02*
X401720D01*
X372873Y277000D02*
X397127D01*
X398280Y274153D02*
X410047D01*
X397127Y277000D02*
X398280Y275847D01*
X371720Y274153D02*
X398280D01*
X418280Y284153D02*
X464153D01*
X401720Y275847D02*
X402873Y277000D01*
X417127D01*
X421720Y275847D02*
X448280D01*
X451720D02*
X468280D01*
X471720D02*
X496653D01*
X501720D01*
X504847D02*
X505000Y276000D01*
X501720Y275847D02*
X504847D01*
X468280D02*
X471720D01*
X448280D02*
X451720D01*
X418280D02*
X421720D01*
X348280D02*
X351720D01*
X352873Y277000D01*
X367127D01*
X371720Y275847D02*
X372873Y277000D01*
X347127D02*
X348280Y275847D01*
X367127Y277000D02*
X368280Y275847D01*
X371720D01*
X302373Y276500D02*
X317627D01*
X318280Y275847D01*
X321720D01*
X297153D02*
X301720D01*
X294720Y278280D02*
X297153Y275847D01*
X301720D02*
X302373Y276500D01*
X276280Y278280D02*
X294720D01*
X263153Y275847D02*
X273847D01*
X276280Y278280D01*
X224153Y284153D02*
X254847D01*
X263153Y275847D01*
X374153Y304153D02*
X525000D01*
X370000Y300000D02*
X374153Y304153D01*
X300000Y228500D02*
X424500D01*
X175847Y264153D02*
X381347D01*
X170000Y270000D02*
X175847Y264153D01*
X381347D02*
X389653Y255847D01*
X300000Y270000D02*
X312000D01*
X254153Y274153D02*
X371720D01*
X312000Y270000D02*
X316153Y265847D01*
X431847Y264153D02*
X434000Y262000D01*
X444500D01*
X394653Y265847D02*
X396253Y264247D01*
X419753D01*
X419847Y264153D01*
X431847D01*
X404153Y265847D02*
X418280D01*
X400000Y270000D02*
X404153Y265847D01*
X366627Y267500D02*
X368280Y265847D01*
X353373Y267500D02*
X366627D01*
X351720Y265847D02*
X353373Y267500D01*
X368280Y265847D02*
X394653D01*
X321720D02*
X323873Y268000D01*
X346127D01*
X348280Y265847D01*
X351720D01*
X316153D02*
X321720D01*
X404500Y254247D02*
X406247Y252500D01*
X414500D01*
X416653Y255847D02*
X420000Y252500D01*
X389653Y255847D02*
X416653D01*
X420000Y250000D02*
Y252500D01*
X277253Y254247D02*
X404500D01*
X251720Y255847D02*
X255873Y260000D01*
X270000D02*
X294127D01*
X244127D02*
X248280Y255847D01*
X220000Y260000D02*
X244127D01*
X255873D02*
X270000D01*
X424347Y245847D02*
X428500Y250000D01*
X450000D01*
X401153Y244153D02*
X402847Y245847D01*
X275847Y244153D02*
X401153D01*
X402847Y245847D02*
X424347D01*
X400000Y240000D02*
X404153Y244153D01*
X270000Y250000D02*
X275847Y244153D01*
X275873Y250000D02*
X300000D01*
X271720Y254153D02*
X275873Y250000D01*
X255253Y255753D02*
X275747D01*
X277253Y254247D01*
X250000Y250000D02*
X264127D01*
X268280Y254153D01*
X271720D01*
X132847Y215847D02*
X133400Y216400D01*
X162337D01*
X204100D01*
X156753Y224247D02*
X163000Y218000D01*
X207700D01*
X115753Y214247D02*
X202700D01*
X204047Y212900D01*
X210000D01*
X110000Y220000D02*
X115753Y214247D01*
X124153Y215847D02*
X132847D01*
X250000Y170000D02*
X251300Y168700D01*
X260800D01*
X414200Y270000D02*
X420000D01*
X250000D02*
X254153Y274153D01*
X136000Y199000D02*
X164300D01*
X115753Y204247D02*
X174453D01*
X176000Y160000D02*
X200000D01*
X120000Y210000D02*
X124153Y205847D01*
X132847D01*
X110000Y210000D02*
X115753Y204247D01*
X132847Y195847D02*
X136000Y199000D01*
X120000Y200000D02*
X124153Y195847D01*
X132847D01*
X110000Y200000D02*
X115753Y194247D01*
Y184247D02*
X175500D01*
X176253Y185000D01*
X181000D01*
X110000Y190000D02*
X115753Y184247D01*
X165153Y185847D02*
X171720D01*
X162000Y189000D02*
X165153Y185847D01*
X124153Y185847D02*
X132847D01*
X120000Y190000D02*
X124153Y185847D01*
X132847D02*
X136000Y189000D01*
X493621Y311339D02*
X495079Y309882D01*
X220000Y280000D02*
X224153Y284153D01*
X262000Y155000D02*
X263000Y154000D01*
X188111Y155000D02*
X262000D01*
X170000Y150000D02*
X175000Y155000D01*
X298347Y145847D02*
X327347D01*
X331500Y150000D01*
X350000D01*
X300000Y140000D02*
X304153Y144153D01*
X394153D01*
X294127Y140000D02*
X298280Y135847D01*
X270000Y140000D02*
X294127D01*
X133847Y165847D02*
X285653D01*
X287347Y164153D02*
X304347D01*
X285653Y165847D02*
X287347Y164153D01*
X306653D02*
X371720D01*
X305500Y163000D02*
X306653Y164153D01*
X304347D02*
X305500Y163000D01*
X371720Y164153D02*
X372873Y163000D01*
X394000D01*
X370000Y170000D02*
X400000D01*
X350000D02*
X370000D01*
X252383Y164247D02*
X265753D01*
X270000Y160000D01*
X254847Y174153D02*
X256000Y173000D01*
Y171500D02*
Y173000D01*
X251720Y174153D02*
X254847D01*
X190247Y175753D02*
X294247D01*
X220000Y170000D02*
X244127D01*
X248280Y174153D02*
X251720D01*
X244127Y170000D02*
X248280Y174153D01*
X203753Y164247D02*
X247617D01*
X252383D01*
X189500D02*
X203753D01*
X185889Y155000D02*
X188111D01*
X175000D02*
X185889D01*
X187953Y162700D02*
X189500Y164247D01*
X124153Y235847D02*
X133847D01*
X135564Y237564D02*
X164436D01*
X133847Y235847D02*
X135564Y237564D01*
X127617Y234247D02*
X132383D01*
X120000Y240000D02*
X124153Y235847D01*
X110000Y240000D02*
X115753Y234247D01*
X127617D01*
X164436Y237564D02*
X173339Y228661D01*
X202958D01*
X203618Y228000D02*
X225000D01*
X202958Y228661D02*
X203618Y228000D01*
X198280Y174153D02*
X240847D01*
X242500Y172500D01*
X188800Y177200D02*
X190247Y175753D01*
X194127Y170000D02*
X198280Y174153D01*
X170000Y170000D02*
X194127D01*
X132447Y164153D02*
X141400Y155200D01*
X115847Y164153D02*
X132447D01*
X141400Y155200D02*
X172600D01*
X133847Y165847D02*
X133847Y165847D01*
X175172Y157772D02*
X186957D01*
X172600Y155200D02*
X175172Y157772D01*
X110000Y170000D02*
X115847Y164153D01*
X173098Y162700D02*
X187953D01*
X172647Y162647D02*
X173046D01*
X173098Y162700D01*
X170000Y160000D02*
X172647Y162647D01*
X120000Y170000D02*
X124153Y165847D01*
X133847D01*
X165000Y177000D02*
X166153Y175847D01*
X115847Y174153D02*
X182853D01*
X271720Y135847D02*
X272873Y137000D01*
X293000D01*
X224014Y138000D02*
X245000D01*
X247153Y135847D02*
X251720D01*
X245000Y138000D02*
X247153Y135847D01*
X251720D02*
X268280D01*
X271720D01*
X175000Y135000D02*
X221014D01*
X224014Y138000D01*
X170000Y140000D02*
X175000Y135000D01*
X224153Y134153D02*
X324847D01*
X220000Y130000D02*
X224153Y134153D01*
X465000Y185000D02*
X470000Y180000D01*
X425000Y185000D02*
X465000D01*
X420000Y180000D02*
X425000Y185000D01*
X196153Y185847D02*
X274567D01*
X275720Y187000D01*
X223000Y184153D02*
X224153Y183000D01*
X245000D01*
X136000Y189000D02*
X162000D01*
X248280Y255847D02*
X251720D01*
X294127Y260000D02*
X298280Y255847D01*
X301720D01*
X305873Y260000D02*
X320000D01*
X301720Y255847D02*
X305873Y260000D01*
X320000D02*
X344127D01*
X351720Y255847D02*
X355873Y260000D01*
X370000D01*
X348280Y255847D02*
X351720D01*
X344127Y260000D02*
X348280Y255847D01*
X351720Y135847D02*
X367153D01*
X325000Y137000D02*
X346000D01*
X347153Y135847D02*
X351720D01*
X346000Y137000D02*
X347153Y135847D01*
X367153D02*
X371720D01*
X374847D02*
X376000Y137000D01*
X371720Y135847D02*
X374847D01*
X323847D02*
X325000Y137000D01*
X298280Y135847D02*
X323847D01*
X324847Y134153D02*
X325000Y134000D01*
X394153Y144153D02*
X400000Y150000D01*
X450000Y140000D02*
X460000D01*
X470000Y150000D01*
X304153Y124153D02*
X454153D01*
X470000Y140000D01*
X300000Y120000D02*
X304153Y124153D01*
X405000Y135000D02*
X445000D01*
X400000Y140000D02*
X405000Y135000D01*
X370000Y140000D02*
X400000D01*
X350000D02*
X370000D01*
X320000D02*
X350000D01*
X320000Y170000D02*
X350000D01*
X490000Y160000D02*
X500000Y150000D01*
X470000Y160000D02*
X490000D01*
X510000Y280000D02*
X520000Y290000D01*
X500000Y280000D02*
X510000D01*
X320000Y300000D02*
X324153Y304153D01*
X315847D02*
X320000Y300000D01*
X270000D02*
X274153Y304153D01*
X315847D01*
X265847D02*
X270000Y300000D01*
X220000D02*
X224153Y304153D01*
X350000Y250000D02*
X354153Y245847D01*
X395847D02*
X400000Y250000D01*
X354153Y245847D02*
X395847D01*
X300000Y250000D02*
X304153Y245847D01*
X345847D02*
X350000Y250000D01*
X304153Y245847D02*
X345847D01*
X485153Y265847D02*
X491000Y260000D01*
X418280Y265847D02*
X485153D01*
X491000Y260000D02*
X500000D01*
X170000Y180000D02*
X182000D01*
X186153Y184153D01*
X223000D01*
X120000Y230000D02*
X124153Y225847D01*
X132383Y224247D02*
X156753D01*
X110000Y230000D02*
X115753Y224247D01*
X127617D01*
X132383D01*
X124153Y225847D02*
X131720D01*
X134873Y229000D01*
X124153Y175847D02*
X133847D01*
X135000Y177000D01*
X165000D01*
X178847Y175847D02*
X180200Y177200D01*
X188800D01*
X166153Y175847D02*
X178847D01*
X294247Y175753D02*
X300000Y170000D01*
X120000Y180000D02*
X124153Y175847D01*
X182853Y174153D02*
X183700Y175000D01*
X110000Y180000D02*
X115847Y174153D01*
X183700Y300000D02*
X200000D01*
X176000Y270000D02*
X200000D01*
X178700Y280000D02*
X200000D01*
X180000Y150000D02*
X200000D01*
X179000Y151000D02*
X180000Y150000D01*
X182000Y290000D02*
X200000D01*
X181000Y289000D02*
X182000Y290000D01*
X181400Y140000D02*
X200000D01*
X184000Y130000D02*
X200000D01*
X186000Y310000D02*
X200000D01*
X187000Y120000D02*
X200000D01*
D25*
X143000Y210950D02*
X169050D01*
X170000Y210000D01*
X400000Y315000D02*
Y321000D01*
X350000D02*
X400000D01*
X450000D01*
X216260Y330000D02*
X228000D01*
X237000Y321000D01*
X250000D01*
X213740Y330000D02*
X213840Y329900D01*
X216160D02*
X216260Y330000D01*
X200000D02*
X213740D01*
X213840Y329900D02*
X216160D01*
X170000Y330000D02*
X200000D01*
X340000Y232000D02*
X370000D01*
X320000D02*
X340000D01*
X320000D02*
Y240000D01*
X290000Y232000D02*
X320000D01*
X270000D02*
X290000D01*
X150000Y128937D02*
X161063D01*
X170000Y120000D01*
X450000Y200000D02*
X495000D01*
X500000Y195000D01*
X250000Y210000D02*
X295000D01*
X300000Y205000D01*
X540000Y240000D02*
X550000Y250000D01*
X540000Y232000D02*
Y240000D01*
X350000Y195000D02*
Y200000D01*
X305000D02*
X350000D01*
X400000D01*
X450000Y321000D02*
X500000D01*
X190157Y115000D02*
X220000D01*
X175000D02*
X190157D01*
X170000Y120000D02*
X175000Y115000D01*
X550000Y315000D02*
Y321000D01*
X500000D02*
X550000D01*
X500000Y315000D02*
Y321000D01*
X450000Y315000D02*
Y321000D01*
X300000Y315000D02*
Y321000D01*
X350000D01*
X250000D02*
X300000D01*
X350000Y315000D02*
Y321000D01*
X250000Y315000D02*
Y321000D01*
X470000Y115000D02*
X515000D01*
X520000Y120000D01*
X420000Y115000D02*
X470000D01*
Y120000D01*
X450000Y195000D02*
Y200000D01*
X400000D02*
X450000D01*
X400000Y195000D02*
Y200000D01*
X300000Y205000D02*
X305000Y200000D01*
X250000Y205000D02*
Y210000D01*
X200000D02*
X250000D01*
X520000Y232000D02*
X540000D01*
X520000D02*
Y240000D01*
X170000Y210000D02*
X200000D01*
X470000Y232000D02*
X490000D01*
X520000D01*
X440000D02*
X470000D01*
X420000D02*
X440000D01*
X390000D02*
X420000D01*
X370000D02*
X390000D01*
X240000D02*
X270000D01*
X220000D02*
X240000D01*
X178000D02*
X190157D01*
X220000D01*
X470000D02*
Y240000D01*
X420000Y232000D02*
Y240000D01*
X370000Y232000D02*
Y240000D01*
X270000Y232000D02*
Y240000D01*
X220000Y232000D02*
Y240000D01*
X170000D02*
X178000Y232000D01*
X130000Y130000D02*
X131063Y128937D01*
X150000D01*
X130000Y120000D02*
X131063Y121063D01*
X150000D01*
X120000Y120000D02*
X130000D01*
X110000D02*
X120000D01*
X220000Y115000D02*
X270000D01*
X220000D02*
Y120000D01*
X270000Y115000D02*
X320000D01*
X270000D02*
Y120000D01*
X320000Y115000D02*
X370000D01*
X320000D02*
Y120000D01*
X370000Y115000D02*
X420000D01*
X370000D02*
Y120000D01*
X420000Y115000D02*
Y120000D01*
X120000Y130000D02*
X130000D01*
X110000D02*
X120000D01*
D26*
X490158Y195000D02*
D03*
X150000Y128937D02*
D03*
X240158Y315000D02*
D03*
X290158D02*
D03*
X340158D02*
D03*
X390158D02*
D03*
X440158D02*
D03*
X490158D02*
D03*
X190157Y345000D02*
D03*
X540158Y315000D02*
D03*
X440158Y195000D02*
D03*
X340158D02*
D03*
X390158D02*
D03*
X240158Y205000D02*
D03*
X290158D02*
D03*
X190157Y225000D02*
D03*
D27*
X500000Y195000D02*
D03*
X250000Y315000D02*
D03*
X300000D02*
D03*
X350000D02*
D03*
X400000D02*
D03*
X450000D02*
D03*
X500000D02*
D03*
X200000Y345000D02*
D03*
X550000Y315000D02*
D03*
X450000Y195000D02*
D03*
X350000D02*
D03*
X400000D02*
D03*
X250000Y205000D02*
D03*
X300000D02*
D03*
X200000Y225000D02*
D03*
D28*
X170000Y210000D02*
D03*
X470000Y180000D02*
D03*
X270000Y190000D02*
D03*
X220000Y300000D02*
D03*
X270000D02*
D03*
X320000D02*
D03*
X370000D02*
D03*
X420000D02*
D03*
X170000Y330000D02*
D03*
X470000Y300000D02*
D03*
X520000D02*
D03*
X420000Y180000D02*
D03*
X320000D02*
D03*
X370000D02*
D03*
X220000Y190000D02*
D03*
D29*
X170000Y200000D02*
D03*
Y190000D02*
D03*
Y180000D02*
D03*
Y170000D02*
D03*
Y160000D02*
D03*
Y150000D02*
D03*
Y140000D02*
D03*
Y130000D02*
D03*
Y120000D02*
D03*
X200000Y210000D02*
D03*
Y190000D02*
D03*
Y180000D02*
D03*
Y170000D02*
D03*
Y160000D02*
D03*
Y150000D02*
D03*
Y140000D02*
D03*
Y130000D02*
D03*
Y120000D02*
D03*
X470000Y170000D02*
D03*
Y160000D02*
D03*
Y150000D02*
D03*
Y140000D02*
D03*
Y130000D02*
D03*
Y120000D02*
D03*
X500000Y180000D02*
D03*
Y170000D02*
D03*
Y160000D02*
D03*
Y150000D02*
D03*
Y140000D02*
D03*
Y130000D02*
D03*
Y120000D02*
D03*
X270000Y180000D02*
D03*
Y170000D02*
D03*
Y160000D02*
D03*
Y150000D02*
D03*
Y140000D02*
D03*
Y130000D02*
D03*
Y120000D02*
D03*
X300000Y190000D02*
D03*
Y180000D02*
D03*
Y170000D02*
D03*
Y160000D02*
D03*
Y150000D02*
D03*
Y140000D02*
D03*
Y130000D02*
D03*
Y120000D02*
D03*
X250000Y240000D02*
D03*
Y250000D02*
D03*
Y260000D02*
D03*
Y270000D02*
D03*
Y280000D02*
D03*
Y290000D02*
D03*
Y300000D02*
D03*
X220000Y240000D02*
D03*
Y250000D02*
D03*
Y260000D02*
D03*
Y270000D02*
D03*
Y280000D02*
D03*
Y290000D02*
D03*
X300000Y240000D02*
D03*
Y250000D02*
D03*
Y260000D02*
D03*
Y270000D02*
D03*
Y280000D02*
D03*
Y290000D02*
D03*
Y300000D02*
D03*
X270000Y240000D02*
D03*
Y250000D02*
D03*
Y260000D02*
D03*
Y270000D02*
D03*
Y280000D02*
D03*
Y290000D02*
D03*
X350000Y240000D02*
D03*
Y250000D02*
D03*
Y260000D02*
D03*
Y270000D02*
D03*
Y280000D02*
D03*
Y290000D02*
D03*
Y300000D02*
D03*
X320000Y240000D02*
D03*
Y250000D02*
D03*
Y260000D02*
D03*
Y270000D02*
D03*
Y280000D02*
D03*
Y290000D02*
D03*
X400000Y240000D02*
D03*
Y250000D02*
D03*
Y260000D02*
D03*
Y270000D02*
D03*
Y280000D02*
D03*
Y290000D02*
D03*
Y300000D02*
D03*
X370000Y240000D02*
D03*
Y250000D02*
D03*
Y260000D02*
D03*
Y270000D02*
D03*
Y280000D02*
D03*
Y290000D02*
D03*
X450000Y240000D02*
D03*
Y250000D02*
D03*
Y260000D02*
D03*
Y270000D02*
D03*
Y280000D02*
D03*
Y290000D02*
D03*
Y300000D02*
D03*
X420000Y240000D02*
D03*
Y250000D02*
D03*
Y260000D02*
D03*
Y270000D02*
D03*
Y280000D02*
D03*
Y290000D02*
D03*
X170000Y320000D02*
D03*
Y310000D02*
D03*
Y300000D02*
D03*
Y290000D02*
D03*
Y280000D02*
D03*
Y270000D02*
D03*
Y260000D02*
D03*
Y250000D02*
D03*
Y240000D02*
D03*
X200000Y330000D02*
D03*
Y310000D02*
D03*
Y300000D02*
D03*
Y290000D02*
D03*
Y280000D02*
D03*
Y270000D02*
D03*
Y260000D02*
D03*
Y250000D02*
D03*
Y240000D02*
D03*
X470000Y290000D02*
D03*
Y280000D02*
D03*
Y270000D02*
D03*
Y260000D02*
D03*
Y250000D02*
D03*
Y240000D02*
D03*
X500000Y300000D02*
D03*
Y290000D02*
D03*
Y280000D02*
D03*
Y270000D02*
D03*
Y260000D02*
D03*
Y250000D02*
D03*
Y240000D02*
D03*
X550000D02*
D03*
Y250000D02*
D03*
Y260000D02*
D03*
Y270000D02*
D03*
Y280000D02*
D03*
Y290000D02*
D03*
Y300000D02*
D03*
X520000Y240000D02*
D03*
Y250000D02*
D03*
Y260000D02*
D03*
Y270000D02*
D03*
Y280000D02*
D03*
Y290000D02*
D03*
X450000Y120000D02*
D03*
Y130000D02*
D03*
Y140000D02*
D03*
Y150000D02*
D03*
Y160000D02*
D03*
Y170000D02*
D03*
Y180000D02*
D03*
X420000Y120000D02*
D03*
Y130000D02*
D03*
Y140000D02*
D03*
Y150000D02*
D03*
Y160000D02*
D03*
Y170000D02*
D03*
X350000Y120000D02*
D03*
Y130000D02*
D03*
Y140000D02*
D03*
Y150000D02*
D03*
Y160000D02*
D03*
Y170000D02*
D03*
Y180000D02*
D03*
X320000Y120000D02*
D03*
Y130000D02*
D03*
Y140000D02*
D03*
Y150000D02*
D03*
Y160000D02*
D03*
Y170000D02*
D03*
X400000Y120000D02*
D03*
Y130000D02*
D03*
Y140000D02*
D03*
Y150000D02*
D03*
Y160000D02*
D03*
Y170000D02*
D03*
Y180000D02*
D03*
X370000Y120000D02*
D03*
Y130000D02*
D03*
Y140000D02*
D03*
Y150000D02*
D03*
Y160000D02*
D03*
Y170000D02*
D03*
X220000Y180000D02*
D03*
Y170000D02*
D03*
Y160000D02*
D03*
Y150000D02*
D03*
Y140000D02*
D03*
Y130000D02*
D03*
Y120000D02*
D03*
X250000Y190000D02*
D03*
Y180000D02*
D03*
Y170000D02*
D03*
Y160000D02*
D03*
Y150000D02*
D03*
Y140000D02*
D03*
Y130000D02*
D03*
Y120000D02*
D03*
D30*
X200000Y200000D02*
D03*
X130000Y330000D02*
D03*
Y320000D02*
D03*
Y310000D02*
D03*
Y300000D02*
D03*
Y290000D02*
D03*
Y280000D02*
D03*
Y270000D02*
D03*
Y260000D02*
D03*
Y250000D02*
D03*
Y240000D02*
D03*
Y230000D02*
D03*
Y220000D02*
D03*
Y210000D02*
D03*
Y200000D02*
D03*
Y190000D02*
D03*
Y180000D02*
D03*
Y170000D02*
D03*
Y160000D02*
D03*
Y150000D02*
D03*
Y140000D02*
D03*
Y130000D02*
D03*
X110000D02*
D03*
Y140000D02*
D03*
Y150000D02*
D03*
Y160000D02*
D03*
Y170000D02*
D03*
Y180000D02*
D03*
Y190000D02*
D03*
Y200000D02*
D03*
Y210000D02*
D03*
Y220000D02*
D03*
Y230000D02*
D03*
Y240000D02*
D03*
Y250000D02*
D03*
Y260000D02*
D03*
Y270000D02*
D03*
Y280000D02*
D03*
Y290000D02*
D03*
Y300000D02*
D03*
Y310000D02*
D03*
Y320000D02*
D03*
Y330000D02*
D03*
X120000D02*
D03*
Y320000D02*
D03*
Y310000D02*
D03*
Y300000D02*
D03*
Y290000D02*
D03*
Y280000D02*
D03*
Y270000D02*
D03*
Y260000D02*
D03*
Y250000D02*
D03*
Y240000D02*
D03*
Y230000D02*
D03*
Y220000D02*
D03*
Y210000D02*
D03*
Y200000D02*
D03*
Y190000D02*
D03*
Y180000D02*
D03*
Y170000D02*
D03*
Y160000D02*
D03*
Y150000D02*
D03*
Y140000D02*
D03*
Y130000D02*
D03*
X200000Y320000D02*
D03*
D31*
X520000Y150000D02*
D03*
Y120000D02*
D03*
X550000Y350000D02*
D03*
X470000Y210000D02*
D03*
X420000D02*
D03*
X530000D02*
D03*
X510000D02*
D03*
X540000Y130000D02*
D03*
X520000Y180000D02*
D03*
D32*
X130000Y120000D02*
D03*
X110000D02*
D03*
X120000D02*
D03*
D33*
X150000Y121063D02*
D03*
D34*
X143000Y210950D02*
D03*
X190157Y115000D02*
D03*
X540000Y232000D02*
D03*
X440000D02*
D03*
X490000D02*
D03*
X390000D02*
D03*
X340000D02*
D03*
X290000D02*
D03*
X240000D02*
D03*
X190157D02*
D03*
D35*
X455000Y217000D02*
D03*
X330000D02*
D03*
Y280000D02*
D03*
X235000Y278000D02*
D03*
Y228000D02*
D03*
X450000Y220000D02*
D03*
X365000Y311000D02*
D03*
X245000Y304153D02*
D03*
X361000Y344000D02*
D03*
X358000Y351000D02*
D03*
X355000Y226000D02*
D03*
X345433Y188500D02*
D03*
X215000Y335000D02*
D03*
X236480Y325480D02*
D03*
X234700Y287200D02*
D03*
X445000Y323800D02*
D03*
X476000Y244000D02*
D03*
X464000Y307000D02*
D03*
X482000Y358000D02*
D03*
X528000Y336000D02*
D03*
X531000Y294000D02*
D03*
X260000Y336200D02*
D03*
Y245000D02*
D03*
X464000Y204000D02*
D03*
X214200Y213100D02*
D03*
X212800Y235800D02*
D03*
X162300Y273500D02*
D03*
X178700Y193400D02*
D03*
X176400Y202300D02*
D03*
X181000Y185000D02*
D03*
X216500Y202200D02*
D03*
X228500Y122500D02*
D03*
X156000Y255000D02*
D03*
X162000Y229000D02*
D03*
X332000Y186500D02*
D03*
X414500Y191000D02*
D03*
X379500Y183500D02*
D03*
X410500Y177500D02*
D03*
X157000Y336500D02*
D03*
X408000Y341500D02*
D03*
X405000Y338500D02*
D03*
X378000Y346500D02*
D03*
X364500Y174000D02*
D03*
X326500Y134000D02*
D03*
X335500Y349000D02*
D03*
X306000Y350000D02*
D03*
X310000Y351500D02*
D03*
X312500Y326000D02*
D03*
X147100Y346399D02*
D03*
X149080Y344420D02*
D03*
X151060Y342440D02*
D03*
X153040Y340460D02*
D03*
X155020Y338480D02*
D03*
X143141Y350359D02*
D03*
X145121Y348379D02*
D03*
X323600Y193800D02*
D03*
X153000Y265000D02*
D03*
X151000Y275000D02*
D03*
X149000Y285000D02*
D03*
X147000Y295000D02*
D03*
X145000Y305000D02*
D03*
X143000Y315000D02*
D03*
X141000Y325000D02*
D03*
X140000Y353000D02*
D03*
X137000Y355000D02*
D03*
X130000Y358000D02*
D03*
X427000Y356200D02*
D03*
X520000Y352000D02*
D03*
X474800Y226000D02*
D03*
Y297500D02*
D03*
X424800Y228000D02*
D03*
X505000Y276000D02*
D03*
X420000Y334000D02*
D03*
X525000Y304153D02*
D03*
X350000Y223500D02*
D03*
X444000D02*
D03*
X255873Y260000D02*
D03*
X444500Y262000D02*
D03*
X414500Y252500D02*
D03*
X300000Y228500D02*
D03*
X470000Y326000D02*
D03*
X207700Y218000D02*
D03*
X262300Y215600D02*
D03*
X210000Y212900D02*
D03*
X256000Y171500D02*
D03*
X260800Y168700D02*
D03*
X259100Y200500D02*
D03*
X295500Y200600D02*
D03*
X278300Y194000D02*
D03*
X495079Y309882D02*
D03*
X305500Y163000D02*
D03*
X394000D02*
D03*
X225000Y228000D02*
D03*
X242500Y172500D02*
D03*
X186957Y157772D02*
D03*
X293000Y137000D02*
D03*
X275720Y187000D02*
D03*
X376000Y137000D02*
D03*
X445000Y135000D02*
D03*
X245000Y183000D02*
D03*
X263000Y154000D02*
D03*
X205000Y221000D02*
D03*
X176000Y270000D02*
D03*
Y160000D02*
D03*
X178700Y280000D02*
D03*
X179000Y151000D02*
D03*
X181000Y289000D02*
D03*
X183700Y300000D02*
D03*
X181400Y140000D02*
D03*
X184000Y130000D02*
D03*
X183700Y175000D02*
D03*
X186000Y310000D02*
D03*
X187000Y120000D02*
D03*
M02*
