**ABCDEFGHIJKLMNOPQRSTUVWXYZabcdefghijklmnopqrstuvwxyz**************************
**PARASOLID !"#$%&'()*+,-./:;<=>?@[\]^_`{|}~0123456789**************************
**PART1;
MC=;
MC_MODEL=;
MC_ID=unknown;
OS=Windows;
OS_RELEASE=;
FRU=;
APPL=Autodesk Inventor 2019;
SITE=unknown;
USER=unknown;
FORMAT=text;
GUISE=transmit;
KEY=Ejector;
FILE=D:\Users\erics\Documents\16B\Mechanical\Ejector.x_t;
DATE=2021-Oct-02 16:34:31;
**PART2;
SCH=SCH_3100154_31001;
USFLD_SIZE=0;
**PART3;
**END_OF_HEADER*****************************************************************
T51 : TRANSMIT FILE created by modeller version 310015417 SCH_3000000_300000 12
 1 484 2 3 0 0 0 0 0 0 1e3 1e-8 0 0 0 1 0 1 1 4 5 6 7 0 0 8 9 10 0 0 0 0 0 0 81
 1 2 484 11 1 12 0 0 0 13 70 3 0 4 T1 0 0 6 20 1 14 14 13 4 207 0 1 0 15 0 0 16
 0 51 5 370 0 15 17 0 0 +0 0 0 0 0 -1 .003571875 1 184551508905319e-30 0 30 6 33
3 0 9 18 0 0 +-.003571875 -659194920871187e-33 -381e-6 0 0 -1 29 7 254 0 10 19 0
 9271e-7 -113537004748951e-33 .0015875 19 8 1 0 1 16 0 20 V0 16 9 203 0 ?21 0 22
 6 0 0 1 18 10 186 0 23 0 24 7 ?1 17 23 0 25 23 23 10 26 27 0 26 +18 24 183 0 28
 10 29 19 ?1 17 28 0 30 28 28 24 31 32 0 31 +18 29 171 0 33 24 34 35 ?1 29 19 25
3 0 24 35 7 .0011811 144643033447294e-33 .0013335 29 35 252 0 29 36 19 -.0089693
75 .006604 .0053975 29 36 251 0 34 37 35 -.008969375 .00635 .0051435 18 34 170 0
 38 29 39 36 ?1 29 37 250 0 39 40 36 -.008969375 .00847725 .0053975 18 39 165 0
 41 34 42 37 ?1 29 40 249 0 42 43 37 .0106251920311364 .00847725 .0053975 18 42
 160 0 44 39 45 40 ?1 29 43 248 0 45 46 40 .0125882009115804 .009283026638479 .0
053975 18 45 155 0 47 42 48 43 ?1 29 46 247 0 48 49 43 .01724203237536875 .01387
78386039302 .0053975 18 48 150 0 50 45 51 46 ?1 29 49 246 0 51 52 46 .0114112422
2750226 .006604 .0053975 18 51 145 0 53 48 54 49 ?1 29 52 245 0 54 55 49 .018000
46762463125 .0131096613960698 .0053975 18 54 143 0 56 51 57 52 ?1 29 55 244 0 57
 58 52 -.008969375 .00873125 .0051435 18 57 136 0 59 54 60 55 ?1 29 58 243 0 60
 61 55 .0106251920311364 .00873125 .0051435 18 60 131 0 62 57 63 58 ?1 29 61 242
 0 63 64 58 .01240974555881276 .00946377421679909 .0051435 18 63 126 0 65 60 66
 61 ?1 29 64 241 0 66 67 61 .0170635770226011 .0140585861822503 .0051435 18 66 1
21 0 68 63 69 64 ?1 29 67 240 0 69 70 64 .0115155042449657 .00635 .0051435 18 69
 116 0 71 66 72 67 ?1 29 70 239 0 72 73 67 .0181789229773989 .0129289138177497 .
0051435 18 72 114 0 74 69 75 70 ?1 29 73 238 0 75 76 70 -.008969375 .006604 -.00
254 18 75 103 0 77 72 78 73 ?1 29 76 237 0 78 79 73 -.008969375 .00635 -.002286
 18 78 102 0 80 75 81 76 ?1 29 79 236 0 81 82 76 -.006111875 .006604 -.00254 18
 81 96 0 83 78 84 79 ?1 29 82 235 0 84 85 79 -.006111875 .00635 -.002286 18 84 9
5 0 86 81 87 82 ?1 29 85 234 0 87 88 82 -.003317875 .00381 -.00254 18 87 89 0 89
 84 90 85 ?1 29 88 233 0 90 91 85 -.003571875 .00381 -.002286 18 90 88 0 92 87 9
3 88 ?1 29 91 232 0 93 94 88 -.003317875 -612318837609236e-33 -.00254 18 93 82 0
 95 90 96 91 ?1 29 94 231 0 96 97 91 -.003571875 -659194920871187e-33 -.002286 1
8 96 81 0 21 93 98 94 ?1 29 97 230 0 98 99 94 .00233107304552727 -.0023610152418
0621 -.00254 18 98 75 0 100 96 101 97 ?1 29 99 229 0 101 102 97 .002509528398294
91 -.002541762820126295 -.002286 18 101 74 0 103 98 104 99 ?1 29 102 228 0 104 1
05 99 .01800046762463125 .0131096613960698 -.00254 18 104 68 0 106 101 107 102 ?
1 29 105 227 0 107 108 102 .0181789229773989 .0129289138177497 -.002286 18 107 6
7 0 109 104 110 105 ?1 29 108 226 0 110 111 105 .01724203237536875 .013877838603
9302 -.00254 18 110 61 0 112 107 113 108 ?1 29 111 225 0 113 114 108 .0170635770
226011 .0140585861822503 -.002286 18 113 60 0 115 110 116 111 ?1 29 114 224 0 11
6 117 111 .01258820091158042 .00928302663847898 -.00254 18 116 54 0 118 113 119
 114 ?1 29 117 223 0 119 120 114 .01240974555881276 .00946377421679909 -.002286
 18 119 53 0 121 116 122 117 ?1 29 120 222 0 122 123 117 -.008969375 .00873125 -
.002286 18 122 48 0 124 119 125 120 ?1 29 123 221 0 125 126 120 -.008969375 .008
47725 -.00254 18 125 46 0 127 122 128 123 ?1 29 126 220 0 128 129 123 .010625192
0311364 .00847725 -.00254 18 128 44 0 130 125 131 126 ?1 29 129 219 0 131 132 12
6 .0106251920311364 .00873125 -.002286 18 131 43 0 133 128 134 129 ?1 29 132 218
 0 134 135 129 .0011811 144643033447294e-33 -127e-6 18 134 39 0 136 131 137 132
 ?1 29 135 217 0 137 138 132 -.006111875 .00635 -381e-6 18 137 31 0 139 134 140
 135 ?1 29 138 216 0 140 141 135 -.00494790077348122 .00635 -127e-6 18 140 30 0
 142 137 143 138 ?1 29 141 215 0 143 144 138 -.003571875 .00381 -381e-6 18 143 2
4 0 145 140 146 141 ?1 29 144 214 0 146 147 141 -.003317875 .00381 -127e-6 18 14
6 23 0 148 143 149 144 ?1 29 147 213 0 149 150 144 -.003571875 -659194920871187e
-33 -381e-6 18 149 17 0 151 146 152 147 ?1 29 150 212 0 152 153 147 -.003317875
 -612318837609236e-33 -127e-6 18 152 16 0 154 149 155 150 ?1 29 153 211 0 155 15
6 150 .00250952839829491 -.002541762820126295 -381e-6 18 155 11 0 157 152 158 15
3 ?1 29 156 210 0 158 159 153 .00233107304552727 -.00236101524180621 -127e-6 18
 158 9 0 160 155 161 156 ?1 29 159 209 0 161 162 156 .01115397964511796 .00635 -
127e-6 18 161 7 0 163 158 164 159 ?1 29 162 208 0 164 0 159 .01151550424496566 .
00635 -381e-6 18 164 6 0 165 161 0 162 ?1 17 165 0 166 167 168 164 169 170 0 171
 -15 166 111 0 167 172 0 17 167 0 166 103 165 155 171 173 0 174 -17 168 0 166 16
5 175 69 176 177 0 0 -17 169 0 178 179 180 69 165 170 0 168 +16 170 117 0 ?169 1
81 177 182 0 0 1 17 171 0 183 184 174 164 167 173 0 180 +15 183 4 0 184 185 0 17
 184 0 183 186 171 161 180 187 0 0 +17 174 0 183 171 186 155 188 189 0 0 +16 173
 12 0 ?171 190 189 191 0 0 1 17 180 0 178 169 163 164 184 187 0 0 -15 178 196 0
 192 193 0 17 163 0 178 180 194 161 142 195 0 196 -16 187 5 0 ?184 197 0 198 0 0
 1 16 197 8 0 ?186 189 187 199 0 0 1 30 198 255 0 187 0 199 0 +.0115155042449656
6 .00635 -381e-6 -.818238874237814 0 .574878373820094 30 199 256 0 197 198 200 0
 +.01115397964511796 .00635 -127e-6 -.711604639055481 -.702580129006449 -2238604
267742445e-33 30 200 257 0 189 199 191 0 +.00233107304552727 -.00236101524180621
 -127e-6 .496799173547391 -.503180465799926 -.707106781186547 16 189 10 0 ?174 1
73 197 200 0 0 1 30 191 258 0 173 200 201 0 +.00250952839829491 -.00254176282012
6295 -381e-6 .711604639055481 .702580129006449 0 30 201 259 0 190 191 202 0 +-.0
03317875 -612318837609236e-33 -127e-6 -.707106781186548 -1304976234251606e-31 -.
707106781186547 16 190 15 0 ?203 204 173 201 0 0 1 31 202 260 0 204 201 205 0 +0
 0 -381e-6 0 0 1 -1 -184551508905319e-30 0 .003571875 16 204 18 0 ?206 207 190 2
02 0 0 1 31 205 261 0 207 202 208 0 +0 0 -127e-6 0 0 -1 -1 -184551508905319e-30
 0 .003317875 16 207 19 0 ?209 210 204 205 0 0 1 30 208 262 0 210 205 211 0 +-.0
03317875 .00381 -127e-6 -.707106781186547 0 -.707106781186548 16 210 22 0 ?212 2
13 207 208 0 0 1 30 211 263 0 213 208 214 0 +-.003571875 .00381 -381e-6 58279423
8648377e-30 -1 0 16 213 25 0 ?215 216 210 211 0 0 1 30 214 264 0 216 211 217 0 +
-.003317875 -612318837609236e-33 -127e-6 -815911934107728e-30 1 0 16 216 26 0 ?2
18 219 213 214 0 0 1 134 217 265 0 219 214 220 0 +221 222 16 219 29 0 ?223 224 2
16 217 0 0 1 31 220 266 0 224 217 225 0 +-.006111875 .00381 -381e-6 0 0 -1 1 655
643518479423e-30 0 .00254 136 221 2 3 4 2 1 FFT1 226 227 228 135 222 1 0 45 12 2
26 -.00494790077348122 .00635 -127e-6 1 -.00569484695498481 .00650681373638413 -
.000390408824183049 1.024695076595928 -.006111875 .00635 -381e-6 1 127 2 227 3 3
 128 2 228 -.2394735287130735 -.1197367643565368 16 224 32 0 ?229 230 219 220 0
 0 1 31 225 267 0 230 220 231 0 +-.006111875 .00381 -127e-6 0 0 1 1 655643518479
423e-30 0 .002794 16 230 33 0 ?232 195 224 225 0 0 1 30 231 268 0 195 225 233 0
 +.01115397964511796 .00635 -127e-6 -1 772238866054348e-30 0 16 195 36 0 ?142 23
4 230 231 0 0 1 31 233 269 0 234 231 235 0 +0 0 -127e-6 0 0 -1 -1 0 0 .0011811 1
6 234 38 0 ?136 236 195 233 0 0 1 30 235 270 0 236 233 237 0 +.0106251920311364
 .00873125 -.002286 494517309821662e-29 -.707106781186547 -.707106781186548 16 2
36 42 0 ?238 239 234 235 0 0 1 30 237 271 0 239 235 240 0 +.0106251920311364 .00
847725 -.00254 -1 -815900220157866e-30 0 16 239 45 0 ?241 242 236 237 0 0 1 30 2
40 272 0 242 237 243 0 +-.008969375 .00847725 -.00254 0 .707106781186547 .707106
781186548 16 242 47 0 ?244 245 239 240 0 0 1 30 243 273 0 245 240 246 0 +-.00896
9375 .00873125 -.002286 1 815900220157866e-30 0 16 245 49 0 ?247 248 242 243 0 0
 1 30 246 274 0 248 243 249 0 +.01240974555881276 .00946377421679909 -.002286 .4
96799173547401 -.503180465799956 -.707106781186519 16 248 52 0 ?250 251 245 246
 0 0 1 31 249 275 0 251 246 252 0 +.0106251920311364 .01127125 -.00254 0 0 -1 87
4191357972564e-30 -1 0 .002794 16 251 55 0 ?130 253 248 249 0 0 1 31 252 276 0 2
53 249 254 0 +.0106251920311364 .01127125 -.002286 0 0 1 874191357972564e-30 -1
 0 .00254 16 253 56 0 ?255 256 251 252 0 0 1 30 254 277 0 256 252 257 0 +.017063
5770226011 .0140585861822503 -.002286 .496799173547387 -.503180465799938 -.70710
6781186541 16 256 59 0 ?258 259 253 254 0 0 1 30 257 278 0 259 254 260 0 +.01724
203237536875 .0138778386039302 -.00254 -.711604639055477 -.702580129006453 0 16
 259 62 0 ?118 261 256 257 0 0 1 30 260 279 0 261 257 262 0 +.01240974555881276
 .00946377421679909 -.002286 .711604639055479 .702580129006451 0 16 261 63 0 ?26
3 264 259 260 0 0 1 30 262 280 0 264 260 265 0 +.0181789229773989 .0129289138177
497 -.002286 -.496799173547401 .503180465799956 -.707106781186519 16 264 66 0 ?2
66 267 261 262 0 0 1 31 265 281 0 267 262 268 0 +.01762125 .01349375 -.00254 0 0
 1 -.702580129006449 .711604639055481 0 53975e-8 16 267 69 0 ?112 269 264 265 0
 0 1 31 268 282 0 269 265 270 0 +.01762125 .01349375 -.002286 0 0 -1 -.702580129
006449 .711604639055481 0 79375e-8 16 269 70 0 ?271 272 267 268 0 0 1 30 270 283
 0 272 268 273 0 +.00250952839829491 -.002541762820126295 -.002286 -.49679917354
7392 .503180465799924 -.707106781186547 16 272 73 0 ?274 275 269 270 0 0 1 30 27
3 284 0 275 270 276 0 +.00233107304552727 -.00236101524180621 -.00254 .711604639
05548 .70258012900645 0 16 275 76 0 ?106 277 272 273 0 0 1 30 276 285 0 277 273
 278 0 +.0181789229773989 .0129289138177497 -.002286 -.711604639055481 -.7025801
29006449 0 16 277 77 0 ?279 280 275 276 0 0 1 30 278 286 0 280 276 281 0 +-.0035
71875 -659194920871187e-33 -.002286 .707106781186548 1304976234251606e-31 -.7071
06781186547 16 280 80 0 ?282 283 277 278 0 0 1 31 281 287 0 283 278 284 0 +0 0 -
.00254 0 0 1 -1 -184551508905319e-30 0 .003317875 16 283 83 0 ?100 285 280 281 0
 0 1 31 284 288 0 285 281 286 0 +0 0 -.002286 0 0 -1 -1 -184551508905319e-30 0 .
003571875 16 285 84 0 ?287 288 283 284 0 0 1 30 286 289 0 288 284 289 0 +-.00357
1875 .00381 -.002286 .707106781186547 0 -.707106781186548 16 288 87 0 ?290 291 2
85 286 0 0 1 30 289 290 0 291 286 292 0 +-.003317875 .00381 -.00254 815911934107
728e-30 -1 0 16 291 90 0 ?95 293 288 289 0 0 1 30 292 291 0 293 289 294 0 +-.003
571875 -659194920871187e-33 -.002286 -582794238648377e-30 1 0 16 293 91 0 ?295 2
96 291 292 0 0 1 30 294 292 0 296 292 297 0 +-.006111875 .00635 -.002286 0 .7071
06781186547 -.707106781186548 16 296 94 0 ?298 299 293 294 0 0 1 31 297 293 0 29
9 294 300 0 +-.006111875 .00381 -.00254 0 0 -1 1 655643518479423e-30 0 .002794 1
6 299 97 0 ?89 301 296 297 0 0 1 31 300 294 0 301 297 302 0 +-.006111875 .00381
 -.002286 0 0 1 1 655643518479423e-30 0 .00254 16 301 98 0 ?303 304 299 300 0 0
 1 30 302 295 0 304 300 305 0 +-.008969375 .00635 -.002286 494517309821658e-29 .
707106781186553 -.707106781186542 16 304 101 0 ?306 307 301 302 0 0 1 30 305 296
 0 307 302 308 0 +-.008969375 .006604 -.00254 1 -621647187891603e-30 0 16 307 10
4 0 ?83 309 304 305 0 0 1 30 308 297 0 309 305 310 0 +-.006111875 .00635 -.00228
6 -1 -932470781837403e-30 0 16 309 105 0 ?311 312 307 308 0 0 1 31 310 298 0 312
 308 313 0 +-.008969375 .007540625 -.00254 0 0 1 1864941563674805e-30 -1 0 93662
5e-9 16 312 108 0 ?77 314 309 310 0 0 1 31 313 299 0 314 310 315 0 +-.008969375
 .007540625 -.002286 0 0 -1 1864941563674805e-30 -1 0 .001190625 16 314 109 0 ?3
16 317 312 313 0 0 1 30 315 300 0 317 313 318 0 +.00250952839829491 -.0025417628
20126295 -381e-6 0 0 -1 16 317 112 0 ?103 319 314 315 0 0 1 30 318 301 0 319 315
 320 0 +.0181789229773989 .0129289138177497 .0051435 0 0 -1 16 319 113 0 ?109 17
7 317 318 0 0 1 30 320 302 0 177 318 182 0 +.0115155042449657 .00635 .0051435 .7
11604639055481 .702580129006449 0 16 177 115 0 ?176 170 319 320 0 0 1 30 182 303
 0 170 320 321 0 +.01151550424496566 .00635 -381e-6 385849978691339e-29 36977289
62458665e-30 1 30 321 304 0 181 182 322 0 +.0170635770226011 .0140585861822503 .
0051435 0 0 -1 16 181 120 0 ?115 323 170 321 0 0 1 31 322 305 0 323 321 324 0 +.
01762125 .01349375 .0051435 0 0 1 -.702580129006449 .711604639055481 0 79375e-8
 16 323 122 0 ?325 326 181 322 0 0 1 30 324 306 0 326 322 327 0 +.01240974555881
276 .00946377421679909 .0051435 0 0 -1 16 326 125 0 ?121 328 323 324 0 0 1 30 32
7 307 0 328 324 329 0 +.0170635770226011 .0140585861822503 .0051435 -.7116046390
55479 -.702580129006451 0 16 328 127 0 ?330 331 326 327 0 0 1 30 329 308 0 331 3
27 332 0 +.0106251920311364 .00873125 .0051435 0 0 -1 16 331 130 0 ?133 333 328
 329 0 0 1 31 332 309 0 333 329 334 0 +.0106251920311364 .01127125 .0051435 0 0
 -1 874191357972564e-30 -1 0 .00254 16 333 132 0 ?335 336 331 332 0 0 1 30 334 3
10 0 336 332 337 0 +-.008969375 .00873125 -.002286 0 0 1 16 336 135 0 ?338 339 3
33 334 0 0 1 30 337 311 0 339 334 340 0 +.0106251920311364 .00873125 .0051435 -1
 -815900220157866e-30 0 16 339 137 0 ?341 342 336 337 0 0 1 30 340 312 0 342 337
 343 0 +.0181789229773989 .0129289138177497 .0051435 -.496799173547371 .50318046
5799947 .707106781186546 16 342 142 0 ?344 345 339 340 0 0 1 30 343 313 0 345 34
0 346 0 +.01800046762463125 .0131096613960698 .0053975 -.711604639055481 -.70258
0129006449 0 16 345 144 0 ?347 348 342 343 0 0 1 30 346 314 0 348 343 349 0 +.01
141124222750226 .006604 .0053975 .278748975992647 -.679079895293248 -.6790798952
93302 16 348 146 0 ?350 351 345 346 0 0 1 30 349 315 0 351 346 352 0 +.017063577
0226011 .0140585861822503 .0051435 .496799173547382 -.503180465799933 .707106781
186548 16 351 149 0 ?353 354 348 349 0 0 1 31 352 316 0 354 349 355 0 +.01762125
 .01349375 .0053975 0 0 -1 -.702580129006449 .711604639055481 0 53975e-8 16 354
 151 0 ?56 356 351 352 0 0 1 30 355 317 0 356 352 357 0 +.01240974555881276 .009
46377421679909 .0051435 .496799173547386 -.503180465799932 .707106781186546 16 3
56 154 0 ?358 359 354 355 0 0 1 30 357 318 0 359 355 360 0 +.0125882009115804 .0
09283026638479 .0053975 .711604639055479 .702580129006451 0 16 359 156 0 ?50 361
 356 357 0 0 1 30 360 319 0 361 357 362 0 +.0106251920311364 .00873125 .0051435
 0 -.707106781186572 .707106781186523 16 361 159 0 ?363 364 359 360 0 0 1 31 362
 320 0 364 360 365 0 +.0106251920311364 .01127125 .0053975 0 0 1 874191357972564
e-30 -1 0 .002794 16 364 161 0 ?47 366 361 362 0 0 1 30 365 321 0 366 362 367 0
 +-.008969375 .00873125 .0051435 0 -.707106781186548 .707106781186548 16 366 164
 0 ?368 369 364 365 0 0 1 30 367 322 0 369 365 370 0 +-.008969375 .00847725 .005
3975 1 -906555800175407e-31 0 16 369 166 0 ?44 371 366 367 0 0 1 30 370 323 0 37
1 367 372 0 +-.008969375 .00635 .0051435 0 .707106781186549 .707106781186546 16
 371 169 0 ?373 374 369 370 0 0 1 31 372 324 0 374 370 375 0 +-.008969375 .00754
0625 .0053975 0 0 -1 1864941563674805e-30 -1 0 936625e-9 16 374 172 0 ?41 376 37
1 372 0 0 1 31 375 325 0 376 372 377 0 +-.008969375 .007540625 .0051435 0 0 1 18
64941563674805e-30 -1 0 .001190625 16 376 173 0 ?378 379 374 375 0 0 1 30 377 32
6 0 379 375 380 0 +.01141124222750226 .006604 .0053975 -1 61011390072241e-29 0 1
6 379 176 0 ?33 381 376 377 0 0 1 30 380 327 0 381 377 382 0 +-.008969375 .00635
 .0051435 1 4335775715731405e-31 0 16 381 177 0 ?71 32 379 380 0 0 1 31 382 328
 0 32 380 383 0 +0 0 .0013335 0 0 1 -1 0 0 .0011811 16 32 182 0 ?28 27 381 382 0
 0 1 31 383 329 0 27 382 384 0 +0 0 .0015875 0 0 -1 -1 0 0 9271e-7 16 27 185 0 ?
23 385 32 383 0 0 1 30 384 330 0 385 383 386 0 +-.008969375 .00635 .0051435 0 0
 -1 16 385 194 0 ?80 387 27 384 0 0 1 30 386 331 0 387 384 18 0 +-.006111875 .00
635 -381e-6 0 0 -1 16 387 197 0 ?86 22 385 386 0 0 1 30 18 332 0 22 386 6 0 +-.0
03571875 .00381 -381e-6 0 0 -1 16 22 200 0 ?92 9 387 18 0 0 1 17 92 0 388 389 39
0 90 145 22 0 391 +15 388 202 0 390 392 0 17 389 0 388 151 92 96 295 293 0 287 -
17 390 0 388 92 151 143 215 213 0 212 -17 145 0 393 394 391 143 92 22 0 229 -17
 391 0 393 145 86 90 303 301 0 295 -15 393 199 0 394 395 0 17 86 0 393 391 394 8
4 139 387 0 192 +17 303 0 396 298 397 84 391 301 0 398 +17 295 0 399 290 400 90
 389 293 0 397 +15 399 86 0 290 401 0 17 290 0 399 95 295 87 397 288 0 0 +17 400
 0 399 295 95 96 282 280 0 0 -17 397 0 396 303 89 90 290 288 0 0 -15 396 93 0 29
8 402 0 17 89 0 396 397 298 87 403 299 0 404 +17 298 0 396 89 303 81 398 296 0 0
 +17 403 0 405 406 404 81 89 299 0 298 -17 404 0 405 403 407 87 95 291 0 290 -15
 405 139 0 408 409 0 17 407 0 405 404 410 93 100 283 0 282 -17 95 0 399 400 290
 93 404 291 0 407 +17 410 0 405 407 411 98 106 275 0 274 -17 100 0 412 413 282 9
8 407 283 0 410 +17 282 0 412 100 287 93 400 280 0 0 +15 412 79 0 282 414 0 17 2
87 0 412 282 413 96 415 285 0 400 +17 413 0 412 287 100 101 274 272 0 0 -17 415
 0 416 157 21 101 287 285 0 279 -15 416 205 0 417 15 0 17 157 0 416 417 415 155
 103 317 0 206 -17 21 0 416 415 417 96 151 9 0 389 +17 279 0 418 274 419 101 420
 277 0 413 +15 418 72 0 274 421 0 17 274 0 418 106 279 98 413 272 0 0 +17 419 0
 418 279 106 107 266 264 0 0 -17 420 0 166 175 103 107 279 277 0 271 -17 175 0 1
66 168 420 72 109 319 0 0 -17 103 0 166 420 167 101 157 317 0 415 +17 271 0 422
 266 423 107 424 269 0 419 +15 422 65 0 266 425 0 17 266 0 422 112 271 104 419 2
64 0 0 +17 423 0 422 271 112 113 258 256 0 0 -17 424 0 426 427 109 113 271 269 0
 263 -15 426 119 0 424 428 0 17 427 0 426 429 424 66 115 181 0 0 -17 109 0 426 4
24 429 107 175 319 0 420 +17 263 0 430 258 431 113 432 261 0 423 +15 430 58 0 25
8 433 0 17 258 0 430 118 263 110 423 256 0 0 +17 431 0 430 263 118 119 250 248 0
 0 -17 432 0 434 435 115 119 263 261 0 255 -15 434 124 0 432 436 0 17 435 0 434
 437 432 63 121 326 0 0 -17 115 0 434 432 437 113 427 181 0 424 +17 255 0 438 25
0 439 119 440 253 0 431 +15 438 51 0 250 441 0 17 250 0 438 130 255 116 431 248
 0 0 +17 439 0 438 255 130 131 238 236 0 0 -17 440 0 442 443 121 131 255 253 0 2
47 -15 442 129 0 440 444 0 17 443 0 442 445 440 60 133 331 0 0 -17 121 0 442 440
 445 119 435 326 0 432 +17 247 0 446 238 244 131 447 245 0 439 +15 446 41 0 238
 448 0 17 238 0 446 241 247 128 439 236 0 0 +17 244 0 446 247 241 122 449 242 0
 0 +17 447 0 450 338 133 122 247 245 0 244 -15 450 134 0 447 451 0 17 338 0 450
 452 447 57 124 336 0 0 +17 133 0 450 447 452 131 443 331 0 440 +17 452 0 450 13
3 338 60 341 339 0 335 -17 341 0 453 368 62 57 452 339 0 338 +17 335 0 454 363 6
5 60 445 333 0 443 +15 454 158 0 363 455 0 17 363 0 454 47 335 42 62 361 0 0 +17
 65 0 454 335 47 63 358 356 0 445 -17 445 0 442 121 443 63 335 333 0 330 -17 330
 0 456 358 68 63 437 328 0 435 +15 456 153 0 358 457 0 17 358 0 456 50 330 45 65
 356 0 0 +17 68 0 456 330 50 66 353 351 0 437 -17 437 0 434 115 435 66 330 328 0
 325 -17 325 0 458 353 74 66 429 323 0 427 +15 458 148 0 353 459 0 17 353 0 458
 56 325 48 68 351 0 0 +17 74 0 458 325 56 72 344 342 0 429 -17 429 0 426 109 427
 72 325 323 0 176 -17 176 0 460 344 350 72 168 177 0 175 +15 460 141 0 176 461 0
 17 344 0 460 347 176 54 74 342 0 0 +17 350 0 460 176 347 69 462 348 0 169 +17 3
47 0 460 350 344 51 463 345 0 0 +17 462 0 464 33 71 51 350 348 0 347 -15 464 175
 0 33 465 0 17 33 0 464 466 462 29 53 379 0 467 +17 71 0 464 462 466 69 179 381
 0 350 +17 466 0 464 71 33 34 373 371 0 0 -17 179 0 178 80 169 34 71 381 0 378 -
17 80 0 178 192 179 78 38 385 0 468 +17 378 0 469 373 470 34 59 376 0 466 +15 46
9 168 0 373 471 0 17 373 0 469 41 378 29 466 371 0 0 +17 470 0 469 378 41 57 368
 366 0 341 -17 59 0 472 124 38 57 378 376 0 470 -15 472 193 0 468 473 0 17 124 0
 472 468 59 122 338 336 0 316 -17 38 0 472 59 468 34 80 385 0 179 -17 468 0 472
 38 124 78 316 314 0 311 -17 316 0 474 449 475 122 468 314 0 447 +17 311 0 476 3
06 398 78 192 309 0 475 +15 476 100 0 306 477 0 17 306 0 476 83 311 75 475 304 0
 0 +17 398 0 476 311 83 84 298 296 0 0 -17 192 0 178 139 80 84 311 309 0 303 -17
 475 0 474 316 77 78 306 304 0 0 -15 474 107 0 449 478 0 17 77 0 474 475 449 75
 127 312 0 406 +17 449 0 474 77 316 125 244 242 0 241 -17 127 0 405 408 406 125
 77 312 0 449 -17 406 0 405 127 403 75 83 307 0 306 -17 83 0 476 398 306 81 406
 307 0 403 +17 408 0 405 479 127 128 241 239 0 238 -17 479 0 405 480 408 116 130
 251 0 250 -17 241 0 446 244 238 125 408 239 0 0 +17 480 0 405 411 479 110 118 2
59 0 258 -17 130 0 438 439 250 128 479 251 0 408 +17 411 0 405 410 480 104 112 2
67 0 266 -17 118 0 430 431 258 116 480 259 0 479 +17 112 0 422 423 266 110 411 2
67 0 480 +14 478 106 481 ?477 172 474 4 482 +0 0 477 172 20 81 1 481 417 483 478
 484 0 485 486 487 14 477 99 485 ?402 478 476 4 488 +0 0 402 478 20 14 172 110 4
86 ?478 428 166 4 489 +0 0 478 428 20 52 482 348 0 478 488 489 0 +-.008969375 .0
07540625 -.002413 0 0 1 .001063625 .707106781186547 .707106781186548 18649415636
74805e-30 -1 0 13 20 2 0 0 0 0 0 0 8 15 14 15 204 490 ?392 0 416 4 5 +0 0 392 0
 20 81 1 490 483 483 15 491 0 492 0 493 14 392 201 492 ?395 15 388 4 17 +0 0 395
 15 20 81 1 492 480 483 392 494 0 495 490 496 14 395 198 495 ?193 392 393 4 497
 -0 0 193 392 20 50 17 369 0 392 497 5 0 +-.003571875 -659194920871187e-33 0 -1
 -582794238648377e-30 0 -582794238648377e-30 1 0 51 497 368 0 395 498 17 0 +-.00
6111875 .00381 0 0 0 1 .00254 1 655643518479423e-30 0 50 498 367 0 193 499 497 0
 +-.006111875 .00635 0 -822768336915355e-30 -1 0 -1 822768336915355e-30 0 14 193
 195 500 ?473 395 178 4 498 +0 0 473 395 20 51 499 366 0 473 501 498 0 +-.008969
375 .007540625 0 0 0 -1 .001190625 1864941563674805e-30 -1 0 14 473 192 502 ?503
 193 472 4 499 +0 0 503 193 20 50 501 365 0 503 504 499 0 +-610114354694298e-34
 0 .0015875 0 0 1 1 0 0 14 503 190 505 ?506 473 507 4 501 +0 0 506 473 20 51 504
 364 0 506 508 501 0 +0 0 0 0 0 1 .0011811 -1 0 0 14 506 187 509 ?510 503 511 4
 504 +0 0 510 503 20 52 508 363 0 510 512 504 0 +0 0 .0014605 0 0 -1 .0010541 .7
07106781186548 .707106781186548 -1 0 0 14 510 180 513 ?514 506 25 4 508 +0 0 514
 506 20 50 512 362 0 514 515 508 0 +.00484703606904094 .00850823068776855 .00539
75 0 0 1 1 0 0 14 514 178 516 ?465 510 517 4 512 +0 0 465 510 20 50 515 361 0 46
5 518 512 0 +-.000632419465479535 .006477 .0052705 -581785070378426e-30 -.707106
781186548 .707106781186548 1 0 822768336915355e-30 14 465 174 519 ?471 514 464 4
 515 +0 0 471 514 20 52 518 360 0 471 520 515 0 +-.008969375 .007540625 .0052705
 0 0 -1 .001063625 .707106781186548 .707106781186548 1864941563674805e-30 -1 0 1
4 471 167 521 ?522 465 469 4 518 +0 0 522 465 20 50 520 359 0 522 523 518 0 +-.0
02061169465479535 .00860425 .0052705 -52877294538931e-29 .707106781186546 .70710
6781186549 1 0 747797870785528e-30 14 522 162 524 ?455 471 453 4 520 +0 0 455 47
1 20 52 523 358 0 455 525 520 0 +.0106251920311364 .01127125 .0052705 0 0 1 .002
667 .707106781186549 .707106781186546 874191357972564e-30 -1 0 14 455 157 526 ?4
57 522 454 4 523 -0 0 457 522 20 50 525 357 0 457 527 523 0 +.01034529999735126
 .00724703989225595 .0052705 -.49679917354738 .503180465799934 .707106781186549
 .818238874237813 0 .574878373820094 14 457 152 528 ?459 455 456 4 525 +0 0 459
 455 20 52 527 356 0 459 529 525 0 +.01762125 .01349375 .0052705 0 0 -1 66675e-8
 .707106781186546 .707106781186549 -.702580129006449 .711604639055481 0 14 459 1
47 530 ?461 457 458 4 527 +0 0 461 457 20 50 529 355 0 461 531 527 0 +.013609106
33127554 .00859552108880106 .0052705 .496799173547377 -.503180465799934 .7071067
81186551 .818238874237816 0 -.574878373820091 14 461 140 532 ?409 459 460 4 529
 +0 0 409 459 20 50 531 354 0 409 533 529 0 +.004389781738266795 .00637690427102
201 -.00254 0 0 -1 1 0 0 14 409 138 534 ?451 461 405 4 531 +0 0 451 461 20 50 53
3 353 0 451 535 531 0 +-.008969375 .00873125 0 -747797870785531e-30 1 0 1 747797
870785531e-30 0 14 451 133 536 ?444 409 450 4 533 +0 0 444 409 20 51 535 352 0 4
44 537 533 0 +.0106251920311364 .01127125 0 0 0 1 .00254 874191357972564e-30 -1
 0 14 444 128 538 ?436 451 442 4 535 -0 0 436 451 20 50 537 351 0 436 539 535 0
 +.01240974555881276 .00946377421679909 0 -.702580129006451 .711604639055479 0 .
711604639055479 .702580129006451 0 14 436 123 540 ?428 444 434 4 537 +0 0 428 44
4 20 51 539 350 0 428 489 537 0 +.01762125 .01349375 0 0 0 -1 79375e-8 -.7025801
29006449 .711604639055481 0 14 428 118 541 ?172 436 426 4 539 +0 0 172 436 20 50
 489 349 0 172 482 539 0 +.0181789229773989 .0129289138177497 0 .702580129006449
 -.711604639055481 0 -.711604639055481 -.702580129006449 0 81 1 541 423 483 428
 542 0 486 540 543 80 1 483 544 545 8015 0 0 0 0 3 5 0 0 0 FFFFTFFFFFFFFF2 81 2
 542 422 544 428 546 541 547 548 549 550 81 1 486 420 483 172 547 0 481 541 551
 81 1 540 426 483 436 548 0 541 538 552 83 1 543 0 81 2 548 425 544 436 553 540
 542 554 555 556 81 1 538 429 483 444 554 0 540 536 557 83 1 552 0 81 2 554 428
 544 444 558 538 548 559 560 561 81 1 536 432 483 451 559 0 538 534 562 83 1 557
 0 81 2 559 431 544 451 563 536 554 564 565 566 81 1 534 435 483 409 564 0 536 5
32 567 83 1 562 0 81 2 564 434 544 409 568 534 559 569 570 571 81 1 532 438 483
 461 569 0 534 530 572 83 1 567 0 81 2 569 437 544 461 573 532 564 574 575 576 8
1 1 530 441 483 459 574 0 532 528 577 83 1 572 0 81 2 574 440 544 459 578 530 56
9 579 580 581 81 1 528 444 483 457 579 0 530 526 582 83 1 577 0 81 2 579 443 544
 457 583 528 574 584 585 586 81 1 526 447 483 455 584 0 528 524 587 83 1 582 0 8
1 2 584 446 544 455 588 526 579 589 590 591 81 1 524 450 483 522 589 0 526 521 5
92 83 1 587 0 81 2 589 449 544 522 593 524 584 594 595 596 81 1 521 453 483 471
 594 0 524 519 597 83 1 592 0 81 2 594 452 544 471 598 521 589 599 600 601 81 1
 519 456 483 465 599 0 521 516 602 83 1 597 0 81 2 599 455 544 465 603 519 594 6
04 605 606 81 1 516 459 483 514 604 0 519 513 607 83 1 602 0 81 2 604 458 544 51
4 608 516 599 609 610 611 81 1 513 462 483 510 609 0 516 509 612 83 1 607 0 81 2
 609 461 544 510 613 513 604 614 615 616 81 1 509 465 483 506 614 0 513 505 617
 83 1 612 0 81 2 614 464 544 506 618 509 609 619 620 621 81 1 505 468 483 503 61
9 0 509 502 622 83 1 617 0 81 2 619 467 544 503 623 505 614 624 625 626 81 1 502
 471 483 473 624 0 505 500 627 83 1 622 0 81 2 624 470 544 473 628 502 619 629 6
30 631 81 1 500 474 483 193 629 0 502 495 632 83 1 627 0 81 2 629 473 544 193 63
3 500 624 634 635 636 81 1 495 477 483 395 634 0 500 492 637 83 1 632 0 81 2 634
 476 544 395 638 495 629 494 639 640 83 1 637 0 80 2 544 641 642 8014 0 0 0 0 3
 5 0 0 0 FFFFTFFFFFFFFF2 1 81 1 638 475 643 395 0 634 633 644 645 81 2 494 479 5
44 392 644 492 634 491 646 647 83 4 639 0 0 .749019607843137 .749019607843137 82
 1 640 0 81 1 644 478 643 392 0 494 638 648 649 81 2 491 482 544 15 648 490 494
 0 650 651 83 4 646 0 0 .749019607843137 .749019607843137 82 1 647 0 81 1 648 48
1 643 15 0 491 644 0 652 83 4 650 0 0 .749019607843137 .749019607843137 82 1 651
 0 80 1 643 0 653 8001 0 0 0 0 3 5 0 0 0 FFFFTFTFFFFFFF2 83 3 652 .7490196078431
37 .749019607843137 .749019607843137 79 15 653 SDL/TYSA_COLOUR83 3 649 .74901960
7843137 .749019607843137 .749019607843137 81 1 633 472 643 193 0 629 628 638 654
 83 3 645 .749019607843137 .749019607843137 .749019607843137 81 1 628 469 643 47
3 0 624 623 633 655 83 3 654 .749019607843137 .749019607843137 .749019607843137
 81 1 623 466 643 503 0 619 618 628 656 83 3 655 .749019607843137 .7490196078431
37 .749019607843137 81 1 618 463 643 506 0 614 613 623 657 83 3 656 .74901960784
3137 .749019607843137 .749019607843137 81 1 613 460 643 510 0 609 608 618 658 83
 3 657 .749019607843137 .749019607843137 .749019607843137 81 1 608 457 643 514 0
 604 603 613 659 83 3 658 .749019607843137 .749019607843137 .749019607843137 81
 1 603 454 643 465 0 599 598 608 660 83 3 659 .749019607843137 .749019607843137
 .749019607843137 81 1 598 451 643 471 0 594 593 603 661 83 3 660 .7490196078431
37 .749019607843137 .749019607843137 81 1 593 448 643 522 0 589 588 598 662 83 3
 661 .749019607843137 .749019607843137 .749019607843137 81 1 588 445 643 455 0 5
84 583 593 663 83 3 662 .749019607843137 .749019607843137 .749019607843137 81 1
 583 442 643 457 0 579 578 588 664 83 3 663 .749019607843137 .749019607843137 .7
49019607843137 81 1 578 439 643 459 0 574 573 583 665 83 3 664 .749019607843137
 .749019607843137 .749019607843137 81 1 573 436 643 461 0 569 568 578 666 83 3 6
65 .749019607843137 .749019607843137 .749019607843137 81 1 568 433 643 409 0 564
 563 573 667 83 3 666 .749019607843137 .749019607843137 .749019607843137 81 1 56
3 430 643 451 0 559 558 568 668 83 3 667 .749019607843137 .749019607843137 .7490
19607843137 81 1 558 427 643 444 0 554 553 563 669 83 3 668 .749019607843137 .74
9019607843137 .749019607843137 81 1 553 424 643 436 0 548 546 558 670 83 3 669 .
749019607843137 .749019607843137 .749019607843137 81 1 546 421 643 428 0 542 671
 553 672 83 3 670 .749019607843137 .749019607843137 .749019607843137 81 1 671 41
8 643 172 0 547 673 546 674 83 3 672 .749019607843137 .749019607843137 .74901960
7843137 81 2 547 419 544 172 671 486 484 542 675 676 81 1 673 415 643 478 0 484
 677 671 678 83 3 674 .749019607843137 .749019607843137 .749019607843137 81 2 48
4 416 544 478 673 481 679 547 680 681 81 1 677 412 643 477 0 679 682 673 683 83
 3 678 .749019607843137 .749019607843137 .749019607843137 81 2 679 413 544 477 6
77 485 684 484 685 686 81 1 682 409 643 402 0 684 687 677 688 83 3 683 .74901960
7843137 .749019607843137 .749019607843137 14 402 92 689 ?401 477 396 4 690 -0 0
 401 477 20 81 2 684 410 544 402 682 689 691 679 692 693 81 1 687 406 643 401 0
 691 694 682 695 83 3 688 .749019607843137 .749019607843137 .749019607843137 14
 401 85 696 ?414 402 399 4 697 +0 0 414 402 20 81 2 691 407 544 401 687 696 698
 684 699 700 81 1 694 403 643 414 0 698 701 687 702 83 3 695 .749019607843137 .7
49019607843137 .749019607843137 14 414 78 703 ?421 401 412 4 704 +0 0 421 401 20
 81 2 698 404 544 414 694 703 705 691 706 707 81 1 701 400 643 421 0 705 708 694
 709 83 3 702 .749019607843137 .749019607843137 .749019607843137 14 421 71 710 ?
425 414 418 4 711 +0 0 425 414 20 81 2 705 401 544 421 701 710 712 698 713 714 8
1 1 708 397 643 425 0 712 715 701 716 83 3 709 .749019607843137 .749019607843137
 .749019607843137 14 425 64 717 ?433 421 422 4 718 +0 0 433 421 20 81 2 712 398
 544 425 708 717 719 705 720 721 81 1 715 394 643 433 0 719 722 708 723 83 3 716
 .749019607843137 .749019607843137 .749019607843137 14 433 57 724 ?441 425 430 4
 725 +0 0 441 425 20 81 2 719 395 544 433 715 724 726 712 727 728 81 1 722 391 6
43 441 0 726 729 715 730 83 3 723 .749019607843137 .749019607843137 .74901960784
3137 14 441 50 731 ?448 433 438 4 732 -0 0 448 433 20 81 2 726 392 544 441 722 7
31 733 719 734 735 81 1 729 388 643 448 0 733 736 722 737 83 3 730 .749019607843
137 .749019607843137 .749019607843137 14 448 40 738 ?739 441 446 4 740 +0 0 739
 441 20 81 2 733 389 544 448 729 738 741 726 742 743 81 1 736 385 643 739 0 741
 744 729 745 83 3 737 .749019607843137 .749019607843137 .749019607843137 14 739
 34 746 ?747 448 748 4 749 +0 0 747 448 20 81 2 741 386 544 739 736 746 750 733
 751 752 81 1 744 382 643 747 0 750 753 736 754 83 3 745 .749019607843137 .74901
9607843137 .749019607843137 14 747 27 755 ?756 739 757 4 758 -0 0 756 739 20 81
 2 750 383 544 747 744 755 759 741 760 761 81 1 753 379 643 756 0 759 762 744 76
3 83 3 754 .749019607843137 .749019607843137 .749019607843137 14 756 20 764 ?765
 747 766 4 767 +0 0 765 747 20 81 2 759 380 544 756 753 764 768 750 769 770 81 1
 762 376 643 765 0 768 771 753 772 83 3 763 .749019607843137 .749019607843137 .7
49019607843137 14 765 13 773 ?185 756 774 4 775 +0 0 185 756 20 81 2 768 377 544
 765 762 773 776 759 777 778 81 1 771 373 643 185 0 776 0 762 779 83 3 772 .7490
19607843137 .749019607843137 .749019607843137 14 185 3 780 ?0 765 183 4 781 +0 0
 0 765 20 81 2 776 374 544 185 771 780 0 768 782 783 83 3 779 .749019607843137 .
749019607843137 .749019607843137 81 1 780 375 483 185 776 0 0 773 784 83 4 782 0
 0 .749019607843137 .749019607843137 82 1 783 0 81 1 773 378 483 765 768 0 780 7
64 785 83 1 784 0 81 1 764 381 483 756 759 0 773 755 786 83 1 785 0 81 1 755 384
 483 747 750 0 764 746 787 83 1 786 0 81 1 746 387 483 739 741 0 755 738 788 83
 1 787 0 81 1 738 390 483 448 733 0 746 731 789 83 1 788 0 81 1 731 393 483 441
 726 0 738 724 790 83 1 789 0 81 1 724 396 483 433 719 0 731 717 791 83 1 790 0
 81 1 717 399 483 425 712 0 724 710 792 83 1 791 0 81 1 710 402 483 421 705 0 71
7 703 793 83 1 792 0 81 1 703 405 483 414 698 0 710 696 794 83 1 793 0 81 1 696
 408 483 401 691 0 703 689 795 83 1 794 0 81 1 689 411 483 402 684 0 696 485 796
 83 1 795 0 81 1 485 414 483 477 679 0 689 481 797 83 1 796 0 83 1 797 0 50 781
 334 0 185 0 775 0 +.01296054563209622 .00795518538173944 -254e-6 .4967991735473
78 -.503180465799935 .707106781186549 .818238874237815 0 -.574878373820093 52 77
5 335 0 765 781 767 0 +0 0 -254e-6 0 0 -1 .003444875 .707106781186548 .707106781
186547 -1 -184551508905319e-30 0 50 767 336 0 756 775 758 0 +-.003444875 .003188
452135511005 -254e-6 -.707106781186548 -4120977581847185e-31 .707106781186547 .7
07106781186547 0 .707106781186548 52 758 337 0 747 767 749 0 +-.006111875 .00381
 -254e-6 0 0 1 .002667 .707106781186548 .707106781186547 1 655643518479423e-30 0
 50 749 338 0 739 758 740 0 +.004389781738266795 .00637690427102201 -127e-6 0 0
 1 1 0 0 50 740 339 0 448 749 732 0 +-.002289796630866605 .00860425 -.002413 -52
877294538931e-29 .707106781186546 -.707106781186549 -1 0 747797870785529e-30 52
 732 340 0 441 740 725 0 +.0106251920311364 .01127125 -.002413 0 0 -1 .002667 .7
07106781186549 .707106781186546 874191357972564e-30 -1 0 50 725 341 0 433 732 71
8 0 +.00969673929817195 .00660670418519432 -.002413 -.49679917354738 .5031804657
99934 -.707106781186549 -.818238874237814 0 .574878373820093 52 718 342 0 425 72
5 711 0 +.01762125 .01349375 -.002413 0 0 1 66675e-8 .707106781186546 .707106781
186549 -.702580129006449 .711604639055481 0 50 711 343 0 421 718 704 0 +.0129605
4563209622 .00795518538173944 -.002413 .496799173547378 -.503180465799935 -.7071
06781186549 -.818238874237815 0 -.574878373820093 52 704 344 0 414 711 697 0 +0
 0 -.002413 0 0 1 .003444875 .707106781186548 .707106781186547 -1 -1845515089053
19e-30 0 50 697 345 0 401 704 690 0 +-.003444875 .003188452135511005 -.002413 -.
707106781186548 -412097758184719e-30 -.707106781186547 -.707106781186547 0 .7071
06781186548 52 690 346 0 402 697 488 0 +-.006111875 .00381 -.002413 0 0 -1 .0026
67 .707106781186548 .707106781186547 1 655643518479423e-30 0 50 488 347 0 477 69
0 482 0 +-.000861046630866606 .006477 -.002413 -581785070378426e-30 -.7071067811
86548 -.707106781186547 -1 0 822768336915356e-30 83 4 777 0 0 .749019607843137 .
749019607843137 82 1 778 0 15 774 14 0 203 765 0 17 203 0 774 206 209 149 798 19
0 0 0 +17 206 0 774 188 203 155 417 204 0 167 +17 209 0 774 203 188 152 160 207
 0 798 +17 798 0 766 218 215 152 203 190 0 0 -15 766 21 0 212 756 0 17 218 0 766
 212 798 146 154 216 0 799 +17 215 0 766 798 212 149 390 213 0 417 +17 212 0 766
 215 218 143 799 210 0 0 +17 417 0 416 21 157 149 206 204 0 203 -17 799 0 757 23
2 229 146 212 210 0 0 -15 757 28 0 223 747 0 17 232 0 757 223 799 140 148 230 0
 194 +17 229 0 757 799 223 143 394 224 0 390 +17 223 0 757 229 232 137 194 219 0
 0 +17 394 0 393 86 145 137 229 224 0 223 -17 194 0 178 163 139 140 223 219 0 0
 -17 139 0 178 194 192 137 86 387 0 394 -17 148 0 800 154 142 146 232 230 0 218
 -15 800 35 0 148 739 0 17 154 0 800 160 148 152 218 216 0 209 -17 142 0 800 148
 196 140 163 195 0 232 +17 196 0 800 142 160 161 186 197 0 184 -17 160 0 800 196
 154 158 209 207 0 188 -17 186 0 183 174 184 158 196 197 0 0 +17 188 0 774 209 2
06 158 174 189 0 186 -83 4 769 0 0 .749019607843137 .749019607843137 82 1 770 0
 83 4 760 0 0 .749019607843137 .749019607843137 82 1 761 0 83 4 751 0 0 .7490196
07843137 .749019607843137 82 1 752 0 15 748 37 0 136 739 800 17 136 0 748 136 13
6 134 801 234 0 801 +17 801 0 802 801 801 134 136 234 0 0 -15 802 188 0 801 506
 0 83 4 742 0 0 .749019607843137 .749019607843137 82 1 743 0 83 4 734 0 0 .74901
9607843137 .749019607843137 82 1 735 0 83 4 727 0 0 .749019607843137 .7490196078
43137 82 1 728 0 83 4 720 0 0 .749019607843137 .749019607843137 82 1 721 0 83 4
 713 0 0 .749019607843137 .749019607843137 82 1 714 0 83 4 706 0 0 .749019607843
137 .749019607843137 82 1 707 0 83 4 699 0 0 .749019607843137 .749019607843137 8
2 1 700 0 83 4 692 0 0 .749019607843137 .749019607843137 82 1 693 0 83 4 685 0 0
 .749019607843137 .749019607843137 82 1 686 0 83 4 680 0 0 .749019607843137 .749
019607843137 82 1 681 0 83 4 675 0 0 .749019607843137 .749019607843137 82 1 676
 0 79 21 642 SDL/TYSA_REFLECTIVITY83 4 635 0 0 .749019607843137 .749019607843137
 82 1 636 0 83 4 630 0 0 .749019607843137 .749019607843137 82 1 631 0 83 4 625 0
 0 .749019607843137 .749019607843137 82 1 626 0 83 4 620 0 0 .749019607843137 .7
49019607843137 82 1 621 0 83 4 615 0 0 .749019607843137 .749019607843137 82 1 61
6 0 83 4 610 0 0 .749019607843137 .749019607843137 82 1 611 0 83 4 605 0 0 .7490
19607843137 .749019607843137 82 1 606 0 83 4 600 0 0 .749019607843137 .749019607
843137 82 1 601 0 83 4 595 0 0 .749019607843137 .749019607843137 82 1 596 0 83 4
 590 0 0 .749019607843137 .749019607843137 82 1 591 0 83 4 585 0 0 .749019607843
137 .749019607843137 82 1 586 0 83 4 580 0 0 .749019607843137 .749019607843137 8
2 1 581 0 83 4 575 0 0 .749019607843137 .749019607843137 82 1 576 0 83 4 570 0 0
 .749019607843137 .749019607843137 82 1 571 0 83 4 565 0 0 .749019607843137 .749
019607843137 82 1 566 0 83 4 560 0 0 .749019607843137 .749019607843137 82 1 561
 0 83 4 555 0 0 .749019607843137 .749019607843137 82 1 556 0 83 1 551 0 83 4 549
 0 0 .749019607843137 .749019607843137 82 1 550 0 79 21 545 SDL/TYSA_TRANSLUCENC
Y15 453 163 0 368 522 0 17 368 0 453 44 341 39 470 366 0 0 +17 44 0 453 62 368 4
2 803 369 0 804 +17 62 0 453 341 44 60 363 361 0 452 -17 803 0 517 467 804 39 44
 369 0 368 -17 804 0 517 803 805 42 47 364 0 363 -15 517 179 0 463 514 0 17 805
 0 517 804 806 45 50 359 0 358 -17 47 0 454 65 363 45 804 364 0 805 +17 806 0 51
7 805 463 48 56 354 0 353 -17 50 0 456 68 358 48 805 359 0 806 +17 463 0 517 806
 53 54 347 345 0 344 -17 56 0 458 74 353 54 806 354 0 463 +17 53 0 517 463 467 5
1 33 379 0 462 -17 467 0 517 53 803 29 41 374 0 373 -17 41 0 469 470 373 39 467
 374 0 803 +15 25 184 0 23 510 30 15 30 181 0 28 510 0 15 511 189 0 31 506 802 1
7 31 0 511 31 31 24 28 32 0 0 -15 507 191 0 26 503 0 17 26 0 507 26 26 10 23 27
 0 0 -83 1 496 0 83 1 493 0 83 1 487 0 17 106 0 418 419 274 104 410 275 0 411 +1
7 151 0 388 390 389 149 21 9 0 215 -19 16 206 0 1 0 8 4 S0 74 20 14 6 0 0 807 12
 648 491 490 2 0 0 0 0 0 0 0 0 0 0 0 0 0 0 81 1 807 371 808 1 0 12 0 0 809 81 1
 12 372 810 1 807 2 0 0 811 80 1 810 483 812 8041 0 0 0 0 3 5 0 0 0 TTTFFFFFFFFF
FF2 83 1 811 0 79 23 812 SDL/TYSA_TRANSLUCENCY_280 1 808 643 813 8040 0 0 0 0 3
 5 0 0 0 TTTFFFFFFFFFFF2 83 3 809 .749019607843137 .749019607843137 .74901960784
3137 79 17 813 SDL/TYSA_COLOUR_280 1 11 814 815 8017 0 0 0 0 0 0 0 0 0 TTTTTTTTT
TTTTF3 84 6 13 Solid179 13 815 SDL/TYSA_NAME1 0 
