G04*
G04 #@! TF.GenerationSoftware,Altium Limited,Altium Designer,21.9.1 (22)*
G04*
G04 Layer_Physical_Order=2*
G04 Layer_Color=16711680*
%FSLAX25Y25*%
%MOIN*%
G70*
G04*
G04 #@! TF.SameCoordinates,3B0F3E88-4553-4837-8599-20987A4D8A80*
G04*
G04*
G04 #@! TF.FilePolarity,Positive*
G04*
G01*
G75*
%ADD18R,0.05906X0.05906*%
%ADD19C,0.05906*%
%ADD20C,0.05906*%
%ADD21R,0.05906X0.05906*%
%ADD22R,0.05906X0.05906*%
D18*
X446000Y249000D02*
D03*
D19*
X436000D02*
D03*
X426000D02*
D03*
X416000D02*
D03*
X406000D02*
D03*
X396000D02*
D03*
X386000D02*
D03*
X376000D02*
D03*
X366000D02*
D03*
X356000D02*
D03*
X346000D02*
D03*
X336000D02*
D03*
X326000D02*
D03*
X316000D02*
D03*
X446000Y189000D02*
D03*
X436000D02*
D03*
X426000D02*
D03*
X416000D02*
D03*
X406000D02*
D03*
X396000D02*
D03*
X386000D02*
D03*
X376000D02*
D03*
X366000D02*
D03*
X356000D02*
D03*
X346000D02*
D03*
X336000D02*
D03*
X326000D02*
D03*
X316000D02*
D03*
X150000Y210000D02*
D03*
Y200000D02*
D03*
Y190000D02*
D03*
Y180000D02*
D03*
Y170000D02*
D03*
Y160000D02*
D03*
Y150000D02*
D03*
Y140000D02*
D03*
Y120000D02*
D03*
X180000Y210000D02*
D03*
Y200000D02*
D03*
Y190000D02*
D03*
Y180000D02*
D03*
Y170000D02*
D03*
Y160000D02*
D03*
Y150000D02*
D03*
Y140000D02*
D03*
Y130000D02*
D03*
X225000Y170000D02*
D03*
Y160000D02*
D03*
Y150000D02*
D03*
Y140000D02*
D03*
Y130000D02*
D03*
Y120000D02*
D03*
X255000Y180000D02*
D03*
Y170000D02*
D03*
Y160000D02*
D03*
Y150000D02*
D03*
Y140000D02*
D03*
Y130000D02*
D03*
Y120000D02*
D03*
X190000Y270000D02*
D03*
Y260000D02*
D03*
Y250000D02*
D03*
Y240000D02*
D03*
Y230000D02*
D03*
Y220000D02*
D03*
X220000Y280000D02*
D03*
Y270000D02*
D03*
Y260000D02*
D03*
Y250000D02*
D03*
Y240000D02*
D03*
Y230000D02*
D03*
Y220000D02*
D03*
D20*
X120000Y310000D02*
D03*
X110000D02*
D03*
X120000Y300000D02*
D03*
X110000D02*
D03*
X120000Y290000D02*
D03*
X110000D02*
D03*
X120000Y280000D02*
D03*
X110000D02*
D03*
X120000Y270000D02*
D03*
X110000D02*
D03*
X120000Y260000D02*
D03*
X110000D02*
D03*
X120000Y250000D02*
D03*
X110000D02*
D03*
X120000Y240000D02*
D03*
X110000D02*
D03*
X120000Y230000D02*
D03*
X110000D02*
D03*
X120000Y220000D02*
D03*
X110000D02*
D03*
X120000Y210000D02*
D03*
X110000D02*
D03*
X120000Y200000D02*
D03*
X110000D02*
D03*
X120000Y190000D02*
D03*
X110000D02*
D03*
X120000Y180000D02*
D03*
X110000D02*
D03*
X120000Y170000D02*
D03*
X110000D02*
D03*
X120000Y160000D02*
D03*
X110000D02*
D03*
X120000Y150000D02*
D03*
X110000D02*
D03*
X120000Y140000D02*
D03*
X110000D02*
D03*
X120000Y130000D02*
D03*
X110000D02*
D03*
X120000Y120000D02*
D03*
X150000Y130000D02*
D03*
D21*
X110000Y120000D02*
D03*
D22*
X180000D02*
D03*
X225000Y180000D02*
D03*
X190000Y280000D02*
D03*
M02*
