M48
;Layer_Color=9474304
;FILE_FORMAT=2:5
INCH,LZ
;TYPE=PLATED
T1F00S00C0.01200
T2F00S00C0.02000
T3F00S00C0.02953
T4F00S00C0.03543
T5F00S00C0.06299
T6F00S00C0.10900
%
T01
X01255Y0112
X01295Y01155
X01325Y01163
X0133132Y0123368
X0136Y0126
X0139Y0127
X01423Y0133
X01451Y0137
X015Y0155
X01575Y0145
X02645Y0136
X02685Y01335
Y01214
X02655Y0119
X028Y014
X03775Y0145
X0389Y0127
X03915Y01245
X0384311Y01205
X03816Y0119
X0405Y01135
X04083Y01165
X04116Y0119
X04149Y0122
X03775Y0175
X0364Y0209
X03495Y02005
X0354924Y0230924
X03585Y02275
X0352624Y02405
X0347Y0245
X0375Y02825
X04075Y0295
X0325Y0310847
X03145Y0199
X0439Y0195
X0285
X02825Y0205
X028Y0215
X02775Y0225
X0302Y0228
X03015Y02375
X0303Y02145
X026875Y0245
Y0268
X0208Y0301
T02
X017Y013
X0185Y01475
X02325
X024Y013
X022
X026Y012
X027Y01475
X035Y014
X044Y012
X046
X048
X05
X052
X054
X056
X058
X059Y014
X061
X057
X055
X053
X051
X049
X047
X048Y016
X05
X052
X054
X056
X058
X06
X061Y018
X059
X057
X055
X053
X051
X049
X047
X048Y02
X05
X052
X054
X056
X058
X06
X061Y022
X059
X057
X055
X053
X051
X049
X047
X048Y024
X05
X052
X054
X056
X058
X06
X061Y026
X059
X057
X055
X053
X051
X049
X047
X048Y028
X05
X052
X054
X056
X058
X06
X061Y03
X059
X057
X055
X053
X051
X049
X047
X046Y028
X045Y026
X046Y024
X045Y022
X046Y02
X045Y018
X046Y016
X042Y02
X04Y0224261
X034
X029Y022
X023Y026
X022Y0264261
X021Y026
X017Y0264261
X012Y028
X013Y03
X012Y032
X013Y034
X019
X03Y032
X0310157Y035
X032Y0342126
X033Y034
X035
X037
X039
X041
X043
X045
X046Y032
X04Y0324261
X048Y032
X05
X052
X054
X056
X058
X06
X061Y034
X057
X055
X053
X051
X049
X047
T03
X032Y022
X0360157
X037
X0420157
X043
X0310157
X025Y026
X0240157
X02
X0190157
Y035
X02
X0240158
X025
X029
X029Y0342126
X0310157Y032
X032
X0360157
X037
X0420157
X043
T04
X011Y012
Y013
Y014
Y015
X012
Y014
Y013
Y012
X017Y0155
X02
X022
X025
X029
Y0145
Y0135
X032
Y0145
Y0155
X034
Y0145
Y0135
X037
Y0145
Y0155
X04
Y0145
Y0135
X043
Y0145
Y0155
Y0165
Y0175
Y0185
Y0195
Y0205
X04
Y0195
Y0185
Y0175
Y0165
X037
Y0175
Y0185
Y0195
Y0205
Y0235
Y0245
Y0255
Y0265
Y0275
Y0285
Y0295
Y0305
X034
Y0295
Y0285
Y0275
Y0265
Y0255
Y0245
Y0235
X032
Y0245
Y0255
Y0265
Y0275
Y0285
Y0295
Y0305
X04
Y0295
Y0285
Y0275
Y0265
Y0255
Y0245
Y0235
X043
Y0245
Y0255
Y0265
Y0275
Y0285
Y0295
Y0305
X034Y0205
Y0195
Y0185
Y0175
Y0165
X032
Y0175
Y0185
Y0195
Y0205
X029
Y0195
Y0185
Y0175
Y0165
X025
Y0175
Y0185
Y0195
Y0205
Y0215
Y0225
Y0235
Y0245
Y0275
Y0285
Y0295
Y0305
X022
Y0295
Y0285
Y0275
X02
Y0285
Y0295
Y0305
X017
Y0295
Y0285
Y0275
Y0245
Y0235
Y0225
Y0215
Y0205
Y0195
Y0185
Y0175
Y0165
X02
Y0175
Y0185
Y0195
Y0205
Y0215
Y0225
Y0235
Y0245
X022
Y0235
Y0225
Y0215
Y0205
Y0195
Y0185
Y0175
Y0165
X029Y0235
Y0245
Y0255
Y0265
Y0275
Y0285
Y0295
Y0305
X012Y025
X011
Y024
X012
Y023
X011
Y022
X012
Y021
X011
Y02
X012
Y019
X011
Y018
X012
Y017
X011
Y016
X012
X017Y0315
Y0325
Y0335
X02
Y0325
Y0315
X022
Y0325
Y0335
X025
Y0325
Y0315
T05
X0455Y0135
X045Y0295
X013Y029
Y031
Y033
X0275Y0325
X034Y0335
X04
X045Y032
T06
X0595Y0125
Y0345
M30
