G04*
G04 #@! TF.GenerationSoftware,Altium Limited,Altium Designer,21.0.9 (235)*
G04*
G04 Layer_Color=65535*
%FSLAX25Y25*%
%MOIN*%
G70*
G04*
G04 #@! TF.SameCoordinates,9810A963-8346-42D8-B9D0-F92D299A61E0*
G04*
G04*
G04 #@! TF.FilePolarity,Positive*
G04*
G01*
G75*
%ADD10C,0.00787*%
%ADD11C,0.00984*%
%ADD12C,0.00500*%
%ADD13C,0.01000*%
%ADD14C,0.00591*%
D10*
X131240Y260000D02*
G03*
X131240Y260000I-6240J0D01*
G01*
Y275000D02*
G03*
X131240Y275000I-6240J0D01*
G01*
Y290000D02*
G03*
X131240Y290000I-6240J0D01*
G01*
Y305000D02*
G03*
X131240Y305000I-6240J0D01*
G01*
X222500Y338779D02*
G03*
X227500Y338779I2500J0D01*
G01*
X482500D02*
G03*
X487500Y338779I2500J0D01*
G01*
X382500Y339213D02*
G03*
X387500Y339213I2500J0D01*
G01*
X432500Y338779D02*
G03*
X437500Y338779I2500J0D01*
G01*
X291240Y250000D02*
G03*
X291240Y250000I-6240J0D01*
G01*
X482500Y218779D02*
G03*
X487500Y218779I2500J0D01*
G01*
X432500D02*
G03*
X437500Y218779I2500J0D01*
G01*
X382500Y219213D02*
G03*
X387500Y219213I2500J0D01*
G01*
X322500Y223780D02*
G03*
X327500Y223780I2500J0D01*
G01*
X272500Y218779D02*
G03*
X277500Y218779I2500J0D01*
G01*
X222500D02*
G03*
X227500Y218779I2500J0D01*
G01*
X172500Y219213D02*
G03*
X177500Y219213I2500J0D01*
G01*
X541240Y340000D02*
G03*
X541240Y340000I-6240J0D01*
G01*
X291240Y130000D02*
G03*
X291240Y130000I-6240J0D01*
G01*
X326240D02*
G03*
X326240Y130000I-6240J0D01*
G01*
X172500Y339213D02*
G03*
X177500Y339213I2500J0D01*
G01*
X124843Y346063D02*
G03*
X124843Y346063I-9843J0D01*
G01*
X272500Y338779D02*
G03*
X277500Y338779I2500J0D01*
G01*
X521240Y120000D02*
G03*
X521240Y120000I-6240J0D01*
G01*
X528740Y230000D02*
G03*
X528740Y230000I-6240J0D01*
G01*
X541240Y275000D02*
G03*
X541240Y275000I-6240J0D01*
G01*
X322500Y338779D02*
G03*
X327500Y338779I2500J0D01*
G01*
X227205Y344882D02*
X242953D01*
X227205Y355118D02*
X242953D01*
Y344882D02*
Y345965D01*
X227205Y344882D02*
Y345965D01*
X242953Y354035D02*
Y355118D01*
X227205Y354035D02*
Y355118D01*
X214567Y338779D02*
X222500D01*
X227500D02*
X235433D01*
X214567Y261221D02*
X235433D01*
X214567D02*
Y338779D01*
X235433Y261221D02*
Y338779D01*
X277205Y344882D02*
X292953D01*
X277205Y355118D02*
X292953D01*
Y344882D02*
Y345965D01*
X277205Y344882D02*
Y345965D01*
X292953Y354035D02*
Y355118D01*
X277205Y354035D02*
Y355118D01*
X327205Y344882D02*
X342953D01*
X327205Y355118D02*
X342953D01*
Y344882D02*
Y345965D01*
X327205Y344882D02*
Y345965D01*
X342953Y354035D02*
Y355118D01*
X327205Y354035D02*
Y355118D01*
X495433Y261221D02*
Y338779D01*
X474567Y261221D02*
Y338779D01*
Y261221D02*
X495433D01*
X487500Y338779D02*
X495433D01*
X474567D02*
X482500D01*
X487205Y344882D02*
X502953D01*
X487205Y355118D02*
X502953D01*
Y344882D02*
Y345965D01*
X487205Y344882D02*
Y345965D01*
X502953Y354035D02*
Y355118D01*
X487205Y354035D02*
Y355118D01*
X437205Y344882D02*
X452953D01*
X437205Y355118D02*
X452953D01*
Y344882D02*
Y345965D01*
X437205Y344882D02*
Y345965D01*
X452953Y354035D02*
Y355118D01*
X437205Y354035D02*
Y355118D01*
X387205Y344882D02*
X402953D01*
X387205Y355118D02*
X402953D01*
Y344882D02*
Y345965D01*
X387205Y344882D02*
Y345965D01*
X402953Y354035D02*
Y355118D01*
X387205Y354035D02*
Y355118D01*
X374567Y339213D02*
X382500D01*
X387500D02*
X395433D01*
X374567Y240787D02*
X395433D01*
X374567D02*
Y339213D01*
X395433Y240787D02*
Y339213D01*
X445433Y261221D02*
Y338779D01*
X424567Y261221D02*
Y338779D01*
Y261221D02*
X445433D01*
X437500Y338779D02*
X445433D01*
X424567D02*
X432500D01*
X365000Y240000D02*
Y330000D01*
X355000D02*
X365000D01*
X355000Y240000D02*
Y330000D01*
Y240000D02*
X365000D01*
X177205Y224882D02*
X192953D01*
X177205Y235118D02*
X192953D01*
Y224882D02*
Y225965D01*
X177205Y224882D02*
Y225965D01*
X192953Y234035D02*
Y235118D01*
X177205Y234035D02*
Y235118D01*
X227205Y224882D02*
X242953D01*
X227205Y235118D02*
X242953D01*
Y224882D02*
Y225965D01*
X227205Y224882D02*
Y225965D01*
X242953Y234035D02*
Y235118D01*
X227205Y234035D02*
Y235118D01*
X277205Y224882D02*
X292953D01*
X277205Y235118D02*
X292953D01*
Y224882D02*
Y225965D01*
X277205Y224882D02*
Y225965D01*
X292953Y234035D02*
Y235118D01*
X277205Y234035D02*
Y235118D01*
X327205Y224882D02*
X342953D01*
X327205Y235118D02*
X342953D01*
Y224882D02*
Y225965D01*
X327205Y224882D02*
Y225965D01*
X342953Y234035D02*
Y235118D01*
X327205Y234035D02*
Y235118D01*
X387205Y224882D02*
X402953D01*
X387205Y235118D02*
X402953D01*
Y224882D02*
Y225965D01*
X387205Y224882D02*
Y225965D01*
X402953Y234035D02*
Y235118D01*
X387205Y234035D02*
Y235118D01*
X437205Y224882D02*
X452953D01*
X437205Y235118D02*
X452953D01*
Y224882D02*
Y225965D01*
X437205Y224882D02*
Y225965D01*
X452953Y234035D02*
Y235118D01*
X437205Y234035D02*
Y235118D01*
X487205Y224882D02*
X502953D01*
X487205Y235118D02*
X502953D01*
Y224882D02*
Y225965D01*
X487205Y224882D02*
Y225965D01*
X502953Y234035D02*
Y235118D01*
X487205Y234035D02*
Y235118D01*
X495433Y141220D02*
Y218779D01*
X474567Y141220D02*
Y218779D01*
Y141220D02*
X495433D01*
X487500Y218779D02*
X495433D01*
X474567D02*
X482500D01*
X445433Y141220D02*
Y218779D01*
X424567Y141220D02*
Y218779D01*
Y141220D02*
X445433D01*
X437500Y218779D02*
X445433D01*
X424567D02*
X432500D01*
X374567Y219213D02*
X382500D01*
X387500D02*
X395433D01*
X374567Y120787D02*
X395433D01*
X374567D02*
Y219213D01*
X395433Y120787D02*
Y219213D01*
X335433Y146221D02*
Y223780D01*
X314567Y146221D02*
Y223780D01*
Y146221D02*
X335433D01*
X327500Y223780D02*
X335433D01*
X314567D02*
X322500D01*
X264567Y218779D02*
X272500D01*
X277500D02*
X285433D01*
X264567Y141220D02*
X285433D01*
X264567D02*
Y218779D01*
X285433Y141220D02*
Y218779D01*
X235433Y141220D02*
Y218779D01*
X214567Y141220D02*
Y218779D01*
Y141220D02*
X235433D01*
X227500Y218779D02*
X235433D01*
X214567D02*
X222500D01*
X164567Y219213D02*
X172500D01*
X177500D02*
X185433D01*
X164567Y120787D02*
X185433D01*
X164567D02*
Y219213D01*
X185433Y120787D02*
Y219213D01*
X365000Y120000D02*
Y210000D01*
X355000D02*
X365000D01*
X355000Y120000D02*
Y210000D01*
Y120000D02*
X365000D01*
X164567Y339213D02*
X172500D01*
X177500D02*
X185433D01*
X164567Y240787D02*
X185433D01*
X164567D02*
Y339213D01*
X185433Y240787D02*
Y339213D01*
X155000Y120000D02*
Y210000D01*
X145000D02*
X155000D01*
X145000Y120000D02*
Y210000D01*
Y120000D02*
X155000D01*
X177205Y344882D02*
X192953D01*
X177205Y355118D02*
X192953D01*
Y344882D02*
Y345965D01*
X177205Y344882D02*
Y345965D01*
X192953Y354035D02*
Y355118D01*
X177205Y354035D02*
Y355118D01*
X145000Y240000D02*
X155000D01*
X145000D02*
Y330000D01*
X155000D01*
Y240000D02*
Y330000D01*
X285433Y261221D02*
Y338779D01*
X264567Y261221D02*
Y338779D01*
Y261221D02*
X285433D01*
X277500Y338779D02*
X285433D01*
X264567D02*
X272500D01*
X102000Y115000D02*
X105000D01*
X102000Y315000D02*
X105000D01*
Y115000D02*
Y122500D01*
Y315000D01*
X314567Y338779D02*
X322500D01*
X327500D02*
X335433D01*
X314567Y271220D02*
X335433D01*
X314567D02*
Y338779D01*
X335433Y271220D02*
Y338779D01*
D11*
X245118Y350000D02*
G03*
X245118Y350000I-492J0D01*
G01*
X295118D02*
G03*
X295118Y350000I-492J0D01*
G01*
X345118D02*
G03*
X345118Y350000I-492J0D01*
G01*
X505118D02*
G03*
X505118Y350000I-492J0D01*
G01*
X455118D02*
G03*
X455118Y350000I-492J0D01*
G01*
X405118D02*
G03*
X405118Y350000I-492J0D01*
G01*
X195118Y230000D02*
G03*
X195118Y230000I-492J0D01*
G01*
X245118D02*
G03*
X245118Y230000I-492J0D01*
G01*
X295118D02*
G03*
X295118Y230000I-492J0D01*
G01*
X345118D02*
G03*
X345118Y230000I-492J0D01*
G01*
X405118D02*
G03*
X405118Y230000I-492J0D01*
G01*
X455118D02*
G03*
X455118Y230000I-492J0D01*
G01*
X505118D02*
G03*
X505118Y230000I-492J0D01*
G01*
X195118Y350000D02*
G03*
X195118Y350000I-492J0D01*
G01*
D12*
X105000Y360000D02*
X600000D01*
X117500Y110000D02*
X600000Y110000D01*
D13*
X535499Y121000D02*
X531000D01*
Y123249D01*
X531750Y123999D01*
X533249D01*
X533999Y123249D01*
Y121000D01*
Y122500D02*
X535499Y123999D01*
Y127748D02*
Y126248D01*
X534749Y125499D01*
X533249D01*
X532500Y126248D01*
Y127748D01*
X533249Y128498D01*
X533999D01*
Y125499D01*
X536998Y131497D02*
Y132246D01*
X536248Y132996D01*
X532500D01*
Y130747D01*
X533249Y129997D01*
X534749D01*
X535499Y130747D01*
Y132996D01*
Y134496D02*
Y135995D01*
Y135245D01*
X532500D01*
Y134496D01*
X535499Y138244D02*
Y140494D01*
X534749Y141244D01*
X533999Y140494D01*
Y138994D01*
X533249Y138244D01*
X532500Y138994D01*
Y141244D01*
X531750Y143493D02*
X532500D01*
Y142743D01*
Y144243D01*
Y143493D01*
X534749D01*
X535499Y144243D01*
Y148741D02*
Y147242D01*
X534749Y146492D01*
X533249D01*
X532500Y147242D01*
Y148741D01*
X533249Y149491D01*
X533999D01*
Y146492D01*
X532500Y150990D02*
X535499D01*
X533999D01*
X533249Y151740D01*
X532500Y152490D01*
Y153240D01*
X544796Y121000D02*
Y122500D01*
Y121750D01*
X540298D01*
X541047Y121000D01*
X544796Y124749D02*
X541797Y127748D01*
X544796Y132246D02*
Y129247D01*
X541797Y132246D01*
X541047D01*
X540298Y131497D01*
Y129997D01*
X541047Y129247D01*
X540298Y136745D02*
Y133746D01*
X542547D01*
X541797Y135245D01*
Y135995D01*
X542547Y136745D01*
X544047D01*
X544796Y135995D01*
Y134496D01*
X544047Y133746D01*
X544796Y138244D02*
X541797Y141244D01*
X544796Y145742D02*
Y142743D01*
X541797Y145742D01*
X541047D01*
X540298Y144992D01*
Y143493D01*
X541047Y142743D01*
Y147242D02*
X540298Y147991D01*
Y149491D01*
X541047Y150241D01*
X544047D01*
X544796Y149491D01*
Y147991D01*
X544047Y147242D01*
X541047D01*
X544796Y154739D02*
Y151740D01*
X541797Y154739D01*
X541047D01*
X540298Y153989D01*
Y152490D01*
X541047Y151740D01*
X540298Y159238D02*
X541047Y157738D01*
X542547Y156239D01*
X544047D01*
X544796Y156988D01*
Y158488D01*
X544047Y159238D01*
X543297D01*
X542547Y158488D01*
Y156239D01*
X552595Y121000D02*
X548096D01*
Y123249D01*
X548846Y123999D01*
X550345D01*
X551095Y123249D01*
Y121000D01*
Y122500D02*
X552595Y123999D01*
Y127748D02*
Y126248D01*
X551845Y125499D01*
X550345D01*
X549595Y126248D01*
Y127748D01*
X550345Y128498D01*
X551095D01*
Y125499D01*
X549595Y129997D02*
X552595Y131497D01*
X549595Y132996D01*
X552595Y138994D02*
X549595D01*
X548096Y140494D01*
X549595Y141993D01*
X552595D01*
X550345D01*
Y138994D01*
X555894Y123999D02*
Y121000D01*
X560393D01*
Y123999D01*
X558144Y121000D02*
Y122500D01*
X560393Y125499D02*
X559643D01*
Y126248D01*
X560393D01*
Y125499D01*
X556644Y136745D02*
X555894Y135995D01*
Y134496D01*
X556644Y133746D01*
X557394D01*
X558144Y134496D01*
Y135995D01*
X558893Y136745D01*
X559643D01*
X560393Y135995D01*
Y134496D01*
X559643Y133746D01*
X555894Y138244D02*
Y139744D01*
Y138994D01*
X560393D01*
Y138244D01*
Y139744D01*
Y141993D02*
X555894D01*
X557394Y143493D01*
X555894Y144992D01*
X560393D01*
X556644Y149491D02*
X555894Y148741D01*
Y147242D01*
X556644Y146492D01*
X557394D01*
X558144Y147242D01*
Y148741D01*
X558893Y149491D01*
X559643D01*
X560393Y148741D01*
Y147242D01*
X559643Y146492D01*
X543500Y345499D02*
X547499D01*
X545499D01*
Y339501D01*
X549498D02*
Y345499D01*
X552497D01*
X553497Y344499D01*
Y342500D01*
X552497Y341500D01*
X549498D01*
X555496Y345499D02*
X559495D01*
Y344499D01*
X555496Y340501D01*
Y339501D01*
X543500Y329501D02*
Y335499D01*
X546499D01*
X547499Y334499D01*
Y332500D01*
X546499Y331500D01*
X543500D01*
X545499D02*
X547499Y329501D01*
X553497Y334499D02*
X552497Y335499D01*
X550498D01*
X549498Y334499D01*
Y333500D01*
X550498Y332500D01*
X552497D01*
X553497Y331500D01*
Y330501D01*
X552497Y329501D01*
X550498D01*
X549498Y330501D01*
X555496Y335499D02*
X559495D01*
X557495D01*
Y329501D01*
X562494D02*
Y335499D01*
X564493D02*
Y329501D01*
X561494Y333500D02*
X564493D01*
X565493D01*
X561494Y331500D02*
X565493D01*
X117003Y220499D02*
X121002D01*
X119003D01*
Y214501D01*
X123002D02*
Y220499D01*
X126000D01*
X127000Y219499D01*
Y217500D01*
X126000Y216500D01*
X123002D01*
X128999Y214501D02*
X130999D01*
X129999D01*
Y220499D01*
X128999Y219499D01*
X133998D02*
X134998Y220499D01*
X136997D01*
X137997Y219499D01*
Y218500D01*
X136997Y217500D01*
X135997D01*
X136997D01*
X137997Y216500D01*
Y215501D01*
X136997Y214501D01*
X134998D01*
X133998Y215501D01*
X117003Y230499D02*
X121002D01*
X119003D01*
Y224501D01*
X123002D02*
Y230499D01*
X126000D01*
X127000Y229499D01*
Y227500D01*
X126000Y226500D01*
X123002D01*
X128999Y224501D02*
X130999D01*
X129999D01*
Y230499D01*
X128999Y229499D01*
X133998D02*
X134998Y230499D01*
X136997D01*
X137997Y229499D01*
Y225501D01*
X136997Y224501D01*
X134998D01*
X133998Y225501D01*
Y229499D01*
X117003Y240499D02*
X121002D01*
X119003D01*
Y234501D01*
X123002D02*
Y240499D01*
X126000D01*
X127000Y239499D01*
Y237500D01*
X126000Y236500D01*
X123002D01*
X128999Y234501D02*
X130999D01*
X129999D01*
Y240499D01*
X128999Y239499D01*
X137997Y234501D02*
X133998D01*
X137997Y238500D01*
Y239499D01*
X136997Y240499D01*
X134998D01*
X133998Y239499D01*
X328500Y127999D02*
X332499D01*
X330499D01*
Y122001D01*
X334498D02*
Y127999D01*
X337497D01*
X338497Y126999D01*
Y125000D01*
X337497Y124000D01*
X334498D01*
X340496Y126999D02*
X341496Y127999D01*
X343495D01*
X344495Y126999D01*
Y126000D01*
X343495Y125000D01*
X344495Y124000D01*
Y123001D01*
X343495Y122001D01*
X341496D01*
X340496Y123001D01*
Y124000D01*
X341496Y125000D01*
X340496Y126000D01*
Y126999D01*
X341496Y125000D02*
X343495D01*
X331000Y117999D02*
Y112001D01*
X334999D01*
X336998D02*
Y117999D01*
X338997Y116000D01*
X340997Y117999D01*
Y112001D01*
X343996D02*
Y117999D01*
X345995D02*
Y112001D01*
X342996Y116000D02*
X345995D01*
X346995D01*
X342996Y114000D02*
X346995D01*
X117003Y250499D02*
X121002D01*
X119003D01*
Y244501D01*
X123002D02*
Y250499D01*
X126000D01*
X127000Y249499D01*
Y247500D01*
X126000Y246500D01*
X123002D01*
X128999Y244501D02*
X130999D01*
X129999D01*
Y250499D01*
X128999Y249499D01*
X136997Y244501D02*
Y250499D01*
X133998Y247500D01*
X137997D01*
X294503Y257999D02*
X298501D01*
X296502D01*
Y252001D01*
X300501D02*
Y257999D01*
X303500D01*
X304499Y256999D01*
Y255000D01*
X303500Y254000D01*
X300501D01*
X306499Y253001D02*
X307498Y252001D01*
X309498D01*
X310497Y253001D01*
Y256999D01*
X309498Y257999D01*
X307498D01*
X306499Y256999D01*
Y256000D01*
X307498Y255000D01*
X310497D01*
X295002Y242001D02*
Y246000D01*
X297002Y247999D01*
X299001Y246000D01*
Y242001D01*
Y245000D01*
X295002D01*
X301000Y247999D02*
X303000D01*
X302000D01*
Y242001D01*
X301000D01*
X303000D01*
X306998D02*
Y247999D01*
X308998D02*
Y242001D01*
X305999Y246000D02*
X308998D01*
X309998D01*
X305999Y244000D02*
X309998D01*
X293500Y127999D02*
X297499D01*
X295499D01*
Y122001D01*
X299498D02*
Y127999D01*
X302497D01*
X303497Y126999D01*
Y125000D01*
X302497Y124000D01*
X299498D01*
X305496Y122001D02*
X307495D01*
X306496D01*
Y127999D01*
X305496Y126999D01*
X310494Y122001D02*
X312494D01*
X311494D01*
Y127999D01*
X310494Y126999D01*
X293500Y117999D02*
Y112001D01*
X296499D01*
X297499Y113001D01*
Y114000D01*
X296499Y115000D01*
X293500D01*
X296499D01*
X297499Y116000D01*
Y116999D01*
X296499Y117999D01*
X293500D01*
X299498D02*
X301497D01*
X300498D01*
Y112001D01*
X299498D01*
X301497D01*
X305496D02*
Y117999D01*
X307495D02*
Y112001D01*
X304496Y116000D02*
X307495D01*
X308495D01*
X304496Y114000D02*
X308495D01*
X357001Y332003D02*
Y336001D01*
Y334002D01*
X362999D01*
Y338001D02*
X357001D01*
Y341000D01*
X358001Y341999D01*
X360000D01*
X361000Y341000D01*
Y338001D01*
X358001Y343999D02*
X357001Y344998D01*
Y346998D01*
X358001Y347997D01*
X359000D01*
X360000Y346998D01*
Y345998D01*
Y346998D01*
X361000Y347997D01*
X361999D01*
X362999Y346998D01*
Y344998D01*
X361999Y343999D01*
X357001Y212003D02*
Y216001D01*
Y214002D01*
X362999D01*
Y218001D02*
X357001D01*
Y221000D01*
X358001Y221999D01*
X360000D01*
X361000Y221000D01*
Y218001D01*
X362999Y227997D02*
Y223999D01*
X359000Y227997D01*
X358001D01*
X357001Y226998D01*
Y224998D01*
X358001Y223999D01*
X136501Y181504D02*
Y185503D01*
Y183504D01*
X142499D01*
Y187502D02*
X136501D01*
Y190501D01*
X137501Y191501D01*
X139500D01*
X140500Y190501D01*
Y187502D01*
X142499Y193500D02*
Y195500D01*
Y194500D01*
X136501D01*
X137501Y193500D01*
X143499Y198499D02*
Y202498D01*
X136501Y204497D02*
X142499D01*
Y207496D01*
X141499Y208496D01*
X140500D01*
X139500Y207496D01*
Y204497D01*
Y207496D01*
X138500Y208496D01*
X137501D01*
X136501Y207496D01*
Y204497D01*
X136501Y301000D02*
Y304999D01*
Y302999D01*
X142499D01*
Y306998D02*
X136501D01*
Y309997D01*
X137501Y310997D01*
X139500D01*
X140500Y309997D01*
Y306998D01*
X142499Y312996D02*
Y314996D01*
Y313996D01*
X136501D01*
X137501Y312996D01*
X143499Y317994D02*
Y321993D01*
X142499Y323993D02*
X138500D01*
X136501Y325992D01*
X138500Y327991D01*
X142499D01*
X139500D01*
Y323993D01*
X311501Y356999D02*
X310502Y357999D01*
X308502D01*
X307502Y356999D01*
Y353001D01*
X308502Y352001D01*
X310502D01*
X311501Y353001D01*
X313500Y352001D02*
X315500D01*
X314500D01*
Y357999D01*
X313500Y356999D01*
X321498Y352001D02*
Y357999D01*
X318499Y355000D01*
X322498D01*
X371501Y356999D02*
X370501Y357999D01*
X368502D01*
X367502Y356999D01*
Y353001D01*
X368502Y352001D01*
X370501D01*
X371501Y353001D01*
X373500Y352001D02*
X375500D01*
X374500D01*
Y357999D01*
X373500Y356999D01*
X382498Y352001D02*
X378499D01*
X382498Y356000D01*
Y356999D01*
X381498Y357999D01*
X379499D01*
X378499Y356999D01*
X375001Y231999D02*
X374001Y232999D01*
X372002D01*
X371002Y231999D01*
Y228001D01*
X372002Y227001D01*
X374001D01*
X375001Y228001D01*
X377000Y227001D02*
X378999D01*
X378000D01*
Y232999D01*
X377000Y231999D01*
X381998Y227001D02*
X383998D01*
X382998D01*
Y232999D01*
X381998Y231999D01*
X471501Y356999D02*
X470502Y357999D01*
X468502D01*
X467502Y356999D01*
Y353001D01*
X468502Y352001D01*
X470502D01*
X471501Y353001D01*
X473500Y352001D02*
X475500D01*
X474500D01*
Y357999D01*
X473500Y356999D01*
X478499D02*
X479498Y357999D01*
X481498D01*
X482498Y356999D01*
Y353001D01*
X481498Y352001D01*
X479498D01*
X478499Y353001D01*
Y356999D01*
X426500D02*
X425501Y357999D01*
X423501D01*
X422502Y356999D01*
Y353001D01*
X423501Y352001D01*
X425501D01*
X426500Y353001D01*
X428500D02*
X429499Y352001D01*
X431499D01*
X432498Y353001D01*
Y356999D01*
X431499Y357999D01*
X429499D01*
X428500Y356999D01*
Y356000D01*
X429499Y355000D01*
X432498D01*
X479000Y231999D02*
X478001Y232999D01*
X476001D01*
X475002Y231999D01*
Y228001D01*
X476001Y227001D01*
X478001D01*
X479000Y228001D01*
X481000Y231999D02*
X481999Y232999D01*
X483999D01*
X484998Y231999D01*
Y231000D01*
X483999Y230000D01*
X484998Y229000D01*
Y228001D01*
X483999Y227001D01*
X481999D01*
X481000Y228001D01*
Y229000D01*
X481999Y230000D01*
X481000Y231000D01*
Y231999D01*
X481999Y230000D02*
X483999D01*
X429000Y231999D02*
X428001Y232999D01*
X426001D01*
X425002Y231999D01*
Y228001D01*
X426001Y227001D01*
X428001D01*
X429000Y228001D01*
X431000Y232999D02*
X434998D01*
Y231999D01*
X431000Y228001D01*
Y227001D01*
X316500Y231999D02*
X315501Y232999D01*
X313501D01*
X312502Y231999D01*
Y228001D01*
X313501Y227001D01*
X315501D01*
X316500Y228001D01*
X322498Y232999D02*
X320499Y231999D01*
X318500Y230000D01*
Y228001D01*
X319499Y227001D01*
X321499D01*
X322498Y228001D01*
Y229000D01*
X321499Y230000D01*
X318500D01*
X155502Y232499D02*
X154503Y233499D01*
X152503D01*
X151504Y232499D01*
Y228501D01*
X152503Y227501D01*
X154503D01*
X155502Y228501D01*
X161500Y233499D02*
X157502D01*
Y230500D01*
X159501Y231500D01*
X160501D01*
X161500Y230500D01*
Y228501D01*
X160501Y227501D01*
X158501D01*
X157502Y228501D01*
X163500Y226501D02*
X167498D01*
X169498Y233499D02*
Y227501D01*
X172497D01*
X173496Y228501D01*
Y229500D01*
X172497Y230500D01*
X169498D01*
X172497D01*
X173496Y231500D01*
Y232499D01*
X172497Y233499D01*
X169498D01*
X155502Y357499D02*
X154503Y358499D01*
X152503D01*
X151504Y357499D01*
Y353501D01*
X152503Y352501D01*
X154503D01*
X155502Y353501D01*
X161500Y358499D02*
X157502D01*
Y355500D01*
X159501Y356500D01*
X160501D01*
X161500Y355500D01*
Y353501D01*
X160501Y352501D01*
X158501D01*
X157502Y353501D01*
X163500Y351501D02*
X167498D01*
X169498Y352501D02*
Y356500D01*
X171497Y358499D01*
X173496Y356500D01*
Y352501D01*
Y355500D01*
X169498D01*
X255502Y232499D02*
X254503Y233499D01*
X252503D01*
X251504Y232499D01*
Y228501D01*
X252503Y227501D01*
X254503D01*
X255502Y228501D01*
X260501Y227501D02*
Y233499D01*
X257502Y230500D01*
X261500D01*
X263500Y226501D02*
X267498D01*
X269498Y233499D02*
Y227501D01*
X272497D01*
X273497Y228501D01*
Y229500D01*
X272497Y230500D01*
X269498D01*
X272497D01*
X273497Y231500D01*
Y232499D01*
X272497Y233499D01*
X269498D01*
X255502Y357499D02*
X254503Y358499D01*
X252503D01*
X251504Y357499D01*
Y353501D01*
X252503Y352501D01*
X254503D01*
X255502Y353501D01*
X260501Y352501D02*
Y358499D01*
X257502Y355500D01*
X261500D01*
X263500Y351501D02*
X267498D01*
X269498Y352501D02*
Y356500D01*
X271497Y358499D01*
X273497Y356500D01*
Y352501D01*
Y355500D01*
X269498D01*
X205502Y232499D02*
X204503Y233499D01*
X202503D01*
X201504Y232499D01*
Y228501D01*
X202503Y227501D01*
X204503D01*
X205502Y228501D01*
X207502Y232499D02*
X208501Y233499D01*
X210501D01*
X211500Y232499D01*
Y231500D01*
X210501Y230500D01*
X209501D01*
X210501D01*
X211500Y229500D01*
Y228501D01*
X210501Y227501D01*
X208501D01*
X207502Y228501D01*
X213500Y226501D02*
X217498D01*
X219498Y233499D02*
Y227501D01*
X222497D01*
X223497Y228501D01*
Y229500D01*
X222497Y230500D01*
X219498D01*
X222497D01*
X223497Y231500D01*
Y232499D01*
X222497Y233499D01*
X219498D01*
X205502Y357499D02*
X204503Y358499D01*
X202503D01*
X201504Y357499D01*
Y353501D01*
X202503Y352501D01*
X204503D01*
X205502Y353501D01*
X207502Y357499D02*
X208501Y358499D01*
X210501D01*
X211500Y357499D01*
Y356500D01*
X210501Y355500D01*
X209501D01*
X210501D01*
X211500Y354500D01*
Y353501D01*
X210501Y352501D01*
X208501D01*
X207502Y353501D01*
X213500Y351501D02*
X217498D01*
X219498Y352501D02*
Y356500D01*
X221497Y358499D01*
X223497Y356500D01*
Y352501D01*
Y355500D01*
X219498D01*
X490505Y127999D02*
X494504D01*
X492505D01*
Y122001D01*
X496503D02*
Y127999D01*
X499502D01*
X500502Y126999D01*
Y125000D01*
X499502Y124000D01*
X496503D01*
X505500Y122001D02*
Y127999D01*
X502501Y125000D01*
X506500D01*
X494504Y116999D02*
X493504Y117999D01*
X491505D01*
X490505Y116999D01*
Y113001D01*
X491505Y112001D01*
X493504D01*
X494504Y113001D01*
Y115000D01*
X492505D01*
X496503Y112001D02*
Y117999D01*
X500502Y112001D01*
Y117999D01*
X502501D02*
Y112001D01*
X505500D01*
X506500Y113001D01*
Y116999D01*
X505500Y117999D01*
X502501D01*
X531000Y235499D02*
X534999D01*
X532999D01*
Y229501D01*
X536998D02*
Y235499D01*
X539997D01*
X540997Y234499D01*
Y232500D01*
X539997Y231500D01*
X536998D01*
X546995Y235499D02*
X542996D01*
Y232500D01*
X544995Y233500D01*
X545995D01*
X546995Y232500D01*
Y230501D01*
X545995Y229501D01*
X543996D01*
X542996Y230501D01*
X531000Y225499D02*
Y221500D01*
X532999Y219501D01*
X534999Y221500D01*
Y225499D01*
X540997Y224499D02*
X539997Y225499D01*
X537998D01*
X536998Y224499D01*
Y220501D01*
X537998Y219501D01*
X539997D01*
X540997Y220501D01*
X546995Y224499D02*
X545995Y225499D01*
X543996D01*
X542996Y224499D01*
Y220501D01*
X543996Y219501D01*
X545995D01*
X546995Y220501D01*
X543500Y280499D02*
X547499D01*
X545499D01*
Y274501D01*
X549498D02*
Y280499D01*
X552497D01*
X553497Y279499D01*
Y277500D01*
X552497Y276500D01*
X549498D01*
X559495Y280499D02*
X557495Y279499D01*
X555496Y277500D01*
Y275501D01*
X556496Y274501D01*
X558495D01*
X559495Y275501D01*
Y276500D01*
X558495Y277500D01*
X555496D01*
X547499Y269499D02*
X546499Y270499D01*
X544500D01*
X543500Y269499D01*
Y265501D01*
X544500Y264501D01*
X546499D01*
X547499Y265501D01*
X549498Y270499D02*
Y264501D01*
X553497D01*
X555496Y270499D02*
Y264501D01*
Y266500D01*
X559495Y270499D01*
X556496Y267500D01*
X559495Y264501D01*
X307502Y347999D02*
Y343001D01*
X308502Y342001D01*
X310502D01*
X311501Y343001D01*
Y347999D01*
X313500Y342001D02*
X315500D01*
X314500D01*
Y347999D01*
X313500Y346999D01*
X321498Y342001D02*
Y347999D01*
X318499Y345000D01*
X322498D01*
X115501Y321001D02*
X114501Y320002D01*
Y318002D01*
X115501Y317003D01*
X119499D01*
X120499Y318002D01*
Y320002D01*
X119499Y321001D01*
Y323001D02*
X120499Y324000D01*
Y326000D01*
X119499Y326999D01*
X115501D01*
X114501Y326000D01*
Y324000D01*
X115501Y323001D01*
X116500D01*
X117500Y324000D01*
Y326999D01*
X119499Y328999D02*
X120499Y329998D01*
Y331998D01*
X119499Y332997D01*
X115501D01*
X114501Y331998D01*
Y329998D01*
X115501Y328999D01*
X116500D01*
X117500Y329998D01*
Y332997D01*
X467502Y347999D02*
Y343001D01*
X468502Y342001D01*
X470502D01*
X471501Y343001D01*
Y347999D01*
X473500Y342001D02*
X475500D01*
X474500D01*
Y347999D01*
X473500Y346999D01*
X478499D02*
X479498Y347999D01*
X481498D01*
X482498Y346999D01*
Y343001D01*
X481498Y342001D01*
X479498D01*
X478499Y343001D01*
Y346999D01*
X367502Y347999D02*
Y343001D01*
X368502Y342001D01*
X370501D01*
X371501Y343001D01*
Y347999D01*
X373500Y342001D02*
X375500D01*
X374500D01*
Y347999D01*
X373500Y346999D01*
X382498Y342001D02*
X378499D01*
X382498Y346000D01*
Y346999D01*
X381498Y347999D01*
X379499D01*
X378499Y346999D01*
X378502Y117999D02*
Y113001D01*
X379502Y112001D01*
X381501D01*
X382501Y113001D01*
Y117999D01*
X384500Y112001D02*
X386500D01*
X385500D01*
Y117999D01*
X384500Y116999D01*
X389498Y112001D02*
X391498D01*
X390498D01*
Y117999D01*
X389498Y116999D01*
X422502Y347999D02*
Y343001D01*
X423501Y342001D01*
X425501D01*
X426500Y343001D01*
Y347999D01*
X428500Y343001D02*
X429499Y342001D01*
X431499D01*
X432498Y343001D01*
Y346999D01*
X431499Y347999D01*
X429499D01*
X428500Y346999D01*
Y346000D01*
X429499Y345000D01*
X432498D01*
X430002Y137999D02*
Y133001D01*
X431001Y132001D01*
X433001D01*
X434000Y133001D01*
Y137999D01*
X436000D02*
X439998D01*
Y136999D01*
X436000Y133001D01*
Y132001D01*
X480002Y137999D02*
Y133001D01*
X481001Y132001D01*
X483001D01*
X484000Y133001D01*
Y137999D01*
X486000Y136999D02*
X486999Y137999D01*
X488999D01*
X489998Y136999D01*
Y136000D01*
X488999Y135000D01*
X489998Y134000D01*
Y133001D01*
X488999Y132001D01*
X486999D01*
X486000Y133001D01*
Y134000D01*
X486999Y135000D01*
X486000Y136000D01*
Y136999D01*
X486999Y135000D02*
X488999D01*
X325002Y142999D02*
Y138001D01*
X326001Y137001D01*
X328001D01*
X329000Y138001D01*
Y142999D01*
X334998D02*
X332999Y141999D01*
X331000Y140000D01*
Y138001D01*
X331999Y137001D01*
X333999D01*
X334998Y138001D01*
Y139000D01*
X333999Y140000D01*
X331000D01*
X164004Y118499D02*
Y113500D01*
X165003Y112501D01*
X167003D01*
X168002Y113500D01*
Y118499D01*
X174000D02*
X170002D01*
Y115500D01*
X172001Y116499D01*
X173001D01*
X174000Y115500D01*
Y113500D01*
X173001Y112501D01*
X171001D01*
X170002Y113500D01*
X176000Y111501D02*
X179998D01*
X181998Y118499D02*
Y112501D01*
X184997D01*
X185996Y113500D01*
Y114500D01*
X184997Y115500D01*
X181998D01*
X184997D01*
X185996Y116499D01*
Y117499D01*
X184997Y118499D01*
X181998D01*
X151504Y348499D02*
Y343500D01*
X152503Y342501D01*
X154503D01*
X155502Y343500D01*
Y348499D01*
X161500D02*
X157502D01*
Y345500D01*
X159501Y346499D01*
X160501D01*
X161500Y345500D01*
Y343500D01*
X160501Y342501D01*
X158501D01*
X157502Y343500D01*
X163500Y341501D02*
X167498D01*
X169498Y342501D02*
Y346499D01*
X171497Y348499D01*
X173496Y346499D01*
Y342501D01*
Y345500D01*
X169498D01*
X254004Y138499D02*
Y133501D01*
X255003Y132501D01*
X257003D01*
X258002Y133501D01*
Y138499D01*
X263001Y132501D02*
Y138499D01*
X260002Y135500D01*
X264000D01*
X266000Y131501D02*
X269998D01*
X271998Y138499D02*
Y132501D01*
X274997D01*
X275996Y133501D01*
Y134500D01*
X274997Y135500D01*
X271998D01*
X274997D01*
X275996Y136500D01*
Y137499D01*
X274997Y138499D01*
X271998D01*
X251504Y348499D02*
Y343500D01*
X252503Y342501D01*
X254503D01*
X255502Y343500D01*
Y348499D01*
X260501Y342501D02*
Y348499D01*
X257502Y345500D01*
X261500D01*
X263500Y341501D02*
X267498D01*
X269498Y342501D02*
Y346499D01*
X271497Y348499D01*
X273497Y346499D01*
Y342501D01*
Y345500D01*
X269498D01*
X214004Y138499D02*
Y133501D01*
X215003Y132501D01*
X217003D01*
X218002Y133501D01*
Y138499D01*
X220002Y137499D02*
X221001Y138499D01*
X223001D01*
X224000Y137499D01*
Y136500D01*
X223001Y135500D01*
X222001D01*
X223001D01*
X224000Y134500D01*
Y133501D01*
X223001Y132501D01*
X221001D01*
X220002Y133501D01*
X226000Y131501D02*
X229998D01*
X231998Y138499D02*
Y132501D01*
X234997D01*
X235997Y133501D01*
Y134500D01*
X234997Y135500D01*
X231998D01*
X234997D01*
X235997Y136500D01*
Y137499D01*
X234997Y138499D01*
X231998D01*
X201504Y348499D02*
Y343500D01*
X202503Y342501D01*
X204503D01*
X205502Y343500D01*
Y348499D01*
X207502Y347499D02*
X208501Y348499D01*
X210501D01*
X211500Y347499D01*
Y346499D01*
X210501Y345500D01*
X209501D01*
X210501D01*
X211500Y344500D01*
Y343500D01*
X210501Y342501D01*
X208501D01*
X207502Y343500D01*
X213500Y341501D02*
X217498D01*
X219498Y342501D02*
Y346499D01*
X221497Y348499D01*
X223497Y346499D01*
Y342501D01*
Y345500D01*
X219498D01*
X112999Y106001D02*
X107001D01*
Y109000D01*
X108001Y110000D01*
X110000D01*
X111000Y109000D01*
Y106001D01*
X112999Y111999D02*
Y113999D01*
Y112999D01*
X107001D01*
X108001Y111999D01*
D14*
X111063Y335585D02*
Y332919D01*
X112396Y334252D02*
X109730D01*
M02*
