M48
;Layer_Color=9474304
;FILE_FORMAT=2:5
INCH,LZ
;TYPE=PLATED
T1F00S00C0.01000
T2F00S00C0.02000
T3F00S00C0.02953
T4F00S00C0.03543
T5F00S00C0.06299
T6F00S00C0.10900
%
T01
X019Y0145
X02645Y015
X0481Y0235
X0446428Y0278
X0449446Y0287912
X04525Y0306
X0395Y0294153
X0317Y028
X03195Y027
X0322Y026
X03245Y025
X0317Y018
X03195Y017
X0322Y016
X0262
X02595Y017
X0257Y018
X02645Y0194153
X0262Y02063
X02595Y0224247
X0257Y0234247
X02645Y025
X0262Y026
X02595Y027
X0257Y028
X0232Y0303
X02245Y0237
X0227Y0227
X02295Y0215847
X0232Y0197999
X01755Y023
X01655Y0240107
X0163Y025
X01605Y026
X0158Y029
Y018
X01605Y017
X0163Y016
X0172849Y0318349
X01655Y0331
X0163Y03357
X01605Y0341
X0158Y035
X02245Y03335
X0227Y0326
X02295Y0314153
X02545Y0338
X03145Y0344153
X0455Y0323625
X0495Y0328661
T02
X015Y0121063
X034Y022
X039
X046Y031
X028
X022
X02
Y028
X019Y0245
X02Y022
X022
X019Y021
X02Y019
X028Y022
X019Y032
T03
X015Y0135
X0159843
X018Y0128937
X018Y0121063
X0410157Y0215
X042
X031
X0300157
X025
X0240158
Y0315
X025
X0300157
X031
X018Y0325
X0170158
X0360157Y0315
X037
X0410157
X042
X0480158
X049
T04
X011Y012
X012
Y013
Y014
Y015
X013
Y014
Y013
Y012
X011Y013
Y014
Y015
X015
X018
X022
Y014
Y013
X025
Y014
Y015
X028
Y014
Y013
X031
Y014
Y015
X039
Y014
X042
Y015
X049Y023
Y024
Y025
Y026
Y027
Y028
Y029
Y03
X046
Y029
Y028
Y027
Y026
Y025
Y024
Y023
X042Y024
Y025
Y026
Y027
Y028
Y029
Y03
X039
Y029
Y028
Y027
Y026
Y025
Y024
X037
Y025
Y026
Y027
Y028
Y029
Y03
X034
Y029
Y028
Y027
Y026
Y025
Y024
X039Y02
Y019
Y018
Y017
Y016
X042
Y017
Y018
Y019
Y02
X031
Y019
Y018
Y017
Y016
X028
Y017
Y018
Y019
Y02
Y023
Y024
Y025
Y026
Y027
Y028
Y029
Y03
X031
Y029
Y028
Y027
Y026
Y025
Y024
Y023
X025
Y024
Y025
Y026
Y027
Y028
Y029
Y03
X022
Y029
Y028
Y027
Y026
Y025
Y024
Y023
Y02
Y019
Y018
Y017
Y016
X025
Y017
Y018
Y019
Y02
X018
Y021
Y022
Y024
Y025
Y026
Y027
Y028
Y029
Y03
Y031
Y019
Y018
Y017
Y016
X015
Y017
Y018
Y019
Y02
Y021
Y022
X013
X012
Y023
Y024
Y025
Y026
Y027
Y028
Y029
Y03
Y031
X013
Y03
Y029
Y028
Y027
Y026
Y025
Y024
Y023
Y021
X012
Y02
Y019
Y018
Y017
Y016
X013
Y017
Y018
Y019
Y02
X011
Y021
Y022
Y023
Y024
Y025
Y026
Y027
Y028
Y029
Y03
Y031
X015
Y03
Y029
Y028
Y027
Y026
Y025
Y024
X011Y019
Y018
Y017
Y016
Y032
X012
Y033
Y034
Y035
X013
Y034
Y033
Y032
X011Y033
Y034
Y035
T05
X02Y013
X0375Y0145
X051Y0225
Y024
Y0255
Y027
Y0285
X0445Y0235
X027Y0335
X0185Y035
X033Y034
T06
X0595Y0125
Y0345
M30
