M48
;Layer_Color=9474304
;FILE_FORMAT=2:5
INCH,LZ
;TYPE=PLATED
T1F00S00C0.01000
T2F00S00C0.02000
T3F00S00C0.02953
T4F00S00C0.03543
T5F00S00C0.06299
T6F00S00C0.10900
%
T01
X019Y0145
X02645Y015
X0481Y0235
X0446428Y0278
X0449446Y0287912
X04525Y0306
X0395Y0294153
X0317Y028
X03195Y027
X0322Y026
X03245Y025
X0317Y018
X03195Y017
X0322Y016
X0262
X02595Y017
X0257Y018
X02645Y0194153
X0262Y02063
X02595Y0224247
X0257Y0234247
X02645Y025
X0262Y026
X02595Y027
X0257Y028
X0232Y0303
X02245Y0237
X0227Y0227
X02295Y0215847
X0232Y0197999
X01755Y023
X01655Y0240107
X0163Y025
X01605Y026
X0158Y029
Y018
X01605Y017
X0163Y016
X0172849Y0318349
X01655Y0331
X0163Y03357
X01605Y0341
X0158Y035
X02245Y03335
X0227Y0326
X02295Y0314153
X02545Y0338
X03145Y0344153
X0455Y0323625
X0495Y0328661
T02
X015Y0121063
X01715Y0134
X0193957Y015492
X0209726Y0146874
X033Y014
X035
X038Y012
X04
X042
X044
X046
X045Y014
X043
X041
X047
X049
X051
X053
X055
X057
X059
X061
X058Y012
X056
X054
X052
X05
X048
Y016
X05
X052
X054
X056
X058
X06
X061Y018
X059
X057
X055
X053
X051
X049
X047
X048Y02
X05
X052
X054
X056
X058
X06
X061Y022
X059
X057
X055
X053
X054Y024
X056
X058
X06
X061Y026
X059
X057
X055
X053
X054Y028
X056
X058
X06
X061Y03
X059
X057
X055
X053
X051
X052Y028
Y024
X05
X049Y022
X047
Y03
X046Y031
X043Y03
X041
Y026
X043
Y022
X045
X046Y02
X044
X045Y018
X043
X041
X04Y016
X044
X046
X036
X034
X035Y018
X033
X034Y02
X036
X038
X037Y022
X035
X034
X033
X036Y024
X039Y022
X029
X028
X027
X03Y02
X024
X022Y022
X02
X019Y021
X02Y019
X0208572Y0243154
X02115Y02575
X0192
X019Y0245
X02Y028
Y031
X022
X027Y03
X029
X028Y031
X027Y03505
X025
X023
X021
X019Y032
X029Y03505
X031
X035Y034
X037
X039
X041
X043
X045
X047
X049
X051
X053
X055
X057
X058Y032
X06
X061Y034
X056Y032
X054
X052
T03
X015Y0135
X0159843
X018Y0128937
X018Y0121063
X0410157Y0215
X042
X031
X0300157
X025
X0240158
Y0315
X025
X0300157
X031
X018Y0325
X0170158
X0360157Y0315
X037
X0410157
X042
X0480158
X049
T04
X011Y012
X012
Y013
Y014
Y015
X013
Y014
Y013
Y012
X011Y013
Y014
Y015
X015
X018
X022
Y014
Y013
X025
Y014
Y015
X028
Y014
Y013
X031
Y014
Y015
X039
Y014
X042
Y015
X049Y023
Y024
Y025
Y026
Y027
Y028
Y029
Y03
X046
Y029
Y028
Y027
Y026
Y025
Y024
Y023
X042Y024
Y025
Y026
Y027
Y028
Y029
Y03
X039
Y029
Y028
Y027
Y026
Y025
Y024
X037
Y025
Y026
Y027
Y028
Y029
Y03
X034
Y029
Y028
Y027
Y026
Y025
Y024
X039Y02
Y019
Y018
Y017
Y016
X042
Y017
Y018
Y019
Y02
X031
Y019
Y018
Y017
Y016
X028
Y017
Y018
Y019
Y02
Y023
Y024
Y025
Y026
Y027
Y028
Y029
Y03
X031
Y029
Y028
Y027
Y026
Y025
Y024
Y023
X025
Y024
Y025
Y026
Y027
Y028
Y029
Y03
X022
Y029
Y028
Y027
Y026
Y025
Y024
Y023
Y02
Y019
Y018
Y017
Y016
X025
Y017
Y018
Y019
Y02
X018
Y021
Y022
Y024
Y025
Y026
Y027
Y028
Y029
Y03
Y031
Y019
Y018
Y017
Y016
X015
Y017
Y018
Y019
Y02
Y021
Y022
X013
X012
Y023
Y024
Y025
Y026
Y027
Y028
Y029
Y03
Y031
X013
Y03
Y029
Y028
Y027
Y026
Y025
Y024
Y023
Y021
X012
Y02
Y019
Y018
Y017
Y016
X013
Y017
Y018
Y019
Y02
X011
Y021
Y022
Y023
Y024
Y025
Y026
Y027
Y028
Y029
Y03
Y031
X015
Y03
Y029
Y028
Y027
Y026
Y025
Y024
X011Y019
Y018
Y017
Y016
Y032
X012
Y033
Y034
Y035
X013
Y034
Y033
Y032
X011Y033
Y034
Y035
T05
X02Y013
X0375Y0145
X051Y0225
Y024
Y0255
Y027
Y0285
X0445Y0235
X027Y0335
X0185Y035
X033Y034
T06
X0595Y0125
Y0345
M30
