M48
;Layer_Color=9474304
;FILE_FORMAT=2:5
INCH,LZ
;TYPE=PLATED
T1F00S00C0.01000
T2F00S00C0.02000
T3F00S00C0.02953
T4F00S00C0.03543
T5F00S00C0.06299
T6F00S00C0.10900
%
T01
X01375Y015
X0497Y0247
X0546Y02445
X04475Y0245
X0405Y0254
X039Y02675
X038Y0279
X037Y02755
Y027
X036Y02725
X04Y02835
X03
X028Y0279
X027Y02755
Y027
X026Y02725
X029Y02675
X0305Y0254
X02205Y02487
X02115Y02535
X0198047Y0265
X019Y02675
X017Y027
X0173Y02755
X016Y0272
X01585Y0239
X019Y023
X0204Y022
X0194247Y0199747
X01875Y01925
X0185122Y019
X0199Y01795
X0175Y0209
X0164Y0199
X02Y03025
X02055Y0305
X01355Y0245
X0143Y02116
X01405Y02016
X0138Y01916
X0141Y01565
X01445Y01595
X0156Y0169
X01355Y03355
X0169Y03245
X026Y03225
X027Y032
Y03255
X028Y0329
X029Y03175
X03Y03335
X036Y03225
X037Y032
Y03255
X038Y0329
X039Y03175
X04Y03335
T02
X047Y0251
X052
X041
X0352Y0301
X031Y0251
X02245Y024
X0252Y0301
X0152897Y029
T03
X015Y0121063
X015Y0128937
X018Y0135
X0189842
X028
X0289843
X038
X0389843
X044
X0449843
X049
X0499843
X054
X0549843
X0345Y0280157
Y029
X0245
Y0280157
X0145
Y029
Y0330157
Y034
X0245
Y0330157
X0345
Y034
T04
X011Y012
X012
Y013
Y014
Y015
X013
Y014
Y013
Y012
X011Y013
Y014
Y015
X018
X021
X028
X031
X038
X041
X044
X047
X049
X052
X054
X057
Y016
Y017
Y018
Y019
Y02
Y021
Y022
Y023
Y024
X054
Y023
Y022
Y021
Y02
Y019
Y018
Y017
Y016
X052
Y017
Y018
Y019
Y02
Y021
Y022
Y023
Y024
X049
Y023
Y022
Y021
Y02
Y019
Y018
Y017
Y016
X047
Y017
Y018
Y019
Y02
Y021
Y022
Y023
Y024
X044
Y023
Y022
Y021
Y02
Y019
Y018
Y017
Y016
X041
Y017
Y018
Y019
Y02
Y021
Y022
Y023
Y024
Y026
X04
X039
X038
X037
X036
Y029
X037
X038
X039
X04
X041
X042
Y031
X041
X04
X039
X038
X037
X036
X032
Y029
Y026
X038Y024
Y023
Y022
Y021
Y02
Y019
Y018
Y017
Y016
X042Y026
X031
X03
X029
X028
X027
X026
Y029
X027
X028
X029
X03
X031
Y031
X03
X029
X028
X027
X026
X022
X021
X02
X019
X018
X017
X016
Y029
X017
X018
X019
X02
X021
X022
Y026
X021
X02
X019
X018
X017
X016
X018Y024
Y023
Y022
Y021
Y02
Y019
Y018
Y017
Y016
X021
Y017
Y018
Y019
Y02
Y021
Y022
Y023
Y024
X028
Y023
Y022
Y021
Y02
Y019
Y018
Y017
Y016
X031
Y017
Y018
Y019
Y02
Y021
Y022
Y023
Y024
X013
X012
Y023
Y022
Y021
Y02
Y019
Y018
Y017
Y016
X013
Y017
Y018
Y019
Y02
Y021
Y022
Y023
Y025
X012
Y026
Y027
Y028
Y029
Y03
Y031
X013
Y03
Y029
Y028
Y027
Y026
X011
Y027
Y028
Y029
Y03
Y031
Y025
Y024
Y023
Y022
Y021
Y02
Y019
Y018
Y017
Y016
Y032
X012
Y033
X013
Y032
X011Y033
X016Y034
X017
X018
X019
X02
X021
X022
X026
X027
X028
X029
X03
X031
X032
X036
X037
X038
X039
X04
X041
X042
T05
X016Y015
X021Y012
X024
X026Y015
X036
X049Y027
X054
X044
T06
X0595Y0125
Y0345
M30
