M48
;Layer_Color=9474304
;FILE_FORMAT=2:5
INCH,LZ
;TYPE=PLATED
T1F00S00C0.01000
T2F00S00C0.02000
T3F00S00C0.02953
T4F00S00C0.03543
T5F00S00C0.06299
T6F00S00C0.10900
%
T01
X0187Y012
X0184Y013
X01814Y014
X0179Y0151
X02285Y01225
X0263Y0154
X0293Y0137
X03265Y0134
X0376Y0137
X0445Y0135
X04748Y0226
X0476Y0244
X04748Y02975
X0495079Y0309882
X0525Y0304153
X0531Y0294
X0505Y0276
X0464Y0307
X04445Y0262
X0444Y02235
X045Y022
X0455Y0217
X0464Y0204
X04145Y0191
X04105Y01775
X0394Y0163
X03795Y01835
X03645Y0174
X0345433Y01885
X0332Y01865
X03236Y01938
X033Y0217
X035Y02235
X0355Y0226
X04248Y0228
X04145Y02525
X0365Y0311
X033Y028
X03Y02285
X02955Y02006
X02783Y0194
X027572Y0187
X02591Y02005
X02623Y02156
X026Y0245
X0255873Y026
X0235Y0278
X02347Y02872
X0245Y0304153
X0186Y031
X01837Y03
X0181Y0289
X01787Y028
X0176Y027
X01623Y02735
X0159Y0259
X0162Y0229
X01764Y02023
X01787Y01934
X0181Y0185
X01837Y0175
X0186957Y0157772
X0176Y016
X02425Y01725
X0245Y0183
X0256Y01715
X02608Y01687
X03055Y0163
X02165Y02022
X02142Y02131
X021Y02129
X02077Y0218
X0205Y0221
X02128Y02358
X0225Y0228
X0235
X0155Y022
X0156Y0255
X0153Y0265
X0151Y0275
X0149Y0285
X0147Y0295
X0145Y0305
X0143Y0315
X0141Y0325
X01471Y0346399
X014908Y034442
X015106Y034244
X015304Y034046
X015502Y033848
X0145121Y0348379
X0143141Y0350359
X014Y0353
X0137Y0355
X013Y0358
X0157Y03365
X0215Y0335
X023648Y032548
X026Y03362
X0306Y035
X031Y03515
X03355Y0349
X0358Y0351
X0361Y0344
X0378Y03465
X0408Y03415
X0405Y03385
X042Y0334
X0427Y0355
X0445Y03238
X03125Y0326
X047
X0482Y0352
X052Y0357
X0528Y0336
T02
X015Y014
X0160078Y0148021
X016Y012
X0190157Y0115
X0235Y01175
X0285
X0335
X0385
X0435
X046Y012
X048
X054
X056
X058
X059Y014
X061
X057
X055
X056Y016
X058
X06
X061Y018
X059
X057
X055
X056Y02
X058
X06
X061Y022
X059
X057
X055
X053
X054Y0232
Y024
X056
X058
X06
X061Y026
X059
X057
X058Y028
X06
X061Y03
X059
X057
X056Y028
X054
X053Y026
X049Y02525
Y0232
Y0285
X054Y02
Y016
X046
X044
Y0232
X039
X034
X029
Y022
X027
X024Y0232
X0190157
X0143Y021095
X03895Y0346775
X04175Y0345
X0435
X04525
X04725
X04925
X05125
X05325
X057Y034
X058Y032
X06
X061Y034
X056Y032
T03
X015Y0121063
X015Y0128937
X0490158Y0195
X05
X045
X0440158
X04
X0390158
X035
X0340158
X03Y0205
X0290158
X025
X0240158
X02Y0225
X0190157
Y0345
X02
X0240158Y0315
X025
X0290158
X03
X0340158
X035
X0390158
X04
X0440158
X045
X0490158
X05
X0540158
X055
T04
X011Y012
Y013
Y014
Y015
X012
X013
Y014
Y013
Y012
X012
Y013
Y014
X017
Y015
Y013
Y012
X02
Y013
Y014
Y015
X022
Y014
Y013
Y012
X025
Y013
Y014
Y015
X027
Y014
Y013
Y012
X03
Y013
Y014
Y015
X032
Y014
Y013
Y012
X035
Y013
Y014
Y015
X037
Y014
Y013
Y012
X04
Y013
Y014
Y015
X042
Y014
Y013
Y012
X045
Y013
Y014
Y015
X047
Y014
Y013
Y012
X05
Y013
Y014
Y015
Y016
Y017
Y018
X047
Y017
Y016
Y024
Y025
Y026
Y027
Y028
Y029
Y03
X05
Y029
Y028
Y027
Y026
Y025
Y024
X052
Y025
Y026
Y027
Y028
Y029
Y03
X055
Y029
Y028
Y027
Y026
Y025
Y024
X045
Y025
Y026
Y027
Y028
Y029
Y03
X042
Y029
Y028
Y027
Y026
Y025
Y024
X04
Y025
Y026
Y027
Y028
Y029
Y03
X037
Y029
Y028
Y027
Y026
Y025
Y024
X035
Y025
Y026
Y027
Y028
Y029
Y03
X032
Y029
Y028
Y027
Y026
Y025
Y024
Y018
Y017
Y016
X035
Y017
Y018
X037
Y017
Y016
X04
Y017
Y018
X042
Y017
Y016
X045
Y017
Y018
X03
Y019
Y017
Y016
X027
Y017
Y018
Y019
X025
Y018
Y017
Y016
X022
Y017
Y018
Y019
X02
Y02
Y021
X017
Y02
Y019
Y018
Y017
Y016
X02
Y017
Y018
Y024
Y025
Y026
Y027
Y028
Y029
Y03
Y031
X022Y03
Y029
Y028
Y027
Y026
Y025
Y024
X025
Y025
Y026
Y027
Y028
Y029
Y03
X027
Y029
Y028
Y027
Y026
Y025
Y024
X03
Y025
Y026
Y027
Y028
Y029
Y03
X017
Y031
Y029
Y028
Y027
Y026
Y025
Y024
X013
Y025
Y026
Y027
Y028
Y029
Y03
Y031
X012
X011
Y03
Y029
Y028
Y027
Y026
Y025
Y024
Y023
Y022
Y021
Y02
Y019
Y018
Y017
Y016
X012
X013
Y017
Y018
Y019
Y02
Y021
Y022
Y023
X012
Y024
Y025
Y026
Y027
Y028
Y029
Y03
Y022
Y021
Y02
Y019
Y018
Y017
Y032
X013
Y033
X012
X011
Y032
X017
Y033
X02
Y032
T05
X052Y012
X054Y013
X052Y015
Y018
X051Y021
X053
X047
X042
X055Y035
T06
X0595Y0125
Y0345
M30
