M48
;Layer_Color=9474304
;FILE_FORMAT=2:5
INCH,LZ
;TYPE=PLATED
T1F00S00C0.02953
T2F00S00C0.03543
T3F00S00C0.10900
%
T01
X017Y0121063
X017Y0128937
T02
X011Y012
X012
Y013
X011
Y014
X012
Y015
X011
X014
X015
Y014
X014
Y013
X015
Y012
X014
X0185Y0115
X0195
X0205
Y0125
Y0135
Y0145
Y0155
X0215
X0225
X0235
Y0145
X0225
Y0135
X0235
Y0125
X0225
Y0115
X0235
X0245
X0255
X0265
Y0125
Y0135
Y0145
Y0155
X0275
Y0145
Y0135
Y0125
Y0115
X0285
X0295
X0305
Y0125
Y0135
Y0145
Y0155
X0295
Y0145
Y0135
Y0125
X0285
Y0135
Y0145
Y0155
X0255
Y0145
Y0135
Y0125
X0245
Y0135
Y0145
Y0155
X0215Y0145
Y0135
Y0125
Y0115
X0195Y0125
X0185
Y0135
X0195
Y0145
X0185
Y0155
X0195
X0175
X0165
Y0145
X0175
X0315
Y0155
X0325
Y0145
Y0135
X0315
Y0125
Y0115
X0325
X0335
X0345
Y0125
Y0135
Y0145
Y0155
X0355
Y0145
Y0135
Y0125
Y0115
X0365
X0375
X0385
Y0125
Y0135
Y0145
Y0155
X0395
Y0145
Y0135
Y0125
Y0115
X0405
X0415
X0425
Y0125
Y0135
Y0145
Y0155
X0435
Y0145
Y0135
Y0125
Y0115
X0445
X0455
X0465
Y0125
Y0135
Y0145
Y0155
X0455
Y0145
Y0135
Y0125
X0445
Y0135
Y0145
Y0155
X0415
Y0145
Y0135
Y0125
X0405
Y0135
Y0145
Y0155
X0375
Y0145
Y0135
Y0125
X0365
Y0135
Y0145
Y0155
X0335
Y0145
Y0135
Y0125
X0325
X0475
Y0135
Y0145
Y0155
X0485
Y0145
Y0135
Y0125
Y0115
X0475
X0495
X0505
Y0125
Y0135
Y0145
Y0155
X0515
Y0145
Y0135
Y0125
Y0115
X0525
X0535
X0545
Y0125
Y0135
Y0145
Y0155
X0555
Y0145
Y0135
Y0125
Y0115
X0565
X0575
Y0125
X0565
Y0135
X0575
Y0145
X0585
Y0155
X0595
X0575
X0565
Y0145
X0535
Y0135
Y0125
X0525
Y0135
Y0145
Y0155
X0535
X0495
Y0145
Y0135
Y0125
Y0165
X0505
X0515
Y0175
Y0185
Y0195
X0505
Y0185
Y0175
X0495
X0485
X0475
Y0185
Y0195
Y0205
Y0215
Y0225
Y0235
Y0245
Y0255
Y0265
Y0275
Y0285
Y0295
Y0305
X0485
X0495
X0505
Y0295
X0515
Y0285
Y0275
X0505
Y0265
X0515
Y0255
Y0245
Y0235
X0505
Y0225
X0515
Y0215
Y0205
X0505
Y0215
X0495
X0485
Y0205
X0495
Y0195
Y0185
X0485
Y0195
Y0225
X0495
Y0235
Y0245
X0505
Y0255
X0495
X0485
Y0245
Y0235
Y0265
X0495
Y0275
Y0285
X0505
X0525
X0535
X0545
Y0275
X0555
Y0265
X0545
Y0255
Y0245
Y0235
X0555
Y0225
X0545
Y0215
Y0205
Y0195
X0555
Y0185
X0545
Y0175
Y0165
X0555
Y0175
X0565
X0575
X0585
Y0185
Y0195
X0595
Y0185
Y0175
Y0165
X0585
X0575
X0565
Y0185
X0575
Y0195
Y0205
X0585
X0595
Y0215
Y0225
Y0235
X0585
Y0225
Y0215
X0575
X0565
X0555
Y0205
X0565
Y0195
Y0225
X0575
Y0235
Y0245
X0585
X0595
Y0255
Y0265
Y0275
X0585
Y0265
Y0255
X0575
X0565
X0555
Y0245
X0565
Y0235
Y0265
X0575
Y0275
Y0285
X0585
X0565
X0555
Y0295
X0545
Y0305
X0555
X0565
X0575
Y0295
X0565
Y0275
X0535
Y0265
Y0255
X0525
Y0245
X0535
Y0235
Y0225
Y0215
X0525
Y0205
X0535
Y0195
Y0185
Y0175
X0525
Y0165
X0535
X0525Y0185
Y0195
Y0225
Y0235
Y0265
Y0275
Y0295
Y0305
X0515
X0535
Y0295
X0495
X0485
Y0285
Y0275
Y0165
X0475
X0605
Y0175
X0615
Y0185
X0605
Y0195
Y0205
Y0215
X0615
Y0205
Y0195
Y0225
X0605
Y0235
Y0245
Y0255
X0615
Y0245
Y0235
X0605Y0265
X0465
Y0275
Y0285
Y0295
Y0305
X0455
X0445
X0435
Y0295
X0425
Y0285
Y0275
X0435
Y0265
X0425
Y0255
Y0245
Y0235
X0435
Y0225
X0425
Y0215
Y0205
Y0195
X0435
Y0185
X0425
Y0175
Y0165
X0435
Y0175
X0445
X0455
X0465
Y0185
Y0195
Y0205
Y0215
Y0225
Y0235
Y0245
Y0255
X0455
X0445
X0435
Y0245
X0445
X0455
Y0235
Y0225
Y0215
X0445
X0435
Y0205
X0445
X0455
Y0195
Y0185
X0445
Y0195
Y0225
Y0235
Y0265
X0455
Y0275
Y0285
X0445
X0435
X0445Y0295
X0455
X0445Y0275
X0415
Y0285
X0405
X0395
Y0275
X0385
Y0265
X0395
Y0255
Y0245
Y0235
X0385
Y0225
X0395
Y0215
Y0205
Y0195
X0385
Y0185
X0395
Y0175
Y0165
X0385
Y0175
X0375
X0365
X0355
Y0185
Y0195
X0345
Y0185
Y0175
Y0165
X0355
X0365
X0375
Y0185
X0365
Y0195
Y0205
X0355
X0345
Y0215
Y0225
Y0235
X0355
Y0225
Y0215
X0365
X0375
X0385
Y0205
X0375
Y0195
X0405
Y0205
Y0215
X0415
Y0205
Y0195
Y0185
Y0175
X0405
Y0165
X0415
X0445
X0455
X0465
X0405Y0185
Y0225
X0415
Y0235
Y0245
Y0255
X0405
Y0245
Y0235
X0385Y0245
Y0255
X0375
X0365
X0355
Y0265
Y0275
X0345
Y0265
Y0255
Y0245
X0355
X0365
X0375
Y0235
Y0225
X0365
Y0235
Y0265
X0375
Y0275
Y0285
X0385
Y0295
X0395
Y0305
X0385
X0375
X0365
X0355
Y0295
X0345
Y0285
X0355
X0365
Y0295
X0375
X0405
Y0305
X0415
X0425
X0415Y0295
Y0265
X0405
Y0275
X0365
X0335
Y0285
X0325
X0315
Y0275
Y0265
Y0255
Y0245
Y0235
Y0225
Y0215
Y0205
Y0195
Y0185
Y0175
Y0165
X0325
Y0175
X0335
Y0165
Y0185
X0325
Y0195
Y0205
Y0215
X0335
Y0205
Y0195
Y0225
X0325
Y0235
Y0245
Y0255
X0335
Y0245
Y0235
Y0265
X0325
Y0275
Y0295
X0315
Y0305
X0325
X0335
X0345
X0335Y0295
X0305
Y0285
Y0275
Y0265
Y0255
Y0245
Y0235
Y0225
Y0215
Y0205
Y0195
Y0185
Y0175
Y0165
X0295
Y0175
X0285
X0275
Y0185
Y0195
X0265
Y0185
Y0175
Y0165
X0275
X0285
Y0185
X0295
Y0195
Y0205
Y0215
X0285
X0275
Y0225
Y0235
X0265
Y0225
Y0215
Y0205
X0275
X0285
Y0195
Y0225
X0295
Y0235
Y0245
Y0255
X0285
X0275
Y0265
Y0275
X0265
Y0265
Y0255
Y0245
X0275
X0285
Y0235
Y0265
X0295
Y0275
Y0285
X0285
X0275
Y0295
X0265
Y0285
X0255
X0245
X0235
Y0275
X0225
Y0265
X0235
Y0255
Y0245
Y0235
X0225
Y0225
X0235
Y0215
Y0205
Y0195
X0225
Y0185
X0235
Y0175
Y0165
X0225
Y0175
X0215
Y0185
Y0195
X0205
Y0185
Y0175
Y0165
X0215
X0195
Y0175
X0185
Y0165
X0175
X0165
Y0175
Y0185
Y0195
X0175
X0185
Y0205
Y0215
X0195
X0205
Y0225
Y0235
X0215
Y0225
Y0215
X0225
Y0205
X0215
X0205
X0195
Y0195
Y0185
X0185
X0175
Y0175
Y0205
X0165
Y0215
Y0225
Y0235
X0175
X0185
Y0245
Y0255
X0195
X0205
Y0265
Y0275
X0215
Y0265
Y0255
X0225
Y0245
X0215
X0205
X0195
Y0235
Y0225
X0185
X0175
Y0215
Y0245
X0165
Y0255
Y0265
Y0275
X0175
X0185
Y0285
X0195
X0205
Y0295
X0215
X0225
X0235
Y0305
X0225
X0215
X0205
X0195
X0185
Y0295
X0195
Y0275
Y0265
X0185
X0175
Y0255
Y0285
Y0295
X0165
Y0285
Y0305
X0175
X0215Y0285
X0225
X0245Y0295
Y0305
X0255
X0265
X0275
X0285
X0295
X0305
X0295Y0295
X0285
Y0275
X0255
Y0265
Y0255
X0245
Y0245
X0255
Y0235
Y0225
Y0215
X0245
Y0205
X0255
Y0195
Y0185
Y0175
X0245
Y0165
X0255
X0245Y0185
Y0195
Y0225
Y0235
Y0265
Y0275
X0255Y0295
X015Y03
Y031
X014
Y03
Y029
X015
Y028
X014
Y027
X015
Y026
X014
Y025
X015
Y024
X014
Y023
X015
Y022
X014
Y021
X015
Y02
X014
Y019
X015
Y018
X014
Y017
X015
Y016
X014
X012
X011
Y017
X012
Y018
X011
Y019
X012
Y02
X011
Y021
X012
Y022
X011
Y023
X012
Y024
X011
Y025
X012
Y026
X011
Y027
X012
Y028
X011
Y029
X012
Y03
X011
Y031
X012
X0165Y0315
X0175
X0185
X0195
X0205
X0215
X0225
X0235
X0245
X0255
X0265
X0275
X0285
X0295
X0305
X0315
X0325
X0335
X0345
X0355
X0365
X0375
X0385
X0395
X0405
X0415
X0425
X0435
X0445
X0455
X0465
X0475
X0485
X0495
X0505
X0515
X0525
X0535
X0545
X0555
X0565
X0575
T03
X0595Y0125
Y0305
M30
